<?xml version="1.0" encoding="UTF-8"?>
<svg xmlns="http://www.w3.org/2000/svg" xmlns:xlink="http://www.w3.org/1999/xlink" width="371pt" height="281pt" viewBox="0 0 371 281" version="1.1">
<g id="surface1">
<path style="fill:none;stroke-width:0.01;stroke-linecap:round;stroke-linejoin:miter;stroke:rgb(100%,49.803922%,45.098039%);stroke-opacity:1;stroke-miterlimit:10;" d="M -0.00000807146 3.900006 L 0.0999811 3.999995 " transform="matrix(72,0,0,-72,9.1998,294.526999)"/>
<path style="fill:none;stroke-width:0.01;stroke-linecap:round;stroke-linejoin:miter;stroke:rgb(100%,49.803922%,45.098039%);stroke-opacity:1;stroke-miterlimit:10;" d="M 0.0999811 3.999995 L 4.900003 3.999995 " transform="matrix(72,0,0,-72,9.1998,294.526999)"/>
<path style="fill:none;stroke-width:0.01;stroke-linecap:round;stroke-linejoin:miter;stroke:rgb(100%,49.803922%,45.098039%);stroke-opacity:1;stroke-miterlimit:10;" d="M 4.900003 3.999995 L 4.900003 0.400006 " transform="matrix(72,0,0,-72,9.1998,294.526999)"/>
<path style="fill:none;stroke-width:0.01;stroke-linecap:round;stroke-linejoin:miter;stroke:rgb(100%,49.803922%,45.098039%);stroke-opacity:1;stroke-miterlimit:10;" d="M 4.900003 0.400006 L -0.00000807146 0.400006 " transform="matrix(72,0,0,-72,9.1998,294.526999)"/>
<path style="fill:none;stroke-width:0.01;stroke-linecap:round;stroke-linejoin:miter;stroke:rgb(100%,49.803922%,45.098039%);stroke-opacity:1;stroke-miterlimit:10;" d="M -0.00000807146 0.400006 L -0.00000807146 3.900006 " transform="matrix(72,0,0,-72,9.1998,294.526999)"/>
<path style=" stroke:none;fill-rule:evenodd;fill:rgb(45.098039%,45.098039%,87.058824%);fill-opacity:1;" d="M 117.558594 67.726562 C 117.558594 67.246094 116.839844 67.246094 116.839844 67.726562 C 116.839844 68.207031 117.558594 68.207031 117.558594 67.726562 "/>
<path style=" stroke:none;fill-rule:evenodd;fill:rgb(45.098039%,45.098039%,87.058824%);fill-opacity:1;" d="M 128 29.566406 C 128 29.085938 127.28125 29.085938 127.28125 29.566406 C 127.28125 30.046875 128 30.046875 128 29.566406 "/>
<path style=" stroke:none;fill-rule:evenodd;fill:rgb(45.098039%,45.098039%,87.058824%);fill-opacity:1;" d="M 128 36.765625 C 128 36.285156 127.28125 36.285156 127.28125 36.765625 C 127.28125 37.246094 128 37.246094 128 36.765625 "/>
<path style=" stroke:none;fill-rule:evenodd;fill:rgb(45.098039%,45.098039%,87.058824%);fill-opacity:1;" d="M 139.878906 157.726562 C 139.878906 157.246094 139.160156 157.246094 139.160156 157.726562 C 139.160156 158.207031 139.878906 158.207031 139.878906 157.726562 "/>
<path style=" stroke:none;fill-rule:evenodd;fill:rgb(45.098039%,45.098039%,87.058824%);fill-opacity:1;" d="M 139.878906 160.96875 C 139.878906 160.488281 139.160156 160.488281 139.160156 160.96875 C 139.160156 161.445312 139.878906 161.445312 139.878906 160.96875 "/>
<path style=" stroke:none;fill-rule:evenodd;fill:rgb(45.098039%,45.098039%,87.058824%);fill-opacity:1;" d="M 140.238281 73.128906 C 140.238281 72.648438 139.519531 72.648438 139.519531 73.128906 C 139.519531 73.605469 140.238281 73.605469 140.238281 73.128906 "/>
<path style=" stroke:none;fill-rule:evenodd;fill:rgb(45.098039%,45.098039%,87.058824%);fill-opacity:1;" d="M 146 157.726562 C 146 157.246094 145.28125 157.246094 145.28125 157.726562 C 145.28125 158.207031 146 158.207031 146 157.726562 "/>
<path style=" stroke:none;fill-rule:evenodd;fill:rgb(45.098039%,45.098039%,87.058824%);fill-opacity:1;" d="M 146 160.96875 C 146 160.488281 145.28125 160.488281 145.28125 160.96875 C 145.28125 161.445312 146 161.445312 146 160.96875 "/>
<path style=" stroke:none;fill-rule:evenodd;fill:rgb(45.098039%,45.098039%,87.058824%);fill-opacity:1;" d="M 217.640625 24.886719 C 217.640625 24.40625 216.917969 24.40625 216.917969 24.886719 C 216.917969 25.367188 217.640625 25.367188 217.640625 24.886719 "/>
<path style=" stroke:none;fill-rule:evenodd;fill:rgb(45.098039%,45.098039%,87.058824%);fill-opacity:1;" d="M 219.441406 30.285156 C 219.441406 29.808594 218.71875 29.808594 218.71875 30.285156 C 218.71875 30.765625 219.441406 30.765625 219.441406 30.285156 "/>
<path style=" stroke:none;fill-rule:evenodd;fill:rgb(45.098039%,45.098039%,87.058824%);fill-opacity:1;" d="M 223.761719 20.207031 C 223.761719 19.726562 223.039062 19.726562 223.039062 20.207031 C 223.039062 20.6875 223.761719 20.6875 223.761719 20.207031 "/>
<path style=" stroke:none;fill-rule:evenodd;fill:rgb(45.098039%,45.098039%,87.058824%);fill-opacity:1;" d="M 223.761719 227.566406 C 223.761719 227.085938 223.039062 227.085938 223.039062 227.566406 C 223.039062 228.046875 223.761719 228.046875 223.761719 227.566406 "/>
<path style=" stroke:none;fill-rule:evenodd;fill:rgb(45.098039%,45.098039%,87.058824%);fill-opacity:1;" d="M 241.039062 147.648438 C 241.039062 147.167969 240.320312 147.167969 240.320312 147.648438 C 240.320312 148.128906 241.039062 148.128906 241.039062 147.648438 "/>
<path style=" stroke:none;fill-rule:evenodd;fill:rgb(45.098039%,45.098039%,87.058824%);fill-opacity:1;" d="M 241.039062 153.40625 C 241.039062 152.925781 240.320312 152.925781 240.320312 153.40625 C 240.320312 153.886719 241.039062 153.886719 241.039062 153.40625 "/>
<path style=" stroke:none;fill-rule:evenodd;fill:rgb(45.098039%,45.098039%,87.058824%);fill-opacity:1;" d="M 263 147.648438 C 263 147.167969 262.28125 147.167969 262.28125 147.648438 C 262.28125 148.128906 263 148.128906 263 147.648438 "/>
<path style=" stroke:none;fill-rule:evenodd;fill:rgb(45.098039%,45.098039%,87.058824%);fill-opacity:1;" d="M 263 160.605469 C 263 160.128906 262.28125 160.128906 262.28125 160.605469 C 262.28125 161.085938 263 161.085938 263 160.605469 "/>
<path style=" stroke:none;fill-rule:evenodd;fill:rgb(45.098039%,45.098039%,87.058824%);fill-opacity:1;" d="M 266.960938 147.648438 C 266.960938 147.167969 266.238281 147.167969 266.238281 147.648438 C 266.238281 148.128906 266.960938 148.128906 266.960938 147.648438 "/>
<path style=" stroke:none;fill-rule:evenodd;fill:rgb(45.098039%,45.098039%,87.058824%);fill-opacity:1;" d="M 266.960938 153.046875 C 266.960938 152.566406 266.238281 152.566406 266.238281 153.046875 C 266.238281 153.527344 266.960938 153.527344 266.960938 153.046875 "/>
<path style=" stroke:none;fill-rule:evenodd;fill:rgb(45.098039%,45.098039%,87.058824%);fill-opacity:1;" d="M 280.28125 199.128906 C 280.28125 198.648438 279.558594 198.648438 279.558594 199.128906 C 279.558594 199.605469 280.28125 199.605469 280.28125 199.128906 "/>
<path style=" stroke:none;fill-rule:evenodd;fill:rgb(45.098039%,45.098039%,87.058824%);fill-opacity:1;" d="M 280.28125 201.285156 C 280.28125 200.808594 279.558594 200.808594 279.558594 201.285156 C 279.558594 201.765625 280.28125 201.765625 280.28125 201.285156 "/>
<path style=" stroke:none;fill-rule:evenodd;fill:rgb(45.098039%,45.098039%,87.058824%);fill-opacity:1;" d="M 280.28125 203.445312 C 280.28125 202.96875 279.558594 202.96875 279.558594 203.445312 C 279.558594 203.925781 280.28125 203.925781 280.28125 203.445312 "/>
<path style=" stroke:none;fill-rule:evenodd;fill:rgb(45.098039%,45.098039%,87.058824%);fill-opacity:1;" d="M 291.078125 199.128906 C 291.078125 198.648438 290.359375 198.648438 290.359375 199.128906 C 290.359375 199.605469 291.078125 199.605469 291.078125 199.128906 "/>
<path style=" stroke:none;fill-rule:evenodd;fill:rgb(45.098039%,45.098039%,87.058824%);fill-opacity:1;" d="M 293.238281 199.128906 C 293.238281 198.648438 292.519531 198.648438 292.519531 199.128906 C 292.519531 199.605469 293.238281 199.605469 293.238281 199.128906 "/>
<path style=" stroke:none;fill-rule:evenodd;fill:rgb(45.098039%,45.098039%,87.058824%);fill-opacity:1;" d="M 295.398438 199.128906 C 295.398438 198.648438 294.679688 198.648438 294.679688 199.128906 C 294.679688 199.605469 295.398438 199.605469 295.398438 199.128906 "/>
<path style=" stroke:none;fill-rule:evenodd;fill:rgb(45.098039%,45.098039%,87.058824%);fill-opacity:1;" d="M 302.960938 137.566406 C 302.960938 137.085938 302.238281 137.085938 302.238281 137.566406 C 302.238281 138.046875 302.960938 138.046875 302.960938 137.566406 "/>
<path style=" stroke:none;fill-rule:evenodd;fill:rgb(45.098039%,45.098039%,87.058824%);fill-opacity:1;" d="M 305.121094 137.566406 C 305.121094 137.085938 304.398438 137.085938 304.398438 137.566406 C 304.398438 138.046875 305.121094 138.046875 305.121094 137.566406 "/>
<path style=" stroke:none;fill-rule:evenodd;fill:rgb(45.098039%,45.098039%,87.058824%);fill-opacity:1;" d="M 307.28125 137.566406 C 307.28125 137.085938 306.558594 137.085938 306.558594 137.566406 C 306.558594 138.046875 307.28125 138.046875 307.28125 137.566406 "/>
<path style=" stroke:none;fill-rule:evenodd;fill:rgb(45.098039%,45.098039%,87.058824%);fill-opacity:1;" d="M 310.160156 144.765625 C 310.160156 144.285156 309.441406 144.285156 309.441406 144.765625 C 309.441406 145.246094 310.160156 145.246094 310.160156 144.765625 "/>
<path style=" stroke:none;fill-rule:evenodd;fill:rgb(45.098039%,45.098039%,87.058824%);fill-opacity:1;" d="M 312.320312 144.765625 C 312.320312 144.285156 311.601562 144.285156 311.601562 144.765625 C 311.601562 145.246094 312.320312 145.246094 312.320312 144.765625 "/>
<path style=" stroke:none;fill-rule:evenodd;fill:rgb(45.098039%,45.098039%,87.058824%);fill-opacity:1;" d="M 314.480469 144.765625 C 314.480469 144.285156 313.761719 144.285156 313.761719 144.765625 C 313.761719 145.246094 314.480469 145.246094 314.480469 144.765625 "/>
<path style=" stroke:none;fill-rule:evenodd;fill:rgb(45.098039%,45.098039%,87.058824%);fill-opacity:1;" d="M 319.160156 143.328125 C 319.160156 142.847656 318.441406 142.847656 318.441406 143.328125 C 318.441406 143.808594 319.160156 143.808594 319.160156 143.328125 "/>
<path style=" stroke:none;fill-rule:evenodd;fill:rgb(45.098039%,45.098039%,87.058824%);fill-opacity:1;" d="M 320.960938 144.765625 C 320.960938 144.285156 320.238281 144.285156 320.238281 144.765625 C 320.238281 145.246094 320.960938 145.246094 320.960938 144.765625 "/>
<path style=" stroke:none;fill-rule:evenodd;fill:rgb(45.098039%,45.098039%,87.058824%);fill-opacity:1;" d="M 323.121094 144.765625 C 323.121094 144.285156 322.398438 144.285156 322.398438 144.765625 C 322.398438 145.246094 323.121094 145.246094 323.121094 144.765625 "/>
<path style=" stroke:none;fill-rule:evenodd;fill:rgb(45.098039%,45.098039%,87.058824%);fill-opacity:1;" d="M 324.917969 143.328125 C 324.917969 142.847656 324.199219 142.847656 324.199219 143.328125 C 324.199219 143.808594 324.917969 143.808594 324.917969 143.328125 "/>
<path style=" stroke:none;fill-rule:evenodd;fill:rgb(45.098039%,45.098039%,87.058824%);fill-opacity:1;" d="M 328.160156 137.207031 C 328.160156 136.726562 327.441406 136.726562 327.441406 137.207031 C 327.441406 137.6875 328.160156 137.6875 328.160156 137.207031 "/>
<path style=" stroke:none;fill-rule:evenodd;fill:rgb(45.098039%,45.098039%,87.058824%);fill-opacity:1;" d="M 330.320312 137.207031 C 330.320312 136.726562 329.601562 136.726562 329.601562 137.207031 C 329.601562 137.6875 330.320312 137.6875 330.320312 137.207031 "/>
<path style=" stroke:none;fill-rule:evenodd;fill:rgb(45.098039%,45.098039%,87.058824%);fill-opacity:1;" d="M 334.28125 132.167969 C 334.28125 131.6875 333.558594 131.6875 333.558594 132.167969 C 333.558594 132.648438 334.28125 132.648438 334.28125 132.167969 "/>
<path style=" stroke:none;fill-rule:evenodd;fill:rgb(45.098039%,45.098039%,87.058824%);fill-opacity:1;" d="M 334.28125 134.328125 C 334.28125 133.847656 333.558594 133.847656 333.558594 134.328125 C 333.558594 134.808594 334.28125 134.808594 334.28125 134.328125 "/>
<path style=" stroke:none;fill-rule:evenodd;fill:rgb(45.098039%,45.098039%,87.058824%);fill-opacity:1;" d="M 336.078125 141.886719 C 336.078125 141.40625 335.359375 141.40625 335.359375 141.886719 C 335.359375 142.367188 336.078125 142.367188 336.078125 141.886719 "/>
<path style=" stroke:none;fill-rule:evenodd;fill:rgb(45.098039%,45.098039%,87.058824%);fill-opacity:1;" d="M 338.238281 141.886719 C 338.238281 141.40625 337.519531 141.40625 337.519531 141.886719 C 337.519531 142.367188 338.238281 142.367188 338.238281 141.886719 "/>
<path style=" stroke:none;fill-rule:evenodd;fill:rgb(45.098039%,45.098039%,87.058824%);fill-opacity:1;" d="M 339.679688 144.40625 C 339.679688 143.925781 338.960938 143.925781 338.960938 144.40625 C 338.960938 144.886719 339.679688 144.886719 339.679688 144.40625 "/>
<path style=" stroke:none;fill-rule:evenodd;fill:rgb(45.098039%,45.098039%,87.058824%);fill-opacity:1;" d="M 341.839844 144.40625 C 341.839844 143.925781 341.121094 143.925781 341.121094 144.40625 C 341.121094 144.886719 341.839844 144.886719 341.839844 144.40625 "/>
<path style=" stroke:none;fill-rule:evenodd;fill:rgb(45.098039%,45.098039%,87.058824%);fill-opacity:1;" d="M 350.121094 144.765625 C 350.121094 144.285156 349.398438 144.285156 349.398438 144.765625 C 349.398438 145.246094 350.121094 145.246094 350.121094 144.765625 "/>
<path style=" stroke:none;fill-rule:evenodd;fill:rgb(45.098039%,45.098039%,87.058824%);fill-opacity:1;" d="M 350.839844 131.445312 C 350.839844 130.96875 350.121094 130.96875 350.121094 131.445312 C 350.121094 131.925781 350.839844 131.925781 350.839844 131.445312 "/>
<path style=" stroke:none;fill-rule:evenodd;fill:rgb(45.098039%,45.098039%,87.058824%);fill-opacity:1;" d="M 352.28125 144.765625 C 352.28125 144.285156 351.558594 144.285156 351.558594 144.765625 C 351.558594 145.246094 352.28125 145.246094 352.28125 144.765625 "/>
<path style=" stroke:none;fill-rule:evenodd;fill:rgb(45.098039%,45.098039%,87.058824%);fill-opacity:1;" d="M 353 131.445312 C 353 130.96875 352.28125 130.96875 352.28125 131.445312 C 352.28125 131.925781 353 131.925781 353 131.445312 "/>
<path style=" stroke:none;fill-rule:evenodd;fill:rgb(45.098039%,45.098039%,87.058824%);fill-opacity:1;" d="M 316.027344 178.96875 C 316.027344 178.34375 315.09375 178.34375 315.09375 178.96875 C 315.09375 179.589844 316.027344 179.589844 316.027344 178.96875 "/>
<path style=" stroke:none;fill-rule:evenodd;fill:rgb(45.098039%,45.098039%,87.058824%);fill-opacity:1;" d="M 316.027344 181.488281 C 316.027344 180.863281 315.09375 180.863281 315.09375 181.488281 C 315.09375 182.109375 316.027344 182.109375 316.027344 181.488281 "/>
<path style=" stroke:none;fill-rule:evenodd;fill:rgb(45.098039%,45.098039%,87.058824%);fill-opacity:1;" d="M 316.027344 184.007812 C 316.027344 183.382812 315.09375 183.382812 315.09375 184.007812 C 315.09375 184.632812 316.027344 184.632812 316.027344 184.007812 "/>
<path style=" stroke:none;fill-rule:evenodd;fill:rgb(45.098039%,45.098039%,87.058824%);fill-opacity:1;" d="M 316.027344 186.527344 C 316.027344 185.902344 315.09375 185.902344 315.09375 186.527344 C 315.09375 187.152344 316.027344 187.152344 316.027344 186.527344 "/>
<path style=" stroke:none;fill-rule:evenodd;fill:rgb(45.098039%,45.098039%,87.058824%);fill-opacity:1;" d="M 319.269531 178.96875 C 319.269531 178.34375 318.332031 178.34375 318.332031 178.96875 C 318.332031 179.589844 319.269531 179.589844 319.269531 178.96875 "/>
<path style=" stroke:none;fill-rule:evenodd;fill:rgb(45.098039%,45.098039%,87.058824%);fill-opacity:1;" d="M 319.269531 181.488281 C 319.269531 180.863281 318.332031 180.863281 318.332031 181.488281 C 318.332031 182.109375 319.269531 182.109375 319.269531 181.488281 "/>
<path style=" stroke:none;fill-rule:evenodd;fill:rgb(45.098039%,45.098039%,87.058824%);fill-opacity:1;" d="M 319.269531 184.007812 C 319.269531 183.382812 318.332031 183.382812 318.332031 184.007812 C 318.332031 184.632812 319.269531 184.632812 319.269531 184.007812 "/>
<path style=" stroke:none;fill-rule:evenodd;fill:rgb(45.098039%,45.098039%,87.058824%);fill-opacity:1;" d="M 319.269531 186.527344 C 319.269531 185.902344 318.332031 185.902344 318.332031 186.527344 C 318.332031 187.152344 319.269531 187.152344 319.269531 186.527344 "/>
<path style=" stroke:none;fill-rule:evenodd;fill:rgb(45.098039%,45.098039%,87.058824%);fill-opacity:1;" d="M 75.078125 78.527344 C 75.078125 77.085938 72.917969 77.085938 72.917969 78.527344 C 72.917969 79.96875 75.078125 79.96875 75.078125 78.527344 "/>
<path style=" stroke:none;fill-rule:evenodd;fill:rgb(45.098039%,45.098039%,87.058824%);fill-opacity:1;" d="M 82.28125 78.527344 C 82.28125 77.085938 80.121094 77.085938 80.121094 78.527344 C 80.121094 79.96875 82.28125 79.96875 82.28125 78.527344 "/>
<path style=" stroke:none;fill-rule:evenodd;fill:rgb(45.098039%,45.098039%,87.058824%);fill-opacity:1;" d="M 103.878906 78.527344 C 103.878906 77.085938 101.71875 77.085938 101.71875 78.527344 C 101.71875 79.96875 103.878906 79.96875 103.878906 78.527344 "/>
<path style=" stroke:none;fill-rule:evenodd;fill:rgb(45.098039%,45.098039%,87.058824%);fill-opacity:1;" d="M 111.078125 78.527344 C 111.078125 77.085938 108.917969 77.085938 108.917969 78.527344 C 108.917969 79.96875 111.078125 79.96875 111.078125 78.527344 "/>
<path style=" stroke:none;fill-rule:evenodd;fill:rgb(45.098039%,45.098039%,87.058824%);fill-opacity:1;" d="M 75.367188 20.925781 C 75.367188 19.101562 72.632812 19.101562 72.632812 20.925781 C 72.632812 22.75 75.367188 22.75 75.367188 20.925781 "/>
<path style=" stroke:none;fill-rule:evenodd;fill:rgb(45.098039%,45.098039%,87.058824%);fill-opacity:1;" d="M 75.367188 28.128906 C 75.367188 26.304688 72.632812 26.304688 72.632812 28.128906 C 72.632812 29.949219 75.367188 29.949219 75.367188 28.128906 "/>
<path style=" stroke:none;fill-rule:evenodd;fill:rgb(45.098039%,45.098039%,87.058824%);fill-opacity:1;" d="M 75.367188 35.328125 C 75.367188 33.503906 72.632812 33.503906 72.632812 35.328125 C 72.632812 37.152344 75.367188 37.152344 75.367188 35.328125 "/>
<path style=" stroke:none;fill-rule:evenodd;fill:rgb(45.098039%,45.098039%,87.058824%);fill-opacity:1;" d="M 75.367188 42.527344 C 75.367188 40.703125 72.632812 40.703125 72.632812 42.527344 C 72.632812 44.351562 75.367188 44.351562 75.367188 42.527344 "/>
<path style=" stroke:none;fill-rule:evenodd;fill:rgb(45.098039%,45.098039%,87.058824%);fill-opacity:1;" d="M 75.367188 49.726562 C 75.367188 47.902344 72.632812 47.902344 72.632812 49.726562 C 72.632812 51.550781 75.367188 51.550781 75.367188 49.726562 "/>
<path style=" stroke:none;fill-rule:evenodd;fill:rgb(45.098039%,45.098039%,87.058824%);fill-opacity:1;" d="M 75.367188 128.925781 C 75.367188 127.101562 72.632812 127.101562 72.632812 128.925781 C 72.632812 130.75 75.367188 130.75 75.367188 128.925781 "/>
<path style=" stroke:none;fill-rule:evenodd;fill:rgb(45.098039%,45.098039%,87.058824%);fill-opacity:1;" d="M 75.367188 136.128906 C 75.367188 134.304688 72.632812 134.304688 72.632812 136.128906 C 72.632812 137.949219 75.367188 137.949219 75.367188 136.128906 "/>
<path style=" stroke:none;fill-rule:evenodd;fill:rgb(45.098039%,45.098039%,87.058824%);fill-opacity:1;" d="M 75.367188 215.328125 C 75.367188 213.503906 72.632812 213.503906 72.632812 215.328125 C 72.632812 217.152344 75.367188 217.152344 75.367188 215.328125 "/>
<path style=" stroke:none;fill-rule:evenodd;fill:rgb(45.098039%,45.098039%,87.058824%);fill-opacity:1;" d="M 75.367188 222.527344 C 75.367188 220.703125 72.632812 220.703125 72.632812 222.527344 C 72.632812 224.351562 75.367188 224.351562 75.367188 222.527344 "/>
<path style=" stroke:none;fill-rule:evenodd;fill:rgb(45.098039%,45.098039%,87.058824%);fill-opacity:1;" d="M 82.566406 20.925781 C 82.566406 19.101562 79.832031 19.101562 79.832031 20.925781 C 79.832031 22.75 82.566406 22.75 82.566406 20.925781 "/>
<path style=" stroke:none;fill-rule:evenodd;fill:rgb(45.098039%,45.098039%,87.058824%);fill-opacity:1;" d="M 82.566406 42.527344 C 82.566406 40.703125 79.832031 40.703125 79.832031 42.527344 C 79.832031 44.351562 82.566406 44.351562 82.566406 42.527344 "/>
<path style=" stroke:none;fill-rule:evenodd;fill:rgb(45.098039%,45.098039%,87.058824%);fill-opacity:1;" d="M 82.566406 49.726562 C 82.566406 47.902344 79.832031 47.902344 79.832031 49.726562 C 79.832031 51.550781 82.566406 51.550781 82.566406 49.726562 "/>
<path style=" stroke:none;fill-rule:evenodd;fill:rgb(45.098039%,45.098039%,87.058824%);fill-opacity:1;" d="M 82.566406 128.925781 C 82.566406 127.101562 79.832031 127.101562 79.832031 128.925781 C 79.832031 130.75 82.566406 130.75 82.566406 128.925781 "/>
<path style=" stroke:none;fill-rule:evenodd;fill:rgb(45.098039%,45.098039%,87.058824%);fill-opacity:1;" d="M 82.566406 136.128906 C 82.566406 134.304688 79.832031 134.304688 79.832031 136.128906 C 79.832031 137.949219 82.566406 137.949219 82.566406 136.128906 "/>
<path style=" stroke:none;fill-rule:evenodd;fill:rgb(45.098039%,45.098039%,87.058824%);fill-opacity:1;" d="M 82.566406 200.925781 C 82.566406 199.101562 79.832031 199.101562 79.832031 200.925781 C 79.832031 202.75 82.566406 202.75 82.566406 200.925781 "/>
<path style=" stroke:none;fill-rule:evenodd;fill:rgb(45.098039%,45.098039%,87.058824%);fill-opacity:1;" d="M 82.566406 215.328125 C 82.566406 213.503906 79.832031 213.503906 79.832031 215.328125 C 79.832031 217.152344 82.566406 217.152344 82.566406 215.328125 "/>
<path style=" stroke:none;fill-rule:evenodd;fill:rgb(45.098039%,45.098039%,87.058824%);fill-opacity:1;" d="M 82.566406 222.527344 C 82.566406 220.703125 79.832031 220.703125 79.832031 222.527344 C 79.832031 224.351562 82.566406 224.351562 82.566406 222.527344 "/>
<path style=" stroke:none;fill-rule:evenodd;fill:rgb(45.098039%,45.098039%,87.058824%);fill-opacity:1;" d="M 125.046875 64.128906 C 125.046875 62.304688 122.3125 62.304688 122.3125 64.128906 C 122.3125 65.949219 125.046875 65.949219 125.046875 64.128906 "/>
<path style=" stroke:none;fill-rule:evenodd;fill:rgb(45.098039%,45.098039%,87.058824%);fill-opacity:1;" d="M 125.046875 71.328125 C 125.046875 69.503906 122.3125 69.503906 122.3125 71.328125 C 122.3125 73.152344 125.046875 73.152344 125.046875 71.328125 "/>
<path style=" stroke:none;fill-rule:evenodd;fill:rgb(45.098039%,45.098039%,87.058824%);fill-opacity:1;" d="M 125.046875 78.527344 C 125.046875 76.703125 122.3125 76.703125 122.3125 78.527344 C 122.3125 80.351562 125.046875 80.351562 125.046875 78.527344 "/>
<path style=" stroke:none;fill-rule:evenodd;fill:rgb(45.098039%,45.098039%,87.058824%);fill-opacity:1;" d="M 125.046875 92.925781 C 125.046875 91.101562 122.3125 91.101562 122.3125 92.925781 C 122.3125 94.75 125.046875 94.75 125.046875 92.925781 "/>
<path style=" stroke:none;fill-rule:evenodd;fill:rgb(45.098039%,45.098039%,87.058824%);fill-opacity:1;" d="M 125.046875 150.527344 C 125.046875 148.703125 122.3125 148.703125 122.3125 150.527344 C 122.3125 152.351562 125.046875 152.351562 125.046875 150.527344 "/>
<path style=" stroke:none;fill-rule:evenodd;fill:rgb(45.098039%,45.098039%,87.058824%);fill-opacity:1;" d="M 125.046875 157.726562 C 125.046875 155.902344 122.3125 155.902344 122.3125 157.726562 C 122.3125 159.550781 125.046875 159.550781 125.046875 157.726562 "/>
<path style=" stroke:none;fill-rule:evenodd;fill:rgb(45.098039%,45.098039%,87.058824%);fill-opacity:1;" d="M 125.046875 164.925781 C 125.046875 163.101562 122.3125 163.101562 122.3125 164.925781 C 122.3125 166.75 125.046875 166.75 125.046875 164.925781 "/>
<path style=" stroke:none;fill-rule:evenodd;fill:rgb(45.098039%,45.098039%,87.058824%);fill-opacity:1;" d="M 125.046875 172.128906 C 125.046875 170.304688 122.3125 170.304688 122.3125 172.128906 C 122.3125 173.949219 125.046875 173.949219 125.046875 172.128906 "/>
<path style=" stroke:none;fill-rule:evenodd;fill:rgb(45.098039%,45.098039%,87.058824%);fill-opacity:1;" d="M 125.046875 236.925781 C 125.046875 235.101562 122.3125 235.101562 122.3125 236.925781 C 122.3125 238.75 125.046875 238.75 125.046875 236.925781 "/>
<path style=" stroke:none;fill-rule:evenodd;fill:rgb(45.098039%,45.098039%,87.058824%);fill-opacity:1;" d="M 125.046875 244.128906 C 125.046875 242.304688 122.3125 242.304688 122.3125 244.128906 C 122.3125 245.949219 125.046875 245.949219 125.046875 244.128906 "/>
<path style=" stroke:none;fill-rule:evenodd;fill:rgb(45.098039%,45.098039%,87.058824%);fill-opacity:1;" d="M 125.046875 251.328125 C 125.046875 249.503906 122.3125 249.503906 122.3125 251.328125 C 122.3125 253.152344 125.046875 253.152344 125.046875 251.328125 "/>
<path style=" stroke:none;fill-rule:evenodd;fill:rgb(45.098039%,45.098039%,87.058824%);fill-opacity:1;" d="M 132.246094 64.128906 C 132.246094 62.304688 129.511719 62.304688 129.511719 64.128906 C 129.511719 65.949219 132.246094 65.949219 132.246094 64.128906 "/>
<path style=" stroke:none;fill-rule:evenodd;fill:rgb(45.098039%,45.098039%,87.058824%);fill-opacity:1;" d="M 132.246094 71.328125 C 132.246094 69.503906 129.511719 69.503906 129.511719 71.328125 C 129.511719 73.152344 132.246094 73.152344 132.246094 71.328125 "/>
<path style=" stroke:none;fill-rule:evenodd;fill:rgb(45.098039%,45.098039%,87.058824%);fill-opacity:1;" d="M 132.246094 78.527344 C 132.246094 76.703125 129.511719 76.703125 129.511719 78.527344 C 129.511719 80.351562 132.246094 80.351562 132.246094 78.527344 "/>
<path style=" stroke:none;fill-rule:evenodd;fill:rgb(45.098039%,45.098039%,87.058824%);fill-opacity:1;" d="M 132.246094 85.726562 C 132.246094 83.902344 129.511719 83.902344 129.511719 85.726562 C 129.511719 87.550781 132.246094 87.550781 132.246094 85.726562 "/>
<path style=" stroke:none;fill-rule:evenodd;fill:rgb(45.098039%,45.098039%,87.058824%);fill-opacity:1;" d="M 132.246094 92.925781 C 132.246094 91.101562 129.511719 91.101562 129.511719 92.925781 C 129.511719 94.75 132.246094 94.75 132.246094 92.925781 "/>
<path style=" stroke:none;fill-rule:evenodd;fill:rgb(45.098039%,45.098039%,87.058824%);fill-opacity:1;" d="M 132.246094 100.128906 C 132.246094 98.304688 129.511719 98.304688 129.511719 100.128906 C 129.511719 101.949219 132.246094 101.949219 132.246094 100.128906 "/>
<path style=" stroke:none;fill-rule:evenodd;fill:rgb(45.098039%,45.098039%,87.058824%);fill-opacity:1;" d="M 132.246094 150.527344 C 132.246094 148.703125 129.511719 148.703125 129.511719 150.527344 C 129.511719 152.351562 132.246094 152.351562 132.246094 150.527344 "/>
<path style=" stroke:none;fill-rule:evenodd;fill:rgb(45.098039%,45.098039%,87.058824%);fill-opacity:1;" d="M 132.246094 157.726562 C 132.246094 155.902344 129.511719 155.902344 129.511719 157.726562 C 129.511719 159.550781 132.246094 159.550781 132.246094 157.726562 "/>
<path style=" stroke:none;fill-rule:evenodd;fill:rgb(45.098039%,45.098039%,87.058824%);fill-opacity:1;" d="M 132.246094 164.925781 C 132.246094 163.101562 129.511719 163.101562 129.511719 164.925781 C 129.511719 166.75 132.246094 166.75 132.246094 164.925781 "/>
<path style=" stroke:none;fill-rule:evenodd;fill:rgb(45.098039%,45.098039%,87.058824%);fill-opacity:1;" d="M 132.246094 172.128906 C 132.246094 170.304688 129.511719 170.304688 129.511719 172.128906 C 129.511719 173.949219 132.246094 173.949219 132.246094 172.128906 "/>
<path style=" stroke:none;fill-rule:evenodd;fill:rgb(45.098039%,45.098039%,87.058824%);fill-opacity:1;" d="M 132.246094 179.328125 C 132.246094 177.503906 129.511719 177.503906 129.511719 179.328125 C 129.511719 181.152344 132.246094 181.152344 132.246094 179.328125 "/>
<path style=" stroke:none;fill-rule:evenodd;fill:rgb(45.098039%,45.098039%,87.058824%);fill-opacity:1;" d="M 132.246094 186.527344 C 132.246094 184.703125 129.511719 184.703125 129.511719 186.527344 C 129.511719 188.351562 132.246094 188.351562 132.246094 186.527344 "/>
<path style=" stroke:none;fill-rule:evenodd;fill:rgb(45.098039%,45.098039%,87.058824%);fill-opacity:1;" d="M 132.246094 236.925781 C 132.246094 235.101562 129.511719 235.101562 129.511719 236.925781 C 129.511719 238.75 132.246094 238.75 132.246094 236.925781 "/>
<path style=" stroke:none;fill-rule:evenodd;fill:rgb(45.098039%,45.098039%,87.058824%);fill-opacity:1;" d="M 132.246094 244.128906 C 132.246094 242.304688 129.511719 242.304688 129.511719 244.128906 C 129.511719 245.949219 132.246094 245.949219 132.246094 244.128906 "/>
<path style=" stroke:none;fill-rule:evenodd;fill:rgb(45.098039%,45.098039%,87.058824%);fill-opacity:1;" d="M 132.246094 251.328125 C 132.246094 249.503906 129.511719 249.503906 129.511719 251.328125 C 129.511719 253.152344 132.246094 253.152344 132.246094 251.328125 "/>
<path style=" stroke:none;fill-rule:evenodd;fill:rgb(45.098039%,45.098039%,87.058824%);fill-opacity:1;" d="M 132.246094 258.527344 C 132.246094 256.703125 129.511719 256.703125 129.511719 258.527344 C 129.511719 260.351562 132.246094 260.351562 132.246094 258.527344 "/>
<path style=" stroke:none;fill-rule:evenodd;fill:rgb(45.098039%,45.098039%,87.058824%);fill-opacity:1;" d="M 132.246094 265.726562 C 132.246094 263.902344 129.511719 263.902344 129.511719 265.726562 C 129.511719 267.550781 132.246094 267.550781 132.246094 265.726562 "/>
<path style=" stroke:none;fill-rule:evenodd;fill:rgb(45.098039%,45.098039%,87.058824%);fill-opacity:1;" d="M 132.246094 272.925781 C 132.246094 271.101562 129.511719 271.101562 129.511719 272.925781 C 129.511719 274.75 132.246094 274.75 132.246094 272.925781 "/>
<path style=" stroke:none;fill-rule:evenodd;fill:rgb(45.098039%,45.098039%,87.058824%);fill-opacity:1;" d="M 146.289062 67.726562 C 146.289062 65.902344 143.550781 65.902344 143.550781 67.726562 C 143.550781 69.550781 146.289062 69.550781 146.289062 67.726562 "/>
<path style=" stroke:none;fill-rule:evenodd;fill:rgb(45.098039%,45.098039%,87.058824%);fill-opacity:1;" d="M 146.289062 82.128906 C 146.289062 80.304688 143.550781 80.304688 143.550781 82.128906 C 143.550781 83.949219 146.289062 83.949219 146.289062 82.128906 "/>
<path style=" stroke:none;fill-rule:evenodd;fill:rgb(45.098039%,45.098039%,87.058824%);fill-opacity:1;" d="M 146.289062 240.527344 C 146.289062 238.703125 143.550781 238.703125 143.550781 240.527344 C 143.550781 242.351562 146.289062 242.351562 146.289062 240.527344 "/>
<path style=" stroke:none;fill-rule:evenodd;fill:rgb(45.098039%,45.098039%,87.058824%);fill-opacity:1;" d="M 146.289062 254.925781 C 146.289062 253.101562 143.550781 253.101562 143.550781 254.925781 C 143.550781 256.75 146.289062 256.75 146.289062 254.925781 "/>
<path style=" stroke:none;fill-rule:evenodd;fill:rgb(45.098039%,45.098039%,87.058824%);fill-opacity:1;" d="M 203.167969 28.128906 C 203.167969 26.304688 200.433594 26.304688 200.433594 28.128906 C 200.433594 29.949219 203.167969 29.949219 203.167969 28.128906 "/>
<path style=" stroke:none;fill-rule:evenodd;fill:rgb(45.098039%,45.098039%,87.058824%);fill-opacity:1;" d="M 203.167969 42.527344 C 203.167969 40.703125 200.433594 40.703125 200.433594 42.527344 C 200.433594 44.351562 203.167969 44.351562 203.167969 42.527344 "/>
<path style=" stroke:none;fill-rule:evenodd;fill:rgb(45.098039%,45.098039%,87.058824%);fill-opacity:1;" d="M 203.167969 49.726562 C 203.167969 47.902344 200.433594 47.902344 200.433594 49.726562 C 200.433594 51.550781 203.167969 51.550781 203.167969 49.726562 "/>
<path style=" stroke:none;fill-rule:evenodd;fill:rgb(45.098039%,45.098039%,87.058824%);fill-opacity:1;" d="M 203.167969 128.925781 C 203.167969 127.101562 200.433594 127.101562 200.433594 128.925781 C 200.433594 130.75 203.167969 130.75 203.167969 128.925781 "/>
<path style=" stroke:none;fill-rule:evenodd;fill:rgb(45.098039%,45.098039%,87.058824%);fill-opacity:1;" d="M 203.167969 136.128906 C 203.167969 134.304688 200.433594 134.304688 200.433594 136.128906 C 200.433594 137.949219 203.167969 137.949219 203.167969 136.128906 "/>
<path style=" stroke:none;fill-rule:evenodd;fill:rgb(45.098039%,45.098039%,87.058824%);fill-opacity:1;" d="M 203.167969 200.925781 C 203.167969 199.101562 200.433594 199.101562 200.433594 200.925781 C 200.433594 202.75 203.167969 202.75 203.167969 200.925781 "/>
<path style=" stroke:none;fill-rule:evenodd;fill:rgb(45.098039%,45.098039%,87.058824%);fill-opacity:1;" d="M 203.167969 215.328125 C 203.167969 213.503906 200.433594 213.503906 200.433594 215.328125 C 200.433594 217.152344 203.167969 217.152344 203.167969 215.328125 "/>
<path style=" stroke:none;fill-rule:evenodd;fill:rgb(45.098039%,45.098039%,87.058824%);fill-opacity:1;" d="M 203.167969 222.527344 C 203.167969 220.703125 200.433594 220.703125 200.433594 222.527344 C 200.433594 224.351562 203.167969 224.351562 203.167969 222.527344 "/>
<path style=" stroke:none;fill-rule:evenodd;fill:rgb(45.098039%,45.098039%,87.058824%);fill-opacity:1;" d="M 210.367188 28.128906 C 210.367188 26.304688 207.632812 26.304688 207.632812 28.128906 C 207.632812 29.949219 210.367188 29.949219 210.367188 28.128906 "/>
<path style=" stroke:none;fill-rule:evenodd;fill:rgb(45.098039%,45.098039%,87.058824%);fill-opacity:1;" d="M 210.367188 42.527344 C 210.367188 40.703125 207.632812 40.703125 207.632812 42.527344 C 207.632812 44.351562 210.367188 44.351562 210.367188 42.527344 "/>
<path style=" stroke:none;fill-rule:evenodd;fill:rgb(45.098039%,45.098039%,87.058824%);fill-opacity:1;" d="M 210.367188 49.726562 C 210.367188 47.902344 207.632812 47.902344 207.632812 49.726562 C 207.632812 51.550781 210.367188 51.550781 210.367188 49.726562 "/>
<path style=" stroke:none;fill-rule:evenodd;fill:rgb(45.098039%,45.098039%,87.058824%);fill-opacity:1;" d="M 210.367188 128.925781 C 210.367188 127.101562 207.632812 127.101562 207.632812 128.925781 C 207.632812 130.75 210.367188 130.75 210.367188 128.925781 "/>
<path style=" stroke:none;fill-rule:evenodd;fill:rgb(45.098039%,45.098039%,87.058824%);fill-opacity:1;" d="M 210.367188 136.128906 C 210.367188 134.304688 207.632812 134.304688 207.632812 136.128906 C 207.632812 137.949219 210.367188 137.949219 210.367188 136.128906 "/>
<path style=" stroke:none;fill-rule:evenodd;fill:rgb(45.098039%,45.098039%,87.058824%);fill-opacity:1;" d="M 210.367188 215.328125 C 210.367188 213.503906 207.632812 213.503906 207.632812 215.328125 C 207.632812 217.152344 210.367188 217.152344 210.367188 215.328125 "/>
<path style=" stroke:none;fill-rule:evenodd;fill:rgb(45.098039%,45.098039%,87.058824%);fill-opacity:1;" d="M 210.367188 222.527344 C 210.367188 220.703125 207.632812 220.703125 207.632812 222.527344 C 207.632812 224.351562 210.367188 224.351562 210.367188 222.527344 "/>
<path style=" stroke:none;fill-rule:evenodd;fill:rgb(45.098039%,45.098039%,87.058824%);fill-opacity:1;" d="M 224.769531 42.527344 C 224.769531 40.703125 222.03125 40.703125 222.03125 42.527344 C 222.03125 44.351562 224.769531 44.351562 224.769531 42.527344 "/>
<path style=" stroke:none;fill-rule:evenodd;fill:rgb(45.098039%,45.098039%,87.058824%);fill-opacity:1;" d="M 224.769531 96.527344 C 224.769531 94.703125 222.03125 94.703125 222.03125 96.527344 C 222.03125 98.351562 224.769531 98.351562 224.769531 96.527344 "/>
<path style=" stroke:none;fill-rule:evenodd;fill:rgb(45.098039%,45.098039%,87.058824%);fill-opacity:1;" d="M 224.769531 128.925781 C 224.769531 127.101562 222.03125 127.101562 222.03125 128.925781 C 222.03125 130.75 224.769531 130.75 224.769531 128.925781 "/>
<path style=" stroke:none;fill-rule:evenodd;fill:rgb(45.098039%,45.098039%,87.058824%);fill-opacity:1;" d="M 224.769531 182.925781 C 224.769531 181.101562 222.03125 181.101562 222.03125 182.925781 C 222.03125 184.75 224.769531 184.75 224.769531 182.925781 "/>
<path style=" stroke:none;fill-rule:evenodd;fill:rgb(45.098039%,45.098039%,87.058824%);fill-opacity:1;" d="M 224.769531 215.328125 C 224.769531 213.503906 222.03125 213.503906 222.03125 215.328125 C 222.03125 217.152344 224.769531 217.152344 224.769531 215.328125 "/>
<path style=" stroke:none;fill-rule:evenodd;fill:rgb(45.098039%,45.098039%,87.058824%);fill-opacity:1;" d="M 224.769531 269.328125 C 224.769531 267.503906 222.03125 267.503906 222.03125 269.328125 C 222.03125 271.152344 224.769531 271.152344 224.769531 269.328125 "/>
<path style=" stroke:none;fill-rule:evenodd;fill:rgb(45.098039%,45.098039%,87.058824%);fill-opacity:1;" d="M 231.96875 42.527344 C 231.96875 40.703125 229.230469 40.703125 229.230469 42.527344 C 229.230469 44.351562 231.96875 44.351562 231.96875 42.527344 "/>
<path style=" stroke:none;fill-rule:evenodd;fill:rgb(45.098039%,45.098039%,87.058824%);fill-opacity:1;" d="M 231.96875 96.527344 C 231.96875 94.703125 229.230469 94.703125 229.230469 96.527344 C 229.230469 98.351562 231.96875 98.351562 231.96875 96.527344 "/>
<path style=" stroke:none;fill-rule:evenodd;fill:rgb(45.098039%,45.098039%,87.058824%);fill-opacity:1;" d="M 231.96875 128.925781 C 231.96875 127.101562 229.230469 127.101562 229.230469 128.925781 C 229.230469 130.75 231.96875 130.75 231.96875 128.925781 "/>
<path style=" stroke:none;fill-rule:evenodd;fill:rgb(45.098039%,45.098039%,87.058824%);fill-opacity:1;" d="M 231.96875 182.925781 C 231.96875 181.101562 229.230469 181.101562 229.230469 182.925781 C 229.230469 184.75 231.96875 184.75 231.96875 182.925781 "/>
<path style=" stroke:none;fill-rule:evenodd;fill:rgb(45.098039%,45.098039%,87.058824%);fill-opacity:1;" d="M 231.96875 215.328125 C 231.96875 213.503906 229.230469 213.503906 229.230469 215.328125 C 229.230469 217.152344 231.96875 217.152344 231.96875 215.328125 "/>
<path style=" stroke:none;fill-rule:evenodd;fill:rgb(45.098039%,45.098039%,87.058824%);fill-opacity:1;" d="M 231.96875 269.328125 C 231.96875 267.503906 229.230469 267.503906 229.230469 269.328125 C 229.230469 271.152344 231.96875 271.152344 231.96875 269.328125 "/>
<path style=" stroke:none;fill-rule:evenodd;fill:rgb(45.098039%,45.098039%,87.058824%);fill-opacity:1;" d="M 239.167969 42.527344 C 239.167969 40.703125 236.433594 40.703125 236.433594 42.527344 C 236.433594 44.351562 239.167969 44.351562 239.167969 42.527344 "/>
<path style=" stroke:none;fill-rule:evenodd;fill:rgb(45.098039%,45.098039%,87.058824%);fill-opacity:1;" d="M 239.167969 96.527344 C 239.167969 94.703125 236.433594 94.703125 236.433594 96.527344 C 236.433594 98.351562 239.167969 98.351562 239.167969 96.527344 "/>
<path style=" stroke:none;fill-rule:evenodd;fill:rgb(45.098039%,45.098039%,87.058824%);fill-opacity:1;" d="M 239.167969 128.925781 C 239.167969 127.101562 236.433594 127.101562 236.433594 128.925781 C 236.433594 130.75 239.167969 130.75 239.167969 128.925781 "/>
<path style=" stroke:none;fill-rule:evenodd;fill:rgb(45.098039%,45.098039%,87.058824%);fill-opacity:1;" d="M 239.167969 182.925781 C 239.167969 181.101562 236.433594 181.101562 236.433594 182.925781 C 236.433594 184.75 239.167969 184.75 239.167969 182.925781 "/>
<path style=" stroke:none;fill-rule:evenodd;fill:rgb(45.098039%,45.098039%,87.058824%);fill-opacity:1;" d="M 239.167969 215.328125 C 239.167969 213.503906 236.433594 213.503906 236.433594 215.328125 C 236.433594 217.152344 239.167969 217.152344 239.167969 215.328125 "/>
<path style=" stroke:none;fill-rule:evenodd;fill:rgb(45.098039%,45.098039%,87.058824%);fill-opacity:1;" d="M 239.167969 269.328125 C 239.167969 267.503906 236.433594 267.503906 236.433594 269.328125 C 236.433594 271.152344 239.167969 271.152344 239.167969 269.328125 "/>
<path style=" stroke:none;fill-rule:evenodd;fill:rgb(45.098039%,45.098039%,87.058824%);fill-opacity:1;" d="M 246.367188 42.527344 C 246.367188 40.703125 243.632812 40.703125 243.632812 42.527344 C 243.632812 44.351562 246.367188 44.351562 246.367188 42.527344 "/>
<path style=" stroke:none;fill-rule:evenodd;fill:rgb(45.098039%,45.098039%,87.058824%);fill-opacity:1;" d="M 246.367188 96.527344 C 246.367188 94.703125 243.632812 94.703125 243.632812 96.527344 C 243.632812 98.351562 246.367188 98.351562 246.367188 96.527344 "/>
<path style=" stroke:none;fill-rule:evenodd;fill:rgb(45.098039%,45.098039%,87.058824%);fill-opacity:1;" d="M 246.367188 128.925781 C 246.367188 127.101562 243.632812 127.101562 243.632812 128.925781 C 243.632812 130.75 246.367188 130.75 246.367188 128.925781 "/>
<path style=" stroke:none;fill-rule:evenodd;fill:rgb(45.098039%,45.098039%,87.058824%);fill-opacity:1;" d="M 246.367188 182.925781 C 246.367188 181.101562 243.632812 181.101562 243.632812 182.925781 C 243.632812 184.75 246.367188 184.75 246.367188 182.925781 "/>
<path style=" stroke:none;fill-rule:evenodd;fill:rgb(45.098039%,45.098039%,87.058824%);fill-opacity:1;" d="M 246.367188 215.328125 C 246.367188 213.503906 243.632812 213.503906 243.632812 215.328125 C 243.632812 217.152344 246.367188 217.152344 246.367188 215.328125 "/>
<path style=" stroke:none;fill-rule:evenodd;fill:rgb(45.098039%,45.098039%,87.058824%);fill-opacity:1;" d="M 246.367188 269.328125 C 246.367188 267.503906 243.632812 267.503906 243.632812 269.328125 C 243.632812 271.152344 246.367188 271.152344 246.367188 269.328125 "/>
<path style=" stroke:none;fill-rule:evenodd;fill:rgb(45.098039%,45.098039%,87.058824%);fill-opacity:1;" d="M 253.566406 42.527344 C 253.566406 40.703125 250.832031 40.703125 250.832031 42.527344 C 250.832031 44.351562 253.566406 44.351562 253.566406 42.527344 "/>
<path style=" stroke:none;fill-rule:evenodd;fill:rgb(45.098039%,45.098039%,87.058824%);fill-opacity:1;" d="M 253.566406 96.527344 C 253.566406 94.703125 250.832031 94.703125 250.832031 96.527344 C 250.832031 98.351562 253.566406 98.351562 253.566406 96.527344 "/>
<path style=" stroke:none;fill-rule:evenodd;fill:rgb(45.098039%,45.098039%,87.058824%);fill-opacity:1;" d="M 253.566406 128.925781 C 253.566406 127.101562 250.832031 127.101562 250.832031 128.925781 C 250.832031 130.75 253.566406 130.75 253.566406 128.925781 "/>
<path style=" stroke:none;fill-rule:evenodd;fill:rgb(45.098039%,45.098039%,87.058824%);fill-opacity:1;" d="M 253.566406 182.925781 C 253.566406 181.101562 250.832031 181.101562 250.832031 182.925781 C 250.832031 184.75 253.566406 184.75 253.566406 182.925781 "/>
<path style=" stroke:none;fill-rule:evenodd;fill:rgb(45.098039%,45.098039%,87.058824%);fill-opacity:1;" d="M 253.566406 215.328125 C 253.566406 213.503906 250.832031 213.503906 250.832031 215.328125 C 250.832031 217.152344 253.566406 217.152344 253.566406 215.328125 "/>
<path style=" stroke:none;fill-rule:evenodd;fill:rgb(45.098039%,45.098039%,87.058824%);fill-opacity:1;" d="M 253.566406 269.328125 C 253.566406 267.503906 250.832031 267.503906 250.832031 269.328125 C 250.832031 271.152344 253.566406 271.152344 253.566406 269.328125 "/>
<path style=" stroke:none;fill-rule:evenodd;fill:rgb(45.098039%,45.098039%,87.058824%);fill-opacity:1;" d="M 260.769531 42.527344 C 260.769531 40.703125 258.03125 40.703125 258.03125 42.527344 C 258.03125 44.351562 260.769531 44.351562 260.769531 42.527344 "/>
<path style=" stroke:none;fill-rule:evenodd;fill:rgb(45.098039%,45.098039%,87.058824%);fill-opacity:1;" d="M 260.769531 96.527344 C 260.769531 94.703125 258.03125 94.703125 258.03125 96.527344 C 258.03125 98.351562 260.769531 98.351562 260.769531 96.527344 "/>
<path style=" stroke:none;fill-rule:evenodd;fill:rgb(45.098039%,45.098039%,87.058824%);fill-opacity:1;" d="M 260.769531 128.925781 C 260.769531 127.101562 258.03125 127.101562 258.03125 128.925781 C 258.03125 130.75 260.769531 130.75 260.769531 128.925781 "/>
<path style=" stroke:none;fill-rule:evenodd;fill:rgb(45.098039%,45.098039%,87.058824%);fill-opacity:1;" d="M 260.769531 182.925781 C 260.769531 181.101562 258.03125 181.101562 258.03125 182.925781 C 258.03125 184.75 260.769531 184.75 260.769531 182.925781 "/>
<path style=" stroke:none;fill-rule:evenodd;fill:rgb(45.098039%,45.098039%,87.058824%);fill-opacity:1;" d="M 260.769531 215.328125 C 260.769531 213.503906 258.03125 213.503906 258.03125 215.328125 C 258.03125 217.152344 260.769531 217.152344 260.769531 215.328125 "/>
<path style=" stroke:none;fill-rule:evenodd;fill:rgb(45.098039%,45.098039%,87.058824%);fill-opacity:1;" d="M 260.769531 269.328125 C 260.769531 267.503906 258.03125 267.503906 258.03125 269.328125 C 258.03125 271.152344 260.769531 271.152344 260.769531 269.328125 "/>
<path style=" stroke:none;fill-rule:evenodd;fill:rgb(45.098039%,45.098039%,87.058824%);fill-opacity:1;" d="M 267.96875 42.527344 C 267.96875 40.703125 265.230469 40.703125 265.230469 42.527344 C 265.230469 44.351562 267.96875 44.351562 267.96875 42.527344 "/>
<path style=" stroke:none;fill-rule:evenodd;fill:rgb(45.098039%,45.098039%,87.058824%);fill-opacity:1;" d="M 267.96875 96.527344 C 267.96875 94.703125 265.230469 94.703125 265.230469 96.527344 C 265.230469 98.351562 267.96875 98.351562 267.96875 96.527344 "/>
<path style=" stroke:none;fill-rule:evenodd;fill:rgb(45.098039%,45.098039%,87.058824%);fill-opacity:1;" d="M 267.96875 128.925781 C 267.96875 127.101562 265.230469 127.101562 265.230469 128.925781 C 265.230469 130.75 267.96875 130.75 267.96875 128.925781 "/>
<path style=" stroke:none;fill-rule:evenodd;fill:rgb(45.098039%,45.098039%,87.058824%);fill-opacity:1;" d="M 267.96875 182.925781 C 267.96875 181.101562 265.230469 181.101562 265.230469 182.925781 C 265.230469 184.75 267.96875 184.75 267.96875 182.925781 "/>
<path style=" stroke:none;fill-rule:evenodd;fill:rgb(45.098039%,45.098039%,87.058824%);fill-opacity:1;" d="M 267.96875 215.328125 C 267.96875 213.503906 265.230469 213.503906 265.230469 215.328125 C 265.230469 217.152344 267.96875 217.152344 267.96875 215.328125 "/>
<path style=" stroke:none;fill-rule:evenodd;fill:rgb(45.098039%,45.098039%,87.058824%);fill-opacity:1;" d="M 267.96875 269.328125 C 267.96875 267.503906 265.230469 267.503906 265.230469 269.328125 C 265.230469 271.152344 267.96875 271.152344 267.96875 269.328125 "/>
<path style=" stroke:none;fill-rule:evenodd;fill:rgb(45.098039%,45.098039%,87.058824%);fill-opacity:1;" d="M 275.167969 42.527344 C 275.167969 40.703125 272.433594 40.703125 272.433594 42.527344 C 272.433594 44.351562 275.167969 44.351562 275.167969 42.527344 "/>
<path style=" stroke:none;fill-rule:evenodd;fill:rgb(45.098039%,45.098039%,87.058824%);fill-opacity:1;" d="M 275.167969 96.527344 C 275.167969 94.703125 272.433594 94.703125 272.433594 96.527344 C 272.433594 98.351562 275.167969 98.351562 275.167969 96.527344 "/>
<path style=" stroke:none;fill-rule:evenodd;fill:rgb(45.098039%,45.098039%,87.058824%);fill-opacity:1;" d="M 275.167969 128.925781 C 275.167969 127.101562 272.433594 127.101562 272.433594 128.925781 C 272.433594 130.75 275.167969 130.75 275.167969 128.925781 "/>
<path style=" stroke:none;fill-rule:evenodd;fill:rgb(45.098039%,45.098039%,87.058824%);fill-opacity:1;" d="M 275.167969 182.925781 C 275.167969 181.101562 272.433594 181.101562 272.433594 182.925781 C 272.433594 184.75 275.167969 184.75 275.167969 182.925781 "/>
<path style=" stroke:none;fill-rule:evenodd;fill:rgb(45.098039%,45.098039%,87.058824%);fill-opacity:1;" d="M 275.167969 215.328125 C 275.167969 213.503906 272.433594 213.503906 272.433594 215.328125 C 272.433594 217.152344 275.167969 217.152344 275.167969 215.328125 "/>
<path style=" stroke:none;fill-rule:evenodd;fill:rgb(45.098039%,45.098039%,87.058824%);fill-opacity:1;" d="M 275.167969 269.328125 C 275.167969 267.503906 272.433594 267.503906 272.433594 269.328125 C 272.433594 271.152344 275.167969 271.152344 275.167969 269.328125 "/>
<path style=" stroke:none;fill-rule:evenodd;fill:rgb(45.098039%,45.098039%,87.058824%);fill-opacity:1;" d="M 75.800781 85.726562 C 75.800781 83.328125 72.199219 83.328125 72.199219 85.726562 C 72.199219 88.128906 75.800781 88.128906 75.800781 85.726562 "/>
<path style=" stroke:none;fill-rule:evenodd;fill:rgb(45.098039%,45.098039%,87.058824%);fill-opacity:1;" d="M 83 85.726562 C 83 83.328125 79.398438 83.328125 79.398438 85.726562 C 79.398438 88.128906 83 88.128906 83 85.726562 "/>
<path style=" stroke:none;fill-rule:evenodd;fill:rgb(45.098039%,45.098039%,87.058824%);fill-opacity:1;" d="M 119 85.726562 C 119 83.328125 115.398438 83.328125 115.398438 85.726562 C 115.398438 88.128906 119 88.128906 119 85.726562 "/>
<path style=" stroke:none;fill-rule:evenodd;fill:rgb(45.098039%,45.098039%,87.058824%);fill-opacity:1;" d="M 126.199219 85.726562 C 126.199219 83.328125 122.601562 83.328125 122.601562 85.726562 C 122.601562 88.128906 126.199219 88.128906 126.199219 85.726562 "/>
</g>
</svg>
