<?xml version="1.0" encoding="UTF-8"?>
<svg xmlns="http://www.w3.org/2000/svg" xmlns:xlink="http://www.w3.org/1999/xlink" width="371pt" height="282pt" viewBox="0 0 371 282" version="1.1">
<g id="surface1">
<path style="fill:none;stroke-width:0.01;stroke-linecap:round;stroke-linejoin:miter;stroke:rgb(45.882353%,94.901961%,40.392157%);stroke-opacity:1;stroke-miterlimit:10;" d="M -0.00000807146 3.899979 L 0.0999811 4.000022 " transform="matrix(72,0,0,-72,9.1998,294.493798)"/>
<path style="fill:none;stroke-width:0.01;stroke-linecap:round;stroke-linejoin:miter;stroke:rgb(45.882353%,94.901961%,40.392157%);stroke-opacity:1;stroke-miterlimit:10;" d="M 0.0999811 4.000022 L 4.900003 4.000022 " transform="matrix(72,0,0,-72,9.1998,294.493798)"/>
<path style="fill:none;stroke-width:0.01;stroke-linecap:round;stroke-linejoin:miter;stroke:rgb(45.882353%,94.901961%,40.392157%);stroke-opacity:1;stroke-miterlimit:10;" d="M 4.900003 4.000022 L 4.900003 0.399979 " transform="matrix(72,0,0,-72,9.1998,294.493798)"/>
<path style="fill:none;stroke-width:0.01;stroke-linecap:round;stroke-linejoin:miter;stroke:rgb(45.882353%,94.901961%,40.392157%);stroke-opacity:1;stroke-miterlimit:10;" d="M 4.900003 0.399979 L -0.00000807146 0.399979 " transform="matrix(72,0,0,-72,9.1998,294.493798)"/>
<path style="fill:none;stroke-width:0.01;stroke-linecap:round;stroke-linejoin:miter;stroke:rgb(45.882353%,94.901961%,40.392157%);stroke-opacity:1;stroke-miterlimit:10;" d="M -0.00000807146 0.399979 L -0.00000807146 3.899979 " transform="matrix(72,0,0,-72,9.1998,294.493798)"/>
<path style=" stroke:none;fill-rule:evenodd;fill:rgb(75.686275%,0%,87.843137%);fill-opacity:1;" d="M 276.175781 182.894531 C 276.175781 179.726562 271.421875 179.726562 271.421875 182.894531 C 271.421875 186.0625 276.175781 186.0625 276.175781 182.894531 "/>
<path style=" stroke:none;fill-rule:evenodd;fill:rgb(75.686275%,0%,87.843137%);fill-opacity:1;" d="M 232.976562 128.894531 C 232.976562 125.726562 228.222656 125.726562 228.222656 128.894531 C 228.222656 132.0625 232.976562 132.0625 232.976562 128.894531 "/>
<path style=" stroke:none;fill-rule:evenodd;fill:rgb(75.686275%,0%,87.843137%);fill-opacity:1;" d="M 240.175781 128.894531 C 240.175781 125.726562 235.421875 125.726562 235.421875 128.894531 C 235.421875 132.0625 240.175781 132.0625 240.175781 128.894531 "/>
<path style=" stroke:none;fill-rule:evenodd;fill:rgb(75.686275%,0%,87.843137%);fill-opacity:1;" d="M 247.375 128.894531 C 247.375 125.726562 242.625 125.726562 242.625 128.894531 C 242.625 132.0625 247.375 132.0625 247.375 128.894531 "/>
<path style=" stroke:none;fill-rule:evenodd;fill:rgb(75.686275%,0%,87.843137%);fill-opacity:1;" d="M 254.574219 128.894531 C 254.574219 125.726562 249.824219 125.726562 249.824219 128.894531 C 249.824219 132.0625 254.574219 132.0625 254.574219 128.894531 "/>
<path style=" stroke:none;fill-rule:evenodd;fill:rgb(75.686275%,0%,87.843137%);fill-opacity:1;" d="M 261.777344 128.894531 C 261.777344 125.726562 257.023438 125.726562 257.023438 128.894531 C 257.023438 132.0625 261.777344 132.0625 261.777344 128.894531 "/>
<path style=" stroke:none;fill-rule:evenodd;fill:rgb(75.686275%,0%,87.843137%);fill-opacity:1;" d="M 268.976562 128.894531 C 268.976562 125.726562 264.222656 125.726562 264.222656 128.894531 C 264.222656 132.0625 268.976562 132.0625 268.976562 128.894531 "/>
<path style=" stroke:none;fill-rule:evenodd;fill:rgb(75.686275%,0%,87.843137%);fill-opacity:1;" d="M 276.175781 128.894531 C 276.175781 125.726562 271.421875 125.726562 271.421875 128.894531 C 271.421875 132.0625 276.175781 132.0625 276.175781 128.894531 "/>
<path style=" stroke:none;fill-rule:evenodd;fill:rgb(75.686275%,0%,87.843137%);fill-opacity:1;" d="M 340.253906 144.375 C 340.253906 143.125 338.382812 143.125 338.382812 144.375 C 338.382812 145.621094 340.253906 145.621094 340.253906 144.375 "/>
<path style=" stroke:none;fill-rule:evenodd;fill:rgb(75.686275%,0%,87.843137%);fill-opacity:1;" d="M 325.496094 143.292969 C 325.496094 142.046875 323.625 142.046875 323.625 143.292969 C 323.625 144.542969 325.496094 144.542969 325.496094 143.292969 "/>
<path style=" stroke:none;fill-rule:evenodd;fill:rgb(75.686275%,0%,87.843137%);fill-opacity:1;" d="M 342.414062 144.375 C 342.414062 143.125 340.542969 143.125 340.542969 144.375 C 340.542969 145.621094 342.414062 145.621094 342.414062 144.375 "/>
<path style=" stroke:none;fill-rule:evenodd;fill:rgb(75.686275%,0%,87.843137%);fill-opacity:1;" d="M 350.695312 144.734375 C 350.695312 143.484375 348.824219 143.484375 348.824219 144.734375 C 348.824219 145.980469 350.695312 145.980469 350.695312 144.734375 "/>
<path style=" stroke:none;fill-rule:evenodd;fill:rgb(75.686275%,0%,87.843137%);fill-opacity:1;" d="M 352.855469 144.734375 C 352.855469 143.484375 350.984375 143.484375 350.984375 144.734375 C 350.984375 145.980469 352.855469 145.980469 352.855469 144.734375 "/>
<path style=" stroke:none;fill-rule:evenodd;fill:rgb(75.686275%,0%,87.843137%);fill-opacity:1;" d="M 336.65625 141.855469 C 336.65625 140.605469 334.785156 140.605469 334.785156 141.855469 C 334.785156 143.101562 336.65625 143.101562 336.65625 141.855469 "/>
<path style=" stroke:none;fill-rule:evenodd;fill:rgb(75.686275%,0%,87.843137%);fill-opacity:1;" d="M 338.816406 141.855469 C 338.816406 140.605469 336.945312 140.605469 336.945312 141.855469 C 336.945312 143.101562 338.816406 143.101562 338.816406 141.855469 "/>
<path style=" stroke:none;fill-rule:evenodd;fill:rgb(75.686275%,0%,87.843137%);fill-opacity:1;" d="M 328.734375 137.171875 C 328.734375 135.925781 326.863281 135.925781 326.863281 137.171875 C 326.863281 138.421875 328.734375 138.421875 328.734375 137.171875 "/>
<path style=" stroke:none;fill-rule:evenodd;fill:rgb(75.686275%,0%,87.843137%);fill-opacity:1;" d="M 330.894531 137.171875 C 330.894531 135.925781 329.023438 135.925781 329.023438 137.171875 C 329.023438 138.421875 330.894531 138.421875 330.894531 137.171875 "/>
<path style=" stroke:none;fill-rule:evenodd;fill:rgb(75.686275%,0%,87.843137%);fill-opacity:1;" d="M 319.734375 143.292969 C 319.734375 142.046875 317.863281 142.046875 317.863281 143.292969 C 317.863281 144.542969 319.734375 144.542969 319.734375 143.292969 "/>
<path style=" stroke:none;fill-rule:evenodd;fill:rgb(75.686275%,0%,87.843137%);fill-opacity:1;" d="M 321.535156 144.734375 C 321.535156 143.484375 319.664062 143.484375 319.664062 144.734375 C 319.664062 145.980469 321.535156 145.980469 321.535156 144.734375 "/>
<path style=" stroke:none;fill-rule:evenodd;fill:rgb(75.686275%,0%,87.843137%);fill-opacity:1;" d="M 323.695312 144.734375 C 323.695312 143.484375 321.824219 143.484375 321.824219 144.734375 C 321.824219 145.980469 323.695312 145.980469 323.695312 144.734375 "/>
<path style=" stroke:none;fill-rule:evenodd;fill:rgb(75.686275%,0%,87.843137%);fill-opacity:1;" d="M 310.734375 144.734375 C 310.734375 143.484375 308.863281 143.484375 308.863281 144.734375 C 308.863281 145.980469 310.734375 145.980469 310.734375 144.734375 "/>
<path style=" stroke:none;fill-rule:evenodd;fill:rgb(75.686275%,0%,87.843137%);fill-opacity:1;" d="M 312.894531 144.734375 C 312.894531 143.484375 311.023438 143.484375 311.023438 144.734375 C 311.023438 145.980469 312.894531 145.980469 312.894531 144.734375 "/>
<path style=" stroke:none;fill-rule:evenodd;fill:rgb(75.686275%,0%,87.843137%);fill-opacity:1;" d="M 315.054688 144.734375 C 315.054688 143.484375 313.183594 143.484375 313.183594 144.734375 C 313.183594 145.980469 315.054688 145.980469 315.054688 144.734375 "/>
<path style=" stroke:none;fill-rule:evenodd;fill:rgb(75.686275%,0%,87.843137%);fill-opacity:1;" d="M 303.535156 137.535156 C 303.535156 136.285156 301.664062 136.285156 301.664062 137.535156 C 301.664062 138.78125 303.535156 138.78125 303.535156 137.535156 "/>
<path style=" stroke:none;fill-rule:evenodd;fill:rgb(75.686275%,0%,87.843137%);fill-opacity:1;" d="M 305.695312 137.535156 C 305.695312 136.285156 303.824219 136.285156 303.824219 137.535156 C 303.824219 138.78125 305.695312 138.78125 305.695312 137.535156 "/>
<path style=" stroke:none;fill-rule:evenodd;fill:rgb(75.686275%,0%,87.843137%);fill-opacity:1;" d="M 307.855469 137.535156 C 307.855469 136.285156 305.984375 136.285156 305.984375 137.535156 C 305.984375 138.78125 307.855469 138.78125 307.855469 137.535156 "/>
<path style=" stroke:none;fill-rule:evenodd;fill:rgb(75.686275%,0%,87.843137%);fill-opacity:1;" d="M 247.375 182.894531 C 247.375 179.726562 242.625 179.726562 242.625 182.894531 C 242.625 186.0625 247.375 186.0625 247.375 182.894531 "/>
<path style=" stroke:none;fill-rule:evenodd;fill:rgb(75.686275%,0%,87.843137%);fill-opacity:1;" d="M 254.574219 182.894531 C 254.574219 179.726562 249.824219 179.726562 249.824219 182.894531 C 249.824219 186.0625 254.574219 186.0625 254.574219 182.894531 "/>
<path style=" stroke:none;fill-rule:evenodd;fill:rgb(75.686275%,0%,87.843137%);fill-opacity:1;" d="M 261.777344 182.894531 C 261.777344 179.726562 257.023438 179.726562 257.023438 182.894531 C 257.023438 186.0625 261.777344 186.0625 261.777344 182.894531 "/>
<path style=" stroke:none;fill-rule:evenodd;fill:rgb(75.686275%,0%,87.843137%);fill-opacity:1;" d="M 268.976562 182.894531 C 268.976562 179.726562 264.222656 179.726562 264.222656 182.894531 C 264.222656 186.0625 268.976562 186.0625 268.976562 182.894531 "/>
<path style=" stroke:none;fill-rule:evenodd;fill:rgb(75.686275%,0%,87.843137%);fill-opacity:1;" d="M 225.777344 182.894531 C 225.777344 179.726562 221.023438 179.726562 221.023438 182.894531 C 221.023438 186.0625 225.777344 186.0625 225.777344 182.894531 "/>
<path style=" stroke:none;fill-rule:evenodd;fill:rgb(75.686275%,0%,87.843137%);fill-opacity:1;" d="M 232.976562 182.894531 C 232.976562 179.726562 228.222656 179.726562 228.222656 182.894531 C 228.222656 186.0625 232.976562 186.0625 232.976562 182.894531 "/>
<path style=" stroke:none;fill-rule:evenodd;fill:rgb(75.686275%,0%,87.843137%);fill-opacity:1;" d="M 240.175781 182.894531 C 240.175781 179.726562 235.421875 179.726562 235.421875 182.894531 C 235.421875 186.0625 240.175781 186.0625 240.175781 182.894531 "/>
<path style=" stroke:none;fill-rule:evenodd;fill:rgb(75.686275%,0%,87.843137%);fill-opacity:1;" d="M 204.175781 215.292969 C 204.175781 212.125 199.421875 212.125 199.421875 215.292969 C 199.421875 218.460938 204.175781 218.460938 204.175781 215.292969 "/>
<path style=" stroke:none;fill-rule:evenodd;fill:rgb(75.686275%,0%,87.843137%);fill-opacity:1;" d="M 211.375 215.292969 C 211.375 212.125 206.625 212.125 206.625 215.292969 C 206.625 218.460938 211.375 218.460938 211.375 215.292969 "/>
<path style=" stroke:none;fill-rule:evenodd;fill:rgb(75.686275%,0%,87.843137%);fill-opacity:1;" d="M 204.175781 222.492188 C 204.175781 219.324219 199.421875 219.324219 199.421875 222.492188 C 199.421875 225.660156 204.175781 225.660156 204.175781 222.492188 "/>
<path style=" stroke:none;fill-rule:evenodd;fill:rgb(75.686275%,0%,87.843137%);fill-opacity:1;" d="M 211.375 222.492188 C 211.375 219.324219 206.625 219.324219 206.625 222.492188 C 206.625 225.660156 211.375 225.660156 211.375 222.492188 "/>
<path style=" stroke:none;fill-rule:evenodd;fill:rgb(75.686275%,0%,87.843137%);fill-opacity:1;" d="M 254.574219 215.292969 C 254.574219 212.125 249.824219 212.125 249.824219 215.292969 C 249.824219 218.460938 254.574219 218.460938 254.574219 215.292969 "/>
<path style=" stroke:none;fill-rule:evenodd;fill:rgb(75.686275%,0%,87.843137%);fill-opacity:1;" d="M 247.375 215.292969 C 247.375 212.125 242.625 212.125 242.625 215.292969 C 242.625 218.460938 247.375 218.460938 247.375 215.292969 "/>
<path style=" stroke:none;fill-rule:evenodd;fill:rgb(75.686275%,0%,87.843137%);fill-opacity:1;" d="M 240.175781 215.292969 C 240.175781 212.125 235.421875 212.125 235.421875 215.292969 C 235.421875 218.460938 240.175781 218.460938 240.175781 215.292969 "/>
<path style=" stroke:none;fill-rule:evenodd;fill:rgb(75.686275%,0%,87.843137%);fill-opacity:1;" d="M 232.976562 215.292969 C 232.976562 212.125 228.222656 212.125 228.222656 215.292969 C 228.222656 218.460938 232.976562 218.460938 232.976562 215.292969 "/>
<path style=" stroke:none;fill-rule:evenodd;fill:rgb(75.686275%,0%,87.843137%);fill-opacity:1;" d="M 225.777344 215.292969 C 225.777344 212.125 221.023438 212.125 221.023438 215.292969 C 221.023438 218.460938 225.777344 218.460938 225.777344 215.292969 "/>
<path style=" stroke:none;fill-rule:evenodd;fill:rgb(75.686275%,0%,87.843137%);fill-opacity:1;" d="M 276.175781 215.292969 C 276.175781 212.125 271.421875 212.125 271.421875 215.292969 C 271.421875 218.460938 276.175781 218.460938 276.175781 215.292969 "/>
<path style=" stroke:none;fill-rule:evenodd;fill:rgb(75.686275%,0%,87.843137%);fill-opacity:1;" d="M 268.976562 215.292969 C 268.976562 212.125 264.222656 212.125 264.222656 215.292969 C 264.222656 218.460938 268.976562 218.460938 268.976562 215.292969 "/>
<path style=" stroke:none;fill-rule:evenodd;fill:rgb(75.686275%,0%,87.843137%);fill-opacity:1;" d="M 261.777344 215.292969 C 261.777344 212.125 257.023438 212.125 257.023438 215.292969 C 257.023438 218.460938 261.777344 218.460938 261.777344 215.292969 "/>
<path style=" stroke:none;fill-rule:evenodd;fill:rgb(75.686275%,0%,87.843137%);fill-opacity:1;" d="M 276.175781 269.292969 C 276.175781 266.125 271.421875 266.125 271.421875 269.292969 C 271.421875 272.460938 276.175781 272.460938 276.175781 269.292969 "/>
<path style=" stroke:none;fill-rule:evenodd;fill:rgb(75.686275%,0%,87.843137%);fill-opacity:1;" d="M 268.976562 269.292969 C 268.976562 266.125 264.222656 266.125 264.222656 269.292969 C 264.222656 272.460938 268.976562 272.460938 268.976562 269.292969 "/>
<path style=" stroke:none;fill-rule:evenodd;fill:rgb(75.686275%,0%,87.843137%);fill-opacity:1;" d="M 261.777344 269.292969 C 261.777344 266.125 257.023438 266.125 257.023438 269.292969 C 257.023438 272.460938 261.777344 272.460938 261.777344 269.292969 "/>
<path style=" stroke:none;fill-rule:evenodd;fill:rgb(75.686275%,0%,87.843137%);fill-opacity:1;" d="M 254.574219 269.292969 C 254.574219 266.125 249.824219 266.125 249.824219 269.292969 C 249.824219 272.460938 254.574219 272.460938 254.574219 269.292969 "/>
<path style=" stroke:none;fill-rule:evenodd;fill:rgb(75.686275%,0%,87.843137%);fill-opacity:1;" d="M 247.375 269.292969 C 247.375 266.125 242.625 266.125 242.625 269.292969 C 242.625 272.460938 247.375 272.460938 247.375 269.292969 "/>
<path style=" stroke:none;fill-rule:evenodd;fill:rgb(75.686275%,0%,87.843137%);fill-opacity:1;" d="M 240.175781 269.292969 C 240.175781 266.125 235.421875 266.125 235.421875 269.292969 C 235.421875 272.460938 240.175781 272.460938 240.175781 269.292969 "/>
<path style=" stroke:none;fill-rule:evenodd;fill:rgb(75.686275%,0%,87.843137%);fill-opacity:1;" d="M 232.976562 269.292969 C 232.976562 266.125 228.222656 266.125 228.222656 269.292969 C 228.222656 272.460938 232.976562 272.460938 232.976562 269.292969 "/>
<path style=" stroke:none;fill-rule:evenodd;fill:rgb(75.686275%,0%,87.843137%);fill-opacity:1;" d="M 225.777344 269.292969 C 225.777344 266.125 221.023438 266.125 221.023438 269.292969 C 221.023438 272.460938 225.777344 272.460938 225.777344 269.292969 "/>
<path style=" stroke:none;fill-rule:evenodd;fill:rgb(75.686275%,0%,87.843137%);fill-opacity:1;" d="M 83.574219 128.894531 C 83.574219 125.726562 78.824219 125.726562 78.824219 128.894531 C 78.824219 132.0625 83.574219 132.0625 83.574219 128.894531 "/>
<path style=" stroke:none;fill-rule:evenodd;fill:rgb(75.686275%,0%,87.843137%);fill-opacity:1;" d="M 83.574219 136.09375 C 83.574219 132.925781 78.824219 132.925781 78.824219 136.09375 C 78.824219 139.261719 83.574219 139.261719 83.574219 136.09375 "/>
<path style=" stroke:none;fill-rule:evenodd;fill:rgb(75.686275%,0%,87.843137%);fill-opacity:1;" d="M 76.375 136.09375 C 76.375 132.925781 71.625 132.925781 71.625 136.09375 C 71.625 139.261719 76.375 139.261719 76.375 136.09375 "/>
<path style=" stroke:none;fill-rule:evenodd;fill:rgb(75.686275%,0%,87.843137%);fill-opacity:1;" d="M 76.375 128.894531 C 76.375 125.726562 71.625 125.726562 71.625 128.894531 C 71.625 132.0625 76.375 132.0625 76.375 128.894531 "/>
<path style=" stroke:none;fill-rule:evenodd;fill:rgb(75.686275%,0%,87.843137%);fill-opacity:1;" d="M 76.375 215.292969 C 76.375 212.125 71.625 212.125 71.625 215.292969 C 71.625 218.460938 76.375 218.460938 76.375 215.292969 "/>
<path style=" stroke:none;fill-rule:evenodd;fill:rgb(75.686275%,0%,87.843137%);fill-opacity:1;" d="M 76.375 222.492188 C 76.375 219.324219 71.625 219.324219 71.625 222.492188 C 71.625 225.660156 76.375 225.660156 76.375 222.492188 "/>
<path style=" stroke:none;fill-rule:evenodd;fill:rgb(75.686275%,0%,87.843137%);fill-opacity:1;" d="M 83.574219 222.492188 C 83.574219 219.324219 78.824219 219.324219 78.824219 222.492188 C 78.824219 225.660156 83.574219 225.660156 83.574219 222.492188 "/>
<path style=" stroke:none;fill-rule:evenodd;fill:rgb(75.686275%,0%,87.843137%);fill-opacity:1;" d="M 83.574219 215.292969 C 83.574219 212.125 78.824219 212.125 78.824219 215.292969 C 78.824219 218.460938 83.574219 218.460938 83.574219 215.292969 "/>
<path style=" stroke:none;fill-rule:evenodd;fill:rgb(75.686275%,0%,87.843137%);fill-opacity:1;" d="M 128.503906 234.519531 L 128.503906 239.269531 L 133.253906 239.269531 L 133.253906 234.519531 Z M 128.503906 234.519531 "/>
<path style=" stroke:none;fill-rule:evenodd;fill:rgb(75.686275%,0%,87.843137%);fill-opacity:1;" d="M 133.253906 244.09375 C 133.253906 240.925781 128.503906 240.925781 128.503906 244.09375 C 128.503906 247.261719 133.253906 247.261719 133.253906 244.09375 "/>
<path style=" stroke:none;fill-rule:evenodd;fill:rgb(75.686275%,0%,87.843137%);fill-opacity:1;" d="M 133.253906 251.292969 C 133.253906 248.125 128.503906 248.125 128.503906 251.292969 C 128.503906 254.460938 133.253906 254.460938 133.253906 251.292969 "/>
<path style=" stroke:none;fill-rule:evenodd;fill:rgb(75.686275%,0%,87.843137%);fill-opacity:1;" d="M 133.253906 258.492188 C 133.253906 255.324219 128.503906 255.324219 128.503906 258.492188 C 128.503906 261.660156 133.253906 261.660156 133.253906 258.492188 "/>
<path style=" stroke:none;fill-rule:evenodd;fill:rgb(75.686275%,0%,87.843137%);fill-opacity:1;" d="M 133.253906 265.695312 C 133.253906 262.527344 128.503906 262.527344 128.503906 265.695312 C 128.503906 268.863281 133.253906 268.863281 133.253906 265.695312 "/>
<path style=" stroke:none;fill-rule:evenodd;fill:rgb(75.686275%,0%,87.843137%);fill-opacity:1;" d="M 133.253906 272.894531 C 133.253906 269.726562 128.503906 269.726562 128.503906 272.894531 C 128.503906 276.0625 133.253906 276.0625 133.253906 272.894531 "/>
<path style=" stroke:none;fill-rule:evenodd;fill:rgb(75.686275%,0%,87.843137%);fill-opacity:1;" d="M 147.296875 240.492188 C 147.296875 237.324219 142.542969 237.324219 142.542969 240.492188 C 142.542969 243.660156 147.296875 243.660156 147.296875 240.492188 "/>
<path style=" stroke:none;fill-rule:evenodd;fill:rgb(75.686275%,0%,87.843137%);fill-opacity:1;" d="M 147.296875 254.894531 C 147.296875 251.726562 142.542969 251.726562 142.542969 254.894531 C 142.542969 258.0625 147.296875 258.0625 147.296875 254.894531 "/>
<path style=" stroke:none;fill-rule:evenodd;fill:rgb(75.686275%,0%,87.843137%);fill-opacity:1;" d="M 128.503906 148.117188 L 128.503906 152.871094 L 133.253906 152.871094 L 133.253906 148.117188 Z M 128.503906 148.117188 "/>
<path style=" stroke:none;fill-rule:evenodd;fill:rgb(75.686275%,0%,87.843137%);fill-opacity:1;" d="M 133.253906 157.695312 C 133.253906 154.527344 128.503906 154.527344 128.503906 157.695312 C 128.503906 160.863281 133.253906 160.863281 133.253906 157.695312 "/>
<path style=" stroke:none;fill-rule:evenodd;fill:rgb(75.686275%,0%,87.843137%);fill-opacity:1;" d="M 133.253906 164.894531 C 133.253906 161.726562 128.503906 161.726562 128.503906 164.894531 C 128.503906 168.0625 133.253906 168.0625 133.253906 164.894531 "/>
<path style=" stroke:none;fill-rule:evenodd;fill:rgb(75.686275%,0%,87.843137%);fill-opacity:1;" d="M 133.253906 172.09375 C 133.253906 168.925781 128.503906 168.925781 128.503906 172.09375 C 128.503906 175.261719 133.253906 175.261719 133.253906 172.09375 "/>
<path style=" stroke:none;fill-rule:evenodd;fill:rgb(75.686275%,0%,87.843137%);fill-opacity:1;" d="M 133.253906 179.292969 C 133.253906 176.125 128.503906 176.125 128.503906 179.292969 C 128.503906 182.460938 133.253906 182.460938 133.253906 179.292969 "/>
<path style=" stroke:none;fill-rule:evenodd;fill:rgb(75.686275%,0%,87.843137%);fill-opacity:1;" d="M 133.253906 186.492188 C 133.253906 183.324219 128.503906 183.324219 128.503906 186.492188 C 128.503906 189.660156 133.253906 189.660156 133.253906 186.492188 "/>
<path style=" stroke:none;fill-rule:evenodd;fill:rgb(75.686275%,0%,87.843137%);fill-opacity:1;" d="M 128.503906 61.71875 L 128.503906 66.46875 L 133.253906 66.46875 L 133.253906 61.71875 Z M 128.503906 61.71875 "/>
<path style=" stroke:none;fill-rule:evenodd;fill:rgb(75.686275%,0%,87.843137%);fill-opacity:1;" d="M 147.296875 67.695312 C 147.296875 64.527344 142.542969 64.527344 142.542969 67.695312 C 142.542969 70.863281 147.296875 70.863281 147.296875 67.695312 "/>
<path style=" stroke:none;fill-rule:evenodd;fill:rgb(75.686275%,0%,87.843137%);fill-opacity:1;" d="M 133.253906 71.292969 C 133.253906 68.125 128.503906 68.125 128.503906 71.292969 C 128.503906 74.460938 133.253906 74.460938 133.253906 71.292969 "/>
<path style=" stroke:none;fill-rule:evenodd;fill:rgb(75.686275%,0%,87.843137%);fill-opacity:1;" d="M 133.253906 78.492188 C 133.253906 75.324219 128.503906 75.324219 128.503906 78.492188 C 128.503906 81.660156 133.253906 81.660156 133.253906 78.492188 "/>
<path style=" stroke:none;fill-rule:evenodd;fill:rgb(75.686275%,0%,87.843137%);fill-opacity:1;" d="M 147.296875 82.09375 C 147.296875 78.925781 142.542969 78.925781 142.542969 82.09375 C 142.542969 85.261719 147.296875 85.261719 147.296875 82.09375 "/>
<path style=" stroke:none;fill-rule:evenodd;fill:rgb(75.686275%,0%,87.843137%);fill-opacity:1;" d="M 133.253906 85.695312 C 133.253906 82.527344 128.503906 82.527344 128.503906 85.695312 C 128.503906 88.863281 133.253906 88.863281 133.253906 85.695312 "/>
<path style=" stroke:none;fill-rule:evenodd;fill:rgb(75.686275%,0%,87.843137%);fill-opacity:1;" d="M 121.304688 82.597656 L 121.304688 88.789062 L 127.496094 88.789062 L 127.496094 82.597656 Z M 121.304688 82.597656 "/>
<path style=" stroke:none;fill-rule:evenodd;fill:rgb(75.686275%,0%,87.843137%);fill-opacity:1;" d="M 133.253906 92.894531 C 133.253906 89.726562 128.503906 89.726562 128.503906 92.894531 C 128.503906 96.0625 133.253906 96.0625 133.253906 92.894531 "/>
<path style=" stroke:none;fill-rule:evenodd;fill:rgb(75.686275%,0%,87.843137%);fill-opacity:1;" d="M 133.253906 100.09375 C 133.253906 96.925781 128.503906 96.925781 128.503906 100.09375 C 128.503906 103.261719 133.253906 103.261719 133.253906 100.09375 "/>
<path style=" stroke:none;fill-rule:evenodd;fill:rgb(75.686275%,0%,87.843137%);fill-opacity:1;" d="M 76.375 42.492188 C 76.375 39.324219 71.625 39.324219 71.625 42.492188 C 71.625 45.660156 76.375 45.660156 76.375 42.492188 "/>
<path style=" stroke:none;fill-rule:evenodd;fill:rgb(75.686275%,0%,87.843137%);fill-opacity:1;" d="M 76.375 49.695312 C 76.375 46.527344 71.625 46.527344 71.625 49.695312 C 71.625 52.863281 76.375 52.863281 76.375 49.695312 "/>
<path style=" stroke:none;fill-rule:evenodd;fill:rgb(75.686275%,0%,87.843137%);fill-opacity:1;" d="M 83.574219 49.695312 C 83.574219 46.527344 78.824219 46.527344 78.824219 49.695312 C 78.824219 52.863281 83.574219 52.863281 83.574219 49.695312 "/>
<path style=" stroke:none;fill-rule:evenodd;fill:rgb(75.686275%,0%,87.843137%);fill-opacity:1;" d="M 83.574219 42.492188 C 83.574219 39.324219 78.824219 39.324219 78.824219 42.492188 C 78.824219 45.660156 83.574219 45.660156 83.574219 42.492188 "/>
<path style=" stroke:none;fill-rule:evenodd;fill:rgb(75.686275%,0%,87.843137%);fill-opacity:1;" d="M 71.804688 76.296875 L 71.804688 80.691406 L 76.195312 80.691406 L 76.195312 76.296875 Z M 71.804688 76.296875 "/>
<path style=" stroke:none;fill-rule:evenodd;fill:rgb(75.686275%,0%,87.843137%);fill-opacity:1;" d="M 104.996094 78.492188 C 104.996094 75.566406 100.605469 75.566406 100.605469 78.492188 C 100.605469 81.421875 104.996094 81.421875 104.996094 78.492188 "/>
<path style=" stroke:none;fill-rule:evenodd;fill:rgb(75.686275%,0%,87.843137%);fill-opacity:1;" d="M 84.296875 85.695312 C 84.296875 81.566406 78.105469 81.566406 78.105469 85.695312 C 78.105469 89.820312 84.296875 89.820312 84.296875 85.695312 "/>
<path style=" stroke:none;fill-rule:evenodd;fill:rgb(75.686275%,0%,87.843137%);fill-opacity:1;" d="M 83.394531 78.492188 C 83.394531 75.566406 79.003906 75.566406 79.003906 78.492188 C 79.003906 81.421875 83.394531 81.421875 83.394531 78.492188 "/>
<path style=" stroke:none;fill-rule:evenodd;fill:rgb(75.686275%,0%,87.843137%);fill-opacity:1;" d="M 70.902344 82.597656 L 70.902344 88.789062 L 77.097656 88.789062 L 77.097656 82.597656 Z M 70.902344 82.597656 "/>
<path style=" stroke:none;fill-rule:evenodd;fill:rgb(75.686275%,0%,87.843137%);fill-opacity:1;" d="M 120.296875 85.695312 C 120.296875 81.566406 114.105469 81.566406 114.105469 85.695312 C 114.105469 89.820312 120.296875 89.820312 120.296875 85.695312 "/>
<path style=" stroke:none;fill-rule:evenodd;fill:rgb(75.686275%,0%,87.843137%);fill-opacity:1;" d="M 107.804688 76.296875 L 107.804688 80.691406 L 112.195312 80.691406 L 112.195312 76.296875 Z M 107.804688 76.296875 "/>
<path style=" stroke:none;fill-rule:evenodd;fill:rgb(75.686275%,0%,87.843137%);fill-opacity:1;" d="M 225.777344 128.894531 C 225.777344 125.726562 221.023438 125.726562 221.023438 128.894531 C 221.023438 132.0625 225.777344 132.0625 225.777344 128.894531 "/>
<path style=" stroke:none;fill-rule:evenodd;fill:rgb(75.686275%,0%,87.843137%);fill-opacity:1;" d="M 211.375 128.894531 C 211.375 125.726562 206.625 125.726562 206.625 128.894531 C 206.625 132.0625 211.375 132.0625 211.375 128.894531 "/>
<path style=" stroke:none;fill-rule:evenodd;fill:rgb(75.686275%,0%,87.843137%);fill-opacity:1;" d="M 211.375 136.09375 C 211.375 132.925781 206.625 132.925781 206.625 136.09375 C 206.625 139.261719 211.375 139.261719 211.375 136.09375 "/>
<path style=" stroke:none;fill-rule:evenodd;fill:rgb(75.686275%,0%,87.843137%);fill-opacity:1;" d="M 204.175781 136.09375 C 204.175781 132.925781 199.421875 132.925781 199.421875 136.09375 C 199.421875 139.261719 204.175781 139.261719 204.175781 136.09375 "/>
<path style=" stroke:none;fill-rule:evenodd;fill:rgb(75.686275%,0%,87.843137%);fill-opacity:1;" d="M 204.175781 128.894531 C 204.175781 125.726562 199.421875 125.726562 199.421875 128.894531 C 199.421875 132.0625 204.175781 132.0625 204.175781 128.894531 "/>
<path style=" stroke:none;fill-rule:evenodd;fill:rgb(75.686275%,0%,87.843137%);fill-opacity:1;" d="M 204.175781 42.492188 C 204.175781 39.324219 199.421875 39.324219 199.421875 42.492188 C 199.421875 45.660156 204.175781 45.660156 204.175781 42.492188 "/>
<path style=" stroke:none;fill-rule:evenodd;fill:rgb(75.686275%,0%,87.843137%);fill-opacity:1;" d="M 204.175781 49.695312 C 204.175781 46.527344 199.421875 46.527344 199.421875 49.695312 C 199.421875 52.863281 204.175781 52.863281 204.175781 49.695312 "/>
<path style=" stroke:none;fill-rule:evenodd;fill:rgb(75.686275%,0%,87.843137%);fill-opacity:1;" d="M 211.375 49.695312 C 211.375 46.527344 206.625 46.527344 206.625 49.695312 C 206.625 52.863281 211.375 52.863281 211.375 49.695312 "/>
<path style=" stroke:none;fill-rule:evenodd;fill:rgb(75.686275%,0%,87.843137%);fill-opacity:1;" d="M 211.375 42.492188 C 211.375 39.324219 206.625 39.324219 206.625 42.492188 C 206.625 45.660156 211.375 45.660156 211.375 42.492188 "/>
<path style=" stroke:none;fill-rule:evenodd;fill:rgb(75.686275%,0%,87.843137%);fill-opacity:1;" d="M 225.777344 42.492188 C 225.777344 39.324219 221.023438 39.324219 221.023438 42.492188 C 221.023438 45.660156 225.777344 45.660156 225.777344 42.492188 "/>
<path style=" stroke:none;fill-rule:evenodd;fill:rgb(75.686275%,0%,87.843137%);fill-opacity:1;" d="M 225.777344 96.492188 C 225.777344 93.324219 221.023438 93.324219 221.023438 96.492188 C 221.023438 99.660156 225.777344 99.660156 225.777344 96.492188 "/>
<path style=" stroke:none;fill-rule:evenodd;fill:rgb(75.686275%,0%,87.843137%);fill-opacity:1;" d="M 276.175781 96.492188 C 276.175781 93.324219 271.421875 93.324219 271.421875 96.492188 C 271.421875 99.660156 276.175781 99.660156 276.175781 96.492188 "/>
<path style=" stroke:none;fill-rule:evenodd;fill:rgb(75.686275%,0%,87.843137%);fill-opacity:1;" d="M 276.175781 42.492188 C 276.175781 39.324219 271.421875 39.324219 271.421875 42.492188 C 271.421875 45.660156 276.175781 45.660156 276.175781 42.492188 "/>
<path style=" stroke:none;fill-rule:evenodd;fill:rgb(75.686275%,0%,87.843137%);fill-opacity:1;" d="M 268.976562 96.492188 C 268.976562 93.324219 264.222656 93.324219 264.222656 96.492188 C 264.222656 99.660156 268.976562 99.660156 268.976562 96.492188 "/>
<path style=" stroke:none;fill-rule:evenodd;fill:rgb(75.686275%,0%,87.843137%);fill-opacity:1;" d="M 261.777344 96.492188 C 261.777344 93.324219 257.023438 93.324219 257.023438 96.492188 C 257.023438 99.660156 261.777344 99.660156 261.777344 96.492188 "/>
<path style=" stroke:none;fill-rule:evenodd;fill:rgb(75.686275%,0%,87.843137%);fill-opacity:1;" d="M 254.574219 96.492188 C 254.574219 93.324219 249.824219 93.324219 249.824219 96.492188 C 249.824219 99.660156 254.574219 99.660156 254.574219 96.492188 "/>
<path style=" stroke:none;fill-rule:evenodd;fill:rgb(75.686275%,0%,87.843137%);fill-opacity:1;" d="M 247.375 96.492188 C 247.375 93.324219 242.625 93.324219 242.625 96.492188 C 242.625 99.660156 247.375 99.660156 247.375 96.492188 "/>
<path style=" stroke:none;fill-rule:evenodd;fill:rgb(75.686275%,0%,87.843137%);fill-opacity:1;" d="M 240.175781 96.492188 C 240.175781 93.324219 235.421875 93.324219 235.421875 96.492188 C 235.421875 99.660156 240.175781 99.660156 240.175781 96.492188 "/>
<path style=" stroke:none;fill-rule:evenodd;fill:rgb(75.686275%,0%,87.843137%);fill-opacity:1;" d="M 232.976562 96.492188 C 232.976562 93.324219 228.222656 93.324219 228.222656 96.492188 C 228.222656 99.660156 232.976562 99.660156 232.976562 96.492188 "/>
<path style=" stroke:none;fill-rule:evenodd;fill:rgb(75.686275%,0%,87.843137%);fill-opacity:1;" d="M 268.976562 42.492188 C 268.976562 39.324219 264.222656 39.324219 264.222656 42.492188 C 264.222656 45.660156 268.976562 45.660156 268.976562 42.492188 "/>
<path style=" stroke:none;fill-rule:evenodd;fill:rgb(75.686275%,0%,87.843137%);fill-opacity:1;" d="M 261.777344 42.492188 C 261.777344 39.324219 257.023438 39.324219 257.023438 42.492188 C 257.023438 45.660156 261.777344 45.660156 261.777344 42.492188 "/>
<path style=" stroke:none;fill-rule:evenodd;fill:rgb(75.686275%,0%,87.843137%);fill-opacity:1;" d="M 254.574219 42.492188 C 254.574219 39.324219 249.824219 39.324219 249.824219 42.492188 C 249.824219 45.660156 254.574219 45.660156 254.574219 42.492188 "/>
<path style=" stroke:none;fill-rule:evenodd;fill:rgb(75.686275%,0%,87.843137%);fill-opacity:1;" d="M 247.375 42.492188 C 247.375 39.324219 242.625 39.324219 242.625 42.492188 C 242.625 45.660156 247.375 45.660156 247.375 42.492188 "/>
<path style=" stroke:none;fill-rule:evenodd;fill:rgb(75.686275%,0%,87.843137%);fill-opacity:1;" d="M 240.175781 42.492188 C 240.175781 39.324219 235.421875 39.324219 235.421875 42.492188 C 235.421875 45.660156 240.175781 45.660156 240.175781 42.492188 "/>
<path style=" stroke:none;fill-rule:evenodd;fill:rgb(75.686275%,0%,87.843137%);fill-opacity:1;" d="M 232.976562 42.492188 C 232.976562 39.324219 228.222656 39.324219 228.222656 42.492188 C 228.222656 45.660156 232.976562 45.660156 232.976562 42.492188 "/>
<path style=" stroke:none;fill-rule:evenodd;fill:rgb(75.686275%,0%,87.843137%);fill-opacity:1;" d="M 317 183.972656 C 317 182.054688 314.121094 182.054688 314.121094 183.972656 C 314.121094 185.894531 317 185.894531 317 183.972656 "/>
<path style=" stroke:none;fill-rule:evenodd;fill:rgb(75.686275%,0%,87.843137%);fill-opacity:1;" d="M 317 181.453125 C 317 179.535156 314.121094 179.535156 314.121094 181.453125 C 314.121094 183.375 317 183.375 317 181.453125 "/>
<path style=" stroke:none;fill-rule:evenodd;fill:rgb(75.686275%,0%,87.843137%);fill-opacity:1;" d="M 317 178.933594 C 317 177.015625 314.121094 177.015625 314.121094 178.933594 C 314.121094 180.855469 317 180.855469 317 178.933594 "/>
<path style=" stroke:none;fill-rule:evenodd;fill:rgb(75.686275%,0%,87.843137%);fill-opacity:1;" d="M 317 186.492188 C 317 184.574219 314.121094 184.574219 314.121094 186.492188 C 314.121094 188.414062 317 188.414062 317 186.492188 "/>
<path style=" stroke:none;fill-rule:evenodd;fill:rgb(75.686275%,0%,87.843137%);fill-opacity:1;" d="M 320.238281 181.453125 C 320.238281 179.535156 317.359375 179.535156 317.359375 181.453125 C 317.359375 183.375 320.238281 183.375 320.238281 181.453125 "/>
<path style=" stroke:none;fill-rule:evenodd;fill:rgb(75.686275%,0%,87.843137%);fill-opacity:1;" d="M 320.238281 178.933594 C 320.238281 177.015625 317.359375 177.015625 317.359375 178.933594 C 317.359375 180.855469 320.238281 180.855469 320.238281 178.933594 "/>
<path style=" stroke:none;fill-rule:evenodd;fill:rgb(75.686275%,0%,87.843137%);fill-opacity:1;" d="M 320.238281 186.492188 C 320.238281 184.574219 317.359375 184.574219 317.359375 186.492188 C 317.359375 188.414062 320.238281 188.414062 320.238281 186.492188 "/>
<path style=" stroke:none;fill-rule:evenodd;fill:rgb(75.686275%,0%,87.843137%);fill-opacity:1;" d="M 320.238281 183.972656 C 320.238281 182.054688 317.359375 182.054688 317.359375 183.972656 C 317.359375 185.894531 320.238281 185.894531 320.238281 183.972656 "/>
<path style=" stroke:none;fill-rule:evenodd;fill:rgb(100%,49.803922%,45.098039%);fill-opacity:1;" d="M 117.558594 67.695312 C 117.558594 67.214844 116.839844 67.214844 116.839844 67.695312 C 116.839844 68.171875 117.558594 68.171875 117.558594 67.695312 "/>
<path style=" stroke:none;fill-rule:evenodd;fill:rgb(100%,49.803922%,45.098039%);fill-opacity:1;" d="M 128 29.535156 C 128 29.054688 127.28125 29.054688 127.28125 29.535156 C 127.28125 30.015625 128 30.015625 128 29.535156 "/>
<path style=" stroke:none;fill-rule:evenodd;fill:rgb(100%,49.803922%,45.098039%);fill-opacity:1;" d="M 128 36.734375 C 128 36.253906 127.28125 36.253906 127.28125 36.734375 C 127.28125 37.214844 128 37.214844 128 36.734375 "/>
<path style=" stroke:none;fill-rule:evenodd;fill:rgb(100%,49.803922%,45.098039%);fill-opacity:1;" d="M 139.878906 157.695312 C 139.878906 157.214844 139.160156 157.214844 139.160156 157.695312 C 139.160156 158.171875 139.878906 158.171875 139.878906 157.695312 "/>
<path style=" stroke:none;fill-rule:evenodd;fill:rgb(100%,49.803922%,45.098039%);fill-opacity:1;" d="M 139.878906 160.933594 C 139.878906 160.453125 139.160156 160.453125 139.160156 160.933594 C 139.160156 161.414062 139.878906 161.414062 139.878906 160.933594 "/>
<path style=" stroke:none;fill-rule:evenodd;fill:rgb(100%,49.803922%,45.098039%);fill-opacity:1;" d="M 140.238281 73.09375 C 140.238281 72.613281 139.519531 72.613281 139.519531 73.09375 C 139.519531 73.574219 140.238281 73.574219 140.238281 73.09375 "/>
<path style=" stroke:none;fill-rule:evenodd;fill:rgb(100%,49.803922%,45.098039%);fill-opacity:1;" d="M 146 157.695312 C 146 157.214844 145.28125 157.214844 145.28125 157.695312 C 145.28125 158.171875 146 158.171875 146 157.695312 "/>
<path style=" stroke:none;fill-rule:evenodd;fill:rgb(100%,49.803922%,45.098039%);fill-opacity:1;" d="M 146 160.933594 C 146 160.453125 145.28125 160.453125 145.28125 160.933594 C 145.28125 161.414062 146 161.414062 146 160.933594 "/>
<path style=" stroke:none;fill-rule:evenodd;fill:rgb(100%,49.803922%,45.098039%);fill-opacity:1;" d="M 217.640625 24.855469 C 217.640625 24.375 216.917969 24.375 216.917969 24.855469 C 216.917969 25.332031 217.640625 25.332031 217.640625 24.855469 "/>
<path style=" stroke:none;fill-rule:evenodd;fill:rgb(100%,49.803922%,45.098039%);fill-opacity:1;" d="M 219.441406 30.253906 C 219.441406 29.773438 218.71875 29.773438 218.71875 30.253906 C 218.71875 30.734375 219.441406 30.734375 219.441406 30.253906 "/>
<path style=" stroke:none;fill-rule:evenodd;fill:rgb(100%,49.803922%,45.098039%);fill-opacity:1;" d="M 223.761719 20.171875 C 223.761719 19.695312 223.039062 19.695312 223.039062 20.171875 C 223.039062 20.652344 223.761719 20.652344 223.761719 20.171875 "/>
<path style=" stroke:none;fill-rule:evenodd;fill:rgb(100%,49.803922%,45.098039%);fill-opacity:1;" d="M 223.761719 227.535156 C 223.761719 227.054688 223.039062 227.054688 223.039062 227.535156 C 223.039062 228.015625 223.761719 228.015625 223.761719 227.535156 "/>
<path style=" stroke:none;fill-rule:evenodd;fill:rgb(100%,49.803922%,45.098039%);fill-opacity:1;" d="M 241.039062 147.613281 C 241.039062 147.132812 240.320312 147.132812 240.320312 147.613281 C 240.320312 148.09375 241.039062 148.09375 241.039062 147.613281 "/>
<path style=" stroke:none;fill-rule:evenodd;fill:rgb(100%,49.803922%,45.098039%);fill-opacity:1;" d="M 241.039062 153.375 C 241.039062 152.894531 240.320312 152.894531 240.320312 153.375 C 240.320312 153.855469 241.039062 153.855469 241.039062 153.375 "/>
<path style=" stroke:none;fill-rule:evenodd;fill:rgb(100%,49.803922%,45.098039%);fill-opacity:1;" d="M 263 147.613281 C 263 147.132812 262.28125 147.132812 262.28125 147.613281 C 262.28125 148.09375 263 148.09375 263 147.613281 "/>
<path style=" stroke:none;fill-rule:evenodd;fill:rgb(100%,49.803922%,45.098039%);fill-opacity:1;" d="M 263 160.574219 C 263 160.09375 262.28125 160.09375 262.28125 160.574219 C 262.28125 161.054688 263 161.054688 263 160.574219 "/>
<path style=" stroke:none;fill-rule:evenodd;fill:rgb(100%,49.803922%,45.098039%);fill-opacity:1;" d="M 266.960938 147.613281 C 266.960938 147.132812 266.238281 147.132812 266.238281 147.613281 C 266.238281 148.09375 266.960938 148.09375 266.960938 147.613281 "/>
<path style=" stroke:none;fill-rule:evenodd;fill:rgb(100%,49.803922%,45.098039%);fill-opacity:1;" d="M 266.960938 153.015625 C 266.960938 152.535156 266.238281 152.535156 266.238281 153.015625 C 266.238281 153.492188 266.960938 153.492188 266.960938 153.015625 "/>
<path style=" stroke:none;fill-rule:evenodd;fill:rgb(100%,49.803922%,45.098039%);fill-opacity:1;" d="M 280.28125 199.09375 C 280.28125 198.613281 279.558594 198.613281 279.558594 199.09375 C 279.558594 199.574219 280.28125 199.574219 280.28125 199.09375 "/>
<path style=" stroke:none;fill-rule:evenodd;fill:rgb(100%,49.803922%,45.098039%);fill-opacity:1;" d="M 280.28125 201.253906 C 280.28125 200.773438 279.558594 200.773438 279.558594 201.253906 C 279.558594 201.734375 280.28125 201.734375 280.28125 201.253906 "/>
<path style=" stroke:none;fill-rule:evenodd;fill:rgb(100%,49.803922%,45.098039%);fill-opacity:1;" d="M 280.28125 203.414062 C 280.28125 202.933594 279.558594 202.933594 279.558594 203.414062 C 279.558594 203.894531 280.28125 203.894531 280.28125 203.414062 "/>
<path style=" stroke:none;fill-rule:evenodd;fill:rgb(100%,49.803922%,45.098039%);fill-opacity:1;" d="M 291.078125 199.09375 C 291.078125 198.613281 290.359375 198.613281 290.359375 199.09375 C 290.359375 199.574219 291.078125 199.574219 291.078125 199.09375 "/>
<path style=" stroke:none;fill-rule:evenodd;fill:rgb(100%,49.803922%,45.098039%);fill-opacity:1;" d="M 293.238281 199.09375 C 293.238281 198.613281 292.519531 198.613281 292.519531 199.09375 C 292.519531 199.574219 293.238281 199.574219 293.238281 199.09375 "/>
<path style=" stroke:none;fill-rule:evenodd;fill:rgb(100%,49.803922%,45.098039%);fill-opacity:1;" d="M 295.398438 199.09375 C 295.398438 198.613281 294.679688 198.613281 294.679688 199.09375 C 294.679688 199.574219 295.398438 199.574219 295.398438 199.09375 "/>
<path style=" stroke:none;fill-rule:evenodd;fill:rgb(100%,49.803922%,45.098039%);fill-opacity:1;" d="M 302.960938 137.535156 C 302.960938 137.054688 302.238281 137.054688 302.238281 137.535156 C 302.238281 138.015625 302.960938 138.015625 302.960938 137.535156 "/>
<path style=" stroke:none;fill-rule:evenodd;fill:rgb(100%,49.803922%,45.098039%);fill-opacity:1;" d="M 305.121094 137.535156 C 305.121094 137.054688 304.398438 137.054688 304.398438 137.535156 C 304.398438 138.015625 305.121094 138.015625 305.121094 137.535156 "/>
<path style=" stroke:none;fill-rule:evenodd;fill:rgb(100%,49.803922%,45.098039%);fill-opacity:1;" d="M 307.28125 137.535156 C 307.28125 137.054688 306.558594 137.054688 306.558594 137.535156 C 306.558594 138.015625 307.28125 138.015625 307.28125 137.535156 "/>
<path style=" stroke:none;fill-rule:evenodd;fill:rgb(100%,49.803922%,45.098039%);fill-opacity:1;" d="M 310.160156 144.734375 C 310.160156 144.253906 309.441406 144.253906 309.441406 144.734375 C 309.441406 145.214844 310.160156 145.214844 310.160156 144.734375 "/>
<path style=" stroke:none;fill-rule:evenodd;fill:rgb(100%,49.803922%,45.098039%);fill-opacity:1;" d="M 312.320312 144.734375 C 312.320312 144.253906 311.601562 144.253906 311.601562 144.734375 C 311.601562 145.214844 312.320312 145.214844 312.320312 144.734375 "/>
<path style=" stroke:none;fill-rule:evenodd;fill:rgb(100%,49.803922%,45.098039%);fill-opacity:1;" d="M 314.480469 144.734375 C 314.480469 144.253906 313.761719 144.253906 313.761719 144.734375 C 313.761719 145.214844 314.480469 145.214844 314.480469 144.734375 "/>
<path style=" stroke:none;fill-rule:evenodd;fill:rgb(100%,49.803922%,45.098039%);fill-opacity:1;" d="M 319.160156 143.292969 C 319.160156 142.8125 318.441406 142.8125 318.441406 143.292969 C 318.441406 143.773438 319.160156 143.773438 319.160156 143.292969 "/>
<path style=" stroke:none;fill-rule:evenodd;fill:rgb(100%,49.803922%,45.098039%);fill-opacity:1;" d="M 320.960938 144.734375 C 320.960938 144.253906 320.238281 144.253906 320.238281 144.734375 C 320.238281 145.214844 320.960938 145.214844 320.960938 144.734375 "/>
<path style=" stroke:none;fill-rule:evenodd;fill:rgb(100%,49.803922%,45.098039%);fill-opacity:1;" d="M 323.121094 144.734375 C 323.121094 144.253906 322.398438 144.253906 322.398438 144.734375 C 322.398438 145.214844 323.121094 145.214844 323.121094 144.734375 "/>
<path style=" stroke:none;fill-rule:evenodd;fill:rgb(100%,49.803922%,45.098039%);fill-opacity:1;" d="M 324.917969 143.292969 C 324.917969 142.8125 324.199219 142.8125 324.199219 143.292969 C 324.199219 143.773438 324.917969 143.773438 324.917969 143.292969 "/>
<path style=" stroke:none;fill-rule:evenodd;fill:rgb(100%,49.803922%,45.098039%);fill-opacity:1;" d="M 328.160156 137.171875 C 328.160156 136.695312 327.441406 136.695312 327.441406 137.171875 C 327.441406 137.652344 328.160156 137.652344 328.160156 137.171875 "/>
<path style=" stroke:none;fill-rule:evenodd;fill:rgb(100%,49.803922%,45.098039%);fill-opacity:1;" d="M 330.320312 137.171875 C 330.320312 136.695312 329.601562 136.695312 329.601562 137.171875 C 329.601562 137.652344 330.320312 137.652344 330.320312 137.171875 "/>
<path style=" stroke:none;fill-rule:evenodd;fill:rgb(100%,49.803922%,45.098039%);fill-opacity:1;" d="M 334.28125 132.132812 C 334.28125 131.652344 333.558594 131.652344 333.558594 132.132812 C 333.558594 132.613281 334.28125 132.613281 334.28125 132.132812 "/>
<path style=" stroke:none;fill-rule:evenodd;fill:rgb(100%,49.803922%,45.098039%);fill-opacity:1;" d="M 334.28125 134.292969 C 334.28125 133.8125 333.558594 133.8125 333.558594 134.292969 C 333.558594 134.773438 334.28125 134.773438 334.28125 134.292969 "/>
<path style=" stroke:none;fill-rule:evenodd;fill:rgb(100%,49.803922%,45.098039%);fill-opacity:1;" d="M 336.078125 141.855469 C 336.078125 141.375 335.359375 141.375 335.359375 141.855469 C 335.359375 142.332031 336.078125 142.332031 336.078125 141.855469 "/>
<path style=" stroke:none;fill-rule:evenodd;fill:rgb(100%,49.803922%,45.098039%);fill-opacity:1;" d="M 338.238281 141.855469 C 338.238281 141.375 337.519531 141.375 337.519531 141.855469 C 337.519531 142.332031 338.238281 142.332031 338.238281 141.855469 "/>
<path style=" stroke:none;fill-rule:evenodd;fill:rgb(100%,49.803922%,45.098039%);fill-opacity:1;" d="M 339.679688 144.375 C 339.679688 143.894531 338.960938 143.894531 338.960938 144.375 C 338.960938 144.855469 339.679688 144.855469 339.679688 144.375 "/>
<path style=" stroke:none;fill-rule:evenodd;fill:rgb(100%,49.803922%,45.098039%);fill-opacity:1;" d="M 341.839844 144.375 C 341.839844 143.894531 341.121094 143.894531 341.121094 144.375 C 341.121094 144.855469 341.839844 144.855469 341.839844 144.375 "/>
<path style=" stroke:none;fill-rule:evenodd;fill:rgb(100%,49.803922%,45.098039%);fill-opacity:1;" d="M 350.121094 144.734375 C 350.121094 144.253906 349.398438 144.253906 349.398438 144.734375 C 349.398438 145.214844 350.121094 145.214844 350.121094 144.734375 "/>
<path style=" stroke:none;fill-rule:evenodd;fill:rgb(100%,49.803922%,45.098039%);fill-opacity:1;" d="M 350.839844 131.414062 C 350.839844 130.933594 350.121094 130.933594 350.121094 131.414062 C 350.121094 131.894531 350.839844 131.894531 350.839844 131.414062 "/>
<path style=" stroke:none;fill-rule:evenodd;fill:rgb(100%,49.803922%,45.098039%);fill-opacity:1;" d="M 352.28125 144.734375 C 352.28125 144.253906 351.558594 144.253906 351.558594 144.734375 C 351.558594 145.214844 352.28125 145.214844 352.28125 144.734375 "/>
<path style=" stroke:none;fill-rule:evenodd;fill:rgb(100%,49.803922%,45.098039%);fill-opacity:1;" d="M 353 131.414062 C 353 130.933594 352.28125 130.933594 352.28125 131.414062 C 352.28125 131.894531 353 131.894531 353 131.414062 "/>
<path style=" stroke:none;fill-rule:evenodd;fill:rgb(100%,49.803922%,45.098039%);fill-opacity:1;" d="M 316.027344 178.933594 C 316.027344 178.308594 315.09375 178.308594 315.09375 178.933594 C 315.09375 179.558594 316.027344 179.558594 316.027344 178.933594 "/>
<path style=" stroke:none;fill-rule:evenodd;fill:rgb(100%,49.803922%,45.098039%);fill-opacity:1;" d="M 316.027344 181.453125 C 316.027344 180.828125 315.09375 180.828125 315.09375 181.453125 C 315.09375 182.078125 316.027344 182.078125 316.027344 181.453125 "/>
<path style=" stroke:none;fill-rule:evenodd;fill:rgb(100%,49.803922%,45.098039%);fill-opacity:1;" d="M 316.027344 183.972656 C 316.027344 183.351562 315.09375 183.351562 315.09375 183.972656 C 315.09375 184.597656 316.027344 184.597656 316.027344 183.972656 "/>
<path style=" stroke:none;fill-rule:evenodd;fill:rgb(100%,49.803922%,45.098039%);fill-opacity:1;" d="M 316.027344 186.492188 C 316.027344 185.871094 315.09375 185.871094 315.09375 186.492188 C 315.09375 187.117188 316.027344 187.117188 316.027344 186.492188 "/>
<path style=" stroke:none;fill-rule:evenodd;fill:rgb(100%,49.803922%,45.098039%);fill-opacity:1;" d="M 319.269531 178.933594 C 319.269531 178.308594 318.332031 178.308594 318.332031 178.933594 C 318.332031 179.558594 319.269531 179.558594 319.269531 178.933594 "/>
<path style=" stroke:none;fill-rule:evenodd;fill:rgb(100%,49.803922%,45.098039%);fill-opacity:1;" d="M 319.269531 181.453125 C 319.269531 180.828125 318.332031 180.828125 318.332031 181.453125 C 318.332031 182.078125 319.269531 182.078125 319.269531 181.453125 "/>
<path style=" stroke:none;fill-rule:evenodd;fill:rgb(100%,49.803922%,45.098039%);fill-opacity:1;" d="M 319.269531 183.972656 C 319.269531 183.351562 318.332031 183.351562 318.332031 183.972656 C 318.332031 184.597656 319.269531 184.597656 319.269531 183.972656 "/>
<path style=" stroke:none;fill-rule:evenodd;fill:rgb(100%,49.803922%,45.098039%);fill-opacity:1;" d="M 319.269531 186.492188 C 319.269531 185.871094 318.332031 185.871094 318.332031 186.492188 C 318.332031 187.117188 319.269531 187.117188 319.269531 186.492188 "/>
<path style=" stroke:none;fill-rule:evenodd;fill:rgb(100%,49.803922%,45.098039%);fill-opacity:1;" d="M 75.078125 78.492188 C 75.078125 77.054688 72.917969 77.054688 72.917969 78.492188 C 72.917969 79.933594 75.078125 79.933594 75.078125 78.492188 "/>
<path style=" stroke:none;fill-rule:evenodd;fill:rgb(100%,49.803922%,45.098039%);fill-opacity:1;" d="M 82.28125 78.492188 C 82.28125 77.054688 80.121094 77.054688 80.121094 78.492188 C 80.121094 79.933594 82.28125 79.933594 82.28125 78.492188 "/>
<path style=" stroke:none;fill-rule:evenodd;fill:rgb(100%,49.803922%,45.098039%);fill-opacity:1;" d="M 103.878906 78.492188 C 103.878906 77.054688 101.71875 77.054688 101.71875 78.492188 C 101.71875 79.933594 103.878906 79.933594 103.878906 78.492188 "/>
<path style=" stroke:none;fill-rule:evenodd;fill:rgb(100%,49.803922%,45.098039%);fill-opacity:1;" d="M 111.078125 78.492188 C 111.078125 77.054688 108.917969 77.054688 108.917969 78.492188 C 108.917969 79.933594 111.078125 79.933594 111.078125 78.492188 "/>
<path style=" stroke:none;fill-rule:evenodd;fill:rgb(100%,49.803922%,45.098039%);fill-opacity:1;" d="M 75.367188 20.894531 C 75.367188 19.070312 72.632812 19.070312 72.632812 20.894531 C 72.632812 22.71875 75.367188 22.71875 75.367188 20.894531 "/>
<path style=" stroke:none;fill-rule:evenodd;fill:rgb(100%,49.803922%,45.098039%);fill-opacity:1;" d="M 75.367188 28.09375 C 75.367188 26.269531 72.632812 26.269531 72.632812 28.09375 C 72.632812 29.917969 75.367188 29.917969 75.367188 28.09375 "/>
<path style=" stroke:none;fill-rule:evenodd;fill:rgb(100%,49.803922%,45.098039%);fill-opacity:1;" d="M 75.367188 35.292969 C 75.367188 33.46875 72.632812 33.46875 72.632812 35.292969 C 72.632812 37.117188 75.367188 37.117188 75.367188 35.292969 "/>
<path style=" stroke:none;fill-rule:evenodd;fill:rgb(100%,49.803922%,45.098039%);fill-opacity:1;" d="M 75.367188 42.492188 C 75.367188 40.667969 72.632812 40.667969 72.632812 42.492188 C 72.632812 44.316406 75.367188 44.316406 75.367188 42.492188 "/>
<path style=" stroke:none;fill-rule:evenodd;fill:rgb(100%,49.803922%,45.098039%);fill-opacity:1;" d="M 75.367188 49.695312 C 75.367188 47.871094 72.632812 47.871094 72.632812 49.695312 C 72.632812 51.519531 75.367188 51.519531 75.367188 49.695312 "/>
<path style=" stroke:none;fill-rule:evenodd;fill:rgb(100%,49.803922%,45.098039%);fill-opacity:1;" d="M 75.367188 128.894531 C 75.367188 127.070312 72.632812 127.070312 72.632812 128.894531 C 72.632812 130.71875 75.367188 130.71875 75.367188 128.894531 "/>
<path style=" stroke:none;fill-rule:evenodd;fill:rgb(100%,49.803922%,45.098039%);fill-opacity:1;" d="M 75.367188 136.09375 C 75.367188 134.269531 72.632812 134.269531 72.632812 136.09375 C 72.632812 137.917969 75.367188 137.917969 75.367188 136.09375 "/>
<path style=" stroke:none;fill-rule:evenodd;fill:rgb(100%,49.803922%,45.098039%);fill-opacity:1;" d="M 75.367188 215.292969 C 75.367188 213.46875 72.632812 213.46875 72.632812 215.292969 C 72.632812 217.117188 75.367188 217.117188 75.367188 215.292969 "/>
<path style=" stroke:none;fill-rule:evenodd;fill:rgb(100%,49.803922%,45.098039%);fill-opacity:1;" d="M 75.367188 222.492188 C 75.367188 220.667969 72.632812 220.667969 72.632812 222.492188 C 72.632812 224.316406 75.367188 224.316406 75.367188 222.492188 "/>
<path style=" stroke:none;fill-rule:evenodd;fill:rgb(100%,49.803922%,45.098039%);fill-opacity:1;" d="M 82.566406 20.894531 C 82.566406 19.070312 79.832031 19.070312 79.832031 20.894531 C 79.832031 22.71875 82.566406 22.71875 82.566406 20.894531 "/>
<path style=" stroke:none;fill-rule:evenodd;fill:rgb(100%,49.803922%,45.098039%);fill-opacity:1;" d="M 82.566406 42.492188 C 82.566406 40.667969 79.832031 40.667969 79.832031 42.492188 C 79.832031 44.316406 82.566406 44.316406 82.566406 42.492188 "/>
<path style=" stroke:none;fill-rule:evenodd;fill:rgb(100%,49.803922%,45.098039%);fill-opacity:1;" d="M 82.566406 49.695312 C 82.566406 47.871094 79.832031 47.871094 79.832031 49.695312 C 79.832031 51.519531 82.566406 51.519531 82.566406 49.695312 "/>
<path style=" stroke:none;fill-rule:evenodd;fill:rgb(100%,49.803922%,45.098039%);fill-opacity:1;" d="M 82.566406 128.894531 C 82.566406 127.070312 79.832031 127.070312 79.832031 128.894531 C 79.832031 130.71875 82.566406 130.71875 82.566406 128.894531 "/>
<path style=" stroke:none;fill-rule:evenodd;fill:rgb(100%,49.803922%,45.098039%);fill-opacity:1;" d="M 82.566406 136.09375 C 82.566406 134.269531 79.832031 134.269531 79.832031 136.09375 C 79.832031 137.917969 82.566406 137.917969 82.566406 136.09375 "/>
<path style=" stroke:none;fill-rule:evenodd;fill:rgb(100%,49.803922%,45.098039%);fill-opacity:1;" d="M 82.566406 200.894531 C 82.566406 199.070312 79.832031 199.070312 79.832031 200.894531 C 79.832031 202.71875 82.566406 202.71875 82.566406 200.894531 "/>
<path style=" stroke:none;fill-rule:evenodd;fill:rgb(100%,49.803922%,45.098039%);fill-opacity:1;" d="M 82.566406 215.292969 C 82.566406 213.46875 79.832031 213.46875 79.832031 215.292969 C 79.832031 217.117188 82.566406 217.117188 82.566406 215.292969 "/>
<path style=" stroke:none;fill-rule:evenodd;fill:rgb(100%,49.803922%,45.098039%);fill-opacity:1;" d="M 82.566406 222.492188 C 82.566406 220.667969 79.832031 220.667969 79.832031 222.492188 C 79.832031 224.316406 82.566406 224.316406 82.566406 222.492188 "/>
<path style=" stroke:none;fill-rule:evenodd;fill:rgb(100%,49.803922%,45.098039%);fill-opacity:1;" d="M 125.046875 64.09375 C 125.046875 62.269531 122.3125 62.269531 122.3125 64.09375 C 122.3125 65.917969 125.046875 65.917969 125.046875 64.09375 "/>
<path style=" stroke:none;fill-rule:evenodd;fill:rgb(100%,49.803922%,45.098039%);fill-opacity:1;" d="M 125.046875 71.292969 C 125.046875 69.46875 122.3125 69.46875 122.3125 71.292969 C 122.3125 73.117188 125.046875 73.117188 125.046875 71.292969 "/>
<path style=" stroke:none;fill-rule:evenodd;fill:rgb(100%,49.803922%,45.098039%);fill-opacity:1;" d="M 125.046875 78.492188 C 125.046875 76.667969 122.3125 76.667969 122.3125 78.492188 C 122.3125 80.316406 125.046875 80.316406 125.046875 78.492188 "/>
<path style=" stroke:none;fill-rule:evenodd;fill:rgb(100%,49.803922%,45.098039%);fill-opacity:1;" d="M 125.046875 92.894531 C 125.046875 91.070312 122.3125 91.070312 122.3125 92.894531 C 122.3125 94.71875 125.046875 94.71875 125.046875 92.894531 "/>
<path style=" stroke:none;fill-rule:evenodd;fill:rgb(100%,49.803922%,45.098039%);fill-opacity:1;" d="M 125.046875 150.492188 C 125.046875 148.667969 122.3125 148.667969 122.3125 150.492188 C 122.3125 152.316406 125.046875 152.316406 125.046875 150.492188 "/>
<path style=" stroke:none;fill-rule:evenodd;fill:rgb(100%,49.803922%,45.098039%);fill-opacity:1;" d="M 125.046875 157.695312 C 125.046875 155.871094 122.3125 155.871094 122.3125 157.695312 C 122.3125 159.519531 125.046875 159.519531 125.046875 157.695312 "/>
<path style=" stroke:none;fill-rule:evenodd;fill:rgb(100%,49.803922%,45.098039%);fill-opacity:1;" d="M 125.046875 164.894531 C 125.046875 163.070312 122.3125 163.070312 122.3125 164.894531 C 122.3125 166.71875 125.046875 166.71875 125.046875 164.894531 "/>
<path style=" stroke:none;fill-rule:evenodd;fill:rgb(100%,49.803922%,45.098039%);fill-opacity:1;" d="M 125.046875 172.09375 C 125.046875 170.269531 122.3125 170.269531 122.3125 172.09375 C 122.3125 173.917969 125.046875 173.917969 125.046875 172.09375 "/>
<path style=" stroke:none;fill-rule:evenodd;fill:rgb(100%,49.803922%,45.098039%);fill-opacity:1;" d="M 125.046875 236.894531 C 125.046875 235.070312 122.3125 235.070312 122.3125 236.894531 C 122.3125 238.71875 125.046875 238.71875 125.046875 236.894531 "/>
<path style=" stroke:none;fill-rule:evenodd;fill:rgb(100%,49.803922%,45.098039%);fill-opacity:1;" d="M 125.046875 244.09375 C 125.046875 242.269531 122.3125 242.269531 122.3125 244.09375 C 122.3125 245.917969 125.046875 245.917969 125.046875 244.09375 "/>
<path style=" stroke:none;fill-rule:evenodd;fill:rgb(100%,49.803922%,45.098039%);fill-opacity:1;" d="M 125.046875 251.292969 C 125.046875 249.46875 122.3125 249.46875 122.3125 251.292969 C 122.3125 253.117188 125.046875 253.117188 125.046875 251.292969 "/>
<path style=" stroke:none;fill-rule:evenodd;fill:rgb(100%,49.803922%,45.098039%);fill-opacity:1;" d="M 132.246094 64.09375 C 132.246094 62.269531 129.511719 62.269531 129.511719 64.09375 C 129.511719 65.917969 132.246094 65.917969 132.246094 64.09375 "/>
<path style=" stroke:none;fill-rule:evenodd;fill:rgb(100%,49.803922%,45.098039%);fill-opacity:1;" d="M 132.246094 71.292969 C 132.246094 69.46875 129.511719 69.46875 129.511719 71.292969 C 129.511719 73.117188 132.246094 73.117188 132.246094 71.292969 "/>
<path style=" stroke:none;fill-rule:evenodd;fill:rgb(100%,49.803922%,45.098039%);fill-opacity:1;" d="M 132.246094 78.492188 C 132.246094 76.667969 129.511719 76.667969 129.511719 78.492188 C 129.511719 80.316406 132.246094 80.316406 132.246094 78.492188 "/>
<path style=" stroke:none;fill-rule:evenodd;fill:rgb(100%,49.803922%,45.098039%);fill-opacity:1;" d="M 132.246094 85.695312 C 132.246094 83.871094 129.511719 83.871094 129.511719 85.695312 C 129.511719 87.519531 132.246094 87.519531 132.246094 85.695312 "/>
<path style=" stroke:none;fill-rule:evenodd;fill:rgb(100%,49.803922%,45.098039%);fill-opacity:1;" d="M 132.246094 92.894531 C 132.246094 91.070312 129.511719 91.070312 129.511719 92.894531 C 129.511719 94.71875 132.246094 94.71875 132.246094 92.894531 "/>
<path style=" stroke:none;fill-rule:evenodd;fill:rgb(100%,49.803922%,45.098039%);fill-opacity:1;" d="M 132.246094 100.09375 C 132.246094 98.269531 129.511719 98.269531 129.511719 100.09375 C 129.511719 101.917969 132.246094 101.917969 132.246094 100.09375 "/>
<path style=" stroke:none;fill-rule:evenodd;fill:rgb(100%,49.803922%,45.098039%);fill-opacity:1;" d="M 132.246094 150.492188 C 132.246094 148.667969 129.511719 148.667969 129.511719 150.492188 C 129.511719 152.316406 132.246094 152.316406 132.246094 150.492188 "/>
<path style=" stroke:none;fill-rule:evenodd;fill:rgb(100%,49.803922%,45.098039%);fill-opacity:1;" d="M 132.246094 157.695312 C 132.246094 155.871094 129.511719 155.871094 129.511719 157.695312 C 129.511719 159.519531 132.246094 159.519531 132.246094 157.695312 "/>
<path style=" stroke:none;fill-rule:evenodd;fill:rgb(100%,49.803922%,45.098039%);fill-opacity:1;" d="M 132.246094 164.894531 C 132.246094 163.070312 129.511719 163.070312 129.511719 164.894531 C 129.511719 166.71875 132.246094 166.71875 132.246094 164.894531 "/>
<path style=" stroke:none;fill-rule:evenodd;fill:rgb(100%,49.803922%,45.098039%);fill-opacity:1;" d="M 132.246094 172.09375 C 132.246094 170.269531 129.511719 170.269531 129.511719 172.09375 C 129.511719 173.917969 132.246094 173.917969 132.246094 172.09375 "/>
<path style=" stroke:none;fill-rule:evenodd;fill:rgb(100%,49.803922%,45.098039%);fill-opacity:1;" d="M 132.246094 179.292969 C 132.246094 177.46875 129.511719 177.46875 129.511719 179.292969 C 129.511719 181.117188 132.246094 181.117188 132.246094 179.292969 "/>
<path style=" stroke:none;fill-rule:evenodd;fill:rgb(100%,49.803922%,45.098039%);fill-opacity:1;" d="M 132.246094 186.492188 C 132.246094 184.667969 129.511719 184.667969 129.511719 186.492188 C 129.511719 188.316406 132.246094 188.316406 132.246094 186.492188 "/>
<path style=" stroke:none;fill-rule:evenodd;fill:rgb(100%,49.803922%,45.098039%);fill-opacity:1;" d="M 132.246094 236.894531 C 132.246094 235.070312 129.511719 235.070312 129.511719 236.894531 C 129.511719 238.71875 132.246094 238.71875 132.246094 236.894531 "/>
<path style=" stroke:none;fill-rule:evenodd;fill:rgb(100%,49.803922%,45.098039%);fill-opacity:1;" d="M 132.246094 244.09375 C 132.246094 242.269531 129.511719 242.269531 129.511719 244.09375 C 129.511719 245.917969 132.246094 245.917969 132.246094 244.09375 "/>
<path style=" stroke:none;fill-rule:evenodd;fill:rgb(100%,49.803922%,45.098039%);fill-opacity:1;" d="M 132.246094 251.292969 C 132.246094 249.46875 129.511719 249.46875 129.511719 251.292969 C 129.511719 253.117188 132.246094 253.117188 132.246094 251.292969 "/>
<path style=" stroke:none;fill-rule:evenodd;fill:rgb(100%,49.803922%,45.098039%);fill-opacity:1;" d="M 132.246094 258.492188 C 132.246094 256.667969 129.511719 256.667969 129.511719 258.492188 C 129.511719 260.316406 132.246094 260.316406 132.246094 258.492188 "/>
<path style=" stroke:none;fill-rule:evenodd;fill:rgb(100%,49.803922%,45.098039%);fill-opacity:1;" d="M 132.246094 265.695312 C 132.246094 263.871094 129.511719 263.871094 129.511719 265.695312 C 129.511719 267.519531 132.246094 267.519531 132.246094 265.695312 "/>
<path style=" stroke:none;fill-rule:evenodd;fill:rgb(100%,49.803922%,45.098039%);fill-opacity:1;" d="M 132.246094 272.894531 C 132.246094 271.070312 129.511719 271.070312 129.511719 272.894531 C 129.511719 274.71875 132.246094 274.71875 132.246094 272.894531 "/>
<path style=" stroke:none;fill-rule:evenodd;fill:rgb(100%,49.803922%,45.098039%);fill-opacity:1;" d="M 146.289062 67.695312 C 146.289062 65.871094 143.550781 65.871094 143.550781 67.695312 C 143.550781 69.519531 146.289062 69.519531 146.289062 67.695312 "/>
<path style=" stroke:none;fill-rule:evenodd;fill:rgb(100%,49.803922%,45.098039%);fill-opacity:1;" d="M 146.289062 82.09375 C 146.289062 80.269531 143.550781 80.269531 143.550781 82.09375 C 143.550781 83.917969 146.289062 83.917969 146.289062 82.09375 "/>
<path style=" stroke:none;fill-rule:evenodd;fill:rgb(100%,49.803922%,45.098039%);fill-opacity:1;" d="M 146.289062 240.492188 C 146.289062 238.667969 143.550781 238.667969 143.550781 240.492188 C 143.550781 242.316406 146.289062 242.316406 146.289062 240.492188 "/>
<path style=" stroke:none;fill-rule:evenodd;fill:rgb(100%,49.803922%,45.098039%);fill-opacity:1;" d="M 146.289062 254.894531 C 146.289062 253.070312 143.550781 253.070312 143.550781 254.894531 C 143.550781 256.71875 146.289062 256.71875 146.289062 254.894531 "/>
<path style=" stroke:none;fill-rule:evenodd;fill:rgb(100%,49.803922%,45.098039%);fill-opacity:1;" d="M 203.167969 28.09375 C 203.167969 26.269531 200.433594 26.269531 200.433594 28.09375 C 200.433594 29.917969 203.167969 29.917969 203.167969 28.09375 "/>
<path style=" stroke:none;fill-rule:evenodd;fill:rgb(100%,49.803922%,45.098039%);fill-opacity:1;" d="M 203.167969 42.492188 C 203.167969 40.667969 200.433594 40.667969 200.433594 42.492188 C 200.433594 44.316406 203.167969 44.316406 203.167969 42.492188 "/>
<path style=" stroke:none;fill-rule:evenodd;fill:rgb(100%,49.803922%,45.098039%);fill-opacity:1;" d="M 203.167969 49.695312 C 203.167969 47.871094 200.433594 47.871094 200.433594 49.695312 C 200.433594 51.519531 203.167969 51.519531 203.167969 49.695312 "/>
<path style=" stroke:none;fill-rule:evenodd;fill:rgb(100%,49.803922%,45.098039%);fill-opacity:1;" d="M 203.167969 128.894531 C 203.167969 127.070312 200.433594 127.070312 200.433594 128.894531 C 200.433594 130.71875 203.167969 130.71875 203.167969 128.894531 "/>
<path style=" stroke:none;fill-rule:evenodd;fill:rgb(100%,49.803922%,45.098039%);fill-opacity:1;" d="M 203.167969 136.09375 C 203.167969 134.269531 200.433594 134.269531 200.433594 136.09375 C 200.433594 137.917969 203.167969 137.917969 203.167969 136.09375 "/>
<path style=" stroke:none;fill-rule:evenodd;fill:rgb(100%,49.803922%,45.098039%);fill-opacity:1;" d="M 203.167969 200.894531 C 203.167969 199.070312 200.433594 199.070312 200.433594 200.894531 C 200.433594 202.71875 203.167969 202.71875 203.167969 200.894531 "/>
<path style=" stroke:none;fill-rule:evenodd;fill:rgb(100%,49.803922%,45.098039%);fill-opacity:1;" d="M 203.167969 215.292969 C 203.167969 213.46875 200.433594 213.46875 200.433594 215.292969 C 200.433594 217.117188 203.167969 217.117188 203.167969 215.292969 "/>
<path style=" stroke:none;fill-rule:evenodd;fill:rgb(100%,49.803922%,45.098039%);fill-opacity:1;" d="M 203.167969 222.492188 C 203.167969 220.667969 200.433594 220.667969 200.433594 222.492188 C 200.433594 224.316406 203.167969 224.316406 203.167969 222.492188 "/>
<path style=" stroke:none;fill-rule:evenodd;fill:rgb(100%,49.803922%,45.098039%);fill-opacity:1;" d="M 210.367188 28.09375 C 210.367188 26.269531 207.632812 26.269531 207.632812 28.09375 C 207.632812 29.917969 210.367188 29.917969 210.367188 28.09375 "/>
<path style=" stroke:none;fill-rule:evenodd;fill:rgb(100%,49.803922%,45.098039%);fill-opacity:1;" d="M 210.367188 42.492188 C 210.367188 40.667969 207.632812 40.667969 207.632812 42.492188 C 207.632812 44.316406 210.367188 44.316406 210.367188 42.492188 "/>
<path style=" stroke:none;fill-rule:evenodd;fill:rgb(100%,49.803922%,45.098039%);fill-opacity:1;" d="M 210.367188 49.695312 C 210.367188 47.871094 207.632812 47.871094 207.632812 49.695312 C 207.632812 51.519531 210.367188 51.519531 210.367188 49.695312 "/>
<path style=" stroke:none;fill-rule:evenodd;fill:rgb(100%,49.803922%,45.098039%);fill-opacity:1;" d="M 210.367188 128.894531 C 210.367188 127.070312 207.632812 127.070312 207.632812 128.894531 C 207.632812 130.71875 210.367188 130.71875 210.367188 128.894531 "/>
<path style=" stroke:none;fill-rule:evenodd;fill:rgb(100%,49.803922%,45.098039%);fill-opacity:1;" d="M 210.367188 136.09375 C 210.367188 134.269531 207.632812 134.269531 207.632812 136.09375 C 207.632812 137.917969 210.367188 137.917969 210.367188 136.09375 "/>
<path style=" stroke:none;fill-rule:evenodd;fill:rgb(100%,49.803922%,45.098039%);fill-opacity:1;" d="M 210.367188 215.292969 C 210.367188 213.46875 207.632812 213.46875 207.632812 215.292969 C 207.632812 217.117188 210.367188 217.117188 210.367188 215.292969 "/>
<path style=" stroke:none;fill-rule:evenodd;fill:rgb(100%,49.803922%,45.098039%);fill-opacity:1;" d="M 210.367188 222.492188 C 210.367188 220.667969 207.632812 220.667969 207.632812 222.492188 C 207.632812 224.316406 210.367188 224.316406 210.367188 222.492188 "/>
<path style=" stroke:none;fill-rule:evenodd;fill:rgb(100%,49.803922%,45.098039%);fill-opacity:1;" d="M 224.769531 42.492188 C 224.769531 40.667969 222.03125 40.667969 222.03125 42.492188 C 222.03125 44.316406 224.769531 44.316406 224.769531 42.492188 "/>
<path style=" stroke:none;fill-rule:evenodd;fill:rgb(100%,49.803922%,45.098039%);fill-opacity:1;" d="M 224.769531 96.492188 C 224.769531 94.667969 222.03125 94.667969 222.03125 96.492188 C 222.03125 98.316406 224.769531 98.316406 224.769531 96.492188 "/>
<path style=" stroke:none;fill-rule:evenodd;fill:rgb(100%,49.803922%,45.098039%);fill-opacity:1;" d="M 224.769531 128.894531 C 224.769531 127.070312 222.03125 127.070312 222.03125 128.894531 C 222.03125 130.71875 224.769531 130.71875 224.769531 128.894531 "/>
<path style=" stroke:none;fill-rule:evenodd;fill:rgb(100%,49.803922%,45.098039%);fill-opacity:1;" d="M 224.769531 182.894531 C 224.769531 181.070312 222.03125 181.070312 222.03125 182.894531 C 222.03125 184.71875 224.769531 184.71875 224.769531 182.894531 "/>
<path style=" stroke:none;fill-rule:evenodd;fill:rgb(100%,49.803922%,45.098039%);fill-opacity:1;" d="M 224.769531 215.292969 C 224.769531 213.46875 222.03125 213.46875 222.03125 215.292969 C 222.03125 217.117188 224.769531 217.117188 224.769531 215.292969 "/>
<path style=" stroke:none;fill-rule:evenodd;fill:rgb(100%,49.803922%,45.098039%);fill-opacity:1;" d="M 224.769531 269.292969 C 224.769531 267.46875 222.03125 267.46875 222.03125 269.292969 C 222.03125 271.117188 224.769531 271.117188 224.769531 269.292969 "/>
<path style=" stroke:none;fill-rule:evenodd;fill:rgb(100%,49.803922%,45.098039%);fill-opacity:1;" d="M 231.96875 42.492188 C 231.96875 40.667969 229.230469 40.667969 229.230469 42.492188 C 229.230469 44.316406 231.96875 44.316406 231.96875 42.492188 "/>
<path style=" stroke:none;fill-rule:evenodd;fill:rgb(100%,49.803922%,45.098039%);fill-opacity:1;" d="M 231.96875 96.492188 C 231.96875 94.667969 229.230469 94.667969 229.230469 96.492188 C 229.230469 98.316406 231.96875 98.316406 231.96875 96.492188 "/>
<path style=" stroke:none;fill-rule:evenodd;fill:rgb(100%,49.803922%,45.098039%);fill-opacity:1;" d="M 231.96875 128.894531 C 231.96875 127.070312 229.230469 127.070312 229.230469 128.894531 C 229.230469 130.71875 231.96875 130.71875 231.96875 128.894531 "/>
<path style=" stroke:none;fill-rule:evenodd;fill:rgb(100%,49.803922%,45.098039%);fill-opacity:1;" d="M 231.96875 182.894531 C 231.96875 181.070312 229.230469 181.070312 229.230469 182.894531 C 229.230469 184.71875 231.96875 184.71875 231.96875 182.894531 "/>
<path style=" stroke:none;fill-rule:evenodd;fill:rgb(100%,49.803922%,45.098039%);fill-opacity:1;" d="M 231.96875 215.292969 C 231.96875 213.46875 229.230469 213.46875 229.230469 215.292969 C 229.230469 217.117188 231.96875 217.117188 231.96875 215.292969 "/>
<path style=" stroke:none;fill-rule:evenodd;fill:rgb(100%,49.803922%,45.098039%);fill-opacity:1;" d="M 231.96875 269.292969 C 231.96875 267.46875 229.230469 267.46875 229.230469 269.292969 C 229.230469 271.117188 231.96875 271.117188 231.96875 269.292969 "/>
<path style=" stroke:none;fill-rule:evenodd;fill:rgb(100%,49.803922%,45.098039%);fill-opacity:1;" d="M 239.167969 42.492188 C 239.167969 40.667969 236.433594 40.667969 236.433594 42.492188 C 236.433594 44.316406 239.167969 44.316406 239.167969 42.492188 "/>
<path style=" stroke:none;fill-rule:evenodd;fill:rgb(100%,49.803922%,45.098039%);fill-opacity:1;" d="M 239.167969 96.492188 C 239.167969 94.667969 236.433594 94.667969 236.433594 96.492188 C 236.433594 98.316406 239.167969 98.316406 239.167969 96.492188 "/>
<path style=" stroke:none;fill-rule:evenodd;fill:rgb(100%,49.803922%,45.098039%);fill-opacity:1;" d="M 239.167969 128.894531 C 239.167969 127.070312 236.433594 127.070312 236.433594 128.894531 C 236.433594 130.71875 239.167969 130.71875 239.167969 128.894531 "/>
<path style=" stroke:none;fill-rule:evenodd;fill:rgb(100%,49.803922%,45.098039%);fill-opacity:1;" d="M 239.167969 182.894531 C 239.167969 181.070312 236.433594 181.070312 236.433594 182.894531 C 236.433594 184.71875 239.167969 184.71875 239.167969 182.894531 "/>
<path style=" stroke:none;fill-rule:evenodd;fill:rgb(100%,49.803922%,45.098039%);fill-opacity:1;" d="M 239.167969 215.292969 C 239.167969 213.46875 236.433594 213.46875 236.433594 215.292969 C 236.433594 217.117188 239.167969 217.117188 239.167969 215.292969 "/>
<path style=" stroke:none;fill-rule:evenodd;fill:rgb(100%,49.803922%,45.098039%);fill-opacity:1;" d="M 239.167969 269.292969 C 239.167969 267.46875 236.433594 267.46875 236.433594 269.292969 C 236.433594 271.117188 239.167969 271.117188 239.167969 269.292969 "/>
<path style=" stroke:none;fill-rule:evenodd;fill:rgb(100%,49.803922%,45.098039%);fill-opacity:1;" d="M 246.367188 42.492188 C 246.367188 40.667969 243.632812 40.667969 243.632812 42.492188 C 243.632812 44.316406 246.367188 44.316406 246.367188 42.492188 "/>
<path style=" stroke:none;fill-rule:evenodd;fill:rgb(100%,49.803922%,45.098039%);fill-opacity:1;" d="M 246.367188 96.492188 C 246.367188 94.667969 243.632812 94.667969 243.632812 96.492188 C 243.632812 98.316406 246.367188 98.316406 246.367188 96.492188 "/>
<path style=" stroke:none;fill-rule:evenodd;fill:rgb(100%,49.803922%,45.098039%);fill-opacity:1;" d="M 246.367188 128.894531 C 246.367188 127.070312 243.632812 127.070312 243.632812 128.894531 C 243.632812 130.71875 246.367188 130.71875 246.367188 128.894531 "/>
<path style=" stroke:none;fill-rule:evenodd;fill:rgb(100%,49.803922%,45.098039%);fill-opacity:1;" d="M 246.367188 182.894531 C 246.367188 181.070312 243.632812 181.070312 243.632812 182.894531 C 243.632812 184.71875 246.367188 184.71875 246.367188 182.894531 "/>
<path style=" stroke:none;fill-rule:evenodd;fill:rgb(100%,49.803922%,45.098039%);fill-opacity:1;" d="M 246.367188 215.292969 C 246.367188 213.46875 243.632812 213.46875 243.632812 215.292969 C 243.632812 217.117188 246.367188 217.117188 246.367188 215.292969 "/>
<path style=" stroke:none;fill-rule:evenodd;fill:rgb(100%,49.803922%,45.098039%);fill-opacity:1;" d="M 246.367188 269.292969 C 246.367188 267.46875 243.632812 267.46875 243.632812 269.292969 C 243.632812 271.117188 246.367188 271.117188 246.367188 269.292969 "/>
<path style=" stroke:none;fill-rule:evenodd;fill:rgb(100%,49.803922%,45.098039%);fill-opacity:1;" d="M 253.566406 42.492188 C 253.566406 40.667969 250.832031 40.667969 250.832031 42.492188 C 250.832031 44.316406 253.566406 44.316406 253.566406 42.492188 "/>
<path style=" stroke:none;fill-rule:evenodd;fill:rgb(100%,49.803922%,45.098039%);fill-opacity:1;" d="M 253.566406 96.492188 C 253.566406 94.667969 250.832031 94.667969 250.832031 96.492188 C 250.832031 98.316406 253.566406 98.316406 253.566406 96.492188 "/>
<path style=" stroke:none;fill-rule:evenodd;fill:rgb(100%,49.803922%,45.098039%);fill-opacity:1;" d="M 253.566406 128.894531 C 253.566406 127.070312 250.832031 127.070312 250.832031 128.894531 C 250.832031 130.71875 253.566406 130.71875 253.566406 128.894531 "/>
<path style=" stroke:none;fill-rule:evenodd;fill:rgb(100%,49.803922%,45.098039%);fill-opacity:1;" d="M 253.566406 182.894531 C 253.566406 181.070312 250.832031 181.070312 250.832031 182.894531 C 250.832031 184.71875 253.566406 184.71875 253.566406 182.894531 "/>
<path style=" stroke:none;fill-rule:evenodd;fill:rgb(100%,49.803922%,45.098039%);fill-opacity:1;" d="M 253.566406 215.292969 C 253.566406 213.46875 250.832031 213.46875 250.832031 215.292969 C 250.832031 217.117188 253.566406 217.117188 253.566406 215.292969 "/>
<path style=" stroke:none;fill-rule:evenodd;fill:rgb(100%,49.803922%,45.098039%);fill-opacity:1;" d="M 253.566406 269.292969 C 253.566406 267.46875 250.832031 267.46875 250.832031 269.292969 C 250.832031 271.117188 253.566406 271.117188 253.566406 269.292969 "/>
<path style=" stroke:none;fill-rule:evenodd;fill:rgb(100%,49.803922%,45.098039%);fill-opacity:1;" d="M 260.769531 42.492188 C 260.769531 40.667969 258.03125 40.667969 258.03125 42.492188 C 258.03125 44.316406 260.769531 44.316406 260.769531 42.492188 "/>
<path style=" stroke:none;fill-rule:evenodd;fill:rgb(100%,49.803922%,45.098039%);fill-opacity:1;" d="M 260.769531 96.492188 C 260.769531 94.667969 258.03125 94.667969 258.03125 96.492188 C 258.03125 98.316406 260.769531 98.316406 260.769531 96.492188 "/>
<path style=" stroke:none;fill-rule:evenodd;fill:rgb(100%,49.803922%,45.098039%);fill-opacity:1;" d="M 260.769531 128.894531 C 260.769531 127.070312 258.03125 127.070312 258.03125 128.894531 C 258.03125 130.71875 260.769531 130.71875 260.769531 128.894531 "/>
<path style=" stroke:none;fill-rule:evenodd;fill:rgb(100%,49.803922%,45.098039%);fill-opacity:1;" d="M 260.769531 182.894531 C 260.769531 181.070312 258.03125 181.070312 258.03125 182.894531 C 258.03125 184.71875 260.769531 184.71875 260.769531 182.894531 "/>
<path style=" stroke:none;fill-rule:evenodd;fill:rgb(100%,49.803922%,45.098039%);fill-opacity:1;" d="M 260.769531 215.292969 C 260.769531 213.46875 258.03125 213.46875 258.03125 215.292969 C 258.03125 217.117188 260.769531 217.117188 260.769531 215.292969 "/>
<path style=" stroke:none;fill-rule:evenodd;fill:rgb(100%,49.803922%,45.098039%);fill-opacity:1;" d="M 260.769531 269.292969 C 260.769531 267.46875 258.03125 267.46875 258.03125 269.292969 C 258.03125 271.117188 260.769531 271.117188 260.769531 269.292969 "/>
<path style=" stroke:none;fill-rule:evenodd;fill:rgb(100%,49.803922%,45.098039%);fill-opacity:1;" d="M 267.96875 42.492188 C 267.96875 40.667969 265.230469 40.667969 265.230469 42.492188 C 265.230469 44.316406 267.96875 44.316406 267.96875 42.492188 "/>
<path style=" stroke:none;fill-rule:evenodd;fill:rgb(100%,49.803922%,45.098039%);fill-opacity:1;" d="M 267.96875 96.492188 C 267.96875 94.667969 265.230469 94.667969 265.230469 96.492188 C 265.230469 98.316406 267.96875 98.316406 267.96875 96.492188 "/>
<path style=" stroke:none;fill-rule:evenodd;fill:rgb(100%,49.803922%,45.098039%);fill-opacity:1;" d="M 267.96875 128.894531 C 267.96875 127.070312 265.230469 127.070312 265.230469 128.894531 C 265.230469 130.71875 267.96875 130.71875 267.96875 128.894531 "/>
<path style=" stroke:none;fill-rule:evenodd;fill:rgb(100%,49.803922%,45.098039%);fill-opacity:1;" d="M 267.96875 182.894531 C 267.96875 181.070312 265.230469 181.070312 265.230469 182.894531 C 265.230469 184.71875 267.96875 184.71875 267.96875 182.894531 "/>
<path style=" stroke:none;fill-rule:evenodd;fill:rgb(100%,49.803922%,45.098039%);fill-opacity:1;" d="M 267.96875 215.292969 C 267.96875 213.46875 265.230469 213.46875 265.230469 215.292969 C 265.230469 217.117188 267.96875 217.117188 267.96875 215.292969 "/>
<path style=" stroke:none;fill-rule:evenodd;fill:rgb(100%,49.803922%,45.098039%);fill-opacity:1;" d="M 267.96875 269.292969 C 267.96875 267.46875 265.230469 267.46875 265.230469 269.292969 C 265.230469 271.117188 267.96875 271.117188 267.96875 269.292969 "/>
<path style=" stroke:none;fill-rule:evenodd;fill:rgb(100%,49.803922%,45.098039%);fill-opacity:1;" d="M 275.167969 42.492188 C 275.167969 40.667969 272.433594 40.667969 272.433594 42.492188 C 272.433594 44.316406 275.167969 44.316406 275.167969 42.492188 "/>
<path style=" stroke:none;fill-rule:evenodd;fill:rgb(100%,49.803922%,45.098039%);fill-opacity:1;" d="M 275.167969 96.492188 C 275.167969 94.667969 272.433594 94.667969 272.433594 96.492188 C 272.433594 98.316406 275.167969 98.316406 275.167969 96.492188 "/>
<path style=" stroke:none;fill-rule:evenodd;fill:rgb(100%,49.803922%,45.098039%);fill-opacity:1;" d="M 275.167969 128.894531 C 275.167969 127.070312 272.433594 127.070312 272.433594 128.894531 C 272.433594 130.71875 275.167969 130.71875 275.167969 128.894531 "/>
<path style=" stroke:none;fill-rule:evenodd;fill:rgb(100%,49.803922%,45.098039%);fill-opacity:1;" d="M 275.167969 182.894531 C 275.167969 181.070312 272.433594 181.070312 272.433594 182.894531 C 272.433594 184.71875 275.167969 184.71875 275.167969 182.894531 "/>
<path style=" stroke:none;fill-rule:evenodd;fill:rgb(100%,49.803922%,45.098039%);fill-opacity:1;" d="M 275.167969 215.292969 C 275.167969 213.46875 272.433594 213.46875 272.433594 215.292969 C 272.433594 217.117188 275.167969 217.117188 275.167969 215.292969 "/>
<path style=" stroke:none;fill-rule:evenodd;fill:rgb(100%,49.803922%,45.098039%);fill-opacity:1;" d="M 275.167969 269.292969 C 275.167969 267.46875 272.433594 267.46875 272.433594 269.292969 C 272.433594 271.117188 275.167969 271.117188 275.167969 269.292969 "/>
<path style=" stroke:none;fill-rule:evenodd;fill:rgb(100%,49.803922%,45.098039%);fill-opacity:1;" d="M 75.800781 85.695312 C 75.800781 83.292969 72.199219 83.292969 72.199219 85.695312 C 72.199219 88.09375 75.800781 88.09375 75.800781 85.695312 "/>
<path style=" stroke:none;fill-rule:evenodd;fill:rgb(100%,49.803922%,45.098039%);fill-opacity:1;" d="M 83 85.695312 C 83 83.292969 79.398438 83.292969 79.398438 85.695312 C 79.398438 88.09375 83 88.09375 83 85.695312 "/>
<path style=" stroke:none;fill-rule:evenodd;fill:rgb(100%,49.803922%,45.098039%);fill-opacity:1;" d="M 119 85.695312 C 119 83.292969 115.398438 83.292969 115.398438 85.695312 C 115.398438 88.09375 119 88.09375 119 85.695312 "/>
<path style=" stroke:none;fill-rule:evenodd;fill:rgb(100%,49.803922%,45.098039%);fill-opacity:1;" d="M 126.199219 85.695312 C 126.199219 83.292969 122.601562 83.292969 122.601562 85.695312 C 122.601562 88.09375 126.199219 88.09375 126.199219 85.695312 "/>
</g>
</svg>
