G04 This is an RS-274x file exported by *
G04 gerbv version 2.7.0 *
G04 More information is available about gerbv at *
G04 http://gerbv.geda-project.org/ *
G04 --End of header info--*
%MOIN*%
%FSLAX36Y36*%
%IPPOS*%
G04 --Define apertures--*
%ADD10C,0.0100*%
%ADD11C,0.0250*%
%ADD12C,0.0600*%
%ADD13C,0.0200*%
%ADD14C,0.0001*%
%ADD15C,0.0550*%
%ADD16C,0.0800*%
%ADD17C,0.0270*%
%ADD18C,0.0380*%
%ADD19C,0.0130*%
%ADD20C,0.0500*%
%ADD21C,0.0300*%
%ADD22C,0.0660*%
%ADD23C,0.0260*%
%ADD24C,0.0610*%
%ADD25C,0.0860*%
%ADD26C,0.0400*%
G04 --Start main section--*
G01X0000000Y0000000D02*
G54D10*
G01X2975000Y0930000D02*
G01X2975000Y1100000D01*
G01X3760000Y1325000D02*
G01X3910000Y1325000D01*
G54D11*
G01X3520000Y1860000D02*
G01X3520000Y2040000D01*
G01X3575000Y1965000D02*
G01X3575000Y2040000D01*
G01X3215000Y2040000D02*
G01X3215000Y1960000D01*
G54D10*
G01X3760000Y1295000D02*
G01X3925000Y1295000D01*
G01X3760000Y1265000D02*
G01X3935000Y1265000D01*
G01X3935000Y1265000D02*
G01X3970000Y1300000D01*
G01X3925000Y1295000D02*
G01X3940000Y1310000D01*
G01X3940000Y1310000D02*
G01X3940000Y1325000D01*
G01X3970000Y1300000D02*
G01X3970000Y1325000D01*
G01X4300000Y1570000D02*
G01X4255000Y1570000D01*
G01X4300000Y1500000D02*
G01X4255000Y1500000D01*
G54D11*
G01X1645000Y3680000D02*
G01X1645000Y3580000D01*
G01X1500000Y3150000D02*
G01X1740000Y3150000D01*
G01X1740000Y3150000D02*
G01X1815000Y3075000D01*
G01X1895000Y1855000D02*
G01X1810000Y1855000D01*
G01X1810000Y1900000D02*
G01X1895000Y1900000D01*
G01X2890000Y3745000D02*
G01X2890000Y3695000D01*
G01X2890000Y3695000D02*
G01X2915000Y3670000D01*
G54D10*
G01X2675000Y3700000D02*
G01X2675000Y3705000D01*
G01X2675000Y3705000D02*
G01X2805000Y3835000D01*
G01X2805000Y3835000D02*
G01X2950000Y3835000D01*
G01X2950000Y3835000D02*
G01X2975000Y3810000D01*
G01X4745000Y3590000D02*
G01X4725000Y3570000D01*
G01X4760000Y3560000D02*
G01X4750000Y3550000D01*
G01X4725000Y3570000D02*
G01X4520000Y3570000D01*
G01X4520000Y3570000D02*
G01X4440000Y3490000D01*
G01X4750000Y3550000D02*
G01X4530000Y3550000D01*
G01X4530000Y3550000D02*
G01X4465000Y3485000D01*
G01X4440000Y3370000D02*
G01X4440000Y3490000D01*
G01X4465000Y3390000D02*
G01X4465000Y3485000D01*
G54D11*
G01X4390000Y2375000D02*
G01X4390000Y2515000D01*
G01X4355000Y2480000D02*
G01X4355000Y2375000D01*
G01X4320000Y2445000D02*
G01X4320000Y2375000D01*
G01X4285000Y2410000D02*
G01X4285000Y2375000D01*
G54D12*
G01X3675000Y1550000D03*
G01X3075000Y2300000D03*
G01X3175000Y2300000D03*
G01X3275000Y2300000D03*
G01X3375000Y2300000D03*
G01X3475000Y2300000D03*
G01X3575000Y2300000D03*
G01X3675000Y2300000D03*
G54D13*
G01X4584990Y2085000D03*
G01X4380000Y2100000D03*
G01X4615000Y2085000D03*
G01X4730000Y2080000D03*
G01X4760000Y2080000D03*
G01X4535000Y2120000D03*
G01X4565000Y2120000D03*
G01X4425000Y2185000D03*
G01X4455000Y2185000D03*
G01X4300000Y2100000D03*
G01X4325000Y2080000D03*
G01X4355000Y2080000D03*
G01X4175000Y2080000D03*
G01X4205000Y2080000D03*
G01X4235000Y2080000D03*
G01X4075000Y2180000D03*
G01X4105000Y2180000D03*
G01X4135000Y2180000D03*
G54D12*
G01X3275000Y1550000D03*
G01X3375000Y1550000D03*
G01X3475000Y1550000D03*
G01X3575000Y1550000D03*
G01X2975000Y1550000D03*
G01X3075000Y1550000D03*
G01X3175000Y1550000D03*
G01X2675000Y1100000D03*
G01X2775000Y1100000D03*
G01X2675000Y1000000D03*
G01X2775000Y1000000D03*
G01X3375000Y1100000D03*
G01X3275000Y1100000D03*
G01X3175000Y1100000D03*
G01X3075000Y1100000D03*
G01X2975000Y1100000D03*
G01X3675000Y1100000D03*
G01X3575000Y1100000D03*
G01X3475000Y1100000D03*
G01X3675000Y0350000D03*
G01X3575000Y0350000D03*
G01X3475000Y0350000D03*
G01X3375000Y0350000D03*
G01X3275000Y0350000D03*
G01X3175000Y0350000D03*
G01X3075000Y0350000D03*
G01X2975000Y0350000D03*
G01X1000000Y2300000D03*
G01X1000000Y2200000D03*
G01X0900000Y2200000D03*
G01X0900000Y2300000D03*
G01X0900000Y1100000D03*
G01X0900000Y1000000D03*
G01X1000000Y1000000D03*
G01X1000000Y1100000D03*
G54D14*
G36*
G01X1660000Y0830000D02*
G01X1660000Y0770000D01*
G01X1720000Y0770000D01*
G01X1720000Y0830000D01*
G01X1660000Y0830000D01*
G37*
G54D12*
G01X1690000Y0700000D03*
G01X1690000Y0600000D03*
G01X1690000Y0500000D03*
G01X1690000Y0400000D03*
G01X1690000Y0300000D03*
G01X1885000Y0750000D03*
G01X1885000Y0550000D03*
G54D14*
G36*
G01X1660000Y2030000D02*
G01X1660000Y1970000D01*
G01X1720000Y1970000D01*
G01X1720000Y2030000D01*
G01X1660000Y2030000D01*
G37*
G54D12*
G01X1690000Y1900000D03*
G01X1690000Y1800000D03*
G01X1690000Y1700000D03*
G01X1690000Y1600000D03*
G01X1690000Y1500000D03*
G54D14*
G36*
G01X1660000Y3230000D02*
G01X1660000Y3170000D01*
G01X1720000Y3170000D01*
G01X1720000Y3230000D01*
G01X1660000Y3230000D01*
G37*
G54D12*
G01X1885000Y3150000D03*
G01X1690000Y3100000D03*
G01X1690000Y3000000D03*
G01X1885000Y2950000D03*
G01X1690000Y2900000D03*
G54D14*
G36*
G01X1560000Y2940000D02*
G01X1560000Y2860000D01*
G01X1640000Y2860000D01*
G01X1640000Y2940000D01*
G01X1560000Y2940000D01*
G37*
G54D12*
G01X1690000Y2800000D03*
G01X1690000Y2700000D03*
G01X0900000Y3500000D03*
G01X0900000Y3400000D03*
G01X1000000Y3400000D03*
G01X1000000Y3500000D03*
G54D14*
G36*
G01X0872500Y3027500D02*
G01X0872500Y2972500D01*
G01X0927500Y2972500D01*
G01X0927500Y3027500D01*
G01X0872500Y3027500D01*
G37*
G54D15*
G01X1300000Y3000000D03*
G54D16*
G01X1000000Y2900000D03*
G54D15*
G01X1000000Y3000000D03*
G54D14*
G36*
G01X0860000Y2940000D02*
G01X0860000Y2860000D01*
G01X0940000Y2860000D01*
G01X0940000Y2940000D01*
G01X0860000Y2940000D01*
G37*
G54D16*
G01X1500000Y2900000D03*
G54D14*
G36*
G01X1372500Y3027500D02*
G01X1372500Y2972500D01*
G01X1427500Y2972500D01*
G01X1427500Y3027500D01*
G01X1372500Y3027500D01*
G37*
G54D12*
G01X2975000Y2300000D03*
G01X2775000Y2300000D03*
G01X2775000Y2200000D03*
G01X2675000Y2200000D03*
G01X2675000Y2300000D03*
G01X2675000Y3500000D03*
G01X2675000Y3400000D03*
G01X2775000Y3400000D03*
G01X2775000Y3500000D03*
G01X2975000Y3500000D03*
G01X2975000Y2750000D03*
G01X3675000Y2750000D03*
G01X3675000Y3500000D03*
G01X3575000Y2750000D03*
G01X3475000Y2750000D03*
G01X3375000Y2750000D03*
G01X3275000Y2750000D03*
G01X3175000Y2750000D03*
G01X3075000Y2750000D03*
G01X3575000Y3500000D03*
G01X3475000Y3500000D03*
G01X3375000Y3500000D03*
G01X3275000Y3500000D03*
G01X3175000Y3500000D03*
G01X3075000Y3500000D03*
G01X1590000Y2800000D03*
G01X1590000Y2000000D03*
G01X1590000Y1900000D03*
G01X1590000Y1800000D03*
G01X1590000Y1700000D03*
G01X1590000Y0800000D03*
G01X1590000Y0700000D03*
G01X1590000Y0600000D03*
G01X1000000Y1300000D03*
G01X1590000Y3000000D03*
G54D13*
G01X1895000Y1855000D03*
G01X1810000Y1855000D03*
G01X1895000Y1900000D03*
G01X1810000Y1900000D03*
G54D12*
G01X1590000Y3200000D03*
G01X1590000Y3100000D03*
G54D13*
G01X1645000Y3680000D03*
G01X1645000Y3580000D03*
G54D12*
G01X2775000Y3700000D03*
G54D13*
G01X2915000Y3670000D03*
G01X2890000Y3745000D03*
G54D12*
G01X2675000Y3700000D03*
G01X1000000Y3800000D03*
G01X0900000Y3700000D03*
G01X0900000Y3800000D03*
G01X0900000Y3600000D03*
G54D13*
G01X1500000Y3150000D03*
G01X1815000Y3075000D03*
G01X2975000Y3810000D03*
G01X3215000Y1960000D03*
G01X2975000Y0930000D03*
G01X3215000Y2040000D03*
G01X3520000Y2040000D03*
G01X3520000Y1860000D03*
G01X3575000Y2040000D03*
G01X3575000Y1965000D03*
G54D12*
G01X2675000Y1300000D03*
G54D13*
G01X4440000Y3370000D03*
G01X4745000Y3590000D03*
G01X4465000Y3390000D03*
G01X4760000Y3560000D03*
G01X3760000Y1325000D03*
G01X3910000Y1325000D03*
G01X3940000Y1325000D03*
G01X3970000Y1325000D03*
G01X3760000Y1265000D03*
G01X3760000Y1295000D03*
G54D17*
G01X4255000Y1535000D03*
G01X4255000Y1500000D03*
G01X4300000Y1570000D03*
G01X4300000Y1605000D03*
G01X4300000Y1500000D03*
G01X4300000Y1535000D03*
G01X4255000Y1570000D03*
G01X4255000Y1605000D03*
G54D13*
G01X4390000Y2375000D03*
G01X4355000Y2375000D03*
G01X4320000Y2375000D03*
G01X4285000Y2375000D03*
G01X4285000Y2410000D03*
G01X4320000Y2445000D03*
G01X4355000Y2480000D03*
G01X4390000Y2515000D03*
G01X0000000Y0000000D02*
G54D10*
G01X0000000Y3900000D02*
G01X0100000Y4000000D01*
G01X0100000Y4000000D02*
G01X4900000Y4000000D01*
G01X4900000Y4000000D02*
G01X4900000Y0400000D01*
G01X4900000Y0400000D02*
G01X0000000Y0400000D01*
G01X0000000Y0400000D02*
G01X0000000Y3900000D01*
G01X0000000Y0000000D02*
G54D22*
G01X3675000Y1550000D03*
G01X3075000Y2300000D03*
G01X3175000Y2300000D03*
G01X3275000Y2300000D03*
G01X3375000Y2300000D03*
G01X3475000Y2300000D03*
G01X3575000Y2300000D03*
G01X3675000Y2300000D03*
G54D23*
G01X4584990Y2085000D03*
G01X4380000Y2100000D03*
G01X4615000Y2085000D03*
G01X4730000Y2080000D03*
G01X4760000Y2080000D03*
G01X4535000Y2120000D03*
G01X4565000Y2120000D03*
G01X4425000Y2185000D03*
G01X4455000Y2185000D03*
G01X4300000Y2100000D03*
G01X4325000Y2080000D03*
G01X4355000Y2080000D03*
G01X4175000Y2080000D03*
G01X4205000Y2080000D03*
G01X4235000Y2080000D03*
G01X4075000Y2180000D03*
G01X4105000Y2180000D03*
G01X4135000Y2180000D03*
G54D22*
G01X3275000Y1550000D03*
G01X3375000Y1550000D03*
G01X3475000Y1550000D03*
G01X3575000Y1550000D03*
G01X2975000Y1550000D03*
G01X3075000Y1550000D03*
G01X3175000Y1550000D03*
G01X2675000Y1100000D03*
G01X2775000Y1100000D03*
G01X2675000Y1000000D03*
G01X2775000Y1000000D03*
G01X3375000Y1100000D03*
G01X3275000Y1100000D03*
G01X3175000Y1100000D03*
G01X3075000Y1100000D03*
G01X2975000Y1100000D03*
G01X3675000Y1100000D03*
G01X3575000Y1100000D03*
G01X3475000Y1100000D03*
G01X3675000Y0350000D03*
G01X3575000Y0350000D03*
G01X3475000Y0350000D03*
G01X3375000Y0350000D03*
G01X3275000Y0350000D03*
G01X3175000Y0350000D03*
G01X3075000Y0350000D03*
G01X2975000Y0350000D03*
G01X1000000Y2300000D03*
G01X1000000Y2200000D03*
G01X0900000Y2200000D03*
G01X0900000Y2300000D03*
G01X0900000Y1100000D03*
G01X0900000Y1000000D03*
G01X1000000Y1000000D03*
G01X1000000Y1100000D03*
G54D14*
G36*
G01X1657000Y0833000D02*
G01X1657000Y0767000D01*
G01X1723000Y0767000D01*
G01X1723000Y0833000D01*
G01X1657000Y0833000D01*
G37*
G54D22*
G01X1690000Y0700000D03*
G01X1690000Y0600000D03*
G01X1690000Y0500000D03*
G01X1690000Y0400000D03*
G01X1690000Y0300000D03*
G01X1885000Y0750000D03*
G01X1885000Y0550000D03*
G54D14*
G36*
G01X1657000Y2033000D02*
G01X1657000Y1967000D01*
G01X1723000Y1967000D01*
G01X1723000Y2033000D01*
G01X1657000Y2033000D01*
G37*
G54D22*
G01X1690000Y1900000D03*
G01X1690000Y1800000D03*
G01X1690000Y1700000D03*
G01X1690000Y1600000D03*
G01X1690000Y1500000D03*
G54D14*
G36*
G01X1657000Y3233000D02*
G01X1657000Y3167000D01*
G01X1723000Y3167000D01*
G01X1723000Y3233000D01*
G01X1657000Y3233000D01*
G37*
G54D22*
G01X1885000Y3150000D03*
G01X1690000Y3100000D03*
G01X1690000Y3000000D03*
G01X1885000Y2950000D03*
G01X1690000Y2900000D03*
G54D14*
G36*
G01X1557000Y2943000D02*
G01X1557000Y2857000D01*
G01X1643000Y2857000D01*
G01X1643000Y2943000D01*
G01X1557000Y2943000D01*
G37*
G54D22*
G01X1690000Y2800000D03*
G01X1690000Y2700000D03*
G01X0900000Y3500000D03*
G01X0900000Y3400000D03*
G01X1000000Y3400000D03*
G01X1000000Y3500000D03*
G54D14*
G36*
G01X0869500Y3030500D02*
G01X0869500Y2969500D01*
G01X0930500Y2969500D01*
G01X0930500Y3030500D01*
G01X0869500Y3030500D01*
G37*
G54D24*
G01X1300000Y3000000D03*
G54D25*
G01X1000000Y2900000D03*
G54D24*
G01X1000000Y3000000D03*
G54D14*
G36*
G01X0857000Y2943000D02*
G01X0857000Y2857000D01*
G01X0943000Y2857000D01*
G01X0943000Y2943000D01*
G01X0857000Y2943000D01*
G37*
G54D25*
G01X1500000Y2900000D03*
G54D14*
G36*
G01X1369500Y3030500D02*
G01X1369500Y2969500D01*
G01X1430500Y2969500D01*
G01X1430500Y3030500D01*
G01X1369500Y3030500D01*
G37*
G54D22*
G01X2975000Y2300000D03*
G01X2775000Y2300000D03*
G01X2775000Y2200000D03*
G01X2675000Y2200000D03*
G01X2675000Y2300000D03*
G01X2675000Y3500000D03*
G01X2675000Y3400000D03*
G01X2775000Y3400000D03*
G01X2775000Y3500000D03*
G01X2975000Y3500000D03*
G01X2975000Y2750000D03*
G01X3675000Y2750000D03*
G01X3675000Y3500000D03*
G01X3575000Y2750000D03*
G01X3475000Y2750000D03*
G01X3375000Y2750000D03*
G01X3275000Y2750000D03*
G01X3175000Y2750000D03*
G01X3075000Y2750000D03*
G01X3575000Y3500000D03*
G01X3475000Y3500000D03*
G01X3375000Y3500000D03*
G01X3275000Y3500000D03*
G01X3175000Y3500000D03*
G01X3075000Y3500000D03*
G54D26*
G01X4255000Y1535000D03*
G01X4255000Y1500000D03*
G01X4300000Y1570000D03*
G01X4300000Y1605000D03*
G01X4300000Y1500000D03*
G01X4300000Y1535000D03*
G01X4255000Y1570000D03*
G01X4255000Y1605000D03*
G01X0000000Y0000000D02*
G54D10*
G01X1500000Y3150000D03*
G01X1645000Y3680000D03*
G01X1645000Y3580000D03*
G01X1810000Y1900000D03*
G01X1810000Y1855000D03*
G01X1815000Y3075000D03*
G01X1895000Y1900000D03*
G01X1895000Y1855000D03*
G01X2890000Y3745000D03*
G01X2915000Y3670000D03*
G01X2975000Y3810000D03*
G01X2975000Y0930000D03*
G01X3215000Y2040000D03*
G01X3215000Y1960000D03*
G01X3520000Y2040000D03*
G01X3520000Y1860000D03*
G01X3575000Y2040000D03*
G01X3575000Y1965000D03*
G01X3760000Y1325000D03*
G01X3760000Y1295000D03*
G01X3760000Y1265000D03*
G01X3910000Y1325000D03*
G01X3940000Y1325000D03*
G01X3970000Y1325000D03*
G01X4075000Y2180000D03*
G01X4105000Y2180000D03*
G01X4135000Y2180000D03*
G01X4175000Y2080000D03*
G01X4205000Y2080000D03*
G01X4235000Y2080000D03*
G01X4285000Y2410000D03*
G01X4285000Y2375000D03*
G01X4300000Y2100000D03*
G01X4320000Y2445000D03*
G01X4320000Y2375000D03*
G01X4325000Y2080000D03*
G01X4355000Y2480000D03*
G01X4355000Y2375000D03*
G01X4355000Y2080000D03*
G01X4380000Y2100000D03*
G01X4390000Y2515000D03*
G01X4390000Y2375000D03*
G01X4425000Y2185000D03*
G01X4440000Y3370000D03*
G01X4455000Y2185000D03*
G01X4465000Y3390000D03*
G01X4535000Y2120000D03*
G01X4565000Y2120000D03*
G01X4585000Y2085000D03*
G01X4615000Y2085000D03*
G01X4730000Y2080000D03*
G01X4745000Y3590000D03*
G01X4760000Y3560000D03*
G01X4760000Y2080000D03*
G54D19*
G01X4255000Y1605000D03*
G01X4255000Y1570000D03*
G01X4255000Y1535000D03*
G01X4255000Y1500000D03*
G01X4300000Y1605000D03*
G01X4300000Y1570000D03*
G01X4300000Y1535000D03*
G01X4300000Y1500000D03*
G54D21*
G01X0900000Y3000000D03*
G01X1000000Y3000000D03*
G01X1300000Y3000000D03*
G01X1400000Y3000000D03*
G54D18*
G01X0900000Y3800000D03*
G01X0900000Y3700000D03*
G01X0900000Y3600000D03*
G01X0900000Y3500000D03*
G01X0900000Y3400000D03*
G01X0900000Y2300000D03*
G01X0900000Y2200000D03*
G01X0900000Y1100000D03*
G01X0900000Y1000000D03*
G01X1000000Y3800000D03*
G01X1000000Y3500000D03*
G01X1000000Y3400000D03*
G01X1000000Y2300000D03*
G01X1000000Y2200000D03*
G01X1000000Y1300000D03*
G01X1000000Y1100000D03*
G01X1000000Y1000000D03*
G01X1590000Y3200000D03*
G01X1590000Y3100000D03*
G01X1590000Y3000000D03*
G01X1590000Y2800000D03*
G01X1590000Y2000000D03*
G01X1590000Y1900000D03*
G01X1590000Y1800000D03*
G01X1590000Y1700000D03*
G01X1590000Y0800000D03*
G01X1590000Y0700000D03*
G01X1590000Y0600000D03*
G01X1690000Y3200000D03*
G01X1690000Y3100000D03*
G01X1690000Y3000000D03*
G01X1690000Y2900000D03*
G01X1690000Y2800000D03*
G01X1690000Y2700000D03*
G01X1690000Y2000000D03*
G01X1690000Y1900000D03*
G01X1690000Y1800000D03*
G01X1690000Y1700000D03*
G01X1690000Y1600000D03*
G01X1690000Y1500000D03*
G01X1690000Y0800000D03*
G01X1690000Y0700000D03*
G01X1690000Y0600000D03*
G01X1690000Y0500000D03*
G01X1690000Y0400000D03*
G01X1690000Y0300000D03*
G01X1885000Y3150000D03*
G01X1885000Y2950000D03*
G01X1885000Y0750000D03*
G01X1885000Y0550000D03*
G01X2675000Y3700000D03*
G01X2675000Y3500000D03*
G01X2675000Y3400000D03*
G01X2675000Y2300000D03*
G01X2675000Y2200000D03*
G01X2675000Y1300000D03*
G01X2675000Y1100000D03*
G01X2675000Y1000000D03*
G01X2775000Y3700000D03*
G01X2775000Y3500000D03*
G01X2775000Y3400000D03*
G01X2775000Y2300000D03*
G01X2775000Y2200000D03*
G01X2775000Y1100000D03*
G01X2775000Y1000000D03*
G01X2975000Y3500000D03*
G01X2975000Y2750000D03*
G01X2975000Y2300000D03*
G01X2975000Y1550000D03*
G01X2975000Y1100000D03*
G01X2975000Y0350000D03*
G01X3075000Y3500000D03*
G01X3075000Y2750000D03*
G01X3075000Y2300000D03*
G01X3075000Y1550000D03*
G01X3075000Y1100000D03*
G01X3075000Y0350000D03*
G01X3175000Y3500000D03*
G01X3175000Y2750000D03*
G01X3175000Y2300000D03*
G01X3175000Y1550000D03*
G01X3175000Y1100000D03*
G01X3175000Y0350000D03*
G01X3275000Y3500000D03*
G01X3275000Y2750000D03*
G01X3275000Y2300000D03*
G01X3275000Y1550000D03*
G01X3275000Y1100000D03*
G01X3275000Y0350000D03*
G01X3375000Y3500000D03*
G01X3375000Y2750000D03*
G01X3375000Y2300000D03*
G01X3375000Y1550000D03*
G01X3375000Y1100000D03*
G01X3375000Y0350000D03*
G01X3475000Y3500000D03*
G01X3475000Y2750000D03*
G01X3475000Y2300000D03*
G01X3475000Y1550000D03*
G01X3475000Y1100000D03*
G01X3475000Y0350000D03*
G01X3575000Y3500000D03*
G01X3575000Y2750000D03*
G01X3575000Y2300000D03*
G01X3575000Y1550000D03*
G01X3575000Y1100000D03*
G01X3575000Y0350000D03*
G01X3675000Y3500000D03*
G01X3675000Y2750000D03*
G01X3675000Y2300000D03*
G01X3675000Y1550000D03*
G01X3675000Y1100000D03*
G01X3675000Y0350000D03*
G54D20*
G01X0900000Y2900000D03*
G01X1000000Y2900000D03*
G01X1500000Y2900000D03*
G01X1600000Y2900000D03*
M02*
