G04 start of page 17 for group -3984 idx -3984 *
G04 Title: (unknown), fab *
G04 Creator: pcb 4.2.0 *
G04 CreationDate: Tue Jul 14 02:55:31 2020 UTC *
G04 For: commonadmin *
G04 Format: Gerber/RS-274X *
G04 PCB-Dimensions (mil): 24000.00 18000.00 *
G04 PCB-Coordinate-Origin: lower left *
%MOIN*%
%FSLAX25Y25*%
%LNFAB*%
%ADD284C,0.0100*%
%ADD283C,0.0075*%
%ADD282C,0.0060*%
%ADD281R,0.0080X0.0080*%
G54D281*X432652Y533883D02*X435852D01*
X432652D02*Y530683D01*
X435852D01*
Y533883D02*Y530683D01*
X431052Y535483D02*X437452D01*
X431052D02*Y529083D01*
X437452D01*
Y535483D02*Y529083D01*
X429452Y537083D02*X439052D01*
X429452D02*Y527483D01*
X439052D01*
Y537083D02*Y527483D01*
X460998Y533883D02*X464198D01*
X460998D02*Y530683D01*
X464198D01*
Y533883D02*Y530683D01*
X459398Y535483D02*X465798D01*
X459398D02*Y529083D01*
X465798D01*
Y535483D02*Y529083D01*
X457798Y537083D02*X467398D01*
X457798D02*Y527483D01*
X467398D01*
Y537083D02*Y527483D01*
X65054Y737600D02*X68254D01*
X65054D02*Y734400D01*
X68254D01*
Y737600D02*Y734400D01*
X63454Y739200D02*X69854D01*
X63454D02*Y732800D01*
X69854D01*
Y739200D02*Y732800D01*
X61854Y740800D02*X71454D01*
X61854D02*Y731200D01*
X71454D01*
Y740800D02*Y731200D01*
X93400Y737600D02*X96600D01*
X93400D02*Y734400D01*
X96600D01*
Y737600D02*Y734400D01*
X91800Y739200D02*X98200D01*
X91800D02*Y732800D01*
X98200D01*
Y739200D02*Y732800D01*
X90200Y740800D02*X99800D01*
X90200D02*Y731200D01*
X99800D01*
Y740800D02*Y731200D01*
X65054Y705600D02*X68254D01*
X65054D02*Y702400D01*
X68254D01*
Y705600D02*Y702400D01*
X63454Y707200D02*X69854D01*
X63454D02*Y700800D01*
X69854D01*
Y707200D02*Y700800D01*
X61854Y708800D02*X71454D01*
X61854D02*Y699200D01*
X71454D01*
Y708800D02*Y699200D01*
X93400Y705600D02*X96600D01*
X93400D02*Y702400D01*
X96600D01*
Y705600D02*Y702400D01*
X91800Y707200D02*X98200D01*
X91800D02*Y700800D01*
X98200D01*
Y707200D02*Y700800D01*
X90200Y708800D02*X99800D01*
X90200D02*Y699200D01*
X99800D01*
Y708800D02*Y699200D01*
X65054Y673600D02*X68254D01*
X65054D02*Y670400D01*
X68254D01*
Y673600D02*Y670400D01*
X63454Y675200D02*X69854D01*
X63454D02*Y668800D01*
X69854D01*
Y675200D02*Y668800D01*
X61854Y676800D02*X71454D01*
X61854D02*Y667200D01*
X71454D01*
Y676800D02*Y667200D01*
X93400Y673600D02*X96600D01*
X93400D02*Y670400D01*
X96600D01*
Y673600D02*Y670400D01*
X91800Y675200D02*X98200D01*
X91800D02*Y668800D01*
X98200D01*
Y675200D02*Y668800D01*
X90200Y676800D02*X99800D01*
X90200D02*Y667200D01*
X99800D01*
Y676800D02*Y667200D01*
X65054Y641600D02*X68254D01*
X65054D02*Y638400D01*
X68254D01*
Y641600D02*Y638400D01*
X63454Y643200D02*X69854D01*
X63454D02*Y636800D01*
X69854D01*
Y643200D02*Y636800D01*
X61854Y644800D02*X71454D01*
X61854D02*Y635200D01*
X71454D01*
Y644800D02*Y635200D01*
X93400Y641600D02*X96600D01*
X93400D02*Y638400D01*
X96600D01*
Y641600D02*Y638400D01*
X91800Y643200D02*X98200D01*
X91800D02*Y636800D01*
X98200D01*
Y643200D02*Y636800D01*
X90200Y644800D02*X99800D01*
X90200D02*Y635200D01*
X99800D01*
Y644800D02*Y635200D01*
X13400Y1812850D02*X16600D01*
X13400D02*Y1809650D01*
X16600D01*
Y1812850D02*Y1809650D01*
X11800Y1814450D02*X18200D01*
X11800D02*Y1808050D01*
X18200D01*
Y1814450D02*Y1808050D01*
X10200Y1816050D02*X19800D01*
X10200D02*Y1806450D01*
X19800D01*
Y1816050D02*Y1806450D01*
G54D282*X135000Y1813500D02*X136500Y1810500D01*
X138000Y1813500D01*
X136500Y1810500D02*Y1807500D01*
X139800Y1810800D02*X142050D01*
X139800Y1807500D02*X142800D01*
X139800Y1813500D02*Y1807500D01*
Y1813500D02*X142800D01*
X147600D02*X148350Y1812750D01*
X145350Y1813500D02*X147600D01*
X144600Y1812750D02*X145350Y1813500D01*
X144600Y1812750D02*Y1811250D01*
X145350Y1810500D01*
X147600D01*
X148350Y1809750D01*
Y1808250D01*
X147600Y1807500D02*X148350Y1808250D01*
X145350Y1807500D02*X147600D01*
X144600Y1808250D02*X145350Y1807500D01*
X98000Y1812300D02*X99200Y1813500D01*
Y1807500D01*
X98000D02*X100250D01*
X102050Y1808250D02*X102800Y1807500D01*
X102050Y1812750D02*Y1808250D01*
Y1812750D02*X102800Y1813500D01*
X104300D01*
X105050Y1812750D01*
Y1808250D01*
X104300Y1807500D02*X105050Y1808250D01*
X102800Y1807500D02*X104300D01*
X102050Y1809000D02*X105050Y1812000D01*
X45000Y1808250D02*X45750Y1807500D01*
X45000Y1812750D02*Y1808250D01*
Y1812750D02*X45750Y1813500D01*
X47250D01*
X48000Y1812750D01*
Y1808250D01*
X47250Y1807500D02*X48000Y1808250D01*
X45750Y1807500D02*X47250D01*
X45000Y1809000D02*X48000Y1812000D01*
X49800Y1807500D02*X50550D01*
X52350Y1812300D02*X53550Y1813500D01*
Y1807500D01*
X52350D02*X54600D01*
X56400Y1808250D02*X57150Y1807500D01*
X56400Y1809450D02*Y1808250D01*
Y1809450D02*X57450Y1810500D01*
X58350D01*
X59400Y1809450D01*
Y1808250D01*
X58650Y1807500D02*X59400Y1808250D01*
X57150Y1807500D02*X58650D01*
X56400Y1811550D02*X57450Y1810500D01*
X56400Y1812750D02*Y1811550D01*
Y1812750D02*X57150Y1813500D01*
X58650D01*
X59400Y1812750D01*
Y1811550D01*
X58350Y1810500D02*X59400Y1811550D01*
X61950Y1807500D02*X64950Y1813500D01*
X61200D02*X64950D01*
X509200Y377969D02*G75*G03X510800Y377969I800J0D01*G01*
G75*G03X509200Y377969I-800J0D01*G01*
X507600D02*G75*G03X512400Y377969I2400J0D01*G01*
G75*G03X507600Y377969I-2400J0D01*G01*
X506000D02*G75*G03X514000Y377969I4000J0D01*G01*
G75*G03X506000Y377969I-4000J0D01*G01*
X509200Y326000D02*G75*G03X510800Y326000I800J0D01*G01*
G75*G03X509200Y326000I-800J0D01*G01*
X507600D02*G75*G03X512400Y326000I2400J0D01*G01*
G75*G03X507600Y326000I-2400J0D01*G01*
X506000D02*G75*G03X514000Y326000I4000J0D01*G01*
G75*G03X506000Y326000I-4000J0D01*G01*
X509200Y507969D02*G75*G03X510800Y507969I800J0D01*G01*
G75*G03X509200Y507969I-800J0D01*G01*
X507600D02*G75*G03X512400Y507969I2400J0D01*G01*
G75*G03X507600Y507969I-2400J0D01*G01*
X506000D02*G75*G03X514000Y507969I4000J0D01*G01*
G75*G03X506000Y507969I-4000J0D01*G01*
X509200Y456000D02*G75*G03X510800Y456000I800J0D01*G01*
G75*G03X509200Y456000I-800J0D01*G01*
X507600D02*G75*G03X512400Y456000I2400J0D01*G01*
G75*G03X507600Y456000I-2400J0D01*G01*
X506000D02*G75*G03X514000Y456000I4000J0D01*G01*
G75*G03X506000Y456000I-4000J0D01*G01*
X509200Y442969D02*G75*G03X510800Y442969I800J0D01*G01*
G75*G03X509200Y442969I-800J0D01*G01*
X507600D02*G75*G03X512400Y442969I2400J0D01*G01*
G75*G03X507600Y442969I-2400J0D01*G01*
X506000D02*G75*G03X514000Y442969I4000J0D01*G01*
G75*G03X506000Y442969I-4000J0D01*G01*
X509200Y391000D02*G75*G03X510800Y391000I800J0D01*G01*
G75*G03X509200Y391000I-800J0D01*G01*
X507600D02*G75*G03X512400Y391000I2400J0D01*G01*
G75*G03X507600Y391000I-2400J0D01*G01*
X506000D02*G75*G03X514000Y391000I4000J0D01*G01*
G75*G03X506000Y391000I-4000J0D01*G01*
X449200Y326000D02*G75*G03X450800Y326000I800J0D01*G01*
G75*G03X449200Y326000I-800J0D01*G01*
X447600D02*G75*G03X452400Y326000I2400J0D01*G01*
G75*G03X447600Y326000I-2400J0D01*G01*
X446000D02*G75*G03X454000Y326000I4000J0D01*G01*
G75*G03X446000Y326000I-4000J0D01*G01*
X449200Y377969D02*G75*G03X450800Y377969I800J0D01*G01*
G75*G03X449200Y377969I-800J0D01*G01*
X447600D02*G75*G03X452400Y377969I2400J0D01*G01*
G75*G03X447600Y377969I-2400J0D01*G01*
X446000D02*G75*G03X454000Y377969I4000J0D01*G01*
G75*G03X446000Y377969I-4000J0D01*G01*
X449200Y456000D02*G75*G03X450800Y456000I800J0D01*G01*
G75*G03X449200Y456000I-800J0D01*G01*
X447600D02*G75*G03X452400Y456000I2400J0D01*G01*
G75*G03X447600Y456000I-2400J0D01*G01*
X446000D02*G75*G03X454000Y456000I4000J0D01*G01*
G75*G03X446000Y456000I-4000J0D01*G01*
X449200Y507969D02*G75*G03X450800Y507969I800J0D01*G01*
G75*G03X449200Y507969I-800J0D01*G01*
X447600D02*G75*G03X452400Y507969I2400J0D01*G01*
G75*G03X447600Y507969I-2400J0D01*G01*
X446000D02*G75*G03X454000Y507969I4000J0D01*G01*
G75*G03X446000Y507969I-4000J0D01*G01*
X449200Y391000D02*G75*G03X450800Y391000I800J0D01*G01*
G75*G03X449200Y391000I-800J0D01*G01*
X447600D02*G75*G03X452400Y391000I2400J0D01*G01*
G75*G03X447600Y391000I-2400J0D01*G01*
X446000D02*G75*G03X454000Y391000I4000J0D01*G01*
G75*G03X446000Y391000I-4000J0D01*G01*
X449200Y442969D02*G75*G03X450800Y442969I800J0D01*G01*
G75*G03X449200Y442969I-800J0D01*G01*
X447600D02*G75*G03X452400Y442969I2400J0D01*G01*
G75*G03X447600Y442969I-2400J0D01*G01*
X446000D02*G75*G03X454000Y442969I4000J0D01*G01*
G75*G03X446000Y442969I-4000J0D01*G01*
X14200Y1826250D02*G75*G03X15800Y1826250I800J0D01*G01*
G75*G03X14200Y1826250I-800J0D01*G01*
X12600D02*G75*G03X17400Y1826250I2400J0D01*G01*
G75*G03X12600Y1826250I-2400J0D01*G01*
X11000D02*G75*G03X19000Y1826250I4000J0D01*G01*
G75*G03X11000Y1826250I-4000J0D01*G01*
X135000Y1828500D02*X136500Y1825500D01*
X138000Y1828500D01*
X136500Y1825500D02*Y1822500D01*
X139800Y1825800D02*X142050D01*
X139800Y1822500D02*X142800D01*
X139800Y1828500D02*Y1822500D01*
Y1828500D02*X142800D01*
X147600D02*X148350Y1827750D01*
X145350Y1828500D02*X147600D01*
X144600Y1827750D02*X145350Y1828500D01*
X144600Y1827750D02*Y1826250D01*
X145350Y1825500D01*
X147600D01*
X148350Y1824750D01*
Y1823250D01*
X147600Y1822500D02*X148350Y1823250D01*
X145350Y1822500D02*X147600D01*
X144600Y1823250D02*X145350Y1822500D01*
X98000Y1827300D02*X99200Y1828500D01*
Y1822500D01*
X98000D02*X100250D01*
X102050Y1827750D02*X102800Y1828500D01*
X105050D01*
X105800Y1827750D01*
Y1826250D01*
X102050Y1822500D02*X105800Y1826250D01*
X102050Y1822500D02*X105800D01*
X45000Y1823250D02*X45750Y1822500D01*
X45000Y1827750D02*Y1823250D01*
Y1827750D02*X45750Y1828500D01*
X47250D01*
X48000Y1827750D01*
Y1823250D01*
X47250Y1822500D02*X48000Y1823250D01*
X45750Y1822500D02*X47250D01*
X45000Y1824000D02*X48000Y1827000D01*
X49800Y1822500D02*X50550D01*
X52350Y1823250D02*X53100Y1822500D01*
X52350Y1827750D02*Y1823250D01*
Y1827750D02*X53100Y1828500D01*
X54600D01*
X55350Y1827750D01*
Y1823250D01*
X54600Y1822500D02*X55350Y1823250D01*
X53100Y1822500D02*X54600D01*
X52350Y1824000D02*X55350Y1827000D01*
X57900Y1822500D02*X60150Y1825500D01*
Y1827750D02*Y1825500D01*
X59400Y1828500D02*X60150Y1827750D01*
X57900Y1828500D02*X59400D01*
X57150Y1827750D02*X57900Y1828500D01*
X57150Y1827750D02*Y1826250D01*
X57900Y1825500D01*
X60150D01*
X61950Y1824750D02*X64950Y1828500D01*
X61950Y1824750D02*X65700D01*
X64950Y1828500D02*Y1822500D01*
X730652Y334053D02*X737852Y326853D01*
X730652D02*X737852Y334053D01*
X732652Y332053D02*X735852D01*
X732652D02*Y328853D01*
X735852D01*
Y332053D02*Y328853D01*
X731052Y333653D02*X737452D01*
X731052D02*Y327253D01*
X737452D01*
Y333653D02*Y327253D01*
X730652Y366553D02*X737852Y359353D01*
X730652D02*X737852Y366553D01*
X732652Y364553D02*X735852D01*
X732652D02*Y361353D01*
X735852D01*
Y364553D02*Y361353D01*
X731052Y366153D02*X737452D01*
X731052D02*Y359753D01*
X737452D01*
Y366153D02*Y359753D01*
X730652Y399053D02*X737852Y391853D01*
X730652D02*X737852Y399053D01*
X732652Y397053D02*X735852D01*
X732652D02*Y393853D01*
X735852D01*
Y397053D02*Y393853D01*
X731052Y398653D02*X737452D01*
X731052D02*Y392253D01*
X737452D01*
Y398653D02*Y392253D01*
X730652Y431553D02*X737852Y424353D01*
X730652D02*X737852Y431553D01*
X732652Y429553D02*X735852D01*
X732652D02*Y426353D01*
X735852D01*
Y429553D02*Y426353D01*
X731052Y431153D02*X737452D01*
X731052D02*Y424753D01*
X737452D01*
Y431153D02*Y424753D01*
X730652Y464053D02*X737852Y456853D01*
X730652D02*X737852Y464053D01*
X732652Y462053D02*X735852D01*
X732652D02*Y458853D01*
X735852D01*
Y462053D02*Y458853D01*
X731052Y463653D02*X737452D01*
X731052D02*Y457253D01*
X737452D01*
Y463653D02*Y457253D01*
X730652Y496553D02*X737852Y489353D01*
X730652D02*X737852Y496553D01*
X732652Y494553D02*X735852D01*
X732652D02*Y491353D01*
X735852D01*
Y494553D02*Y491353D01*
X731052Y496153D02*X737452D01*
X731052D02*Y489753D01*
X737452D01*
Y496153D02*Y489753D01*
X730652Y529053D02*X737852Y521853D01*
X730652D02*X737852Y529053D01*
X732652Y527053D02*X735852D01*
X732652D02*Y523853D01*
X735852D01*
Y527053D02*Y523853D01*
X731052Y528653D02*X737452D01*
X731052D02*Y522253D01*
X737452D01*
Y528653D02*Y522253D01*
X730652Y561553D02*X737852Y554353D01*
X730652D02*X737852Y561553D01*
X732652Y559553D02*X735852D01*
X732652D02*Y556353D01*
X735852D01*
Y559553D02*Y556353D01*
X731052Y561153D02*X737452D01*
X731052D02*Y554753D01*
X737452D01*
Y561153D02*Y554753D01*
X730652Y594053D02*X737852Y586853D01*
X730652D02*X737852Y594053D01*
X732652Y592053D02*X735852D01*
X732652D02*Y588853D01*
X735852D01*
Y592053D02*Y588853D01*
X731052Y593653D02*X737452D01*
X731052D02*Y587253D01*
X737452D01*
Y593653D02*Y587253D01*
X730652Y301553D02*X737852Y294353D01*
X730652D02*X737852Y301553D01*
X732652Y299553D02*X735852D01*
X732652D02*Y296353D01*
X735852D01*
Y299553D02*Y296353D01*
X731052Y301153D02*X737452D01*
X731052D02*Y294753D01*
X737452D01*
Y301153D02*Y294753D01*
X730652Y269053D02*X737852Y261853D01*
X730652D02*X737852Y269053D01*
X732652Y267053D02*X735852D01*
X732652D02*Y263853D01*
X735852D01*
Y267053D02*Y263853D01*
X731052Y268653D02*X737452D01*
X731052D02*Y262253D01*
X737452D01*
Y268653D02*Y262253D01*
X678487Y334131D02*X685687Y326931D01*
X678487D02*X685687Y334131D01*
X680487Y332131D02*X683687D01*
X680487D02*Y328931D01*
X683687D01*
Y332131D02*Y328931D01*
X678887Y333731D02*X685287D01*
X678887D02*Y327331D01*
X685287D01*
Y333731D02*Y327331D01*
X678487Y366631D02*X685687Y359431D01*
X678487D02*X685687Y366631D01*
X680487Y364631D02*X683687D01*
X680487D02*Y361431D01*
X683687D01*
Y364631D02*Y361431D01*
X678887Y366231D02*X685287D01*
X678887D02*Y359831D01*
X685287D01*
Y366231D02*Y359831D01*
X678487Y399131D02*X685687Y391931D01*
X678487D02*X685687Y399131D01*
X680487Y397131D02*X683687D01*
X680487D02*Y393931D01*
X683687D01*
Y397131D02*Y393931D01*
X678887Y398731D02*X685287D01*
X678887D02*Y392331D01*
X685287D01*
Y398731D02*Y392331D01*
X678487Y431631D02*X685687Y424431D01*
X678487D02*X685687Y431631D01*
X680487Y429631D02*X683687D01*
X680487D02*Y426431D01*
X683687D01*
Y429631D02*Y426431D01*
X678887Y431231D02*X685287D01*
X678887D02*Y424831D01*
X685287D01*
Y431231D02*Y424831D01*
X678487Y464131D02*X685687Y456931D01*
X678487D02*X685687Y464131D01*
X680487Y462131D02*X683687D01*
X680487D02*Y458931D01*
X683687D01*
Y462131D02*Y458931D01*
X678887Y463731D02*X685287D01*
X678887D02*Y457331D01*
X685287D01*
Y463731D02*Y457331D01*
X678487Y496631D02*X685687Y489431D01*
X678487D02*X685687Y496631D01*
X680487Y494631D02*X683687D01*
X680487D02*Y491431D01*
X683687D01*
Y494631D02*Y491431D01*
X678887Y496231D02*X685287D01*
X678887D02*Y489831D01*
X685287D01*
Y496231D02*Y489831D01*
X678487Y529131D02*X685687Y521931D01*
X678487D02*X685687Y529131D01*
X680487Y527131D02*X683687D01*
X680487D02*Y523931D01*
X683687D01*
Y527131D02*Y523931D01*
X678887Y528731D02*X685287D01*
X678887D02*Y522331D01*
X685287D01*
Y528731D02*Y522331D01*
X678487Y561631D02*X685687Y554431D01*
X678487D02*X685687Y561631D01*
X680487Y559631D02*X683687D01*
X680487D02*Y556431D01*
X683687D01*
Y559631D02*Y556431D01*
X678887Y561231D02*X685287D01*
X678887D02*Y554831D01*
X685287D01*
Y561231D02*Y554831D01*
X678487Y594131D02*X685687Y586931D01*
X678487D02*X685687Y594131D01*
X680487Y592131D02*X683687D01*
X680487D02*Y588931D01*
X683687D01*
Y592131D02*Y588931D01*
X678887Y593731D02*X685287D01*
X678887D02*Y587331D01*
X685287D01*
Y593731D02*Y587331D01*
X678487Y301631D02*X685687Y294431D01*
X678487D02*X685687Y301631D01*
X680487Y299631D02*X683687D01*
X680487D02*Y296431D01*
X683687D01*
Y299631D02*Y296431D01*
X678887Y301231D02*X685287D01*
X678887D02*Y294831D01*
X685287D01*
Y301231D02*Y294831D01*
X678487Y269131D02*X685687Y261931D01*
X678487D02*X685687Y269131D01*
X680487Y267131D02*X683687D01*
X680487D02*Y263931D01*
X683687D01*
Y267131D02*Y263931D01*
X678887Y268731D02*X685287D01*
X678887D02*Y262331D01*
X685287D01*
Y268731D02*Y262331D01*
X715888Y334053D02*X723088Y326853D01*
X715888D02*X723088Y334053D01*
X717888Y332053D02*X721088D01*
X717888D02*Y328853D01*
X721088D01*
Y332053D02*Y328853D01*
X716288Y333653D02*X722688D01*
X716288D02*Y327253D01*
X722688D01*
Y333653D02*Y327253D01*
X715888Y366553D02*X723088Y359353D01*
X715888D02*X723088Y366553D01*
X717888Y364553D02*X721088D01*
X717888D02*Y361353D01*
X721088D01*
Y364553D02*Y361353D01*
X716288Y366153D02*X722688D01*
X716288D02*Y359753D01*
X722688D01*
Y366153D02*Y359753D01*
X715888Y399053D02*X723088Y391853D01*
X715888D02*X723088Y399053D01*
X717888Y397053D02*X721088D01*
X717888D02*Y393853D01*
X721088D01*
Y397053D02*Y393853D01*
X716288Y398653D02*X722688D01*
X716288D02*Y392253D01*
X722688D01*
Y398653D02*Y392253D01*
X715888Y431553D02*X723088Y424353D01*
X715888D02*X723088Y431553D01*
X717888Y429553D02*X721088D01*
X717888D02*Y426353D01*
X721088D01*
Y429553D02*Y426353D01*
X716288Y431153D02*X722688D01*
X716288D02*Y424753D01*
X722688D01*
Y431153D02*Y424753D01*
X715888Y464053D02*X723088Y456853D01*
X715888D02*X723088Y464053D01*
X717888Y462053D02*X721088D01*
X717888D02*Y458853D01*
X721088D01*
Y462053D02*Y458853D01*
X716288Y463653D02*X722688D01*
X716288D02*Y457253D01*
X722688D01*
Y463653D02*Y457253D01*
X715888Y496553D02*X723088Y489353D01*
X715888D02*X723088Y496553D01*
X717888Y494553D02*X721088D01*
X717888D02*Y491353D01*
X721088D01*
Y494553D02*Y491353D01*
X716288Y496153D02*X722688D01*
X716288D02*Y489753D01*
X722688D01*
Y496153D02*Y489753D01*
X715888Y529053D02*X723088Y521853D01*
X715888D02*X723088Y529053D01*
X717888Y527053D02*X721088D01*
X717888D02*Y523853D01*
X721088D01*
Y527053D02*Y523853D01*
X716288Y528653D02*X722688D01*
X716288D02*Y522253D01*
X722688D01*
Y528653D02*Y522253D01*
X715888Y561553D02*X723088Y554353D01*
X715888D02*X723088Y561553D01*
X717888Y559553D02*X721088D01*
X717888D02*Y556353D01*
X721088D01*
Y559553D02*Y556353D01*
X716288Y561153D02*X722688D01*
X716288D02*Y554753D01*
X722688D01*
Y561153D02*Y554753D01*
X715888Y594053D02*X723088Y586853D01*
X715888D02*X723088Y594053D01*
X717888Y592053D02*X721088D01*
X717888D02*Y588853D01*
X721088D01*
Y592053D02*Y588853D01*
X716288Y593653D02*X722688D01*
X716288D02*Y587253D01*
X722688D01*
Y593653D02*Y587253D01*
X715888Y301553D02*X723088Y294353D01*
X715888D02*X723088Y301553D01*
X717888Y299553D02*X721088D01*
X717888D02*Y296353D01*
X721088D01*
Y299553D02*Y296353D01*
X716288Y301153D02*X722688D01*
X716288D02*Y294753D01*
X722688D01*
Y301153D02*Y294753D01*
X715888Y269053D02*X723088Y261853D01*
X715888D02*X723088Y269053D01*
X717888Y267053D02*X721088D01*
X717888D02*Y263853D01*
X721088D01*
Y267053D02*Y263853D01*
X716288Y268653D02*X722688D01*
X716288D02*Y262253D01*
X722688D01*
Y268653D02*Y262253D01*
X11400Y1844850D02*X18600Y1837650D01*
X11400D02*X18600Y1844850D01*
X13400Y1842850D02*X16600D01*
X13400D02*Y1839650D01*
X16600D01*
Y1842850D02*Y1839650D01*
X11800Y1844450D02*X18200D01*
X11800D02*Y1838050D01*
X18200D01*
Y1844450D02*Y1838050D01*
X135000Y1843500D02*X136500Y1840500D01*
X138000Y1843500D01*
X136500Y1840500D02*Y1837500D01*
X139800Y1840800D02*X142050D01*
X139800Y1837500D02*X142800D01*
X139800Y1843500D02*Y1837500D01*
Y1843500D02*X142800D01*
X147600D02*X148350Y1842750D01*
X145350Y1843500D02*X147600D01*
X144600Y1842750D02*X145350Y1843500D01*
X144600Y1842750D02*Y1841250D01*
X145350Y1840500D01*
X147600D01*
X148350Y1839750D01*
Y1838250D01*
X147600Y1837500D02*X148350Y1838250D01*
X145350Y1837500D02*X147600D01*
X144600Y1838250D02*X145350Y1837500D01*
X98000Y1842750D02*X98750Y1843500D01*
X100250D01*
X101000Y1842750D01*
X100250Y1837500D02*X101000Y1838250D01*
X98750Y1837500D02*X100250D01*
X98000Y1838250D02*X98750Y1837500D01*
Y1840800D02*X100250D01*
X101000Y1842750D02*Y1841550D01*
Y1840050D02*Y1838250D01*
Y1840050D02*X100250Y1840800D01*
X101000Y1841550D02*X100250Y1840800D01*
X102800Y1842750D02*X103550Y1843500D01*
X105050D01*
X105800Y1842750D01*
X105050Y1837500D02*X105800Y1838250D01*
X103550Y1837500D02*X105050D01*
X102800Y1838250D02*X103550Y1837500D01*
Y1840800D02*X105050D01*
X105800Y1842750D02*Y1841550D01*
Y1840050D02*Y1838250D01*
Y1840050D02*X105050Y1840800D01*
X105800Y1841550D02*X105050Y1840800D01*
X45000Y1838250D02*X45750Y1837500D01*
X45000Y1842750D02*Y1838250D01*
Y1842750D02*X45750Y1843500D01*
X47250D01*
X48000Y1842750D01*
Y1838250D01*
X47250Y1837500D02*X48000Y1838250D01*
X45750Y1837500D02*X47250D01*
X45000Y1839000D02*X48000Y1842000D01*
X49800Y1837500D02*X50550D01*
X52350Y1838250D02*X53100Y1837500D01*
X52350Y1842750D02*Y1838250D01*
Y1842750D02*X53100Y1843500D01*
X54600D01*
X55350Y1842750D01*
Y1838250D01*
X54600Y1837500D02*X55350Y1838250D01*
X53100Y1837500D02*X54600D01*
X52350Y1839000D02*X55350Y1842000D01*
X57150Y1838250D02*X57900Y1837500D01*
X57150Y1839450D02*Y1838250D01*
Y1839450D02*X58200Y1840500D01*
X59100D01*
X60150Y1839450D01*
Y1838250D01*
X59400Y1837500D02*X60150Y1838250D01*
X57900Y1837500D02*X59400D01*
X57150Y1841550D02*X58200Y1840500D01*
X57150Y1842750D02*Y1841550D01*
Y1842750D02*X57900Y1843500D01*
X59400D01*
X60150Y1842750D01*
Y1841550D01*
X59100Y1840500D02*X60150Y1841550D01*
X62700Y1837500D02*X64950Y1840500D01*
Y1842750D02*Y1840500D01*
X64200Y1843500D02*X64950Y1842750D01*
X62700Y1843500D02*X64200D01*
X61950Y1842750D02*X62700Y1843500D01*
X61950Y1842750D02*Y1841250D01*
X62700Y1840500D01*
X64950D01*
X791339Y611887D02*Y602287D01*
X786539Y607087D02*X796139D01*
X789739Y608687D02*X792939D01*
X789739D02*Y605487D01*
X792939D01*
Y608687D02*Y605487D01*
X788139Y610287D02*X794539D01*
X788139D02*Y603887D01*
X794539D01*
Y610287D02*Y603887D01*
X791339Y596139D02*Y586539D01*
X786539Y591339D02*X796139D01*
X789739Y592939D02*X792939D01*
X789739D02*Y589739D01*
X792939D01*
Y592939D02*Y589739D01*
X788139Y594539D02*X794539D01*
X788139D02*Y588139D01*
X794539D01*
Y594539D02*Y588139D01*
X791339Y580391D02*Y570791D01*
X786539Y575591D02*X796139D01*
X789739Y577191D02*X792939D01*
X789739D02*Y573991D01*
X792939D01*
Y577191D02*Y573991D01*
X788139Y578791D02*X794539D01*
X788139D02*Y572391D01*
X794539D01*
Y578791D02*Y572391D01*
X791339Y564643D02*Y555043D01*
X786539Y559843D02*X796139D01*
X789739Y561443D02*X792939D01*
X789739D02*Y558243D01*
X792939D01*
Y561443D02*Y558243D01*
X788139Y563043D02*X794539D01*
X788139D02*Y556643D01*
X794539D01*
Y563043D02*Y556643D01*
X791339Y233934D02*Y224334D01*
X786539Y229134D02*X796139D01*
X789739Y230734D02*X792939D01*
X789739D02*Y227534D01*
X792939D01*
Y230734D02*Y227534D01*
X788139Y232334D02*X794539D01*
X788139D02*Y225934D01*
X794539D01*
Y232334D02*Y225934D01*
X791339Y375666D02*Y366066D01*
X786539Y370866D02*X796139D01*
X789739Y372466D02*X792939D01*
X789739D02*Y369266D01*
X792939D01*
Y372466D02*Y369266D01*
X788139Y374066D02*X794539D01*
X788139D02*Y367666D01*
X794539D01*
Y374066D02*Y367666D01*
X791339Y359918D02*Y350318D01*
X786539Y355118D02*X796139D01*
X789739Y356718D02*X792939D01*
X789739D02*Y353518D01*
X792939D01*
Y356718D02*Y353518D01*
X788139Y358318D02*X794539D01*
X788139D02*Y351918D01*
X794539D01*
Y358318D02*Y351918D01*
X791339Y344170D02*Y334570D01*
X786539Y339370D02*X796139D01*
X789739Y340970D02*X792939D01*
X789739D02*Y337770D01*
X792939D01*
Y340970D02*Y337770D01*
X788139Y342570D02*X794539D01*
X788139D02*Y336170D01*
X794539D01*
Y342570D02*Y336170D01*
X791339Y485902D02*Y476302D01*
X786539Y481102D02*X796139D01*
X789739Y482702D02*X792939D01*
X789739D02*Y479502D01*
X792939D01*
Y482702D02*Y479502D01*
X788139Y484302D02*X794539D01*
X788139D02*Y477902D01*
X794539D01*
Y484302D02*Y477902D01*
X791339Y470154D02*Y460554D01*
X786539Y465354D02*X796139D01*
X789739Y466954D02*X792939D01*
X789739D02*Y463754D01*
X792939D01*
Y466954D02*Y463754D01*
X788139Y468554D02*X794539D01*
X788139D02*Y462154D01*
X794539D01*
Y468554D02*Y462154D01*
X791339Y454406D02*Y444806D01*
X786539Y449606D02*X796139D01*
X789739Y451206D02*X792939D01*
X789739D02*Y448006D01*
X792939D01*
Y451206D02*Y448006D01*
X788139Y452806D02*X794539D01*
X788139D02*Y446406D01*
X794539D01*
Y452806D02*Y446406D01*
X791339Y438658D02*Y429058D01*
X786539Y433858D02*X796139D01*
X789739Y435458D02*X792939D01*
X789739D02*Y432258D01*
X792939D01*
Y435458D02*Y432258D01*
X788139Y437058D02*X794539D01*
X788139D02*Y430658D01*
X794539D01*
Y437058D02*Y430658D01*
X791339Y422910D02*Y413310D01*
X786539Y418110D02*X796139D01*
X789739Y419710D02*X792939D01*
X789739D02*Y416510D01*
X792939D01*
Y419710D02*Y416510D01*
X788139Y421310D02*X794539D01*
X788139D02*Y414910D01*
X794539D01*
Y421310D02*Y414910D01*
X791339Y407162D02*Y397562D01*
X786539Y402362D02*X796139D01*
X789739Y403962D02*X792939D01*
X789739D02*Y400762D01*
X792939D01*
Y403962D02*Y400762D01*
X788139Y405562D02*X794539D01*
X788139D02*Y399162D01*
X794539D01*
Y405562D02*Y399162D01*
X791339Y328422D02*Y318822D01*
X786539Y323622D02*X796139D01*
X789739Y325222D02*X792939D01*
X789739D02*Y322022D01*
X792939D01*
Y325222D02*Y322022D01*
X788139Y326822D02*X794539D01*
X788139D02*Y320422D01*
X794539D01*
Y326822D02*Y320422D01*
X791339Y312674D02*Y303074D01*
X786539Y307874D02*X796139D01*
X789739Y309474D02*X792939D01*
X789739D02*Y306274D01*
X792939D01*
Y309474D02*Y306274D01*
X788139Y311074D02*X794539D01*
X788139D02*Y304674D01*
X794539D01*
Y311074D02*Y304674D01*
X791339Y296926D02*Y287326D01*
X786539Y292126D02*X796139D01*
X789739Y293726D02*X792939D01*
X789739D02*Y290526D01*
X792939D01*
Y293726D02*Y290526D01*
X788139Y295326D02*X794539D01*
X788139D02*Y288926D01*
X794539D01*
Y295326D02*Y288926D01*
X791339Y281178D02*Y271578D01*
X786539Y276378D02*X796139D01*
X789739Y277978D02*X792939D01*
X789739D02*Y274778D01*
X792939D01*
Y277978D02*Y274778D01*
X788139Y279578D02*X794539D01*
X788139D02*Y273178D01*
X794539D01*
Y279578D02*Y273178D01*
X791339Y265430D02*Y255830D01*
X786539Y260630D02*X796139D01*
X789739Y262230D02*X792939D01*
X789739D02*Y259030D01*
X792939D01*
Y262230D02*Y259030D01*
X788139Y263830D02*X794539D01*
X788139D02*Y257430D01*
X794539D01*
Y263830D02*Y257430D01*
X791339Y249682D02*Y240082D01*
X786539Y244882D02*X796139D01*
X789739Y246482D02*X792939D01*
X789739D02*Y243282D01*
X792939D01*
Y246482D02*Y243282D01*
X788139Y248082D02*X794539D01*
X788139D02*Y241682D01*
X794539D01*
Y248082D02*Y241682D01*
X791339Y391414D02*Y381814D01*
X786539Y386614D02*X796139D01*
X789739Y388214D02*X792939D01*
X789739D02*Y385014D01*
X792939D01*
Y388214D02*Y385014D01*
X788139Y389814D02*X794539D01*
X788139D02*Y383414D01*
X794539D01*
Y389814D02*Y383414D01*
X791339Y501650D02*Y492050D01*
X786539Y496850D02*X796139D01*
X789739Y498450D02*X792939D01*
X789739D02*Y495250D01*
X792939D01*
Y498450D02*Y495250D01*
X788139Y500050D02*X794539D01*
X788139D02*Y493650D01*
X794539D01*
Y500050D02*Y493650D01*
X791339Y517398D02*Y507798D01*
X786539Y512598D02*X796139D01*
X789739Y514198D02*X792939D01*
X789739D02*Y510998D01*
X792939D01*
Y514198D02*Y510998D01*
X788139Y515798D02*X794539D01*
X788139D02*Y509398D01*
X794539D01*
Y515798D02*Y509398D01*
X791339Y533146D02*Y523546D01*
X786539Y528346D02*X796139D01*
X789739Y529946D02*X792939D01*
X789739D02*Y526746D01*
X792939D01*
Y529946D02*Y526746D01*
X788139Y531546D02*X794539D01*
X788139D02*Y525146D01*
X794539D01*
Y531546D02*Y525146D01*
X791339Y548894D02*Y539294D01*
X786539Y544094D02*X796139D01*
X789739Y545694D02*X792939D01*
X789739D02*Y542494D01*
X792939D01*
Y545694D02*Y542494D01*
X788139Y547294D02*X794539D01*
X788139D02*Y540894D01*
X794539D01*
Y547294D02*Y540894D01*
X523622Y590233D02*Y580633D01*
X518822Y585433D02*X528422D01*
X522022Y587033D02*X525222D01*
X522022D02*Y583833D01*
X525222D01*
Y587033D02*Y583833D01*
X520422Y588633D02*X526822D01*
X520422D02*Y582233D01*
X526822D01*
Y588633D02*Y582233D01*
X488189Y527241D02*Y517641D01*
X483389Y522441D02*X492989D01*
X486589Y524041D02*X489789D01*
X486589D02*Y520841D01*
X489789D01*
Y524041D02*Y520841D01*
X484989Y525641D02*X491389D01*
X484989D02*Y519241D01*
X491389D01*
Y525641D02*Y519241D01*
X488189Y542989D02*Y533389D01*
X483389Y538189D02*X492989D01*
X486589Y539789D02*X489789D01*
X486589D02*Y536589D01*
X489789D01*
Y539789D02*Y536589D01*
X484989Y541389D02*X491389D01*
X484989D02*Y534989D01*
X491389D01*
Y541389D02*Y534989D01*
X559055Y542989D02*Y533389D01*
X554255Y538189D02*X563855D01*
X557455Y539789D02*X560655D01*
X557455D02*Y536589D01*
X560655D01*
Y539789D02*Y536589D01*
X555855Y541389D02*X562255D01*
X555855D02*Y534989D01*
X562255D01*
Y541389D02*Y534989D01*
X559055Y527241D02*Y517641D01*
X554255Y522441D02*X563855D01*
X557455Y524041D02*X560655D01*
X557455D02*Y520841D01*
X560655D01*
Y524041D02*Y520841D01*
X555855Y525641D02*X562255D01*
X555855D02*Y519241D01*
X562255D01*
Y525641D02*Y519241D01*
X574803Y527241D02*Y517641D01*
X570003Y522441D02*X579603D01*
X573203Y524041D02*X576403D01*
X573203D02*Y520841D01*
X576403D01*
Y524041D02*Y520841D01*
X571603Y525641D02*X578003D01*
X571603D02*Y519241D01*
X578003D01*
Y525641D02*Y519241D01*
X574803Y542989D02*Y533389D01*
X570003Y538189D02*X579603D01*
X573203Y539789D02*X576403D01*
X573203D02*Y536589D01*
X576403D01*
Y539789D02*Y536589D01*
X571603Y541389D02*X578003D01*
X571603D02*Y534989D01*
X578003D01*
Y541389D02*Y534989D01*
X645669Y542989D02*Y533389D01*
X640869Y538189D02*X650469D01*
X644069Y539789D02*X647269D01*
X644069D02*Y536589D01*
X647269D01*
Y539789D02*Y536589D01*
X642469Y541389D02*X648869D01*
X642469D02*Y534989D01*
X648869D01*
Y541389D02*Y534989D01*
X645669Y527241D02*Y517641D01*
X640869Y522441D02*X650469D01*
X644069Y524041D02*X647269D01*
X644069D02*Y520841D01*
X647269D01*
Y524041D02*Y520841D01*
X642469Y525641D02*X648869D01*
X642469D02*Y519241D01*
X648869D01*
Y525641D02*Y519241D01*
X610236Y590233D02*Y580633D01*
X605436Y585433D02*X615036D01*
X608636Y587033D02*X611836D01*
X608636D02*Y583833D01*
X611836D01*
Y587033D02*Y583833D01*
X607036Y588633D02*X613436D01*
X607036D02*Y582233D01*
X613436D01*
Y588633D02*Y582233D01*
X15000Y1861050D02*Y1851450D01*
X10200Y1856250D02*X19800D01*
X13400Y1857850D02*X16600D01*
X13400D02*Y1854650D01*
X16600D01*
Y1857850D02*Y1854650D01*
X11800Y1859450D02*X18200D01*
X11800D02*Y1853050D01*
X18200D01*
Y1859450D02*Y1853050D01*
X135000Y1858500D02*X136500Y1855500D01*
X138000Y1858500D01*
X136500Y1855500D02*Y1852500D01*
X139800Y1855800D02*X142050D01*
X139800Y1852500D02*X142800D01*
X139800Y1858500D02*Y1852500D01*
Y1858500D02*X142800D01*
X147600D02*X148350Y1857750D01*
X145350Y1858500D02*X147600D01*
X144600Y1857750D02*X145350Y1858500D01*
X144600Y1857750D02*Y1856250D01*
X145350Y1855500D01*
X147600D01*
X148350Y1854750D01*
Y1853250D01*
X147600Y1852500D02*X148350Y1853250D01*
X145350Y1852500D02*X147600D01*
X144600Y1853250D02*X145350Y1852500D01*
X98000Y1857750D02*X98750Y1858500D01*
X100250D01*
X101000Y1857750D01*
X100250Y1852500D02*X101000Y1853250D01*
X98750Y1852500D02*X100250D01*
X98000Y1853250D02*X98750Y1852500D01*
Y1855800D02*X100250D01*
X101000Y1857750D02*Y1856550D01*
Y1855050D02*Y1853250D01*
Y1855050D02*X100250Y1855800D01*
X101000Y1856550D02*X100250Y1855800D01*
X102800Y1858500D02*X105800D01*
X102800D02*Y1855500D01*
X103550Y1856250D01*
X105050D01*
X105800Y1855500D01*
Y1853250D01*
X105050Y1852500D02*X105800Y1853250D01*
X103550Y1852500D02*X105050D01*
X102800Y1853250D02*X103550Y1852500D01*
X45000Y1853250D02*X45750Y1852500D01*
X45000Y1857750D02*Y1853250D01*
Y1857750D02*X45750Y1858500D01*
X47250D01*
X48000Y1857750D01*
Y1853250D01*
X47250Y1852500D02*X48000Y1853250D01*
X45750Y1852500D02*X47250D01*
X45000Y1854000D02*X48000Y1857000D01*
X49800Y1852500D02*X50550D01*
X52350Y1853250D02*X53100Y1852500D01*
X52350Y1857750D02*Y1853250D01*
Y1857750D02*X53100Y1858500D01*
X54600D01*
X55350Y1857750D01*
Y1853250D01*
X54600Y1852500D02*X55350Y1853250D01*
X53100Y1852500D02*X54600D01*
X52350Y1854000D02*X55350Y1857000D01*
X57900Y1852500D02*X60900Y1858500D01*
X57150D02*X60900D01*
X63450Y1852500D02*X65700Y1855500D01*
Y1857750D02*Y1855500D01*
X64950Y1858500D02*X65700Y1857750D01*
X63450Y1858500D02*X64950D01*
X62700Y1857750D02*X63450Y1858500D01*
X62700Y1857750D02*Y1856250D01*
X63450Y1855500D01*
X65700D01*
X671260Y503740D02*Y498940D01*
Y503740D02*X675420Y506140D01*
X671260Y503740D02*X667100Y506140D01*
X669660Y503740D02*G75*G03X672860Y503740I1600J0D01*G01*
G75*G03X669660Y503740I-1600J0D01*G01*
X668060D02*G75*G03X674460Y503740I3200J0D01*G01*
G75*G03X668060Y503740I-3200J0D01*G01*
X671260Y484055D02*Y479255D01*
Y484055D02*X675420Y486455D01*
X671260Y484055D02*X667100Y486455D01*
X669660Y484055D02*G75*G03X672860Y484055I1600J0D01*G01*
G75*G03X669660Y484055I-1600J0D01*G01*
X668060D02*G75*G03X674460Y484055I3200J0D01*G01*
G75*G03X668060Y484055I-3200J0D01*G01*
X671260Y464370D02*Y459570D01*
Y464370D02*X675420Y466770D01*
X671260Y464370D02*X667100Y466770D01*
X669660Y464370D02*G75*G03X672860Y464370I1600J0D01*G01*
G75*G03X669660Y464370I-1600J0D01*G01*
X668060D02*G75*G03X674460Y464370I3200J0D01*G01*
G75*G03X668060Y464370I-3200J0D01*G01*
X671260Y444685D02*Y439885D01*
Y444685D02*X675420Y447085D01*
X671260Y444685D02*X667100Y447085D01*
X669660Y444685D02*G75*G03X672860Y444685I1600J0D01*G01*
G75*G03X669660Y444685I-1600J0D01*G01*
X668060D02*G75*G03X674460Y444685I3200J0D01*G01*
G75*G03X668060Y444685I-3200J0D01*G01*
X671260Y425000D02*Y420200D01*
Y425000D02*X675420Y427400D01*
X671260Y425000D02*X667100Y427400D01*
X669660Y425000D02*G75*G03X672860Y425000I1600J0D01*G01*
G75*G03X669660Y425000I-1600J0D01*G01*
X668060D02*G75*G03X674460Y425000I3200J0D01*G01*
G75*G03X668060Y425000I-3200J0D01*G01*
X671260Y405315D02*Y400515D01*
Y405315D02*X675420Y407715D01*
X671260Y405315D02*X667100Y407715D01*
X669660Y405315D02*G75*G03X672860Y405315I1600J0D01*G01*
G75*G03X669660Y405315I-1600J0D01*G01*
X668060D02*G75*G03X674460Y405315I3200J0D01*G01*
G75*G03X668060Y405315I-3200J0D01*G01*
X671260Y385630D02*Y380830D01*
Y385630D02*X675420Y388030D01*
X671260Y385630D02*X667100Y388030D01*
X669660Y385630D02*G75*G03X672860Y385630I1600J0D01*G01*
G75*G03X669660Y385630I-1600J0D01*G01*
X668060D02*G75*G03X674460Y385630I3200J0D01*G01*
G75*G03X668060Y385630I-3200J0D01*G01*
X671260Y365945D02*Y361145D01*
Y365945D02*X675420Y368345D01*
X671260Y365945D02*X667100Y368345D01*
X669660Y365945D02*G75*G03X672860Y365945I1600J0D01*G01*
G75*G03X669660Y365945I-1600J0D01*G01*
X668060D02*G75*G03X674460Y365945I3200J0D01*G01*
G75*G03X668060Y365945I-3200J0D01*G01*
X671260Y346260D02*Y341460D01*
Y346260D02*X675420Y348660D01*
X671260Y346260D02*X667100Y348660D01*
X669660Y346260D02*G75*G03X672860Y346260I1600J0D01*G01*
G75*G03X669660Y346260I-1600J0D01*G01*
X668060D02*G75*G03X674460Y346260I3200J0D01*G01*
G75*G03X668060Y346260I-3200J0D01*G01*
X633858Y503740D02*Y498940D01*
Y503740D02*X638018Y506140D01*
X633858Y503740D02*X629698Y506140D01*
X632258Y503740D02*G75*G03X635458Y503740I1600J0D01*G01*
G75*G03X632258Y503740I-1600J0D01*G01*
X630658D02*G75*G03X637058Y503740I3200J0D01*G01*
G75*G03X630658Y503740I-3200J0D01*G01*
X633858Y484055D02*Y479255D01*
Y484055D02*X638018Y486455D01*
X633858Y484055D02*X629698Y486455D01*
X632258Y484055D02*G75*G03X635458Y484055I1600J0D01*G01*
G75*G03X632258Y484055I-1600J0D01*G01*
X630658D02*G75*G03X637058Y484055I3200J0D01*G01*
G75*G03X630658Y484055I-3200J0D01*G01*
X633858Y464370D02*Y459570D01*
Y464370D02*X638018Y466770D01*
X633858Y464370D02*X629698Y466770D01*
X632258Y464370D02*G75*G03X635458Y464370I1600J0D01*G01*
G75*G03X632258Y464370I-1600J0D01*G01*
X630658D02*G75*G03X637058Y464370I3200J0D01*G01*
G75*G03X630658Y464370I-3200J0D01*G01*
X633858Y444685D02*Y439885D01*
Y444685D02*X638018Y447085D01*
X633858Y444685D02*X629698Y447085D01*
X632258Y444685D02*G75*G03X635458Y444685I1600J0D01*G01*
G75*G03X632258Y444685I-1600J0D01*G01*
X630658D02*G75*G03X637058Y444685I3200J0D01*G01*
G75*G03X630658Y444685I-3200J0D01*G01*
X633858Y425000D02*Y420200D01*
Y425000D02*X638018Y427400D01*
X633858Y425000D02*X629698Y427400D01*
X632258Y425000D02*G75*G03X635458Y425000I1600J0D01*G01*
G75*G03X632258Y425000I-1600J0D01*G01*
X630658D02*G75*G03X637058Y425000I3200J0D01*G01*
G75*G03X630658Y425000I-3200J0D01*G01*
X633858Y405315D02*Y400515D01*
Y405315D02*X638018Y407715D01*
X633858Y405315D02*X629698Y407715D01*
X632258Y405315D02*G75*G03X635458Y405315I1600J0D01*G01*
G75*G03X632258Y405315I-1600J0D01*G01*
X630658D02*G75*G03X637058Y405315I3200J0D01*G01*
G75*G03X630658Y405315I-3200J0D01*G01*
X633858Y385630D02*Y380830D01*
Y385630D02*X638018Y388030D01*
X633858Y385630D02*X629698Y388030D01*
X632258Y385630D02*G75*G03X635458Y385630I1600J0D01*G01*
G75*G03X632258Y385630I-1600J0D01*G01*
X630658D02*G75*G03X637058Y385630I3200J0D01*G01*
G75*G03X630658Y385630I-3200J0D01*G01*
X633858Y365945D02*Y361145D01*
Y365945D02*X638018Y368345D01*
X633858Y365945D02*X629698Y368345D01*
X632258Y365945D02*G75*G03X635458Y365945I1600J0D01*G01*
G75*G03X632258Y365945I-1600J0D01*G01*
X630658D02*G75*G03X637058Y365945I3200J0D01*G01*
G75*G03X630658Y365945I-3200J0D01*G01*
X633858Y346260D02*Y341460D01*
Y346260D02*X638018Y348660D01*
X633858Y346260D02*X629698Y348660D01*
X632258Y346260D02*G75*G03X635458Y346260I1600J0D01*G01*
G75*G03X632258Y346260I-1600J0D01*G01*
X630658D02*G75*G03X637058Y346260I3200J0D01*G01*
G75*G03X630658Y346260I-3200J0D01*G01*
X594488Y503740D02*Y498940D01*
Y503740D02*X598648Y506140D01*
X594488Y503740D02*X590328Y506140D01*
X592888Y503740D02*G75*G03X596088Y503740I1600J0D01*G01*
G75*G03X592888Y503740I-1600J0D01*G01*
X591288D02*G75*G03X597688Y503740I3200J0D01*G01*
G75*G03X591288Y503740I-3200J0D01*G01*
X594488Y484055D02*Y479255D01*
Y484055D02*X598648Y486455D01*
X594488Y484055D02*X590328Y486455D01*
X592888Y484055D02*G75*G03X596088Y484055I1600J0D01*G01*
G75*G03X592888Y484055I-1600J0D01*G01*
X591288D02*G75*G03X597688Y484055I3200J0D01*G01*
G75*G03X591288Y484055I-3200J0D01*G01*
X594488Y464370D02*Y459570D01*
Y464370D02*X598648Y466770D01*
X594488Y464370D02*X590328Y466770D01*
X592888Y464370D02*G75*G03X596088Y464370I1600J0D01*G01*
G75*G03X592888Y464370I-1600J0D01*G01*
X591288D02*G75*G03X597688Y464370I3200J0D01*G01*
G75*G03X591288Y464370I-3200J0D01*G01*
X594488Y444685D02*Y439885D01*
Y444685D02*X598648Y447085D01*
X594488Y444685D02*X590328Y447085D01*
X592888Y444685D02*G75*G03X596088Y444685I1600J0D01*G01*
G75*G03X592888Y444685I-1600J0D01*G01*
X591288D02*G75*G03X597688Y444685I3200J0D01*G01*
G75*G03X591288Y444685I-3200J0D01*G01*
X594488Y425000D02*Y420200D01*
Y425000D02*X598648Y427400D01*
X594488Y425000D02*X590328Y427400D01*
X592888Y425000D02*G75*G03X596088Y425000I1600J0D01*G01*
G75*G03X592888Y425000I-1600J0D01*G01*
X591288D02*G75*G03X597688Y425000I3200J0D01*G01*
G75*G03X591288Y425000I-3200J0D01*G01*
X594488Y405315D02*Y400515D01*
Y405315D02*X598648Y407715D01*
X594488Y405315D02*X590328Y407715D01*
X592888Y405315D02*G75*G03X596088Y405315I1600J0D01*G01*
G75*G03X592888Y405315I-1600J0D01*G01*
X591288D02*G75*G03X597688Y405315I3200J0D01*G01*
G75*G03X591288Y405315I-3200J0D01*G01*
X594488Y385630D02*Y380830D01*
Y385630D02*X598648Y388030D01*
X594488Y385630D02*X590328Y388030D01*
X592888Y385630D02*G75*G03X596088Y385630I1600J0D01*G01*
G75*G03X592888Y385630I-1600J0D01*G01*
X591288D02*G75*G03X597688Y385630I3200J0D01*G01*
G75*G03X591288Y385630I-3200J0D01*G01*
X594488Y365945D02*Y361145D01*
Y365945D02*X598648Y368345D01*
X594488Y365945D02*X590328Y368345D01*
X592888Y365945D02*G75*G03X596088Y365945I1600J0D01*G01*
G75*G03X592888Y365945I-1600J0D01*G01*
X591288D02*G75*G03X597688Y365945I3200J0D01*G01*
G75*G03X591288Y365945I-3200J0D01*G01*
X594488Y346260D02*Y341460D01*
Y346260D02*X598648Y348660D01*
X594488Y346260D02*X590328Y348660D01*
X592888Y346260D02*G75*G03X596088Y346260I1600J0D01*G01*
G75*G03X592888Y346260I-1600J0D01*G01*
X591288D02*G75*G03X597688Y346260I3200J0D01*G01*
G75*G03X591288Y346260I-3200J0D01*G01*
X15000Y1871250D02*Y1866450D01*
Y1871250D02*X19160Y1873650D01*
X15000Y1871250D02*X10840Y1873650D01*
X13400Y1871250D02*G75*G03X16600Y1871250I1600J0D01*G01*
G75*G03X13400Y1871250I-1600J0D01*G01*
X11800D02*G75*G03X18200Y1871250I3200J0D01*G01*
G75*G03X11800Y1871250I-3200J0D01*G01*
X135000Y1873500D02*X136500Y1870500D01*
X138000Y1873500D01*
X136500Y1870500D02*Y1867500D01*
X139800Y1870800D02*X142050D01*
X139800Y1867500D02*X142800D01*
X139800Y1873500D02*Y1867500D01*
Y1873500D02*X142800D01*
X147600D02*X148350Y1872750D01*
X145350Y1873500D02*X147600D01*
X144600Y1872750D02*X145350Y1873500D01*
X144600Y1872750D02*Y1871250D01*
X145350Y1870500D01*
X147600D01*
X148350Y1869750D01*
Y1868250D01*
X147600Y1867500D02*X148350Y1868250D01*
X145350Y1867500D02*X147600D01*
X144600Y1868250D02*X145350Y1867500D01*
X98000Y1872750D02*X98750Y1873500D01*
X101000D01*
X101750Y1872750D01*
Y1871250D01*
X98000Y1867500D02*X101750Y1871250D01*
X98000Y1867500D02*X101750D01*
X104300D02*X107300Y1873500D01*
X103550D02*X107300D01*
X45000Y1868250D02*X45750Y1867500D01*
X45000Y1872750D02*Y1868250D01*
Y1872750D02*X45750Y1873500D01*
X47250D01*
X48000Y1872750D01*
Y1868250D01*
X47250Y1867500D02*X48000Y1868250D01*
X45750Y1867500D02*X47250D01*
X45000Y1869000D02*X48000Y1872000D01*
X49800Y1867500D02*X50550D01*
X52350Y1868250D02*X53100Y1867500D01*
X52350Y1872750D02*Y1868250D01*
Y1872750D02*X53100Y1873500D01*
X54600D01*
X55350Y1872750D01*
Y1868250D01*
X54600Y1867500D02*X55350Y1868250D01*
X53100Y1867500D02*X54600D01*
X52350Y1869000D02*X55350Y1872000D01*
X59400Y1873500D02*X60150Y1872750D01*
X57900Y1873500D02*X59400D01*
X57150Y1872750D02*X57900Y1873500D01*
X57150Y1872750D02*Y1868250D01*
X57900Y1867500D01*
X59400Y1870800D02*X60150Y1870050D01*
X57150Y1870800D02*X59400D01*
X57900Y1867500D02*X59400D01*
X60150Y1868250D01*
Y1870050D02*Y1868250D01*
X61950Y1872750D02*X62700Y1873500D01*
X64200D01*
X64950Y1872750D01*
X64200Y1867500D02*X64950Y1868250D01*
X62700Y1867500D02*X64200D01*
X61950Y1868250D02*X62700Y1867500D01*
Y1870800D02*X64200D01*
X64950Y1872750D02*Y1871550D01*
Y1870050D02*Y1868250D01*
Y1870050D02*X64200Y1870800D01*
X64950Y1871550D02*X64200Y1870800D01*
X521904Y328387D02*X525104D01*
X521904D02*Y325187D01*
X525104D01*
Y328387D02*Y325187D01*
X520304Y329987D02*X526704D01*
X520304D02*Y323587D01*
X526704D01*
Y329987D02*Y323587D01*
X521904Y378781D02*X525104D01*
X521904D02*Y375581D01*
X525104D01*
Y378781D02*Y375581D01*
X520304Y380381D02*X526704D01*
X520304D02*Y373981D01*
X526704D01*
Y380381D02*Y373981D01*
X521904Y458387D02*X525104D01*
X521904D02*Y455187D01*
X525104D01*
Y458387D02*Y455187D01*
X520304Y459987D02*X526704D01*
X520304D02*Y453587D01*
X526704D01*
Y459987D02*Y453587D01*
X521904Y508781D02*X525104D01*
X521904D02*Y505581D01*
X525104D01*
Y508781D02*Y505581D01*
X520304Y510381D02*X526704D01*
X520304D02*Y503981D01*
X526704D01*
Y510381D02*Y503981D01*
X521904Y393387D02*X525104D01*
X521904D02*Y390187D01*
X525104D01*
Y393387D02*Y390187D01*
X520304Y394987D02*X526704D01*
X520304D02*Y388587D01*
X526704D01*
Y394987D02*Y388587D01*
X521904Y443781D02*X525104D01*
X521904D02*Y440581D01*
X525104D01*
Y443781D02*Y440581D01*
X520304Y445381D02*X526704D01*
X520304D02*Y438981D01*
X526704D01*
Y445381D02*Y438981D01*
X434896Y378781D02*X438096D01*
X434896D02*Y375581D01*
X438096D01*
Y378781D02*Y375581D01*
X433296Y380381D02*X439696D01*
X433296D02*Y373981D01*
X439696D01*
Y380381D02*Y373981D01*
X434896Y328387D02*X438096D01*
X434896D02*Y325187D01*
X438096D01*
Y328387D02*Y325187D01*
X433296Y329987D02*X439696D01*
X433296D02*Y323587D01*
X439696D01*
Y329987D02*Y323587D01*
X434896Y508781D02*X438096D01*
X434896D02*Y505581D01*
X438096D01*
Y508781D02*Y505581D01*
X433296Y510381D02*X439696D01*
X433296D02*Y503981D01*
X439696D01*
Y510381D02*Y503981D01*
X434896Y458387D02*X438096D01*
X434896D02*Y455187D01*
X438096D01*
Y458387D02*Y455187D01*
X433296Y459987D02*X439696D01*
X433296D02*Y453587D01*
X439696D01*
Y459987D02*Y453587D01*
X434896Y443781D02*X438096D01*
X434896D02*Y440581D01*
X438096D01*
Y443781D02*Y440581D01*
X433296Y445381D02*X439696D01*
X433296D02*Y438981D01*
X439696D01*
Y445381D02*Y438981D01*
X434896Y393387D02*X438096D01*
X434896D02*Y390187D01*
X438096D01*
Y393387D02*Y390187D01*
X433296Y394987D02*X439696D01*
X433296D02*Y388587D01*
X439696D01*
Y394987D02*Y388587D01*
X13400Y1887850D02*X16600D01*
X13400D02*Y1884650D01*
X16600D01*
Y1887850D02*Y1884650D01*
X11800Y1889450D02*X18200D01*
X11800D02*Y1883050D01*
X18200D01*
Y1889450D02*Y1883050D01*
X135000Y1888500D02*X136500Y1885500D01*
X138000Y1888500D01*
X136500Y1885500D02*Y1882500D01*
X139800Y1885800D02*X142050D01*
X139800Y1882500D02*X142800D01*
X139800Y1888500D02*Y1882500D01*
Y1888500D02*X142800D01*
X147600D02*X148350Y1887750D01*
X145350Y1888500D02*X147600D01*
X144600Y1887750D02*X145350Y1888500D01*
X144600Y1887750D02*Y1886250D01*
X145350Y1885500D01*
X147600D01*
X148350Y1884750D01*
Y1883250D01*
X147600Y1882500D02*X148350Y1883250D01*
X145350Y1882500D02*X147600D01*
X144600Y1883250D02*X145350Y1882500D01*
X98000Y1887300D02*X99200Y1888500D01*
Y1882500D01*
X98000D02*X100250D01*
X102050Y1887750D02*X102800Y1888500D01*
X105050D01*
X105800Y1887750D01*
Y1886250D01*
X102050Y1882500D02*X105800Y1886250D01*
X102050Y1882500D02*X105800D01*
X45000Y1883250D02*X45750Y1882500D01*
X45000Y1887750D02*Y1883250D01*
Y1887750D02*X45750Y1888500D01*
X47250D01*
X48000Y1887750D01*
Y1883250D01*
X47250Y1882500D02*X48000Y1883250D01*
X45750Y1882500D02*X47250D01*
X45000Y1884000D02*X48000Y1887000D01*
X49800Y1882500D02*X50550D01*
X52350Y1883250D02*X53100Y1882500D01*
X52350Y1887750D02*Y1883250D01*
Y1887750D02*X53100Y1888500D01*
X54600D01*
X55350Y1887750D01*
Y1883250D01*
X54600Y1882500D02*X55350Y1883250D01*
X53100Y1882500D02*X54600D01*
X52350Y1884000D02*X55350Y1887000D01*
X57150Y1888500D02*X60150D01*
X57150D02*Y1885500D01*
X57900Y1886250D01*
X59400D01*
X60150Y1885500D01*
Y1883250D01*
X59400Y1882500D02*X60150Y1883250D01*
X57900Y1882500D02*X59400D01*
X57150Y1883250D02*X57900Y1882500D01*
X61950Y1887300D02*X63150Y1888500D01*
Y1882500D01*
X61950D02*X64200D01*
X794082Y599606D02*G75*G03X795682Y599606I800J0D01*G01*
G75*G03X794082Y599606I-800J0D01*G01*
X792482D02*G75*G03X797282Y599606I2400J0D01*G01*
G75*G03X792482Y599606I-2400J0D01*G01*
X794082Y583858D02*G75*G03X795682Y583858I800J0D01*G01*
G75*G03X794082Y583858I-800J0D01*G01*
X792482D02*G75*G03X797282Y583858I2400J0D01*G01*
G75*G03X792482Y583858I-2400J0D01*G01*
X794082Y568110D02*G75*G03X795682Y568110I800J0D01*G01*
G75*G03X794082Y568110I-800J0D01*G01*
X792482D02*G75*G03X797282Y568110I2400J0D01*G01*
G75*G03X792482Y568110I-2400J0D01*G01*
X794082Y552362D02*G75*G03X795682Y552362I800J0D01*G01*
G75*G03X794082Y552362I-800J0D01*G01*
X792482D02*G75*G03X797282Y552362I2400J0D01*G01*
G75*G03X792482Y552362I-2400J0D01*G01*
X794082Y221654D02*G75*G03X795682Y221654I800J0D01*G01*
G75*G03X794082Y221654I-800J0D01*G01*
X792482D02*G75*G03X797282Y221654I2400J0D01*G01*
G75*G03X792482Y221654I-2400J0D01*G01*
X794082Y363386D02*G75*G03X795682Y363386I800J0D01*G01*
G75*G03X794082Y363386I-800J0D01*G01*
X792482D02*G75*G03X797282Y363386I2400J0D01*G01*
G75*G03X792482Y363386I-2400J0D01*G01*
X794082Y347638D02*G75*G03X795682Y347638I800J0D01*G01*
G75*G03X794082Y347638I-800J0D01*G01*
X792482D02*G75*G03X797282Y347638I2400J0D01*G01*
G75*G03X792482Y347638I-2400J0D01*G01*
X794082Y331890D02*G75*G03X795682Y331890I800J0D01*G01*
G75*G03X794082Y331890I-800J0D01*G01*
X792482D02*G75*G03X797282Y331890I2400J0D01*G01*
G75*G03X792482Y331890I-2400J0D01*G01*
X794082Y473622D02*G75*G03X795682Y473622I800J0D01*G01*
G75*G03X794082Y473622I-800J0D01*G01*
X792482D02*G75*G03X797282Y473622I2400J0D01*G01*
G75*G03X792482Y473622I-2400J0D01*G01*
X794082Y457874D02*G75*G03X795682Y457874I800J0D01*G01*
G75*G03X794082Y457874I-800J0D01*G01*
X792482D02*G75*G03X797282Y457874I2400J0D01*G01*
G75*G03X792482Y457874I-2400J0D01*G01*
X794082Y442126D02*G75*G03X795682Y442126I800J0D01*G01*
G75*G03X794082Y442126I-800J0D01*G01*
X792482D02*G75*G03X797282Y442126I2400J0D01*G01*
G75*G03X792482Y442126I-2400J0D01*G01*
X794082Y426378D02*G75*G03X795682Y426378I800J0D01*G01*
G75*G03X794082Y426378I-800J0D01*G01*
X792482D02*G75*G03X797282Y426378I2400J0D01*G01*
G75*G03X792482Y426378I-2400J0D01*G01*
X794082Y410630D02*G75*G03X795682Y410630I800J0D01*G01*
G75*G03X794082Y410630I-800J0D01*G01*
X792482D02*G75*G03X797282Y410630I2400J0D01*G01*
G75*G03X792482Y410630I-2400J0D01*G01*
X794082Y394882D02*G75*G03X795682Y394882I800J0D01*G01*
G75*G03X794082Y394882I-800J0D01*G01*
X792482D02*G75*G03X797282Y394882I2400J0D01*G01*
G75*G03X792482Y394882I-2400J0D01*G01*
X794082Y316142D02*G75*G03X795682Y316142I800J0D01*G01*
G75*G03X794082Y316142I-800J0D01*G01*
X792482D02*G75*G03X797282Y316142I2400J0D01*G01*
G75*G03X792482Y316142I-2400J0D01*G01*
X794082Y300394D02*G75*G03X795682Y300394I800J0D01*G01*
G75*G03X794082Y300394I-800J0D01*G01*
X792482D02*G75*G03X797282Y300394I2400J0D01*G01*
G75*G03X792482Y300394I-2400J0D01*G01*
X794082Y284646D02*G75*G03X795682Y284646I800J0D01*G01*
G75*G03X794082Y284646I-800J0D01*G01*
X792482D02*G75*G03X797282Y284646I2400J0D01*G01*
G75*G03X792482Y284646I-2400J0D01*G01*
X794082Y268898D02*G75*G03X795682Y268898I800J0D01*G01*
G75*G03X794082Y268898I-800J0D01*G01*
X792482D02*G75*G03X797282Y268898I2400J0D01*G01*
G75*G03X792482Y268898I-2400J0D01*G01*
X794082Y253150D02*G75*G03X795682Y253150I800J0D01*G01*
G75*G03X794082Y253150I-800J0D01*G01*
X792482D02*G75*G03X797282Y253150I2400J0D01*G01*
G75*G03X792482Y253150I-2400J0D01*G01*
X794082Y237402D02*G75*G03X795682Y237402I800J0D01*G01*
G75*G03X794082Y237402I-800J0D01*G01*
X792482D02*G75*G03X797282Y237402I2400J0D01*G01*
G75*G03X792482Y237402I-2400J0D01*G01*
X794082Y379134D02*G75*G03X795682Y379134I800J0D01*G01*
G75*G03X794082Y379134I-800J0D01*G01*
X792482D02*G75*G03X797282Y379134I2400J0D01*G01*
G75*G03X792482Y379134I-2400J0D01*G01*
X794082Y489370D02*G75*G03X795682Y489370I800J0D01*G01*
G75*G03X794082Y489370I-800J0D01*G01*
X792482D02*G75*G03X797282Y489370I2400J0D01*G01*
G75*G03X792482Y489370I-2400J0D01*G01*
X794082Y505118D02*G75*G03X795682Y505118I800J0D01*G01*
G75*G03X794082Y505118I-800J0D01*G01*
X792482D02*G75*G03X797282Y505118I2400J0D01*G01*
G75*G03X792482Y505118I-2400J0D01*G01*
X794082Y520866D02*G75*G03X795682Y520866I800J0D01*G01*
G75*G03X794082Y520866I-800J0D01*G01*
X792482D02*G75*G03X797282Y520866I2400J0D01*G01*
G75*G03X792482Y520866I-2400J0D01*G01*
X794082Y536614D02*G75*G03X795682Y536614I800J0D01*G01*
G75*G03X794082Y536614I-800J0D01*G01*
X792482D02*G75*G03X797282Y536614I2400J0D01*G01*
G75*G03X792482Y536614I-2400J0D01*G01*
X14200Y1901250D02*G75*G03X15800Y1901250I800J0D01*G01*
G75*G03X14200Y1901250I-800J0D01*G01*
X12600D02*G75*G03X17400Y1901250I2400J0D01*G01*
G75*G03X12600Y1901250I-2400J0D01*G01*
X135000Y1903500D02*X136500Y1900500D01*
X138000Y1903500D01*
X136500Y1900500D02*Y1897500D01*
X139800Y1900800D02*X142050D01*
X139800Y1897500D02*X142800D01*
X139800Y1903500D02*Y1897500D01*
Y1903500D02*X142800D01*
X147600D02*X148350Y1902750D01*
X145350Y1903500D02*X147600D01*
X144600Y1902750D02*X145350Y1903500D01*
X144600Y1902750D02*Y1901250D01*
X145350Y1900500D01*
X147600D01*
X148350Y1899750D01*
Y1898250D01*
X147600Y1897500D02*X148350Y1898250D01*
X145350Y1897500D02*X147600D01*
X144600Y1898250D02*X145350Y1897500D01*
X98000Y1902750D02*X98750Y1903500D01*
X101000D01*
X101750Y1902750D01*
Y1901250D01*
X98000Y1897500D02*X101750Y1901250D01*
X98000Y1897500D02*X101750D01*
X103550Y1903500D02*X106550D01*
X103550D02*Y1900500D01*
X104300Y1901250D01*
X105800D01*
X106550Y1900500D01*
Y1898250D01*
X105800Y1897500D02*X106550Y1898250D01*
X104300Y1897500D02*X105800D01*
X103550Y1898250D02*X104300Y1897500D01*
X45000Y1898250D02*X45750Y1897500D01*
X45000Y1902750D02*Y1898250D01*
Y1902750D02*X45750Y1903500D01*
X47250D01*
X48000Y1902750D01*
Y1898250D01*
X47250Y1897500D02*X48000Y1898250D01*
X45750Y1897500D02*X47250D01*
X45000Y1899000D02*X48000Y1902000D01*
X49800Y1897500D02*X50550D01*
X52350Y1898250D02*X53100Y1897500D01*
X52350Y1902750D02*Y1898250D01*
Y1902750D02*X53100Y1903500D01*
X54600D01*
X55350Y1902750D01*
Y1898250D01*
X54600Y1897500D02*X55350Y1898250D01*
X53100Y1897500D02*X54600D01*
X52350Y1899000D02*X55350Y1902000D01*
X57150Y1899750D02*X60150Y1903500D01*
X57150Y1899750D02*X60900D01*
X60150Y1903500D02*Y1897500D01*
X63450D02*X65700Y1900500D01*
Y1902750D02*Y1900500D01*
X64950Y1903500D02*X65700Y1902750D01*
X63450Y1903500D02*X64950D01*
X62700Y1902750D02*X63450Y1903500D01*
X62700Y1902750D02*Y1901250D01*
X63450Y1900500D01*
X65700D01*
X521222Y603581D02*X526022Y598781D01*
X521222D02*X526022Y603581D01*
X522022Y602781D02*X525222D01*
X522022D02*Y599581D01*
X525222D01*
Y602781D02*Y599581D01*
X505474Y587833D02*X510274Y583033D01*
X505474D02*X510274Y587833D01*
X506274Y587033D02*X509474D01*
X506274D02*Y583833D01*
X509474D01*
Y587033D02*Y583833D01*
X521222Y572085D02*X526022Y567285D01*
X521222D02*X526022Y572085D01*
X522022Y571285D02*X525222D01*
X522022D02*Y568085D01*
X525222D01*
Y571285D02*Y568085D01*
X536970Y587833D02*X541770Y583033D01*
X536970D02*X541770Y587833D01*
X537770Y587033D02*X540970D01*
X537770D02*Y583833D01*
X540970D01*
Y587033D02*Y583833D01*
X529096Y574250D02*X533896Y569450D01*
X529096D02*X533896Y574250D01*
X529896Y573450D02*X533096D01*
X529896D02*Y570250D01*
X533096D01*
Y573450D02*Y570250D01*
X535002Y580156D02*X539802Y575356D01*
X535002D02*X539802Y580156D01*
X535802Y579356D02*X539002D01*
X535802D02*Y576156D01*
X539002D01*
Y579356D02*Y576156D01*
X529096Y601416D02*X533896Y596616D01*
X529096D02*X533896Y601416D01*
X529896Y600616D02*X533096D01*
X529896D02*Y597416D01*
X533096D01*
Y600616D02*Y597416D01*
X535002Y595510D02*X539802Y590710D01*
X535002D02*X539802Y595510D01*
X535802Y594710D02*X539002D01*
X535802D02*Y591510D01*
X539002D01*
Y594710D02*Y591510D01*
X513348Y601416D02*X518148Y596616D01*
X513348D02*X518148Y601416D01*
X514148Y600616D02*X517348D01*
X514148D02*Y597416D01*
X517348D01*
Y600616D02*Y597416D01*
X513348Y574250D02*X518148Y569450D01*
X513348D02*X518148Y574250D01*
X514148Y573450D02*X517348D01*
X514148D02*Y570250D01*
X517348D01*
Y573450D02*Y570250D01*
X507443Y595510D02*X512243Y590710D01*
X507443D02*X512243Y595510D01*
X508243Y594710D02*X511443D01*
X508243D02*Y591510D01*
X511443D01*
Y594710D02*Y591510D01*
X507443Y580156D02*X512243Y575356D01*
X507443D02*X512243Y580156D01*
X508243Y579356D02*X511443D01*
X508243D02*Y576156D01*
X511443D01*
Y579356D02*Y576156D01*
X607836Y603581D02*X612636Y598781D01*
X607836D02*X612636Y603581D01*
X608636Y602781D02*X611836D01*
X608636D02*Y599581D01*
X611836D01*
Y602781D02*Y599581D01*
X592088Y587833D02*X596888Y583033D01*
X592088D02*X596888Y587833D01*
X592888Y587033D02*X596088D01*
X592888D02*Y583833D01*
X596088D01*
Y587033D02*Y583833D01*
X607836Y572085D02*X612636Y567285D01*
X607836D02*X612636Y572085D01*
X608636Y571285D02*X611836D01*
X608636D02*Y568085D01*
X611836D01*
Y571285D02*Y568085D01*
X623584Y587833D02*X628384Y583033D01*
X623584D02*X628384Y587833D01*
X624384Y587033D02*X627584D01*
X624384D02*Y583833D01*
X627584D01*
Y587033D02*Y583833D01*
X615710Y574250D02*X620510Y569450D01*
X615710D02*X620510Y574250D01*
X616510Y573450D02*X619710D01*
X616510D02*Y570250D01*
X619710D01*
Y573450D02*Y570250D01*
X621616Y580156D02*X626416Y575356D01*
X621616D02*X626416Y580156D01*
X622416Y579356D02*X625616D01*
X622416D02*Y576156D01*
X625616D01*
Y579356D02*Y576156D01*
X615710Y601416D02*X620510Y596616D01*
X615710D02*X620510Y601416D01*
X616510Y600616D02*X619710D01*
X616510D02*Y597416D01*
X619710D01*
Y600616D02*Y597416D01*
X621616Y595510D02*X626416Y590710D01*
X621616D02*X626416Y595510D01*
X622416Y594710D02*X625616D01*
X622416D02*Y591510D01*
X625616D01*
Y594710D02*Y591510D01*
X599962Y601416D02*X604762Y596616D01*
X599962D02*X604762Y601416D01*
X600762Y600616D02*X603962D01*
X600762D02*Y597416D01*
X603962D01*
Y600616D02*Y597416D01*
X599962Y574250D02*X604762Y569450D01*
X599962D02*X604762Y574250D01*
X600762Y573450D02*X603962D01*
X600762D02*Y570250D01*
X603962D01*
Y573450D02*Y570250D01*
X594057Y595510D02*X598857Y590710D01*
X594057D02*X598857Y595510D01*
X594857Y594710D02*X598057D01*
X594857D02*Y591510D01*
X598057D01*
Y594710D02*Y591510D01*
X594057Y580156D02*X598857Y575356D01*
X594057D02*X598857Y580156D01*
X594857Y579356D02*X598057D01*
X594857D02*Y576156D01*
X598057D01*
Y579356D02*Y576156D01*
X12600Y1918650D02*X17400Y1913850D01*
X12600D02*X17400Y1918650D01*
X13400Y1917850D02*X16600D01*
X13400D02*Y1914650D01*
X16600D01*
Y1917850D02*Y1914650D01*
X135000Y1918500D02*X136500Y1915500D01*
X138000Y1918500D01*
X136500Y1915500D02*Y1912500D01*
X139800Y1915800D02*X142050D01*
X139800Y1912500D02*X142800D01*
X139800Y1918500D02*Y1912500D01*
Y1918500D02*X142800D01*
X147600D02*X148350Y1917750D01*
X145350Y1918500D02*X147600D01*
X144600Y1917750D02*X145350Y1918500D01*
X144600Y1917750D02*Y1916250D01*
X145350Y1915500D01*
X147600D01*
X148350Y1914750D01*
Y1913250D01*
X147600Y1912500D02*X148350Y1913250D01*
X145350Y1912500D02*X147600D01*
X144600Y1913250D02*X145350Y1912500D01*
X98000Y1917750D02*X98750Y1918500D01*
X101000D01*
X101750Y1917750D01*
Y1916250D01*
X98000Y1912500D02*X101750Y1916250D01*
X98000Y1912500D02*X101750D01*
X103550Y1914750D02*X106550Y1918500D01*
X103550Y1914750D02*X107300D01*
X106550Y1918500D02*Y1912500D01*
X45000Y1913250D02*X45750Y1912500D01*
X45000Y1917750D02*Y1913250D01*
Y1917750D02*X45750Y1918500D01*
X47250D01*
X48000Y1917750D01*
Y1913250D01*
X47250Y1912500D02*X48000Y1913250D01*
X45750Y1912500D02*X47250D01*
X45000Y1914000D02*X48000Y1917000D01*
X49800Y1912500D02*X50550D01*
X52350Y1913250D02*X53100Y1912500D01*
X52350Y1917750D02*Y1913250D01*
Y1917750D02*X53100Y1918500D01*
X54600D01*
X55350Y1917750D01*
Y1913250D01*
X54600Y1912500D02*X55350Y1913250D01*
X53100Y1912500D02*X54600D01*
X52350Y1914000D02*X55350Y1917000D01*
X57150Y1917750D02*X57900Y1918500D01*
X59400D01*
X60150Y1917750D01*
X59400Y1912500D02*X60150Y1913250D01*
X57900Y1912500D02*X59400D01*
X57150Y1913250D02*X57900Y1912500D01*
Y1915800D02*X59400D01*
X60150Y1917750D02*Y1916550D01*
Y1915050D02*Y1913250D01*
Y1915050D02*X59400Y1915800D01*
X60150Y1916550D02*X59400Y1915800D01*
X62700Y1912500D02*X64950Y1915500D01*
Y1917750D02*Y1915500D01*
X64200Y1918500D02*X64950Y1917750D01*
X62700Y1918500D02*X64200D01*
X61950Y1917750D02*X62700Y1918500D01*
X61950Y1917750D02*Y1916250D01*
X62700Y1915500D01*
X64950D01*
X498610Y551130D02*Y544730D01*
X495410Y547930D02*X501810D01*
X497010Y549530D02*X500210D01*
X497010D02*Y546330D01*
X500210D01*
Y549530D02*Y546330D01*
X498610Y562630D02*Y556230D01*
X495410Y559430D02*X501810D01*
X497010Y561030D02*X500210D01*
X497010D02*Y557830D01*
X500210D01*
Y561030D02*Y557830D01*
X508610Y561130D02*Y554730D01*
X505410Y557930D02*X511810D01*
X507010Y559530D02*X510210D01*
X507010D02*Y556330D01*
X510210D01*
Y559530D02*Y556330D01*
X508610Y552630D02*Y546230D01*
X505410Y549430D02*X511810D01*
X507010Y551030D02*X510210D01*
X507010D02*Y547830D01*
X510210D01*
Y551030D02*Y547830D01*
X518610Y551130D02*Y544730D01*
X515410Y547930D02*X521810D01*
X517010Y549530D02*X520210D01*
X517010D02*Y546330D01*
X520210D01*
Y549530D02*Y546330D01*
X528610Y552630D02*Y546230D01*
X525410Y549430D02*X531810D01*
X527010Y551030D02*X530210D01*
X527010D02*Y547830D01*
X530210D01*
Y551030D02*Y547830D01*
X538610Y551130D02*Y544730D01*
X535410Y547930D02*X541810D01*
X537010Y549530D02*X540210D01*
X537010D02*Y546330D01*
X540210D01*
Y549530D02*Y546330D01*
X548610Y552630D02*Y546230D01*
X545410Y549430D02*X551810D01*
X547010Y551030D02*X550210D01*
X547010D02*Y547830D01*
X550210D01*
Y551030D02*Y547830D01*
X518610Y562630D02*Y556230D01*
X515410Y559430D02*X521810D01*
X517010Y561030D02*X520210D01*
X517010D02*Y557830D01*
X520210D01*
Y561030D02*Y557830D01*
X528610Y561130D02*Y554730D01*
X525410Y557930D02*X531810D01*
X527010Y559530D02*X530210D01*
X527010D02*Y556330D01*
X530210D01*
Y559530D02*Y556330D01*
X538610Y562630D02*Y556230D01*
X535410Y559430D02*X541810D01*
X537010Y561030D02*X540210D01*
X537010D02*Y557830D01*
X540210D01*
Y561030D02*Y557830D01*
X548610Y561130D02*Y554730D01*
X545410Y557930D02*X551810D01*
X547010Y559530D02*X550210D01*
X547010D02*Y556330D01*
X550210D01*
Y559530D02*Y556330D01*
X585232Y551133D02*Y544733D01*
X582032Y547933D02*X588432D01*
X583632Y549533D02*X586832D01*
X583632D02*Y546333D01*
X586832D01*
Y549533D02*Y546333D01*
X585232Y562633D02*Y556233D01*
X582032Y559433D02*X588432D01*
X583632Y561033D02*X586832D01*
X583632D02*Y557833D01*
X586832D01*
Y561033D02*Y557833D01*
X595232Y561133D02*Y554733D01*
X592032Y557933D02*X598432D01*
X593632Y559533D02*X596832D01*
X593632D02*Y556333D01*
X596832D01*
Y559533D02*Y556333D01*
X595232Y552633D02*Y546233D01*
X592032Y549433D02*X598432D01*
X593632Y551033D02*X596832D01*
X593632D02*Y547833D01*
X596832D01*
Y551033D02*Y547833D01*
X605232Y551133D02*Y544733D01*
X602032Y547933D02*X608432D01*
X603632Y549533D02*X606832D01*
X603632D02*Y546333D01*
X606832D01*
Y549533D02*Y546333D01*
X615232Y552633D02*Y546233D01*
X612032Y549433D02*X618432D01*
X613632Y551033D02*X616832D01*
X613632D02*Y547833D01*
X616832D01*
Y551033D02*Y547833D01*
X625232Y551133D02*Y544733D01*
X622032Y547933D02*X628432D01*
X623632Y549533D02*X626832D01*
X623632D02*Y546333D01*
X626832D01*
Y549533D02*Y546333D01*
X635232Y552633D02*Y546233D01*
X632032Y549433D02*X638432D01*
X633632Y551033D02*X636832D01*
X633632D02*Y547833D01*
X636832D01*
Y551033D02*Y547833D01*
X605232Y562633D02*Y556233D01*
X602032Y559433D02*X608432D01*
X603632Y561033D02*X606832D01*
X603632D02*Y557833D01*
X606832D01*
Y561033D02*Y557833D01*
X615232Y561133D02*Y554733D01*
X612032Y557933D02*X618432D01*
X613632Y559533D02*X616832D01*
X613632D02*Y556333D01*
X616832D01*
Y559533D02*Y556333D01*
X625232Y562633D02*Y556233D01*
X622032Y559433D02*X628432D01*
X623632Y561033D02*X626832D01*
X623632D02*Y557833D01*
X626832D01*
Y561033D02*Y557833D01*
X635232Y561133D02*Y554733D01*
X632032Y557933D02*X638432D01*
X633632Y559533D02*X636832D01*
X633632D02*Y556333D01*
X636832D01*
Y559533D02*Y556333D01*
X575000Y299200D02*Y292800D01*
X571800Y296000D02*X578200D01*
X573400Y297600D02*X576600D01*
X573400D02*Y294400D01*
X576600D01*
Y297600D02*Y294400D01*
X575000Y309200D02*Y302800D01*
X571800Y306000D02*X578200D01*
X573400Y307600D02*X576600D01*
X573400D02*Y304400D01*
X576600D01*
Y307600D02*Y304400D01*
X585000Y299200D02*Y292800D01*
X581800Y296000D02*X588200D01*
X583400Y297600D02*X586600D01*
X583400D02*Y294400D01*
X586600D01*
Y297600D02*Y294400D01*
X585000Y309200D02*Y302800D01*
X581800Y306000D02*X588200D01*
X583400Y307600D02*X586600D01*
X583400D02*Y304400D01*
X586600D01*
Y307600D02*Y304400D01*
X595000Y299200D02*Y292800D01*
X591800Y296000D02*X598200D01*
X593400Y297600D02*X596600D01*
X593400D02*Y294400D01*
X596600D01*
Y297600D02*Y294400D01*
X595000Y309200D02*Y302800D01*
X591800Y306000D02*X598200D01*
X593400Y307600D02*X596600D01*
X593400D02*Y304400D01*
X596600D01*
Y307600D02*Y304400D01*
X605000Y299200D02*Y292800D01*
X601800Y296000D02*X608200D01*
X603400Y297600D02*X606600D01*
X603400D02*Y294400D01*
X606600D01*
Y297600D02*Y294400D01*
X605000Y309200D02*Y302800D01*
X601800Y306000D02*X608200D01*
X603400Y307600D02*X606600D01*
X603400D02*Y304400D01*
X606600D01*
Y307600D02*Y304400D01*
X615000Y299200D02*Y292800D01*
X611800Y296000D02*X618200D01*
X613400Y297600D02*X616600D01*
X613400D02*Y294400D01*
X616600D01*
Y297600D02*Y294400D01*
X615000Y309200D02*Y302800D01*
X611800Y306000D02*X618200D01*
X613400Y307600D02*X616600D01*
X613400D02*Y304400D01*
X616600D01*
Y307600D02*Y304400D01*
X625000Y299200D02*Y292800D01*
X621800Y296000D02*X628200D01*
X623400Y297600D02*X626600D01*
X623400D02*Y294400D01*
X626600D01*
Y297600D02*Y294400D01*
X625000Y309200D02*Y302800D01*
X621800Y306000D02*X628200D01*
X623400Y307600D02*X626600D01*
X623400D02*Y304400D01*
X626600D01*
Y307600D02*Y304400D01*
X635000Y299200D02*Y292800D01*
X631800Y296000D02*X638200D01*
X633400Y297600D02*X636600D01*
X633400D02*Y294400D01*
X636600D01*
Y297600D02*Y294400D01*
X635000Y309200D02*Y302800D01*
X631800Y306000D02*X638200D01*
X633400Y307600D02*X636600D01*
X633400D02*Y304400D01*
X636600D01*
Y307600D02*Y304400D01*
X645000Y299200D02*Y292800D01*
X641800Y296000D02*X648200D01*
X643400Y297600D02*X646600D01*
X643400D02*Y294400D01*
X646600D01*
Y297600D02*Y294400D01*
X645000Y309200D02*Y302800D01*
X641800Y306000D02*X648200D01*
X643400Y307600D02*X646600D01*
X643400D02*Y304400D01*
X646600D01*
Y307600D02*Y304400D01*
X655000Y299200D02*Y292800D01*
X651800Y296000D02*X658200D01*
X653400Y297600D02*X656600D01*
X653400D02*Y294400D01*
X656600D01*
Y297600D02*Y294400D01*
X655000Y309200D02*Y302800D01*
X651800Y306000D02*X658200D01*
X653400Y307600D02*X656600D01*
X653400D02*Y304400D01*
X656600D01*
Y307600D02*Y304400D01*
X665000Y299200D02*Y292800D01*
X661800Y296000D02*X668200D01*
X663400Y297600D02*X666600D01*
X663400D02*Y294400D01*
X666600D01*
Y297600D02*Y294400D01*
X665000Y309200D02*Y302800D01*
X661800Y306000D02*X668200D01*
X663400Y307600D02*X666600D01*
X663400D02*Y304400D01*
X666600D01*
Y307600D02*Y304400D01*
X330000Y423200D02*Y416800D01*
X326800Y420000D02*X333200D01*
X328400Y421600D02*X331600D01*
X328400D02*Y418400D01*
X331600D01*
Y421600D02*Y418400D01*
X340000Y423200D02*Y416800D01*
X336800Y420000D02*X343200D01*
X338400Y421600D02*X341600D01*
X338400D02*Y418400D01*
X341600D01*
Y421600D02*Y418400D01*
X350000Y423200D02*Y416800D01*
X346800Y420000D02*X353200D01*
X348400Y421600D02*X351600D01*
X348400D02*Y418400D01*
X351600D01*
Y421600D02*Y418400D01*
X360000Y423200D02*Y416800D01*
X356800Y420000D02*X363200D01*
X358400Y421600D02*X361600D01*
X358400D02*Y418400D01*
X361600D01*
Y421600D02*Y418400D01*
X370000Y423200D02*Y416800D01*
X366800Y420000D02*X373200D01*
X368400Y421600D02*X371600D01*
X368400D02*Y418400D01*
X371600D01*
Y421600D02*Y418400D01*
X380000Y423200D02*Y416800D01*
X376800Y420000D02*X383200D01*
X378400Y421600D02*X381600D01*
X378400D02*Y418400D01*
X381600D01*
Y421600D02*Y418400D01*
X390000Y423200D02*Y416800D01*
X386800Y420000D02*X393200D01*
X388400Y421600D02*X391600D01*
X388400D02*Y418400D01*
X391600D01*
Y421600D02*Y418400D01*
X400000Y423200D02*Y416800D01*
X396800Y420000D02*X403200D01*
X398400Y421600D02*X401600D01*
X398400D02*Y418400D01*
X401600D01*
Y421600D02*Y418400D01*
X330000Y498200D02*Y491800D01*
X326800Y495000D02*X333200D01*
X328400Y496600D02*X331600D01*
X328400D02*Y493400D01*
X331600D01*
Y496600D02*Y493400D01*
X340000Y498200D02*Y491800D01*
X336800Y495000D02*X343200D01*
X338400Y496600D02*X341600D01*
X338400D02*Y493400D01*
X341600D01*
Y496600D02*Y493400D01*
X350000Y498200D02*Y491800D01*
X346800Y495000D02*X353200D01*
X348400Y496600D02*X351600D01*
X348400D02*Y493400D01*
X351600D01*
Y496600D02*Y493400D01*
X360000Y498200D02*Y491800D01*
X356800Y495000D02*X363200D01*
X358400Y496600D02*X361600D01*
X358400D02*Y493400D01*
X361600D01*
Y496600D02*Y493400D01*
X370000Y498200D02*Y491800D01*
X366800Y495000D02*X373200D01*
X368400Y496600D02*X371600D01*
X368400D02*Y493400D01*
X371600D01*
Y496600D02*Y493400D01*
X380000Y498200D02*Y491800D01*
X376800Y495000D02*X383200D01*
X378400Y496600D02*X381600D01*
X378400D02*Y493400D01*
X381600D01*
Y496600D02*Y493400D01*
X390000Y498200D02*Y491800D01*
X386800Y495000D02*X393200D01*
X388400Y496600D02*X391600D01*
X388400D02*Y493400D01*
X391600D01*
Y496600D02*Y493400D01*
X400000Y498200D02*Y491800D01*
X396800Y495000D02*X403200D01*
X398400Y496600D02*X401600D01*
X398400D02*Y493400D01*
X401600D01*
Y496600D02*Y493400D01*
X240000Y423200D02*Y416800D01*
X236800Y420000D02*X243200D01*
X238400Y421600D02*X241600D01*
X238400D02*Y418400D01*
X241600D01*
Y421600D02*Y418400D01*
X250000Y423200D02*Y416800D01*
X246800Y420000D02*X253200D01*
X248400Y421600D02*X251600D01*
X248400D02*Y418400D01*
X251600D01*
Y421600D02*Y418400D01*
X260000Y423200D02*Y416800D01*
X256800Y420000D02*X263200D01*
X258400Y421600D02*X261600D01*
X258400D02*Y418400D01*
X261600D01*
Y421600D02*Y418400D01*
X270000Y423200D02*Y416800D01*
X266800Y420000D02*X273200D01*
X268400Y421600D02*X271600D01*
X268400D02*Y418400D01*
X271600D01*
Y421600D02*Y418400D01*
X280000Y423200D02*Y416800D01*
X276800Y420000D02*X283200D01*
X278400Y421600D02*X281600D01*
X278400D02*Y418400D01*
X281600D01*
Y421600D02*Y418400D01*
X290000Y423200D02*Y416800D01*
X286800Y420000D02*X293200D01*
X288400Y421600D02*X291600D01*
X288400D02*Y418400D01*
X291600D01*
Y421600D02*Y418400D01*
X300000Y423200D02*Y416800D01*
X296800Y420000D02*X303200D01*
X298400Y421600D02*X301600D01*
X298400D02*Y418400D01*
X301600D01*
Y421600D02*Y418400D01*
X310000Y423200D02*Y416800D01*
X306800Y420000D02*X313200D01*
X308400Y421600D02*X311600D01*
X308400D02*Y418400D01*
X311600D01*
Y421600D02*Y418400D01*
X221000Y423200D02*Y416800D01*
X217800Y420000D02*X224200D01*
X219400Y421600D02*X222600D01*
X219400D02*Y418400D01*
X222600D01*
Y421600D02*Y418400D01*
X221000Y433200D02*Y426800D01*
X217800Y430000D02*X224200D01*
X219400Y431600D02*X222600D01*
X219400D02*Y428400D01*
X222600D01*
Y431600D02*Y428400D01*
X221000Y443200D02*Y436800D01*
X217800Y440000D02*X224200D01*
X219400Y441600D02*X222600D01*
X219400D02*Y438400D01*
X222600D01*
Y441600D02*Y438400D01*
X221000Y453200D02*Y446800D01*
X217800Y450000D02*X224200D01*
X219400Y451600D02*X222600D01*
X219400D02*Y448400D01*
X222600D01*
Y451600D02*Y448400D01*
X221000Y463200D02*Y456800D01*
X217800Y460000D02*X224200D01*
X219400Y461600D02*X222600D01*
X219400D02*Y458400D01*
X222600D01*
Y461600D02*Y458400D01*
X221000Y473200D02*Y466800D01*
X217800Y470000D02*X224200D01*
X219400Y471600D02*X222600D01*
X219400D02*Y468400D01*
X222600D01*
Y471600D02*Y468400D01*
X240000Y473200D02*Y466800D01*
X236800Y470000D02*X243200D01*
X238400Y471600D02*X241600D01*
X238400D02*Y468400D01*
X241600D01*
Y471600D02*Y468400D01*
X250000Y473200D02*Y466800D01*
X246800Y470000D02*X253200D01*
X248400Y471600D02*X251600D01*
X248400D02*Y468400D01*
X251600D01*
Y471600D02*Y468400D01*
X260000Y473200D02*Y466800D01*
X256800Y470000D02*X263200D01*
X258400Y471600D02*X261600D01*
X258400D02*Y468400D01*
X261600D01*
Y471600D02*Y468400D01*
X270000Y473200D02*Y466800D01*
X266800Y470000D02*X273200D01*
X268400Y471600D02*X271600D01*
X268400D02*Y468400D01*
X271600D01*
Y471600D02*Y468400D01*
X280000Y473200D02*Y466800D01*
X276800Y470000D02*X283200D01*
X278400Y471600D02*X281600D01*
X278400D02*Y468400D01*
X281600D01*
Y471600D02*Y468400D01*
X290000Y473200D02*Y466800D01*
X286800Y470000D02*X293200D01*
X288400Y471600D02*X291600D01*
X288400D02*Y468400D01*
X291600D01*
Y471600D02*Y468400D01*
X300000Y473200D02*Y466800D01*
X296800Y470000D02*X303200D01*
X298400Y471600D02*X301600D01*
X298400D02*Y468400D01*
X301600D01*
Y471600D02*Y468400D01*
X310000Y473200D02*Y466800D01*
X306800Y470000D02*X313200D01*
X308400Y471600D02*X311600D01*
X308400D02*Y468400D01*
X311600D01*
Y471600D02*Y468400D01*
X310000Y498200D02*Y491800D01*
X306800Y495000D02*X313200D01*
X308400Y496600D02*X311600D01*
X308400D02*Y493400D01*
X311600D01*
Y496600D02*Y493400D01*
X310000Y488200D02*Y481800D01*
X306800Y485000D02*X313200D01*
X308400Y486600D02*X311600D01*
X308400D02*Y483400D01*
X311600D01*
Y486600D02*Y483400D01*
X300000Y488200D02*Y481800D01*
X296800Y485000D02*X303200D01*
X298400Y486600D02*X301600D01*
X298400D02*Y483400D01*
X301600D01*
Y486600D02*Y483400D01*
X300000Y498200D02*Y491800D01*
X296800Y495000D02*X303200D01*
X298400Y496600D02*X301600D01*
X298400D02*Y493400D01*
X301600D01*
Y496600D02*Y493400D01*
X271000Y498200D02*Y491800D01*
X267800Y495000D02*X274200D01*
X269400Y496600D02*X272600D01*
X269400D02*Y493400D01*
X272600D01*
Y496600D02*Y493400D01*
X271000Y488200D02*Y481800D01*
X267800Y485000D02*X274200D01*
X269400Y486600D02*X272600D01*
X269400D02*Y483400D01*
X272600D01*
Y486600D02*Y483400D01*
X261000Y498200D02*Y491800D01*
X257800Y495000D02*X264200D01*
X259400Y496600D02*X262600D01*
X259400D02*Y493400D01*
X262600D01*
Y496600D02*Y493400D01*
X261000Y488200D02*Y481800D01*
X257800Y485000D02*X264200D01*
X259400Y486600D02*X262600D01*
X259400D02*Y483400D01*
X262600D01*
Y486600D02*Y483400D01*
X251000Y498200D02*Y491800D01*
X247800Y495000D02*X254200D01*
X249400Y496600D02*X252600D01*
X249400D02*Y493400D01*
X252600D01*
Y496600D02*Y493400D01*
X251000Y488200D02*Y481800D01*
X247800Y485000D02*X254200D01*
X249400Y486600D02*X252600D01*
X249400D02*Y483400D01*
X252600D01*
Y486600D02*Y483400D01*
X241000Y498200D02*Y491800D01*
X237800Y495000D02*X244200D01*
X239400Y496600D02*X242600D01*
X239400D02*Y493400D01*
X242600D01*
Y496600D02*Y493400D01*
X241000Y488200D02*Y481800D01*
X237800Y485000D02*X244200D01*
X239400Y486600D02*X242600D01*
X239400D02*Y483400D01*
X242600D01*
Y486600D02*Y483400D01*
X231000Y498200D02*Y491800D01*
X227800Y495000D02*X234200D01*
X229400Y496600D02*X232600D01*
X229400D02*Y493400D01*
X232600D01*
Y496600D02*Y493400D01*
X231000Y488200D02*Y481800D01*
X227800Y485000D02*X234200D01*
X229400Y486600D02*X232600D01*
X229400D02*Y483400D01*
X232600D01*
Y486600D02*Y483400D01*
X201500Y498200D02*Y491800D01*
X198300Y495000D02*X204700D01*
X199900Y496600D02*X203100D01*
X199900D02*Y493400D01*
X203100D01*
Y496600D02*Y493400D01*
X201500Y488200D02*Y481800D01*
X198300Y485000D02*X204700D01*
X199900Y486600D02*X203100D01*
X199900D02*Y483400D01*
X203100D01*
Y486600D02*Y483400D01*
X191500Y498200D02*Y491800D01*
X188300Y495000D02*X194700D01*
X189900Y496600D02*X193100D01*
X189900D02*Y493400D01*
X193100D01*
Y496600D02*Y493400D01*
X191500Y488200D02*Y481800D01*
X188300Y485000D02*X194700D01*
X189900Y486600D02*X193100D01*
X189900D02*Y483400D01*
X193100D01*
Y486600D02*Y483400D01*
X181500Y498200D02*Y491800D01*
X178300Y495000D02*X184700D01*
X179900Y496600D02*X183100D01*
X179900D02*Y493400D01*
X183100D01*
Y496600D02*Y493400D01*
X181500Y488200D02*Y481800D01*
X178300Y485000D02*X184700D01*
X179900Y486600D02*X183100D01*
X179900D02*Y483400D01*
X183100D01*
Y486600D02*Y483400D01*
X171500Y498200D02*Y491800D01*
X168300Y495000D02*X174700D01*
X169900Y496600D02*X173100D01*
X169900D02*Y493400D01*
X173100D01*
Y496600D02*Y493400D01*
X171500Y488200D02*Y481800D01*
X168300Y485000D02*X174700D01*
X169900Y486600D02*X173100D01*
X169900D02*Y483400D01*
X173100D01*
Y486600D02*Y483400D01*
X161500Y498200D02*Y491800D01*
X158300Y495000D02*X164700D01*
X159900Y496600D02*X163100D01*
X159900D02*Y493400D01*
X163100D01*
Y496600D02*Y493400D01*
X161500Y488200D02*Y481800D01*
X158300Y485000D02*X164700D01*
X159900Y486600D02*X163100D01*
X159900D02*Y483400D01*
X163100D01*
Y486600D02*Y483400D01*
X132500Y498200D02*Y491800D01*
X129300Y495000D02*X135700D01*
X130900Y496600D02*X134100D01*
X130900D02*Y493400D01*
X134100D01*
Y496600D02*Y493400D01*
X132500Y488200D02*Y481800D01*
X129300Y485000D02*X135700D01*
X130900Y486600D02*X134100D01*
X130900D02*Y483400D01*
X134100D01*
Y486600D02*Y483400D01*
X122500Y488200D02*Y481800D01*
X119300Y485000D02*X125700D01*
X120900Y486600D02*X124100D01*
X120900D02*Y483400D01*
X124100D01*
Y486600D02*Y483400D01*
X122500Y498200D02*Y491800D01*
X119300Y495000D02*X125700D01*
X120900Y496600D02*X124100D01*
X120900D02*Y493400D01*
X124100D01*
Y496600D02*Y493400D01*
X107500Y498200D02*Y491800D01*
X104300Y495000D02*X110700D01*
X105900Y496600D02*X109100D01*
X105900D02*Y493400D01*
X109100D01*
Y496600D02*Y493400D01*
X97500Y498200D02*Y491800D01*
X94300Y495000D02*X100700D01*
X95900Y496600D02*X99100D01*
X95900D02*Y493400D01*
X99100D01*
Y496600D02*Y493400D01*
X87500Y498200D02*Y491800D01*
X84300Y495000D02*X90700D01*
X85900Y496600D02*X89100D01*
X85900D02*Y493400D01*
X89100D01*
Y496600D02*Y493400D01*
X77500Y498200D02*Y491800D01*
X74300Y495000D02*X80700D01*
X75900Y496600D02*X79100D01*
X75900D02*Y493400D01*
X79100D01*
Y496600D02*Y493400D01*
X67500Y498200D02*Y491800D01*
X64300Y495000D02*X70700D01*
X65900Y496600D02*X69100D01*
X65900D02*Y493400D01*
X69100D01*
Y496600D02*Y493400D01*
X57500Y498200D02*Y491800D01*
X54300Y495000D02*X60700D01*
X55900Y496600D02*X59100D01*
X55900D02*Y493400D01*
X59100D01*
Y496600D02*Y493400D01*
X330000Y303200D02*Y296800D01*
X326800Y300000D02*X333200D01*
X328400Y301600D02*X331600D01*
X328400D02*Y298400D01*
X331600D01*
Y301600D02*Y298400D01*
X340000Y303200D02*Y296800D01*
X336800Y300000D02*X343200D01*
X338400Y301600D02*X341600D01*
X338400D02*Y298400D01*
X341600D01*
Y301600D02*Y298400D01*
X350000Y303200D02*Y296800D01*
X346800Y300000D02*X353200D01*
X348400Y301600D02*X351600D01*
X348400D02*Y298400D01*
X351600D01*
Y301600D02*Y298400D01*
X360000Y303200D02*Y296800D01*
X356800Y300000D02*X363200D01*
X358400Y301600D02*X361600D01*
X358400D02*Y298400D01*
X361600D01*
Y301600D02*Y298400D01*
X370000Y303200D02*Y296800D01*
X366800Y300000D02*X373200D01*
X368400Y301600D02*X371600D01*
X368400D02*Y298400D01*
X371600D01*
Y301600D02*Y298400D01*
X380000Y303200D02*Y296800D01*
X376800Y300000D02*X383200D01*
X378400Y301600D02*X381600D01*
X378400D02*Y298400D01*
X381600D01*
Y301600D02*Y298400D01*
X390000Y303200D02*Y296800D01*
X386800Y300000D02*X393200D01*
X388400Y301600D02*X391600D01*
X388400D02*Y298400D01*
X391600D01*
Y301600D02*Y298400D01*
X400000Y303200D02*Y296800D01*
X396800Y300000D02*X403200D01*
X398400Y301600D02*X401600D01*
X398400D02*Y298400D01*
X401600D01*
Y301600D02*Y298400D01*
X330000Y378200D02*Y371800D01*
X326800Y375000D02*X333200D01*
X328400Y376600D02*X331600D01*
X328400D02*Y373400D01*
X331600D01*
Y376600D02*Y373400D01*
X340000Y378200D02*Y371800D01*
X336800Y375000D02*X343200D01*
X338400Y376600D02*X341600D01*
X338400D02*Y373400D01*
X341600D01*
Y376600D02*Y373400D01*
X350000Y378200D02*Y371800D01*
X346800Y375000D02*X353200D01*
X348400Y376600D02*X351600D01*
X348400D02*Y373400D01*
X351600D01*
Y376600D02*Y373400D01*
X360000Y378200D02*Y371800D01*
X356800Y375000D02*X363200D01*
X358400Y376600D02*X361600D01*
X358400D02*Y373400D01*
X361600D01*
Y376600D02*Y373400D01*
X370000Y378200D02*Y371800D01*
X366800Y375000D02*X373200D01*
X368400Y376600D02*X371600D01*
X368400D02*Y373400D01*
X371600D01*
Y376600D02*Y373400D01*
X380000Y378200D02*Y371800D01*
X376800Y375000D02*X383200D01*
X378400Y376600D02*X381600D01*
X378400D02*Y373400D01*
X381600D01*
Y376600D02*Y373400D01*
X390000Y378200D02*Y371800D01*
X386800Y375000D02*X393200D01*
X388400Y376600D02*X391600D01*
X388400D02*Y373400D01*
X391600D01*
Y376600D02*Y373400D01*
X400000Y378200D02*Y371800D01*
X396800Y375000D02*X403200D01*
X398400Y376600D02*X401600D01*
X398400D02*Y373400D01*
X401600D01*
Y376600D02*Y373400D01*
X240000Y303200D02*Y296800D01*
X236800Y300000D02*X243200D01*
X238400Y301600D02*X241600D01*
X238400D02*Y298400D01*
X241600D01*
Y301600D02*Y298400D01*
X250000Y303200D02*Y296800D01*
X246800Y300000D02*X253200D01*
X248400Y301600D02*X251600D01*
X248400D02*Y298400D01*
X251600D01*
Y301600D02*Y298400D01*
X260000Y303200D02*Y296800D01*
X256800Y300000D02*X263200D01*
X258400Y301600D02*X261600D01*
X258400D02*Y298400D01*
X261600D01*
Y301600D02*Y298400D01*
X270000Y303200D02*Y296800D01*
X266800Y300000D02*X273200D01*
X268400Y301600D02*X271600D01*
X268400D02*Y298400D01*
X271600D01*
Y301600D02*Y298400D01*
X280000Y303200D02*Y296800D01*
X276800Y300000D02*X283200D01*
X278400Y301600D02*X281600D01*
X278400D02*Y298400D01*
X281600D01*
Y301600D02*Y298400D01*
X290000Y303200D02*Y296800D01*
X286800Y300000D02*X293200D01*
X288400Y301600D02*X291600D01*
X288400D02*Y298400D01*
X291600D01*
Y301600D02*Y298400D01*
X300000Y303200D02*Y296800D01*
X296800Y300000D02*X303200D01*
X298400Y301600D02*X301600D01*
X298400D02*Y298400D01*
X301600D01*
Y301600D02*Y298400D01*
X310000Y303200D02*Y296800D01*
X306800Y300000D02*X313200D01*
X308400Y301600D02*X311600D01*
X308400D02*Y298400D01*
X311600D01*
Y301600D02*Y298400D01*
X221000Y303200D02*Y296800D01*
X217800Y300000D02*X224200D01*
X219400Y301600D02*X222600D01*
X219400D02*Y298400D01*
X222600D01*
Y301600D02*Y298400D01*
X221000Y313200D02*Y306800D01*
X217800Y310000D02*X224200D01*
X219400Y311600D02*X222600D01*
X219400D02*Y308400D01*
X222600D01*
Y311600D02*Y308400D01*
X221000Y323200D02*Y316800D01*
X217800Y320000D02*X224200D01*
X219400Y321600D02*X222600D01*
X219400D02*Y318400D01*
X222600D01*
Y321600D02*Y318400D01*
X221000Y333200D02*Y326800D01*
X217800Y330000D02*X224200D01*
X219400Y331600D02*X222600D01*
X219400D02*Y328400D01*
X222600D01*
Y331600D02*Y328400D01*
X221000Y343200D02*Y336800D01*
X217800Y340000D02*X224200D01*
X219400Y341600D02*X222600D01*
X219400D02*Y338400D01*
X222600D01*
Y341600D02*Y338400D01*
X221000Y353200D02*Y346800D01*
X217800Y350000D02*X224200D01*
X219400Y351600D02*X222600D01*
X219400D02*Y348400D01*
X222600D01*
Y351600D02*Y348400D01*
X240000Y353200D02*Y346800D01*
X236800Y350000D02*X243200D01*
X238400Y351600D02*X241600D01*
X238400D02*Y348400D01*
X241600D01*
Y351600D02*Y348400D01*
X250000Y353200D02*Y346800D01*
X246800Y350000D02*X253200D01*
X248400Y351600D02*X251600D01*
X248400D02*Y348400D01*
X251600D01*
Y351600D02*Y348400D01*
X260000Y353200D02*Y346800D01*
X256800Y350000D02*X263200D01*
X258400Y351600D02*X261600D01*
X258400D02*Y348400D01*
X261600D01*
Y351600D02*Y348400D01*
X270000Y353200D02*Y346800D01*
X266800Y350000D02*X273200D01*
X268400Y351600D02*X271600D01*
X268400D02*Y348400D01*
X271600D01*
Y351600D02*Y348400D01*
X280000Y353200D02*Y346800D01*
X276800Y350000D02*X283200D01*
X278400Y351600D02*X281600D01*
X278400D02*Y348400D01*
X281600D01*
Y351600D02*Y348400D01*
X290000Y353200D02*Y346800D01*
X286800Y350000D02*X293200D01*
X288400Y351600D02*X291600D01*
X288400D02*Y348400D01*
X291600D01*
Y351600D02*Y348400D01*
X300000Y353200D02*Y346800D01*
X296800Y350000D02*X303200D01*
X298400Y351600D02*X301600D01*
X298400D02*Y348400D01*
X301600D01*
Y351600D02*Y348400D01*
X310000Y353200D02*Y346800D01*
X306800Y350000D02*X313200D01*
X308400Y351600D02*X311600D01*
X308400D02*Y348400D01*
X311600D01*
Y351600D02*Y348400D01*
X310000Y378200D02*Y371800D01*
X306800Y375000D02*X313200D01*
X308400Y376600D02*X311600D01*
X308400D02*Y373400D01*
X311600D01*
Y376600D02*Y373400D01*
X310000Y368200D02*Y361800D01*
X306800Y365000D02*X313200D01*
X308400Y366600D02*X311600D01*
X308400D02*Y363400D01*
X311600D01*
Y366600D02*Y363400D01*
X300000Y368200D02*Y361800D01*
X296800Y365000D02*X303200D01*
X298400Y366600D02*X301600D01*
X298400D02*Y363400D01*
X301600D01*
Y366600D02*Y363400D01*
X300000Y378200D02*Y371800D01*
X296800Y375000D02*X303200D01*
X298400Y376600D02*X301600D01*
X298400D02*Y373400D01*
X301600D01*
Y376600D02*Y373400D01*
X271000Y378200D02*Y371800D01*
X267800Y375000D02*X274200D01*
X269400Y376600D02*X272600D01*
X269400D02*Y373400D01*
X272600D01*
Y376600D02*Y373400D01*
X271000Y368200D02*Y361800D01*
X267800Y365000D02*X274200D01*
X269400Y366600D02*X272600D01*
X269400D02*Y363400D01*
X272600D01*
Y366600D02*Y363400D01*
X261000Y378200D02*Y371800D01*
X257800Y375000D02*X264200D01*
X259400Y376600D02*X262600D01*
X259400D02*Y373400D01*
X262600D01*
Y376600D02*Y373400D01*
X261000Y368200D02*Y361800D01*
X257800Y365000D02*X264200D01*
X259400Y366600D02*X262600D01*
X259400D02*Y363400D01*
X262600D01*
Y366600D02*Y363400D01*
X251000Y378200D02*Y371800D01*
X247800Y375000D02*X254200D01*
X249400Y376600D02*X252600D01*
X249400D02*Y373400D01*
X252600D01*
Y376600D02*Y373400D01*
X251000Y368200D02*Y361800D01*
X247800Y365000D02*X254200D01*
X249400Y366600D02*X252600D01*
X249400D02*Y363400D01*
X252600D01*
Y366600D02*Y363400D01*
X241000Y378200D02*Y371800D01*
X237800Y375000D02*X244200D01*
X239400Y376600D02*X242600D01*
X239400D02*Y373400D01*
X242600D01*
Y376600D02*Y373400D01*
X241000Y368200D02*Y361800D01*
X237800Y365000D02*X244200D01*
X239400Y366600D02*X242600D01*
X239400D02*Y363400D01*
X242600D01*
Y366600D02*Y363400D01*
X231000Y378200D02*Y371800D01*
X227800Y375000D02*X234200D01*
X229400Y376600D02*X232600D01*
X229400D02*Y373400D01*
X232600D01*
Y376600D02*Y373400D01*
X231000Y368200D02*Y361800D01*
X227800Y365000D02*X234200D01*
X229400Y366600D02*X232600D01*
X229400D02*Y363400D01*
X232600D01*
Y366600D02*Y363400D01*
X201500Y378200D02*Y371800D01*
X198300Y375000D02*X204700D01*
X199900Y376600D02*X203100D01*
X199900D02*Y373400D01*
X203100D01*
Y376600D02*Y373400D01*
X201500Y368200D02*Y361800D01*
X198300Y365000D02*X204700D01*
X199900Y366600D02*X203100D01*
X199900D02*Y363400D01*
X203100D01*
Y366600D02*Y363400D01*
X191500Y378200D02*Y371800D01*
X188300Y375000D02*X194700D01*
X189900Y376600D02*X193100D01*
X189900D02*Y373400D01*
X193100D01*
Y376600D02*Y373400D01*
X191500Y368200D02*Y361800D01*
X188300Y365000D02*X194700D01*
X189900Y366600D02*X193100D01*
X189900D02*Y363400D01*
X193100D01*
Y366600D02*Y363400D01*
X181500Y378200D02*Y371800D01*
X178300Y375000D02*X184700D01*
X179900Y376600D02*X183100D01*
X179900D02*Y373400D01*
X183100D01*
Y376600D02*Y373400D01*
X181500Y368200D02*Y361800D01*
X178300Y365000D02*X184700D01*
X179900Y366600D02*X183100D01*
X179900D02*Y363400D01*
X183100D01*
Y366600D02*Y363400D01*
X171500Y378200D02*Y371800D01*
X168300Y375000D02*X174700D01*
X169900Y376600D02*X173100D01*
X169900D02*Y373400D01*
X173100D01*
Y376600D02*Y373400D01*
X171500Y368200D02*Y361800D01*
X168300Y365000D02*X174700D01*
X169900Y366600D02*X173100D01*
X169900D02*Y363400D01*
X173100D01*
Y366600D02*Y363400D01*
X161500Y378200D02*Y371800D01*
X158300Y375000D02*X164700D01*
X159900Y376600D02*X163100D01*
X159900D02*Y373400D01*
X163100D01*
Y376600D02*Y373400D01*
X161500Y368200D02*Y361800D01*
X158300Y365000D02*X164700D01*
X159900Y366600D02*X163100D01*
X159900D02*Y363400D01*
X163100D01*
Y366600D02*Y363400D01*
X132500Y378200D02*Y371800D01*
X129300Y375000D02*X135700D01*
X130900Y376600D02*X134100D01*
X130900D02*Y373400D01*
X134100D01*
Y376600D02*Y373400D01*
X132500Y368200D02*Y361800D01*
X129300Y365000D02*X135700D01*
X130900Y366600D02*X134100D01*
X130900D02*Y363400D01*
X134100D01*
Y366600D02*Y363400D01*
X122500Y368200D02*Y361800D01*
X119300Y365000D02*X125700D01*
X120900Y366600D02*X124100D01*
X120900D02*Y363400D01*
X124100D01*
Y366600D02*Y363400D01*
X122500Y378200D02*Y371800D01*
X119300Y375000D02*X125700D01*
X120900Y376600D02*X124100D01*
X120900D02*Y373400D01*
X124100D01*
Y376600D02*Y373400D01*
X107500Y378200D02*Y371800D01*
X104300Y375000D02*X110700D01*
X105900Y376600D02*X109100D01*
X105900D02*Y373400D01*
X109100D01*
Y376600D02*Y373400D01*
X97500Y378200D02*Y371800D01*
X94300Y375000D02*X100700D01*
X95900Y376600D02*X99100D01*
X95900D02*Y373400D01*
X99100D01*
Y376600D02*Y373400D01*
X87500Y378200D02*Y371800D01*
X84300Y375000D02*X90700D01*
X85900Y376600D02*X89100D01*
X85900D02*Y373400D01*
X89100D01*
Y376600D02*Y373400D01*
X77500Y378200D02*Y371800D01*
X74300Y375000D02*X80700D01*
X75900Y376600D02*X79100D01*
X75900D02*Y373400D01*
X79100D01*
Y376600D02*Y373400D01*
X67500Y378200D02*Y371800D01*
X64300Y375000D02*X70700D01*
X65900Y376600D02*X69100D01*
X65900D02*Y373400D01*
X69100D01*
Y376600D02*Y373400D01*
X57500Y378200D02*Y371800D01*
X54300Y375000D02*X60700D01*
X55900Y376600D02*X59100D01*
X55900D02*Y373400D01*
X59100D01*
Y376600D02*Y373400D01*
X57500Y618200D02*Y611800D01*
X54300Y615000D02*X60700D01*
X55900Y616600D02*X59100D01*
X55900D02*Y613400D01*
X59100D01*
Y616600D02*Y613400D01*
X67500Y618200D02*Y611800D01*
X64300Y615000D02*X70700D01*
X65900Y616600D02*X69100D01*
X65900D02*Y613400D01*
X69100D01*
Y616600D02*Y613400D01*
X77500Y618200D02*Y611800D01*
X74300Y615000D02*X80700D01*
X75900Y616600D02*X79100D01*
X75900D02*Y613400D01*
X79100D01*
Y616600D02*Y613400D01*
X87500Y618200D02*Y611800D01*
X84300Y615000D02*X90700D01*
X85900Y616600D02*X89100D01*
X85900D02*Y613400D01*
X89100D01*
Y616600D02*Y613400D01*
X97500Y618200D02*Y611800D01*
X94300Y615000D02*X100700D01*
X95900Y616600D02*X99100D01*
X95900D02*Y613400D01*
X99100D01*
Y616600D02*Y613400D01*
X107500Y618200D02*Y611800D01*
X104300Y615000D02*X110700D01*
X105900Y616600D02*X109100D01*
X105900D02*Y613400D01*
X109100D01*
Y616600D02*Y613400D01*
X122500Y618200D02*Y611800D01*
X119300Y615000D02*X125700D01*
X120900Y616600D02*X124100D01*
X120900D02*Y613400D01*
X124100D01*
Y616600D02*Y613400D01*
X122500Y608200D02*Y601800D01*
X119300Y605000D02*X125700D01*
X120900Y606600D02*X124100D01*
X120900D02*Y603400D01*
X124100D01*
Y606600D02*Y603400D01*
X132500Y608200D02*Y601800D01*
X129300Y605000D02*X135700D01*
X130900Y606600D02*X134100D01*
X130900D02*Y603400D01*
X134100D01*
Y606600D02*Y603400D01*
X132500Y618200D02*Y611800D01*
X129300Y615000D02*X135700D01*
X130900Y616600D02*X134100D01*
X130900D02*Y613400D01*
X134100D01*
Y616600D02*Y613400D01*
X161500Y608200D02*Y601800D01*
X158300Y605000D02*X164700D01*
X159900Y606600D02*X163100D01*
X159900D02*Y603400D01*
X163100D01*
Y606600D02*Y603400D01*
X161500Y618200D02*Y611800D01*
X158300Y615000D02*X164700D01*
X159900Y616600D02*X163100D01*
X159900D02*Y613400D01*
X163100D01*
Y616600D02*Y613400D01*
X171500Y608200D02*Y601800D01*
X168300Y605000D02*X174700D01*
X169900Y606600D02*X173100D01*
X169900D02*Y603400D01*
X173100D01*
Y606600D02*Y603400D01*
X171500Y618200D02*Y611800D01*
X168300Y615000D02*X174700D01*
X169900Y616600D02*X173100D01*
X169900D02*Y613400D01*
X173100D01*
Y616600D02*Y613400D01*
X181500Y608200D02*Y601800D01*
X178300Y605000D02*X184700D01*
X179900Y606600D02*X183100D01*
X179900D02*Y603400D01*
X183100D01*
Y606600D02*Y603400D01*
X181500Y618200D02*Y611800D01*
X178300Y615000D02*X184700D01*
X179900Y616600D02*X183100D01*
X179900D02*Y613400D01*
X183100D01*
Y616600D02*Y613400D01*
X191500Y608200D02*Y601800D01*
X188300Y605000D02*X194700D01*
X189900Y606600D02*X193100D01*
X189900D02*Y603400D01*
X193100D01*
Y606600D02*Y603400D01*
X191500Y618200D02*Y611800D01*
X188300Y615000D02*X194700D01*
X189900Y616600D02*X193100D01*
X189900D02*Y613400D01*
X193100D01*
Y616600D02*Y613400D01*
X201500Y608200D02*Y601800D01*
X198300Y605000D02*X204700D01*
X199900Y606600D02*X203100D01*
X199900D02*Y603400D01*
X203100D01*
Y606600D02*Y603400D01*
X201500Y618200D02*Y611800D01*
X198300Y615000D02*X204700D01*
X199900Y616600D02*X203100D01*
X199900D02*Y613400D01*
X203100D01*
Y616600D02*Y613400D01*
X231000Y608200D02*Y601800D01*
X227800Y605000D02*X234200D01*
X229400Y606600D02*X232600D01*
X229400D02*Y603400D01*
X232600D01*
Y606600D02*Y603400D01*
X231000Y618200D02*Y611800D01*
X227800Y615000D02*X234200D01*
X229400Y616600D02*X232600D01*
X229400D02*Y613400D01*
X232600D01*
Y616600D02*Y613400D01*
X241000Y608200D02*Y601800D01*
X237800Y605000D02*X244200D01*
X239400Y606600D02*X242600D01*
X239400D02*Y603400D01*
X242600D01*
Y606600D02*Y603400D01*
X241000Y618200D02*Y611800D01*
X237800Y615000D02*X244200D01*
X239400Y616600D02*X242600D01*
X239400D02*Y613400D01*
X242600D01*
Y616600D02*Y613400D01*
X251000Y608200D02*Y601800D01*
X247800Y605000D02*X254200D01*
X249400Y606600D02*X252600D01*
X249400D02*Y603400D01*
X252600D01*
Y606600D02*Y603400D01*
X251000Y618200D02*Y611800D01*
X247800Y615000D02*X254200D01*
X249400Y616600D02*X252600D01*
X249400D02*Y613400D01*
X252600D01*
Y616600D02*Y613400D01*
X261000Y608200D02*Y601800D01*
X257800Y605000D02*X264200D01*
X259400Y606600D02*X262600D01*
X259400D02*Y603400D01*
X262600D01*
Y606600D02*Y603400D01*
X261000Y618200D02*Y611800D01*
X257800Y615000D02*X264200D01*
X259400Y616600D02*X262600D01*
X259400D02*Y613400D01*
X262600D01*
Y616600D02*Y613400D01*
X271000Y608200D02*Y601800D01*
X267800Y605000D02*X274200D01*
X269400Y606600D02*X272600D01*
X269400D02*Y603400D01*
X272600D01*
Y606600D02*Y603400D01*
X271000Y618200D02*Y611800D01*
X267800Y615000D02*X274200D01*
X269400Y616600D02*X272600D01*
X269400D02*Y613400D01*
X272600D01*
Y616600D02*Y613400D01*
X300000Y618200D02*Y611800D01*
X296800Y615000D02*X303200D01*
X298400Y616600D02*X301600D01*
X298400D02*Y613400D01*
X301600D01*
Y616600D02*Y613400D01*
X300000Y608200D02*Y601800D01*
X296800Y605000D02*X303200D01*
X298400Y606600D02*X301600D01*
X298400D02*Y603400D01*
X301600D01*
Y606600D02*Y603400D01*
X310000Y608200D02*Y601800D01*
X306800Y605000D02*X313200D01*
X308400Y606600D02*X311600D01*
X308400D02*Y603400D01*
X311600D01*
Y606600D02*Y603400D01*
X310000Y618200D02*Y611800D01*
X306800Y615000D02*X313200D01*
X308400Y616600D02*X311600D01*
X308400D02*Y613400D01*
X311600D01*
Y616600D02*Y613400D01*
X310000Y593200D02*Y586800D01*
X306800Y590000D02*X313200D01*
X308400Y591600D02*X311600D01*
X308400D02*Y588400D01*
X311600D01*
Y591600D02*Y588400D01*
X300000Y593200D02*Y586800D01*
X296800Y590000D02*X303200D01*
X298400Y591600D02*X301600D01*
X298400D02*Y588400D01*
X301600D01*
Y591600D02*Y588400D01*
X290000Y593200D02*Y586800D01*
X286800Y590000D02*X293200D01*
X288400Y591600D02*X291600D01*
X288400D02*Y588400D01*
X291600D01*
Y591600D02*Y588400D01*
X280000Y593200D02*Y586800D01*
X276800Y590000D02*X283200D01*
X278400Y591600D02*X281600D01*
X278400D02*Y588400D01*
X281600D01*
Y591600D02*Y588400D01*
X270000Y593200D02*Y586800D01*
X266800Y590000D02*X273200D01*
X268400Y591600D02*X271600D01*
X268400D02*Y588400D01*
X271600D01*
Y591600D02*Y588400D01*
X260000Y593200D02*Y586800D01*
X256800Y590000D02*X263200D01*
X258400Y591600D02*X261600D01*
X258400D02*Y588400D01*
X261600D01*
Y591600D02*Y588400D01*
X250000Y593200D02*Y586800D01*
X246800Y590000D02*X253200D01*
X248400Y591600D02*X251600D01*
X248400D02*Y588400D01*
X251600D01*
Y591600D02*Y588400D01*
X240000Y593200D02*Y586800D01*
X236800Y590000D02*X243200D01*
X238400Y591600D02*X241600D01*
X238400D02*Y588400D01*
X241600D01*
Y591600D02*Y588400D01*
X221000Y593200D02*Y586800D01*
X217800Y590000D02*X224200D01*
X219400Y591600D02*X222600D01*
X219400D02*Y588400D01*
X222600D01*
Y591600D02*Y588400D01*
X221000Y583200D02*Y576800D01*
X217800Y580000D02*X224200D01*
X219400Y581600D02*X222600D01*
X219400D02*Y578400D01*
X222600D01*
Y581600D02*Y578400D01*
X221000Y573200D02*Y566800D01*
X217800Y570000D02*X224200D01*
X219400Y571600D02*X222600D01*
X219400D02*Y568400D01*
X222600D01*
Y571600D02*Y568400D01*
X221000Y563200D02*Y556800D01*
X217800Y560000D02*X224200D01*
X219400Y561600D02*X222600D01*
X219400D02*Y558400D01*
X222600D01*
Y561600D02*Y558400D01*
X221000Y553200D02*Y546800D01*
X217800Y550000D02*X224200D01*
X219400Y551600D02*X222600D01*
X219400D02*Y548400D01*
X222600D01*
Y551600D02*Y548400D01*
X221000Y543200D02*Y536800D01*
X217800Y540000D02*X224200D01*
X219400Y541600D02*X222600D01*
X219400D02*Y538400D01*
X222600D01*
Y541600D02*Y538400D01*
X310000Y543200D02*Y536800D01*
X306800Y540000D02*X313200D01*
X308400Y541600D02*X311600D01*
X308400D02*Y538400D01*
X311600D01*
Y541600D02*Y538400D01*
X300000Y543200D02*Y536800D01*
X296800Y540000D02*X303200D01*
X298400Y541600D02*X301600D01*
X298400D02*Y538400D01*
X301600D01*
Y541600D02*Y538400D01*
X290000Y543200D02*Y536800D01*
X286800Y540000D02*X293200D01*
X288400Y541600D02*X291600D01*
X288400D02*Y538400D01*
X291600D01*
Y541600D02*Y538400D01*
X280000Y543200D02*Y536800D01*
X276800Y540000D02*X283200D01*
X278400Y541600D02*X281600D01*
X278400D02*Y538400D01*
X281600D01*
Y541600D02*Y538400D01*
X270000Y543200D02*Y536800D01*
X266800Y540000D02*X273200D01*
X268400Y541600D02*X271600D01*
X268400D02*Y538400D01*
X271600D01*
Y541600D02*Y538400D01*
X260000Y543200D02*Y536800D01*
X256800Y540000D02*X263200D01*
X258400Y541600D02*X261600D01*
X258400D02*Y538400D01*
X261600D01*
Y541600D02*Y538400D01*
X250000Y543200D02*Y536800D01*
X246800Y540000D02*X253200D01*
X248400Y541600D02*X251600D01*
X248400D02*Y538400D01*
X251600D01*
Y541600D02*Y538400D01*
X240000Y543200D02*Y536800D01*
X236800Y540000D02*X243200D01*
X238400Y541600D02*X241600D01*
X238400D02*Y538400D01*
X241600D01*
Y541600D02*Y538400D01*
X400000Y543200D02*Y536800D01*
X396800Y540000D02*X403200D01*
X398400Y541600D02*X401600D01*
X398400D02*Y538400D01*
X401600D01*
Y541600D02*Y538400D01*
X390000Y543200D02*Y536800D01*
X386800Y540000D02*X393200D01*
X388400Y541600D02*X391600D01*
X388400D02*Y538400D01*
X391600D01*
Y541600D02*Y538400D01*
X380000Y543200D02*Y536800D01*
X376800Y540000D02*X383200D01*
X378400Y541600D02*X381600D01*
X378400D02*Y538400D01*
X381600D01*
Y541600D02*Y538400D01*
X370000Y543200D02*Y536800D01*
X366800Y540000D02*X373200D01*
X368400Y541600D02*X371600D01*
X368400D02*Y538400D01*
X371600D01*
Y541600D02*Y538400D01*
X360000Y543200D02*Y536800D01*
X356800Y540000D02*X363200D01*
X358400Y541600D02*X361600D01*
X358400D02*Y538400D01*
X361600D01*
Y541600D02*Y538400D01*
X350000Y543200D02*Y536800D01*
X346800Y540000D02*X353200D01*
X348400Y541600D02*X351600D01*
X348400D02*Y538400D01*
X351600D01*
Y541600D02*Y538400D01*
X340000Y543200D02*Y536800D01*
X336800Y540000D02*X343200D01*
X338400Y541600D02*X341600D01*
X338400D02*Y538400D01*
X341600D01*
Y541600D02*Y538400D01*
X330000Y543200D02*Y536800D01*
X326800Y540000D02*X333200D01*
X328400Y541600D02*X331600D01*
X328400D02*Y538400D01*
X331600D01*
Y541600D02*Y538400D01*
X400000Y618200D02*Y611800D01*
X396800Y615000D02*X403200D01*
X398400Y616600D02*X401600D01*
X398400D02*Y613400D01*
X401600D01*
Y616600D02*Y613400D01*
X390000Y618200D02*Y611800D01*
X386800Y615000D02*X393200D01*
X388400Y616600D02*X391600D01*
X388400D02*Y613400D01*
X391600D01*
Y616600D02*Y613400D01*
X380000Y618200D02*Y611800D01*
X376800Y615000D02*X383200D01*
X378400Y616600D02*X381600D01*
X378400D02*Y613400D01*
X381600D01*
Y616600D02*Y613400D01*
X370000Y618200D02*Y611800D01*
X366800Y615000D02*X373200D01*
X368400Y616600D02*X371600D01*
X368400D02*Y613400D01*
X371600D01*
Y616600D02*Y613400D01*
X360000Y618200D02*Y611800D01*
X356800Y615000D02*X363200D01*
X358400Y616600D02*X361600D01*
X358400D02*Y613400D01*
X361600D01*
Y616600D02*Y613400D01*
X350000Y618200D02*Y611800D01*
X346800Y615000D02*X353200D01*
X348400Y616600D02*X351600D01*
X348400D02*Y613400D01*
X351600D01*
Y616600D02*Y613400D01*
X340000Y618200D02*Y611800D01*
X336800Y615000D02*X343200D01*
X338400Y616600D02*X341600D01*
X338400D02*Y613400D01*
X341600D01*
Y616600D02*Y613400D01*
X330000Y618200D02*Y611800D01*
X326800Y615000D02*X333200D01*
X328400Y616600D02*X331600D01*
X328400D02*Y613400D01*
X331600D01*
Y616600D02*Y613400D01*
X583000Y653200D02*Y646800D01*
X579800Y650000D02*X586200D01*
X581400Y651600D02*X584600D01*
X581400D02*Y648400D01*
X584600D01*
Y651600D02*Y648400D01*
X583000Y643200D02*Y636800D01*
X579800Y640000D02*X586200D01*
X581400Y641600D02*X584600D01*
X581400D02*Y638400D01*
X584600D01*
Y641600D02*Y638400D01*
X593000Y643200D02*Y636800D01*
X589800Y640000D02*X596200D01*
X591400Y641600D02*X594600D01*
X591400D02*Y638400D01*
X594600D01*
Y641600D02*Y638400D01*
X593000Y653200D02*Y646800D01*
X589800Y650000D02*X596200D01*
X591400Y651600D02*X594600D01*
X591400D02*Y648400D01*
X594600D01*
Y651600D02*Y648400D01*
X760000Y653200D02*Y646800D01*
X756800Y650000D02*X763200D01*
X758400Y651600D02*X761600D01*
X758400D02*Y648400D01*
X761600D01*
Y651600D02*Y648400D01*
X760000Y643200D02*Y636800D01*
X756800Y640000D02*X763200D01*
X758400Y641600D02*X761600D01*
X758400D02*Y638400D01*
X761600D01*
Y641600D02*Y638400D01*
X770000Y643200D02*Y636800D01*
X766800Y640000D02*X773200D01*
X768400Y641600D02*X771600D01*
X768400D02*Y638400D01*
X771600D01*
Y641600D02*Y638400D01*
X770000Y653200D02*Y646800D01*
X766800Y650000D02*X773200D01*
X768400Y651600D02*X771600D01*
X768400D02*Y648400D01*
X771600D01*
Y651600D02*Y648400D01*
X691000Y693700D02*Y687300D01*
X687800Y690500D02*X694200D01*
X689400Y692100D02*X692600D01*
X689400D02*Y688900D01*
X692600D01*
Y692100D02*Y688900D01*
X691000Y683700D02*Y677300D01*
X687800Y680500D02*X694200D01*
X689400Y682100D02*X692600D01*
X689400D02*Y678900D01*
X692600D01*
Y682100D02*Y678900D01*
X691000Y673700D02*Y667300D01*
X687800Y670500D02*X694200D01*
X689400Y672100D02*X692600D01*
X689400D02*Y668900D01*
X692600D01*
Y672100D02*Y668900D01*
X691000Y663700D02*Y657300D01*
X687800Y660500D02*X694200D01*
X689400Y662100D02*X692600D01*
X689400D02*Y658900D01*
X692600D01*
Y662100D02*Y658900D01*
X691000Y653700D02*Y647300D01*
X687800Y650500D02*X694200D01*
X689400Y652100D02*X692600D01*
X689400D02*Y648900D01*
X692600D01*
Y652100D02*Y648900D01*
X691000Y643700D02*Y637300D01*
X687800Y640500D02*X694200D01*
X689400Y642100D02*X692600D01*
X689400D02*Y638900D01*
X692600D01*
Y642100D02*Y638900D01*
X691000Y633700D02*Y627300D01*
X687800Y630500D02*X694200D01*
X689400Y632100D02*X692600D01*
X689400D02*Y628900D01*
X692600D01*
Y632100D02*Y628900D01*
X691000Y623700D02*Y617300D01*
X687800Y620500D02*X694200D01*
X689400Y622100D02*X692600D01*
X689400D02*Y618900D01*
X692600D01*
Y622100D02*Y618900D01*
X661500Y693200D02*Y686800D01*
X658300Y690000D02*X664700D01*
X659900Y691600D02*X663100D01*
X659900D02*Y688400D01*
X663100D01*
Y691600D02*Y688400D01*
X661500Y683200D02*Y676800D01*
X658300Y680000D02*X664700D01*
X659900Y681600D02*X663100D01*
X659900D02*Y678400D01*
X663100D01*
Y681600D02*Y678400D01*
X661500Y673200D02*Y666800D01*
X658300Y670000D02*X664700D01*
X659900Y671600D02*X663100D01*
X659900D02*Y668400D01*
X663100D01*
Y671600D02*Y668400D01*
X661500Y663200D02*Y656800D01*
X658300Y660000D02*X664700D01*
X659900Y661600D02*X663100D01*
X659900D02*Y658400D01*
X663100D01*
Y661600D02*Y658400D01*
X661500Y653200D02*Y646800D01*
X658300Y650000D02*X664700D01*
X659900Y651600D02*X663100D01*
X659900D02*Y648400D01*
X663100D01*
Y651600D02*Y648400D01*
X661500Y643200D02*Y636800D01*
X658300Y640000D02*X664700D01*
X659900Y641600D02*X663100D01*
X659900D02*Y638400D01*
X663100D01*
Y641600D02*Y638400D01*
X661500Y633200D02*Y626800D01*
X658300Y630000D02*X664700D01*
X659900Y631600D02*X663100D01*
X659900D02*Y628400D01*
X663100D01*
Y631600D02*Y628400D01*
X661500Y623200D02*Y616800D01*
X658300Y620000D02*X664700D01*
X659900Y621600D02*X663100D01*
X659900D02*Y618400D01*
X663100D01*
Y621600D02*Y618400D01*
X575000Y322700D02*Y316300D01*
X571800Y319500D02*X578200D01*
X573400Y321100D02*X576600D01*
X573400D02*Y317900D01*
X576600D01*
Y321100D02*Y317900D01*
X575000Y332700D02*Y326300D01*
X571800Y329500D02*X578200D01*
X573400Y331100D02*X576600D01*
X573400D02*Y327900D01*
X576600D01*
Y331100D02*Y327900D01*
X585000Y322700D02*Y316300D01*
X581800Y319500D02*X588200D01*
X583400Y321100D02*X586600D01*
X583400D02*Y317900D01*
X586600D01*
Y321100D02*Y317900D01*
X585000Y332700D02*Y326300D01*
X581800Y329500D02*X588200D01*
X583400Y331100D02*X586600D01*
X583400D02*Y327900D01*
X586600D01*
Y331100D02*Y327900D01*
X595000Y322700D02*Y316300D01*
X591800Y319500D02*X598200D01*
X593400Y321100D02*X596600D01*
X593400D02*Y317900D01*
X596600D01*
Y321100D02*Y317900D01*
X595000Y332700D02*Y326300D01*
X591800Y329500D02*X598200D01*
X593400Y331100D02*X596600D01*
X593400D02*Y327900D01*
X596600D01*
Y331100D02*Y327900D01*
X605000Y322700D02*Y316300D01*
X601800Y319500D02*X608200D01*
X603400Y321100D02*X606600D01*
X603400D02*Y317900D01*
X606600D01*
Y321100D02*Y317900D01*
X605000Y332700D02*Y326300D01*
X601800Y329500D02*X608200D01*
X603400Y331100D02*X606600D01*
X603400D02*Y327900D01*
X606600D01*
Y331100D02*Y327900D01*
X615000Y322700D02*Y316300D01*
X611800Y319500D02*X618200D01*
X613400Y321100D02*X616600D01*
X613400D02*Y317900D01*
X616600D01*
Y321100D02*Y317900D01*
X615000Y332700D02*Y326300D01*
X611800Y329500D02*X618200D01*
X613400Y331100D02*X616600D01*
X613400D02*Y327900D01*
X616600D01*
Y331100D02*Y327900D01*
X625000Y322700D02*Y316300D01*
X621800Y319500D02*X628200D01*
X623400Y321100D02*X626600D01*
X623400D02*Y317900D01*
X626600D01*
Y321100D02*Y317900D01*
X625000Y332700D02*Y326300D01*
X621800Y329500D02*X628200D01*
X623400Y331100D02*X626600D01*
X623400D02*Y327900D01*
X626600D01*
Y331100D02*Y327900D01*
X635000Y322700D02*Y316300D01*
X631800Y319500D02*X638200D01*
X633400Y321100D02*X636600D01*
X633400D02*Y317900D01*
X636600D01*
Y321100D02*Y317900D01*
X635000Y332700D02*Y326300D01*
X631800Y329500D02*X638200D01*
X633400Y331100D02*X636600D01*
X633400D02*Y327900D01*
X636600D01*
Y331100D02*Y327900D01*
X645000Y322700D02*Y316300D01*
X641800Y319500D02*X648200D01*
X643400Y321100D02*X646600D01*
X643400D02*Y317900D01*
X646600D01*
Y321100D02*Y317900D01*
X645000Y332700D02*Y326300D01*
X641800Y329500D02*X648200D01*
X643400Y331100D02*X646600D01*
X643400D02*Y327900D01*
X646600D01*
Y331100D02*Y327900D01*
X655000Y322700D02*Y316300D01*
X651800Y319500D02*X658200D01*
X653400Y321100D02*X656600D01*
X653400D02*Y317900D01*
X656600D01*
Y321100D02*Y317900D01*
X655000Y332700D02*Y326300D01*
X651800Y329500D02*X658200D01*
X653400Y331100D02*X656600D01*
X653400D02*Y327900D01*
X656600D01*
Y331100D02*Y327900D01*
X665000Y322700D02*Y316300D01*
X661800Y319500D02*X668200D01*
X663400Y321100D02*X666600D01*
X663400D02*Y317900D01*
X666600D01*
Y321100D02*Y317900D01*
X665000Y332700D02*Y326300D01*
X661800Y329500D02*X668200D01*
X663400Y331100D02*X666600D01*
X663400D02*Y327900D01*
X666600D01*
Y331100D02*Y327900D01*
X15000Y1934450D02*Y1928050D01*
X11800Y1931250D02*X18200D01*
X13400Y1932850D02*X16600D01*
X13400D02*Y1929650D01*
X16600D01*
Y1932850D02*Y1929650D01*
X135000Y1933500D02*X136500Y1930500D01*
X138000Y1933500D01*
X136500Y1930500D02*Y1927500D01*
X139800Y1930800D02*X142050D01*
X139800Y1927500D02*X142800D01*
X139800Y1933500D02*Y1927500D01*
Y1933500D02*X142800D01*
X147600D02*X148350Y1932750D01*
X145350Y1933500D02*X147600D01*
X144600Y1932750D02*X145350Y1933500D01*
X144600Y1932750D02*Y1931250D01*
X145350Y1930500D01*
X147600D01*
X148350Y1929750D01*
Y1928250D01*
X147600Y1927500D02*X148350Y1928250D01*
X145350Y1927500D02*X147600D01*
X144600Y1928250D02*X145350Y1927500D01*
X98000Y1932750D02*X98750Y1933500D01*
X100250D01*
X101000Y1932750D01*
X100250Y1927500D02*X101000Y1928250D01*
X98750Y1927500D02*X100250D01*
X98000Y1928250D02*X98750Y1927500D01*
Y1930800D02*X100250D01*
X101000Y1932750D02*Y1931550D01*
Y1930050D02*Y1928250D01*
Y1930050D02*X100250Y1930800D01*
X101000Y1931550D02*X100250Y1930800D01*
X102800Y1928250D02*X103550Y1927500D01*
X102800Y1932750D02*Y1928250D01*
Y1932750D02*X103550Y1933500D01*
X105050D01*
X105800Y1932750D01*
Y1928250D01*
X105050Y1927500D02*X105800Y1928250D01*
X103550Y1927500D02*X105050D01*
X102800Y1929000D02*X105800Y1932000D01*
X107600Y1929750D02*X110600Y1933500D01*
X107600Y1929750D02*X111350D01*
X110600Y1933500D02*Y1927500D01*
X45000Y1928250D02*X45750Y1927500D01*
X45000Y1932750D02*Y1928250D01*
Y1932750D02*X45750Y1933500D01*
X47250D01*
X48000Y1932750D01*
Y1928250D01*
X47250Y1927500D02*X48000Y1928250D01*
X45750Y1927500D02*X47250D01*
X45000Y1929000D02*X48000Y1932000D01*
X49800Y1927500D02*X50550D01*
X52350Y1928250D02*X53100Y1927500D01*
X52350Y1932750D02*Y1928250D01*
Y1932750D02*X53100Y1933500D01*
X54600D01*
X55350Y1932750D01*
Y1928250D01*
X54600Y1927500D02*X55350Y1928250D01*
X53100Y1927500D02*X54600D01*
X52350Y1929000D02*X55350Y1932000D01*
X57150Y1932750D02*X57900Y1933500D01*
X59400D01*
X60150Y1932750D01*
X59400Y1927500D02*X60150Y1928250D01*
X57900Y1927500D02*X59400D01*
X57150Y1928250D02*X57900Y1927500D01*
Y1930800D02*X59400D01*
X60150Y1932750D02*Y1931550D01*
Y1930050D02*Y1928250D01*
Y1930050D02*X59400Y1930800D01*
X60150Y1931550D02*X59400Y1930800D01*
X61950Y1928250D02*X62700Y1927500D01*
X61950Y1929450D02*Y1928250D01*
Y1929450D02*X63000Y1930500D01*
X63900D01*
X64950Y1929450D01*
Y1928250D01*
X64200Y1927500D02*X64950Y1928250D01*
X62700Y1927500D02*X64200D01*
X61950Y1931550D02*X63000Y1930500D01*
X61950Y1932750D02*Y1931550D01*
Y1932750D02*X62700Y1933500D01*
X64200D01*
X64950Y1932750D01*
Y1931550D01*
X63900Y1930500D02*X64950Y1931550D01*
X487520Y334465D02*Y331265D01*
Y334465D02*X490293Y336065D01*
X487520Y334465D02*X484746Y336065D01*
X485920Y334465D02*G75*G03X489120Y334465I1600J0D01*G01*
G75*G03X485920Y334465I-1600J0D01*G01*
X487520Y324425D02*Y321225D01*
Y324425D02*X490293Y326025D01*
X487520Y324425D02*X484746Y326025D01*
X485920Y324425D02*G75*G03X489120Y324425I1600J0D01*G01*
G75*G03X485920Y324425I-1600J0D01*G01*
X513543Y349976D02*Y346776D01*
Y349976D02*X516317Y351576D01*
X513543Y349976D02*X510770Y351576D01*
X511943Y349976D02*G75*G03X515143Y349976I1600J0D01*G01*
G75*G03X511943Y349976I-1600J0D01*G01*
X513543Y341945D02*Y338745D01*
Y341945D02*X516317Y343545D01*
X513543Y341945D02*X510770Y343545D01*
X511943Y341945D02*G75*G03X515143Y341945I1600J0D01*G01*
G75*G03X511943Y341945I-1600J0D01*G01*
X513543Y358008D02*Y354808D01*
Y358008D02*X516317Y359608D01*
X513543Y358008D02*X510770Y359608D01*
X511943Y358008D02*G75*G03X515143Y358008I1600J0D01*G01*
G75*G03X511943Y358008I-1600J0D01*G01*
X513543Y366039D02*Y362839D01*
Y366039D02*X516317Y367639D01*
X513543Y366039D02*X510770Y367639D01*
X511943Y366039D02*G75*G03X515143Y366039I1600J0D01*G01*
G75*G03X511943Y366039I-1600J0D01*G01*
X506457Y353992D02*Y350792D01*
Y353992D02*X509230Y355592D01*
X506457Y353992D02*X503683Y355592D01*
X504857Y353992D02*G75*G03X508057Y353992I1600J0D01*G01*
G75*G03X504857Y353992I-1600J0D01*G01*
X506457Y362024D02*Y358824D01*
Y362024D02*X509230Y363624D01*
X506457Y362024D02*X503683Y363624D01*
X504857Y362024D02*G75*G03X508057Y362024I1600J0D01*G01*
G75*G03X504857Y362024I-1600J0D01*G01*
X506457Y345961D02*Y342761D01*
Y345961D02*X509230Y347561D01*
X506457Y345961D02*X503683Y347561D01*
X504857Y345961D02*G75*G03X508057Y345961I1600J0D01*G01*
G75*G03X504857Y345961I-1600J0D01*G01*
X506457Y337929D02*Y334729D01*
Y337929D02*X509230Y339529D01*
X506457Y337929D02*X503683Y339529D01*
X504857Y337929D02*G75*G03X508057Y337929I1600J0D01*G01*
G75*G03X504857Y337929I-1600J0D01*G01*
X487520Y379543D02*Y376343D01*
Y379543D02*X490293Y381143D01*
X487520Y379543D02*X484746Y381143D01*
X485920Y379543D02*G75*G03X489120Y379543I1600J0D01*G01*
G75*G03X485920Y379543I-1600J0D01*G01*
X487520Y369504D02*Y366304D01*
Y369504D02*X490293Y371104D01*
X487520Y369504D02*X484746Y371104D01*
X485920Y369504D02*G75*G03X489120Y369504I1600J0D01*G01*
G75*G03X485920Y369504I-1600J0D01*G01*
X487520Y464465D02*Y461265D01*
Y464465D02*X490293Y466065D01*
X487520Y464465D02*X484746Y466065D01*
X485920Y464465D02*G75*G03X489120Y464465I1600J0D01*G01*
G75*G03X485920Y464465I-1600J0D01*G01*
X487520Y454425D02*Y451225D01*
Y454425D02*X490293Y456025D01*
X487520Y454425D02*X484746Y456025D01*
X485920Y454425D02*G75*G03X489120Y454425I1600J0D01*G01*
G75*G03X485920Y454425I-1600J0D01*G01*
X513543Y479976D02*Y476776D01*
Y479976D02*X516317Y481576D01*
X513543Y479976D02*X510770Y481576D01*
X511943Y479976D02*G75*G03X515143Y479976I1600J0D01*G01*
G75*G03X511943Y479976I-1600J0D01*G01*
X513543Y471945D02*Y468745D01*
Y471945D02*X516317Y473545D01*
X513543Y471945D02*X510770Y473545D01*
X511943Y471945D02*G75*G03X515143Y471945I1600J0D01*G01*
G75*G03X511943Y471945I-1600J0D01*G01*
X513543Y488008D02*Y484808D01*
Y488008D02*X516317Y489608D01*
X513543Y488008D02*X510770Y489608D01*
X511943Y488008D02*G75*G03X515143Y488008I1600J0D01*G01*
G75*G03X511943Y488008I-1600J0D01*G01*
X513543Y496039D02*Y492839D01*
Y496039D02*X516317Y497639D01*
X513543Y496039D02*X510770Y497639D01*
X511943Y496039D02*G75*G03X515143Y496039I1600J0D01*G01*
G75*G03X511943Y496039I-1600J0D01*G01*
X506457Y483992D02*Y480792D01*
Y483992D02*X509230Y485592D01*
X506457Y483992D02*X503683Y485592D01*
X504857Y483992D02*G75*G03X508057Y483992I1600J0D01*G01*
G75*G03X504857Y483992I-1600J0D01*G01*
X506457Y492024D02*Y488824D01*
Y492024D02*X509230Y493624D01*
X506457Y492024D02*X503683Y493624D01*
X504857Y492024D02*G75*G03X508057Y492024I1600J0D01*G01*
G75*G03X504857Y492024I-1600J0D01*G01*
X506457Y475961D02*Y472761D01*
Y475961D02*X509230Y477561D01*
X506457Y475961D02*X503683Y477561D01*
X504857Y475961D02*G75*G03X508057Y475961I1600J0D01*G01*
G75*G03X504857Y475961I-1600J0D01*G01*
X506457Y467929D02*Y464729D01*
Y467929D02*X509230Y469529D01*
X506457Y467929D02*X503683Y469529D01*
X504857Y467929D02*G75*G03X508057Y467929I1600J0D01*G01*
G75*G03X504857Y467929I-1600J0D01*G01*
X487520Y509543D02*Y506343D01*
Y509543D02*X490293Y511143D01*
X487520Y509543D02*X484746Y511143D01*
X485920Y509543D02*G75*G03X489120Y509543I1600J0D01*G01*
G75*G03X485920Y509543I-1600J0D01*G01*
X487520Y499504D02*Y496304D01*
Y499504D02*X490293Y501104D01*
X487520Y499504D02*X484746Y501104D01*
X485920Y499504D02*G75*G03X489120Y499504I1600J0D01*G01*
G75*G03X485920Y499504I-1600J0D01*G01*
X487520Y399465D02*Y396265D01*
Y399465D02*X490293Y401065D01*
X487520Y399465D02*X484746Y401065D01*
X485920Y399465D02*G75*G03X489120Y399465I1600J0D01*G01*
G75*G03X485920Y399465I-1600J0D01*G01*
X487520Y389425D02*Y386225D01*
Y389425D02*X490293Y391025D01*
X487520Y389425D02*X484746Y391025D01*
X485920Y389425D02*G75*G03X489120Y389425I1600J0D01*G01*
G75*G03X485920Y389425I-1600J0D01*G01*
X513543Y414976D02*Y411776D01*
Y414976D02*X516317Y416576D01*
X513543Y414976D02*X510770Y416576D01*
X511943Y414976D02*G75*G03X515143Y414976I1600J0D01*G01*
G75*G03X511943Y414976I-1600J0D01*G01*
X513543Y406945D02*Y403745D01*
Y406945D02*X516317Y408545D01*
X513543Y406945D02*X510770Y408545D01*
X511943Y406945D02*G75*G03X515143Y406945I1600J0D01*G01*
G75*G03X511943Y406945I-1600J0D01*G01*
X513543Y423008D02*Y419808D01*
Y423008D02*X516317Y424608D01*
X513543Y423008D02*X510770Y424608D01*
X511943Y423008D02*G75*G03X515143Y423008I1600J0D01*G01*
G75*G03X511943Y423008I-1600J0D01*G01*
X513543Y431039D02*Y427839D01*
Y431039D02*X516317Y432639D01*
X513543Y431039D02*X510770Y432639D01*
X511943Y431039D02*G75*G03X515143Y431039I1600J0D01*G01*
G75*G03X511943Y431039I-1600J0D01*G01*
X506457Y418992D02*Y415792D01*
Y418992D02*X509230Y420592D01*
X506457Y418992D02*X503683Y420592D01*
X504857Y418992D02*G75*G03X508057Y418992I1600J0D01*G01*
G75*G03X504857Y418992I-1600J0D01*G01*
X506457Y427024D02*Y423824D01*
Y427024D02*X509230Y428624D01*
X506457Y427024D02*X503683Y428624D01*
X504857Y427024D02*G75*G03X508057Y427024I1600J0D01*G01*
G75*G03X504857Y427024I-1600J0D01*G01*
X506457Y410961D02*Y407761D01*
Y410961D02*X509230Y412561D01*
X506457Y410961D02*X503683Y412561D01*
X504857Y410961D02*G75*G03X508057Y410961I1600J0D01*G01*
G75*G03X504857Y410961I-1600J0D01*G01*
X506457Y402929D02*Y399729D01*
Y402929D02*X509230Y404529D01*
X506457Y402929D02*X503683Y404529D01*
X504857Y402929D02*G75*G03X508057Y402929I1600J0D01*G01*
G75*G03X504857Y402929I-1600J0D01*G01*
X487520Y444543D02*Y441343D01*
Y444543D02*X490293Y446143D01*
X487520Y444543D02*X484746Y446143D01*
X485920Y444543D02*G75*G03X489120Y444543I1600J0D01*G01*
G75*G03X485920Y444543I-1600J0D01*G01*
X487520Y434504D02*Y431304D01*
Y434504D02*X490293Y436104D01*
X487520Y434504D02*X484746Y436104D01*
X485920Y434504D02*G75*G03X489120Y434504I1600J0D01*G01*
G75*G03X485920Y434504I-1600J0D01*G01*
X472480Y369504D02*Y366304D01*
Y369504D02*X475254Y371104D01*
X472480Y369504D02*X469707Y371104D01*
X470880Y369504D02*G75*G03X474080Y369504I1600J0D01*G01*
G75*G03X470880Y369504I-1600J0D01*G01*
X472480Y379543D02*Y376343D01*
Y379543D02*X475254Y381143D01*
X472480Y379543D02*X469707Y381143D01*
X470880Y379543D02*G75*G03X474080Y379543I1600J0D01*G01*
G75*G03X470880Y379543I-1600J0D01*G01*
X446457Y353992D02*Y350792D01*
Y353992D02*X449230Y355592D01*
X446457Y353992D02*X443683Y355592D01*
X444857Y353992D02*G75*G03X448057Y353992I1600J0D01*G01*
G75*G03X444857Y353992I-1600J0D01*G01*
X446457Y362024D02*Y358824D01*
Y362024D02*X449230Y363624D01*
X446457Y362024D02*X443683Y363624D01*
X444857Y362024D02*G75*G03X448057Y362024I1600J0D01*G01*
G75*G03X444857Y362024I-1600J0D01*G01*
X446457Y345961D02*Y342761D01*
Y345961D02*X449230Y347561D01*
X446457Y345961D02*X443683Y347561D01*
X444857Y345961D02*G75*G03X448057Y345961I1600J0D01*G01*
G75*G03X444857Y345961I-1600J0D01*G01*
X446457Y337929D02*Y334729D01*
Y337929D02*X449230Y339529D01*
X446457Y337929D02*X443683Y339529D01*
X444857Y337929D02*G75*G03X448057Y337929I1600J0D01*G01*
G75*G03X444857Y337929I-1600J0D01*G01*
X453543Y349976D02*Y346776D01*
Y349976D02*X456317Y351576D01*
X453543Y349976D02*X450770Y351576D01*
X451943Y349976D02*G75*G03X455143Y349976I1600J0D01*G01*
G75*G03X451943Y349976I-1600J0D01*G01*
X453543Y341945D02*Y338745D01*
Y341945D02*X456317Y343545D01*
X453543Y341945D02*X450770Y343545D01*
X451943Y341945D02*G75*G03X455143Y341945I1600J0D01*G01*
G75*G03X451943Y341945I-1600J0D01*G01*
X453543Y358008D02*Y354808D01*
Y358008D02*X456317Y359608D01*
X453543Y358008D02*X450770Y359608D01*
X451943Y358008D02*G75*G03X455143Y358008I1600J0D01*G01*
G75*G03X451943Y358008I-1600J0D01*G01*
X453543Y366039D02*Y362839D01*
Y366039D02*X456317Y367639D01*
X453543Y366039D02*X450770Y367639D01*
X451943Y366039D02*G75*G03X455143Y366039I1600J0D01*G01*
G75*G03X451943Y366039I-1600J0D01*G01*
X472480Y324425D02*Y321225D01*
Y324425D02*X475254Y326025D01*
X472480Y324425D02*X469707Y326025D01*
X470880Y324425D02*G75*G03X474080Y324425I1600J0D01*G01*
G75*G03X470880Y324425I-1600J0D01*G01*
X472480Y334465D02*Y331265D01*
Y334465D02*X475254Y336065D01*
X472480Y334465D02*X469707Y336065D01*
X470880Y334465D02*G75*G03X474080Y334465I1600J0D01*G01*
G75*G03X470880Y334465I-1600J0D01*G01*
X472480Y499504D02*Y496304D01*
Y499504D02*X475254Y501104D01*
X472480Y499504D02*X469707Y501104D01*
X470880Y499504D02*G75*G03X474080Y499504I1600J0D01*G01*
G75*G03X470880Y499504I-1600J0D01*G01*
X472480Y509543D02*Y506343D01*
Y509543D02*X475254Y511143D01*
X472480Y509543D02*X469707Y511143D01*
X470880Y509543D02*G75*G03X474080Y509543I1600J0D01*G01*
G75*G03X470880Y509543I-1600J0D01*G01*
X446457Y483992D02*Y480792D01*
Y483992D02*X449230Y485592D01*
X446457Y483992D02*X443683Y485592D01*
X444857Y483992D02*G75*G03X448057Y483992I1600J0D01*G01*
G75*G03X444857Y483992I-1600J0D01*G01*
X446457Y492024D02*Y488824D01*
Y492024D02*X449230Y493624D01*
X446457Y492024D02*X443683Y493624D01*
X444857Y492024D02*G75*G03X448057Y492024I1600J0D01*G01*
G75*G03X444857Y492024I-1600J0D01*G01*
X446457Y475961D02*Y472761D01*
Y475961D02*X449230Y477561D01*
X446457Y475961D02*X443683Y477561D01*
X444857Y475961D02*G75*G03X448057Y475961I1600J0D01*G01*
G75*G03X444857Y475961I-1600J0D01*G01*
X446457Y467929D02*Y464729D01*
Y467929D02*X449230Y469529D01*
X446457Y467929D02*X443683Y469529D01*
X444857Y467929D02*G75*G03X448057Y467929I1600J0D01*G01*
G75*G03X444857Y467929I-1600J0D01*G01*
X453543Y479976D02*Y476776D01*
Y479976D02*X456317Y481576D01*
X453543Y479976D02*X450770Y481576D01*
X451943Y479976D02*G75*G03X455143Y479976I1600J0D01*G01*
G75*G03X451943Y479976I-1600J0D01*G01*
X453543Y471945D02*Y468745D01*
Y471945D02*X456317Y473545D01*
X453543Y471945D02*X450770Y473545D01*
X451943Y471945D02*G75*G03X455143Y471945I1600J0D01*G01*
G75*G03X451943Y471945I-1600J0D01*G01*
X453543Y488008D02*Y484808D01*
Y488008D02*X456317Y489608D01*
X453543Y488008D02*X450770Y489608D01*
X451943Y488008D02*G75*G03X455143Y488008I1600J0D01*G01*
G75*G03X451943Y488008I-1600J0D01*G01*
X453543Y496039D02*Y492839D01*
Y496039D02*X456317Y497639D01*
X453543Y496039D02*X450770Y497639D01*
X451943Y496039D02*G75*G03X455143Y496039I1600J0D01*G01*
G75*G03X451943Y496039I-1600J0D01*G01*
X472480Y454425D02*Y451225D01*
Y454425D02*X475254Y456025D01*
X472480Y454425D02*X469707Y456025D01*
X470880Y454425D02*G75*G03X474080Y454425I1600J0D01*G01*
G75*G03X470880Y454425I-1600J0D01*G01*
X472480Y464465D02*Y461265D01*
Y464465D02*X475254Y466065D01*
X472480Y464465D02*X469707Y466065D01*
X470880Y464465D02*G75*G03X474080Y464465I1600J0D01*G01*
G75*G03X470880Y464465I-1600J0D01*G01*
X472480Y434504D02*Y431304D01*
Y434504D02*X475254Y436104D01*
X472480Y434504D02*X469707Y436104D01*
X470880Y434504D02*G75*G03X474080Y434504I1600J0D01*G01*
G75*G03X470880Y434504I-1600J0D01*G01*
X472480Y444543D02*Y441343D01*
Y444543D02*X475254Y446143D01*
X472480Y444543D02*X469707Y446143D01*
X470880Y444543D02*G75*G03X474080Y444543I1600J0D01*G01*
G75*G03X470880Y444543I-1600J0D01*G01*
X446457Y418992D02*Y415792D01*
Y418992D02*X449230Y420592D01*
X446457Y418992D02*X443683Y420592D01*
X444857Y418992D02*G75*G03X448057Y418992I1600J0D01*G01*
G75*G03X444857Y418992I-1600J0D01*G01*
X446457Y427024D02*Y423824D01*
Y427024D02*X449230Y428624D01*
X446457Y427024D02*X443683Y428624D01*
X444857Y427024D02*G75*G03X448057Y427024I1600J0D01*G01*
G75*G03X444857Y427024I-1600J0D01*G01*
X446457Y410961D02*Y407761D01*
Y410961D02*X449230Y412561D01*
X446457Y410961D02*X443683Y412561D01*
X444857Y410961D02*G75*G03X448057Y410961I1600J0D01*G01*
G75*G03X444857Y410961I-1600J0D01*G01*
X446457Y402929D02*Y399729D01*
Y402929D02*X449230Y404529D01*
X446457Y402929D02*X443683Y404529D01*
X444857Y402929D02*G75*G03X448057Y402929I1600J0D01*G01*
G75*G03X444857Y402929I-1600J0D01*G01*
X453543Y414976D02*Y411776D01*
Y414976D02*X456317Y416576D01*
X453543Y414976D02*X450770Y416576D01*
X451943Y414976D02*G75*G03X455143Y414976I1600J0D01*G01*
G75*G03X451943Y414976I-1600J0D01*G01*
X453543Y406945D02*Y403745D01*
Y406945D02*X456317Y408545D01*
X453543Y406945D02*X450770Y408545D01*
X451943Y406945D02*G75*G03X455143Y406945I1600J0D01*G01*
G75*G03X451943Y406945I-1600J0D01*G01*
X453543Y423008D02*Y419808D01*
Y423008D02*X456317Y424608D01*
X453543Y423008D02*X450770Y424608D01*
X451943Y423008D02*G75*G03X455143Y423008I1600J0D01*G01*
G75*G03X451943Y423008I-1600J0D01*G01*
X453543Y431039D02*Y427839D01*
Y431039D02*X456317Y432639D01*
X453543Y431039D02*X450770Y432639D01*
X451943Y431039D02*G75*G03X455143Y431039I1600J0D01*G01*
G75*G03X451943Y431039I-1600J0D01*G01*
X472480Y389425D02*Y386225D01*
Y389425D02*X475254Y391025D01*
X472480Y389425D02*X469707Y391025D01*
X470880Y389425D02*G75*G03X474080Y389425I1600J0D01*G01*
G75*G03X470880Y389425I-1600J0D01*G01*
X472480Y399465D02*Y396265D01*
Y399465D02*X475254Y401065D01*
X472480Y399465D02*X469707Y401065D01*
X470880Y399465D02*G75*G03X474080Y399465I1600J0D01*G01*
G75*G03X470880Y399465I-1600J0D01*G01*
X15000Y1946250D02*Y1943050D01*
Y1946250D02*X17773Y1947850D01*
X15000Y1946250D02*X12227Y1947850D01*
X13400Y1946250D02*G75*G03X16600Y1946250I1600J0D01*G01*
G75*G03X13400Y1946250I-1600J0D01*G01*
X135000Y1948500D02*X136500Y1945500D01*
X138000Y1948500D01*
X136500Y1945500D02*Y1942500D01*
X139800Y1945800D02*X142050D01*
X139800Y1942500D02*X142800D01*
X139800Y1948500D02*Y1942500D01*
Y1948500D02*X142800D01*
X147600D02*X148350Y1947750D01*
X145350Y1948500D02*X147600D01*
X144600Y1947750D02*X145350Y1948500D01*
X144600Y1947750D02*Y1946250D01*
X145350Y1945500D01*
X147600D01*
X148350Y1944750D01*
Y1943250D01*
X147600Y1942500D02*X148350Y1943250D01*
X145350Y1942500D02*X147600D01*
X144600Y1943250D02*X145350Y1942500D01*
X98750D02*X101750Y1948500D01*
X98000D02*X101750D01*
X103550Y1947750D02*X104300Y1948500D01*
X106550D01*
X107300Y1947750D01*
Y1946250D01*
X103550Y1942500D02*X107300Y1946250D01*
X103550Y1942500D02*X107300D01*
X45000Y1943250D02*X45750Y1942500D01*
X45000Y1947750D02*Y1943250D01*
Y1947750D02*X45750Y1948500D01*
X47250D01*
X48000Y1947750D01*
Y1943250D01*
X47250Y1942500D02*X48000Y1943250D01*
X45750Y1942500D02*X47250D01*
X45000Y1944000D02*X48000Y1947000D01*
X49800Y1942500D02*X50550D01*
X52350Y1943250D02*X53100Y1942500D01*
X52350Y1947750D02*Y1943250D01*
Y1947750D02*X53100Y1948500D01*
X54600D01*
X55350Y1947750D01*
Y1943250D01*
X54600Y1942500D02*X55350Y1943250D01*
X53100Y1942500D02*X54600D01*
X52350Y1944000D02*X55350Y1947000D01*
X57150Y1947750D02*X57900Y1948500D01*
X59400D01*
X60150Y1947750D01*
X59400Y1942500D02*X60150Y1943250D01*
X57900Y1942500D02*X59400D01*
X57150Y1943250D02*X57900Y1942500D01*
Y1945800D02*X59400D01*
X60150Y1947750D02*Y1946550D01*
Y1945050D02*Y1943250D01*
Y1945050D02*X59400Y1945800D01*
X60150Y1946550D02*X59400Y1945800D01*
X61950Y1948500D02*X64950D01*
X61950D02*Y1945500D01*
X62700Y1946250D01*
X64200D01*
X64950Y1945500D01*
Y1943250D01*
X64200Y1942500D02*X64950Y1943250D01*
X62700Y1942500D02*X64200D01*
X61950Y1943250D02*X62700Y1942500D01*
X608400Y348600D02*X611600D01*
X608400D02*Y345400D01*
X611600D01*
Y348600D02*Y345400D01*
X13400Y1962850D02*X16600D01*
X13400D02*Y1959650D01*
X16600D01*
Y1962850D02*Y1959650D01*
X135000Y1963500D02*X136500Y1960500D01*
X138000Y1963500D01*
X136500Y1960500D02*Y1957500D01*
X139800Y1960800D02*X142050D01*
X139800Y1957500D02*X142800D01*
X139800Y1963500D02*Y1957500D01*
Y1963500D02*X142800D01*
X147600D02*X148350Y1962750D01*
X145350Y1963500D02*X147600D01*
X144600Y1962750D02*X145350Y1963500D01*
X144600Y1962750D02*Y1961250D01*
X145350Y1960500D01*
X147600D01*
X148350Y1959750D01*
Y1958250D01*
X147600Y1957500D02*X148350Y1958250D01*
X145350Y1957500D02*X147600D01*
X144600Y1958250D02*X145350Y1957500D01*
X98000Y1962300D02*X99200Y1963500D01*
Y1957500D01*
X98000D02*X100250D01*
X45000Y1958250D02*X45750Y1957500D01*
X45000Y1962750D02*Y1958250D01*
Y1962750D02*X45750Y1963500D01*
X47250D01*
X48000Y1962750D01*
Y1958250D01*
X47250Y1957500D02*X48000Y1958250D01*
X45750Y1957500D02*X47250D01*
X45000Y1959000D02*X48000Y1962000D01*
X49800Y1957500D02*X50550D01*
X52350Y1958250D02*X53100Y1957500D01*
X52350Y1962750D02*Y1958250D01*
Y1962750D02*X53100Y1963500D01*
X54600D01*
X55350Y1962750D01*
Y1958250D01*
X54600Y1957500D02*X55350Y1958250D01*
X53100Y1957500D02*X54600D01*
X52350Y1959000D02*X55350Y1962000D01*
X57150Y1962750D02*X57900Y1963500D01*
X59400D01*
X60150Y1962750D01*
X59400Y1957500D02*X60150Y1958250D01*
X57900Y1957500D02*X59400D01*
X57150Y1958250D02*X57900Y1957500D01*
Y1960800D02*X59400D01*
X60150Y1962750D02*Y1961550D01*
Y1960050D02*Y1958250D01*
Y1960050D02*X59400Y1960800D01*
X60150Y1961550D02*X59400Y1960800D01*
X61950Y1963500D02*X64950D01*
X61950D02*Y1960500D01*
X62700Y1961250D01*
X64200D01*
X64950Y1960500D01*
Y1958250D01*
X64200Y1957500D02*X64950Y1958250D01*
X62700Y1957500D02*X64200D01*
X61950Y1958250D02*X62700Y1957500D01*
X788176Y600000D02*G75*G03X789776Y600000I800J0D01*G01*
G75*G03X788176Y600000I-800J0D01*G01*
Y584252D02*G75*G03X789776Y584252I800J0D01*G01*
G75*G03X788176Y584252I-800J0D01*G01*
Y568504D02*G75*G03X789776Y568504I800J0D01*G01*
G75*G03X788176Y568504I-800J0D01*G01*
Y552756D02*G75*G03X789776Y552756I800J0D01*G01*
G75*G03X788176Y552756I-800J0D01*G01*
Y222047D02*G75*G03X789776Y222047I800J0D01*G01*
G75*G03X788176Y222047I-800J0D01*G01*
Y363780D02*G75*G03X789776Y363780I800J0D01*G01*
G75*G03X788176Y363780I-800J0D01*G01*
Y348031D02*G75*G03X789776Y348031I800J0D01*G01*
G75*G03X788176Y348031I-800J0D01*G01*
Y332283D02*G75*G03X789776Y332283I800J0D01*G01*
G75*G03X788176Y332283I-800J0D01*G01*
Y474016D02*G75*G03X789776Y474016I800J0D01*G01*
G75*G03X788176Y474016I-800J0D01*G01*
Y458268D02*G75*G03X789776Y458268I800J0D01*G01*
G75*G03X788176Y458268I-800J0D01*G01*
Y442520D02*G75*G03X789776Y442520I800J0D01*G01*
G75*G03X788176Y442520I-800J0D01*G01*
Y426772D02*G75*G03X789776Y426772I800J0D01*G01*
G75*G03X788176Y426772I-800J0D01*G01*
Y411024D02*G75*G03X789776Y411024I800J0D01*G01*
G75*G03X788176Y411024I-800J0D01*G01*
Y395276D02*G75*G03X789776Y395276I800J0D01*G01*
G75*G03X788176Y395276I-800J0D01*G01*
Y316535D02*G75*G03X789776Y316535I800J0D01*G01*
G75*G03X788176Y316535I-800J0D01*G01*
Y300787D02*G75*G03X789776Y300787I800J0D01*G01*
G75*G03X788176Y300787I-800J0D01*G01*
Y285039D02*G75*G03X789776Y285039I800J0D01*G01*
G75*G03X788176Y285039I-800J0D01*G01*
Y269291D02*G75*G03X789776Y269291I800J0D01*G01*
G75*G03X788176Y269291I-800J0D01*G01*
Y253543D02*G75*G03X789776Y253543I800J0D01*G01*
G75*G03X788176Y253543I-800J0D01*G01*
Y237795D02*G75*G03X789776Y237795I800J0D01*G01*
G75*G03X788176Y237795I-800J0D01*G01*
Y379528D02*G75*G03X789776Y379528I800J0D01*G01*
G75*G03X788176Y379528I-800J0D01*G01*
Y489764D02*G75*G03X789776Y489764I800J0D01*G01*
G75*G03X788176Y489764I-800J0D01*G01*
Y505512D02*G75*G03X789776Y505512I800J0D01*G01*
G75*G03X788176Y505512I-800J0D01*G01*
Y521260D02*G75*G03X789776Y521260I800J0D01*G01*
G75*G03X788176Y521260I-800J0D01*G01*
Y537008D02*G75*G03X789776Y537008I800J0D01*G01*
G75*G03X788176Y537008I-800J0D01*G01*
X14200Y1976250D02*G75*G03X15800Y1976250I800J0D01*G01*
G75*G03X14200Y1976250I-800J0D01*G01*
X135000Y1978500D02*X136500Y1975500D01*
X138000Y1978500D01*
X136500Y1975500D02*Y1972500D01*
X139800Y1975800D02*X142050D01*
X139800Y1972500D02*X142800D01*
X139800Y1978500D02*Y1972500D01*
Y1978500D02*X142800D01*
X147600D02*X148350Y1977750D01*
X145350Y1978500D02*X147600D01*
X144600Y1977750D02*X145350Y1978500D01*
X144600Y1977750D02*Y1976250D01*
X145350Y1975500D01*
X147600D01*
X148350Y1974750D01*
Y1973250D01*
X147600Y1972500D02*X148350Y1973250D01*
X145350Y1972500D02*X147600D01*
X144600Y1973250D02*X145350Y1972500D01*
X98000Y1977750D02*X98750Y1978500D01*
X101000D01*
X101750Y1977750D01*
Y1976250D01*
X98000Y1972500D02*X101750Y1976250D01*
X98000Y1972500D02*X101750D01*
X103550Y1978500D02*X106550D01*
X103550D02*Y1975500D01*
X104300Y1976250D01*
X105800D01*
X106550Y1975500D01*
Y1973250D01*
X105800Y1972500D02*X106550Y1973250D01*
X104300Y1972500D02*X105800D01*
X103550Y1973250D02*X104300Y1972500D01*
X45000Y1973250D02*X45750Y1972500D01*
X45000Y1977750D02*Y1973250D01*
Y1977750D02*X45750Y1978500D01*
X47250D01*
X48000Y1977750D01*
Y1973250D01*
X47250Y1972500D02*X48000Y1973250D01*
X45750Y1972500D02*X47250D01*
X45000Y1974000D02*X48000Y1977000D01*
X49800Y1972500D02*X50550D01*
X52350Y1973250D02*X53100Y1972500D01*
X52350Y1977750D02*Y1973250D01*
Y1977750D02*X53100Y1978500D01*
X54600D01*
X55350Y1977750D01*
Y1973250D01*
X54600Y1972500D02*X55350Y1973250D01*
X53100Y1972500D02*X54600D01*
X52350Y1974000D02*X55350Y1977000D01*
X57150Y1977750D02*X57900Y1978500D01*
X59400D01*
X60150Y1977750D01*
X59400Y1972500D02*X60150Y1973250D01*
X57900Y1972500D02*X59400D01*
X57150Y1973250D02*X57900Y1972500D01*
Y1975800D02*X59400D01*
X60150Y1977750D02*Y1976550D01*
Y1975050D02*Y1973250D01*
Y1975050D02*X59400Y1975800D01*
X60150Y1976550D02*X59400Y1975800D01*
X61950Y1973250D02*X62700Y1972500D01*
X61950Y1977750D02*Y1973250D01*
Y1977750D02*X62700Y1978500D01*
X64200D01*
X64950Y1977750D01*
Y1973250D01*
X64200Y1972500D02*X64950Y1973250D01*
X62700Y1972500D02*X64200D01*
X61950Y1974000D02*X64950Y1977000D01*
X784233Y604350D02*X786633Y601950D01*
X784233D02*X786633Y604350D01*
X784233Y588602D02*X786633Y586202D01*
X784233D02*X786633Y588602D01*
X784233Y572854D02*X786633Y570454D01*
X784233D02*X786633Y572854D01*
X784233Y557106D02*X786633Y554706D01*
X784233D02*X786633Y557106D01*
X784233Y226397D02*X786633Y223997D01*
X784233D02*X786633Y226397D01*
X784233Y368129D02*X786633Y365729D01*
X784233D02*X786633Y368129D01*
X784233Y352381D02*X786633Y349981D01*
X784233D02*X786633Y352381D01*
X784233Y336633D02*X786633Y334233D01*
X784233D02*X786633Y336633D01*
X784233Y478365D02*X786633Y475965D01*
X784233D02*X786633Y478365D01*
X784233Y462617D02*X786633Y460217D01*
X784233D02*X786633Y462617D01*
X784233Y446869D02*X786633Y444469D01*
X784233D02*X786633Y446869D01*
X784233Y431121D02*X786633Y428721D01*
X784233D02*X786633Y431121D01*
X784233Y415373D02*X786633Y412973D01*
X784233D02*X786633Y415373D01*
X784233Y399625D02*X786633Y397225D01*
X784233D02*X786633Y399625D01*
X784233Y320885D02*X786633Y318485D01*
X784233D02*X786633Y320885D01*
X784233Y305137D02*X786633Y302737D01*
X784233D02*X786633Y305137D01*
X784233Y289389D02*X786633Y286989D01*
X784233D02*X786633Y289389D01*
X784233Y273641D02*X786633Y271241D01*
X784233D02*X786633Y273641D01*
X784233Y257893D02*X786633Y255493D01*
X784233D02*X786633Y257893D01*
X784233Y242145D02*X786633Y239745D01*
X784233D02*X786633Y242145D01*
X784233Y383877D02*X786633Y381477D01*
X784233D02*X786633Y383877D01*
X784233Y494113D02*X786633Y491713D01*
X784233D02*X786633Y494113D01*
X784233Y509861D02*X786633Y507461D01*
X784233D02*X786633Y509861D01*
X784233Y525609D02*X786633Y523209D01*
X784233D02*X786633Y525609D01*
X784233Y541357D02*X786633Y538957D01*
X784233D02*X786633Y541357D01*
X13800Y1992450D02*X16200Y1990050D01*
X13800D02*X16200Y1992450D01*
X135000Y1993500D02*X136500Y1990500D01*
X138000Y1993500D01*
X136500Y1990500D02*Y1987500D01*
X139800Y1990800D02*X142050D01*
X139800Y1987500D02*X142800D01*
X139800Y1993500D02*Y1987500D01*
Y1993500D02*X142800D01*
X147600D02*X148350Y1992750D01*
X145350Y1993500D02*X147600D01*
X144600Y1992750D02*X145350Y1993500D01*
X144600Y1992750D02*Y1991250D01*
X145350Y1990500D01*
X147600D01*
X148350Y1989750D01*
Y1988250D01*
X147600Y1987500D02*X148350Y1988250D01*
X145350Y1987500D02*X147600D01*
X144600Y1988250D02*X145350Y1987500D01*
X98000Y1992750D02*X98750Y1993500D01*
X101000D01*
X101750Y1992750D01*
Y1991250D01*
X98000Y1987500D02*X101750Y1991250D01*
X98000Y1987500D02*X101750D01*
X103550Y1993500D02*X106550D01*
X103550D02*Y1990500D01*
X104300Y1991250D01*
X105800D01*
X106550Y1990500D01*
Y1988250D01*
X105800Y1987500D02*X106550Y1988250D01*
X104300Y1987500D02*X105800D01*
X103550Y1988250D02*X104300Y1987500D01*
X45000Y1988250D02*X45750Y1987500D01*
X45000Y1992750D02*Y1988250D01*
Y1992750D02*X45750Y1993500D01*
X47250D01*
X48000Y1992750D01*
Y1988250D01*
X47250Y1987500D02*X48000Y1988250D01*
X45750Y1987500D02*X47250D01*
X45000Y1989000D02*X48000Y1992000D01*
X49800Y1987500D02*X50550D01*
X52350Y1988250D02*X53100Y1987500D01*
X52350Y1992750D02*Y1988250D01*
Y1992750D02*X53100Y1993500D01*
X54600D01*
X55350Y1992750D01*
Y1988250D01*
X54600Y1987500D02*X55350Y1988250D01*
X53100Y1987500D02*X54600D01*
X52350Y1989000D02*X55350Y1992000D01*
X57150Y1992750D02*X57900Y1993500D01*
X60150D01*
X60900Y1992750D01*
Y1991250D01*
X57150Y1987500D02*X60900Y1991250D01*
X57150Y1987500D02*X60900D01*
X62700Y1988250D02*X63450Y1987500D01*
X62700Y1992750D02*Y1988250D01*
Y1992750D02*X63450Y1993500D01*
X64950D01*
X65700Y1992750D01*
Y1988250D01*
X64950Y1987500D02*X65700Y1988250D01*
X63450Y1987500D02*X64950D01*
X62700Y1989000D02*X65700Y1992000D01*
X578400Y346800D02*Y343600D01*
X576800Y345200D02*X580000D01*
X589700Y343600D02*Y340400D01*
X588100Y342000D02*X591300D01*
X550787Y539789D02*Y536589D01*
X549187Y538189D02*X552387D01*
X637402Y539789D02*Y536589D01*
X635802Y538189D02*X639002D01*
X15000Y2007850D02*Y2004650D01*
X13400Y2006250D02*X16600D01*
X135000Y2008500D02*X136500Y2005500D01*
X138000Y2008500D01*
X136500Y2005500D02*Y2002500D01*
X139800Y2005800D02*X142050D01*
X139800Y2002500D02*X142800D01*
X139800Y2008500D02*Y2002500D01*
Y2008500D02*X142800D01*
X147600D02*X148350Y2007750D01*
X145350Y2008500D02*X147600D01*
X144600Y2007750D02*X145350Y2008500D01*
X144600Y2007750D02*Y2006250D01*
X145350Y2005500D01*
X147600D01*
X148350Y2004750D01*
Y2003250D01*
X147600Y2002500D02*X148350Y2003250D01*
X145350Y2002500D02*X147600D01*
X144600Y2003250D02*X145350Y2002500D01*
X98000Y2004750D02*X101000Y2008500D01*
X98000Y2004750D02*X101750D01*
X101000Y2008500D02*Y2002500D01*
X45000Y2003250D02*X45750Y2002500D01*
X45000Y2007750D02*Y2003250D01*
Y2007750D02*X45750Y2008500D01*
X47250D01*
X48000Y2007750D01*
Y2003250D01*
X47250Y2002500D02*X48000Y2003250D01*
X45750Y2002500D02*X47250D01*
X45000Y2004000D02*X48000Y2007000D01*
X49800Y2002500D02*X50550D01*
X52350Y2003250D02*X53100Y2002500D01*
X52350Y2007750D02*Y2003250D01*
Y2007750D02*X53100Y2008500D01*
X54600D01*
X55350Y2007750D01*
Y2003250D01*
X54600Y2002500D02*X55350Y2003250D01*
X53100Y2002500D02*X54600D01*
X52350Y2004000D02*X55350Y2007000D01*
X57150Y2007300D02*X58350Y2008500D01*
Y2002500D01*
X57150D02*X59400D01*
X61200Y2007750D02*X61950Y2008500D01*
X64200D01*
X64950Y2007750D01*
Y2006250D01*
X61200Y2002500D02*X64950Y2006250D01*
X61200Y2002500D02*X64950D01*
X583600Y335900D02*Y334300D01*
Y335900D02*X584987Y336700D01*
X583600Y335900D02*X582213Y336700D01*
X588000Y335900D02*Y334300D01*
Y335900D02*X589387Y336700D01*
X588000Y335900D02*X586613Y336700D01*
X576500Y341800D02*Y340200D01*
Y341800D02*X577887Y342600D01*
X576500Y341800D02*X575113Y342600D01*
X582400Y341700D02*Y340100D01*
Y341700D02*X583787Y342500D01*
X582400Y341700D02*X581013Y342500D01*
X591500Y338000D02*Y336400D01*
Y338000D02*X592887Y338800D01*
X591500Y338000D02*X590113Y338800D01*
X573700Y341000D02*Y339400D01*
Y341000D02*X575087Y341800D01*
X573700Y341000D02*X572313Y341800D01*
X584800Y342800D02*Y341200D01*
Y342800D02*X586187Y343600D01*
X584800Y342800D02*X583413Y343600D01*
X570600Y340100D02*Y338500D01*
Y340100D02*X571987Y340900D01*
X570600Y340100D02*X569213Y340900D01*
X597000Y357000D02*Y355400D01*
Y357000D02*X598387Y357800D01*
X597000Y357000D02*X595613Y357800D01*
X614000Y356500D02*Y354900D01*
Y356500D02*X615387Y357300D01*
X614000Y356500D02*X612613Y357300D01*
X622500Y356500D02*Y354900D01*
Y356500D02*X623887Y357300D01*
X622500Y356500D02*X621113Y357300D01*
X458000Y455500D02*Y453900D01*
Y455500D02*X459387Y456300D01*
X458000Y455500D02*X456613Y456300D01*
X461500Y455500D02*Y453900D01*
Y455500D02*X462887Y456300D01*
X461500Y455500D02*X460113Y456300D01*
X468000Y468000D02*Y466400D01*
Y468000D02*X469387Y468800D01*
X468000Y468000D02*X466613Y468800D01*
X465000Y466500D02*Y464900D01*
Y466500D02*X466387Y467300D01*
X465000Y466500D02*X463613Y467300D01*
X458000Y481000D02*Y479400D01*
Y481000D02*X459387Y481800D01*
X458000Y481000D02*X456613Y481800D01*
X471500Y478000D02*Y476400D01*
Y478000D02*X472887Y478800D01*
X471500Y478000D02*X470113Y478800D01*
X465000Y480500D02*Y478900D01*
Y480500D02*X466387Y481300D01*
X465000Y480500D02*X463613Y481300D01*
X477000Y481000D02*Y479400D01*
Y481000D02*X478387Y481800D01*
X477000Y481000D02*X475613Y481800D01*
X480500Y482000D02*Y480400D01*
Y482000D02*X481887Y482800D01*
X480500Y482000D02*X479113Y482800D01*
X471500Y487500D02*Y485900D01*
Y487500D02*X472887Y488300D01*
X471500Y487500D02*X470113Y488300D01*
X465000Y494000D02*Y492400D01*
Y494000D02*X466387Y494800D01*
X465000Y494000D02*X463613Y494800D01*
X469500Y493500D02*Y491900D01*
Y493500D02*X470887Y494300D01*
X469500Y493500D02*X468113Y494300D01*
X472500Y491500D02*Y489900D01*
Y491500D02*X473887Y492300D01*
X472500Y491500D02*X471113Y492300D01*
X477000Y489500D02*Y487900D01*
Y489500D02*X478387Y490300D01*
X477000Y489500D02*X475613Y490300D01*
X481500Y485500D02*Y483900D01*
Y485500D02*X482887Y486300D01*
X481500Y485500D02*X480113Y486300D01*
X495000Y500500D02*Y498900D01*
Y500500D02*X496387Y501300D01*
X495000Y500500D02*X493613Y501300D01*
X528000Y461500D02*Y459900D01*
Y461500D02*X529387Y462300D01*
X528000Y461500D02*X526613Y462300D01*
X531000Y461500D02*Y459900D01*
Y461500D02*X532387Y462300D01*
X531000Y461500D02*X529613Y462300D01*
X528000Y501500D02*Y499900D01*
Y501500D02*X529387Y502300D01*
X528000Y501500D02*X526613Y502300D01*
X531000Y501500D02*Y499900D01*
Y501500D02*X532387Y502300D01*
X531000Y501500D02*X529613Y502300D01*
X518500Y494000D02*Y492400D01*
Y494000D02*X519887Y494800D01*
X518500Y494000D02*X517113Y494800D01*
X531000Y474000D02*Y472400D01*
Y474000D02*X532387Y474800D01*
X531000Y474000D02*X529613Y474800D01*
X528000Y476500D02*Y474900D01*
Y476500D02*X529387Y477300D01*
X528000Y476500D02*X526613Y477300D01*
X525000Y472500D02*Y470900D01*
Y472500D02*X526387Y473300D01*
X525000Y472500D02*X523613Y473300D01*
X537500Y464500D02*Y462900D01*
Y464500D02*X538887Y465300D01*
X537500Y464500D02*X536113Y465300D01*
X534000Y468000D02*Y466400D01*
Y468000D02*X535387Y468800D01*
X534000Y468000D02*X532613Y468800D01*
X521500Y481000D02*Y479400D01*
Y481000D02*X522887Y481800D01*
X521500Y481000D02*X520113Y481800D01*
X423000Y493500D02*Y491900D01*
Y493500D02*X424387Y494300D01*
X423000Y493500D02*X421613Y494300D01*
X440500Y499000D02*Y497400D01*
Y499000D02*X441887Y499800D01*
X440500Y499000D02*X439113Y499800D01*
X552362Y564961D02*Y563361D01*
Y564961D02*X553749Y565761D01*
X552362Y564961D02*X550976Y565761D01*
X546850Y562598D02*Y560998D01*
Y562598D02*X548237Y563398D01*
X546850Y562598D02*X545464Y563398D01*
X543701Y570472D02*Y568872D01*
Y570472D02*X545087Y571272D01*
X543701Y570472D02*X542314Y571272D01*
X540551Y573622D02*Y572022D01*
Y573622D02*X541938Y574422D01*
X540551Y573622D02*X539165Y574422D01*
X496850Y537795D02*Y536195D01*
Y537795D02*X498237Y538595D01*
X496850Y537795D02*X495464Y538595D01*
X518110Y538189D02*Y536589D01*
Y538189D02*X519497Y538989D01*
X518110Y538189D02*X516724Y538989D01*
X501575Y542913D02*Y541313D01*
Y542913D02*X502961Y543713D01*
X501575Y542913D02*X500188Y543713D01*
X503543Y545276D02*Y543676D01*
Y545276D02*X504930Y546076D01*
X503543Y545276D02*X502157Y546076D01*
X515354Y539370D02*Y537770D01*
Y539370D02*X516741Y540170D01*
X515354Y539370D02*X513968Y540170D01*
X501969Y568504D02*Y566904D01*
Y568504D02*X503355Y569304D01*
X501969Y568504D02*X500582Y569304D01*
X536220Y530315D02*Y528715D01*
Y530315D02*X537607Y531115D01*
X536220Y530315D02*X534834Y531115D01*
X533071Y539764D02*Y538164D01*
Y539764D02*X534458Y540564D01*
X533071Y539764D02*X531684Y540564D01*
X529921Y539764D02*Y538164D01*
Y539764D02*X531308Y540564D01*
X529921Y539764D02*X528535Y540564D01*
X525197Y537795D02*Y536195D01*
Y537795D02*X526584Y538595D01*
X525197Y537795D02*X523810Y538595D01*
X520866Y529921D02*Y528321D01*
Y529921D02*X522253Y530721D01*
X520866Y529921D02*X519479Y530721D01*
X607480Y529921D02*Y528321D01*
Y529921D02*X608867Y530721D01*
X607480Y529921D02*X606094Y530721D01*
X611811Y537795D02*Y536195D01*
Y537795D02*X613198Y538595D01*
X611811Y537795D02*X610424Y538595D01*
X616535Y539764D02*Y538164D01*
Y539764D02*X617922Y540564D01*
X616535Y539764D02*X615149Y540564D01*
X619685Y539764D02*Y538164D01*
Y539764D02*X621072Y540564D01*
X619685Y539764D02*X618298Y540564D01*
X622835Y530315D02*Y528715D01*
Y530315D02*X624221Y531115D01*
X622835Y530315D02*X621448Y531115D01*
X588583Y568504D02*Y566904D01*
Y568504D02*X589969Y569304D01*
X588583Y568504D02*X587196Y569304D01*
X601969Y539370D02*Y537770D01*
Y539370D02*X603355Y540170D01*
X601969Y539370D02*X600582Y540170D01*
X590157Y545276D02*Y543676D01*
Y545276D02*X591544Y546076D01*
X590157Y545276D02*X588771Y546076D01*
X588189Y542913D02*Y541313D01*
Y542913D02*X589576Y543713D01*
X588189Y542913D02*X586802Y543713D01*
X604724Y538189D02*Y536589D01*
Y538189D02*X606111Y538989D01*
X604724Y538189D02*X603338Y538989D01*
X583465Y537795D02*Y536195D01*
Y537795D02*X584851Y538595D01*
X583465Y537795D02*X582078Y538595D01*
X627165Y573622D02*Y572022D01*
Y573622D02*X628552Y574422D01*
X627165Y573622D02*X625779Y574422D01*
X630315Y570472D02*Y568872D01*
Y570472D02*X631702Y571272D01*
X630315Y570472D02*X628928Y571272D01*
X633465Y562598D02*Y560998D01*
Y562598D02*X634851Y563398D01*
X633465Y562598D02*X632078Y563398D01*
X638976Y564961D02*Y563361D01*
Y564961D02*X640363Y565761D01*
X638976Y564961D02*X637590Y565761D01*
X461500Y496000D02*Y494400D01*
Y496000D02*X462887Y496800D01*
X461500Y496000D02*X460113Y496800D01*
X459000Y510000D02*Y508400D01*
Y510000D02*X460387Y510800D01*
X459000Y510000D02*X457613Y510800D01*
X462000Y500500D02*Y498900D01*
Y500500D02*X463387Y501300D01*
X462000Y500500D02*X460613Y501300D01*
X458000Y403000D02*Y401400D01*
Y403000D02*X459387Y403800D01*
X458000Y403000D02*X456613Y403800D01*
X461500Y403000D02*Y401400D01*
Y403000D02*X462887Y403800D01*
X461500Y403000D02*X460113Y403800D01*
X465000Y403000D02*Y401400D01*
Y403000D02*X466387Y403800D01*
X465000Y403000D02*X463613Y403800D01*
X475500Y404500D02*Y402900D01*
Y404500D02*X476887Y405300D01*
X475500Y404500D02*X474113Y405300D01*
X472000Y404500D02*Y402900D01*
Y404500D02*X473387Y405300D01*
X472000Y404500D02*X470613Y405300D01*
X468500Y416000D02*Y414400D01*
Y416000D02*X469887Y416800D01*
X468500Y416000D02*X467113Y416800D01*
X438500Y489500D02*Y487900D01*
Y489500D02*X439887Y490300D01*
X438500Y489500D02*X437113Y490300D01*
X458000Y431000D02*Y429400D01*
Y431000D02*X459387Y431800D01*
X458000Y431000D02*X456613Y431800D01*
X461500Y431000D02*Y429400D01*
Y431000D02*X462887Y431800D01*
X461500Y431000D02*X460113Y431800D01*
X465000Y426500D02*Y424900D01*
Y426500D02*X466387Y427300D01*
X465000Y426500D02*X463613Y427300D01*
X468500Y402000D02*Y400400D01*
Y402000D02*X469887Y402800D01*
X468500Y402000D02*X467113Y402800D01*
X472000Y420000D02*Y418400D01*
Y420000D02*X473387Y420800D01*
X472000Y420000D02*X470613Y420800D01*
X475500Y416000D02*Y414400D01*
Y416000D02*X476887Y416800D01*
X475500Y416000D02*X474113Y416800D01*
X479000Y412500D02*Y410900D01*
Y412500D02*X480387Y413300D01*
X479000Y412500D02*X477613Y413300D01*
X518000Y431000D02*Y429400D01*
Y431000D02*X519387Y431800D01*
X518000Y431000D02*X516613Y431800D01*
X521500Y431000D02*Y429400D01*
Y431000D02*X522887Y431800D01*
X521500Y431000D02*X520113Y431800D01*
X525000Y431000D02*Y429400D01*
Y431000D02*X526387Y431800D01*
X525000Y431000D02*X523613Y431800D01*
X532000Y431000D02*Y429400D01*
Y431000D02*X533387Y431800D01*
X532000Y431000D02*X530613Y431800D01*
X528500Y431000D02*Y429400D01*
Y431000D02*X529887Y431800D01*
X528500Y431000D02*X527113Y431800D01*
X501500Y412000D02*Y410400D01*
Y412000D02*X502887Y412800D01*
X501500Y412000D02*X500113Y412800D01*
X535500Y431000D02*Y429400D01*
Y431000D02*X536887Y431800D01*
X535500Y431000D02*X534113Y431800D01*
X511500Y435500D02*Y433900D01*
Y435500D02*X512887Y436300D01*
X511500Y435500D02*X510113Y436300D01*
X459414Y391086D02*Y389486D01*
Y391086D02*X460801Y391886D01*
X459414Y391086D02*X458028Y391886D01*
X449000Y399500D02*Y397900D01*
Y399500D02*X450387Y400300D01*
X449000Y399500D02*X447613Y400300D01*
X442500Y397500D02*Y395900D01*
Y397500D02*X443887Y398300D01*
X442500Y397500D02*X441113Y398300D01*
X479000Y426500D02*Y424900D01*
Y426500D02*X480387Y427300D01*
X479000Y426500D02*X477613Y427300D01*
X479000Y433000D02*Y431400D01*
Y433000D02*X480387Y433800D01*
X479000Y433000D02*X477613Y433800D01*
X464500Y338000D02*Y336400D01*
Y338000D02*X465887Y338800D01*
X464500Y338000D02*X463113Y338800D01*
X458000Y338000D02*Y336400D01*
Y338000D02*X459387Y338800D01*
X458000Y338000D02*X456613Y338800D01*
X461500Y338000D02*Y336400D01*
Y338000D02*X462887Y338800D01*
X461500Y338000D02*X460113Y338800D01*
X467500Y338000D02*Y336400D01*
Y338000D02*X468887Y338800D01*
X467500Y338000D02*X466113Y338800D01*
X458000Y366000D02*Y364400D01*
Y366000D02*X459387Y366800D01*
X458000Y366000D02*X456613Y366800D01*
X461500Y366000D02*Y364400D01*
Y366000D02*X462887Y366800D01*
X461500Y366000D02*X460113Y366800D01*
X518000Y366000D02*Y364400D01*
Y366000D02*X519387Y366800D01*
X518000Y366000D02*X516613Y366800D01*
X521500Y366000D02*Y364400D01*
Y366000D02*X522887Y366800D01*
X521500Y366000D02*X520113Y366800D01*
X464500Y361500D02*Y359900D01*
Y361500D02*X465887Y362300D01*
X464500Y361500D02*X463113Y362300D01*
X467500Y356500D02*Y354900D01*
Y356500D02*X468887Y357300D01*
X467500Y356500D02*X466113Y357300D01*
X470500Y353000D02*Y351400D01*
Y353000D02*X471887Y353800D01*
X470500Y353000D02*X469113Y353800D01*
X474000Y351500D02*Y349900D01*
Y351500D02*X475387Y352300D01*
X474000Y351500D02*X472613Y352300D01*
X525000Y366000D02*Y364400D01*
Y366000D02*X526387Y366800D01*
X525000Y366000D02*X523613Y366800D01*
X528000Y366000D02*Y364400D01*
Y366000D02*X529387Y366800D01*
X528000Y366000D02*X526613Y366800D01*
X531000Y366000D02*Y364400D01*
Y366000D02*X532387Y366800D01*
X531000Y366000D02*X529613Y366800D01*
X534000Y366000D02*Y364400D01*
Y366000D02*X535387Y366800D01*
X534000Y366000D02*X532613Y366800D01*
X470500Y343500D02*Y341900D01*
Y343500D02*X471887Y344300D01*
X470500Y343500D02*X469113Y344300D01*
X474000Y343500D02*Y341900D01*
Y343500D02*X475387Y344300D01*
X474000Y343500D02*X472613Y344300D01*
X444000Y366000D02*Y364400D01*
Y366000D02*X445387Y366800D01*
X444000Y366000D02*X442613Y366800D01*
X494500Y508000D02*Y506400D01*
Y508000D02*X495887Y508800D01*
X494500Y508000D02*X493113Y508800D01*
X497500Y504500D02*Y502900D01*
Y504500D02*X498887Y505300D01*
X497500Y504500D02*X496113Y505300D01*
X505500Y522500D02*Y520900D01*
Y522500D02*X506887Y523300D01*
X505500Y522500D02*X504113Y523300D01*
X511000Y522500D02*Y520900D01*
Y522500D02*X512387Y523300D01*
X511000Y522500D02*X509613Y523300D01*
X15000Y2021250D02*Y2019650D01*
Y2021250D02*X16387Y2022050D01*
X15000Y2021250D02*X13613Y2022050D01*
X135000Y2023500D02*X136500Y2020500D01*
X138000Y2023500D01*
X136500Y2020500D02*Y2017500D01*
X139800Y2020800D02*X142050D01*
X139800Y2017500D02*X142800D01*
X139800Y2023500D02*Y2017500D01*
Y2023500D02*X142800D01*
X147600D02*X148350Y2022750D01*
X145350Y2023500D02*X147600D01*
X144600Y2022750D02*X145350Y2023500D01*
X144600Y2022750D02*Y2021250D01*
X145350Y2020500D01*
X147600D01*
X148350Y2019750D01*
Y2018250D01*
X147600Y2017500D02*X148350Y2018250D01*
X145350Y2017500D02*X147600D01*
X144600Y2018250D02*X145350Y2017500D01*
X98000Y2022300D02*X99200Y2023500D01*
Y2017500D01*
X98000D02*X100250D01*
X102050Y2022750D02*X102800Y2023500D01*
X105050D01*
X105800Y2022750D01*
Y2021250D01*
X102050Y2017500D02*X105800Y2021250D01*
X102050Y2017500D02*X105800D01*
X107600Y2022750D02*X108350Y2023500D01*
X109850D01*
X110600Y2022750D01*
X109850Y2017500D02*X110600Y2018250D01*
X108350Y2017500D02*X109850D01*
X107600Y2018250D02*X108350Y2017500D01*
Y2020800D02*X109850D01*
X110600Y2022750D02*Y2021550D01*
Y2020050D02*Y2018250D01*
Y2020050D02*X109850Y2020800D01*
X110600Y2021550D02*X109850Y2020800D01*
X45000Y2018250D02*X45750Y2017500D01*
X45000Y2022750D02*Y2018250D01*
Y2022750D02*X45750Y2023500D01*
X47250D01*
X48000Y2022750D01*
Y2018250D01*
X47250Y2017500D02*X48000Y2018250D01*
X45750Y2017500D02*X47250D01*
X45000Y2019000D02*X48000Y2022000D01*
X49800Y2017500D02*X50550D01*
X52350Y2018250D02*X53100Y2017500D01*
X52350Y2022750D02*Y2018250D01*
Y2022750D02*X53100Y2023500D01*
X54600D01*
X55350Y2022750D01*
Y2018250D01*
X54600Y2017500D02*X55350Y2018250D01*
X53100Y2017500D02*X54600D01*
X52350Y2019000D02*X55350Y2022000D01*
X57150Y2022300D02*X58350Y2023500D01*
Y2017500D01*
X57150D02*X59400D01*
X61200Y2018250D02*X61950Y2017500D01*
X61200Y2022750D02*Y2018250D01*
Y2022750D02*X61950Y2023500D01*
X63450D01*
X64200Y2022750D01*
Y2018250D01*
X63450Y2017500D02*X64200Y2018250D01*
X61950Y2017500D02*X63450D01*
X61200Y2019000D02*X64200Y2022000D01*
X3000Y2038500D02*X3750Y2037750D01*
X750Y2038500D02*X3000D01*
X0Y2037750D02*X750Y2038500D01*
X0Y2037750D02*Y2036250D01*
X750Y2035500D01*
X3000D01*
X3750Y2034750D01*
Y2033250D01*
X3000Y2032500D02*X3750Y2033250D01*
X750Y2032500D02*X3000D01*
X0Y2033250D02*X750Y2032500D01*
X5550Y2035500D02*Y2033250D01*
X6300Y2032500D01*
X8550Y2035500D02*Y2031000D01*
X7800Y2030250D02*X8550Y2031000D01*
X6300Y2030250D02*X7800D01*
X5550Y2031000D02*X6300Y2030250D01*
Y2032500D02*X7800D01*
X8550Y2033250D01*
X11100Y2034750D02*Y2032500D01*
Y2034750D02*X11850Y2035500D01*
X12600D01*
X13350Y2034750D01*
Y2032500D01*
Y2034750D02*X14100Y2035500D01*
X14850D01*
X15600Y2034750D01*
Y2032500D01*
X10350Y2035500D02*X11100Y2034750D01*
X17400Y2038500D02*Y2032500D01*
Y2033250D02*X18150Y2032500D01*
X19650D01*
X20400Y2033250D01*
Y2034750D02*Y2033250D01*
X19650Y2035500D02*X20400Y2034750D01*
X18150Y2035500D02*X19650D01*
X17400Y2034750D02*X18150Y2035500D01*
X22200Y2034750D02*Y2033250D01*
Y2034750D02*X22950Y2035500D01*
X24450D01*
X25200Y2034750D01*
Y2033250D01*
X24450Y2032500D02*X25200Y2033250D01*
X22950Y2032500D02*X24450D01*
X22200Y2033250D02*X22950Y2032500D01*
X27000Y2038500D02*Y2033250D01*
X27750Y2032500D01*
X0Y2029250D02*X29250D01*
X41750Y2038500D02*Y2032500D01*
X43700Y2038500D02*X44750Y2037450D01*
Y2033550D01*
X43700Y2032500D02*X44750Y2033550D01*
X41000Y2032500D02*X43700D01*
X41000Y2038500D02*X43700D01*
G54D283*X46550Y2037000D02*Y2036850D01*
G54D282*Y2034750D02*Y2032500D01*
X50300Y2035500D02*X51050Y2034750D01*
X48800Y2035500D02*X50300D01*
X48050Y2034750D02*X48800Y2035500D01*
X48050Y2034750D02*Y2033250D01*
X48800Y2032500D01*
X51050Y2035500D02*Y2033250D01*
X51800Y2032500D01*
X48800D02*X50300D01*
X51050Y2033250D01*
X54350Y2034750D02*Y2032500D01*
Y2034750D02*X55100Y2035500D01*
X55850D01*
X56600Y2034750D01*
Y2032500D01*
Y2034750D02*X57350Y2035500D01*
X58100D01*
X58850Y2034750D01*
Y2032500D01*
X53600Y2035500D02*X54350Y2034750D01*
X60650Y2032500D02*X61400D01*
X65900Y2033250D02*X66650Y2032500D01*
X65900Y2037750D02*X66650Y2038500D01*
X65900Y2037750D02*Y2033250D01*
X68450Y2038500D02*X69950D01*
X69200D02*Y2032500D01*
X68450D02*X69950D01*
X72500Y2034750D02*Y2032500D01*
Y2034750D02*X73250Y2035500D01*
X74000D01*
X74750Y2034750D01*
Y2032500D01*
X71750Y2035500D02*X72500Y2034750D01*
X77300Y2035500D02*X79550D01*
X76550Y2034750D02*X77300Y2035500D01*
X76550Y2034750D02*Y2033250D01*
X77300Y2032500D01*
X79550D01*
X81350Y2038500D02*Y2032500D01*
Y2034750D02*X82100Y2035500D01*
X83600D01*
X84350Y2034750D01*
Y2032500D01*
X86150Y2038500D02*X86900Y2037750D01*
Y2033250D01*
X86150Y2032500D02*X86900Y2033250D01*
X41000Y2029250D02*X88700D01*
X96050Y2032500D02*X98000D01*
X95000Y2033550D02*X96050Y2032500D01*
X95000Y2037450D02*Y2033550D01*
Y2037450D02*X96050Y2038500D01*
X98000D01*
X99800Y2034750D02*Y2033250D01*
Y2034750D02*X100550Y2035500D01*
X102050D01*
X102800Y2034750D01*
Y2033250D01*
X102050Y2032500D02*X102800Y2033250D01*
X100550Y2032500D02*X102050D01*
X99800Y2033250D02*X100550Y2032500D01*
X104600Y2035500D02*Y2033250D01*
X105350Y2032500D01*
X106850D01*
X107600Y2033250D01*
Y2035500D02*Y2033250D01*
X110150Y2034750D02*Y2032500D01*
Y2034750D02*X110900Y2035500D01*
X111650D01*
X112400Y2034750D01*
Y2032500D01*
X109400Y2035500D02*X110150Y2034750D01*
X114950Y2038500D02*Y2033250D01*
X115700Y2032500D01*
X114200Y2036250D02*X115700D01*
X95000Y2029250D02*X117200D01*
X130750Y2038500D02*Y2032500D01*
X130000Y2038500D02*X133000D01*
X133750Y2037750D01*
Y2036250D01*
X133000Y2035500D02*X133750Y2036250D01*
X130750Y2035500D02*X133000D01*
X135550Y2038500D02*Y2033250D01*
X136300Y2032500D01*
X140050Y2035500D02*X140800Y2034750D01*
X138550Y2035500D02*X140050D01*
X137800Y2034750D02*X138550Y2035500D01*
X137800Y2034750D02*Y2033250D01*
X138550Y2032500D01*
X140800Y2035500D02*Y2033250D01*
X141550Y2032500D01*
X138550D02*X140050D01*
X140800Y2033250D01*
X144100Y2038500D02*Y2033250D01*
X144850Y2032500D01*
X143350Y2036250D02*X144850D01*
X147100Y2032500D02*X149350D01*
X146350Y2033250D02*X147100Y2032500D01*
X146350Y2034750D02*Y2033250D01*
Y2034750D02*X147100Y2035500D01*
X148600D01*
X149350Y2034750D01*
X146350Y2034000D02*X149350D01*
Y2034750D02*Y2034000D01*
X154150Y2038500D02*Y2032500D01*
X153400D02*X154150Y2033250D01*
X151900Y2032500D02*X153400D01*
X151150Y2033250D02*X151900Y2032500D01*
X151150Y2034750D02*Y2033250D01*
Y2034750D02*X151900Y2035500D01*
X153400D01*
X154150Y2034750D01*
X157450Y2035500D02*Y2034750D01*
Y2033250D02*Y2032500D01*
X155950Y2037750D02*Y2037000D01*
Y2037750D02*X156700Y2038500D01*
X158200D01*
X158950Y2037750D01*
Y2037000D01*
X157450Y2035500D02*X158950Y2037000D01*
X130000Y2029250D02*X160750D01*
X0Y2053500D02*X3000D01*
X1500D02*Y2047500D01*
X4800Y2053500D02*Y2047500D01*
Y2049750D02*X5550Y2050500D01*
X7050D01*
X7800Y2049750D01*
Y2047500D01*
X10350D02*X12600D01*
X9600Y2048250D02*X10350Y2047500D01*
X9600Y2049750D02*Y2048250D01*
Y2049750D02*X10350Y2050500D01*
X11850D01*
X12600Y2049750D01*
X9600Y2049000D02*X12600D01*
Y2049750D02*Y2049000D01*
X15150Y2049750D02*Y2047500D01*
Y2049750D02*X15900Y2050500D01*
X17400D01*
X14400D02*X15150Y2049750D01*
X19950Y2047500D02*X22200D01*
X19200Y2048250D02*X19950Y2047500D01*
X19200Y2049750D02*Y2048250D01*
Y2049750D02*X19950Y2050500D01*
X21450D01*
X22200Y2049750D01*
X19200Y2049000D02*X22200D01*
Y2049750D02*Y2049000D01*
X28950Y2050500D02*X29700Y2049750D01*
X27450Y2050500D02*X28950D01*
X26700Y2049750D02*X27450Y2050500D01*
X26700Y2049750D02*Y2048250D01*
X27450Y2047500D01*
X29700Y2050500D02*Y2048250D01*
X30450Y2047500D01*
X27450D02*X28950D01*
X29700Y2048250D01*
X33000Y2049750D02*Y2047500D01*
Y2049750D02*X33750Y2050500D01*
X35250D01*
X32250D02*X33000Y2049750D01*
X37800Y2047500D02*X40050D01*
X37050Y2048250D02*X37800Y2047500D01*
X37050Y2049750D02*Y2048250D01*
Y2049750D02*X37800Y2050500D01*
X39300D01*
X40050Y2049750D01*
X37050Y2049000D02*X40050D01*
Y2049750D02*Y2049000D01*
X44550Y2052300D02*X45750Y2053500D01*
Y2047500D01*
X44550D02*X46800D01*
X48600Y2053500D02*X51600D01*
X48600D02*Y2050500D01*
X49350Y2051250D01*
X50850D01*
X51600Y2050500D01*
Y2048250D01*
X50850Y2047500D02*X51600Y2048250D01*
X49350Y2047500D02*X50850D01*
X48600Y2048250D02*X49350Y2047500D01*
X59100Y2053500D02*Y2047500D01*
X58350D02*X59100Y2048250D01*
X56850Y2047500D02*X58350D01*
X56100Y2048250D02*X56850Y2047500D01*
X56100Y2049750D02*Y2048250D01*
Y2049750D02*X56850Y2050500D01*
X58350D01*
X59100Y2049750D01*
G54D283*X60900Y2052000D02*Y2051850D01*
G54D282*Y2049750D02*Y2047500D01*
X63150Y2052750D02*Y2047500D01*
Y2052750D02*X63900Y2053500D01*
X64650D01*
X62400Y2050500D02*X63900D01*
X66900Y2052750D02*Y2047500D01*
Y2052750D02*X67650Y2053500D01*
X68400D01*
X66150Y2050500D02*X67650D01*
X70650Y2047500D02*X72900D01*
X69900Y2048250D02*X70650Y2047500D01*
X69900Y2049750D02*Y2048250D01*
Y2049750D02*X70650Y2050500D01*
X72150D01*
X72900Y2049750D01*
X69900Y2049000D02*X72900D01*
Y2049750D02*Y2049000D01*
X75450Y2049750D02*Y2047500D01*
Y2049750D02*X76200Y2050500D01*
X77700D01*
X74700D02*X75450Y2049750D01*
X80250Y2047500D02*X82500D01*
X79500Y2048250D02*X80250Y2047500D01*
X79500Y2049750D02*Y2048250D01*
Y2049750D02*X80250Y2050500D01*
X81750D01*
X82500Y2049750D01*
X79500Y2049000D02*X82500D01*
Y2049750D02*Y2049000D01*
X85050Y2049750D02*Y2047500D01*
Y2049750D02*X85800Y2050500D01*
X86550D01*
X87300Y2049750D01*
Y2047500D01*
X84300Y2050500D02*X85050Y2049750D01*
X89850Y2053500D02*Y2048250D01*
X90600Y2047500D01*
X89100Y2051250D02*X90600D01*
X97800Y2053500D02*Y2047500D01*
X97050D02*X97800Y2048250D01*
X95550Y2047500D02*X97050D01*
X94800Y2048250D02*X95550Y2047500D01*
X94800Y2049750D02*Y2048250D01*
Y2049750D02*X95550Y2050500D01*
X97050D01*
X97800Y2049750D01*
X100350D02*Y2047500D01*
Y2049750D02*X101100Y2050500D01*
X102600D01*
X99600D02*X100350Y2049750D01*
G54D283*X104400Y2052000D02*Y2051850D01*
G54D282*Y2049750D02*Y2047500D01*
X105900Y2053500D02*Y2048250D01*
X106650Y2047500D01*
X108150Y2053500D02*Y2048250D01*
X108900Y2047500D01*
X113850D02*X116100D01*
X116850Y2048250D01*
X116100Y2049000D02*X116850Y2048250D01*
X113850Y2049000D02*X116100D01*
X113100Y2049750D02*X113850Y2049000D01*
X113100Y2049750D02*X113850Y2050500D01*
X116100D01*
X116850Y2049750D01*
X113100Y2048250D02*X113850Y2047500D01*
G54D283*X118650Y2052000D02*Y2051850D01*
G54D282*Y2049750D02*Y2047500D01*
X120150Y2050500D02*X123150D01*
X120150Y2047500D02*X123150Y2050500D01*
X120150Y2047500D02*X123150D01*
X125700D02*X127950D01*
X124950Y2048250D02*X125700Y2047500D01*
X124950Y2049750D02*Y2048250D01*
Y2049750D02*X125700Y2050500D01*
X127200D01*
X127950Y2049750D01*
X124950Y2049000D02*X127950D01*
Y2049750D02*Y2049000D01*
X130500Y2047500D02*X132750D01*
X133500Y2048250D01*
X132750Y2049000D02*X133500Y2048250D01*
X130500Y2049000D02*X132750D01*
X129750Y2049750D02*X130500Y2049000D01*
X129750Y2049750D02*X130500Y2050500D01*
X132750D01*
X133500Y2049750D01*
X129750Y2048250D02*X130500Y2047500D01*
X138000Y2050500D02*Y2048250D01*
X138750Y2047500D01*
X140250D01*
X141000Y2048250D01*
Y2050500D02*Y2048250D01*
X143550Y2047500D02*X145800D01*
X146550Y2048250D01*
X145800Y2049000D02*X146550Y2048250D01*
X143550Y2049000D02*X145800D01*
X142800Y2049750D02*X143550Y2049000D01*
X142800Y2049750D02*X143550Y2050500D01*
X145800D01*
X146550Y2049750D01*
X142800Y2048250D02*X143550Y2047500D01*
X149100D02*X151350D01*
X148350Y2048250D02*X149100Y2047500D01*
X148350Y2049750D02*Y2048250D01*
Y2049750D02*X149100Y2050500D01*
X150600D01*
X151350Y2049750D01*
X148350Y2049000D02*X151350D01*
Y2049750D02*Y2049000D01*
X156150Y2053500D02*Y2047500D01*
X155400D02*X156150Y2048250D01*
X153900Y2047500D02*X155400D01*
X153150Y2048250D02*X153900Y2047500D01*
X153150Y2049750D02*Y2048250D01*
Y2049750D02*X153900Y2050500D01*
X155400D01*
X156150Y2049750D01*
G54D283*X160650Y2052000D02*Y2051850D01*
G54D282*Y2049750D02*Y2047500D01*
X162900Y2049750D02*Y2047500D01*
Y2049750D02*X163650Y2050500D01*
X164400D01*
X165150Y2049750D01*
Y2047500D01*
X162150Y2050500D02*X162900Y2049750D01*
X170400Y2053500D02*Y2048250D01*
X171150Y2047500D01*
X169650Y2051250D02*X171150D01*
X172650Y2053500D02*Y2047500D01*
Y2049750D02*X173400Y2050500D01*
X174900D01*
X175650Y2049750D01*
Y2047500D01*
G54D283*X177450Y2052000D02*Y2051850D01*
G54D282*Y2049750D02*Y2047500D01*
X179700D02*X181950D01*
X182700Y2048250D01*
X181950Y2049000D02*X182700Y2048250D01*
X179700Y2049000D02*X181950D01*
X178950Y2049750D02*X179700Y2049000D01*
X178950Y2049750D02*X179700Y2050500D01*
X181950D01*
X182700Y2049750D01*
X178950Y2048250D02*X179700Y2047500D01*
X187200Y2053500D02*Y2048250D01*
X187950Y2047500D01*
X191700Y2050500D02*X192450Y2049750D01*
X190200Y2050500D02*X191700D01*
X189450Y2049750D02*X190200Y2050500D01*
X189450Y2049750D02*Y2048250D01*
X190200Y2047500D01*
X192450Y2050500D02*Y2048250D01*
X193200Y2047500D01*
X190200D02*X191700D01*
X192450Y2048250D01*
X195000Y2050500D02*Y2048250D01*
X195750Y2047500D01*
X198000Y2050500D02*Y2046000D01*
X197250Y2045250D02*X198000Y2046000D01*
X195750Y2045250D02*X197250D01*
X195000Y2046000D02*X195750Y2045250D01*
Y2047500D02*X197250D01*
X198000Y2048250D01*
X199800Y2049750D02*Y2048250D01*
Y2049750D02*X200550Y2050500D01*
X202050D01*
X202800Y2049750D01*
Y2048250D01*
X202050Y2047500D02*X202800Y2048250D01*
X200550Y2047500D02*X202050D01*
X199800Y2048250D02*X200550Y2047500D01*
X204600Y2050500D02*Y2048250D01*
X205350Y2047500D01*
X206850D01*
X207600Y2048250D01*
Y2050500D02*Y2048250D01*
X210150Y2053500D02*Y2048250D01*
X210900Y2047500D01*
X209400Y2051250D02*X210900D01*
X212400Y2046000D02*X213900Y2047500D01*
X219150D02*X222150Y2053500D01*
X218400D02*X222150D01*
X223950Y2052750D02*X224700Y2053500D01*
X226200D01*
X226950Y2052750D01*
X226200Y2047500D02*X226950Y2048250D01*
X224700Y2047500D02*X226200D01*
X223950Y2048250D02*X224700Y2047500D01*
Y2050800D02*X226200D01*
X226950Y2052750D02*Y2051550D01*
Y2050050D02*Y2048250D01*
Y2050050D02*X226200Y2050800D01*
X226950Y2051550D02*X226200Y2050800D01*
X228750Y2052750D02*X229500Y2053500D01*
X231750D01*
X232500Y2052750D01*
Y2051250D01*
X228750Y2047500D02*X232500Y2051250D01*
X228750Y2047500D02*X232500D01*
X237000Y2053500D02*Y2047500D01*
Y2049750D02*X237750Y2050500D01*
X239250D01*
X240000Y2049750D01*
Y2047500D01*
X241800Y2049750D02*Y2048250D01*
Y2049750D02*X242550Y2050500D01*
X244050D01*
X244800Y2049750D01*
Y2048250D01*
X244050Y2047500D02*X244800Y2048250D01*
X242550Y2047500D02*X244050D01*
X241800Y2048250D02*X242550Y2047500D01*
X246600Y2053500D02*Y2048250D01*
X247350Y2047500D01*
X249600D02*X251850D01*
X248850Y2048250D02*X249600Y2047500D01*
X248850Y2049750D02*Y2048250D01*
Y2049750D02*X249600Y2050500D01*
X251100D01*
X251850Y2049750D01*
X248850Y2049000D02*X251850D01*
Y2049750D02*Y2049000D01*
X254400Y2047500D02*X256650D01*
X257400Y2048250D01*
X256650Y2049000D02*X257400Y2048250D01*
X254400Y2049000D02*X256650D01*
X253650Y2049750D02*X254400Y2049000D01*
X253650Y2049750D02*X254400Y2050500D01*
X256650D01*
X257400Y2049750D01*
X253650Y2048250D02*X254400Y2047500D01*
X262650Y2053500D02*Y2048250D01*
X263400Y2047500D01*
X261900Y2051250D02*X263400D01*
X264900Y2049750D02*Y2048250D01*
Y2049750D02*X265650Y2050500D01*
X267150D01*
X267900Y2049750D01*
Y2048250D01*
X267150Y2047500D02*X267900Y2048250D01*
X265650Y2047500D02*X267150D01*
X264900Y2048250D02*X265650Y2047500D01*
X270450Y2053500D02*Y2048250D01*
X271200Y2047500D01*
X269700Y2051250D02*X271200D01*
X274950Y2050500D02*X275700Y2049750D01*
X273450Y2050500D02*X274950D01*
X272700Y2049750D02*X273450Y2050500D01*
X272700Y2049750D02*Y2048250D01*
X273450Y2047500D01*
X275700Y2050500D02*Y2048250D01*
X276450Y2047500D01*
X273450D02*X274950D01*
X275700Y2048250D01*
X278250Y2053500D02*Y2048250D01*
X279000Y2047500D01*
G54D284*X48425Y622047D02*X320079D01*
X320472Y622441D01*
X406693D01*
Y608661D01*
X407283Y608071D01*
X577756D01*
Y655315D01*
X598425D01*
Y608071D01*
X656496D01*
Y694685D01*
X657480Y695669D01*
X694882D01*
X695866Y694685D01*
Y608071D01*
X754921D01*
Y655315D01*
X775591D01*
Y615945D01*
X800197D01*
Y214370D01*
X775591D01*
Y289173D01*
X48425D01*
Y622047D01*
G54D282*X1113675Y-9500D02*X1116675D01*
X1117425Y-8750D01*
Y-6950D02*Y-8750D01*
X1116675Y-6200D02*X1117425Y-6950D01*
X1114425Y-6200D02*X1116675D01*
X1114425Y-3500D02*Y-9500D01*
X1113675Y-3500D02*X1116675D01*
X1117425Y-4250D01*
Y-5450D01*
X1116675Y-6200D02*X1117425Y-5450D01*
X1119225Y-7250D02*Y-8750D01*
Y-7250D02*X1119975Y-6500D01*
X1121475D01*
X1122225Y-7250D01*
Y-8750D01*
X1121475Y-9500D02*X1122225Y-8750D01*
X1119975Y-9500D02*X1121475D01*
X1119225Y-8750D02*X1119975Y-9500D01*
X1126275Y-6500D02*X1127025Y-7250D01*
X1124775Y-6500D02*X1126275D01*
X1124025Y-7250D02*X1124775Y-6500D01*
X1124025Y-7250D02*Y-8750D01*
X1124775Y-9500D01*
X1127025Y-6500D02*Y-8750D01*
X1127775Y-9500D01*
X1124775D02*X1126275D01*
X1127025Y-8750D01*
X1130325Y-7250D02*Y-9500D01*
Y-7250D02*X1131075Y-6500D01*
X1132575D01*
X1129575D02*X1130325Y-7250D01*
X1137375Y-3500D02*Y-9500D01*
X1136625D02*X1137375Y-8750D01*
X1135125Y-9500D02*X1136625D01*
X1134375Y-8750D02*X1135125Y-9500D01*
X1134375Y-7250D02*Y-8750D01*
Y-7250D02*X1135125Y-6500D01*
X1136625D01*
X1137375Y-7250D01*
X1141875D02*Y-8750D01*
Y-7250D02*X1142625Y-6500D01*
X1144125D01*
X1144875Y-7250D01*
Y-8750D01*
X1144125Y-9500D02*X1144875Y-8750D01*
X1142625Y-9500D02*X1144125D01*
X1141875Y-8750D02*X1142625Y-9500D01*
X1146675Y-6500D02*Y-8750D01*
X1147425Y-9500D01*
X1148925D01*
X1149675Y-8750D01*
Y-6500D02*Y-8750D01*
X1152225Y-3500D02*Y-8750D01*
X1152975Y-9500D01*
X1151475Y-5750D02*X1152975D01*
X1154475Y-3500D02*Y-8750D01*
X1155225Y-9500D01*
G54D283*X1156725Y-5000D02*Y-5150D01*
G54D282*Y-7250D02*Y-9500D01*
X1158975Y-7250D02*Y-9500D01*
Y-7250D02*X1159725Y-6500D01*
X1160475D01*
X1161225Y-7250D01*
Y-9500D01*
X1158225Y-6500D02*X1158975Y-7250D01*
X1163775Y-9500D02*X1166025D01*
X1163025Y-8750D02*X1163775Y-9500D01*
X1163025Y-7250D02*Y-8750D01*
Y-7250D02*X1163775Y-6500D01*
X1165275D01*
X1166025Y-7250D01*
X1163025Y-8000D02*X1166025D01*
Y-7250D02*Y-8000D01*
G54D283*X1170525Y-5000D02*Y-5150D01*
G54D282*Y-7250D02*Y-9500D01*
X1172775D02*X1175025D01*
X1175775Y-8750D01*
X1175025Y-8000D02*X1175775Y-8750D01*
X1172775Y-8000D02*X1175025D01*
X1172025Y-7250D02*X1172775Y-8000D01*
X1172025Y-7250D02*X1172775Y-6500D01*
X1175025D01*
X1175775Y-7250D01*
X1172025Y-8750D02*X1172775Y-9500D01*
X1181025Y-3500D02*Y-8750D01*
X1181775Y-9500D01*
X1180275Y-5750D02*X1181775D01*
X1183275Y-3500D02*Y-9500D01*
Y-7250D02*X1184025Y-6500D01*
X1185525D01*
X1186275Y-7250D01*
Y-9500D01*
X1188825D02*X1191075D01*
X1188075Y-8750D02*X1188825Y-9500D01*
X1188075Y-7250D02*Y-8750D01*
Y-7250D02*X1188825Y-6500D01*
X1190325D01*
X1191075Y-7250D01*
X1188075Y-8000D02*X1191075D01*
Y-7250D02*Y-8000D01*
X1196325Y-6500D02*X1198575D01*
X1195575Y-7250D02*X1196325Y-6500D01*
X1195575Y-7250D02*Y-8750D01*
X1196325Y-9500D01*
X1198575D01*
X1201125D02*X1203375D01*
X1200375Y-8750D02*X1201125Y-9500D01*
X1200375Y-7250D02*Y-8750D01*
Y-7250D02*X1201125Y-6500D01*
X1202625D01*
X1203375Y-7250D01*
X1200375Y-8000D02*X1203375D01*
Y-7250D02*Y-8000D01*
X1205925Y-7250D02*Y-9500D01*
Y-7250D02*X1206675Y-6500D01*
X1207425D01*
X1208175Y-7250D01*
Y-9500D01*
X1205175Y-6500D02*X1205925Y-7250D01*
X1210725Y-3500D02*Y-8750D01*
X1211475Y-9500D01*
X1209975Y-5750D02*X1211475D01*
X1213725Y-9500D02*X1215975D01*
X1212975Y-8750D02*X1213725Y-9500D01*
X1212975Y-7250D02*Y-8750D01*
Y-7250D02*X1213725Y-6500D01*
X1215225D01*
X1215975Y-7250D01*
X1212975Y-8000D02*X1215975D01*
Y-7250D02*Y-8000D01*
X1218525Y-7250D02*Y-9500D01*
Y-7250D02*X1219275Y-6500D01*
X1220775D01*
X1217775D02*X1218525Y-7250D01*
X1222575Y-3500D02*Y-8750D01*
X1223325Y-9500D01*
G54D283*X1224825Y-5000D02*Y-5150D01*
G54D282*Y-7250D02*Y-9500D01*
X1227075Y-7250D02*Y-9500D01*
Y-7250D02*X1227825Y-6500D01*
X1228575D01*
X1229325Y-7250D01*
Y-9500D01*
X1226325Y-6500D02*X1227075Y-7250D01*
X1231875Y-9500D02*X1234125D01*
X1231125Y-8750D02*X1231875Y-9500D01*
X1231125Y-7250D02*Y-8750D01*
Y-7250D02*X1231875Y-6500D01*
X1233375D01*
X1234125Y-7250D01*
X1231125Y-8000D02*X1234125D01*
Y-7250D02*Y-8000D01*
X1238625Y-7250D02*Y-8750D01*
Y-7250D02*X1239375Y-6500D01*
X1240875D01*
X1241625Y-7250D01*
Y-8750D01*
X1240875Y-9500D02*X1241625Y-8750D01*
X1239375Y-9500D02*X1240875D01*
X1238625Y-8750D02*X1239375Y-9500D01*
X1244175Y-4250D02*Y-9500D01*
Y-4250D02*X1244925Y-3500D01*
X1245675D01*
X1243425Y-6500D02*X1244925D01*
X1250625Y-3500D02*Y-8750D01*
X1251375Y-9500D01*
X1249875Y-5750D02*X1251375D01*
X1252875Y-3500D02*Y-9500D01*
Y-7250D02*X1253625Y-6500D01*
X1255125D01*
X1255875Y-7250D01*
Y-9500D01*
G54D283*X1257675Y-5000D02*Y-5150D01*
G54D282*Y-7250D02*Y-9500D01*
X1259925D02*X1262175D01*
X1262925Y-8750D01*
X1262175Y-8000D02*X1262925Y-8750D01*
X1259925Y-8000D02*X1262175D01*
X1259175Y-7250D02*X1259925Y-8000D01*
X1259175Y-7250D02*X1259925Y-6500D01*
X1262175D01*
X1262925Y-7250D01*
X1259175Y-8750D02*X1259925Y-9500D01*
X1268175Y-7250D02*Y-11750D01*
X1267425Y-6500D02*X1268175Y-7250D01*
X1268925Y-6500D01*
X1270425D01*
X1271175Y-7250D01*
Y-8750D01*
X1270425Y-9500D02*X1271175Y-8750D01*
X1268925Y-9500D02*X1270425D01*
X1268175Y-8750D02*X1268925Y-9500D01*
X1275225Y-6500D02*X1275975Y-7250D01*
X1273725Y-6500D02*X1275225D01*
X1272975Y-7250D02*X1273725Y-6500D01*
X1272975Y-7250D02*Y-8750D01*
X1273725Y-9500D01*
X1275975Y-6500D02*Y-8750D01*
X1276725Y-9500D01*
X1273725D02*X1275225D01*
X1275975Y-8750D01*
X1279275Y-3500D02*Y-8750D01*
X1280025Y-9500D01*
X1278525Y-5750D02*X1280025D01*
X1281525Y-3500D02*Y-9500D01*
Y-7250D02*X1282275Y-6500D01*
X1283775D01*
X1284525Y-7250D01*
Y-9500D01*
X200750Y1828500D02*Y1822500D01*
X202700Y1828500D02*X203750Y1827450D01*
Y1823550D01*
X202700Y1822500D02*X203750Y1823550D01*
X200000Y1822500D02*X202700D01*
X200000Y1828500D02*X202700D01*
X207800Y1825500D02*X208550Y1824750D01*
X206300Y1825500D02*X207800D01*
X205550Y1824750D02*X206300Y1825500D01*
X205550Y1824750D02*Y1823250D01*
X206300Y1822500D01*
X208550Y1825500D02*Y1823250D01*
X209300Y1822500D01*
X206300D02*X207800D01*
X208550Y1823250D01*
X211850Y1828500D02*Y1823250D01*
X212600Y1822500D01*
X211100Y1826250D02*X212600D01*
X214850Y1822500D02*X217100D01*
X214100Y1823250D02*X214850Y1822500D01*
X214100Y1824750D02*Y1823250D01*
Y1824750D02*X214850Y1825500D01*
X216350D01*
X217100Y1824750D01*
X214100Y1824000D02*X217100D01*
Y1824750D02*Y1824000D01*
X218900Y1826250D02*X219650D01*
X218900Y1824750D02*X219650D01*
X224150Y1828500D02*X227150D01*
X225650D02*Y1822500D01*
X228950Y1825500D02*Y1823250D01*
X229700Y1822500D01*
X231200D01*
X231950Y1823250D01*
Y1825500D02*Y1823250D01*
X234500Y1822500D02*X236750D01*
X233750Y1823250D02*X234500Y1822500D01*
X233750Y1824750D02*Y1823250D01*
Y1824750D02*X234500Y1825500D01*
X236000D01*
X236750Y1824750D01*
X233750Y1824000D02*X236750D01*
Y1824750D02*Y1824000D01*
X242300Y1828500D02*X243500D01*
Y1823250D01*
X242750Y1822500D02*X243500Y1823250D01*
X242000Y1822500D02*X242750D01*
X241250Y1823250D02*X242000Y1822500D01*
X241250Y1824000D02*Y1823250D01*
X245300Y1825500D02*Y1823250D01*
X246050Y1822500D01*
X247550D01*
X248300Y1823250D01*
Y1825500D02*Y1823250D01*
X250100Y1828500D02*Y1823250D01*
X250850Y1822500D01*
X255050Y1827300D02*X256250Y1828500D01*
Y1822500D01*
X255050D02*X257300D01*
X259100Y1824750D02*X262100Y1828500D01*
X259100Y1824750D02*X262850D01*
X262100Y1828500D02*Y1822500D01*
X267350Y1823250D02*X268100Y1822500D01*
X267350Y1827750D02*Y1823250D01*
Y1827750D02*X268100Y1828500D01*
X269600D01*
X270350Y1827750D01*
Y1823250D01*
X269600Y1822500D02*X270350Y1823250D01*
X268100Y1822500D02*X269600D01*
X267350Y1824000D02*X270350Y1827000D01*
X272150Y1827750D02*X272900Y1828500D01*
X275150D01*
X275900Y1827750D01*
Y1826250D01*
X272150Y1822500D02*X275900Y1826250D01*
X272150Y1822500D02*X275900D01*
X277700Y1826250D02*X278450D01*
X277700Y1824750D02*X278450D01*
X280250Y1828500D02*X283250D01*
X280250D02*Y1825500D01*
X281000Y1826250D01*
X282500D01*
X283250Y1825500D01*
Y1823250D01*
X282500Y1822500D02*X283250Y1823250D01*
X281000Y1822500D02*X282500D01*
X280250Y1823250D02*X281000Y1822500D01*
X285050Y1828500D02*X288050D01*
X285050D02*Y1825500D01*
X285800Y1826250D01*
X287300D01*
X288050Y1825500D01*
Y1823250D01*
X287300Y1822500D02*X288050Y1823250D01*
X285800Y1822500D02*X287300D01*
X285050Y1823250D02*X285800Y1822500D01*
X289850Y1826250D02*X290600D01*
X289850Y1824750D02*X290600D01*
X292400Y1827750D02*X293150Y1828500D01*
X294650D01*
X295400Y1827750D01*
X294650Y1822500D02*X295400Y1823250D01*
X293150Y1822500D02*X294650D01*
X292400Y1823250D02*X293150Y1822500D01*
Y1825800D02*X294650D01*
X295400Y1827750D02*Y1826550D01*
Y1825050D02*Y1823250D01*
Y1825050D02*X294650Y1825800D01*
X295400Y1826550D02*X294650Y1825800D01*
X297200Y1827300D02*X298400Y1828500D01*
Y1822500D01*
X297200D02*X299450D01*
X303950Y1827750D02*X304700Y1828500D01*
X306950D01*
X307700Y1827750D01*
Y1826250D01*
X303950Y1822500D02*X307700Y1826250D01*
X303950Y1822500D02*X307700D01*
X309500Y1823250D02*X310250Y1822500D01*
X309500Y1827750D02*Y1823250D01*
Y1827750D02*X310250Y1828500D01*
X311750D01*
X312500Y1827750D01*
Y1823250D01*
X311750Y1822500D02*X312500Y1823250D01*
X310250Y1822500D02*X311750D01*
X309500Y1824000D02*X312500Y1827000D01*
X314300Y1827750D02*X315050Y1828500D01*
X317300D01*
X318050Y1827750D01*
Y1826250D01*
X314300Y1822500D02*X318050Y1826250D01*
X314300Y1822500D02*X318050D01*
X319850Y1823250D02*X320600Y1822500D01*
X319850Y1827750D02*Y1823250D01*
Y1827750D02*X320600Y1828500D01*
X322100D01*
X322850Y1827750D01*
Y1823250D01*
X322100Y1822500D02*X322850Y1823250D01*
X320600Y1822500D02*X322100D01*
X319850Y1824000D02*X322850Y1827000D01*
X327350Y1828500D02*Y1823250D01*
X328100Y1822500D01*
X329600D01*
X330350Y1823250D01*
Y1828500D02*Y1823250D01*
X332150Y1828500D02*X335150D01*
X333650D02*Y1822500D01*
X338000D02*X339950D01*
X336950Y1823550D02*X338000Y1822500D01*
X336950Y1827450D02*Y1823550D01*
Y1827450D02*X338000Y1828500D01*
X339950D01*
X200000Y1842000D02*Y1837500D01*
Y1842000D02*X201050Y1843500D01*
X202700D01*
X203750Y1842000D01*
Y1837500D01*
X200000Y1840500D02*X203750D01*
X205550D02*Y1838250D01*
X206300Y1837500D01*
X207800D01*
X208550Y1838250D01*
Y1840500D02*Y1838250D01*
X211100Y1843500D02*Y1838250D01*
X211850Y1837500D01*
X210350Y1841250D02*X211850D01*
X213350Y1843500D02*Y1837500D01*
Y1839750D02*X214100Y1840500D01*
X215600D01*
X216350Y1839750D01*
Y1837500D01*
X218150Y1839750D02*Y1838250D01*
Y1839750D02*X218900Y1840500D01*
X220400D01*
X221150Y1839750D01*
Y1838250D01*
X220400Y1837500D02*X221150Y1838250D01*
X218900Y1837500D02*X220400D01*
X218150Y1838250D02*X218900Y1837500D01*
X223700Y1839750D02*Y1837500D01*
Y1839750D02*X224450Y1840500D01*
X225950D01*
X222950D02*X223700Y1839750D01*
X227750Y1841250D02*X228500D01*
X227750Y1839750D02*X228500D01*
X233750Y1840500D02*X236000D01*
X233000Y1839750D02*X233750Y1840500D01*
X233000Y1839750D02*Y1838250D01*
X233750Y1837500D01*
X236000D01*
X237800Y1839750D02*Y1838250D01*
Y1839750D02*X238550Y1840500D01*
X240050D01*
X240800Y1839750D01*
Y1838250D01*
X240050Y1837500D02*X240800Y1838250D01*
X238550Y1837500D02*X240050D01*
X237800Y1838250D02*X238550Y1837500D01*
X243350Y1839750D02*Y1837500D01*
Y1839750D02*X244100Y1840500D01*
X244850D01*
X245600Y1839750D01*
Y1837500D01*
Y1839750D02*X246350Y1840500D01*
X247100D01*
X247850Y1839750D01*
Y1837500D01*
X242600Y1840500D02*X243350Y1839750D01*
X250400D02*Y1837500D01*
Y1839750D02*X251150Y1840500D01*
X251900D01*
X252650Y1839750D01*
Y1837500D01*
Y1839750D02*X253400Y1840500D01*
X254150D01*
X254900Y1839750D01*
Y1837500D01*
X249650Y1840500D02*X250400Y1839750D01*
X256700D02*Y1838250D01*
Y1839750D02*X257450Y1840500D01*
X258950D01*
X259700Y1839750D01*
Y1838250D01*
X258950Y1837500D02*X259700Y1838250D01*
X257450Y1837500D02*X258950D01*
X256700Y1838250D02*X257450Y1837500D01*
X262250Y1839750D02*Y1837500D01*
Y1839750D02*X263000Y1840500D01*
X263750D01*
X264500Y1839750D01*
Y1837500D01*
X261500Y1840500D02*X262250Y1839750D01*
X268550Y1840500D02*X269300Y1839750D01*
X267050Y1840500D02*X268550D01*
X266300Y1839750D02*X267050Y1840500D01*
X266300Y1839750D02*Y1838250D01*
X267050Y1837500D01*
X269300Y1840500D02*Y1838250D01*
X270050Y1837500D01*
X267050D02*X268550D01*
X269300Y1838250D01*
X274850Y1843500D02*Y1837500D01*
X274100D02*X274850Y1838250D01*
X272600Y1837500D02*X274100D01*
X271850Y1838250D02*X272600Y1837500D01*
X271850Y1839750D02*Y1838250D01*
Y1839750D02*X272600Y1840500D01*
X274100D01*
X274850Y1839750D01*
X277400D02*Y1837500D01*
Y1839750D02*X278150Y1840500D01*
X278900D01*
X279650Y1839750D01*
Y1837500D01*
Y1839750D02*X280400Y1840500D01*
X281150D01*
X281900Y1839750D01*
Y1837500D01*
X276650Y1840500D02*X277400Y1839750D01*
G54D283*X283700Y1842000D02*Y1841850D01*
G54D282*Y1839750D02*Y1837500D01*
X285950Y1839750D02*Y1837500D01*
Y1839750D02*X286700Y1840500D01*
X287450D01*
X288200Y1839750D01*
Y1837500D01*
X285200Y1840500D02*X285950Y1839750D01*
X200000Y1858500D02*X203000D01*
X201500D02*Y1852500D01*
G54D283*X204800Y1857000D02*Y1856850D01*
G54D282*Y1854750D02*Y1852500D01*
X207050Y1858500D02*Y1853250D01*
X207800Y1852500D01*
X206300Y1856250D02*X207800D01*
X209300Y1858500D02*Y1853250D01*
X210050Y1852500D01*
X212300D02*X214550D01*
X211550Y1853250D02*X212300Y1852500D01*
X211550Y1854750D02*Y1853250D01*
Y1854750D02*X212300Y1855500D01*
X213800D01*
X214550Y1854750D01*
X211550Y1854000D02*X214550D01*
Y1854750D02*Y1854000D01*
X216350Y1856250D02*X217100D01*
X216350Y1854750D02*X217100D01*
X221600Y1853250D02*X222350Y1852500D01*
X221600Y1857750D02*X222350Y1858500D01*
X221600Y1857750D02*Y1853250D01*
X224150Y1855500D02*Y1853250D01*
X224900Y1852500D01*
X226400D01*
X227150Y1853250D01*
Y1855500D02*Y1853250D01*
X229700Y1854750D02*Y1852500D01*
Y1854750D02*X230450Y1855500D01*
X231200D01*
X231950Y1854750D01*
Y1852500D01*
X228950Y1855500D02*X229700Y1854750D01*
X233750Y1858500D02*Y1852500D01*
Y1854750D02*X236000Y1852500D01*
X233750Y1854750D02*X235250Y1856250D01*
X238550Y1854750D02*Y1852500D01*
Y1854750D02*X239300Y1855500D01*
X240050D01*
X240800Y1854750D01*
Y1852500D01*
X237800Y1855500D02*X238550Y1854750D01*
X242600D02*Y1853250D01*
Y1854750D02*X243350Y1855500D01*
X244850D01*
X245600Y1854750D01*
Y1853250D01*
X244850Y1852500D02*X245600Y1853250D01*
X243350Y1852500D02*X244850D01*
X242600Y1853250D02*X243350Y1852500D01*
X247400Y1855500D02*Y1853250D01*
X248150Y1852500D01*
X248900D01*
X249650Y1853250D01*
Y1855500D02*Y1853250D01*
X250400Y1852500D01*
X251150D01*
X251900Y1853250D01*
Y1855500D02*Y1853250D01*
X254450Y1854750D02*Y1852500D01*
Y1854750D02*X255200Y1855500D01*
X255950D01*
X256700Y1854750D01*
Y1852500D01*
X253700Y1855500D02*X254450Y1854750D01*
X258500Y1858500D02*X259250Y1857750D01*
Y1853250D01*
X258500Y1852500D02*X259250Y1853250D01*
X263750Y1855500D02*X266750D01*
X271250Y1858500D02*Y1852500D01*
Y1858500D02*X274250D01*
X271250Y1855800D02*X273500D01*
X278300Y1855500D02*X279050Y1854750D01*
X276800Y1855500D02*X278300D01*
X276050Y1854750D02*X276800Y1855500D01*
X276050Y1854750D02*Y1853250D01*
X276800Y1852500D01*
X279050Y1855500D02*Y1853250D01*
X279800Y1852500D01*
X276800D02*X278300D01*
X279050Y1853250D01*
X281600Y1858500D02*Y1852500D01*
Y1853250D02*X282350Y1852500D01*
X283850D01*
X284600Y1853250D01*
Y1854750D02*Y1853250D01*
X283850Y1855500D02*X284600Y1854750D01*
X282350Y1855500D02*X283850D01*
X281600Y1854750D02*X282350Y1855500D01*
X287150Y1854750D02*Y1852500D01*
Y1854750D02*X287900Y1855500D01*
X289400D01*
X286400D02*X287150Y1854750D01*
G54D283*X291200Y1857000D02*Y1856850D01*
G54D282*Y1854750D02*Y1852500D01*
X293450Y1855500D02*X295700D01*
X292700Y1854750D02*X293450Y1855500D01*
X292700Y1854750D02*Y1853250D01*
X293450Y1852500D01*
X295700D01*
X299750Y1855500D02*X300500Y1854750D01*
X298250Y1855500D02*X299750D01*
X297500Y1854750D02*X298250Y1855500D01*
X297500Y1854750D02*Y1853250D01*
X298250Y1852500D01*
X300500Y1855500D02*Y1853250D01*
X301250Y1852500D01*
X298250D02*X299750D01*
X300500Y1853250D01*
X303800Y1858500D02*Y1853250D01*
X304550Y1852500D01*
X303050Y1856250D02*X304550D01*
G54D283*X306050Y1857000D02*Y1856850D01*
G54D282*Y1854750D02*Y1852500D01*
X307550Y1854750D02*Y1853250D01*
Y1854750D02*X308300Y1855500D01*
X309800D01*
X310550Y1854750D01*
Y1853250D01*
X309800Y1852500D02*X310550Y1853250D01*
X308300Y1852500D02*X309800D01*
X307550Y1853250D02*X308300Y1852500D01*
X313100Y1854750D02*Y1852500D01*
Y1854750D02*X313850Y1855500D01*
X314600D01*
X315350Y1854750D01*
Y1852500D01*
X312350Y1855500D02*X313100Y1854750D01*
X320600Y1858500D02*Y1852500D01*
X322550Y1858500D02*X323600Y1857450D01*
Y1853550D01*
X322550Y1852500D02*X323600Y1853550D01*
X319850Y1852500D02*X322550D01*
X319850Y1858500D02*X322550D01*
X326150Y1854750D02*Y1852500D01*
Y1854750D02*X326900Y1855500D01*
X328400D01*
X325400D02*X326150Y1854750D01*
X332450Y1855500D02*X333200Y1854750D01*
X330950Y1855500D02*X332450D01*
X330200Y1854750D02*X330950Y1855500D01*
X330200Y1854750D02*Y1853250D01*
X330950Y1852500D01*
X333200Y1855500D02*Y1853250D01*
X333950Y1852500D01*
X330950D02*X332450D01*
X333200Y1853250D01*
X335750Y1855500D02*Y1853250D01*
X336500Y1852500D01*
X337250D01*
X338000Y1853250D01*
Y1855500D02*Y1853250D01*
X338750Y1852500D01*
X339500D01*
X340250Y1853250D01*
Y1855500D02*Y1853250D01*
G54D283*X342050Y1857000D02*Y1856850D01*
G54D282*Y1854750D02*Y1852500D01*
X344300Y1854750D02*Y1852500D01*
Y1854750D02*X345050Y1855500D01*
X345800D01*
X346550Y1854750D01*
Y1852500D01*
X343550Y1855500D02*X344300Y1854750D01*
X350600Y1855500D02*X351350Y1854750D01*
X349100Y1855500D02*X350600D01*
X348350Y1854750D02*X349100Y1855500D01*
X348350Y1854750D02*Y1853250D01*
X349100Y1852500D01*
X350600D01*
X351350Y1853250D01*
X348350Y1851000D02*X349100Y1850250D01*
X350600D01*
X351350Y1851000D01*
Y1855500D02*Y1851000D01*
M02*
