G04 start of page 3 for group 1 idx 1 *
G04 Title: (unknown), ground *
G04 Creator: pcb 4.2.0 *
G04 CreationDate: Mon Jul 20 21:59:32 2020 UTC *
G04 For: commonadmin *
G04 Format: Gerber/RS-274X *
G04 PCB-Dimensions (mil): 24000.00 18000.00 *
G04 PCB-Coordinate-Origin: lower left *
%MOIN*%
%FSLAX25Y25*%
%LNGROUP1*%
%ADD23C,0.0787*%
%ADD22C,0.0380*%
%ADD21C,0.0394*%
%ADD20C,0.0945*%
%ADD19C,0.0600*%
%ADD18C,0.0551*%
G54D18*X618110Y233858D03*
G54D19*X615236Y246272D03*
G54D18*X624016Y227953D03*
G54D19*X635236Y257772D03*
Y246272D03*
X625236Y247772D03*
Y256272D03*
X615236Y257772D03*
X605236Y256272D03*
Y247772D03*
G54D20*X645669Y267520D03*
G54D18*X610236Y236024D03*
X594488Y220276D03*
X602362Y233858D03*
X596457Y227953D03*
G54D20*X610236Y220276D03*
G54D18*Y204528D03*
X625984Y220276D03*
X618110Y206693D03*
X624016Y212598D03*
X602362Y206693D03*
X596457Y212598D03*
G54D19*X595236Y246272D03*
G54D20*X645669Y283268D03*
X574803D03*
X559055D03*
X488189D03*
G54D19*X595236Y257772D03*
X585236Y256272D03*
Y247772D03*
G54D20*X574803Y267520D03*
X559055D03*
G54D19*X548599Y257788D03*
X528599D03*
X518599Y256288D03*
X508599Y257788D03*
X498599Y256288D03*
G54D20*X488189Y267520D03*
G54D19*X548599Y246288D03*
X528599D03*
X518599Y247788D03*
X508599Y246288D03*
X498599Y247788D03*
X538599D03*
Y256288D03*
G54D20*X523622Y220276D03*
G54D18*X507874D03*
X509843Y227953D03*
Y212598D03*
X523622Y204528D03*
Y236024D03*
X515748Y233858D03*
Y206693D03*
X539370Y220276D03*
X531496Y206693D03*
Y233858D03*
X537402Y212598D03*
Y227953D03*
G54D21*G54D22*G54D21*G54D22*G54D23*G54D21*G54D23*G54D21*G54D22*G54D23*G54D22*G54D23*G54D22*G54D23*G54D22*G54D23*G54D21*M02*
