G04 start of page 12 for group -4062 idx -4062 *
G04 Title: (unknown), soldermask *
G04 Creator: pcb 4.2.0 *
G04 CreationDate: Tue Jul 14 02:58:48 2020 UTC *
G04 For: commonadmin *
G04 Format: Gerber/RS-274X *
G04 PCB-Dimensions (mil): 24000.00 18000.00 *
G04 PCB-Coordinate-Origin: lower left *
%MOIN*%
%FSLAX25Y25*%
%LNBOTTOMMASK*%
%ADD68C,0.0001*%
%ADD67C,0.1005*%
%ADD66C,0.0960*%
%ADD65C,0.0660*%
%ADD64C,0.0611*%
G54D64*X618110Y233858D03*
G54D65*X615236Y246272D03*
G54D64*X624016Y227953D03*
G54D65*X635236Y257772D03*
Y246272D03*
X625236Y247772D03*
Y256272D03*
X615236Y257772D03*
X605236Y256272D03*
Y247772D03*
G54D66*X645669Y267520D03*
G54D64*X610236Y236024D03*
X594488Y220276D03*
X602362Y233858D03*
X596457Y227953D03*
G54D67*X610236Y220276D03*
G54D64*Y204528D03*
X625984Y220276D03*
X618110Y206693D03*
X624016Y212598D03*
X602362Y206693D03*
X596457Y212598D03*
G54D65*X595236Y246272D03*
G54D66*X645669Y283268D03*
X574803D03*
X559055D03*
X488189D03*
G54D65*X595236Y257772D03*
X585236Y256272D03*
Y247772D03*
G54D66*X574803Y267520D03*
X559055D03*
G54D65*X548599Y257788D03*
X528599D03*
X518599Y256288D03*
X508599Y257788D03*
X498599Y256288D03*
G54D66*X488189Y267520D03*
G54D65*X548599Y246288D03*
X528599D03*
X518599Y247788D03*
X508599Y246288D03*
X498599Y247788D03*
X538599D03*
Y256288D03*
G54D67*X523622Y220276D03*
G54D64*X507874D03*
X509843Y227953D03*
Y212598D03*
X523622Y204528D03*
Y236024D03*
X515748Y233858D03*
Y206693D03*
X539370Y220276D03*
X531496Y206693D03*
Y233858D03*
X537402Y212598D03*
Y227953D03*
G54D68*G36*
X504976Y273559D02*X502346D01*
Y269748D01*
X504976D01*
Y273559D01*
G37*
G36*
X506354D02*X503724D01*
Y269748D01*
X506354D01*
Y273559D01*
G37*
G36*
X507732D02*X505102D01*
Y269748D01*
X507732D01*
Y273559D01*
G37*
G36*
X509110D02*X506480D01*
Y269748D01*
X509110D01*
Y273559D01*
G37*
G36*
X510488D02*X507858D01*
Y269748D01*
X510488D01*
Y273559D01*
G37*
G36*
X500252Y275921D02*X496835D01*
Y271126D01*
X500252D01*
Y275921D01*
G37*
G36*
Y279661D02*X496835D01*
Y274866D01*
X500252D01*
Y279661D01*
G37*
G36*
X511866Y273559D02*X509236D01*
Y269748D01*
X511866D01*
Y273559D01*
G37*
G36*
X513244D02*X510614D01*
Y269748D01*
X513244D01*
Y273559D01*
G37*
G36*
X514622D02*X511992D01*
Y269748D01*
X514622D01*
Y273559D01*
G37*
G36*
X516000D02*X513370D01*
Y269748D01*
X516000D01*
Y273559D01*
G37*
G36*
X517378D02*X514748D01*
Y269748D01*
X517378D01*
Y273559D01*
G37*
G36*
X518756D02*X516126D01*
Y269748D01*
X518756D01*
Y273559D01*
G37*
G36*
X520134D02*X517504D01*
Y269748D01*
X520134D01*
Y273559D01*
G37*
G36*
X521512D02*X518882D01*
Y269748D01*
X521512D01*
Y273559D01*
G37*
G36*
X522890D02*X520260D01*
Y269748D01*
X522890D01*
Y273559D01*
G37*
G36*
X524268D02*X521638D01*
Y269748D01*
X524268D01*
Y273559D01*
G37*
G36*
X525646D02*X523016D01*
Y269748D01*
X525646D01*
Y273559D01*
G37*
G36*
X527024D02*X524394D01*
Y269748D01*
X527024D01*
Y273559D01*
G37*
G36*
X528402D02*X525772D01*
Y269748D01*
X528402D01*
Y273559D01*
G37*
G36*
X529780D02*X527150D01*
Y269748D01*
X529780D01*
Y273559D01*
G37*
G36*
X531157D02*X528528D01*
Y269748D01*
X531157D01*
Y273559D01*
G37*
G36*
X532535D02*X529906D01*
Y269748D01*
X532535D01*
Y273559D01*
G37*
G36*
X533913D02*X531283D01*
Y269748D01*
X533913D01*
Y273559D01*
G37*
G36*
X535291D02*X532661D01*
Y269748D01*
X535291D01*
Y273559D01*
G37*
G36*
X536669D02*X534039D01*
Y269748D01*
X536669D01*
Y273559D01*
G37*
G36*
X538047D02*X535417D01*
Y269748D01*
X538047D01*
Y273559D01*
G37*
G36*
X539425D02*X536795D01*
Y269748D01*
X539425D01*
Y273559D01*
G37*
G36*
X540803D02*X538173D01*
Y269748D01*
X540803D01*
Y273559D01*
G37*
G36*
X542181D02*X539551D01*
Y269748D01*
X542181D01*
Y273559D01*
G37*
G36*
X543559D02*X540929D01*
Y269748D01*
X543559D01*
Y273559D01*
G37*
G36*
X544937D02*X542307D01*
Y269748D01*
X544937D01*
Y273559D01*
G37*
G36*
X550449Y275921D02*X547031D01*
Y271126D01*
X550449D01*
Y275921D01*
G37*
G36*
X504976Y281236D02*X502346D01*
Y277425D01*
X504976D01*
Y281236D01*
G37*
G36*
X506354D02*X503724D01*
Y277425D01*
X506354D01*
Y281236D01*
G37*
G36*
X507732D02*X505102D01*
Y277425D01*
X507732D01*
Y281236D01*
G37*
G36*
X509110D02*X506480D01*
Y277425D01*
X509110D01*
Y281236D01*
G37*
G36*
X510488D02*X507858D01*
Y277425D01*
X510488D01*
Y281236D01*
G37*
G36*
X511866D02*X509236D01*
Y277425D01*
X511866D01*
Y281236D01*
G37*
G36*
X513244D02*X510614D01*
Y277425D01*
X513244D01*
Y281236D01*
G37*
G36*
X514622D02*X511992D01*
Y277425D01*
X514622D01*
Y281236D01*
G37*
G36*
X516000D02*X513370D01*
Y277425D01*
X516000D01*
Y281236D01*
G37*
G36*
X517378D02*X514748D01*
Y277425D01*
X517378D01*
Y281236D01*
G37*
G36*
X518756D02*X516126D01*
Y277425D01*
X518756D01*
Y281236D01*
G37*
G36*
X520134D02*X517504D01*
Y277425D01*
X520134D01*
Y281236D01*
G37*
G36*
X521512D02*X518882D01*
Y277425D01*
X521512D01*
Y281236D01*
G37*
G36*
X522890D02*X520260D01*
Y277425D01*
X522890D01*
Y281236D01*
G37*
G36*
X524268D02*X521638D01*
Y277425D01*
X524268D01*
Y281236D01*
G37*
G36*
X525646D02*X523016D01*
Y277425D01*
X525646D01*
Y281236D01*
G37*
G36*
X527024D02*X524394D01*
Y277425D01*
X527024D01*
Y281236D01*
G37*
G36*
X528402D02*X525772D01*
Y277425D01*
X528402D01*
Y281236D01*
G37*
G36*
X529780D02*X527150D01*
Y277425D01*
X529780D01*
Y281236D01*
G37*
G36*
X531157D02*X528528D01*
Y277425D01*
X531157D01*
Y281236D01*
G37*
G36*
X532535D02*X529906D01*
Y277425D01*
X532535D01*
Y281236D01*
G37*
G36*
X533913D02*X531283D01*
Y277425D01*
X533913D01*
Y281236D01*
G37*
G36*
X535291D02*X532661D01*
Y277425D01*
X535291D01*
Y281236D01*
G37*
G36*
X536669D02*X534039D01*
Y277425D01*
X536669D01*
Y281236D01*
G37*
G36*
X538047D02*X535417D01*
Y277425D01*
X538047D01*
Y281236D01*
G37*
G36*
X539425D02*X536795D01*
Y277425D01*
X539425D01*
Y281236D01*
G37*
G36*
X540803D02*X538173D01*
Y277425D01*
X540803D01*
Y281236D01*
G37*
G36*
X542181D02*X539551D01*
Y277425D01*
X542181D01*
Y281236D01*
G37*
G36*
X543559D02*X540929D01*
Y277425D01*
X543559D01*
Y281236D01*
G37*
G36*
X544937D02*X542307D01*
Y277425D01*
X544937D01*
Y281236D01*
G37*
G36*
X550449Y279661D02*X547031D01*
Y274866D01*
X550449D01*
Y279661D01*
G37*
M02*
