G04 start of page 7 for group 5 idx 5 *
G04 Title: (unknown), bottom *
G04 Creator: pcb 4.2.0 *
G04 CreationDate: Mon Jul 20 21:59:32 2020 UTC *
G04 For: commonadmin *
G04 Format: Gerber/RS-274X *
G04 PCB-Dimensions (mil): 24000.00 18000.00 *
G04 PCB-Coordinate-Origin: lower left *
%MOIN*%
%FSLAX25Y25*%
%LNBOTTOM*%
%ADD48C,0.0787*%
%ADD47C,0.0380*%
%ADD46C,0.0394*%
%ADD45C,0.0001*%
%ADD44C,0.0945*%
%ADD43C,0.0600*%
%ADD42C,0.0551*%
G54D42*X618110Y233858D03*
G54D43*X615236Y246272D03*
G54D42*X624016Y227953D03*
G54D43*X635236Y257772D03*
Y246272D03*
X625236Y247772D03*
Y256272D03*
X615236Y257772D03*
X605236Y256272D03*
Y247772D03*
G54D44*X645669Y267520D03*
G54D42*X610236Y236024D03*
X594488Y220276D03*
X602362Y233858D03*
X596457Y227953D03*
G54D44*X610236Y220276D03*
G54D42*Y204528D03*
X625984Y220276D03*
X618110Y206693D03*
X624016Y212598D03*
X602362Y206693D03*
X596457Y212598D03*
G54D43*X595236Y246272D03*
G54D44*X645669Y283268D03*
X574803D03*
X559055D03*
X488189D03*
G54D43*X595236Y257772D03*
X585236Y256272D03*
Y247772D03*
G54D44*X574803Y267520D03*
X559055D03*
G54D43*X548599Y257788D03*
X528599D03*
X518599Y256288D03*
X508599Y257788D03*
X498599Y256288D03*
G54D44*X488189Y267520D03*
G54D43*X548599Y246288D03*
X528599D03*
X518599Y247788D03*
X508599Y246288D03*
X498599Y247788D03*
X538599D03*
Y256288D03*
G54D44*X523622Y220276D03*
G54D42*X507874D03*
X509843Y227953D03*
Y212598D03*
X523622Y204528D03*
Y236024D03*
X515748Y233858D03*
Y206693D03*
X539370Y220276D03*
X531496Y206693D03*
Y233858D03*
X537402Y212598D03*
Y227953D03*
G54D45*G36*
X503976Y272559D02*X503346D01*
Y270748D01*
X503976D01*
Y272559D01*
G37*
G36*
X505354D02*X504724D01*
Y270748D01*
X505354D01*
Y272559D01*
G37*
G36*
X506732D02*X506102D01*
Y270748D01*
X506732D01*
Y272559D01*
G37*
G36*
X508110D02*X507480D01*
Y270748D01*
X508110D01*
Y272559D01*
G37*
G36*
X509488D02*X508858D01*
Y270748D01*
X509488D01*
Y272559D01*
G37*
G36*
X499252Y274921D02*X497835D01*
Y272126D01*
X499252D01*
Y274921D01*
G37*
G36*
Y278661D02*X497835D01*
Y275866D01*
X499252D01*
Y278661D01*
G37*
G36*
X510866Y272559D02*X510236D01*
Y270748D01*
X510866D01*
Y272559D01*
G37*
G36*
X512244D02*X511614D01*
Y270748D01*
X512244D01*
Y272559D01*
G37*
G36*
X513622D02*X512992D01*
Y270748D01*
X513622D01*
Y272559D01*
G37*
G36*
X515000D02*X514370D01*
Y270748D01*
X515000D01*
Y272559D01*
G37*
G36*
X516378D02*X515748D01*
Y270748D01*
X516378D01*
Y272559D01*
G37*
G36*
X517756D02*X517126D01*
Y270748D01*
X517756D01*
Y272559D01*
G37*
G36*
X519134D02*X518504D01*
Y270748D01*
X519134D01*
Y272559D01*
G37*
G36*
X520512D02*X519882D01*
Y270748D01*
X520512D01*
Y272559D01*
G37*
G36*
X521890D02*X521260D01*
Y270748D01*
X521890D01*
Y272559D01*
G37*
G36*
X523268D02*X522638D01*
Y270748D01*
X523268D01*
Y272559D01*
G37*
G36*
X524646D02*X524016D01*
Y270748D01*
X524646D01*
Y272559D01*
G37*
G36*
X526024D02*X525394D01*
Y270748D01*
X526024D01*
Y272559D01*
G37*
G36*
X527402D02*X526772D01*
Y270748D01*
X527402D01*
Y272559D01*
G37*
G36*
X528780D02*X528150D01*
Y270748D01*
X528780D01*
Y272559D01*
G37*
G36*
X530157D02*X529528D01*
Y270748D01*
X530157D01*
Y272559D01*
G37*
G36*
X531535D02*X530906D01*
Y270748D01*
X531535D01*
Y272559D01*
G37*
G36*
X532913D02*X532283D01*
Y270748D01*
X532913D01*
Y272559D01*
G37*
G36*
X534291D02*X533661D01*
Y270748D01*
X534291D01*
Y272559D01*
G37*
G36*
X535669D02*X535039D01*
Y270748D01*
X535669D01*
Y272559D01*
G37*
G36*
X537047D02*X536417D01*
Y270748D01*
X537047D01*
Y272559D01*
G37*
G36*
X538425D02*X537795D01*
Y270748D01*
X538425D01*
Y272559D01*
G37*
G36*
X539803D02*X539173D01*
Y270748D01*
X539803D01*
Y272559D01*
G37*
G36*
X541181D02*X540551D01*
Y270748D01*
X541181D01*
Y272559D01*
G37*
G36*
X542559D02*X541929D01*
Y270748D01*
X542559D01*
Y272559D01*
G37*
G36*
X543937D02*X543307D01*
Y270748D01*
X543937D01*
Y272559D01*
G37*
G36*
X549449Y274921D02*X548031D01*
Y272126D01*
X549449D01*
Y274921D01*
G37*
G36*
X503976Y280236D02*X503346D01*
Y278425D01*
X503976D01*
Y280236D01*
G37*
G36*
X505354D02*X504724D01*
Y278425D01*
X505354D01*
Y280236D01*
G37*
G36*
X506732D02*X506102D01*
Y278425D01*
X506732D01*
Y280236D01*
G37*
G36*
X508110D02*X507480D01*
Y278425D01*
X508110D01*
Y280236D01*
G37*
G36*
X509488D02*X508858D01*
Y278425D01*
X509488D01*
Y280236D01*
G37*
G36*
X510866D02*X510236D01*
Y278425D01*
X510866D01*
Y280236D01*
G37*
G36*
X512244D02*X511614D01*
Y278425D01*
X512244D01*
Y280236D01*
G37*
G36*
X513622D02*X512992D01*
Y278425D01*
X513622D01*
Y280236D01*
G37*
G36*
X515000D02*X514370D01*
Y278425D01*
X515000D01*
Y280236D01*
G37*
G36*
X516378D02*X515748D01*
Y278425D01*
X516378D01*
Y280236D01*
G37*
G36*
X517756D02*X517126D01*
Y278425D01*
X517756D01*
Y280236D01*
G37*
G36*
X519134D02*X518504D01*
Y278425D01*
X519134D01*
Y280236D01*
G37*
G36*
X520512D02*X519882D01*
Y278425D01*
X520512D01*
Y280236D01*
G37*
G36*
X521890D02*X521260D01*
Y278425D01*
X521890D01*
Y280236D01*
G37*
G36*
X523268D02*X522638D01*
Y278425D01*
X523268D01*
Y280236D01*
G37*
G36*
X524646D02*X524016D01*
Y278425D01*
X524646D01*
Y280236D01*
G37*
G36*
X526024D02*X525394D01*
Y278425D01*
X526024D01*
Y280236D01*
G37*
G36*
X527402D02*X526772D01*
Y278425D01*
X527402D01*
Y280236D01*
G37*
G36*
X528780D02*X528150D01*
Y278425D01*
X528780D01*
Y280236D01*
G37*
G36*
X530157D02*X529528D01*
Y278425D01*
X530157D01*
Y280236D01*
G37*
G36*
X531535D02*X530906D01*
Y278425D01*
X531535D01*
Y280236D01*
G37*
G36*
X532913D02*X532283D01*
Y278425D01*
X532913D01*
Y280236D01*
G37*
G36*
X534291D02*X533661D01*
Y278425D01*
X534291D01*
Y280236D01*
G37*
G36*
X535669D02*X535039D01*
Y278425D01*
X535669D01*
Y280236D01*
G37*
G36*
X537047D02*X536417D01*
Y278425D01*
X537047D01*
Y280236D01*
G37*
G36*
X538425D02*X537795D01*
Y278425D01*
X538425D01*
Y280236D01*
G37*
G36*
X539803D02*X539173D01*
Y278425D01*
X539803D01*
Y280236D01*
G37*
G36*
X541181D02*X540551D01*
Y278425D01*
X541181D01*
Y280236D01*
G37*
G36*
X542559D02*X541929D01*
Y278425D01*
X542559D01*
Y280236D01*
G37*
G36*
X543937D02*X543307D01*
Y278425D01*
X543937D01*
Y280236D01*
G37*
G36*
X549449Y278661D02*X548031D01*
Y275866D01*
X549449D01*
Y278661D01*
G37*
G54D46*G54D47*G54D46*G54D47*G54D48*G54D46*G54D48*G54D46*G54D47*G54D48*G54D47*G54D48*G54D47*G54D48*G54D47*G54D48*G54D46*M02*
