G04 start of page 15 for group -4015 idx -4015 *
G04 Title: (unknown), toppaste *
G04 Creator: pcb 4.2.0 *
G04 CreationDate: Mon Jul 20 21:59:32 2020 UTC *
G04 For: commonadmin *
G04 Format: Gerber/RS-274X *
G04 PCB-Dimensions (mil): 24000.00 18000.00 *
G04 PCB-Coordinate-Origin: lower left *
%MOIN*%
%FSLAX25Y25*%
%LNTOPPASTE*%
%ADD73C,0.0001*%
G54D73*G36*
X589193Y279783D02*X588366D01*
Y277028D01*
X589193D01*
Y279783D01*
G37*
G36*
Y273760D02*X588366D01*
Y271004D01*
X589193D01*
Y273760D01*
G37*
G36*
X632067Y279783D02*X631240D01*
Y277028D01*
X632067D01*
Y279783D01*
G37*
G36*
Y273760D02*X631240D01*
Y271004D01*
X632067D01*
Y273760D01*
G37*
G36*
X590551Y279843D02*X589921D01*
Y278031D01*
X590551D01*
Y279843D01*
G37*
G36*
X591929D02*X591299D01*
Y278031D01*
X591929D01*
Y279843D01*
G37*
G36*
X593307D02*X592677D01*
Y278031D01*
X593307D01*
Y279843D01*
G37*
G36*
X594685D02*X594055D01*
Y278031D01*
X594685D01*
Y279843D01*
G37*
G36*
X596063D02*X595433D01*
Y278031D01*
X596063D01*
Y279843D01*
G37*
G36*
X597441D02*X596811D01*
Y278031D01*
X597441D01*
Y279843D01*
G37*
G36*
X598819D02*X598189D01*
Y278031D01*
X598819D01*
Y279843D01*
G37*
G36*
X600197D02*X599567D01*
Y278031D01*
X600197D01*
Y279843D01*
G37*
G36*
X601575D02*X600945D01*
Y278031D01*
X601575D01*
Y279843D01*
G37*
G36*
X602953D02*X602323D01*
Y278031D01*
X602953D01*
Y279843D01*
G37*
G36*
X604331D02*X603701D01*
Y278031D01*
X604331D01*
Y279843D01*
G37*
G36*
X605709D02*X605079D01*
Y278031D01*
X605709D01*
Y279843D01*
G37*
G36*
X607087D02*X606457D01*
Y278031D01*
X607087D01*
Y279843D01*
G37*
G36*
X608465D02*X607835D01*
Y278031D01*
X608465D01*
Y279843D01*
G37*
G36*
X609843D02*X609213D01*
Y278031D01*
X609843D01*
Y279843D01*
G37*
G36*
X611220D02*X610591D01*
Y278031D01*
X611220D01*
Y279843D01*
G37*
G36*
X612598D02*X611969D01*
Y278031D01*
X612598D01*
Y279843D01*
G37*
G36*
X613976D02*X613346D01*
Y278031D01*
X613976D01*
Y279843D01*
G37*
G36*
X615354D02*X614724D01*
Y278031D01*
X615354D01*
Y279843D01*
G37*
G36*
X616732D02*X616102D01*
Y278031D01*
X616732D01*
Y279843D01*
G37*
G36*
X618110D02*X617480D01*
Y278031D01*
X618110D01*
Y279843D01*
G37*
G36*
X619488D02*X618858D01*
Y278031D01*
X619488D01*
Y279843D01*
G37*
G36*
X620866D02*X620236D01*
Y278031D01*
X620866D01*
Y279843D01*
G37*
G36*
X622244D02*X621614D01*
Y278031D01*
X622244D01*
Y279843D01*
G37*
G36*
X623622D02*X622992D01*
Y278031D01*
X623622D01*
Y279843D01*
G37*
G36*
X625000D02*X624370D01*
Y278031D01*
X625000D01*
Y279843D01*
G37*
G36*
X626378D02*X625748D01*
Y278031D01*
X626378D01*
Y279843D01*
G37*
G36*
X627756D02*X627126D01*
Y278031D01*
X627756D01*
Y279843D01*
G37*
G36*
X629134D02*X628504D01*
Y278031D01*
X629134D01*
Y279843D01*
G37*
G36*
X630512D02*X629882D01*
Y278031D01*
X630512D01*
Y279843D01*
G37*
G36*
X590551Y272756D02*X589921D01*
Y270945D01*
X590551D01*
Y272756D01*
G37*
G36*
X591929D02*X591299D01*
Y270945D01*
X591929D01*
Y272756D01*
G37*
G36*
X593307D02*X592677D01*
Y270945D01*
X593307D01*
Y272756D01*
G37*
G36*
X594685D02*X594055D01*
Y270945D01*
X594685D01*
Y272756D01*
G37*
G36*
X596063D02*X595433D01*
Y270945D01*
X596063D01*
Y272756D01*
G37*
G36*
X597441D02*X596811D01*
Y270945D01*
X597441D01*
Y272756D01*
G37*
G36*
X598819D02*X598189D01*
Y270945D01*
X598819D01*
Y272756D01*
G37*
G36*
X600197D02*X599567D01*
Y270945D01*
X600197D01*
Y272756D01*
G37*
G36*
X601575D02*X600945D01*
Y270945D01*
X601575D01*
Y272756D01*
G37*
G36*
X602953D02*X602323D01*
Y270945D01*
X602953D01*
Y272756D01*
G37*
G36*
X604331D02*X603701D01*
Y270945D01*
X604331D01*
Y272756D01*
G37*
G36*
X605709D02*X605079D01*
Y270945D01*
X605709D01*
Y272756D01*
G37*
G36*
X607087D02*X606457D01*
Y270945D01*
X607087D01*
Y272756D01*
G37*
G36*
X608465D02*X607835D01*
Y270945D01*
X608465D01*
Y272756D01*
G37*
G36*
X609843D02*X609213D01*
Y270945D01*
X609843D01*
Y272756D01*
G37*
G36*
X611220D02*X610591D01*
Y270945D01*
X611220D01*
Y272756D01*
G37*
G36*
X612598D02*X611969D01*
Y270945D01*
X612598D01*
Y272756D01*
G37*
G36*
X613976D02*X613346D01*
Y270945D01*
X613976D01*
Y272756D01*
G37*
G36*
X615354D02*X614724D01*
Y270945D01*
X615354D01*
Y272756D01*
G37*
G36*
X616732D02*X616102D01*
Y270945D01*
X616732D01*
Y272756D01*
G37*
G36*
X618110D02*X617480D01*
Y270945D01*
X618110D01*
Y272756D01*
G37*
G36*
X619488D02*X618858D01*
Y270945D01*
X619488D01*
Y272756D01*
G37*
G36*
X620866D02*X620236D01*
Y270945D01*
X620866D01*
Y272756D01*
G37*
G36*
X622244D02*X621614D01*
Y270945D01*
X622244D01*
Y272756D01*
G37*
G36*
X623622D02*X622992D01*
Y270945D01*
X623622D01*
Y272756D01*
G37*
G36*
X625000D02*X624370D01*
Y270945D01*
X625000D01*
Y272756D01*
G37*
G36*
X626378D02*X625748D01*
Y270945D01*
X626378D01*
Y272756D01*
G37*
G36*
X627756D02*X627126D01*
Y270945D01*
X627756D01*
Y272756D01*
G37*
G36*
X629134D02*X628504D01*
Y270945D01*
X629134D01*
Y272756D01*
G37*
G36*
X630512D02*X629882D01*
Y270945D01*
X630512D01*
Y272756D01*
G37*
M02*
