<?xml version="1.0" encoding="UTF-8"?>
<svg xmlns="http://www.w3.org/2000/svg" xmlns:xlink="http://www.w3.org/1999/xlink" width="1814pt" height="1361pt" viewBox="0 0 1814 1361" version="1.1">
<g id="surface1">
<path style=" stroke:none;fill-rule:evenodd;fill:rgb(100%,49.803922%,45.098039%);fill-opacity:1;" d="M 43.210938 32.15625 L 43.210938 1328.585938 L 43.644531 1328.585938 L 43.644531 32.15625 "/>
<path style=" stroke:none;fill-rule:evenodd;fill:rgb(100%,49.803922%,45.098039%);fill-opacity:1;" d="M 43.210938 32.585938 L 43.210938 32.15625 L 1771.644531 32.15625 L 1771.644531 32.585938 L 43.644531 32.585938 "/>
<path style=" stroke:none;fill-rule:evenodd;fill:rgb(100%,49.803922%,45.098039%);fill-opacity:1;" d="M 43.210938 1328.585938 L 43.210938 1328.15625 L 1771.644531 1328.15625 L 1771.644531 1328.585938 L 43.644531 1328.585938 "/>
<path style=" stroke:none;fill-rule:evenodd;fill:rgb(100%,49.803922%,45.098039%);fill-opacity:1;" d="M 1771.210938 32.15625 L 1771.210938 1328.585938 L 1771.644531 1328.585938 L 1771.644531 32.15625 "/>
<path style=" stroke:none;fill-rule:evenodd;fill:rgb(45.098039%,45.098039%,87.058824%);fill-opacity:1;" d="M 403.789062 1143.84375 C 403.789062 1142.019531 401.050781 1142.019531 401.050781 1143.84375 C 401.050781 1145.667969 403.789062 1145.667969 403.789062 1143.84375 "/>
<path style=" stroke:none;fill-rule:evenodd;fill:rgb(45.098039%,45.098039%,87.058824%);fill-opacity:1;" d="M 403.789062 1149.960938 C 403.789062 1148.136719 401.050781 1148.136719 401.050781 1149.960938 C 401.050781 1151.785156 403.789062 1151.785156 403.789062 1149.960938 "/>
<path style=" stroke:none;fill-rule:evenodd;fill:rgb(45.098039%,45.098039%,87.058824%);fill-opacity:1;" d="M 410.988281 1142.761719 C 410.988281 1140.9375 408.253906 1140.9375 408.253906 1142.761719 C 408.253906 1144.585938 410.988281 1144.585938 410.988281 1142.761719 "/>
<path style=" stroke:none;fill-rule:evenodd;fill:rgb(45.098039%,45.098039%,87.058824%);fill-opacity:1;" d="M 410.988281 1151.042969 C 410.988281 1149.21875 408.253906 1149.21875 408.253906 1151.042969 C 408.253906 1152.867188 410.988281 1152.867188 410.988281 1151.042969 "/>
<path style=" stroke:none;fill-rule:evenodd;fill:rgb(45.098039%,45.098039%,87.058824%);fill-opacity:1;" d="M 418.1875 1143.84375 C 418.1875 1142.019531 415.453125 1142.019531 415.453125 1143.84375 C 415.453125 1145.667969 418.1875 1145.667969 418.1875 1143.84375 "/>
<path style=" stroke:none;fill-rule:evenodd;fill:rgb(45.098039%,45.098039%,87.058824%);fill-opacity:1;" d="M 418.1875 1149.960938 C 418.1875 1148.136719 415.453125 1148.136719 415.453125 1149.960938 C 415.453125 1151.785156 418.1875 1151.785156 418.1875 1149.960938 "/>
<path style=" stroke:none;fill-rule:evenodd;fill:rgb(45.098039%,45.098039%,87.058824%);fill-opacity:1;" d="M 425.386719 1142.761719 C 425.386719 1140.9375 422.652344 1140.9375 422.652344 1142.761719 C 422.652344 1144.585938 425.386719 1144.585938 425.386719 1142.761719 "/>
<path style=" stroke:none;fill-rule:evenodd;fill:rgb(45.098039%,45.098039%,87.058824%);fill-opacity:1;" d="M 425.386719 1151.042969 C 425.386719 1149.21875 422.652344 1149.21875 422.652344 1151.042969 C 422.652344 1152.867188 425.386719 1152.867188 425.386719 1151.042969 "/>
<path style=" stroke:none;fill-rule:evenodd;fill:rgb(45.098039%,45.098039%,87.058824%);fill-opacity:1;" d="M 432.589844 1143.84375 C 432.589844 1142.019531 429.851562 1142.019531 429.851562 1143.84375 C 429.851562 1145.667969 432.589844 1145.667969 432.589844 1143.84375 "/>
<path style=" stroke:none;fill-rule:evenodd;fill:rgb(45.098039%,45.098039%,87.058824%);fill-opacity:1;" d="M 432.589844 1149.960938 C 432.589844 1148.136719 429.851562 1148.136719 429.851562 1149.960938 C 429.851562 1151.785156 432.589844 1151.785156 432.589844 1149.960938 "/>
<path style=" stroke:none;fill-rule:evenodd;fill:rgb(45.098039%,45.098039%,87.058824%);fill-opacity:1;" d="M 439.789062 1142.761719 C 439.789062 1140.9375 437.050781 1140.9375 437.050781 1142.761719 C 437.050781 1144.585938 439.789062 1144.585938 439.789062 1142.761719 "/>
<path style=" stroke:none;fill-rule:evenodd;fill:rgb(45.098039%,45.098039%,87.058824%);fill-opacity:1;" d="M 439.789062 1151.042969 C 439.789062 1149.21875 437.050781 1149.21875 437.050781 1151.042969 C 437.050781 1152.867188 439.789062 1152.867188 439.789062 1151.042969 "/>
<path style=" stroke:none;fill-rule:evenodd;fill:rgb(45.098039%,45.098039%,87.058824%);fill-opacity:1;" d="M 466.167969 1143.855469 C 466.167969 1142.03125 463.433594 1142.03125 463.433594 1143.855469 C 463.433594 1145.679688 466.167969 1145.679688 466.167969 1143.855469 "/>
<path style=" stroke:none;fill-rule:evenodd;fill:rgb(45.098039%,45.098039%,87.058824%);fill-opacity:1;" d="M 466.167969 1149.976562 C 466.167969 1148.152344 463.433594 1148.152344 463.433594 1149.976562 C 463.433594 1151.800781 466.167969 1151.800781 466.167969 1149.976562 "/>
<path style=" stroke:none;fill-rule:evenodd;fill:rgb(45.098039%,45.098039%,87.058824%);fill-opacity:1;" d="M 473.371094 1142.777344 C 473.371094 1140.953125 470.632812 1140.953125 470.632812 1142.777344 C 470.632812 1144.601562 473.371094 1144.601562 473.371094 1142.777344 "/>
<path style=" stroke:none;fill-rule:evenodd;fill:rgb(45.098039%,45.098039%,87.058824%);fill-opacity:1;" d="M 473.371094 1151.058594 C 473.371094 1149.234375 470.632812 1149.234375 470.632812 1151.058594 C 470.632812 1152.882812 473.371094 1152.882812 473.371094 1151.058594 "/>
<path style=" stroke:none;fill-rule:evenodd;fill:rgb(45.098039%,45.098039%,87.058824%);fill-opacity:1;" d="M 480.570312 1143.855469 C 480.570312 1142.03125 477.832031 1142.03125 477.832031 1143.855469 C 477.832031 1145.679688 480.570312 1145.679688 480.570312 1143.855469 "/>
<path style=" stroke:none;fill-rule:evenodd;fill:rgb(45.098039%,45.098039%,87.058824%);fill-opacity:1;" d="M 480.570312 1149.976562 C 480.570312 1148.152344 477.832031 1148.152344 477.832031 1149.976562 C 477.832031 1151.800781 480.570312 1151.800781 480.570312 1149.976562 "/>
<path style=" stroke:none;fill-rule:evenodd;fill:rgb(45.098039%,45.098039%,87.058824%);fill-opacity:1;" d="M 487.769531 1142.777344 C 487.769531 1140.953125 485.035156 1140.953125 485.035156 1142.777344 C 485.035156 1144.601562 487.769531 1144.601562 487.769531 1142.777344 "/>
<path style=" stroke:none;fill-rule:evenodd;fill:rgb(45.098039%,45.098039%,87.058824%);fill-opacity:1;" d="M 487.769531 1151.058594 C 487.769531 1149.234375 485.035156 1149.234375 485.035156 1151.058594 C 485.035156 1152.882812 487.769531 1152.882812 487.769531 1151.058594 "/>
<path style=" stroke:none;fill-rule:evenodd;fill:rgb(45.098039%,45.098039%,87.058824%);fill-opacity:1;" d="M 494.96875 1143.855469 C 494.96875 1142.03125 492.234375 1142.03125 492.234375 1143.855469 C 492.234375 1145.679688 494.96875 1145.679688 494.96875 1143.855469 "/>
<path style=" stroke:none;fill-rule:evenodd;fill:rgb(45.098039%,45.098039%,87.058824%);fill-opacity:1;" d="M 494.96875 1149.976562 C 494.96875 1148.152344 492.234375 1148.152344 492.234375 1149.976562 C 492.234375 1151.800781 494.96875 1151.800781 494.96875 1149.976562 "/>
<path style=" stroke:none;fill-rule:evenodd;fill:rgb(45.098039%,45.098039%,87.058824%);fill-opacity:1;" d="M 502.167969 1142.777344 C 502.167969 1140.953125 499.433594 1140.953125 499.433594 1142.777344 C 499.433594 1144.601562 502.167969 1144.601562 502.167969 1142.777344 "/>
<path style=" stroke:none;fill-rule:evenodd;fill:rgb(45.098039%,45.098039%,87.058824%);fill-opacity:1;" d="M 502.167969 1151.058594 C 502.167969 1149.234375 499.433594 1149.234375 499.433594 1151.058594 C 499.433594 1152.882812 502.167969 1152.882812 502.167969 1151.058594 "/>
<path style=" stroke:none;fill-rule:evenodd;fill:rgb(45.098039%,45.098039%,87.058824%);fill-opacity:1;" d="M 410.5 1169.769531 C 410.5 1167.898438 407.691406 1167.898438 407.691406 1169.769531 C 407.691406 1171.640625 410.5 1171.640625 410.5 1169.769531 "/>
<path style=" stroke:none;fill-rule:evenodd;fill:rgb(45.098039%,45.098039%,87.058824%);fill-opacity:1;" d="M 411.917969 1164.246094 C 411.917969 1162.375 409.109375 1162.375 409.109375 1164.246094 C 409.109375 1166.121094 411.917969 1166.121094 411.917969 1164.246094 "/>
<path style=" stroke:none;fill-rule:evenodd;fill:rgb(45.098039%,45.098039%,87.058824%);fill-opacity:1;" d="M 411.917969 1175.300781 C 411.917969 1173.425781 409.109375 1173.425781 409.109375 1175.300781 C 409.109375 1177.171875 411.917969 1177.171875 411.917969 1175.300781 "/>
<path style=" stroke:none;fill-rule:evenodd;fill:rgb(45.098039%,45.098039%,87.058824%);fill-opacity:1;" d="M 416.171875 1159.992188 C 416.171875 1158.121094 413.363281 1158.121094 413.363281 1159.992188 C 413.363281 1161.863281 416.171875 1161.863281 416.171875 1159.992188 "/>
<path style=" stroke:none;fill-rule:evenodd;fill:rgb(45.098039%,45.098039%,87.058824%);fill-opacity:1;" d="M 416.171875 1179.554688 C 416.171875 1177.683594 413.363281 1177.683594 413.363281 1179.554688 C 413.363281 1181.425781 416.171875 1181.425781 416.171875 1179.554688 "/>
<path style=" stroke:none;fill-rule:evenodd;fill:rgb(45.098039%,45.098039%,87.058824%);fill-opacity:1;" d="M 421.839844 1158.4375 C 421.839844 1156.566406 419.03125 1156.566406 419.03125 1158.4375 C 419.03125 1160.308594 421.839844 1160.308594 421.839844 1158.4375 "/>
<path style=" stroke:none;fill-rule:evenodd;fill:rgb(45.098039%,45.098039%,87.058824%);fill-opacity:1;" d="M 421.839844 1181.109375 C 421.839844 1179.238281 419.03125 1179.238281 419.03125 1181.109375 C 419.03125 1182.980469 421.839844 1182.980469 421.839844 1181.109375 "/>
<path style=" stroke:none;fill-rule:evenodd;fill:rgb(45.098039%,45.098039%,87.058824%);fill-opacity:1;" d="M 427.511719 1159.992188 C 427.511719 1158.121094 424.703125 1158.121094 424.703125 1159.992188 C 424.703125 1161.863281 427.511719 1161.863281 427.511719 1159.992188 "/>
<path style=" stroke:none;fill-rule:evenodd;fill:rgb(45.098039%,45.098039%,87.058824%);fill-opacity:1;" d="M 427.511719 1179.554688 C 427.511719 1177.683594 424.703125 1177.683594 424.703125 1179.554688 C 424.703125 1181.425781 427.511719 1181.425781 427.511719 1179.554688 "/>
<path style=" stroke:none;fill-rule:evenodd;fill:rgb(45.098039%,45.098039%,87.058824%);fill-opacity:1;" d="M 431.761719 1164.246094 C 431.761719 1162.375 428.953125 1162.375 428.953125 1164.246094 C 428.953125 1166.121094 431.761719 1166.121094 431.761719 1164.246094 "/>
<path style=" stroke:none;fill-rule:evenodd;fill:rgb(45.098039%,45.098039%,87.058824%);fill-opacity:1;" d="M 431.761719 1175.300781 C 431.761719 1173.425781 428.953125 1173.425781 428.953125 1175.300781 C 428.953125 1177.171875 431.761719 1177.171875 431.761719 1175.300781 "/>
<path style=" stroke:none;fill-rule:evenodd;fill:rgb(45.098039%,45.098039%,87.058824%);fill-opacity:1;" d="M 433.179688 1169.769531 C 433.179688 1167.898438 430.371094 1167.898438 430.371094 1169.769531 C 430.371094 1171.640625 433.179688 1171.640625 433.179688 1169.769531 "/>
<path style=" stroke:none;fill-rule:evenodd;fill:rgb(45.098039%,45.098039%,87.058824%);fill-opacity:1;" d="M 472.867188 1169.769531 C 472.867188 1167.898438 470.058594 1167.898438 470.058594 1169.769531 C 470.058594 1171.640625 472.867188 1171.640625 472.867188 1169.769531 "/>
<path style=" stroke:none;fill-rule:evenodd;fill:rgb(45.098039%,45.098039%,87.058824%);fill-opacity:1;" d="M 474.285156 1164.246094 C 474.285156 1162.375 471.476562 1162.375 471.476562 1164.246094 C 471.476562 1166.121094 474.285156 1166.121094 474.285156 1164.246094 "/>
<path style=" stroke:none;fill-rule:evenodd;fill:rgb(45.098039%,45.098039%,87.058824%);fill-opacity:1;" d="M 474.285156 1175.300781 C 474.285156 1173.425781 471.476562 1173.425781 471.476562 1175.300781 C 471.476562 1177.171875 474.285156 1177.171875 474.285156 1175.300781 "/>
<path style=" stroke:none;fill-rule:evenodd;fill:rgb(45.098039%,45.098039%,87.058824%);fill-opacity:1;" d="M 478.53125 1159.992188 C 478.53125 1158.121094 475.722656 1158.121094 475.722656 1159.992188 C 475.722656 1161.863281 478.53125 1161.863281 478.53125 1159.992188 "/>
<path style=" stroke:none;fill-rule:evenodd;fill:rgb(45.098039%,45.098039%,87.058824%);fill-opacity:1;" d="M 478.53125 1179.554688 C 478.53125 1177.683594 475.722656 1177.683594 475.722656 1179.554688 C 475.722656 1181.425781 478.53125 1181.425781 478.53125 1179.554688 "/>
<path style=" stroke:none;fill-rule:evenodd;fill:rgb(45.098039%,45.098039%,87.058824%);fill-opacity:1;" d="M 484.207031 1158.4375 C 484.207031 1156.566406 481.398438 1156.566406 481.398438 1158.4375 C 481.398438 1160.308594 484.207031 1160.308594 484.207031 1158.4375 "/>
<path style=" stroke:none;fill-rule:evenodd;fill:rgb(45.098039%,45.098039%,87.058824%);fill-opacity:1;" d="M 484.207031 1181.109375 C 484.207031 1179.238281 481.398438 1179.238281 481.398438 1181.109375 C 481.398438 1182.980469 484.207031 1182.980469 484.207031 1181.109375 "/>
<path style=" stroke:none;fill-rule:evenodd;fill:rgb(45.098039%,45.098039%,87.058824%);fill-opacity:1;" d="M 489.871094 1159.992188 C 489.871094 1158.121094 487.0625 1158.121094 487.0625 1159.992188 C 487.0625 1161.863281 489.871094 1161.863281 489.871094 1159.992188 "/>
<path style=" stroke:none;fill-rule:evenodd;fill:rgb(45.098039%,45.098039%,87.058824%);fill-opacity:1;" d="M 489.871094 1179.554688 C 489.871094 1177.683594 487.0625 1177.683594 487.0625 1179.554688 C 487.0625 1181.425781 489.871094 1181.425781 489.871094 1179.554688 "/>
<path style=" stroke:none;fill-rule:evenodd;fill:rgb(45.098039%,45.098039%,87.058824%);fill-opacity:1;" d="M 494.128906 1164.246094 C 494.128906 1162.375 491.320312 1162.375 491.320312 1164.246094 C 491.320312 1166.121094 494.128906 1166.121094 494.128906 1164.246094 "/>
<path style=" stroke:none;fill-rule:evenodd;fill:rgb(45.098039%,45.098039%,87.058824%);fill-opacity:1;" d="M 494.128906 1175.300781 C 494.128906 1173.425781 491.320312 1173.425781 491.320312 1175.300781 C 491.320312 1177.171875 494.128906 1177.171875 494.128906 1175.300781 "/>
<path style=" stroke:none;fill-rule:evenodd;fill:rgb(45.098039%,45.098039%,87.058824%);fill-opacity:1;" d="M 495.539062 1169.769531 C 495.539062 1167.898438 492.730469 1167.898438 492.730469 1169.769531 C 492.730469 1171.640625 495.539062 1171.640625 495.539062 1169.769531 "/>
<path style=" stroke:none;fill-rule:evenodd;fill:rgb(45.098039%,45.098039%,87.058824%);fill-opacity:1;" d="M 397.769531 1124.417969 C 397.769531 1120.625 392.082031 1120.625 392.082031 1124.417969 C 392.082031 1128.210938 397.769531 1128.210938 397.769531 1124.417969 "/>
<path style=" stroke:none;fill-rule:evenodd;fill:rgb(45.098039%,45.098039%,87.058824%);fill-opacity:1;" d="M 397.769531 1135.757812 C 397.769531 1131.964844 392.082031 1131.964844 392.082031 1135.757812 C 392.082031 1139.550781 397.769531 1139.550781 397.769531 1135.757812 "/>
<path style=" stroke:none;fill-rule:evenodd;fill:rgb(45.098039%,45.098039%,87.058824%);fill-opacity:1;" d="M 423.277344 1169.769531 C 423.277344 1165.976562 417.589844 1165.976562 417.589844 1169.769531 C 417.589844 1173.5625 423.277344 1173.5625 423.277344 1169.769531 "/>
<path style=" stroke:none;fill-rule:evenodd;fill:rgb(45.098039%,45.098039%,87.058824%);fill-opacity:1;" d="M 448.796875 1124.417969 C 448.796875 1120.625 443.109375 1120.625 443.109375 1124.417969 C 443.109375 1128.210938 448.796875 1128.210938 448.796875 1124.417969 "/>
<path style=" stroke:none;fill-rule:evenodd;fill:rgb(45.098039%,45.098039%,87.058824%);fill-opacity:1;" d="M 448.796875 1135.757812 C 448.796875 1131.964844 443.109375 1131.964844 443.109375 1135.757812 C 443.109375 1139.550781 448.796875 1139.550781 448.796875 1135.757812 "/>
<path style=" stroke:none;fill-rule:evenodd;fill:rgb(45.098039%,45.098039%,87.058824%);fill-opacity:1;" d="M 460.128906 1124.417969 C 460.128906 1120.625 454.441406 1120.625 454.441406 1124.417969 C 454.441406 1128.210938 460.128906 1128.210938 460.128906 1124.417969 "/>
<path style=" stroke:none;fill-rule:evenodd;fill:rgb(45.098039%,45.098039%,87.058824%);fill-opacity:1;" d="M 460.128906 1135.757812 C 460.128906 1131.964844 454.441406 1131.964844 454.441406 1135.757812 C 454.441406 1139.550781 460.128906 1139.550781 460.128906 1135.757812 "/>
<path style=" stroke:none;fill-rule:evenodd;fill:rgb(45.098039%,45.098039%,87.058824%);fill-opacity:1;" d="M 485.644531 1169.769531 C 485.644531 1165.976562 479.957031 1165.976562 479.957031 1169.769531 C 479.957031 1173.5625 485.644531 1173.5625 485.644531 1169.769531 "/>
<path style=" stroke:none;fill-rule:evenodd;fill:rgb(45.098039%,45.098039%,87.058824%);fill-opacity:1;" d="M 511.15625 1124.417969 C 511.15625 1120.625 505.46875 1120.625 505.46875 1124.417969 C 505.46875 1128.210938 511.15625 1128.210938 511.15625 1124.417969 "/>
<path style=" stroke:none;fill-rule:evenodd;fill:rgb(45.098039%,45.098039%,87.058824%);fill-opacity:1;" d="M 511.15625 1135.757812 C 511.15625 1131.964844 505.46875 1131.964844 505.46875 1135.757812 C 505.46875 1139.550781 511.15625 1139.550781 511.15625 1135.757812 "/>
</g>
</svg>
