G04 This is an RS-274x file exported by *
G04 gerbv version 2.7.0 *
G04 More information is available about gerbv at *
G04 http://gerbv.geda-project.org/ *
G04 --End of header info--*
%MOIN*%
%FSLAX36Y36*%
%IPPOS*%
G04 --Define apertures--*
%ADD10C,0.0040*%
%ADD11C,0.0551*%
%ADD12C,0.0600*%
%ADD13C,0.0945*%
%ADD14C,0.0001*%
%ADD15C,0.0394*%
%ADD16C,0.0380*%
%ADD17C,0.0787*%
%ADD18R,0.0060X0.0060*%
%ADD19C,0.0611*%
%ADD20C,0.0660*%
%ADD21C,0.0960*%
%ADD22C,0.1005*%
%ADD23C,0.0390*%
%ADD24C,0.0790*%
G04 --Start main section--*
G54D10*
G01X5040980Y2656460D02*
G01X5040980Y2696460D01*
G01X5040980Y2656460D02*
G01X5055980Y2676460D01*
G01X5055980Y2676460D02*
G01X5070980Y2656460D01*
G01X5070980Y2656460D02*
G01X5070980Y2696460D01*
G01X5082980Y2674460D02*
G01X5097980Y2674460D01*
G01X5082980Y2696460D02*
G01X5102980Y2696460D01*
G01X5082980Y2656460D02*
G01X5082980Y2696460D01*
G01X5082980Y2656460D02*
G01X5102980Y2656460D01*
G01X5114980Y2656460D02*
G01X5139980Y2656460D01*
G01X5114980Y2696460D02*
G01X5139980Y2656460D01*
G01X5114980Y2696460D02*
G01X5139980Y2696460D01*
G01X5151980Y2661460D02*
G01X5156980Y2656460D01*
G01X5156980Y2656460D02*
G01X5166980Y2656460D01*
G01X5166980Y2656460D02*
G01X5171980Y2661460D01*
G01X5166980Y2696460D02*
G01X5171980Y2691460D01*
G01X5156980Y2696460D02*
G01X5166980Y2696460D01*
G01X5151980Y2691460D02*
G01X5156980Y2696460D01*
G01X5156980Y2674460D02*
G01X5166980Y2674460D01*
G01X5171980Y2661460D02*
G01X5171980Y2669460D01*
G01X5171980Y2679460D02*
G01X5171980Y2691460D01*
G01X5171980Y2679460D02*
G01X5166980Y2674460D01*
G01X5171980Y2669460D02*
G01X5166980Y2674460D01*
G01X0000000Y0000000D02*
G54D11*
G01X6181100Y2338580D03*
G54D12*
G01X6152360Y2462720D03*
G54D11*
G01X6240160Y2279530D03*
G54D12*
G01X6352360Y2577720D03*
G01X6352360Y2462720D03*
G01X6252360Y2477720D03*
G01X6252360Y2562720D03*
G01X6152360Y2577720D03*
G01X6052360Y2562720D03*
G01X6052360Y2477720D03*
G54D13*
G01X6456690Y2675200D03*
G54D11*
G01X6102360Y2360240D03*
G01X5944880Y2202760D03*
G01X6023620Y2338580D03*
G01X5964570Y2279530D03*
G54D13*
G01X6102360Y2202760D03*
G54D11*
G01X6102360Y2045280D03*
G01X6259840Y2202760D03*
G01X6181100Y2066930D03*
G01X6240160Y2125980D03*
G01X6023620Y2066930D03*
G01X5964570Y2125980D03*
G54D12*
G01X5952360Y2462720D03*
G54D13*
G01X6456690Y2832680D03*
G01X5748030Y2832680D03*
G01X5590550Y2832680D03*
G01X4881890Y2832680D03*
G54D12*
G01X5952360Y2577720D03*
G01X5852360Y2562720D03*
G01X5852360Y2477720D03*
G54D13*
G01X5748030Y2675200D03*
G01X5590550Y2675200D03*
G54D12*
G01X5485990Y2577880D03*
G01X5285990Y2577880D03*
G01X5185990Y2562880D03*
G01X5085990Y2577880D03*
G01X4985990Y2562880D03*
G54D13*
G01X4881890Y2675200D03*
G54D12*
G01X5485990Y2462880D03*
G01X5285990Y2462880D03*
G01X5185990Y2477880D03*
G01X5085990Y2462880D03*
G01X4985990Y2477880D03*
G01X5385990Y2477880D03*
G01X5385990Y2562880D03*
G54D13*
G01X5236220Y2202760D03*
G54D11*
G01X5078740Y2202760D03*
G01X5098430Y2279530D03*
G01X5098430Y2125980D03*
G01X5236220Y2045280D03*
G01X5236220Y2360240D03*
G01X5157480Y2338580D03*
G01X5157480Y2066930D03*
G01X5393700Y2202760D03*
G01X5314960Y2066930D03*
G01X5314960Y2338580D03*
G01X5374020Y2125980D03*
G01X5374020Y2279530D03*
G54D14*
G36*
G01X5039760Y2725590D02*
G01X5033460Y2725590D01*
G01X5033460Y2707480D01*
G01X5039760Y2707480D01*
G01X5039760Y2725590D01*
G37*
G36*
G01X5053540Y2725590D02*
G01X5047240Y2725590D01*
G01X5047240Y2707480D01*
G01X5053540Y2707480D01*
G01X5053540Y2725590D01*
G37*
G36*
G01X5067320Y2725590D02*
G01X5061020Y2725590D01*
G01X5061020Y2707480D01*
G01X5067320Y2707480D01*
G01X5067320Y2725590D01*
G37*
G36*
G01X5081100Y2725590D02*
G01X5074800Y2725590D01*
G01X5074800Y2707480D01*
G01X5081100Y2707480D01*
G01X5081100Y2725590D01*
G37*
G36*
G01X5094880Y2725590D02*
G01X5088580Y2725590D01*
G01X5088580Y2707480D01*
G01X5094880Y2707480D01*
G01X5094880Y2725590D01*
G37*
G36*
G01X4992520Y2749210D02*
G01X4978350Y2749210D01*
G01X4978350Y2721260D01*
G01X4992520Y2721260D01*
G01X4992520Y2749210D01*
G37*
G36*
G01X4992520Y2786610D02*
G01X4978350Y2786610D01*
G01X4978350Y2758660D01*
G01X4992520Y2758660D01*
G01X4992520Y2786610D01*
G37*
G36*
G01X5108660Y2725590D02*
G01X5102360Y2725590D01*
G01X5102360Y2707480D01*
G01X5108660Y2707480D01*
G01X5108660Y2725590D01*
G37*
G36*
G01X5122440Y2725590D02*
G01X5116140Y2725590D01*
G01X5116140Y2707480D01*
G01X5122440Y2707480D01*
G01X5122440Y2725590D01*
G37*
G36*
G01X5136220Y2725590D02*
G01X5129920Y2725590D01*
G01X5129920Y2707480D01*
G01X5136220Y2707480D01*
G01X5136220Y2725590D01*
G37*
G36*
G01X5150000Y2725590D02*
G01X5143700Y2725590D01*
G01X5143700Y2707480D01*
G01X5150000Y2707480D01*
G01X5150000Y2725590D01*
G37*
G36*
G01X5163780Y2725590D02*
G01X5157480Y2725590D01*
G01X5157480Y2707480D01*
G01X5163780Y2707480D01*
G01X5163780Y2725590D01*
G37*
G36*
G01X5177560Y2725590D02*
G01X5171260Y2725590D01*
G01X5171260Y2707480D01*
G01X5177560Y2707480D01*
G01X5177560Y2725590D01*
G37*
G36*
G01X5191340Y2725590D02*
G01X5185040Y2725590D01*
G01X5185040Y2707480D01*
G01X5191340Y2707480D01*
G01X5191340Y2725590D01*
G37*
G36*
G01X5205120Y2725590D02*
G01X5198820Y2725590D01*
G01X5198820Y2707480D01*
G01X5205120Y2707480D01*
G01X5205120Y2725590D01*
G37*
G36*
G01X5218900Y2725590D02*
G01X5212600Y2725590D01*
G01X5212600Y2707480D01*
G01X5218900Y2707480D01*
G01X5218900Y2725590D01*
G37*
G36*
G01X5232680Y2725590D02*
G01X5226380Y2725590D01*
G01X5226380Y2707480D01*
G01X5232680Y2707480D01*
G01X5232680Y2725590D01*
G37*
G36*
G01X5246460Y2725590D02*
G01X5240160Y2725590D01*
G01X5240160Y2707480D01*
G01X5246460Y2707480D01*
G01X5246460Y2725590D01*
G37*
G36*
G01X5260240Y2725590D02*
G01X5253940Y2725590D01*
G01X5253940Y2707480D01*
G01X5260240Y2707480D01*
G01X5260240Y2725590D01*
G37*
G36*
G01X5274020Y2725590D02*
G01X5267720Y2725590D01*
G01X5267720Y2707480D01*
G01X5274020Y2707480D01*
G01X5274020Y2725590D01*
G37*
G36*
G01X5287800Y2725590D02*
G01X5281500Y2725590D01*
G01X5281500Y2707480D01*
G01X5287800Y2707480D01*
G01X5287800Y2725590D01*
G37*
G36*
G01X5301570Y2725590D02*
G01X5295280Y2725590D01*
G01X5295280Y2707480D01*
G01X5301570Y2707480D01*
G01X5301570Y2725590D01*
G37*
G36*
G01X5315350Y2725590D02*
G01X5309060Y2725590D01*
G01X5309060Y2707480D01*
G01X5315350Y2707480D01*
G01X5315350Y2725590D01*
G37*
G36*
G01X5329130Y2725590D02*
G01X5322830Y2725590D01*
G01X5322830Y2707480D01*
G01X5329130Y2707480D01*
G01X5329130Y2725590D01*
G37*
G36*
G01X5342910Y2725590D02*
G01X5336610Y2725590D01*
G01X5336610Y2707480D01*
G01X5342910Y2707480D01*
G01X5342910Y2725590D01*
G37*
G36*
G01X5356690Y2725590D02*
G01X5350390Y2725590D01*
G01X5350390Y2707480D01*
G01X5356690Y2707480D01*
G01X5356690Y2725590D01*
G37*
G36*
G01X5370470Y2725590D02*
G01X5364170Y2725590D01*
G01X5364170Y2707480D01*
G01X5370470Y2707480D01*
G01X5370470Y2725590D01*
G37*
G36*
G01X5384250Y2725590D02*
G01X5377950Y2725590D01*
G01X5377950Y2707480D01*
G01X5384250Y2707480D01*
G01X5384250Y2725590D01*
G37*
G36*
G01X5398030Y2725590D02*
G01X5391730Y2725590D01*
G01X5391730Y2707480D01*
G01X5398030Y2707480D01*
G01X5398030Y2725590D01*
G37*
G36*
G01X5411810Y2725590D02*
G01X5405510Y2725590D01*
G01X5405510Y2707480D01*
G01X5411810Y2707480D01*
G01X5411810Y2725590D01*
G37*
G36*
G01X5425590Y2725590D02*
G01X5419290Y2725590D01*
G01X5419290Y2707480D01*
G01X5425590Y2707480D01*
G01X5425590Y2725590D01*
G37*
G36*
G01X5439370Y2725590D02*
G01X5433070Y2725590D01*
G01X5433070Y2707480D01*
G01X5439370Y2707480D01*
G01X5439370Y2725590D01*
G37*
G36*
G01X5494490Y2749210D02*
G01X5480310Y2749210D01*
G01X5480310Y2721260D01*
G01X5494490Y2721260D01*
G01X5494490Y2749210D01*
G37*
G36*
G01X5039760Y2802360D02*
G01X5033460Y2802360D01*
G01X5033460Y2784250D01*
G01X5039760Y2784250D01*
G01X5039760Y2802360D01*
G37*
G36*
G01X5053540Y2802360D02*
G01X5047240Y2802360D01*
G01X5047240Y2784250D01*
G01X5053540Y2784250D01*
G01X5053540Y2802360D01*
G37*
G36*
G01X5067320Y2802360D02*
G01X5061020Y2802360D01*
G01X5061020Y2784250D01*
G01X5067320Y2784250D01*
G01X5067320Y2802360D01*
G37*
G36*
G01X5081100Y2802360D02*
G01X5074800Y2802360D01*
G01X5074800Y2784250D01*
G01X5081100Y2784250D01*
G01X5081100Y2802360D01*
G37*
G36*
G01X5094880Y2802360D02*
G01X5088580Y2802360D01*
G01X5088580Y2784250D01*
G01X5094880Y2784250D01*
G01X5094880Y2802360D01*
G37*
G36*
G01X5108660Y2802360D02*
G01X5102360Y2802360D01*
G01X5102360Y2784250D01*
G01X5108660Y2784250D01*
G01X5108660Y2802360D01*
G37*
G36*
G01X5122440Y2802360D02*
G01X5116140Y2802360D01*
G01X5116140Y2784250D01*
G01X5122440Y2784250D01*
G01X5122440Y2802360D01*
G37*
G36*
G01X5136220Y2802360D02*
G01X5129920Y2802360D01*
G01X5129920Y2784250D01*
G01X5136220Y2784250D01*
G01X5136220Y2802360D01*
G37*
G36*
G01X5150000Y2802360D02*
G01X5143700Y2802360D01*
G01X5143700Y2784250D01*
G01X5150000Y2784250D01*
G01X5150000Y2802360D01*
G37*
G36*
G01X5163780Y2802360D02*
G01X5157480Y2802360D01*
G01X5157480Y2784250D01*
G01X5163780Y2784250D01*
G01X5163780Y2802360D01*
G37*
G36*
G01X5177560Y2802360D02*
G01X5171260Y2802360D01*
G01X5171260Y2784250D01*
G01X5177560Y2784250D01*
G01X5177560Y2802360D01*
G37*
G36*
G01X5191340Y2802360D02*
G01X5185040Y2802360D01*
G01X5185040Y2784250D01*
G01X5191340Y2784250D01*
G01X5191340Y2802360D01*
G37*
G36*
G01X5205120Y2802360D02*
G01X5198820Y2802360D01*
G01X5198820Y2784250D01*
G01X5205120Y2784250D01*
G01X5205120Y2802360D01*
G37*
G36*
G01X5218900Y2802360D02*
G01X5212600Y2802360D01*
G01X5212600Y2784250D01*
G01X5218900Y2784250D01*
G01X5218900Y2802360D01*
G37*
G36*
G01X5232680Y2802360D02*
G01X5226380Y2802360D01*
G01X5226380Y2784250D01*
G01X5232680Y2784250D01*
G01X5232680Y2802360D01*
G37*
G36*
G01X5246460Y2802360D02*
G01X5240160Y2802360D01*
G01X5240160Y2784250D01*
G01X5246460Y2784250D01*
G01X5246460Y2802360D01*
G37*
G36*
G01X5260240Y2802360D02*
G01X5253940Y2802360D01*
G01X5253940Y2784250D01*
G01X5260240Y2784250D01*
G01X5260240Y2802360D01*
G37*
G36*
G01X5274020Y2802360D02*
G01X5267720Y2802360D01*
G01X5267720Y2784250D01*
G01X5274020Y2784250D01*
G01X5274020Y2802360D01*
G37*
G36*
G01X5287800Y2802360D02*
G01X5281500Y2802360D01*
G01X5281500Y2784250D01*
G01X5287800Y2784250D01*
G01X5287800Y2802360D01*
G37*
G36*
G01X5301570Y2802360D02*
G01X5295280Y2802360D01*
G01X5295280Y2784250D01*
G01X5301570Y2784250D01*
G01X5301570Y2802360D01*
G37*
G36*
G01X5315350Y2802360D02*
G01X5309060Y2802360D01*
G01X5309060Y2784250D01*
G01X5315350Y2784250D01*
G01X5315350Y2802360D01*
G37*
G36*
G01X5329130Y2802360D02*
G01X5322830Y2802360D01*
G01X5322830Y2784250D01*
G01X5329130Y2784250D01*
G01X5329130Y2802360D01*
G37*
G36*
G01X5342910Y2802360D02*
G01X5336610Y2802360D01*
G01X5336610Y2784250D01*
G01X5342910Y2784250D01*
G01X5342910Y2802360D01*
G37*
G36*
G01X5356690Y2802360D02*
G01X5350390Y2802360D01*
G01X5350390Y2784250D01*
G01X5356690Y2784250D01*
G01X5356690Y2802360D01*
G37*
G36*
G01X5370470Y2802360D02*
G01X5364170Y2802360D01*
G01X5364170Y2784250D01*
G01X5370470Y2784250D01*
G01X5370470Y2802360D01*
G37*
G36*
G01X5384250Y2802360D02*
G01X5377950Y2802360D01*
G01X5377950Y2784250D01*
G01X5384250Y2784250D01*
G01X5384250Y2802360D01*
G37*
G36*
G01X5398030Y2802360D02*
G01X5391730Y2802360D01*
G01X5391730Y2784250D01*
G01X5398030Y2784250D01*
G01X5398030Y2802360D01*
G37*
G36*
G01X5411810Y2802360D02*
G01X5405510Y2802360D01*
G01X5405510Y2784250D01*
G01X5411810Y2784250D01*
G01X5411810Y2802360D01*
G37*
G36*
G01X5425590Y2802360D02*
G01X5419290Y2802360D01*
G01X5419290Y2784250D01*
G01X5425590Y2784250D01*
G01X5425590Y2802360D01*
G37*
G36*
G01X5439370Y2802360D02*
G01X5433070Y2802360D01*
G01X5433070Y2784250D01*
G01X5439370Y2784250D01*
G01X5439370Y2802360D01*
G37*
G36*
G01X5494490Y2786610D02*
G01X5480310Y2786610D01*
G01X5480310Y2758660D01*
G01X5494490Y2758660D01*
G01X5494490Y2786610D01*
G37*
G01X0000000Y0000000D02*
G54D18*
G01X0000000Y18000000D02*
G01X0000000Y0000000D01*
G01X0000000Y18000000D02*
G01X24000000Y18000000D01*
G01X0000000Y0000000D02*
G01X24000000Y0000000D01*
G01X24000000Y18000000D02*
G01X24000000Y0000000D01*
G01X0000000Y0000000D02*
G54D19*
G01X6181100Y2338580D03*
G54D20*
G01X6152360Y2462720D03*
G54D19*
G01X6240160Y2279530D03*
G54D20*
G01X6352360Y2577720D03*
G01X6352360Y2462720D03*
G01X6252360Y2477720D03*
G01X6252360Y2562720D03*
G01X6152360Y2577720D03*
G01X6052360Y2562720D03*
G01X6052360Y2477720D03*
G54D21*
G01X6456690Y2675200D03*
G54D19*
G01X6102360Y2360240D03*
G01X5944880Y2202760D03*
G01X6023620Y2338580D03*
G01X5964570Y2279530D03*
G54D22*
G01X6102360Y2202760D03*
G54D19*
G01X6102360Y2045280D03*
G01X6259840Y2202760D03*
G01X6181100Y2066930D03*
G01X6240160Y2125980D03*
G01X6023620Y2066930D03*
G01X5964570Y2125980D03*
G54D20*
G01X5952360Y2462720D03*
G54D21*
G01X6456690Y2832680D03*
G01X5748030Y2832680D03*
G01X5590550Y2832680D03*
G01X4881890Y2832680D03*
G54D20*
G01X5952360Y2577720D03*
G01X5852360Y2562720D03*
G01X5852360Y2477720D03*
G54D21*
G01X5748030Y2675200D03*
G01X5590550Y2675200D03*
G54D20*
G01X5485990Y2577880D03*
G01X5285990Y2577880D03*
G01X5185990Y2562880D03*
G01X5085990Y2577880D03*
G01X4985990Y2562880D03*
G54D21*
G01X4881890Y2675200D03*
G54D20*
G01X5485990Y2462880D03*
G01X5285990Y2462880D03*
G01X5185990Y2477880D03*
G01X5085990Y2462880D03*
G01X4985990Y2477880D03*
G01X5385990Y2477880D03*
G01X5385990Y2562880D03*
G54D22*
G01X5236220Y2202760D03*
G54D19*
G01X5078740Y2202760D03*
G01X5098430Y2279530D03*
G01X5098430Y2125980D03*
G01X5236220Y2045280D03*
G01X5236220Y2360240D03*
G01X5157480Y2338580D03*
G01X5157480Y2066930D03*
G01X5393700Y2202760D03*
G01X5314960Y2066930D03*
G01X5314960Y2338580D03*
G01X5374020Y2125980D03*
G01X5374020Y2279530D03*
G54D14*
G36*
G01X5049760Y2735590D02*
G01X5023460Y2735590D01*
G01X5023460Y2697480D01*
G01X5049760Y2697480D01*
G01X5049760Y2735590D01*
G37*
G36*
G01X5063540Y2735590D02*
G01X5037240Y2735590D01*
G01X5037240Y2697480D01*
G01X5063540Y2697480D01*
G01X5063540Y2735590D01*
G37*
G36*
G01X5077320Y2735590D02*
G01X5051020Y2735590D01*
G01X5051020Y2697480D01*
G01X5077320Y2697480D01*
G01X5077320Y2735590D01*
G37*
G36*
G01X5091100Y2735590D02*
G01X5064800Y2735590D01*
G01X5064800Y2697480D01*
G01X5091100Y2697480D01*
G01X5091100Y2735590D01*
G37*
G36*
G01X5104880Y2735590D02*
G01X5078580Y2735590D01*
G01X5078580Y2697480D01*
G01X5104880Y2697480D01*
G01X5104880Y2735590D01*
G37*
G36*
G01X5002520Y2759210D02*
G01X4968350Y2759210D01*
G01X4968350Y2711260D01*
G01X5002520Y2711260D01*
G01X5002520Y2759210D01*
G37*
G36*
G01X5002520Y2796610D02*
G01X4968350Y2796610D01*
G01X4968350Y2748660D01*
G01X5002520Y2748660D01*
G01X5002520Y2796610D01*
G37*
G36*
G01X5118660Y2735590D02*
G01X5092360Y2735590D01*
G01X5092360Y2697480D01*
G01X5118660Y2697480D01*
G01X5118660Y2735590D01*
G37*
G36*
G01X5132440Y2735590D02*
G01X5106140Y2735590D01*
G01X5106140Y2697480D01*
G01X5132440Y2697480D01*
G01X5132440Y2735590D01*
G37*
G36*
G01X5146220Y2735590D02*
G01X5119920Y2735590D01*
G01X5119920Y2697480D01*
G01X5146220Y2697480D01*
G01X5146220Y2735590D01*
G37*
G36*
G01X5160000Y2735590D02*
G01X5133700Y2735590D01*
G01X5133700Y2697480D01*
G01X5160000Y2697480D01*
G01X5160000Y2735590D01*
G37*
G36*
G01X5173780Y2735590D02*
G01X5147480Y2735590D01*
G01X5147480Y2697480D01*
G01X5173780Y2697480D01*
G01X5173780Y2735590D01*
G37*
G36*
G01X5187560Y2735590D02*
G01X5161260Y2735590D01*
G01X5161260Y2697480D01*
G01X5187560Y2697480D01*
G01X5187560Y2735590D01*
G37*
G36*
G01X5201340Y2735590D02*
G01X5175040Y2735590D01*
G01X5175040Y2697480D01*
G01X5201340Y2697480D01*
G01X5201340Y2735590D01*
G37*
G36*
G01X5215120Y2735590D02*
G01X5188820Y2735590D01*
G01X5188820Y2697480D01*
G01X5215120Y2697480D01*
G01X5215120Y2735590D01*
G37*
G36*
G01X5228900Y2735590D02*
G01X5202600Y2735590D01*
G01X5202600Y2697480D01*
G01X5228900Y2697480D01*
G01X5228900Y2735590D01*
G37*
G36*
G01X5242680Y2735590D02*
G01X5216380Y2735590D01*
G01X5216380Y2697480D01*
G01X5242680Y2697480D01*
G01X5242680Y2735590D01*
G37*
G36*
G01X5256460Y2735590D02*
G01X5230160Y2735590D01*
G01X5230160Y2697480D01*
G01X5256460Y2697480D01*
G01X5256460Y2735590D01*
G37*
G36*
G01X5270240Y2735590D02*
G01X5243940Y2735590D01*
G01X5243940Y2697480D01*
G01X5270240Y2697480D01*
G01X5270240Y2735590D01*
G37*
G36*
G01X5284020Y2735590D02*
G01X5257720Y2735590D01*
G01X5257720Y2697480D01*
G01X5284020Y2697480D01*
G01X5284020Y2735590D01*
G37*
G36*
G01X5297800Y2735590D02*
G01X5271500Y2735590D01*
G01X5271500Y2697480D01*
G01X5297800Y2697480D01*
G01X5297800Y2735590D01*
G37*
G36*
G01X5311570Y2735590D02*
G01X5285280Y2735590D01*
G01X5285280Y2697480D01*
G01X5311570Y2697480D01*
G01X5311570Y2735590D01*
G37*
G36*
G01X5325350Y2735590D02*
G01X5299060Y2735590D01*
G01X5299060Y2697480D01*
G01X5325350Y2697480D01*
G01X5325350Y2735590D01*
G37*
G36*
G01X5339130Y2735590D02*
G01X5312830Y2735590D01*
G01X5312830Y2697480D01*
G01X5339130Y2697480D01*
G01X5339130Y2735590D01*
G37*
G36*
G01X5352910Y2735590D02*
G01X5326610Y2735590D01*
G01X5326610Y2697480D01*
G01X5352910Y2697480D01*
G01X5352910Y2735590D01*
G37*
G36*
G01X5366690Y2735590D02*
G01X5340390Y2735590D01*
G01X5340390Y2697480D01*
G01X5366690Y2697480D01*
G01X5366690Y2735590D01*
G37*
G36*
G01X5380470Y2735590D02*
G01X5354170Y2735590D01*
G01X5354170Y2697480D01*
G01X5380470Y2697480D01*
G01X5380470Y2735590D01*
G37*
G36*
G01X5394250Y2735590D02*
G01X5367950Y2735590D01*
G01X5367950Y2697480D01*
G01X5394250Y2697480D01*
G01X5394250Y2735590D01*
G37*
G36*
G01X5408030Y2735590D02*
G01X5381730Y2735590D01*
G01X5381730Y2697480D01*
G01X5408030Y2697480D01*
G01X5408030Y2735590D01*
G37*
G36*
G01X5421810Y2735590D02*
G01X5395510Y2735590D01*
G01X5395510Y2697480D01*
G01X5421810Y2697480D01*
G01X5421810Y2735590D01*
G37*
G36*
G01X5435590Y2735590D02*
G01X5409290Y2735590D01*
G01X5409290Y2697480D01*
G01X5435590Y2697480D01*
G01X5435590Y2735590D01*
G37*
G36*
G01X5449370Y2735590D02*
G01X5423070Y2735590D01*
G01X5423070Y2697480D01*
G01X5449370Y2697480D01*
G01X5449370Y2735590D01*
G37*
G36*
G01X5504490Y2759210D02*
G01X5470310Y2759210D01*
G01X5470310Y2711260D01*
G01X5504490Y2711260D01*
G01X5504490Y2759210D01*
G37*
G36*
G01X5049760Y2812360D02*
G01X5023460Y2812360D01*
G01X5023460Y2774250D01*
G01X5049760Y2774250D01*
G01X5049760Y2812360D01*
G37*
G36*
G01X5063540Y2812360D02*
G01X5037240Y2812360D01*
G01X5037240Y2774250D01*
G01X5063540Y2774250D01*
G01X5063540Y2812360D01*
G37*
G36*
G01X5077320Y2812360D02*
G01X5051020Y2812360D01*
G01X5051020Y2774250D01*
G01X5077320Y2774250D01*
G01X5077320Y2812360D01*
G37*
G36*
G01X5091100Y2812360D02*
G01X5064800Y2812360D01*
G01X5064800Y2774250D01*
G01X5091100Y2774250D01*
G01X5091100Y2812360D01*
G37*
G36*
G01X5104880Y2812360D02*
G01X5078580Y2812360D01*
G01X5078580Y2774250D01*
G01X5104880Y2774250D01*
G01X5104880Y2812360D01*
G37*
G36*
G01X5118660Y2812360D02*
G01X5092360Y2812360D01*
G01X5092360Y2774250D01*
G01X5118660Y2774250D01*
G01X5118660Y2812360D01*
G37*
G36*
G01X5132440Y2812360D02*
G01X5106140Y2812360D01*
G01X5106140Y2774250D01*
G01X5132440Y2774250D01*
G01X5132440Y2812360D01*
G37*
G36*
G01X5146220Y2812360D02*
G01X5119920Y2812360D01*
G01X5119920Y2774250D01*
G01X5146220Y2774250D01*
G01X5146220Y2812360D01*
G37*
G36*
G01X5160000Y2812360D02*
G01X5133700Y2812360D01*
G01X5133700Y2774250D01*
G01X5160000Y2774250D01*
G01X5160000Y2812360D01*
G37*
G36*
G01X5173780Y2812360D02*
G01X5147480Y2812360D01*
G01X5147480Y2774250D01*
G01X5173780Y2774250D01*
G01X5173780Y2812360D01*
G37*
G36*
G01X5187560Y2812360D02*
G01X5161260Y2812360D01*
G01X5161260Y2774250D01*
G01X5187560Y2774250D01*
G01X5187560Y2812360D01*
G37*
G36*
G01X5201340Y2812360D02*
G01X5175040Y2812360D01*
G01X5175040Y2774250D01*
G01X5201340Y2774250D01*
G01X5201340Y2812360D01*
G37*
G36*
G01X5215120Y2812360D02*
G01X5188820Y2812360D01*
G01X5188820Y2774250D01*
G01X5215120Y2774250D01*
G01X5215120Y2812360D01*
G37*
G36*
G01X5228900Y2812360D02*
G01X5202600Y2812360D01*
G01X5202600Y2774250D01*
G01X5228900Y2774250D01*
G01X5228900Y2812360D01*
G37*
G36*
G01X5242680Y2812360D02*
G01X5216380Y2812360D01*
G01X5216380Y2774250D01*
G01X5242680Y2774250D01*
G01X5242680Y2812360D01*
G37*
G36*
G01X5256460Y2812360D02*
G01X5230160Y2812360D01*
G01X5230160Y2774250D01*
G01X5256460Y2774250D01*
G01X5256460Y2812360D01*
G37*
G36*
G01X5270240Y2812360D02*
G01X5243940Y2812360D01*
G01X5243940Y2774250D01*
G01X5270240Y2774250D01*
G01X5270240Y2812360D01*
G37*
G36*
G01X5284020Y2812360D02*
G01X5257720Y2812360D01*
G01X5257720Y2774250D01*
G01X5284020Y2774250D01*
G01X5284020Y2812360D01*
G37*
G36*
G01X5297800Y2812360D02*
G01X5271500Y2812360D01*
G01X5271500Y2774250D01*
G01X5297800Y2774250D01*
G01X5297800Y2812360D01*
G37*
G36*
G01X5311570Y2812360D02*
G01X5285280Y2812360D01*
G01X5285280Y2774250D01*
G01X5311570Y2774250D01*
G01X5311570Y2812360D01*
G37*
G36*
G01X5325350Y2812360D02*
G01X5299060Y2812360D01*
G01X5299060Y2774250D01*
G01X5325350Y2774250D01*
G01X5325350Y2812360D01*
G37*
G36*
G01X5339130Y2812360D02*
G01X5312830Y2812360D01*
G01X5312830Y2774250D01*
G01X5339130Y2774250D01*
G01X5339130Y2812360D01*
G37*
G36*
G01X5352910Y2812360D02*
G01X5326610Y2812360D01*
G01X5326610Y2774250D01*
G01X5352910Y2774250D01*
G01X5352910Y2812360D01*
G37*
G36*
G01X5366690Y2812360D02*
G01X5340390Y2812360D01*
G01X5340390Y2774250D01*
G01X5366690Y2774250D01*
G01X5366690Y2812360D01*
G37*
G36*
G01X5380470Y2812360D02*
G01X5354170Y2812360D01*
G01X5354170Y2774250D01*
G01X5380470Y2774250D01*
G01X5380470Y2812360D01*
G37*
G36*
G01X5394250Y2812360D02*
G01X5367950Y2812360D01*
G01X5367950Y2774250D01*
G01X5394250Y2774250D01*
G01X5394250Y2812360D01*
G37*
G36*
G01X5408030Y2812360D02*
G01X5381730Y2812360D01*
G01X5381730Y2774250D01*
G01X5408030Y2774250D01*
G01X5408030Y2812360D01*
G37*
G36*
G01X5421810Y2812360D02*
G01X5395510Y2812360D01*
G01X5395510Y2774250D01*
G01X5421810Y2774250D01*
G01X5421810Y2812360D01*
G37*
G36*
G01X5435590Y2812360D02*
G01X5409290Y2812360D01*
G01X5409290Y2774250D01*
G01X5435590Y2774250D01*
G01X5435590Y2812360D01*
G37*
G36*
G01X5449370Y2812360D02*
G01X5423070Y2812360D01*
G01X5423070Y2774250D01*
G01X5449370Y2774250D01*
G01X5449370Y2812360D01*
G37*
G36*
G01X5504490Y2796610D02*
G01X5470310Y2796610D01*
G01X5470310Y2748660D01*
G01X5504490Y2748660D01*
G01X5504490Y2796610D01*
G37*
G01X0000000Y0000000D02*
G54D16*
G01X4986000Y2562900D03*
G01X4986000Y2477900D03*
G01X5086000Y2577900D03*
G01X5086000Y2462900D03*
G01X5186000Y2562900D03*
G01X5186000Y2477900D03*
G01X5286000Y2577900D03*
G01X5286000Y2462900D03*
G01X5386000Y2562900D03*
G01X5386000Y2477900D03*
G01X5486000Y2577900D03*
G01X5486000Y2462900D03*
G01X5852400Y2562700D03*
G01X5852400Y2477700D03*
G01X5952400Y2577700D03*
G01X5952400Y2462700D03*
G01X6052400Y2562700D03*
G01X6052400Y2477700D03*
G01X6152400Y2577700D03*
G01X6152400Y2462700D03*
G01X6252400Y2562700D03*
G01X6252400Y2477700D03*
G01X6352400Y2577700D03*
G01X6352400Y2462700D03*
G54D23*
G01X5078700Y2202800D03*
G01X5098400Y2279500D03*
G01X5098400Y2126000D03*
G01X5157500Y2338600D03*
G01X5157500Y2066900D03*
G01X5236200Y2360200D03*
G01X5236200Y2045300D03*
G01X5315000Y2338600D03*
G01X5315000Y2066900D03*
G01X5374000Y2279500D03*
G01X5374000Y2126000D03*
G01X5393700Y2202800D03*
G01X5944900Y2202800D03*
G01X5964600Y2279500D03*
G01X5964600Y2126000D03*
G01X6023600Y2338600D03*
G01X6023600Y2066900D03*
G01X6102400Y2360200D03*
G01X6102400Y2045300D03*
G01X6181100Y2338600D03*
G01X6181100Y2066900D03*
G01X6240200Y2279500D03*
G01X6240200Y2126000D03*
G01X6259800Y2202800D03*
G54D24*
G01X4881900Y2832700D03*
G01X4881900Y2675200D03*
G01X5236200Y2202800D03*
G01X5590600Y2832700D03*
G01X5590600Y2675200D03*
G01X5748000Y2832700D03*
G01X5748000Y2675200D03*
G01X6102400Y2202800D03*
G01X6456700Y2832700D03*
G01X6456700Y2675200D03*
M02*
