<?xml version="1.0" encoding="UTF-8"?>
<svg xmlns="http://www.w3.org/2000/svg" xmlns:xlink="http://www.w3.org/1999/xlink" width="1814pt" height="1361pt" viewBox="0 0 1814 1361" version="1.1">
<g id="surface1">
<path style=" stroke:none;fill-rule:evenodd;fill:rgb(0%,76.470588%,76.470588%);fill-opacity:1;" d="M 490.453125 1159.992188 C 490.453125 1157.347656 486.484375 1157.347656 486.484375 1159.992188 C 486.484375 1162.636719 490.453125 1162.636719 490.453125 1159.992188 "/>
<path style=" stroke:none;fill-rule:evenodd;fill:rgb(0%,76.470588%,76.470588%);fill-opacity:1;" d="M 488.558594 1151.054688 C 488.558594 1148.175781 484.238281 1148.175781 484.238281 1151.054688 C 484.238281 1153.9375 488.558594 1153.9375 488.558594 1151.054688 "/>
<path style=" stroke:none;fill-rule:evenodd;fill:rgb(0%,76.470588%,76.470588%);fill-opacity:1;" d="M 494.703125 1164.246094 C 494.703125 1161.601562 490.738281 1161.601562 490.738281 1164.246094 C 490.738281 1166.890625 494.703125 1166.890625 494.703125 1164.246094 "/>
<path style=" stroke:none;fill-rule:evenodd;fill:rgb(0%,76.470588%,76.470588%);fill-opacity:1;" d="M 502.957031 1142.777344 C 502.957031 1139.894531 498.636719 1139.894531 498.636719 1142.777344 C 498.636719 1145.65625 502.957031 1145.65625 502.957031 1142.777344 "/>
<path style=" stroke:none;fill-rule:evenodd;fill:rgb(0%,76.470588%,76.470588%);fill-opacity:1;" d="M 502.957031 1151.054688 C 502.957031 1148.175781 498.636719 1148.175781 498.636719 1151.054688 C 498.636719 1153.9375 502.957031 1153.9375 502.957031 1151.054688 "/>
<path style=" stroke:none;fill-rule:evenodd;fill:rgb(0%,76.470588%,76.470588%);fill-opacity:1;" d="M 495.757812 1149.976562 C 495.757812 1147.09375 491.4375 1147.09375 491.4375 1149.976562 C 491.4375 1152.855469 495.757812 1152.855469 495.757812 1149.976562 "/>
<path style=" stroke:none;fill-rule:evenodd;fill:rgb(0%,76.470588%,76.470588%);fill-opacity:1;" d="M 495.757812 1143.855469 C 495.757812 1140.976562 491.4375 1140.976562 491.4375 1143.855469 C 491.4375 1146.734375 495.757812 1146.734375 495.757812 1143.855469 "/>
<path style=" stroke:none;fill-rule:evenodd;fill:rgb(0%,76.470588%,76.470588%);fill-opacity:1;" d="M 488.558594 1142.777344 C 488.558594 1139.894531 484.238281 1139.894531 484.238281 1142.777344 C 484.238281 1145.65625 488.558594 1145.65625 488.558594 1142.777344 "/>
<path style=" stroke:none;fill-rule:evenodd;fill:rgb(0%,76.470588%,76.470588%);fill-opacity:1;" d="M 481.359375 1143.855469 C 481.359375 1140.976562 477.039062 1140.976562 477.039062 1143.855469 C 477.039062 1146.734375 481.359375 1146.734375 481.359375 1143.855469 "/>
<path style=" stroke:none;fill-rule:evenodd;fill:rgb(0%,76.470588%,76.470588%);fill-opacity:1;" d="M 481.359375 1149.976562 C 481.359375 1147.09375 477.039062 1147.09375 477.039062 1149.976562 C 477.039062 1152.855469 481.359375 1152.855469 481.359375 1149.976562 "/>
<path style=" stroke:none;fill-rule:evenodd;fill:rgb(0%,76.470588%,76.470588%);fill-opacity:1;" d="M 511.710938 1135.757812 C 511.710938 1131.222656 504.910156 1131.222656 504.910156 1135.757812 C 504.910156 1140.292969 511.710938 1140.292969 511.710938 1135.757812 "/>
<path style=" stroke:none;fill-rule:evenodd;fill:rgb(0%,76.470588%,76.470588%);fill-opacity:1;" d="M 484.78125 1158.433594 C 484.78125 1155.789062 480.816406 1155.789062 480.816406 1158.433594 C 480.816406 1161.078125 484.78125 1161.078125 484.78125 1158.433594 "/>
<path style=" stroke:none;fill-rule:evenodd;fill:rgb(0%,76.470588%,76.470588%);fill-opacity:1;" d="M 473.445312 1169.773438 C 473.445312 1167.128906 469.476562 1167.128906 469.476562 1169.773438 C 469.476562 1172.417969 473.445312 1172.417969 473.445312 1169.773438 "/>
<path style=" stroke:none;fill-rule:evenodd;fill:rgb(0%,76.470588%,76.470588%);fill-opacity:1;" d="M 479.113281 1159.992188 C 479.113281 1157.347656 475.144531 1157.347656 475.144531 1159.992188 C 475.144531 1162.636719 479.113281 1162.636719 479.113281 1159.992188 "/>
<path style=" stroke:none;fill-rule:evenodd;fill:rgb(0%,76.470588%,76.470588%);fill-opacity:1;" d="M 474.859375 1164.246094 C 474.859375 1161.601562 470.894531 1161.601562 470.894531 1164.246094 C 470.894531 1166.890625 474.859375 1166.890625 474.859375 1164.246094 "/>
<path style=" stroke:none;fill-rule:evenodd;fill:rgb(0%,76.470588%,76.470588%);fill-opacity:1;" d="M 486.199219 1169.773438 C 486.199219 1165.238281 479.398438 1165.238281 479.398438 1169.773438 C 479.398438 1174.308594 486.199219 1174.308594 486.199219 1169.773438 "/>
<path style=" stroke:none;fill-rule:evenodd;fill:rgb(0%,76.470588%,76.470588%);fill-opacity:1;" d="M 484.78125 1181.109375 C 484.78125 1178.464844 480.816406 1178.464844 480.816406 1181.109375 C 480.816406 1183.757812 484.78125 1183.757812 484.78125 1181.109375 "/>
<path style=" stroke:none;fill-rule:evenodd;fill:rgb(0%,76.470588%,76.470588%);fill-opacity:1;" d="M 496.121094 1169.773438 C 496.121094 1167.128906 492.152344 1167.128906 492.152344 1169.773438 C 492.152344 1172.417969 496.121094 1172.417969 496.121094 1169.773438 "/>
<path style=" stroke:none;fill-rule:evenodd;fill:rgb(0%,76.470588%,76.470588%);fill-opacity:1;" d="M 490.453125 1179.550781 C 490.453125 1176.90625 486.484375 1176.90625 486.484375 1179.550781 C 486.484375 1182.195312 490.453125 1182.195312 490.453125 1179.550781 "/>
<path style=" stroke:none;fill-rule:evenodd;fill:rgb(0%,76.470588%,76.470588%);fill-opacity:1;" d="M 494.703125 1175.300781 C 494.703125 1172.65625 490.738281 1172.65625 490.738281 1175.300781 C 490.738281 1177.945312 494.703125 1177.945312 494.703125 1175.300781 "/>
<path style=" stroke:none;fill-rule:evenodd;fill:rgb(0%,76.470588%,76.470588%);fill-opacity:1;" d="M 479.113281 1179.550781 C 479.113281 1176.90625 475.144531 1176.90625 475.144531 1179.550781 C 475.144531 1182.195312 479.113281 1182.195312 479.113281 1179.550781 "/>
<path style=" stroke:none;fill-rule:evenodd;fill:rgb(0%,76.470588%,76.470588%);fill-opacity:1;" d="M 474.859375 1175.300781 C 474.859375 1172.65625 470.894531 1172.65625 470.894531 1175.300781 C 470.894531 1177.945312 474.859375 1177.945312 474.859375 1175.300781 "/>
<path style=" stroke:none;fill-rule:evenodd;fill:rgb(0%,76.470588%,76.470588%);fill-opacity:1;" d="M 474.160156 1151.054688 C 474.160156 1148.175781 469.839844 1148.175781 469.839844 1151.054688 C 469.839844 1153.9375 474.160156 1153.9375 474.160156 1151.054688 "/>
<path style=" stroke:none;fill-rule:evenodd;fill:rgb(0%,76.470588%,76.470588%);fill-opacity:1;" d="M 511.710938 1124.417969 C 511.710938 1119.882812 504.910156 1119.882812 504.910156 1124.417969 C 504.910156 1128.953125 511.710938 1128.953125 511.710938 1124.417969 "/>
<path style=" stroke:none;fill-rule:evenodd;fill:rgb(0%,76.470588%,76.470588%);fill-opacity:1;" d="M 460.6875 1124.417969 C 460.6875 1119.882812 453.882812 1119.882812 453.882812 1124.417969 C 453.882812 1128.953125 460.6875 1128.953125 460.6875 1124.417969 "/>
<path style=" stroke:none;fill-rule:evenodd;fill:rgb(0%,76.470588%,76.470588%);fill-opacity:1;" d="M 449.351562 1124.417969 C 449.351562 1119.882812 442.546875 1119.882812 442.546875 1124.417969 C 442.546875 1128.953125 449.351562 1128.953125 449.351562 1124.417969 "/>
<path style=" stroke:none;fill-rule:evenodd;fill:rgb(0%,76.470588%,76.470588%);fill-opacity:1;" d="M 398.328125 1124.417969 C 398.328125 1119.882812 391.523438 1119.882812 391.523438 1124.417969 C 391.523438 1128.953125 398.328125 1128.953125 398.328125 1124.417969 "/>
<path style=" stroke:none;fill-rule:evenodd;fill:rgb(0%,76.470588%,76.470588%);fill-opacity:1;" d="M 474.160156 1142.777344 C 474.160156 1139.894531 469.839844 1139.894531 469.839844 1142.777344 C 469.839844 1145.65625 474.160156 1145.65625 474.160156 1142.777344 "/>
<path style=" stroke:none;fill-rule:evenodd;fill:rgb(0%,76.470588%,76.470588%);fill-opacity:1;" d="M 466.957031 1143.855469 C 466.957031 1140.976562 462.636719 1140.976562 462.636719 1143.855469 C 462.636719 1146.734375 466.957031 1146.734375 466.957031 1143.855469 "/>
<path style=" stroke:none;fill-rule:evenodd;fill:rgb(0%,76.470588%,76.470588%);fill-opacity:1;" d="M 466.957031 1149.976562 C 466.957031 1147.09375 462.636719 1147.09375 462.636719 1149.976562 C 462.636719 1152.855469 466.957031 1152.855469 466.957031 1149.976562 "/>
<path style=" stroke:none;fill-rule:evenodd;fill:rgb(0%,76.470588%,76.470588%);fill-opacity:1;" d="M 460.6875 1135.757812 C 460.6875 1131.222656 453.882812 1131.222656 453.882812 1135.757812 C 453.882812 1140.292969 460.6875 1140.292969 460.6875 1135.757812 "/>
<path style=" stroke:none;fill-rule:evenodd;fill:rgb(0%,76.470588%,76.470588%);fill-opacity:1;" d="M 449.351562 1135.757812 C 449.351562 1131.222656 442.546875 1131.222656 442.546875 1135.757812 C 442.546875 1140.292969 449.351562 1140.292969 449.351562 1135.757812 "/>
<path style=" stroke:none;fill-rule:evenodd;fill:rgb(0%,76.470588%,76.470588%);fill-opacity:1;" d="M 440.578125 1142.765625 C 440.578125 1139.882812 436.261719 1139.882812 436.261719 1142.765625 C 436.261719 1145.644531 440.578125 1145.644531 440.578125 1142.765625 "/>
<path style=" stroke:none;fill-rule:evenodd;fill:rgb(0%,76.470588%,76.470588%);fill-opacity:1;" d="M 426.179688 1142.765625 C 426.179688 1139.882812 421.859375 1139.882812 421.859375 1142.765625 C 421.859375 1145.644531 426.179688 1145.644531 426.179688 1142.765625 "/>
<path style=" stroke:none;fill-rule:evenodd;fill:rgb(0%,76.470588%,76.470588%);fill-opacity:1;" d="M 418.980469 1143.84375 C 418.980469 1140.964844 414.660156 1140.964844 414.660156 1143.84375 C 414.660156 1146.722656 418.980469 1146.722656 418.980469 1143.84375 "/>
<path style=" stroke:none;fill-rule:evenodd;fill:rgb(0%,76.470588%,76.470588%);fill-opacity:1;" d="M 411.78125 1142.765625 C 411.78125 1139.882812 407.460938 1139.882812 407.460938 1142.765625 C 407.460938 1145.644531 411.78125 1145.644531 411.78125 1142.765625 "/>
<path style=" stroke:none;fill-rule:evenodd;fill:rgb(0%,76.470588%,76.470588%);fill-opacity:1;" d="M 404.578125 1143.84375 C 404.578125 1140.964844 400.261719 1140.964844 400.261719 1143.84375 C 400.261719 1146.722656 404.578125 1146.722656 404.578125 1143.84375 "/>
<path style=" stroke:none;fill-rule:evenodd;fill:rgb(0%,76.470588%,76.470588%);fill-opacity:1;" d="M 398.328125 1135.757812 C 398.328125 1131.222656 391.523438 1131.222656 391.523438 1135.757812 C 391.523438 1140.292969 398.328125 1140.292969 398.328125 1135.757812 "/>
<path style=" stroke:none;fill-rule:evenodd;fill:rgb(0%,76.470588%,76.470588%);fill-opacity:1;" d="M 440.578125 1151.042969 C 440.578125 1148.164062 436.261719 1148.164062 436.261719 1151.042969 C 436.261719 1153.925781 440.578125 1153.925781 440.578125 1151.042969 "/>
<path style=" stroke:none;fill-rule:evenodd;fill:rgb(0%,76.470588%,76.470588%);fill-opacity:1;" d="M 426.179688 1151.042969 C 426.179688 1148.164062 421.859375 1148.164062 421.859375 1151.042969 C 421.859375 1153.925781 426.179688 1153.925781 426.179688 1151.042969 "/>
<path style=" stroke:none;fill-rule:evenodd;fill:rgb(0%,76.470588%,76.470588%);fill-opacity:1;" d="M 418.980469 1149.964844 C 418.980469 1147.085938 414.660156 1147.085938 414.660156 1149.964844 C 414.660156 1152.84375 418.980469 1152.84375 418.980469 1149.964844 "/>
<path style=" stroke:none;fill-rule:evenodd;fill:rgb(0%,76.470588%,76.470588%);fill-opacity:1;" d="M 411.78125 1151.042969 C 411.78125 1148.164062 407.460938 1148.164062 407.460938 1151.042969 C 407.460938 1153.925781 411.78125 1153.925781 411.78125 1151.042969 "/>
<path style=" stroke:none;fill-rule:evenodd;fill:rgb(0%,76.470588%,76.470588%);fill-opacity:1;" d="M 404.578125 1149.964844 C 404.578125 1147.085938 400.261719 1147.085938 400.261719 1149.964844 C 400.261719 1152.84375 404.578125 1152.84375 404.578125 1149.964844 "/>
<path style=" stroke:none;fill-rule:evenodd;fill:rgb(0%,76.470588%,76.470588%);fill-opacity:1;" d="M 433.378906 1149.964844 C 433.378906 1147.085938 429.058594 1147.085938 429.058594 1149.964844 C 429.058594 1152.84375 433.378906 1152.84375 433.378906 1149.964844 "/>
<path style=" stroke:none;fill-rule:evenodd;fill:rgb(0%,76.470588%,76.470588%);fill-opacity:1;" d="M 433.378906 1143.84375 C 433.378906 1140.964844 429.058594 1140.964844 429.058594 1143.84375 C 429.058594 1146.722656 433.378906 1146.722656 433.378906 1143.84375 "/>
<path style=" stroke:none;fill-rule:evenodd;fill:rgb(0%,76.470588%,76.470588%);fill-opacity:1;" d="M 423.839844 1169.773438 C 423.839844 1165.238281 417.035156 1165.238281 417.035156 1169.773438 C 417.035156 1174.308594 423.839844 1174.308594 423.839844 1169.773438 "/>
<path style=" stroke:none;fill-rule:evenodd;fill:rgb(0%,76.470588%,76.470588%);fill-opacity:1;" d="M 411.082031 1169.773438 C 411.082031 1167.128906 407.113281 1167.128906 407.113281 1169.773438 C 407.113281 1172.417969 411.082031 1172.417969 411.082031 1169.773438 "/>
<path style=" stroke:none;fill-rule:evenodd;fill:rgb(0%,76.470588%,76.470588%);fill-opacity:1;" d="M 412.5 1164.246094 C 412.5 1161.601562 408.53125 1161.601562 408.53125 1164.246094 C 408.53125 1166.890625 412.5 1166.890625 412.5 1164.246094 "/>
<path style=" stroke:none;fill-rule:evenodd;fill:rgb(0%,76.470588%,76.470588%);fill-opacity:1;" d="M 412.5 1175.300781 C 412.5 1172.65625 408.53125 1172.65625 408.53125 1175.300781 C 408.53125 1177.945312 412.5 1177.945312 412.5 1175.300781 "/>
<path style=" stroke:none;fill-rule:evenodd;fill:rgb(0%,76.470588%,76.470588%);fill-opacity:1;" d="M 422.421875 1181.109375 C 422.421875 1178.464844 418.453125 1178.464844 418.453125 1181.109375 C 418.453125 1183.757812 422.421875 1183.757812 422.421875 1181.109375 "/>
<path style=" stroke:none;fill-rule:evenodd;fill:rgb(0%,76.470588%,76.470588%);fill-opacity:1;" d="M 422.421875 1158.433594 C 422.421875 1155.789062 418.453125 1155.789062 418.453125 1158.433594 C 418.453125 1161.078125 422.421875 1161.078125 422.421875 1158.433594 "/>
<path style=" stroke:none;fill-rule:evenodd;fill:rgb(0%,76.470588%,76.470588%);fill-opacity:1;" d="M 416.75 1159.992188 C 416.75 1157.347656 412.785156 1157.347656 412.785156 1159.992188 C 412.785156 1162.636719 416.75 1162.636719 416.75 1159.992188 "/>
<path style=" stroke:none;fill-rule:evenodd;fill:rgb(0%,76.470588%,76.470588%);fill-opacity:1;" d="M 416.75 1179.550781 C 416.75 1176.90625 412.785156 1176.90625 412.785156 1179.550781 C 412.785156 1182.195312 416.75 1182.195312 416.75 1179.550781 "/>
<path style=" stroke:none;fill-rule:evenodd;fill:rgb(0%,76.470588%,76.470588%);fill-opacity:1;" d="M 433.757812 1169.773438 C 433.757812 1167.128906 429.792969 1167.128906 429.792969 1169.773438 C 429.792969 1172.417969 433.757812 1172.417969 433.757812 1169.773438 "/>
<path style=" stroke:none;fill-rule:evenodd;fill:rgb(0%,76.470588%,76.470588%);fill-opacity:1;" d="M 428.089844 1179.550781 C 428.089844 1176.90625 424.121094 1176.90625 424.121094 1179.550781 C 424.121094 1182.195312 428.089844 1182.195312 428.089844 1179.550781 "/>
<path style=" stroke:none;fill-rule:evenodd;fill:rgb(0%,76.470588%,76.470588%);fill-opacity:1;" d="M 428.089844 1159.992188 C 428.089844 1157.347656 424.121094 1157.347656 424.121094 1159.992188 C 424.121094 1162.636719 428.089844 1162.636719 428.089844 1159.992188 "/>
<path style=" stroke:none;fill-rule:evenodd;fill:rgb(0%,76.470588%,76.470588%);fill-opacity:1;" d="M 432.339844 1175.300781 C 432.339844 1172.65625 428.375 1172.65625 428.375 1175.300781 C 428.375 1177.945312 432.339844 1177.945312 432.339844 1175.300781 "/>
<path style=" stroke:none;fill-rule:evenodd;fill:rgb(0%,76.470588%,76.470588%);fill-opacity:1;" d="M 432.339844 1164.246094 C 432.339844 1161.601562 428.375 1161.601562 428.375 1164.246094 C 428.375 1166.890625 432.339844 1166.890625 432.339844 1164.246094 "/>
<path style=" stroke:none;fill-rule:evenodd;fill:rgb(0%,76.470588%,76.470588%);fill-opacity:1;" d="M 406.292969 1132.128906 L 405.835938 1132.128906 L 405.835938 1133.433594 L 406.292969 1133.433594 Z M 406.292969 1132.128906 "/>
<path style=" stroke:none;fill-rule:evenodd;fill:rgb(0%,76.470588%,76.470588%);fill-opacity:1;" d="M 407.285156 1132.128906 L 406.828125 1132.128906 L 406.828125 1133.433594 L 407.285156 1133.433594 Z M 407.285156 1132.128906 "/>
<path style=" stroke:none;fill-rule:evenodd;fill:rgb(0%,76.470588%,76.470588%);fill-opacity:1;" d="M 408.277344 1132.128906 L 407.820312 1132.128906 L 407.820312 1133.433594 L 408.277344 1133.433594 Z M 408.277344 1132.128906 "/>
<path style=" stroke:none;fill-rule:evenodd;fill:rgb(0%,76.470588%,76.470588%);fill-opacity:1;" d="M 409.269531 1132.128906 L 408.8125 1132.128906 L 408.8125 1133.433594 L 409.269531 1133.433594 Z M 409.269531 1132.128906 "/>
<path style=" stroke:none;fill-rule:evenodd;fill:rgb(0%,76.470588%,76.470588%);fill-opacity:1;" d="M 410.261719 1132.128906 L 409.804688 1132.128906 L 409.804688 1133.433594 L 410.261719 1133.433594 Z M 410.261719 1132.128906 "/>
<path style=" stroke:none;fill-rule:evenodd;fill:rgb(0%,76.470588%,76.470588%);fill-opacity:1;" d="M 402.890625 1130.429688 L 401.871094 1130.429688 L 401.871094 1132.441406 L 402.890625 1132.441406 Z M 402.890625 1130.429688 "/>
<path style=" stroke:none;fill-rule:evenodd;fill:rgb(0%,76.470588%,76.470588%);fill-opacity:1;" d="M 402.890625 1127.734375 L 401.871094 1127.734375 L 401.871094 1129.746094 L 402.890625 1129.746094 Z M 402.890625 1127.734375 "/>
<path style=" stroke:none;fill-rule:evenodd;fill:rgb(0%,76.470588%,76.470588%);fill-opacity:1;" d="M 411.253906 1132.128906 L 410.796875 1132.128906 L 410.796875 1133.433594 L 411.253906 1133.433594 Z M 411.253906 1132.128906 "/>
<path style=" stroke:none;fill-rule:evenodd;fill:rgb(0%,76.470588%,76.470588%);fill-opacity:1;" d="M 412.246094 1132.128906 L 411.789062 1132.128906 L 411.789062 1133.433594 L 412.246094 1133.433594 Z M 412.246094 1132.128906 "/>
<path style=" stroke:none;fill-rule:evenodd;fill:rgb(0%,76.470588%,76.470588%);fill-opacity:1;" d="M 413.238281 1132.128906 L 412.78125 1132.128906 L 412.78125 1133.433594 L 413.238281 1133.433594 Z M 413.238281 1132.128906 "/>
<path style=" stroke:none;fill-rule:evenodd;fill:rgb(0%,76.470588%,76.470588%);fill-opacity:1;" d="M 414.230469 1132.128906 L 413.773438 1132.128906 L 413.773438 1133.433594 L 414.230469 1133.433594 Z M 414.230469 1132.128906 "/>
<path style=" stroke:none;fill-rule:evenodd;fill:rgb(0%,76.470588%,76.470588%);fill-opacity:1;" d="M 415.222656 1132.128906 L 414.765625 1132.128906 L 414.765625 1133.433594 L 415.222656 1133.433594 Z M 415.222656 1132.128906 "/>
<path style=" stroke:none;fill-rule:evenodd;fill:rgb(0%,76.470588%,76.470588%);fill-opacity:1;" d="M 416.214844 1132.128906 L 415.757812 1132.128906 L 415.757812 1133.433594 L 416.214844 1133.433594 Z M 416.214844 1132.128906 "/>
<path style=" stroke:none;fill-rule:evenodd;fill:rgb(0%,76.470588%,76.470588%);fill-opacity:1;" d="M 417.207031 1132.128906 L 416.75 1132.128906 L 416.75 1133.433594 L 417.207031 1133.433594 Z M 417.207031 1132.128906 "/>
<path style=" stroke:none;fill-rule:evenodd;fill:rgb(0%,76.470588%,76.470588%);fill-opacity:1;" d="M 418.195312 1132.128906 L 417.742188 1132.128906 L 417.742188 1133.433594 L 418.195312 1133.433594 Z M 418.195312 1132.128906 "/>
<path style=" stroke:none;fill-rule:evenodd;fill:rgb(0%,76.470588%,76.470588%);fill-opacity:1;" d="M 419.1875 1132.128906 L 418.734375 1132.128906 L 418.734375 1133.433594 L 419.1875 1133.433594 Z M 419.1875 1132.128906 "/>
<path style=" stroke:none;fill-rule:evenodd;fill:rgb(0%,76.470588%,76.470588%);fill-opacity:1;" d="M 420.179688 1132.128906 L 419.726562 1132.128906 L 419.726562 1133.433594 L 420.179688 1133.433594 Z M 420.179688 1132.128906 "/>
<path style=" stroke:none;fill-rule:evenodd;fill:rgb(0%,76.470588%,76.470588%);fill-opacity:1;" d="M 421.171875 1132.128906 L 420.71875 1132.128906 L 420.71875 1133.433594 L 421.171875 1133.433594 Z M 421.171875 1132.128906 "/>
<path style=" stroke:none;fill-rule:evenodd;fill:rgb(0%,76.470588%,76.470588%);fill-opacity:1;" d="M 422.164062 1132.128906 L 421.710938 1132.128906 L 421.710938 1133.433594 L 422.164062 1133.433594 Z M 422.164062 1132.128906 "/>
<path style=" stroke:none;fill-rule:evenodd;fill:rgb(0%,76.470588%,76.470588%);fill-opacity:1;" d="M 423.15625 1132.128906 L 422.703125 1132.128906 L 422.703125 1133.433594 L 423.15625 1133.433594 Z M 423.15625 1132.128906 "/>
<path style=" stroke:none;fill-rule:evenodd;fill:rgb(0%,76.470588%,76.470588%);fill-opacity:1;" d="M 424.148438 1132.128906 L 423.695312 1132.128906 L 423.695312 1133.433594 L 424.148438 1133.433594 Z M 424.148438 1132.128906 "/>
<path style=" stroke:none;fill-rule:evenodd;fill:rgb(0%,76.470588%,76.470588%);fill-opacity:1;" d="M 425.140625 1132.128906 L 424.6875 1132.128906 L 424.6875 1133.433594 L 425.140625 1133.433594 Z M 425.140625 1132.128906 "/>
<path style=" stroke:none;fill-rule:evenodd;fill:rgb(0%,76.470588%,76.470588%);fill-opacity:1;" d="M 426.132812 1132.128906 L 425.679688 1132.128906 L 425.679688 1133.433594 L 426.132812 1133.433594 Z M 426.132812 1132.128906 "/>
<path style=" stroke:none;fill-rule:evenodd;fill:rgb(0%,76.470588%,76.470588%);fill-opacity:1;" d="M 427.125 1132.128906 L 426.671875 1132.128906 L 426.671875 1133.433594 L 427.125 1133.433594 Z M 427.125 1132.128906 "/>
<path style=" stroke:none;fill-rule:evenodd;fill:rgb(0%,76.470588%,76.470588%);fill-opacity:1;" d="M 428.117188 1132.128906 L 427.664062 1132.128906 L 427.664062 1133.433594 L 428.117188 1133.433594 Z M 428.117188 1132.128906 "/>
<path style=" stroke:none;fill-rule:evenodd;fill:rgb(0%,76.470588%,76.470588%);fill-opacity:1;" d="M 429.109375 1132.128906 L 428.65625 1132.128906 L 428.65625 1133.433594 L 429.109375 1133.433594 Z M 429.109375 1132.128906 "/>
<path style=" stroke:none;fill-rule:evenodd;fill:rgb(0%,76.470588%,76.470588%);fill-opacity:1;" d="M 430.101562 1132.128906 L 429.648438 1132.128906 L 429.648438 1133.433594 L 430.101562 1133.433594 Z M 430.101562 1132.128906 "/>
<path style=" stroke:none;fill-rule:evenodd;fill:rgb(0%,76.470588%,76.470588%);fill-opacity:1;" d="M 431.09375 1132.128906 L 430.640625 1132.128906 L 430.640625 1133.433594 L 431.09375 1133.433594 Z M 431.09375 1132.128906 "/>
<path style=" stroke:none;fill-rule:evenodd;fill:rgb(0%,76.470588%,76.470588%);fill-opacity:1;" d="M 432.085938 1132.128906 L 431.632812 1132.128906 L 431.632812 1133.433594 L 432.085938 1133.433594 Z M 432.085938 1132.128906 "/>
<path style=" stroke:none;fill-rule:evenodd;fill:rgb(0%,76.470588%,76.470588%);fill-opacity:1;" d="M 433.078125 1132.128906 L 432.625 1132.128906 L 432.625 1133.433594 L 433.078125 1133.433594 Z M 433.078125 1132.128906 "/>
<path style=" stroke:none;fill-rule:evenodd;fill:rgb(0%,76.470588%,76.470588%);fill-opacity:1;" d="M 434.070312 1132.128906 L 433.617188 1132.128906 L 433.617188 1133.433594 L 434.070312 1133.433594 Z M 434.070312 1132.128906 "/>
<path style=" stroke:none;fill-rule:evenodd;fill:rgb(0%,76.470588%,76.470588%);fill-opacity:1;" d="M 435.0625 1132.128906 L 434.609375 1132.128906 L 434.609375 1133.433594 L 435.0625 1133.433594 Z M 435.0625 1132.128906 "/>
<path style=" stroke:none;fill-rule:evenodd;fill:rgb(0%,76.470588%,76.470588%);fill-opacity:1;" d="M 439.03125 1130.429688 L 438.011719 1130.429688 L 438.011719 1132.441406 L 439.03125 1132.441406 Z M 439.03125 1130.429688 "/>
<path style=" stroke:none;fill-rule:evenodd;fill:rgb(0%,76.470588%,76.470588%);fill-opacity:1;" d="M 406.292969 1126.601562 L 405.835938 1126.601562 L 405.835938 1127.90625 L 406.292969 1127.90625 Z M 406.292969 1126.601562 "/>
<path style=" stroke:none;fill-rule:evenodd;fill:rgb(0%,76.470588%,76.470588%);fill-opacity:1;" d="M 407.285156 1126.601562 L 406.828125 1126.601562 L 406.828125 1127.90625 L 407.285156 1127.90625 Z M 407.285156 1126.601562 "/>
<path style=" stroke:none;fill-rule:evenodd;fill:rgb(0%,76.470588%,76.470588%);fill-opacity:1;" d="M 408.277344 1126.601562 L 407.820312 1126.601562 L 407.820312 1127.90625 L 408.277344 1127.90625 Z M 408.277344 1126.601562 "/>
<path style=" stroke:none;fill-rule:evenodd;fill:rgb(0%,76.470588%,76.470588%);fill-opacity:1;" d="M 409.269531 1126.601562 L 408.8125 1126.601562 L 408.8125 1127.90625 L 409.269531 1127.90625 Z M 409.269531 1126.601562 "/>
<path style=" stroke:none;fill-rule:evenodd;fill:rgb(0%,76.470588%,76.470588%);fill-opacity:1;" d="M 410.261719 1126.601562 L 409.804688 1126.601562 L 409.804688 1127.90625 L 410.261719 1127.90625 Z M 410.261719 1126.601562 "/>
<path style=" stroke:none;fill-rule:evenodd;fill:rgb(0%,76.470588%,76.470588%);fill-opacity:1;" d="M 411.253906 1126.601562 L 410.796875 1126.601562 L 410.796875 1127.90625 L 411.253906 1127.90625 Z M 411.253906 1126.601562 "/>
<path style=" stroke:none;fill-rule:evenodd;fill:rgb(0%,76.470588%,76.470588%);fill-opacity:1;" d="M 412.246094 1126.601562 L 411.789062 1126.601562 L 411.789062 1127.90625 L 412.246094 1127.90625 Z M 412.246094 1126.601562 "/>
<path style=" stroke:none;fill-rule:evenodd;fill:rgb(0%,76.470588%,76.470588%);fill-opacity:1;" d="M 413.238281 1126.601562 L 412.78125 1126.601562 L 412.78125 1127.90625 L 413.238281 1127.90625 Z M 413.238281 1126.601562 "/>
<path style=" stroke:none;fill-rule:evenodd;fill:rgb(0%,76.470588%,76.470588%);fill-opacity:1;" d="M 414.230469 1126.601562 L 413.773438 1126.601562 L 413.773438 1127.90625 L 414.230469 1127.90625 Z M 414.230469 1126.601562 "/>
<path style=" stroke:none;fill-rule:evenodd;fill:rgb(0%,76.470588%,76.470588%);fill-opacity:1;" d="M 415.222656 1126.601562 L 414.765625 1126.601562 L 414.765625 1127.90625 L 415.222656 1127.90625 Z M 415.222656 1126.601562 "/>
<path style=" stroke:none;fill-rule:evenodd;fill:rgb(0%,76.470588%,76.470588%);fill-opacity:1;" d="M 416.214844 1126.601562 L 415.757812 1126.601562 L 415.757812 1127.90625 L 416.214844 1127.90625 Z M 416.214844 1126.601562 "/>
<path style=" stroke:none;fill-rule:evenodd;fill:rgb(0%,76.470588%,76.470588%);fill-opacity:1;" d="M 417.207031 1126.601562 L 416.75 1126.601562 L 416.75 1127.90625 L 417.207031 1127.90625 Z M 417.207031 1126.601562 "/>
<path style=" stroke:none;fill-rule:evenodd;fill:rgb(0%,76.470588%,76.470588%);fill-opacity:1;" d="M 418.195312 1126.601562 L 417.742188 1126.601562 L 417.742188 1127.90625 L 418.195312 1127.90625 Z M 418.195312 1126.601562 "/>
<path style=" stroke:none;fill-rule:evenodd;fill:rgb(0%,76.470588%,76.470588%);fill-opacity:1;" d="M 419.1875 1126.601562 L 418.734375 1126.601562 L 418.734375 1127.90625 L 419.1875 1127.90625 Z M 419.1875 1126.601562 "/>
<path style=" stroke:none;fill-rule:evenodd;fill:rgb(0%,76.470588%,76.470588%);fill-opacity:1;" d="M 420.179688 1126.601562 L 419.726562 1126.601562 L 419.726562 1127.90625 L 420.179688 1127.90625 Z M 420.179688 1126.601562 "/>
<path style=" stroke:none;fill-rule:evenodd;fill:rgb(0%,76.470588%,76.470588%);fill-opacity:1;" d="M 421.171875 1126.601562 L 420.71875 1126.601562 L 420.71875 1127.90625 L 421.171875 1127.90625 Z M 421.171875 1126.601562 "/>
<path style=" stroke:none;fill-rule:evenodd;fill:rgb(0%,76.470588%,76.470588%);fill-opacity:1;" d="M 422.164062 1126.601562 L 421.710938 1126.601562 L 421.710938 1127.90625 L 422.164062 1127.90625 Z M 422.164062 1126.601562 "/>
<path style=" stroke:none;fill-rule:evenodd;fill:rgb(0%,76.470588%,76.470588%);fill-opacity:1;" d="M 423.15625 1126.601562 L 422.703125 1126.601562 L 422.703125 1127.90625 L 423.15625 1127.90625 Z M 423.15625 1126.601562 "/>
<path style=" stroke:none;fill-rule:evenodd;fill:rgb(0%,76.470588%,76.470588%);fill-opacity:1;" d="M 424.148438 1126.601562 L 423.695312 1126.601562 L 423.695312 1127.90625 L 424.148438 1127.90625 Z M 424.148438 1126.601562 "/>
<path style=" stroke:none;fill-rule:evenodd;fill:rgb(0%,76.470588%,76.470588%);fill-opacity:1;" d="M 425.140625 1126.601562 L 424.6875 1126.601562 L 424.6875 1127.90625 L 425.140625 1127.90625 Z M 425.140625 1126.601562 "/>
<path style=" stroke:none;fill-rule:evenodd;fill:rgb(0%,76.470588%,76.470588%);fill-opacity:1;" d="M 426.132812 1126.601562 L 425.679688 1126.601562 L 425.679688 1127.90625 L 426.132812 1127.90625 Z M 426.132812 1126.601562 "/>
<path style=" stroke:none;fill-rule:evenodd;fill:rgb(0%,76.470588%,76.470588%);fill-opacity:1;" d="M 427.125 1126.601562 L 426.671875 1126.601562 L 426.671875 1127.90625 L 427.125 1127.90625 Z M 427.125 1126.601562 "/>
<path style=" stroke:none;fill-rule:evenodd;fill:rgb(0%,76.470588%,76.470588%);fill-opacity:1;" d="M 428.117188 1126.601562 L 427.664062 1126.601562 L 427.664062 1127.90625 L 428.117188 1127.90625 Z M 428.117188 1126.601562 "/>
<path style=" stroke:none;fill-rule:evenodd;fill:rgb(0%,76.470588%,76.470588%);fill-opacity:1;" d="M 429.109375 1126.601562 L 428.65625 1126.601562 L 428.65625 1127.90625 L 429.109375 1127.90625 Z M 429.109375 1126.601562 "/>
<path style=" stroke:none;fill-rule:evenodd;fill:rgb(0%,76.470588%,76.470588%);fill-opacity:1;" d="M 430.101562 1126.601562 L 429.648438 1126.601562 L 429.648438 1127.90625 L 430.101562 1127.90625 Z M 430.101562 1126.601562 "/>
<path style=" stroke:none;fill-rule:evenodd;fill:rgb(0%,76.470588%,76.470588%);fill-opacity:1;" d="M 431.09375 1126.601562 L 430.640625 1126.601562 L 430.640625 1127.90625 L 431.09375 1127.90625 Z M 431.09375 1126.601562 "/>
<path style=" stroke:none;fill-rule:evenodd;fill:rgb(0%,76.470588%,76.470588%);fill-opacity:1;" d="M 432.085938 1126.601562 L 431.632812 1126.601562 L 431.632812 1127.90625 L 432.085938 1127.90625 Z M 432.085938 1126.601562 "/>
<path style=" stroke:none;fill-rule:evenodd;fill:rgb(0%,76.470588%,76.470588%);fill-opacity:1;" d="M 433.078125 1126.601562 L 432.625 1126.601562 L 432.625 1127.90625 L 433.078125 1127.90625 Z M 433.078125 1126.601562 "/>
<path style=" stroke:none;fill-rule:evenodd;fill:rgb(0%,76.470588%,76.470588%);fill-opacity:1;" d="M 434.070312 1126.601562 L 433.617188 1126.601562 L 433.617188 1127.90625 L 434.070312 1127.90625 Z M 434.070312 1126.601562 "/>
<path style=" stroke:none;fill-rule:evenodd;fill:rgb(0%,76.470588%,76.470588%);fill-opacity:1;" d="M 435.0625 1126.601562 L 434.609375 1126.601562 L 434.609375 1127.90625 L 435.0625 1127.90625 Z M 435.0625 1126.601562 "/>
<path style=" stroke:none;fill-rule:evenodd;fill:rgb(0%,76.470588%,76.470588%);fill-opacity:1;" d="M 439.03125 1127.734375 L 438.011719 1127.734375 L 438.011719 1129.746094 L 439.03125 1129.746094 Z M 439.03125 1127.734375 "/>
<path style=" stroke:none;fill-rule:evenodd;fill:rgb(45.882353%,94.901961%,40.392157%);fill-opacity:1;" d="M 43.210938 32.15625 L 43.210938 1328.585938 L 43.644531 1328.585938 L 43.644531 32.15625 "/>
<path style=" stroke:none;fill-rule:evenodd;fill:rgb(45.882353%,94.901961%,40.392157%);fill-opacity:1;" d="M 43.210938 32.585938 L 43.210938 32.15625 L 1771.644531 32.15625 L 1771.644531 32.585938 L 43.644531 32.585938 "/>
<path style=" stroke:none;fill-rule:evenodd;fill:rgb(45.882353%,94.901961%,40.392157%);fill-opacity:1;" d="M 43.210938 1328.585938 L 43.210938 1328.15625 L 1771.644531 1328.15625 L 1771.644531 1328.585938 L 43.644531 1328.585938 "/>
<path style=" stroke:none;fill-rule:evenodd;fill:rgb(45.882353%,94.901961%,40.392157%);fill-opacity:1;" d="M 1771.210938 32.15625 L 1771.210938 1328.585938 L 1771.644531 1328.585938 L 1771.644531 32.15625 "/>
<path style=" stroke:none;fill-rule:evenodd;fill:rgb(75.686275%,0%,87.843137%);fill-opacity:1;" d="M 490.667969 1159.992188 C 490.667969 1157.0625 486.269531 1157.0625 486.269531 1159.992188 C 486.269531 1162.925781 490.667969 1162.925781 490.667969 1159.992188 "/>
<path style=" stroke:none;fill-rule:evenodd;fill:rgb(75.686275%,0%,87.843137%);fill-opacity:1;" d="M 488.773438 1151.054688 C 488.773438 1147.886719 484.023438 1147.886719 484.023438 1151.054688 C 484.023438 1154.222656 488.773438 1154.222656 488.773438 1151.054688 "/>
<path style=" stroke:none;fill-rule:evenodd;fill:rgb(75.686275%,0%,87.843137%);fill-opacity:1;" d="M 494.917969 1164.246094 C 494.917969 1161.3125 490.519531 1161.3125 490.519531 1164.246094 C 490.519531 1167.179688 494.917969 1167.179688 494.917969 1164.246094 "/>
<path style=" stroke:none;fill-rule:evenodd;fill:rgb(75.686275%,0%,87.843137%);fill-opacity:1;" d="M 503.175781 1142.777344 C 503.175781 1139.609375 498.421875 1139.609375 498.421875 1142.777344 C 498.421875 1145.945312 503.175781 1145.945312 503.175781 1142.777344 "/>
<path style=" stroke:none;fill-rule:evenodd;fill:rgb(75.686275%,0%,87.843137%);fill-opacity:1;" d="M 503.175781 1151.054688 C 503.175781 1147.886719 498.421875 1147.886719 498.421875 1151.054688 C 498.421875 1154.222656 503.175781 1154.222656 503.175781 1151.054688 "/>
<path style=" stroke:none;fill-rule:evenodd;fill:rgb(75.686275%,0%,87.843137%);fill-opacity:1;" d="M 495.972656 1149.976562 C 495.972656 1146.808594 491.222656 1146.808594 491.222656 1149.976562 C 491.222656 1153.144531 495.972656 1153.144531 495.972656 1149.976562 "/>
<path style=" stroke:none;fill-rule:evenodd;fill:rgb(75.686275%,0%,87.843137%);fill-opacity:1;" d="M 495.972656 1143.855469 C 495.972656 1140.6875 491.222656 1140.6875 491.222656 1143.855469 C 491.222656 1147.023438 495.972656 1147.023438 495.972656 1143.855469 "/>
<path style=" stroke:none;fill-rule:evenodd;fill:rgb(75.686275%,0%,87.843137%);fill-opacity:1;" d="M 488.773438 1142.777344 C 488.773438 1139.609375 484.023438 1139.609375 484.023438 1142.777344 C 484.023438 1145.945312 488.773438 1145.945312 488.773438 1142.777344 "/>
<path style=" stroke:none;fill-rule:evenodd;fill:rgb(75.686275%,0%,87.843137%);fill-opacity:1;" d="M 481.574219 1143.855469 C 481.574219 1140.6875 476.824219 1140.6875 476.824219 1143.855469 C 476.824219 1147.023438 481.574219 1147.023438 481.574219 1143.855469 "/>
<path style=" stroke:none;fill-rule:evenodd;fill:rgb(75.686275%,0%,87.843137%);fill-opacity:1;" d="M 481.574219 1149.976562 C 481.574219 1146.808594 476.824219 1146.808594 476.824219 1149.976562 C 476.824219 1153.144531 481.574219 1153.144531 481.574219 1149.976562 "/>
<path style=" stroke:none;fill-rule:evenodd;fill:rgb(75.686275%,0%,87.843137%);fill-opacity:1;" d="M 511.765625 1135.757812 C 511.765625 1131.148438 504.855469 1131.148438 504.855469 1135.757812 C 504.855469 1140.363281 511.765625 1140.363281 511.765625 1135.757812 "/>
<path style=" stroke:none;fill-rule:evenodd;fill:rgb(75.686275%,0%,87.843137%);fill-opacity:1;" d="M 485 1158.433594 C 485 1155.5 480.597656 1155.5 480.597656 1158.433594 C 480.597656 1161.367188 485 1161.367188 485 1158.433594 "/>
<path style=" stroke:none;fill-rule:evenodd;fill:rgb(75.686275%,0%,87.843137%);fill-opacity:1;" d="M 473.660156 1169.773438 C 473.660156 1166.839844 469.261719 1166.839844 469.261719 1169.773438 C 469.261719 1172.707031 473.660156 1172.707031 473.660156 1169.773438 "/>
<path style=" stroke:none;fill-rule:evenodd;fill:rgb(75.686275%,0%,87.843137%);fill-opacity:1;" d="M 479.328125 1159.992188 C 479.328125 1157.0625 474.929688 1157.0625 474.929688 1159.992188 C 474.929688 1162.925781 479.328125 1162.925781 479.328125 1159.992188 "/>
<path style=" stroke:none;fill-rule:evenodd;fill:rgb(75.686275%,0%,87.843137%);fill-opacity:1;" d="M 475.078125 1164.246094 C 475.078125 1161.3125 470.679688 1161.3125 470.679688 1164.246094 C 470.679688 1167.179688 475.078125 1167.179688 475.078125 1164.246094 "/>
<path style=" stroke:none;fill-rule:evenodd;fill:rgb(75.686275%,0%,87.843137%);fill-opacity:1;" d="M 486.417969 1169.773438 C 486.417969 1164.949219 479.179688 1164.949219 479.179688 1169.773438 C 479.179688 1174.597656 486.417969 1174.597656 486.417969 1169.773438 "/>
<path style=" stroke:none;fill-rule:evenodd;fill:rgb(75.686275%,0%,87.843137%);fill-opacity:1;" d="M 485 1181.109375 C 485 1178.179688 480.597656 1178.179688 480.597656 1181.109375 C 480.597656 1184.042969 485 1184.042969 485 1181.109375 "/>
<path style=" stroke:none;fill-rule:evenodd;fill:rgb(75.686275%,0%,87.843137%);fill-opacity:1;" d="M 496.335938 1169.773438 C 496.335938 1166.839844 491.9375 1166.839844 491.9375 1169.773438 C 491.9375 1172.707031 496.335938 1172.707031 496.335938 1169.773438 "/>
<path style=" stroke:none;fill-rule:evenodd;fill:rgb(75.686275%,0%,87.843137%);fill-opacity:1;" d="M 490.667969 1179.550781 C 490.667969 1176.621094 486.269531 1176.621094 486.269531 1179.550781 C 486.269531 1182.484375 490.667969 1182.484375 490.667969 1179.550781 "/>
<path style=" stroke:none;fill-rule:evenodd;fill:rgb(75.686275%,0%,87.843137%);fill-opacity:1;" d="M 494.917969 1175.300781 C 494.917969 1172.367188 490.519531 1172.367188 490.519531 1175.300781 C 490.519531 1178.234375 494.917969 1178.234375 494.917969 1175.300781 "/>
<path style=" stroke:none;fill-rule:evenodd;fill:rgb(75.686275%,0%,87.843137%);fill-opacity:1;" d="M 479.328125 1179.550781 C 479.328125 1176.621094 474.929688 1176.621094 474.929688 1179.550781 C 474.929688 1182.484375 479.328125 1182.484375 479.328125 1179.550781 "/>
<path style=" stroke:none;fill-rule:evenodd;fill:rgb(75.686275%,0%,87.843137%);fill-opacity:1;" d="M 475.078125 1175.300781 C 475.078125 1172.367188 470.679688 1172.367188 470.679688 1175.300781 C 470.679688 1178.234375 475.078125 1178.234375 475.078125 1175.300781 "/>
<path style=" stroke:none;fill-rule:evenodd;fill:rgb(75.686275%,0%,87.843137%);fill-opacity:1;" d="M 474.375 1151.054688 C 474.375 1147.886719 469.621094 1147.886719 469.621094 1151.054688 C 469.621094 1154.222656 474.375 1154.222656 474.375 1151.054688 "/>
<path style=" stroke:none;fill-rule:evenodd;fill:rgb(75.686275%,0%,87.843137%);fill-opacity:1;" d="M 511.765625 1124.417969 C 511.765625 1119.808594 504.855469 1119.808594 504.855469 1124.417969 C 504.855469 1129.027344 511.765625 1129.027344 511.765625 1124.417969 "/>
<path style=" stroke:none;fill-rule:evenodd;fill:rgb(75.686275%,0%,87.843137%);fill-opacity:1;" d="M 460.742188 1124.417969 C 460.742188 1119.808594 453.832031 1119.808594 453.832031 1124.417969 C 453.832031 1129.027344 460.742188 1129.027344 460.742188 1124.417969 "/>
<path style=" stroke:none;fill-rule:evenodd;fill:rgb(75.686275%,0%,87.843137%);fill-opacity:1;" d="M 449.402344 1124.417969 C 449.402344 1119.808594 442.492188 1119.808594 442.492188 1124.417969 C 442.492188 1129.027344 449.402344 1129.027344 449.402344 1124.417969 "/>
<path style=" stroke:none;fill-rule:evenodd;fill:rgb(75.686275%,0%,87.843137%);fill-opacity:1;" d="M 398.378906 1124.417969 C 398.378906 1119.808594 391.46875 1119.808594 391.46875 1124.417969 C 391.46875 1129.027344 398.378906 1129.027344 398.378906 1124.417969 "/>
<path style=" stroke:none;fill-rule:evenodd;fill:rgb(75.686275%,0%,87.843137%);fill-opacity:1;" d="M 474.375 1142.777344 C 474.375 1139.609375 469.621094 1139.609375 469.621094 1142.777344 C 469.621094 1145.945312 474.375 1145.945312 474.375 1142.777344 "/>
<path style=" stroke:none;fill-rule:evenodd;fill:rgb(75.686275%,0%,87.843137%);fill-opacity:1;" d="M 467.175781 1143.855469 C 467.175781 1140.6875 462.421875 1140.6875 462.421875 1143.855469 C 462.421875 1147.023438 467.175781 1147.023438 467.175781 1143.855469 "/>
<path style=" stroke:none;fill-rule:evenodd;fill:rgb(75.686275%,0%,87.843137%);fill-opacity:1;" d="M 467.175781 1149.976562 C 467.175781 1146.808594 462.421875 1146.808594 462.421875 1149.976562 C 462.421875 1153.144531 467.175781 1153.144531 467.175781 1149.976562 "/>
<path style=" stroke:none;fill-rule:evenodd;fill:rgb(75.686275%,0%,87.843137%);fill-opacity:1;" d="M 460.742188 1135.757812 C 460.742188 1131.148438 453.832031 1131.148438 453.832031 1135.757812 C 453.832031 1140.363281 460.742188 1140.363281 460.742188 1135.757812 "/>
<path style=" stroke:none;fill-rule:evenodd;fill:rgb(75.686275%,0%,87.843137%);fill-opacity:1;" d="M 449.402344 1135.757812 C 449.402344 1131.148438 442.492188 1131.148438 442.492188 1135.757812 C 442.492188 1140.363281 449.402344 1140.363281 449.402344 1135.757812 "/>
<path style=" stroke:none;fill-rule:evenodd;fill:rgb(75.686275%,0%,87.843137%);fill-opacity:1;" d="M 440.796875 1142.765625 C 440.796875 1139.597656 436.042969 1139.597656 436.042969 1142.765625 C 436.042969 1145.933594 440.796875 1145.933594 440.796875 1142.765625 "/>
<path style=" stroke:none;fill-rule:evenodd;fill:rgb(75.686275%,0%,87.843137%);fill-opacity:1;" d="M 426.394531 1142.765625 C 426.394531 1139.597656 421.644531 1139.597656 421.644531 1142.765625 C 421.644531 1145.933594 426.394531 1145.933594 426.394531 1142.765625 "/>
<path style=" stroke:none;fill-rule:evenodd;fill:rgb(75.686275%,0%,87.843137%);fill-opacity:1;" d="M 419.195312 1143.84375 C 419.195312 1140.675781 414.445312 1140.675781 414.445312 1143.84375 C 414.445312 1147.011719 419.195312 1147.011719 419.195312 1143.84375 "/>
<path style=" stroke:none;fill-rule:evenodd;fill:rgb(75.686275%,0%,87.843137%);fill-opacity:1;" d="M 411.996094 1142.765625 C 411.996094 1139.597656 407.242188 1139.597656 407.242188 1142.765625 C 407.242188 1145.933594 411.996094 1145.933594 411.996094 1142.765625 "/>
<path style=" stroke:none;fill-rule:evenodd;fill:rgb(75.686275%,0%,87.843137%);fill-opacity:1;" d="M 404.796875 1143.84375 C 404.796875 1140.675781 400.042969 1140.675781 400.042969 1143.84375 C 400.042969 1147.011719 404.796875 1147.011719 404.796875 1143.84375 "/>
<path style=" stroke:none;fill-rule:evenodd;fill:rgb(75.686275%,0%,87.843137%);fill-opacity:1;" d="M 398.378906 1135.757812 C 398.378906 1131.148438 391.46875 1131.148438 391.46875 1135.757812 C 391.46875 1140.363281 398.378906 1140.363281 398.378906 1135.757812 "/>
<path style=" stroke:none;fill-rule:evenodd;fill:rgb(75.686275%,0%,87.843137%);fill-opacity:1;" d="M 440.796875 1151.042969 C 440.796875 1147.875 436.042969 1147.875 436.042969 1151.042969 C 436.042969 1154.210938 440.796875 1154.210938 440.796875 1151.042969 "/>
<path style=" stroke:none;fill-rule:evenodd;fill:rgb(75.686275%,0%,87.843137%);fill-opacity:1;" d="M 426.394531 1151.042969 C 426.394531 1147.875 421.644531 1147.875 421.644531 1151.042969 C 421.644531 1154.210938 426.394531 1154.210938 426.394531 1151.042969 "/>
<path style=" stroke:none;fill-rule:evenodd;fill:rgb(75.686275%,0%,87.843137%);fill-opacity:1;" d="M 419.195312 1149.964844 C 419.195312 1146.796875 414.445312 1146.796875 414.445312 1149.964844 C 414.445312 1153.132812 419.195312 1153.132812 419.195312 1149.964844 "/>
<path style=" stroke:none;fill-rule:evenodd;fill:rgb(75.686275%,0%,87.843137%);fill-opacity:1;" d="M 411.996094 1151.042969 C 411.996094 1147.875 407.242188 1147.875 407.242188 1151.042969 C 407.242188 1154.210938 411.996094 1154.210938 411.996094 1151.042969 "/>
<path style=" stroke:none;fill-rule:evenodd;fill:rgb(75.686275%,0%,87.843137%);fill-opacity:1;" d="M 404.796875 1149.964844 C 404.796875 1146.796875 400.042969 1146.796875 400.042969 1149.964844 C 400.042969 1153.132812 404.796875 1153.132812 404.796875 1149.964844 "/>
<path style=" stroke:none;fill-rule:evenodd;fill:rgb(75.686275%,0%,87.843137%);fill-opacity:1;" d="M 433.597656 1149.964844 C 433.597656 1146.796875 428.84375 1146.796875 428.84375 1149.964844 C 428.84375 1153.132812 433.597656 1153.132812 433.597656 1149.964844 "/>
<path style=" stroke:none;fill-rule:evenodd;fill:rgb(75.686275%,0%,87.843137%);fill-opacity:1;" d="M 433.597656 1143.84375 C 433.597656 1140.675781 428.84375 1140.675781 428.84375 1143.84375 C 428.84375 1147.011719 433.597656 1147.011719 433.597656 1143.84375 "/>
<path style=" stroke:none;fill-rule:evenodd;fill:rgb(75.686275%,0%,87.843137%);fill-opacity:1;" d="M 424.054688 1169.773438 C 424.054688 1164.949219 416.820312 1164.949219 416.820312 1169.773438 C 416.820312 1174.597656 424.054688 1174.597656 424.054688 1169.773438 "/>
<path style=" stroke:none;fill-rule:evenodd;fill:rgb(75.686275%,0%,87.843137%);fill-opacity:1;" d="M 411.296875 1169.773438 C 411.296875 1166.839844 406.898438 1166.839844 406.898438 1169.773438 C 406.898438 1172.707031 411.296875 1172.707031 411.296875 1169.773438 "/>
<path style=" stroke:none;fill-rule:evenodd;fill:rgb(75.686275%,0%,87.843137%);fill-opacity:1;" d="M 412.714844 1164.246094 C 412.714844 1161.3125 408.316406 1161.3125 408.316406 1164.246094 C 408.316406 1167.179688 412.714844 1167.179688 412.714844 1164.246094 "/>
<path style=" stroke:none;fill-rule:evenodd;fill:rgb(75.686275%,0%,87.843137%);fill-opacity:1;" d="M 412.714844 1175.300781 C 412.714844 1172.367188 408.316406 1172.367188 408.316406 1175.300781 C 408.316406 1178.234375 412.714844 1178.234375 412.714844 1175.300781 "/>
<path style=" stroke:none;fill-rule:evenodd;fill:rgb(75.686275%,0%,87.843137%);fill-opacity:1;" d="M 422.636719 1181.109375 C 422.636719 1178.179688 418.238281 1178.179688 418.238281 1181.109375 C 418.238281 1184.042969 422.636719 1184.042969 422.636719 1181.109375 "/>
<path style=" stroke:none;fill-rule:evenodd;fill:rgb(75.686275%,0%,87.843137%);fill-opacity:1;" d="M 422.636719 1158.433594 C 422.636719 1155.5 418.238281 1155.5 418.238281 1158.433594 C 418.238281 1161.367188 422.636719 1161.367188 422.636719 1158.433594 "/>
<path style=" stroke:none;fill-rule:evenodd;fill:rgb(75.686275%,0%,87.843137%);fill-opacity:1;" d="M 416.964844 1159.992188 C 416.964844 1157.0625 412.566406 1157.0625 412.566406 1159.992188 C 412.566406 1162.925781 416.964844 1162.925781 416.964844 1159.992188 "/>
<path style=" stroke:none;fill-rule:evenodd;fill:rgb(75.686275%,0%,87.843137%);fill-opacity:1;" d="M 416.964844 1179.550781 C 416.964844 1176.621094 412.566406 1176.621094 412.566406 1179.550781 C 412.566406 1182.484375 416.964844 1182.484375 416.964844 1179.550781 "/>
<path style=" stroke:none;fill-rule:evenodd;fill:rgb(75.686275%,0%,87.843137%);fill-opacity:1;" d="M 433.972656 1169.773438 C 433.972656 1166.839844 429.574219 1166.839844 429.574219 1169.773438 C 429.574219 1172.707031 433.972656 1172.707031 433.972656 1169.773438 "/>
<path style=" stroke:none;fill-rule:evenodd;fill:rgb(75.686275%,0%,87.843137%);fill-opacity:1;" d="M 428.304688 1179.550781 C 428.304688 1176.621094 423.90625 1176.621094 423.90625 1179.550781 C 423.90625 1182.484375 428.304688 1182.484375 428.304688 1179.550781 "/>
<path style=" stroke:none;fill-rule:evenodd;fill:rgb(75.686275%,0%,87.843137%);fill-opacity:1;" d="M 428.304688 1159.992188 C 428.304688 1157.0625 423.90625 1157.0625 423.90625 1159.992188 C 423.90625 1162.925781 428.304688 1162.925781 428.304688 1159.992188 "/>
<path style=" stroke:none;fill-rule:evenodd;fill:rgb(75.686275%,0%,87.843137%);fill-opacity:1;" d="M 432.558594 1175.300781 C 432.558594 1172.367188 428.160156 1172.367188 428.160156 1175.300781 C 428.160156 1178.234375 432.558594 1178.234375 432.558594 1175.300781 "/>
<path style=" stroke:none;fill-rule:evenodd;fill:rgb(75.686275%,0%,87.843137%);fill-opacity:1;" d="M 432.558594 1164.246094 C 432.558594 1161.3125 428.160156 1161.3125 428.160156 1164.246094 C 428.160156 1167.179688 432.558594 1167.179688 432.558594 1164.246094 "/>
<path style=" stroke:none;fill-rule:evenodd;fill:rgb(75.686275%,0%,87.843137%);fill-opacity:1;" d="M 407.011719 1131.410156 L 405.117188 1131.410156 L 405.117188 1134.152344 L 407.011719 1134.152344 Z M 407.011719 1131.410156 "/>
<path style=" stroke:none;fill-rule:evenodd;fill:rgb(75.686275%,0%,87.843137%);fill-opacity:1;" d="M 408.003906 1131.410156 L 406.109375 1131.410156 L 406.109375 1134.152344 L 408.003906 1134.152344 Z M 408.003906 1131.410156 "/>
<path style=" stroke:none;fill-rule:evenodd;fill:rgb(75.686275%,0%,87.843137%);fill-opacity:1;" d="M 408.996094 1131.410156 L 407.101562 1131.410156 L 407.101562 1134.152344 L 408.996094 1134.152344 Z M 408.996094 1131.410156 "/>
<path style=" stroke:none;fill-rule:evenodd;fill:rgb(75.686275%,0%,87.843137%);fill-opacity:1;" d="M 409.988281 1131.410156 L 408.09375 1131.410156 L 408.09375 1134.152344 L 409.988281 1134.152344 Z M 409.988281 1131.410156 "/>
<path style=" stroke:none;fill-rule:evenodd;fill:rgb(75.686275%,0%,87.843137%);fill-opacity:1;" d="M 410.980469 1131.410156 L 409.085938 1131.410156 L 409.085938 1134.152344 L 410.980469 1134.152344 Z M 410.980469 1131.410156 "/>
<path style=" stroke:none;fill-rule:evenodd;fill:rgb(75.686275%,0%,87.843137%);fill-opacity:1;" d="M 403.609375 1129.707031 L 401.148438 1129.707031 L 401.148438 1133.160156 L 403.609375 1133.160156 Z M 403.609375 1129.707031 "/>
<path style=" stroke:none;fill-rule:evenodd;fill:rgb(75.686275%,0%,87.843137%);fill-opacity:1;" d="M 403.609375 1127.015625 L 401.148438 1127.015625 L 401.148438 1130.46875 L 403.609375 1130.46875 Z M 403.609375 1127.015625 "/>
<path style=" stroke:none;fill-rule:evenodd;fill:rgb(75.686275%,0%,87.843137%);fill-opacity:1;" d="M 411.972656 1131.410156 L 410.078125 1131.410156 L 410.078125 1134.152344 L 411.972656 1134.152344 Z M 411.972656 1131.410156 "/>
<path style=" stroke:none;fill-rule:evenodd;fill:rgb(75.686275%,0%,87.843137%);fill-opacity:1;" d="M 412.964844 1131.410156 L 411.070312 1131.410156 L 411.070312 1134.152344 L 412.964844 1134.152344 Z M 412.964844 1131.410156 "/>
<path style=" stroke:none;fill-rule:evenodd;fill:rgb(75.686275%,0%,87.843137%);fill-opacity:1;" d="M 413.957031 1131.410156 L 412.0625 1131.410156 L 412.0625 1134.152344 L 413.957031 1134.152344 Z M 413.957031 1131.410156 "/>
<path style=" stroke:none;fill-rule:evenodd;fill:rgb(75.686275%,0%,87.843137%);fill-opacity:1;" d="M 414.949219 1131.410156 L 413.054688 1131.410156 L 413.054688 1134.152344 L 414.949219 1134.152344 Z M 414.949219 1131.410156 "/>
<path style=" stroke:none;fill-rule:evenodd;fill:rgb(75.686275%,0%,87.843137%);fill-opacity:1;" d="M 415.941406 1131.410156 L 414.046875 1131.410156 L 414.046875 1134.152344 L 415.941406 1134.152344 Z M 415.941406 1131.410156 "/>
<path style=" stroke:none;fill-rule:evenodd;fill:rgb(75.686275%,0%,87.843137%);fill-opacity:1;" d="M 416.933594 1131.410156 L 415.039062 1131.410156 L 415.039062 1134.152344 L 416.933594 1134.152344 Z M 416.933594 1131.410156 "/>
<path style=" stroke:none;fill-rule:evenodd;fill:rgb(75.686275%,0%,87.843137%);fill-opacity:1;" d="M 417.925781 1131.410156 L 416.03125 1131.410156 L 416.03125 1134.152344 L 417.925781 1134.152344 Z M 417.925781 1131.410156 "/>
<path style=" stroke:none;fill-rule:evenodd;fill:rgb(75.686275%,0%,87.843137%);fill-opacity:1;" d="M 418.917969 1131.410156 L 417.023438 1131.410156 L 417.023438 1134.152344 L 418.917969 1134.152344 Z M 418.917969 1131.410156 "/>
<path style=" stroke:none;fill-rule:evenodd;fill:rgb(75.686275%,0%,87.843137%);fill-opacity:1;" d="M 419.910156 1131.410156 L 418.015625 1131.410156 L 418.015625 1134.152344 L 419.910156 1134.152344 Z M 419.910156 1131.410156 "/>
<path style=" stroke:none;fill-rule:evenodd;fill:rgb(75.686275%,0%,87.843137%);fill-opacity:1;" d="M 420.902344 1131.410156 L 419.007812 1131.410156 L 419.007812 1134.152344 L 420.902344 1134.152344 Z M 420.902344 1131.410156 "/>
<path style=" stroke:none;fill-rule:evenodd;fill:rgb(75.686275%,0%,87.843137%);fill-opacity:1;" d="M 421.894531 1131.410156 L 420 1131.410156 L 420 1134.152344 L 421.894531 1134.152344 Z M 421.894531 1131.410156 "/>
<path style=" stroke:none;fill-rule:evenodd;fill:rgb(75.686275%,0%,87.843137%);fill-opacity:1;" d="M 422.886719 1131.410156 L 420.992188 1131.410156 L 420.992188 1134.152344 L 422.886719 1134.152344 Z M 422.886719 1131.410156 "/>
<path style=" stroke:none;fill-rule:evenodd;fill:rgb(75.686275%,0%,87.843137%);fill-opacity:1;" d="M 423.878906 1131.410156 L 421.984375 1131.410156 L 421.984375 1134.152344 L 423.878906 1134.152344 Z M 423.878906 1131.410156 "/>
<path style=" stroke:none;fill-rule:evenodd;fill:rgb(75.686275%,0%,87.843137%);fill-opacity:1;" d="M 424.871094 1131.410156 L 422.976562 1131.410156 L 422.976562 1134.152344 L 424.871094 1134.152344 Z M 424.871094 1131.410156 "/>
<path style=" stroke:none;fill-rule:evenodd;fill:rgb(75.686275%,0%,87.843137%);fill-opacity:1;" d="M 425.863281 1131.410156 L 423.96875 1131.410156 L 423.96875 1134.152344 L 425.863281 1134.152344 Z M 425.863281 1131.410156 "/>
<path style=" stroke:none;fill-rule:evenodd;fill:rgb(75.686275%,0%,87.843137%);fill-opacity:1;" d="M 426.855469 1131.410156 L 424.960938 1131.410156 L 424.960938 1134.152344 L 426.855469 1134.152344 Z M 426.855469 1131.410156 "/>
<path style=" stroke:none;fill-rule:evenodd;fill:rgb(75.686275%,0%,87.843137%);fill-opacity:1;" d="M 427.847656 1131.410156 L 425.953125 1131.410156 L 425.953125 1134.152344 L 427.847656 1134.152344 Z M 427.847656 1131.410156 "/>
<path style=" stroke:none;fill-rule:evenodd;fill:rgb(75.686275%,0%,87.843137%);fill-opacity:1;" d="M 428.839844 1131.410156 L 426.945312 1131.410156 L 426.945312 1134.152344 L 428.839844 1134.152344 Z M 428.839844 1131.410156 "/>
<path style=" stroke:none;fill-rule:evenodd;fill:rgb(75.686275%,0%,87.843137%);fill-opacity:1;" d="M 429.832031 1131.410156 L 427.9375 1131.410156 L 427.9375 1134.152344 L 429.832031 1134.152344 Z M 429.832031 1131.410156 "/>
<path style=" stroke:none;fill-rule:evenodd;fill:rgb(75.686275%,0%,87.843137%);fill-opacity:1;" d="M 430.824219 1131.410156 L 428.929688 1131.410156 L 428.929688 1134.152344 L 430.824219 1134.152344 Z M 430.824219 1131.410156 "/>
<path style=" stroke:none;fill-rule:evenodd;fill:rgb(75.686275%,0%,87.843137%);fill-opacity:1;" d="M 431.816406 1131.410156 L 429.921875 1131.410156 L 429.921875 1134.152344 L 431.816406 1134.152344 Z M 431.816406 1131.410156 "/>
<path style=" stroke:none;fill-rule:evenodd;fill:rgb(75.686275%,0%,87.843137%);fill-opacity:1;" d="M 432.808594 1131.410156 L 430.914062 1131.410156 L 430.914062 1134.152344 L 432.808594 1134.152344 Z M 432.808594 1131.410156 "/>
<path style=" stroke:none;fill-rule:evenodd;fill:rgb(75.686275%,0%,87.843137%);fill-opacity:1;" d="M 433.800781 1131.410156 L 431.90625 1131.410156 L 431.90625 1134.152344 L 433.800781 1134.152344 Z M 433.800781 1131.410156 "/>
<path style=" stroke:none;fill-rule:evenodd;fill:rgb(75.686275%,0%,87.843137%);fill-opacity:1;" d="M 434.792969 1131.410156 L 432.898438 1131.410156 L 432.898438 1134.152344 L 434.792969 1134.152344 Z M 434.792969 1131.410156 "/>
<path style=" stroke:none;fill-rule:evenodd;fill:rgb(75.686275%,0%,87.843137%);fill-opacity:1;" d="M 435.785156 1131.410156 L 433.890625 1131.410156 L 433.890625 1134.152344 L 435.785156 1134.152344 Z M 435.785156 1131.410156 "/>
<path style=" stroke:none;fill-rule:evenodd;fill:rgb(75.686275%,0%,87.843137%);fill-opacity:1;" d="M 439.75 1129.707031 L 437.289062 1129.707031 L 437.289062 1133.160156 L 439.75 1133.160156 Z M 439.75 1129.707031 "/>
<path style=" stroke:none;fill-rule:evenodd;fill:rgb(75.686275%,0%,87.843137%);fill-opacity:1;" d="M 407.011719 1125.882812 L 405.117188 1125.882812 L 405.117188 1128.625 L 407.011719 1128.625 Z M 407.011719 1125.882812 "/>
<path style=" stroke:none;fill-rule:evenodd;fill:rgb(75.686275%,0%,87.843137%);fill-opacity:1;" d="M 408.003906 1125.882812 L 406.109375 1125.882812 L 406.109375 1128.625 L 408.003906 1128.625 Z M 408.003906 1125.882812 "/>
<path style=" stroke:none;fill-rule:evenodd;fill:rgb(75.686275%,0%,87.843137%);fill-opacity:1;" d="M 408.996094 1125.882812 L 407.101562 1125.882812 L 407.101562 1128.625 L 408.996094 1128.625 Z M 408.996094 1125.882812 "/>
<path style=" stroke:none;fill-rule:evenodd;fill:rgb(75.686275%,0%,87.843137%);fill-opacity:1;" d="M 409.988281 1125.882812 L 408.09375 1125.882812 L 408.09375 1128.625 L 409.988281 1128.625 Z M 409.988281 1125.882812 "/>
<path style=" stroke:none;fill-rule:evenodd;fill:rgb(75.686275%,0%,87.843137%);fill-opacity:1;" d="M 410.980469 1125.882812 L 409.085938 1125.882812 L 409.085938 1128.625 L 410.980469 1128.625 Z M 410.980469 1125.882812 "/>
<path style=" stroke:none;fill-rule:evenodd;fill:rgb(75.686275%,0%,87.843137%);fill-opacity:1;" d="M 411.972656 1125.882812 L 410.078125 1125.882812 L 410.078125 1128.625 L 411.972656 1128.625 Z M 411.972656 1125.882812 "/>
<path style=" stroke:none;fill-rule:evenodd;fill:rgb(75.686275%,0%,87.843137%);fill-opacity:1;" d="M 412.964844 1125.882812 L 411.070312 1125.882812 L 411.070312 1128.625 L 412.964844 1128.625 Z M 412.964844 1125.882812 "/>
<path style=" stroke:none;fill-rule:evenodd;fill:rgb(75.686275%,0%,87.843137%);fill-opacity:1;" d="M 413.957031 1125.882812 L 412.0625 1125.882812 L 412.0625 1128.625 L 413.957031 1128.625 Z M 413.957031 1125.882812 "/>
<path style=" stroke:none;fill-rule:evenodd;fill:rgb(75.686275%,0%,87.843137%);fill-opacity:1;" d="M 414.949219 1125.882812 L 413.054688 1125.882812 L 413.054688 1128.625 L 414.949219 1128.625 Z M 414.949219 1125.882812 "/>
<path style=" stroke:none;fill-rule:evenodd;fill:rgb(75.686275%,0%,87.843137%);fill-opacity:1;" d="M 415.941406 1125.882812 L 414.046875 1125.882812 L 414.046875 1128.625 L 415.941406 1128.625 Z M 415.941406 1125.882812 "/>
<path style=" stroke:none;fill-rule:evenodd;fill:rgb(75.686275%,0%,87.843137%);fill-opacity:1;" d="M 416.933594 1125.882812 L 415.039062 1125.882812 L 415.039062 1128.625 L 416.933594 1128.625 Z M 416.933594 1125.882812 "/>
<path style=" stroke:none;fill-rule:evenodd;fill:rgb(75.686275%,0%,87.843137%);fill-opacity:1;" d="M 417.925781 1125.882812 L 416.03125 1125.882812 L 416.03125 1128.625 L 417.925781 1128.625 Z M 417.925781 1125.882812 "/>
<path style=" stroke:none;fill-rule:evenodd;fill:rgb(75.686275%,0%,87.843137%);fill-opacity:1;" d="M 418.917969 1125.882812 L 417.023438 1125.882812 L 417.023438 1128.625 L 418.917969 1128.625 Z M 418.917969 1125.882812 "/>
<path style=" stroke:none;fill-rule:evenodd;fill:rgb(75.686275%,0%,87.843137%);fill-opacity:1;" d="M 419.910156 1125.882812 L 418.015625 1125.882812 L 418.015625 1128.625 L 419.910156 1128.625 Z M 419.910156 1125.882812 "/>
<path style=" stroke:none;fill-rule:evenodd;fill:rgb(75.686275%,0%,87.843137%);fill-opacity:1;" d="M 420.902344 1125.882812 L 419.007812 1125.882812 L 419.007812 1128.625 L 420.902344 1128.625 Z M 420.902344 1125.882812 "/>
<path style=" stroke:none;fill-rule:evenodd;fill:rgb(75.686275%,0%,87.843137%);fill-opacity:1;" d="M 421.894531 1125.882812 L 420 1125.882812 L 420 1128.625 L 421.894531 1128.625 Z M 421.894531 1125.882812 "/>
<path style=" stroke:none;fill-rule:evenodd;fill:rgb(75.686275%,0%,87.843137%);fill-opacity:1;" d="M 422.886719 1125.882812 L 420.992188 1125.882812 L 420.992188 1128.625 L 422.886719 1128.625 Z M 422.886719 1125.882812 "/>
<path style=" stroke:none;fill-rule:evenodd;fill:rgb(75.686275%,0%,87.843137%);fill-opacity:1;" d="M 423.878906 1125.882812 L 421.984375 1125.882812 L 421.984375 1128.625 L 423.878906 1128.625 Z M 423.878906 1125.882812 "/>
<path style=" stroke:none;fill-rule:evenodd;fill:rgb(75.686275%,0%,87.843137%);fill-opacity:1;" d="M 424.871094 1125.882812 L 422.976562 1125.882812 L 422.976562 1128.625 L 424.871094 1128.625 Z M 424.871094 1125.882812 "/>
<path style=" stroke:none;fill-rule:evenodd;fill:rgb(75.686275%,0%,87.843137%);fill-opacity:1;" d="M 425.863281 1125.882812 L 423.96875 1125.882812 L 423.96875 1128.625 L 425.863281 1128.625 Z M 425.863281 1125.882812 "/>
<path style=" stroke:none;fill-rule:evenodd;fill:rgb(75.686275%,0%,87.843137%);fill-opacity:1;" d="M 426.855469 1125.882812 L 424.960938 1125.882812 L 424.960938 1128.625 L 426.855469 1128.625 Z M 426.855469 1125.882812 "/>
<path style=" stroke:none;fill-rule:evenodd;fill:rgb(75.686275%,0%,87.843137%);fill-opacity:1;" d="M 427.847656 1125.882812 L 425.953125 1125.882812 L 425.953125 1128.625 L 427.847656 1128.625 Z M 427.847656 1125.882812 "/>
<path style=" stroke:none;fill-rule:evenodd;fill:rgb(75.686275%,0%,87.843137%);fill-opacity:1;" d="M 428.839844 1125.882812 L 426.945312 1125.882812 L 426.945312 1128.625 L 428.839844 1128.625 Z M 428.839844 1125.882812 "/>
<path style=" stroke:none;fill-rule:evenodd;fill:rgb(75.686275%,0%,87.843137%);fill-opacity:1;" d="M 429.832031 1125.882812 L 427.9375 1125.882812 L 427.9375 1128.625 L 429.832031 1128.625 Z M 429.832031 1125.882812 "/>
<path style=" stroke:none;fill-rule:evenodd;fill:rgb(75.686275%,0%,87.843137%);fill-opacity:1;" d="M 430.824219 1125.882812 L 428.929688 1125.882812 L 428.929688 1128.625 L 430.824219 1128.625 Z M 430.824219 1125.882812 "/>
<path style=" stroke:none;fill-rule:evenodd;fill:rgb(75.686275%,0%,87.843137%);fill-opacity:1;" d="M 431.816406 1125.882812 L 429.921875 1125.882812 L 429.921875 1128.625 L 431.816406 1128.625 Z M 431.816406 1125.882812 "/>
<path style=" stroke:none;fill-rule:evenodd;fill:rgb(75.686275%,0%,87.843137%);fill-opacity:1;" d="M 432.808594 1125.882812 L 430.914062 1125.882812 L 430.914062 1128.625 L 432.808594 1128.625 Z M 432.808594 1125.882812 "/>
<path style=" stroke:none;fill-rule:evenodd;fill:rgb(75.686275%,0%,87.843137%);fill-opacity:1;" d="M 433.800781 1125.882812 L 431.90625 1125.882812 L 431.90625 1128.625 L 433.800781 1128.625 Z M 433.800781 1125.882812 "/>
<path style=" stroke:none;fill-rule:evenodd;fill:rgb(75.686275%,0%,87.843137%);fill-opacity:1;" d="M 434.792969 1125.882812 L 432.898438 1125.882812 L 432.898438 1128.625 L 434.792969 1128.625 Z M 434.792969 1125.882812 "/>
<path style=" stroke:none;fill-rule:evenodd;fill:rgb(75.686275%,0%,87.843137%);fill-opacity:1;" d="M 435.785156 1125.882812 L 433.890625 1125.882812 L 433.890625 1128.625 L 435.785156 1128.625 Z M 435.785156 1125.882812 "/>
<path style=" stroke:none;fill-rule:evenodd;fill:rgb(75.686275%,0%,87.843137%);fill-opacity:1;" d="M 439.75 1127.015625 L 437.289062 1127.015625 L 437.289062 1130.46875 L 439.75 1130.46875 Z M 439.75 1127.015625 "/>
<path style=" stroke:none;fill-rule:evenodd;fill:rgb(100%,49.803922%,45.098039%);fill-opacity:1;" d="M 403.789062 1143.84375 C 403.789062 1142.019531 401.050781 1142.019531 401.050781 1143.84375 C 401.050781 1145.667969 403.789062 1145.667969 403.789062 1143.84375 "/>
<path style=" stroke:none;fill-rule:evenodd;fill:rgb(100%,49.803922%,45.098039%);fill-opacity:1;" d="M 403.789062 1149.960938 C 403.789062 1148.136719 401.050781 1148.136719 401.050781 1149.960938 C 401.050781 1151.785156 403.789062 1151.785156 403.789062 1149.960938 "/>
<path style=" stroke:none;fill-rule:evenodd;fill:rgb(100%,49.803922%,45.098039%);fill-opacity:1;" d="M 410.988281 1142.761719 C 410.988281 1140.9375 408.253906 1140.9375 408.253906 1142.761719 C 408.253906 1144.585938 410.988281 1144.585938 410.988281 1142.761719 "/>
<path style=" stroke:none;fill-rule:evenodd;fill:rgb(100%,49.803922%,45.098039%);fill-opacity:1;" d="M 410.988281 1151.042969 C 410.988281 1149.21875 408.253906 1149.21875 408.253906 1151.042969 C 408.253906 1152.867188 410.988281 1152.867188 410.988281 1151.042969 "/>
<path style=" stroke:none;fill-rule:evenodd;fill:rgb(100%,49.803922%,45.098039%);fill-opacity:1;" d="M 418.1875 1143.84375 C 418.1875 1142.019531 415.453125 1142.019531 415.453125 1143.84375 C 415.453125 1145.667969 418.1875 1145.667969 418.1875 1143.84375 "/>
<path style=" stroke:none;fill-rule:evenodd;fill:rgb(100%,49.803922%,45.098039%);fill-opacity:1;" d="M 418.1875 1149.960938 C 418.1875 1148.136719 415.453125 1148.136719 415.453125 1149.960938 C 415.453125 1151.785156 418.1875 1151.785156 418.1875 1149.960938 "/>
<path style=" stroke:none;fill-rule:evenodd;fill:rgb(100%,49.803922%,45.098039%);fill-opacity:1;" d="M 425.386719 1142.761719 C 425.386719 1140.9375 422.652344 1140.9375 422.652344 1142.761719 C 422.652344 1144.585938 425.386719 1144.585938 425.386719 1142.761719 "/>
<path style=" stroke:none;fill-rule:evenodd;fill:rgb(100%,49.803922%,45.098039%);fill-opacity:1;" d="M 425.386719 1151.042969 C 425.386719 1149.21875 422.652344 1149.21875 422.652344 1151.042969 C 422.652344 1152.867188 425.386719 1152.867188 425.386719 1151.042969 "/>
<path style=" stroke:none;fill-rule:evenodd;fill:rgb(100%,49.803922%,45.098039%);fill-opacity:1;" d="M 432.589844 1143.84375 C 432.589844 1142.019531 429.851562 1142.019531 429.851562 1143.84375 C 429.851562 1145.667969 432.589844 1145.667969 432.589844 1143.84375 "/>
<path style=" stroke:none;fill-rule:evenodd;fill:rgb(100%,49.803922%,45.098039%);fill-opacity:1;" d="M 432.589844 1149.960938 C 432.589844 1148.136719 429.851562 1148.136719 429.851562 1149.960938 C 429.851562 1151.785156 432.589844 1151.785156 432.589844 1149.960938 "/>
<path style=" stroke:none;fill-rule:evenodd;fill:rgb(100%,49.803922%,45.098039%);fill-opacity:1;" d="M 439.789062 1142.761719 C 439.789062 1140.9375 437.050781 1140.9375 437.050781 1142.761719 C 437.050781 1144.585938 439.789062 1144.585938 439.789062 1142.761719 "/>
<path style=" stroke:none;fill-rule:evenodd;fill:rgb(100%,49.803922%,45.098039%);fill-opacity:1;" d="M 439.789062 1151.042969 C 439.789062 1149.21875 437.050781 1149.21875 437.050781 1151.042969 C 437.050781 1152.867188 439.789062 1152.867188 439.789062 1151.042969 "/>
<path style=" stroke:none;fill-rule:evenodd;fill:rgb(100%,49.803922%,45.098039%);fill-opacity:1;" d="M 466.167969 1143.855469 C 466.167969 1142.03125 463.433594 1142.03125 463.433594 1143.855469 C 463.433594 1145.679688 466.167969 1145.679688 466.167969 1143.855469 "/>
<path style=" stroke:none;fill-rule:evenodd;fill:rgb(100%,49.803922%,45.098039%);fill-opacity:1;" d="M 466.167969 1149.976562 C 466.167969 1148.152344 463.433594 1148.152344 463.433594 1149.976562 C 463.433594 1151.800781 466.167969 1151.800781 466.167969 1149.976562 "/>
<path style=" stroke:none;fill-rule:evenodd;fill:rgb(100%,49.803922%,45.098039%);fill-opacity:1;" d="M 473.371094 1142.777344 C 473.371094 1140.953125 470.632812 1140.953125 470.632812 1142.777344 C 470.632812 1144.601562 473.371094 1144.601562 473.371094 1142.777344 "/>
<path style=" stroke:none;fill-rule:evenodd;fill:rgb(100%,49.803922%,45.098039%);fill-opacity:1;" d="M 473.371094 1151.058594 C 473.371094 1149.234375 470.632812 1149.234375 470.632812 1151.058594 C 470.632812 1152.882812 473.371094 1152.882812 473.371094 1151.058594 "/>
<path style=" stroke:none;fill-rule:evenodd;fill:rgb(100%,49.803922%,45.098039%);fill-opacity:1;" d="M 480.570312 1143.855469 C 480.570312 1142.03125 477.832031 1142.03125 477.832031 1143.855469 C 477.832031 1145.679688 480.570312 1145.679688 480.570312 1143.855469 "/>
<path style=" stroke:none;fill-rule:evenodd;fill:rgb(100%,49.803922%,45.098039%);fill-opacity:1;" d="M 480.570312 1149.976562 C 480.570312 1148.152344 477.832031 1148.152344 477.832031 1149.976562 C 477.832031 1151.800781 480.570312 1151.800781 480.570312 1149.976562 "/>
<path style=" stroke:none;fill-rule:evenodd;fill:rgb(100%,49.803922%,45.098039%);fill-opacity:1;" d="M 487.769531 1142.777344 C 487.769531 1140.953125 485.035156 1140.953125 485.035156 1142.777344 C 485.035156 1144.601562 487.769531 1144.601562 487.769531 1142.777344 "/>
<path style=" stroke:none;fill-rule:evenodd;fill:rgb(100%,49.803922%,45.098039%);fill-opacity:1;" d="M 487.769531 1151.058594 C 487.769531 1149.234375 485.035156 1149.234375 485.035156 1151.058594 C 485.035156 1152.882812 487.769531 1152.882812 487.769531 1151.058594 "/>
<path style=" stroke:none;fill-rule:evenodd;fill:rgb(100%,49.803922%,45.098039%);fill-opacity:1;" d="M 494.96875 1143.855469 C 494.96875 1142.03125 492.234375 1142.03125 492.234375 1143.855469 C 492.234375 1145.679688 494.96875 1145.679688 494.96875 1143.855469 "/>
<path style=" stroke:none;fill-rule:evenodd;fill:rgb(100%,49.803922%,45.098039%);fill-opacity:1;" d="M 494.96875 1149.976562 C 494.96875 1148.152344 492.234375 1148.152344 492.234375 1149.976562 C 492.234375 1151.800781 494.96875 1151.800781 494.96875 1149.976562 "/>
<path style=" stroke:none;fill-rule:evenodd;fill:rgb(100%,49.803922%,45.098039%);fill-opacity:1;" d="M 502.167969 1142.777344 C 502.167969 1140.953125 499.433594 1140.953125 499.433594 1142.777344 C 499.433594 1144.601562 502.167969 1144.601562 502.167969 1142.777344 "/>
<path style=" stroke:none;fill-rule:evenodd;fill:rgb(100%,49.803922%,45.098039%);fill-opacity:1;" d="M 502.167969 1151.058594 C 502.167969 1149.234375 499.433594 1149.234375 499.433594 1151.058594 C 499.433594 1152.882812 502.167969 1152.882812 502.167969 1151.058594 "/>
<path style=" stroke:none;fill-rule:evenodd;fill:rgb(100%,49.803922%,45.098039%);fill-opacity:1;" d="M 410.5 1169.769531 C 410.5 1167.898438 407.691406 1167.898438 407.691406 1169.769531 C 407.691406 1171.640625 410.5 1171.640625 410.5 1169.769531 "/>
<path style=" stroke:none;fill-rule:evenodd;fill:rgb(100%,49.803922%,45.098039%);fill-opacity:1;" d="M 411.917969 1164.246094 C 411.917969 1162.375 409.109375 1162.375 409.109375 1164.246094 C 409.109375 1166.121094 411.917969 1166.121094 411.917969 1164.246094 "/>
<path style=" stroke:none;fill-rule:evenodd;fill:rgb(100%,49.803922%,45.098039%);fill-opacity:1;" d="M 411.917969 1175.300781 C 411.917969 1173.425781 409.109375 1173.425781 409.109375 1175.300781 C 409.109375 1177.171875 411.917969 1177.171875 411.917969 1175.300781 "/>
<path style=" stroke:none;fill-rule:evenodd;fill:rgb(100%,49.803922%,45.098039%);fill-opacity:1;" d="M 416.171875 1159.992188 C 416.171875 1158.121094 413.363281 1158.121094 413.363281 1159.992188 C 413.363281 1161.863281 416.171875 1161.863281 416.171875 1159.992188 "/>
<path style=" stroke:none;fill-rule:evenodd;fill:rgb(100%,49.803922%,45.098039%);fill-opacity:1;" d="M 416.171875 1179.554688 C 416.171875 1177.683594 413.363281 1177.683594 413.363281 1179.554688 C 413.363281 1181.425781 416.171875 1181.425781 416.171875 1179.554688 "/>
<path style=" stroke:none;fill-rule:evenodd;fill:rgb(100%,49.803922%,45.098039%);fill-opacity:1;" d="M 421.839844 1158.4375 C 421.839844 1156.566406 419.03125 1156.566406 419.03125 1158.4375 C 419.03125 1160.308594 421.839844 1160.308594 421.839844 1158.4375 "/>
<path style=" stroke:none;fill-rule:evenodd;fill:rgb(100%,49.803922%,45.098039%);fill-opacity:1;" d="M 421.839844 1181.109375 C 421.839844 1179.238281 419.03125 1179.238281 419.03125 1181.109375 C 419.03125 1182.980469 421.839844 1182.980469 421.839844 1181.109375 "/>
<path style=" stroke:none;fill-rule:evenodd;fill:rgb(100%,49.803922%,45.098039%);fill-opacity:1;" d="M 427.511719 1159.992188 C 427.511719 1158.121094 424.703125 1158.121094 424.703125 1159.992188 C 424.703125 1161.863281 427.511719 1161.863281 427.511719 1159.992188 "/>
<path style=" stroke:none;fill-rule:evenodd;fill:rgb(100%,49.803922%,45.098039%);fill-opacity:1;" d="M 427.511719 1179.554688 C 427.511719 1177.683594 424.703125 1177.683594 424.703125 1179.554688 C 424.703125 1181.425781 427.511719 1181.425781 427.511719 1179.554688 "/>
<path style=" stroke:none;fill-rule:evenodd;fill:rgb(100%,49.803922%,45.098039%);fill-opacity:1;" d="M 431.761719 1164.246094 C 431.761719 1162.375 428.953125 1162.375 428.953125 1164.246094 C 428.953125 1166.121094 431.761719 1166.121094 431.761719 1164.246094 "/>
<path style=" stroke:none;fill-rule:evenodd;fill:rgb(100%,49.803922%,45.098039%);fill-opacity:1;" d="M 431.761719 1175.300781 C 431.761719 1173.425781 428.953125 1173.425781 428.953125 1175.300781 C 428.953125 1177.171875 431.761719 1177.171875 431.761719 1175.300781 "/>
<path style=" stroke:none;fill-rule:evenodd;fill:rgb(100%,49.803922%,45.098039%);fill-opacity:1;" d="M 433.179688 1169.769531 C 433.179688 1167.898438 430.371094 1167.898438 430.371094 1169.769531 C 430.371094 1171.640625 433.179688 1171.640625 433.179688 1169.769531 "/>
<path style=" stroke:none;fill-rule:evenodd;fill:rgb(100%,49.803922%,45.098039%);fill-opacity:1;" d="M 472.867188 1169.769531 C 472.867188 1167.898438 470.058594 1167.898438 470.058594 1169.769531 C 470.058594 1171.640625 472.867188 1171.640625 472.867188 1169.769531 "/>
<path style=" stroke:none;fill-rule:evenodd;fill:rgb(100%,49.803922%,45.098039%);fill-opacity:1;" d="M 474.285156 1164.246094 C 474.285156 1162.375 471.476562 1162.375 471.476562 1164.246094 C 471.476562 1166.121094 474.285156 1166.121094 474.285156 1164.246094 "/>
<path style=" stroke:none;fill-rule:evenodd;fill:rgb(100%,49.803922%,45.098039%);fill-opacity:1;" d="M 474.285156 1175.300781 C 474.285156 1173.425781 471.476562 1173.425781 471.476562 1175.300781 C 471.476562 1177.171875 474.285156 1177.171875 474.285156 1175.300781 "/>
<path style=" stroke:none;fill-rule:evenodd;fill:rgb(100%,49.803922%,45.098039%);fill-opacity:1;" d="M 478.53125 1159.992188 C 478.53125 1158.121094 475.722656 1158.121094 475.722656 1159.992188 C 475.722656 1161.863281 478.53125 1161.863281 478.53125 1159.992188 "/>
<path style=" stroke:none;fill-rule:evenodd;fill:rgb(100%,49.803922%,45.098039%);fill-opacity:1;" d="M 478.53125 1179.554688 C 478.53125 1177.683594 475.722656 1177.683594 475.722656 1179.554688 C 475.722656 1181.425781 478.53125 1181.425781 478.53125 1179.554688 "/>
<path style=" stroke:none;fill-rule:evenodd;fill:rgb(100%,49.803922%,45.098039%);fill-opacity:1;" d="M 484.207031 1158.4375 C 484.207031 1156.566406 481.398438 1156.566406 481.398438 1158.4375 C 481.398438 1160.308594 484.207031 1160.308594 484.207031 1158.4375 "/>
<path style=" stroke:none;fill-rule:evenodd;fill:rgb(100%,49.803922%,45.098039%);fill-opacity:1;" d="M 484.207031 1181.109375 C 484.207031 1179.238281 481.398438 1179.238281 481.398438 1181.109375 C 481.398438 1182.980469 484.207031 1182.980469 484.207031 1181.109375 "/>
<path style=" stroke:none;fill-rule:evenodd;fill:rgb(100%,49.803922%,45.098039%);fill-opacity:1;" d="M 489.871094 1159.992188 C 489.871094 1158.121094 487.0625 1158.121094 487.0625 1159.992188 C 487.0625 1161.863281 489.871094 1161.863281 489.871094 1159.992188 "/>
<path style=" stroke:none;fill-rule:evenodd;fill:rgb(100%,49.803922%,45.098039%);fill-opacity:1;" d="M 489.871094 1179.554688 C 489.871094 1177.683594 487.0625 1177.683594 487.0625 1179.554688 C 487.0625 1181.425781 489.871094 1181.425781 489.871094 1179.554688 "/>
<path style=" stroke:none;fill-rule:evenodd;fill:rgb(100%,49.803922%,45.098039%);fill-opacity:1;" d="M 494.128906 1164.246094 C 494.128906 1162.375 491.320312 1162.375 491.320312 1164.246094 C 491.320312 1166.121094 494.128906 1166.121094 494.128906 1164.246094 "/>
<path style=" stroke:none;fill-rule:evenodd;fill:rgb(100%,49.803922%,45.098039%);fill-opacity:1;" d="M 494.128906 1175.300781 C 494.128906 1173.425781 491.320312 1173.425781 491.320312 1175.300781 C 491.320312 1177.171875 494.128906 1177.171875 494.128906 1175.300781 "/>
<path style=" stroke:none;fill-rule:evenodd;fill:rgb(100%,49.803922%,45.098039%);fill-opacity:1;" d="M 495.539062 1169.769531 C 495.539062 1167.898438 492.730469 1167.898438 492.730469 1169.769531 C 492.730469 1171.640625 495.539062 1171.640625 495.539062 1169.769531 "/>
<path style=" stroke:none;fill-rule:evenodd;fill:rgb(100%,49.803922%,45.098039%);fill-opacity:1;" d="M 397.769531 1124.417969 C 397.769531 1120.625 392.082031 1120.625 392.082031 1124.417969 C 392.082031 1128.210938 397.769531 1128.210938 397.769531 1124.417969 "/>
<path style=" stroke:none;fill-rule:evenodd;fill:rgb(100%,49.803922%,45.098039%);fill-opacity:1;" d="M 397.769531 1135.757812 C 397.769531 1131.964844 392.082031 1131.964844 392.082031 1135.757812 C 392.082031 1139.550781 397.769531 1139.550781 397.769531 1135.757812 "/>
<path style=" stroke:none;fill-rule:evenodd;fill:rgb(100%,49.803922%,45.098039%);fill-opacity:1;" d="M 423.277344 1169.769531 C 423.277344 1165.976562 417.589844 1165.976562 417.589844 1169.769531 C 417.589844 1173.5625 423.277344 1173.5625 423.277344 1169.769531 "/>
<path style=" stroke:none;fill-rule:evenodd;fill:rgb(100%,49.803922%,45.098039%);fill-opacity:1;" d="M 448.796875 1124.417969 C 448.796875 1120.625 443.109375 1120.625 443.109375 1124.417969 C 443.109375 1128.210938 448.796875 1128.210938 448.796875 1124.417969 "/>
<path style=" stroke:none;fill-rule:evenodd;fill:rgb(100%,49.803922%,45.098039%);fill-opacity:1;" d="M 448.796875 1135.757812 C 448.796875 1131.964844 443.109375 1131.964844 443.109375 1135.757812 C 443.109375 1139.550781 448.796875 1139.550781 448.796875 1135.757812 "/>
<path style=" stroke:none;fill-rule:evenodd;fill:rgb(100%,49.803922%,45.098039%);fill-opacity:1;" d="M 460.128906 1124.417969 C 460.128906 1120.625 454.441406 1120.625 454.441406 1124.417969 C 454.441406 1128.210938 460.128906 1128.210938 460.128906 1124.417969 "/>
<path style=" stroke:none;fill-rule:evenodd;fill:rgb(100%,49.803922%,45.098039%);fill-opacity:1;" d="M 460.128906 1135.757812 C 460.128906 1131.964844 454.441406 1131.964844 454.441406 1135.757812 C 454.441406 1139.550781 460.128906 1139.550781 460.128906 1135.757812 "/>
<path style=" stroke:none;fill-rule:evenodd;fill:rgb(100%,49.803922%,45.098039%);fill-opacity:1;" d="M 485.644531 1169.769531 C 485.644531 1165.976562 479.957031 1165.976562 479.957031 1169.769531 C 479.957031 1173.5625 485.644531 1173.5625 485.644531 1169.769531 "/>
<path style=" stroke:none;fill-rule:evenodd;fill:rgb(100%,49.803922%,45.098039%);fill-opacity:1;" d="M 511.15625 1124.417969 C 511.15625 1120.625 505.46875 1120.625 505.46875 1124.417969 C 505.46875 1128.210938 511.15625 1128.210938 511.15625 1124.417969 "/>
<path style=" stroke:none;fill-rule:evenodd;fill:rgb(100%,49.803922%,45.098039%);fill-opacity:1;" d="M 511.15625 1135.757812 C 511.15625 1131.964844 505.46875 1131.964844 505.46875 1135.757812 C 505.46875 1139.550781 511.15625 1139.550781 511.15625 1135.757812 "/>
<path style="fill:none;stroke-width:0.004;stroke-linecap:round;stroke-linejoin:miter;stroke:rgb(45.098039%,45.098039%,87.058824%);stroke-opacity:1;stroke-miterlimit:10;" d="M 5.040976 2.656471 L 5.040976 2.696456 " transform="matrix(72,0,0,-72,43.428603,1328.371399)"/>
<path style="fill:none;stroke-width:0.004;stroke-linecap:round;stroke-linejoin:miter;stroke:rgb(45.098039%,45.098039%,87.058824%);stroke-opacity:1;stroke-miterlimit:10;" d="M 5.040976 2.656471 L 5.056005 2.676437 " transform="matrix(72,0,0,-72,43.428603,1328.371399)"/>
<path style="fill:none;stroke-width:0.004;stroke-linecap:round;stroke-linejoin:miter;stroke:rgb(45.098039%,45.098039%,87.058824%);stroke-opacity:1;stroke-miterlimit:10;" d="M 5.056005 2.676437 L 5.070979 2.656471 " transform="matrix(72,0,0,-72,43.428603,1328.371399)"/>
<path style="fill:none;stroke-width:0.004;stroke-linecap:round;stroke-linejoin:miter;stroke:rgb(45.098039%,45.098039%,87.058824%);stroke-opacity:1;stroke-miterlimit:10;" d="M 5.070979 2.656471 L 5.070979 2.696456 " transform="matrix(72,0,0,-72,43.428603,1328.371399)"/>
<path style="fill:none;stroke-width:0.004;stroke-linecap:round;stroke-linejoin:miter;stroke:rgb(45.098039%,45.098039%,87.058824%);stroke-opacity:1;stroke-miterlimit:10;" d="M 5.082969 2.674483 L 5.097997 2.674483 " transform="matrix(72,0,0,-72,43.428603,1328.371399)"/>
<path style="fill:none;stroke-width:0.004;stroke-linecap:round;stroke-linejoin:miter;stroke:rgb(45.098039%,45.098039%,87.058824%);stroke-opacity:1;stroke-miterlimit:10;" d="M 5.082969 2.696456 L 5.102988 2.696456 " transform="matrix(72,0,0,-72,43.428603,1328.371399)"/>
<path style="fill:none;stroke-width:0.004;stroke-linecap:round;stroke-linejoin:miter;stroke:rgb(45.098039%,45.098039%,87.058824%);stroke-opacity:1;stroke-miterlimit:10;" d="M 5.082969 2.656471 L 5.082969 2.696456 " transform="matrix(72,0,0,-72,43.428603,1328.371399)"/>
<path style="fill:none;stroke-width:0.004;stroke-linecap:round;stroke-linejoin:miter;stroke:rgb(45.098039%,45.098039%,87.058824%);stroke-opacity:1;stroke-miterlimit:10;" d="M 5.082969 2.656471 L 5.102988 2.656471 " transform="matrix(72,0,0,-72,43.428603,1328.371399)"/>
<path style="fill:none;stroke-width:0.004;stroke-linecap:round;stroke-linejoin:miter;stroke:rgb(45.098039%,45.098039%,87.058824%);stroke-opacity:1;stroke-miterlimit:10;" d="M 5.114978 2.656471 L 5.139989 2.656471 " transform="matrix(72,0,0,-72,43.428603,1328.371399)"/>
<path style="fill:none;stroke-width:0.004;stroke-linecap:round;stroke-linejoin:miter;stroke:rgb(45.098039%,45.098039%,87.058824%);stroke-opacity:1;stroke-miterlimit:10;" d="M 5.114978 2.696456 L 5.139989 2.656471 " transform="matrix(72,0,0,-72,43.428603,1328.371399)"/>
<path style="fill:none;stroke-width:0.004;stroke-linecap:round;stroke-linejoin:miter;stroke:rgb(45.098039%,45.098039%,87.058824%);stroke-opacity:1;stroke-miterlimit:10;" d="M 5.114978 2.696456 L 5.139989 2.696456 " transform="matrix(72,0,0,-72,43.428603,1328.371399)"/>
<path style="fill:none;stroke-width:0.004;stroke-linecap:round;stroke-linejoin:miter;stroke:rgb(45.098039%,45.098039%,87.058824%);stroke-opacity:1;stroke-miterlimit:10;" d="M 5.151979 2.661463 L 5.15697 2.656471 " transform="matrix(72,0,0,-72,43.428603,1328.371399)"/>
<path style="fill:none;stroke-width:0.004;stroke-linecap:round;stroke-linejoin:miter;stroke:rgb(45.098039%,45.098039%,87.058824%);stroke-opacity:1;stroke-miterlimit:10;" d="M 5.15697 2.656471 L 5.166953 2.656471 " transform="matrix(72,0,0,-72,43.428603,1328.371399)"/>
<path style="fill:none;stroke-width:0.004;stroke-linecap:round;stroke-linejoin:miter;stroke:rgb(45.098039%,45.098039%,87.058824%);stroke-opacity:1;stroke-miterlimit:10;" d="M 5.166953 2.656471 L 5.171999 2.661463 " transform="matrix(72,0,0,-72,43.428603,1328.371399)"/>
<path style="fill:none;stroke-width:0.004;stroke-linecap:round;stroke-linejoin:miter;stroke:rgb(45.098039%,45.098039%,87.058824%);stroke-opacity:1;stroke-miterlimit:10;" d="M 5.166953 2.696456 L 5.171999 2.691465 " transform="matrix(72,0,0,-72,43.428603,1328.371399)"/>
<path style="fill:none;stroke-width:0.004;stroke-linecap:round;stroke-linejoin:miter;stroke:rgb(45.098039%,45.098039%,87.058824%);stroke-opacity:1;stroke-miterlimit:10;" d="M 5.15697 2.696456 L 5.166953 2.696456 " transform="matrix(72,0,0,-72,43.428603,1328.371399)"/>
<path style="fill:none;stroke-width:0.004;stroke-linecap:round;stroke-linejoin:miter;stroke:rgb(45.098039%,45.098039%,87.058824%);stroke-opacity:1;stroke-miterlimit:10;" d="M 5.151979 2.691465 L 5.15697 2.696456 " transform="matrix(72,0,0,-72,43.428603,1328.371399)"/>
<path style="fill:none;stroke-width:0.004;stroke-linecap:round;stroke-linejoin:miter;stroke:rgb(45.098039%,45.098039%,87.058824%);stroke-opacity:1;stroke-miterlimit:10;" d="M 5.15697 2.674483 L 5.166953 2.674483 " transform="matrix(72,0,0,-72,43.428603,1328.371399)"/>
<path style="fill:none;stroke-width:0.004;stroke-linecap:round;stroke-linejoin:miter;stroke:rgb(45.098039%,45.098039%,87.058824%);stroke-opacity:1;stroke-miterlimit:10;" d="M 5.171999 2.661463 L 5.171999 2.669438 " transform="matrix(72,0,0,-72,43.428603,1328.371399)"/>
<path style="fill:none;stroke-width:0.004;stroke-linecap:round;stroke-linejoin:miter;stroke:rgb(45.098039%,45.098039%,87.058824%);stroke-opacity:1;stroke-miterlimit:10;" d="M 5.171999 2.679475 L 5.171999 2.691465 " transform="matrix(72,0,0,-72,43.428603,1328.371399)"/>
<path style="fill:none;stroke-width:0.004;stroke-linecap:round;stroke-linejoin:miter;stroke:rgb(45.098039%,45.098039%,87.058824%);stroke-opacity:1;stroke-miterlimit:10;" d="M 5.171999 2.679475 L 5.166953 2.674483 " transform="matrix(72,0,0,-72,43.428603,1328.371399)"/>
<path style="fill:none;stroke-width:0.004;stroke-linecap:round;stroke-linejoin:miter;stroke:rgb(45.098039%,45.098039%,87.058824%);stroke-opacity:1;stroke-miterlimit:10;" d="M 5.171999 2.669438 L 5.166953 2.674483 " transform="matrix(72,0,0,-72,43.428603,1328.371399)"/>
</g>
</svg>
