G04 This is an RS-274x file exported by *
G04 gerbv version 2.7.0 *
G04 More information is available about gerbv at *
G04 http://gerbv.geda-project.org/ *
G04 --End of header info--*
%MOIN*%
%FSLAX36Y36*%
%IPPOS*%
G04 --Define apertures--*
%ADD10C,0.0100*%
%ADD11C,0.0060*%
%ADD12C,0.0040*%
%ADD13R,0.0060X0.0060*%
%ADD14C,0.0611*%
%ADD15C,0.0660*%
%ADD16C,0.0960*%
%ADD17C,0.1005*%
%ADD18C,0.0001*%
%ADD19C,0.0390*%
%ADD20C,0.0380*%
%ADD21C,0.0790*%
G04 --Start main section--*
G54D10*
G01X6102360Y2542720D02*
G01X6102360Y2492720D01*
G01X6077360Y2517720D02*
G01X6127360Y2517720D01*
G01X5221220Y2517720D02*
G01X5251220Y2517720D01*
G01X5236220Y2532720D02*
G01X5236220Y2502720D01*
G01X6161420Y2202760D02*
G01X6204720Y2202760D01*
G01X6102360Y2143700D02*
G01X6102360Y2100390D01*
G54D11*
G01X6102360Y2320870D02*
G75*
G03X5984250Y2202760I0000000J-118110D01*
G01X6220470Y2202760D02*
G75*
G03X6102360Y2320870I-118110J0000000D01*
G01X6102360Y2084650D02*
G75*
G03X6220470Y2202760I0000000J0118110D01*
G01X5984250Y2202760D02*
G75*
G03X6102360Y2084650I0118110J0000000D01*
G01X5944880Y2202760D02*
G75*
G03X6102360Y2045280I0157480J0000000D01*
G01X6102360Y2045280D02*
G75*
G03X6259840Y2202760I0000000J0157480D01*
G01X6259840Y2202760D02*
G75*
G03X6102360Y2360240I-157480J0000000D01*
G01X6102360Y2360240D02*
G75*
G03X5944880Y2202760I0000000J-157480D01*
G54D10*
G01X6102360Y2005910D02*
G75*
G03X6299210Y2202760I0000000J0196850D01*
G01X6299210Y2202760D02*
G75*
G03X6102360Y2399610I-196850J0000000D01*
G01X6102360Y2399610D02*
G75*
G03X5905510Y2202760I0000000J-196850D01*
G01X5905510Y2202760D02*
G75*
G03X6102360Y2005910I0196850J0000000D01*
G01X5802360Y2617720D02*
G01X6402360Y2617720D01*
G01X5802360Y2617720D02*
G01X5802360Y2417720D01*
G01X5802360Y2417720D02*
G01X6402360Y2417720D01*
G01X6402360Y2617720D02*
G01X6402360Y2417720D01*
G54D11*
G01X5852360Y2567720D02*
G01X6352360Y2567720D01*
G01X5852360Y2467720D02*
G01X6352360Y2467720D01*
G01X5802360Y2517720D02*
G01X5902360Y2517720D01*
G01X5902360Y2517720D02*
G01X5902360Y2417720D01*
G01X6302360Y2617720D02*
G01X6302360Y2517720D01*
G01X6302360Y2517720D02*
G01X6402360Y2517720D01*
G54D10*
G01X4935990Y2617880D02*
G01X5535990Y2617880D01*
G01X4935990Y2617880D02*
G01X4935990Y2417880D01*
G01X4935990Y2417880D02*
G01X5535990Y2417880D01*
G01X5535990Y2617880D02*
G01X5535990Y2417880D01*
G54D11*
G01X4985990Y2567880D02*
G01X5485990Y2567880D01*
G01X4985990Y2467880D02*
G01X5485990Y2467880D01*
G01X4935990Y2517880D02*
G01X5035990Y2517880D01*
G01X5035990Y2517880D02*
G01X5035990Y2417880D01*
G01X5435990Y2617880D02*
G01X5435990Y2517880D01*
G01X5435990Y2517880D02*
G01X5535990Y2517880D01*
G54D10*
G01X5295280Y2202760D02*
G01X5338580Y2202760D01*
G01X5236220Y2143700D02*
G01X5236220Y2100390D01*
G54D11*
G01X5236220Y2320870D02*
G75*
G03X5118110Y2202760I0000000J-118110D01*
G01X5354330Y2202760D02*
G75*
G03X5236220Y2320870I-118110J0000000D01*
G01X5236220Y2084650D02*
G75*
G03X5354330Y2202760I0000000J0118110D01*
G01X5118110Y2202760D02*
G75*
G03X5236220Y2084650I0118110J0000000D01*
G01X5078740Y2202760D02*
G75*
G03X5236220Y2045280I0157480J0000000D01*
G01X5236220Y2045280D02*
G75*
G03X5393700Y2202760I0000000J0157480D01*
G01X5393700Y2202760D02*
G75*
G03X5236220Y2360240I-157480J0000000D01*
G01X5236220Y2360240D02*
G75*
G03X5078740Y2202760I0000000J-157480D01*
G54D10*
G01X5236220Y2005910D02*
G75*
G03X5433070Y2202760I0000000J0196850D01*
G01X5433070Y2202760D02*
G75*
G03X5236220Y2399610I-196850J0000000D01*
G01X5236220Y2399610D02*
G75*
G03X5039370Y2202760I0000000J-196850D01*
G01X5039370Y2202760D02*
G75*
G03X5236220Y2005910I0196850J0000000D01*
G54D12*
G01X6131890Y2670980D02*
G01X6131890Y2640980D01*
G01X6131890Y2640980D02*
G01X6126890Y2635980D01*
G01X6116890Y2635980D02*
G01X6126890Y2635980D01*
G01X6116890Y2635980D02*
G01X6111890Y2640980D01*
G01X6111890Y2670980D02*
G01X6111890Y2640980D01*
G01X6116890Y2675980D02*
G01X6111890Y2670980D01*
G01X6116890Y2675980D02*
G01X6126890Y2675980D01*
G01X6131890Y2670980D02*
G01X6126890Y2675980D01*
G01X6099890Y2675980D02*
G01X6099890Y2635980D01*
G01X6079890Y2635980D02*
G01X6099890Y2635980D01*
G01X6084890Y2653980D02*
G01X6099890Y2653980D01*
G01X6067890Y2675980D02*
G01X6067890Y2635980D01*
G01X6047890Y2635980D02*
G01X6067890Y2635980D01*
G01X6052890Y2653980D02*
G01X6067890Y2653980D01*
G01X6015890Y2635980D02*
G01X6010890Y2640980D01*
G01X6015890Y2635980D02*
G01X6030890Y2635980D01*
G01X6035890Y2640980D02*
G01X6030890Y2635980D01*
G01X6035890Y2650980D02*
G01X6035890Y2640980D01*
G01X6035890Y2650980D02*
G01X6030890Y2655980D01*
G01X6015890Y2655980D02*
G01X6030890Y2655980D01*
G01X6015890Y2655980D02*
G01X6010890Y2660980D01*
G01X6010890Y2670980D02*
G01X6010890Y2660980D01*
G01X6015890Y2675980D02*
G01X6010890Y2670980D01*
G01X6015890Y2675980D02*
G01X6030890Y2675980D01*
G01X6035890Y2670980D02*
G01X6030890Y2675980D01*
G01X5983890Y2653980D02*
G01X5998890Y2653980D01*
G01X5978890Y2675980D02*
G01X5998890Y2675980D01*
G01X5998890Y2675980D02*
G01X5998890Y2635980D01*
G01X5978890Y2635980D02*
G01X5998890Y2635980D01*
G01X5946890Y2635980D02*
G01X5966890Y2635980D01*
G01X5956890Y2675980D02*
G01X5956890Y2635980D01*
G01X5934890Y2643980D02*
G01X5926890Y2635980D01*
G01X5926890Y2675980D02*
G01X5926890Y2635980D01*
G01X5919890Y2675980D02*
G01X5934890Y2675980D01*
G01X6456690Y2665200D02*
G01X6456690Y2625200D01*
G01X6481690Y2665200D02*
G01X6481690Y2625200D01*
G01X6456690Y2645200D02*
G01X6481690Y2645200D01*
G01X6493690Y2660200D02*
G01X6498690Y2665200D01*
G01X6498690Y2665200D02*
G01X6508690Y2665200D01*
G01X6508690Y2665200D02*
G01X6513690Y2660200D01*
G01X6508690Y2625200D02*
G01X6513690Y2630200D01*
G01X6498690Y2625200D02*
G01X6508690Y2625200D01*
G01X6493690Y2630200D02*
G01X6498690Y2625200D01*
G01X6498690Y2647200D02*
G01X6508690Y2647200D01*
G01X6513690Y2660200D02*
G01X6513690Y2652200D01*
G01X6513690Y2642200D02*
G01X6513690Y2630200D01*
G01X6513690Y2642200D02*
G01X6508690Y2647200D01*
G01X6513690Y2652200D02*
G01X6508690Y2647200D01*
G01X6456690Y2822680D02*
G01X6456690Y2782680D01*
G01X6481690Y2822680D02*
G01X6481690Y2782680D01*
G01X6456690Y2802680D02*
G01X6481690Y2802680D01*
G01X6493690Y2797680D02*
G01X6513690Y2822680D01*
G01X6493690Y2797680D02*
G01X6518690Y2797680D01*
G01X6513690Y2822680D02*
G01X6513690Y2782680D01*
G01X6297600Y2696460D02*
G01X6297600Y2656460D01*
G01X6297600Y2656460D02*
G01X6282600Y2676460D01*
G01X6282600Y2676460D02*
G01X6267600Y2656460D01*
G01X6267600Y2696460D02*
G01X6267600Y2656460D01*
G01X6240600Y2674460D02*
G01X6255600Y2674460D01*
G01X6235600Y2696460D02*
G01X6255600Y2696460D01*
G01X6255600Y2696460D02*
G01X6255600Y2656460D01*
G01X6235600Y2656460D02*
G01X6255600Y2656460D01*
G01X6198600Y2656460D02*
G01X6223600Y2656460D01*
G01X6223600Y2696460D02*
G01X6198600Y2656460D01*
G01X6198600Y2696460D02*
G01X6223600Y2696460D01*
G01X6186600Y2664460D02*
G01X6178600Y2656460D01*
G01X6178600Y2696460D02*
G01X6178600Y2656460D01*
G01X6171600Y2696460D02*
G01X6186600Y2696460D01*
G01X5748030Y2822680D02*
G01X5748030Y2782680D01*
G01X5773030Y2822680D02*
G01X5773030Y2782680D01*
G01X5748030Y2802680D02*
G01X5773030Y2802680D01*
G01X5785030Y2817680D02*
G01X5790030Y2822680D01*
G01X5790030Y2822680D02*
G01X5805030Y2822680D01*
G01X5805030Y2822680D02*
G01X5810030Y2817680D01*
G01X5810030Y2817680D02*
G01X5810030Y2807680D01*
G01X5785030Y2782680D02*
G01X5810030Y2807680D01*
G01X5785030Y2782680D02*
G01X5810030Y2782680D01*
G01X5748030Y2665200D02*
G01X5748030Y2625200D01*
G01X5773030Y2665200D02*
G01X5773030Y2625200D01*
G01X5748030Y2645200D02*
G01X5773030Y2645200D01*
G01X5785030Y2657200D02*
G01X5793030Y2665200D01*
G01X5793030Y2665200D02*
G01X5793030Y2625200D01*
G01X5785030Y2625200D02*
G01X5800030Y2625200D01*
G01X6052990Y2281500D02*
G01X6052990Y2261500D01*
G01X6052990Y2261500D02*
G01X6047990Y2256500D01*
G01X6037990Y2256500D02*
G01X6047990Y2256500D01*
G01X6032990Y2261500D02*
G01X6037990Y2256500D01*
G01X6032990Y2276500D02*
G01X6032990Y2261500D01*
G01X6012990Y2276500D02*
G01X6052990Y2276500D01*
G01X6032990Y2268500D02*
G01X6012990Y2256500D01*
G01X6052990Y2244500D02*
G01X6052990Y2234500D01*
G01X6012990Y2239500D02*
G01X6052990Y2239500D01*
G01X6012990Y2244500D02*
G01X6012990Y2234500D01*
G01X6012990Y2222500D02*
G01X6052990Y2222500D01*
G01X6052990Y2222500D02*
G01X6012990Y2197500D01*
G01X6012990Y2197500D02*
G01X6052990Y2197500D01*
G01X6052990Y2165500D02*
G01X6047990Y2160500D01*
G01X6052990Y2180500D02*
G01X6052990Y2165500D01*
G01X6047990Y2185500D02*
G01X6052990Y2180500D01*
G01X6017990Y2185500D02*
G01X6047990Y2185500D01*
G01X6017990Y2185500D02*
G01X6012990Y2180500D01*
G01X6012990Y2180500D02*
G01X6012990Y2165500D01*
G01X6012990Y2165500D02*
G01X6017990Y2160500D01*
G01X6017990Y2160500D02*
G01X6027990Y2160500D01*
G01X6032990Y2165500D02*
G01X6027990Y2160500D01*
G01X6032990Y2175500D02*
G01X6032990Y2165500D01*
G01X6044990Y2148500D02*
G01X6052990Y2140500D01*
G01X6012990Y2140500D02*
G01X6052990Y2140500D01*
G01X6012990Y2148500D02*
G01X6012990Y2133500D01*
G01X5236220Y2670990D02*
G01X5236220Y2640990D01*
G01X5236220Y2640990D02*
G01X5231220Y2635990D01*
G01X5221220Y2635990D02*
G01X5231220Y2635990D01*
G01X5221220Y2635990D02*
G01X5216220Y2640990D01*
G01X5216220Y2670990D02*
G01X5216220Y2640990D01*
G01X5221220Y2675990D02*
G01X5216220Y2670990D01*
G01X5221220Y2675990D02*
G01X5231220Y2675990D01*
G01X5236220Y2670990D02*
G01X5231220Y2675990D01*
G01X5204220Y2675990D02*
G01X5204220Y2635990D01*
G01X5184220Y2635990D02*
G01X5204220Y2635990D01*
G01X5189220Y2653990D02*
G01X5204220Y2653990D01*
G01X5172220Y2675990D02*
G01X5172220Y2635990D01*
G01X5152220Y2635990D02*
G01X5172220Y2635990D01*
G01X5157220Y2653990D02*
G01X5172220Y2653990D01*
G01X5120220Y2635990D02*
G01X5115220Y2640990D01*
G01X5120220Y2635990D02*
G01X5135220Y2635990D01*
G01X5140220Y2640990D02*
G01X5135220Y2635990D01*
G01X5140220Y2650990D02*
G01X5140220Y2640990D01*
G01X5140220Y2650990D02*
G01X5135220Y2655990D01*
G01X5120220Y2655990D02*
G01X5135220Y2655990D01*
G01X5120220Y2655990D02*
G01X5115220Y2660990D01*
G01X5115220Y2670990D02*
G01X5115220Y2660990D01*
G01X5120220Y2675990D02*
G01X5115220Y2670990D01*
G01X5120220Y2675990D02*
G01X5135220Y2675990D01*
G01X5140220Y2670990D02*
G01X5135220Y2675990D01*
G01X5088220Y2653990D02*
G01X5103220Y2653990D01*
G01X5083220Y2675990D02*
G01X5103220Y2675990D01*
G01X5103220Y2675990D02*
G01X5103220Y2635990D01*
G01X5083220Y2635990D02*
G01X5103220Y2635990D01*
G01X5051220Y2635990D02*
G01X5071220Y2635990D01*
G01X5061220Y2675990D02*
G01X5061220Y2635990D01*
G01X5039220Y2640990D02*
G01X5034220Y2635990D01*
G01X5024220Y2635990D02*
G01X5034220Y2635990D01*
G01X5024220Y2635990D02*
G01X5019220Y2640990D01*
G01X5024220Y2675990D02*
G01X5019220Y2670990D01*
G01X5024220Y2675990D02*
G01X5034220Y2675990D01*
G01X5039220Y2670990D02*
G01X5034220Y2675990D01*
G01X5024220Y2653990D02*
G01X5034220Y2653990D01*
G01X5019220Y2648990D02*
G01X5019220Y2640990D01*
G01X5019220Y2670990D02*
G01X5019220Y2658990D01*
G01X5019220Y2658990D02*
G01X5024220Y2653990D01*
G01X5019220Y2648990D02*
G01X5024220Y2653990D01*
G01X4881890Y2822680D02*
G01X4881890Y2782680D01*
G01X4906890Y2822680D02*
G01X4906890Y2782680D01*
G01X4881890Y2802680D02*
G01X4906890Y2802680D01*
G01X4918890Y2814680D02*
G01X4926890Y2822680D01*
G01X4926890Y2822680D02*
G01X4926890Y2782680D01*
G01X4918890Y2782680D02*
G01X4933890Y2782680D01*
G01X4945890Y2787680D02*
G01X4950890Y2782680D01*
G01X4945890Y2817680D02*
G01X4945890Y2787680D01*
G01X4945890Y2817680D02*
G01X4950890Y2822680D01*
G01X4950890Y2822680D02*
G01X4960890Y2822680D01*
G01X4960890Y2822680D02*
G01X4965890Y2817680D01*
G01X4965890Y2817680D02*
G01X4965890Y2787680D01*
G01X4960890Y2782680D02*
G01X4965890Y2787680D01*
G01X4950890Y2782680D02*
G01X4960890Y2782680D01*
G01X4945890Y2792680D02*
G01X4965890Y2812680D01*
G01X4881890Y2665200D02*
G01X4881890Y2625200D01*
G01X4906890Y2665200D02*
G01X4906890Y2625200D01*
G01X4881890Y2645200D02*
G01X4906890Y2645200D01*
G01X4923890Y2625200D02*
G01X4938890Y2645200D01*
G01X4938890Y2660200D02*
G01X4938890Y2645200D01*
G01X4933890Y2665200D02*
G01X4938890Y2660200D01*
G01X4923890Y2665200D02*
G01X4933890Y2665200D01*
G01X4918890Y2660200D02*
G01X4923890Y2665200D01*
G01X4918890Y2660200D02*
G01X4918890Y2650200D01*
G01X4918890Y2650200D02*
G01X4923890Y2645200D01*
G01X4923890Y2645200D02*
G01X4938890Y2645200D01*
G01X5186850Y2281500D02*
G01X5186850Y2261500D01*
G01X5186850Y2261500D02*
G01X5181850Y2256500D01*
G01X5171850Y2256500D02*
G01X5181850Y2256500D01*
G01X5166850Y2261500D02*
G01X5171850Y2256500D01*
G01X5166850Y2276500D02*
G01X5166850Y2261500D01*
G01X5146850Y2276500D02*
G01X5186850Y2276500D01*
G01X5166850Y2268500D02*
G01X5146850Y2256500D01*
G01X5186850Y2244500D02*
G01X5186850Y2234500D01*
G01X5146850Y2239500D02*
G01X5186850Y2239500D01*
G01X5146850Y2244500D02*
G01X5146850Y2234500D01*
G01X5146850Y2222500D02*
G01X5186850Y2222500D01*
G01X5186850Y2222500D02*
G01X5146850Y2197500D01*
G01X5146850Y2197500D02*
G01X5186850Y2197500D01*
G01X5186850Y2165500D02*
G01X5181850Y2160500D01*
G01X5186850Y2180500D02*
G01X5186850Y2165500D01*
G01X5181850Y2185500D02*
G01X5186850Y2180500D01*
G01X5151850Y2185500D02*
G01X5181850Y2185500D01*
G01X5151850Y2185500D02*
G01X5146850Y2180500D01*
G01X5146850Y2180500D02*
G01X5146850Y2165500D01*
G01X5146850Y2165500D02*
G01X5151850Y2160500D01*
G01X5151850Y2160500D02*
G01X5161850Y2160500D01*
G01X5166850Y2165500D02*
G01X5161850Y2160500D01*
G01X5166850Y2175500D02*
G01X5166850Y2165500D01*
G01X5181850Y2148500D02*
G01X5186850Y2143500D01*
G01X5186850Y2143500D02*
G01X5186850Y2133500D01*
G01X5186850Y2133500D02*
G01X5181850Y2128500D01*
G01X5146850Y2133500D02*
G01X5151850Y2128500D01*
G01X5146850Y2143500D02*
G01X5146850Y2133500D01*
G01X5151850Y2148500D02*
G01X5146850Y2143500D01*
G01X5168850Y2143500D02*
G01X5168850Y2133500D01*
G01X5173850Y2128500D02*
G01X5181850Y2128500D01*
G01X5151850Y2128500D02*
G01X5163850Y2128500D01*
G01X5163850Y2128500D02*
G01X5168850Y2133500D01*
G01X5173850Y2128500D02*
G01X5168850Y2133500D01*
G01X5590550Y2665200D02*
G01X5590550Y2625200D01*
G01X5615550Y2665200D02*
G01X5615550Y2625200D01*
G01X5590550Y2645200D02*
G01X5615550Y2645200D01*
G01X5627550Y2657200D02*
G01X5635550Y2665200D01*
G01X5635550Y2665200D02*
G01X5635550Y2625200D01*
G01X5627550Y2625200D02*
G01X5642550Y2625200D01*
G01X5654550Y2657200D02*
G01X5662550Y2665200D01*
G01X5662550Y2665200D02*
G01X5662550Y2625200D01*
G01X5654550Y2625200D02*
G01X5669550Y2625200D01*
G01X5590550Y2822680D02*
G01X5590550Y2782680D01*
G01X5615550Y2822680D02*
G01X5615550Y2782680D01*
G01X5590550Y2802680D02*
G01X5615550Y2802680D01*
G01X5627550Y2814680D02*
G01X5635550Y2822680D01*
G01X5635550Y2822680D02*
G01X5635550Y2782680D01*
G01X5627550Y2782680D02*
G01X5642550Y2782680D01*
G01X5654550Y2817680D02*
G01X5659550Y2822680D01*
G01X5659550Y2822680D02*
G01X5674550Y2822680D01*
G01X5674550Y2822680D02*
G01X5679550Y2817680D01*
G01X5679550Y2817680D02*
G01X5679550Y2807680D01*
G01X5654550Y2782680D02*
G01X5679550Y2807680D01*
G01X5654550Y2782680D02*
G01X5679550Y2782680D01*
G01X0000000Y0000000D02*
G54D13*
G01X0000000Y18000000D02*
G01X0000000Y0000000D01*
G01X0000000Y18000000D02*
G01X24000000Y18000000D01*
G01X0000000Y0000000D02*
G01X24000000Y0000000D01*
G01X24000000Y18000000D02*
G01X24000000Y0000000D01*
G01X0000000Y0000000D02*
G54D14*
G01X6181100Y2338580D03*
G54D15*
G01X6152360Y2462720D03*
G54D14*
G01X6240160Y2279530D03*
G54D15*
G01X6352360Y2577720D03*
G01X6352360Y2462720D03*
G01X6252360Y2477720D03*
G01X6252360Y2562720D03*
G01X6152360Y2577720D03*
G01X6052360Y2562720D03*
G01X6052360Y2477720D03*
G54D16*
G01X6456690Y2675200D03*
G54D14*
G01X6102360Y2360240D03*
G01X5944880Y2202760D03*
G01X6023620Y2338580D03*
G01X5964570Y2279530D03*
G54D17*
G01X6102360Y2202760D03*
G54D14*
G01X6102360Y2045280D03*
G01X6259840Y2202760D03*
G01X6181100Y2066930D03*
G01X6240160Y2125980D03*
G01X6023620Y2066930D03*
G01X5964570Y2125980D03*
G54D15*
G01X5952360Y2462720D03*
G54D16*
G01X6456690Y2832680D03*
G01X5748030Y2832680D03*
G01X5590550Y2832680D03*
G01X4881890Y2832680D03*
G54D15*
G01X5952360Y2577720D03*
G01X5852360Y2562720D03*
G01X5852360Y2477720D03*
G54D16*
G01X5748030Y2675200D03*
G01X5590550Y2675200D03*
G54D15*
G01X5485990Y2577880D03*
G01X5285990Y2577880D03*
G01X5185990Y2562880D03*
G01X5085990Y2577880D03*
G01X4985990Y2562880D03*
G54D16*
G01X4881890Y2675200D03*
G54D15*
G01X5485990Y2462880D03*
G01X5285990Y2462880D03*
G01X5185990Y2477880D03*
G01X5085990Y2462880D03*
G01X4985990Y2477880D03*
G01X5385990Y2477880D03*
G01X5385990Y2562880D03*
G54D17*
G01X5236220Y2202760D03*
G54D14*
G01X5078740Y2202760D03*
G01X5098430Y2279530D03*
G01X5098430Y2125980D03*
G01X5236220Y2045280D03*
G01X5236220Y2360240D03*
G01X5157480Y2338580D03*
G01X5157480Y2066930D03*
G01X5393700Y2202760D03*
G01X5314960Y2066930D03*
G01X5314960Y2338580D03*
G01X5374020Y2125980D03*
G01X5374020Y2279530D03*
G54D18*
G36*
G01X6330670Y2807830D02*
G01X6302400Y2807830D01*
G01X6302400Y2760280D01*
G01X6330670Y2760280D01*
G01X6330670Y2807830D01*
G37*
G36*
G01X6330670Y2747600D02*
G01X6302400Y2747600D01*
G01X6302400Y2700040D01*
G01X6330670Y2700040D01*
G01X6330670Y2747600D01*
G37*
G36*
G01X6080870Y2808430D02*
G01X6054570Y2808430D01*
G01X6054570Y2770310D01*
G01X6080870Y2770310D01*
G01X6080870Y2808430D01*
G37*
G36*
G01X6094650Y2808430D02*
G01X6068350Y2808430D01*
G01X6068350Y2770310D01*
G01X6094650Y2770310D01*
G01X6094650Y2808430D01*
G37*
G36*
G01X6108430Y2808430D02*
G01X6082130Y2808430D01*
G01X6082130Y2770310D01*
G01X6108430Y2770310D01*
G01X6108430Y2808430D01*
G37*
G36*
G01X6122200Y2808430D02*
G01X6095910Y2808430D01*
G01X6095910Y2770310D01*
G01X6122200Y2770310D01*
G01X6122200Y2808430D01*
G37*
G36*
G01X6135980Y2808430D02*
G01X6109690Y2808430D01*
G01X6109690Y2770310D01*
G01X6135980Y2770310D01*
G01X6135980Y2808430D01*
G37*
G36*
G01X6149760Y2808430D02*
G01X6123460Y2808430D01*
G01X6123460Y2770310D01*
G01X6149760Y2770310D01*
G01X6149760Y2808430D01*
G37*
G36*
G01X6163540Y2808430D02*
G01X6137240Y2808430D01*
G01X6137240Y2770310D01*
G01X6163540Y2770310D01*
G01X6163540Y2808430D01*
G37*
G36*
G01X6177320Y2808430D02*
G01X6151020Y2808430D01*
G01X6151020Y2770310D01*
G01X6177320Y2770310D01*
G01X6177320Y2808430D01*
G37*
G36*
G01X6191100Y2808430D02*
G01X6164800Y2808430D01*
G01X6164800Y2770310D01*
G01X6191100Y2770310D01*
G01X6191100Y2808430D01*
G37*
G36*
G01X6204880Y2808430D02*
G01X6178580Y2808430D01*
G01X6178580Y2770310D01*
G01X6204880Y2770310D01*
G01X6204880Y2808430D01*
G37*
G36*
G01X6218660Y2808430D02*
G01X6192360Y2808430D01*
G01X6192360Y2770310D01*
G01X6218660Y2770310D01*
G01X6218660Y2808430D01*
G37*
G36*
G01X6232440Y2808430D02*
G01X6206140Y2808430D01*
G01X6206140Y2770310D01*
G01X6232440Y2770310D01*
G01X6232440Y2808430D01*
G37*
G36*
G01X6246220Y2808430D02*
G01X6219920Y2808430D01*
G01X6219920Y2770310D01*
G01X6246220Y2770310D01*
G01X6246220Y2808430D01*
G37*
G36*
G01X6260000Y2808430D02*
G01X6233700Y2808430D01*
G01X6233700Y2770310D01*
G01X6260000Y2770310D01*
G01X6260000Y2808430D01*
G37*
G36*
G01X6273780Y2808430D02*
G01X6247480Y2808430D01*
G01X6247480Y2770310D01*
G01X6273780Y2770310D01*
G01X6273780Y2808430D01*
G37*
G36*
G01X6287560Y2808430D02*
G01X6261260Y2808430D01*
G01X6261260Y2770310D01*
G01X6287560Y2770310D01*
G01X6287560Y2808430D01*
G37*
G36*
G01X6301340Y2808430D02*
G01X6275040Y2808430D01*
G01X6275040Y2770310D01*
G01X6301340Y2770310D01*
G01X6301340Y2808430D01*
G37*
G36*
G01X6315120Y2808430D02*
G01X6288820Y2808430D01*
G01X6288820Y2770310D01*
G01X6315120Y2770310D01*
G01X6315120Y2808430D01*
G37*
G36*
G01X6108430Y2737560D02*
G01X6082130Y2737560D01*
G01X6082130Y2699450D01*
G01X6108430Y2699450D01*
G01X6108430Y2737560D01*
G37*
G36*
G01X6122200Y2737560D02*
G01X6095910Y2737560D01*
G01X6095910Y2699450D01*
G01X6122200Y2699450D01*
G01X6122200Y2737560D01*
G37*
G36*
G01X6135980Y2737560D02*
G01X6109690Y2737560D01*
G01X6109690Y2699450D01*
G01X6135980Y2699450D01*
G01X6135980Y2737560D01*
G37*
G36*
G01X6149760Y2737560D02*
G01X6123460Y2737560D01*
G01X6123460Y2699450D01*
G01X6149760Y2699450D01*
G01X6149760Y2737560D01*
G37*
G36*
G01X6163540Y2737560D02*
G01X6137240Y2737560D01*
G01X6137240Y2699450D01*
G01X6163540Y2699450D01*
G01X6163540Y2737560D01*
G37*
G36*
G01X6177320Y2737560D02*
G01X6151020Y2737560D01*
G01X6151020Y2699450D01*
G01X6177320Y2699450D01*
G01X6177320Y2737560D01*
G37*
G36*
G01X6191100Y2737560D02*
G01X6164800Y2737560D01*
G01X6164800Y2699450D01*
G01X6191100Y2699450D01*
G01X6191100Y2737560D01*
G37*
G36*
G01X6204880Y2737560D02*
G01X6178580Y2737560D01*
G01X6178580Y2699450D01*
G01X6204880Y2699450D01*
G01X6204880Y2737560D01*
G37*
G36*
G01X6218660Y2737560D02*
G01X6192360Y2737560D01*
G01X6192360Y2699450D01*
G01X6218660Y2699450D01*
G01X6218660Y2737560D01*
G37*
G36*
G01X6232440Y2737560D02*
G01X6206140Y2737560D01*
G01X6206140Y2699450D01*
G01X6232440Y2699450D01*
G01X6232440Y2737560D01*
G37*
G36*
G01X6246220Y2737560D02*
G01X6219920Y2737560D01*
G01X6219920Y2699450D01*
G01X6246220Y2699450D01*
G01X6246220Y2737560D01*
G37*
G36*
G01X6260000Y2737560D02*
G01X6233700Y2737560D01*
G01X6233700Y2699450D01*
G01X6260000Y2699450D01*
G01X6260000Y2737560D01*
G37*
G36*
G01X6273780Y2737560D02*
G01X6247480Y2737560D01*
G01X6247480Y2699450D01*
G01X6273780Y2699450D01*
G01X6273780Y2737560D01*
G37*
G36*
G01X6287560Y2737560D02*
G01X6261260Y2737560D01*
G01X6261260Y2699450D01*
G01X6287560Y2699450D01*
G01X6287560Y2737560D01*
G37*
G36*
G01X6301340Y2737560D02*
G01X6275040Y2737560D01*
G01X6275040Y2699450D01*
G01X6301340Y2699450D01*
G01X6301340Y2737560D01*
G37*
G36*
G01X6315120Y2737560D02*
G01X6288820Y2737560D01*
G01X6288820Y2699450D01*
G01X6315120Y2699450D01*
G01X6315120Y2737560D01*
G37*
G36*
G01X5901930Y2807830D02*
G01X5873660Y2807830D01*
G01X5873660Y2760280D01*
G01X5901930Y2760280D01*
G01X5901930Y2807830D01*
G37*
G36*
G01X5901930Y2747600D02*
G01X5873660Y2747600D01*
G01X5873660Y2700040D01*
G01X5901930Y2700040D01*
G01X5901930Y2747600D01*
G37*
G36*
G01X5915510Y2808430D02*
G01X5889210Y2808430D01*
G01X5889210Y2770310D01*
G01X5915510Y2770310D01*
G01X5915510Y2808430D01*
G37*
G36*
G01X5929290Y2808430D02*
G01X5902990Y2808430D01*
G01X5902990Y2770310D01*
G01X5929290Y2770310D01*
G01X5929290Y2808430D01*
G37*
G36*
G01X5943070Y2808430D02*
G01X5916770Y2808430D01*
G01X5916770Y2770310D01*
G01X5943070Y2770310D01*
G01X5943070Y2808430D01*
G37*
G36*
G01X5956850Y2808430D02*
G01X5930550Y2808430D01*
G01X5930550Y2770310D01*
G01X5956850Y2770310D01*
G01X5956850Y2808430D01*
G37*
G36*
G01X5970630Y2808430D02*
G01X5944330Y2808430D01*
G01X5944330Y2770310D01*
G01X5970630Y2770310D01*
G01X5970630Y2808430D01*
G37*
G36*
G01X5915510Y2737560D02*
G01X5889210Y2737560D01*
G01X5889210Y2699450D01*
G01X5915510Y2699450D01*
G01X5915510Y2737560D01*
G37*
G36*
G01X5984410Y2808430D02*
G01X5958110Y2808430D01*
G01X5958110Y2770310D01*
G01X5984410Y2770310D01*
G01X5984410Y2808430D01*
G37*
G36*
G01X5998190Y2808430D02*
G01X5971890Y2808430D01*
G01X5971890Y2770310D01*
G01X5998190Y2770310D01*
G01X5998190Y2808430D01*
G37*
G36*
G01X6011970Y2808430D02*
G01X5985670Y2808430D01*
G01X5985670Y2770310D01*
G01X6011970Y2770310D01*
G01X6011970Y2808430D01*
G37*
G36*
G01X6025750Y2808430D02*
G01X5999450Y2808430D01*
G01X5999450Y2770310D01*
G01X6025750Y2770310D01*
G01X6025750Y2808430D01*
G37*
G36*
G01X6039530Y2808430D02*
G01X6013230Y2808430D01*
G01X6013230Y2770310D01*
G01X6039530Y2770310D01*
G01X6039530Y2808430D01*
G37*
G36*
G01X6053310Y2808430D02*
G01X6027010Y2808430D01*
G01X6027010Y2770310D01*
G01X6053310Y2770310D01*
G01X6053310Y2808430D01*
G37*
G36*
G01X6067090Y2808430D02*
G01X6040790Y2808430D01*
G01X6040790Y2770310D01*
G01X6067090Y2770310D01*
G01X6067090Y2808430D01*
G37*
G36*
G01X5929290Y2737560D02*
G01X5902990Y2737560D01*
G01X5902990Y2699450D01*
G01X5929290Y2699450D01*
G01X5929290Y2737560D01*
G37*
G36*
G01X5943070Y2737560D02*
G01X5916770Y2737560D01*
G01X5916770Y2699450D01*
G01X5943070Y2699450D01*
G01X5943070Y2737560D01*
G37*
G36*
G01X5956850Y2737560D02*
G01X5930550Y2737560D01*
G01X5930550Y2699450D01*
G01X5956850Y2699450D01*
G01X5956850Y2737560D01*
G37*
G36*
G01X5970630Y2737560D02*
G01X5944330Y2737560D01*
G01X5944330Y2699450D01*
G01X5970630Y2699450D01*
G01X5970630Y2737560D01*
G37*
G36*
G01X5984410Y2737560D02*
G01X5958110Y2737560D01*
G01X5958110Y2699450D01*
G01X5984410Y2699450D01*
G01X5984410Y2737560D01*
G37*
G36*
G01X5998190Y2737560D02*
G01X5971890Y2737560D01*
G01X5971890Y2699450D01*
G01X5998190Y2699450D01*
G01X5998190Y2737560D01*
G37*
G36*
G01X6011970Y2737560D02*
G01X5985670Y2737560D01*
G01X5985670Y2699450D01*
G01X6011970Y2699450D01*
G01X6011970Y2737560D01*
G37*
G36*
G01X6025750Y2737560D02*
G01X5999450Y2737560D01*
G01X5999450Y2699450D01*
G01X6025750Y2699450D01*
G01X6025750Y2737560D01*
G37*
G36*
G01X6039530Y2737560D02*
G01X6013230Y2737560D01*
G01X6013230Y2699450D01*
G01X6039530Y2699450D01*
G01X6039530Y2737560D01*
G37*
G36*
G01X6053310Y2737560D02*
G01X6027010Y2737560D01*
G01X6027010Y2699450D01*
G01X6053310Y2699450D01*
G01X6053310Y2737560D01*
G37*
G36*
G01X6067090Y2737560D02*
G01X6040790Y2737560D01*
G01X6040790Y2699450D01*
G01X6067090Y2699450D01*
G01X6067090Y2737560D01*
G37*
G36*
G01X6080870Y2737560D02*
G01X6054570Y2737560D01*
G01X6054570Y2699450D01*
G01X6080870Y2699450D01*
G01X6080870Y2737560D01*
G37*
G36*
G01X6094650Y2737560D02*
G01X6068350Y2737560D01*
G01X6068350Y2699450D01*
G01X6094650Y2699450D01*
G01X6094650Y2737560D01*
G37*
G01X0000000Y0000000D02*
G54D20*
G01X4986000Y2562900D03*
G01X4986000Y2477900D03*
G01X5086000Y2577900D03*
G01X5086000Y2462900D03*
G01X5186000Y2562900D03*
G01X5186000Y2477900D03*
G01X5286000Y2577900D03*
G01X5286000Y2462900D03*
G01X5386000Y2562900D03*
G01X5386000Y2477900D03*
G01X5486000Y2577900D03*
G01X5486000Y2462900D03*
G01X5852400Y2562700D03*
G01X5852400Y2477700D03*
G01X5952400Y2577700D03*
G01X5952400Y2462700D03*
G01X6052400Y2562700D03*
G01X6052400Y2477700D03*
G01X6152400Y2577700D03*
G01X6152400Y2462700D03*
G01X6252400Y2562700D03*
G01X6252400Y2477700D03*
G01X6352400Y2577700D03*
G01X6352400Y2462700D03*
G54D19*
G01X5078700Y2202800D03*
G01X5098400Y2279500D03*
G01X5098400Y2126000D03*
G01X5157500Y2338600D03*
G01X5157500Y2066900D03*
G01X5236200Y2360200D03*
G01X5236200Y2045300D03*
G01X5315000Y2338600D03*
G01X5315000Y2066900D03*
G01X5374000Y2279500D03*
G01X5374000Y2126000D03*
G01X5393700Y2202800D03*
G01X5944900Y2202800D03*
G01X5964600Y2279500D03*
G01X5964600Y2126000D03*
G01X6023600Y2338600D03*
G01X6023600Y2066900D03*
G01X6102400Y2360200D03*
G01X6102400Y2045300D03*
G01X6181100Y2338600D03*
G01X6181100Y2066900D03*
G01X6240200Y2279500D03*
G01X6240200Y2126000D03*
G01X6259800Y2202800D03*
G54D21*
G01X4881900Y2832700D03*
G01X4881900Y2675200D03*
G01X5236200Y2202800D03*
G01X5590600Y2832700D03*
G01X5590600Y2675200D03*
G01X5748000Y2832700D03*
G01X5748000Y2675200D03*
G01X6102400Y2202800D03*
G01X6456700Y2832700D03*
G01X6456700Y2675200D03*
M02*
