M48
INCH
T222C0.035
T221C0.012
T220C0.010
T219C0.039
T218C0.187
T217C0.035
T216C0.094
T215C0.051
T214C0.063
T213C0.038
T212C0.089
T211C0.030
T210C0.049
T209C0.020
T208C0.079
%
T220
X042300Y049350
X043850Y048950
X044050Y049900
X044250Y039750
X044400Y036600
X044900Y039950
X045800Y048100
X045800Y045550
X045800Y043100
X045800Y040300
X045800Y036600
X045800Y033800
X045900Y051000
X045941Y039109
X046150Y049600
X046150Y045550
X046150Y043100
X046150Y040300
X046150Y036600
X046150Y033800
X046200Y050050
X046450Y036150
X046450Y033800
X046500Y049400
X046500Y048050
X046500Y046650
X046500Y042650
X046500Y040300
X046750Y035650
X046750Y033800
X046800Y046800
X046850Y041600
X046850Y040200
X046950Y049350
X047050Y035300
X047050Y034350
X047150Y048750
X047150Y047800
X047200Y042000
X047200Y040450
X047250Y049150
X047400Y035150
X047400Y034350
X047550Y041600
X047550Y040450
X047700Y048950
X047700Y048100
X047900Y043300
X047900Y042650
X047900Y041250
X048050Y048200
X048150Y048550
X049450Y050800
X049500Y050050
X049685Y053780
X049750Y050450
X050150Y041200
X050157Y054291
X050197Y056850
X050354Y054528
X050550Y052250
X051100Y052250
X051150Y043550
X051535Y053937
X051800Y043100
X051800Y036600
X051811Y053819
X051850Y049400
X052087Y052992
X052150Y048100
X052150Y043100
X052150Y036600
X052500Y047250
X052500Y043100
X052500Y036600
X052520Y053780
X052800Y050150
X052800Y047650
X052800Y046150
X052800Y036600
X052850Y043100
X052992Y053976
X053100Y050150
X053100Y047400
X053100Y046150
X053100Y036600
X053200Y043100
X053307Y053976
X053400Y046800
X053400Y036600
X053550Y043100
X053622Y053031
X053750Y046450
X054055Y057362
X054370Y057047
X054685Y056260
X055236Y056496
X057060Y034010
X057370Y034100
X057650Y034180
X058240Y034170
X058346Y053780
X058360Y033590
X058480Y034280
X058800Y033590
X058819Y054291
X058858Y056850
X059016Y054528
X059150Y033800
X059700Y035700
X060197Y053937
X060472Y053819
X060748Y052992
X061181Y053780
X061400Y035650
X061654Y053976
X061969Y053976
X062250Y035650
X062283Y053031
X062717Y057362
X063031Y057047
X063346Y056260
X063898Y056496
T221
X055079Y053819
X057840Y034520
X058970Y034200
X063740Y053819
T209
X078543Y060315
X078543Y058740
X078543Y057165
X078543Y055591
X078543Y054016
X078543Y052441
X078543Y050866
X078543Y049291
X078543Y047717
X078543Y046142
X078543Y044567
X078543Y042992
X078543Y041417
X078543Y039843
X078543Y038268
X078543Y036693
X078543Y035118
X078543Y033543
X078543Y031969
X078543Y030394
X078543Y028819
X078543Y027244
X078543Y025669
X078543Y024094
X078543Y022520
T211
X078898Y060000
X078898Y058425
X078898Y056850
X078898Y055276
X078898Y053701
X078898Y052126
X078898Y050551
X078898Y048976
X078898Y047402
X078898Y045827
X078898Y044252
X078898Y042677
X078898Y041102
X078898Y039528
X078898Y037953
X078898Y036378
X078898Y034803
X078898Y033228
X078898Y031654
X078898Y030079
X078898Y028504
X078898Y026929
X078898Y025354
X078898Y023780
X078898Y022205
T222
X061000Y034700
T217
X044646Y049202
X044646Y048399
X044646Y047596
X044646Y046793
X044646Y042702
X044646Y041899
X044646Y041096
X044646Y040293
X044646Y036202
X044646Y035399
X044646Y034596
X044646Y033793
X045354Y049604
X045354Y048801
X045354Y047998
X045354Y047194
X045354Y043104
X045354Y042301
X045354Y041498
X045354Y040694
X045354Y036604
X045354Y035801
X045354Y034998
X045354Y034194
X047248Y050954
X047248Y049950
X047248Y046446
X047248Y045443
X047248Y044454
X047248Y043450
X047248Y039946
X047248Y038943
X047248Y037954
X047248Y036950
X047248Y033446
X047248Y032443
X048752Y050954
X048752Y049950
X048752Y046446
X048752Y045443
X048752Y044454
X048752Y043450
X048752Y039946
X048752Y038943
X048752Y037954
X048752Y036950
X048752Y033446
X048752Y032443
X050646Y049202
X050646Y048399
X050646Y047596
X050646Y046793
X050646Y042702
X050646Y041899
X050646Y041096
X050646Y040293
X050646Y036202
X050646Y035399
X050646Y034596
X050646Y033793
X051354Y049604
X051354Y048801
X051354Y047998
X051354Y047194
X051354Y043104
X051354Y042301
X051354Y041498
X051354Y040694
X051354Y036604
X051354Y035801
X051354Y034998
X051354Y034194
T213
X005750Y061500
X005750Y049500
X005750Y037500
X006750Y061500
X006750Y049500
X006750Y037500
X007750Y061500
X007750Y049500
X007750Y037500
X008750Y061500
X008750Y049500
X008750Y037500
X009750Y061500
X009750Y049500
X009750Y037500
X010750Y061500
X010750Y049500
X010750Y037500
X012250Y061500
X012250Y060500
X012250Y049500
X012250Y048500
X012250Y037500
X012250Y036500
X013250Y061500
X013250Y060500
X013250Y049500
X013250Y048500
X013250Y037500
X013250Y036500
X016150Y061500
X016150Y060500
X016150Y049500
X016150Y048500
X016150Y037500
X016150Y036500
X017150Y061500
X017150Y060500
X017150Y049500
X017150Y048500
X017150Y037500
X017150Y036500
X018150Y061500
X018150Y060500
X018150Y049500
X018150Y048500
X018150Y037500
X018150Y036500
X019150Y061500
X019150Y060500
X019150Y049500
X019150Y048500
X019150Y037500
X019150Y036500
X020150Y061500
X020150Y060500
X020150Y049500
X020150Y048500
X020150Y037500
X020150Y036500
X022100Y059000
X022100Y058000
X022100Y057000
X022100Y056000
X022100Y055000
X022100Y054000
X022100Y047000
X022100Y046000
X022100Y045000
X022100Y044000
X022100Y043000
X022100Y042000
X022100Y035000
X022100Y034000
X022100Y033000
X022100Y032000
X022100Y031000
X022100Y030000
X023100Y061500
X023100Y060500
X023100Y049500
X023100Y048500
X023100Y037500
X023100Y036500
X024000Y059000
X024000Y054000
X024000Y047000
X024000Y042000
X024000Y035000
X024000Y030000
X024100Y061500
X024100Y060500
X024100Y049500
X024100Y048500
X024100Y037500
X024100Y036500
X025000Y059000
X025000Y054000
X025000Y047000
X025000Y042000
X025000Y035000
X025000Y030000
X025100Y061500
X025100Y060500
X025100Y049500
X025100Y048500
X025100Y037500
X025100Y036500
X026000Y059000
X026000Y054000
X026000Y047000
X026000Y042000
X026000Y035000
X026000Y030000
X026100Y061500
X026100Y060500
X026100Y049500
X026100Y048500
X026100Y037500
X026100Y036500
X027000Y059000
X027000Y054000
X027000Y047000
X027000Y042000
X027000Y035000
X027000Y030000
X027100Y061500
X027100Y060500
X027100Y049500
X027100Y048500
X027100Y037500
X027100Y036500
X028000Y059000
X028000Y054000
X028000Y047000
X028000Y042000
X028000Y035000
X028000Y030000
X029000Y059000
X029000Y054000
X029000Y047000
X029000Y042000
X029000Y035000
X029000Y030000
X030000Y061500
X030000Y060500
X030000Y059000
X030000Y054000
X030000Y049500
X030000Y048500
X030000Y047000
X030000Y042000
X030000Y037500
X030000Y036500
X030000Y035000
X030000Y030000
X031000Y061500
X031000Y060500
X031000Y059000
X031000Y054000
X031000Y049500
X031000Y048500
X031000Y047000
X031000Y042000
X031000Y037500
X031000Y036500
X031000Y035000
X031000Y030000
X033000Y061500
X033000Y054000
X033000Y049500
X033000Y042000
X033000Y037500
X033000Y030000
X034000Y061500
X034000Y054000
X034000Y049500
X034000Y042000
X034000Y037500
X034000Y030000
X035000Y061500
X035000Y054000
X035000Y049500
X035000Y042000
X035000Y037500
X035000Y030000
X036000Y061500
X036000Y054000
X036000Y049500
X036000Y042000
X036000Y037500
X036000Y030000
X037000Y061500
X037000Y054000
X037000Y049500
X037000Y042000
X037000Y037500
X037000Y030000
X038000Y061500
X038000Y054000
X038000Y049500
X038000Y042000
X038000Y037500
X038000Y030000
X039000Y061500
X039000Y054000
X039000Y049500
X039000Y042000
X039000Y037500
X039000Y030000
X040000Y061500
X040000Y054000
X040000Y049500
X040000Y042000
X040000Y037500
X040000Y030000
X049861Y055943
X049861Y054793
X050861Y055793
X050861Y054943
X051861Y055943
X051861Y054793
X052861Y055793
X052861Y054943
X053861Y055943
X053861Y054793
X054861Y055793
X054861Y054943
X057500Y032950
X057500Y031950
X057500Y030600
X057500Y029600
X058300Y065000
X058300Y064000
X058500Y032950
X058500Y031950
X058500Y030600
X058500Y029600
X058523Y055943
X058523Y054793
X059300Y065000
X059300Y064000
X059500Y032950
X059500Y031950
X059500Y030600
X059500Y029600
X059523Y055793
X059523Y054943
X060500Y032950
X060500Y031950
X060500Y030600
X060500Y029600
X060523Y055943
X060523Y054793
X061500Y032950
X061500Y031950
X061500Y030600
X061500Y029600
X061523Y055793
X061523Y054943
X062500Y032950
X062500Y031950
X062500Y030600
X062500Y029600
X062523Y055943
X062523Y054793
X063500Y032950
X063500Y031950
X063500Y030600
X063500Y029600
X063523Y055793
X063523Y054943
X064500Y032950
X064500Y031950
X064500Y030600
X064500Y029600
X065500Y032950
X065500Y031950
X065500Y030600
X065500Y029600
X066150Y069000
X066150Y068000
X066150Y067000
X066150Y066000
X066150Y065000
X066150Y064000
X066150Y063000
X066150Y062000
X066500Y032950
X066500Y031950
X066500Y030600
X066500Y029600
X069100Y069050
X069100Y068050
X069100Y067050
X069100Y066050
X069100Y065050
X069100Y064050
X069100Y063050
X069100Y062050
X076000Y065000
X076000Y064000
X077000Y065000
X077000Y064000
T219
X050787Y058543
X050984Y059311
X050984Y057776
X051575Y059902
X051575Y057185
X052362Y060118
X052362Y056969
X053150Y059902
X053150Y057185
X053740Y059311
X053740Y057776
X053937Y058543
X059449Y058543
X059646Y059311
X059646Y057776
X060236Y059902
X060236Y057185
X061024Y060118
X061024Y056969
X061811Y059902
X061811Y057185
X062402Y059311
X062402Y057776
X062598Y058543
T210
X079488Y059961
X079488Y058386
X079488Y056811
X079488Y055236
X079488Y053661
X079488Y052087
X079488Y050512
X079488Y048937
X079488Y047362
X079488Y045787
X079488Y044213
X079488Y042638
X079488Y041063
X079488Y039488
X079488Y037913
X079488Y036339
X079488Y034764
X079488Y033189
X079488Y031614
X079488Y030039
X079488Y028465
X079488Y026890
X079488Y025315
X079488Y023740
X079488Y022165
T215
X043650Y050718
X043650Y045679
X043650Y044218
X043650Y039179
X043650Y037718
X043650Y032679
X052350Y050718
X052350Y045679
X052350Y044218
X052350Y039179
X052350Y037718
X052350Y032679
T214
X059449Y050374
X059449Y048406
X059449Y046437
X059449Y044469
X059449Y042500
X059449Y040531
X059449Y038563
X059449Y036594
X059449Y034626
X063386Y050374
X063386Y048406
X063386Y046437
X063386Y044469
X063386Y042500
X063386Y040531
X063386Y038563
X063386Y036594
X063386Y034626
X067126Y050374
X067126Y048406
X067126Y046437
X067126Y044469
X067126Y042500
X067126Y040531
X067126Y038563
X067126Y036594
X067126Y034626
T208
X048819Y053819
X048819Y052244
X052362Y058543
X055906Y053819
X055906Y052244
X057480Y053819
X057480Y052244
X061024Y058543
X064567Y053819
X064567Y052244
X079134Y060709
X079134Y059134
X079134Y057559
X079134Y055984
X079134Y054409
X079134Y052835
X079134Y051260
X079134Y049685
X079134Y048110
X079134Y046535
X079134Y044961
X079134Y043386
X079134Y041811
X079134Y040236
X079134Y038661
X079134Y037087
X079134Y035512
X079134Y033937
X079134Y032362
X079134Y030787
X079134Y029213
X079134Y027638
X079134Y026063
X079134Y024488
X079134Y022913
T212
X068209Y059053
X068209Y055803
X068209Y052553
X068209Y049303
X068209Y046053
X068209Y042803
X068209Y039553
X068209Y036303
X068209Y033053
X068209Y029803
X068209Y026553
X071949Y059045
X071949Y055795
X071949Y052545
X071949Y049295
X071949Y046045
X071949Y042795
X071949Y039545
X071949Y036295
X071949Y033045
X071949Y029795
X071949Y026545
X073425Y059045
X073425Y055795
X073425Y052545
X073425Y049295
X073425Y046045
X073425Y042795
X073425Y039545
X073425Y036295
X073425Y033045
X073425Y029795
X073425Y026545
T216
X045000Y050797
X045000Y045600
X045000Y044297
X045000Y039100
X045000Y037797
X045000Y032600
X051000Y050797
X051000Y045600
X051000Y044297
X051000Y039100
X051000Y037797
X051000Y032600
T218
X006665Y073600
X006665Y070400
X006665Y067200
X006665Y064000
X009500Y073600
X009500Y070400
X009500Y067200
X009500Y064000
X043425Y053228
X046260Y053228
M30
