G04 start of page 15 for group -4015 idx -4015 *
G04 Title: (unknown), toppaste *
G04 Creator: pcb 4.2.0 *
G04 CreationDate: Tue Jul 14 02:55:31 2020 UTC *
G04 For: commonadmin *
G04 Format: Gerber/RS-274X *
G04 PCB-Dimensions (mil): 24000.00 18000.00 *
G04 PCB-Coordinate-Origin: lower left *
%MOIN*%
%FSLAX25Y25*%
%LNTOPPASTE*%
%ADD278C,0.0001*%
G54D278*G36*
X632106Y528681D02*X631280D01*
Y525925D01*
X632106D01*
Y528681D01*
G37*
G36*
Y534705D02*X631280D01*
Y531949D01*
X632106D01*
Y534705D01*
G37*
G36*
X589232Y528681D02*X588406D01*
Y525925D01*
X589232D01*
Y528681D01*
G37*
G36*
Y534705D02*X588406D01*
Y531949D01*
X589232D01*
Y534705D01*
G37*
G36*
X630551Y527677D02*X629921D01*
Y525866D01*
X630551D01*
Y527677D01*
G37*
G36*
X629173D02*X628543D01*
Y525866D01*
X629173D01*
Y527677D01*
G37*
G36*
X627795D02*X627165D01*
Y525866D01*
X627795D01*
Y527677D01*
G37*
G36*
X626417D02*X625787D01*
Y525866D01*
X626417D01*
Y527677D01*
G37*
G36*
X625039D02*X624409D01*
Y525866D01*
X625039D01*
Y527677D01*
G37*
G36*
X623661D02*X623031D01*
Y525866D01*
X623661D01*
Y527677D01*
G37*
G36*
X622283D02*X621654D01*
Y525866D01*
X622283D01*
Y527677D01*
G37*
G36*
X620906D02*X620276D01*
Y525866D01*
X620906D01*
Y527677D01*
G37*
G36*
X619528D02*X618898D01*
Y525866D01*
X619528D01*
Y527677D01*
G37*
G36*
X618150D02*X617520D01*
Y525866D01*
X618150D01*
Y527677D01*
G37*
G36*
X616772D02*X616142D01*
Y525866D01*
X616772D01*
Y527677D01*
G37*
G36*
X615394D02*X614764D01*
Y525866D01*
X615394D01*
Y527677D01*
G37*
G36*
X614016D02*X613386D01*
Y525866D01*
X614016D01*
Y527677D01*
G37*
G36*
X612638D02*X612008D01*
Y525866D01*
X612638D01*
Y527677D01*
G37*
G36*
X611260D02*X610630D01*
Y525866D01*
X611260D01*
Y527677D01*
G37*
G36*
X609882D02*X609252D01*
Y525866D01*
X609882D01*
Y527677D01*
G37*
G36*
X608504D02*X607874D01*
Y525866D01*
X608504D01*
Y527677D01*
G37*
G36*
X607126D02*X606496D01*
Y525866D01*
X607126D01*
Y527677D01*
G37*
G36*
X605748D02*X605118D01*
Y525866D01*
X605748D01*
Y527677D01*
G37*
G36*
X604370D02*X603740D01*
Y525866D01*
X604370D01*
Y527677D01*
G37*
G36*
X602992D02*X602362D01*
Y525866D01*
X602992D01*
Y527677D01*
G37*
G36*
X601614D02*X600984D01*
Y525866D01*
X601614D01*
Y527677D01*
G37*
G36*
X600236D02*X599606D01*
Y525866D01*
X600236D01*
Y527677D01*
G37*
G36*
X598858D02*X598228D01*
Y525866D01*
X598858D01*
Y527677D01*
G37*
G36*
X597480D02*X596850D01*
Y525866D01*
X597480D01*
Y527677D01*
G37*
G36*
X596102D02*X595472D01*
Y525866D01*
X596102D01*
Y527677D01*
G37*
G36*
X594724D02*X594094D01*
Y525866D01*
X594724D01*
Y527677D01*
G37*
G36*
X593346D02*X592717D01*
Y525866D01*
X593346D01*
Y527677D01*
G37*
G36*
X591969D02*X591339D01*
Y525866D01*
X591969D01*
Y527677D01*
G37*
G36*
X590591D02*X589961D01*
Y525866D01*
X590591D01*
Y527677D01*
G37*
G36*
X630551Y534764D02*X629921D01*
Y532953D01*
X630551D01*
Y534764D01*
G37*
G36*
X629173D02*X628543D01*
Y532953D01*
X629173D01*
Y534764D01*
G37*
G36*
X627795D02*X627165D01*
Y532953D01*
X627795D01*
Y534764D01*
G37*
G36*
X626417D02*X625787D01*
Y532953D01*
X626417D01*
Y534764D01*
G37*
G36*
X625039D02*X624409D01*
Y532953D01*
X625039D01*
Y534764D01*
G37*
G36*
X623661D02*X623031D01*
Y532953D01*
X623661D01*
Y534764D01*
G37*
G36*
X622283D02*X621654D01*
Y532953D01*
X622283D01*
Y534764D01*
G37*
G36*
X620906D02*X620276D01*
Y532953D01*
X620906D01*
Y534764D01*
G37*
G36*
X619528D02*X618898D01*
Y532953D01*
X619528D01*
Y534764D01*
G37*
G36*
X618150D02*X617520D01*
Y532953D01*
X618150D01*
Y534764D01*
G37*
G36*
X616772D02*X616142D01*
Y532953D01*
X616772D01*
Y534764D01*
G37*
G36*
X615394D02*X614764D01*
Y532953D01*
X615394D01*
Y534764D01*
G37*
G36*
X614016D02*X613386D01*
Y532953D01*
X614016D01*
Y534764D01*
G37*
G36*
X612638D02*X612008D01*
Y532953D01*
X612638D01*
Y534764D01*
G37*
G36*
X611260D02*X610630D01*
Y532953D01*
X611260D01*
Y534764D01*
G37*
G36*
X609882D02*X609252D01*
Y532953D01*
X609882D01*
Y534764D01*
G37*
G36*
X608504D02*X607874D01*
Y532953D01*
X608504D01*
Y534764D01*
G37*
G36*
X607126D02*X606496D01*
Y532953D01*
X607126D01*
Y534764D01*
G37*
G36*
X605748D02*X605118D01*
Y532953D01*
X605748D01*
Y534764D01*
G37*
G36*
X604370D02*X603740D01*
Y532953D01*
X604370D01*
Y534764D01*
G37*
G36*
X602992D02*X602362D01*
Y532953D01*
X602992D01*
Y534764D01*
G37*
G36*
X601614D02*X600984D01*
Y532953D01*
X601614D01*
Y534764D01*
G37*
G36*
X600236D02*X599606D01*
Y532953D01*
X600236D01*
Y534764D01*
G37*
G36*
X598858D02*X598228D01*
Y532953D01*
X598858D01*
Y534764D01*
G37*
G36*
X597480D02*X596850D01*
Y532953D01*
X597480D01*
Y534764D01*
G37*
G36*
X596102D02*X595472D01*
Y532953D01*
X596102D01*
Y534764D01*
G37*
G36*
X594724D02*X594094D01*
Y532953D01*
X594724D01*
Y534764D01*
G37*
G36*
X593346D02*X592717D01*
Y532953D01*
X593346D01*
Y534764D01*
G37*
G36*
X591969D02*X591339D01*
Y532953D01*
X591969D01*
Y534764D01*
G37*
G36*
X590591D02*X589961D01*
Y532953D01*
X590591D01*
Y534764D01*
G37*
G36*
X648713Y349925D02*Y348351D01*
X650287D01*
Y349925D01*
X648713D01*
G37*
G36*
Y352287D02*Y350713D01*
X650287D01*
Y352287D01*
X648713D01*
G37*
G36*
X625713Y359287D02*Y357713D01*
X627287D01*
Y359287D01*
X625713D01*
G37*
G36*
Y356925D02*Y355351D01*
X627287D01*
Y356925D01*
X625713D01*
G37*
G36*
X616760Y342059D02*Y336941D01*
X624240D01*
Y342059D01*
X616760D01*
G37*
G36*
Y353869D02*Y348751D01*
X624240D01*
Y353869D01*
X616760D01*
G37*
G36*
X607760Y342059D02*Y336941D01*
X615240D01*
Y342059D01*
X607760D01*
G37*
G36*
Y353869D02*Y348751D01*
X615240D01*
Y353869D01*
X607760D01*
G37*
G36*
X574378Y509747D02*Y508173D01*
X575952D01*
Y509747D01*
X574378D01*
G37*
G36*
Y512109D02*Y510535D01*
X575952D01*
Y512109D01*
X574378D01*
G37*
G36*
X569788Y513093D02*Y511125D01*
X572542D01*
Y513093D01*
X569788D01*
G37*
G36*
Y509945D02*Y507977D01*
X572542D01*
Y509945D01*
X569788D01*
G37*
G36*
X569260Y494559D02*Y489441D01*
X576740D01*
Y494559D01*
X569260D01*
G37*
G36*
Y506369D02*Y501251D01*
X576740D01*
Y506369D01*
X569260D01*
G37*
G36*
X574378Y483196D02*Y481622D01*
X575952D01*
Y483196D01*
X574378D01*
G37*
G36*
Y485558D02*Y483984D01*
X575952D01*
Y485558D01*
X574378D01*
G37*
G36*
X569260Y467559D02*Y462441D01*
X576740D01*
Y467559D01*
X569260D01*
G37*
G36*
Y479369D02*Y474251D01*
X576740D01*
Y479369D01*
X569260D01*
G37*
G36*
X569788Y486541D02*Y484573D01*
X572542D01*
Y486541D01*
X569788D01*
G37*
G36*
Y483393D02*Y481425D01*
X572542D01*
Y483393D01*
X569788D01*
G37*
G36*
X577613Y337787D02*Y336213D01*
X579187D01*
Y337787D01*
X577613D01*
G37*
G36*
Y340149D02*Y338575D01*
X579187D01*
Y340149D01*
X577613D01*
G37*
G36*
X575313Y337787D02*Y336213D01*
X576887D01*
Y337787D01*
X575313D01*
G37*
G36*
Y340149D02*Y338575D01*
X576887D01*
Y340149D01*
X575313D01*
G37*
G36*
X573013Y337787D02*Y336213D01*
X574587D01*
Y337787D01*
X573013D01*
G37*
G36*
Y340149D02*Y338575D01*
X574587D01*
Y340149D01*
X573013D01*
G37*
G36*
X570713Y337787D02*Y336213D01*
X572287D01*
Y337787D01*
X570713D01*
G37*
G36*
Y340149D02*Y338575D01*
X572287D01*
Y340149D01*
X570713D01*
G37*
G36*
X583913Y337787D02*Y336213D01*
X585487D01*
Y337787D01*
X583913D01*
G37*
G36*
Y340149D02*Y338575D01*
X585487D01*
Y340149D01*
X583913D01*
G37*
G36*
X581713Y337787D02*Y336213D01*
X583287D01*
Y337787D01*
X581713D01*
G37*
G36*
Y340149D02*Y338575D01*
X583287D01*
Y340149D01*
X581713D01*
G37*
G36*
X588313Y337787D02*Y336213D01*
X589887D01*
Y337787D01*
X588313D01*
G37*
G36*
Y340149D02*Y338575D01*
X589887D01*
Y340149D01*
X588313D01*
G37*
G36*
X586113Y337787D02*Y336213D01*
X587687D01*
Y337787D01*
X586113D01*
G37*
G36*
Y340149D02*Y338575D01*
X587687D01*
Y340149D01*
X586113D01*
G37*
G36*
X641123Y404484D02*Y402516D01*
X643877D01*
Y404484D01*
X641123D01*
G37*
G36*
Y401336D02*Y399368D01*
X643877D01*
Y401336D01*
X641123D01*
G37*
G36*
Y411132D02*Y409164D01*
X643877D01*
Y411132D01*
X641123D01*
G37*
G36*
Y407984D02*Y406016D01*
X643877D01*
Y407984D01*
X641123D01*
G37*
G36*
X646500Y403000D02*Y400000D01*
X650500D01*
Y403000D01*
X646500D01*
G37*
G36*
Y397000D02*Y394000D01*
X650500D01*
Y397000D01*
X646500D01*
G37*
G36*
Y416000D02*Y413000D01*
X650500D01*
Y416000D01*
X646500D01*
G37*
G36*
Y410000D02*Y407000D01*
X650500D01*
Y410000D01*
X646500D01*
G37*
G36*
X642213Y336563D02*Y334989D01*
X643787D01*
Y336563D01*
X642213D01*
G37*
G36*
Y338925D02*Y337351D01*
X643787D01*
Y338925D01*
X642213D01*
G37*
G36*
X644713Y336563D02*Y334989D01*
X646287D01*
Y336563D01*
X644713D01*
G37*
G36*
Y338925D02*Y337351D01*
X646287D01*
Y338925D01*
X644713D01*
G37*
M02*
