G04 start of page 16 for group -4014 idx -4014 *
G04 Title: (unknown), bottompaste *
G04 Creator: pcb 4.2.0 *
G04 CreationDate: Thu Sep 17 08:18:29 2020 UTC *
G04 For: commonadmin *
G04 Format: Gerber/RS-274X *
G04 PCB-Dimensions (mil): 24000.00 18000.00 *
G04 PCB-Coordinate-Origin: lower left *
%MOIN*%
%FSLAX25Y25*%
%LNBOTTOMPASTE*%
%ADD280C,0.0060*%
%ADD279C,0.0001*%
G54D279*G36*
X461973Y393452D02*X456855D01*
Y387548D01*
X461973D01*
Y393452D01*
G37*
G36*
X469059D02*X463941D01*
Y387548D01*
X469059D01*
Y393452D01*
G37*
G36*
X461559Y512952D02*X456441D01*
Y507048D01*
X461559D01*
Y512952D01*
G37*
G36*
X468645D02*X463527D01*
Y507048D01*
X468645D01*
Y512952D01*
G37*
G36*
X468016Y475909D02*X462898D01*
Y470005D01*
X468016D01*
Y475909D01*
G37*
G36*
X475102D02*X469984D01*
Y470005D01*
X475102D01*
Y475909D01*
G37*
G54D280*X439550Y432500D02*X442550D01*
X443250Y431800D01*
X438850D02*X439550Y432500D01*
G54D279*G36*
X437050Y432100D02*Y431500D01*
X439150D01*
Y432100D01*
X437050D01*
G37*
G36*
X442950D02*Y431500D01*
X444050D01*
Y432100D01*
X442950D01*
G37*
G54D280*X439850Y432500D02*X440450Y431900D01*
X441050Y432500D01*
X441650Y431900D02*X442250Y432500D01*
X441050D02*X441650Y431900D01*
X439550Y429900D02*X442650D01*
X443250Y430500D01*
X438950D02*X439550Y429900D01*
G54D279*G36*
X437050Y430800D02*Y430200D01*
X439250D01*
Y430800D01*
X437050D01*
G37*
G36*
X442950D02*Y430200D01*
X444050D01*
Y430800D01*
X442950D01*
G37*
G54D280*X439750Y429900D02*X440450Y430600D01*
X439550Y429900D02*X439750D01*
X440450Y430600D02*X441150Y429900D01*
X440950D02*X441650Y430600D01*
X442350Y429900D01*
X439450Y416700D02*X442450D01*
X443150Y416000D01*
X438750D02*X439450Y416700D01*
G54D279*G36*
X436950Y416300D02*Y415700D01*
X439050D01*
Y416300D01*
X436950D01*
G37*
G36*
X442850D02*Y415700D01*
X443950D01*
Y416300D01*
X442850D01*
G37*
G54D280*X439750Y416700D02*X440350Y416100D01*
X440950Y416700D01*
X441550Y416100D02*X442150Y416700D01*
X440950D02*X441550Y416100D01*
X439450Y414100D02*X442550D01*
X443150Y414700D01*
X438850D02*X439450Y414100D01*
G54D279*G36*
X436950Y415000D02*Y414400D01*
X439150D01*
Y415000D01*
X436950D01*
G37*
G36*
X442850D02*Y414400D01*
X443950D01*
Y415000D01*
X442850D01*
G37*
G54D280*X439650Y414100D02*X440350Y414800D01*
X439450Y414100D02*X439650D01*
X440350Y414800D02*X441050Y414100D01*
X440850D02*X441550Y414800D01*
X442250Y414100D01*
G54D279*G36*
X433713Y499787D02*Y498213D01*
X435287D01*
Y499787D01*
X433713D01*
G37*
G36*
X431351D02*Y498213D01*
X432925D01*
Y499787D01*
X431351D01*
G37*
G36*
X433713Y496287D02*Y494713D01*
X435287D01*
Y496287D01*
X433713D01*
G37*
G36*
X431351D02*Y494713D01*
X432925D01*
Y496287D01*
X431351D01*
G37*
G54D280*X438050Y468500D02*X441050D01*
X441750Y467800D01*
X437350D02*X438050Y468500D01*
G54D279*G36*
X435550Y468100D02*Y467500D01*
X437650D01*
Y468100D01*
X435550D01*
G37*
G36*
X441450D02*Y467500D01*
X442550D01*
Y468100D01*
X441450D01*
G37*
G54D280*X438350Y468500D02*X438950Y467900D01*
X439550Y468500D01*
X440150Y467900D02*X440750Y468500D01*
X439550D02*X440150Y467900D01*
X438050Y465900D02*X441150D01*
X441750Y466500D01*
X437450D02*X438050Y465900D01*
G54D279*G36*
X435550Y466800D02*Y466200D01*
X437750D01*
Y466800D01*
X435550D01*
G37*
G36*
X441450D02*Y466200D01*
X442550D01*
Y466800D01*
X441450D01*
G37*
G54D280*X438250Y465900D02*X438950Y466600D01*
X438050Y465900D02*X438250D01*
X438950Y466600D02*X439650Y465900D01*
X439450D02*X440150Y466600D01*
X440850Y465900D01*
X437550Y470800D02*X440550D01*
X436850Y471500D02*X437550Y470800D01*
X440550D02*X441250Y471500D01*
G54D279*G36*
X440950Y471800D02*Y471200D01*
X443050D01*
Y471800D01*
X440950D01*
G37*
G36*
X436050D02*Y471200D01*
X437150D01*
Y471800D01*
X436050D01*
G37*
G54D280*X439650Y471400D02*X440250Y470800D01*
X439050D02*X439650Y471400D01*
X437850Y470800D02*X438450Y471400D01*
X439050Y470800D01*
X437450Y473400D02*X440550D01*
X436850Y472800D02*X437450Y473400D01*
X440550D02*X441150Y472800D01*
G54D279*G36*
X440850Y473100D02*Y472500D01*
X443050D01*
Y473100D01*
X440850D01*
G37*
G36*
X436050D02*Y472500D01*
X437150D01*
Y473100D01*
X436050D01*
G37*
G54D280*X439650Y472700D02*X440350Y473400D01*
X440550D01*
X438950D02*X439650Y472700D01*
X438450D02*X439150Y473400D01*
X437750D02*X438450Y472700D01*
X435550Y359800D02*X438550D01*
X434850Y360500D02*X435550Y359800D01*
X438550D02*X439250Y360500D01*
G54D279*G36*
X438950Y360800D02*Y360200D01*
X441050D01*
Y360800D01*
X438950D01*
G37*
G36*
X434050D02*Y360200D01*
X435150D01*
Y360800D01*
X434050D01*
G37*
G54D280*X437650Y360400D02*X438250Y359800D01*
X437050D02*X437650Y360400D01*
X435850Y359800D02*X436450Y360400D01*
X437050Y359800D01*
X435450Y362400D02*X438550D01*
X434850Y361800D02*X435450Y362400D01*
X438550D02*X439150Y361800D01*
G54D279*G36*
X438850Y362100D02*Y361500D01*
X441050D01*
Y362100D01*
X438850D01*
G37*
G36*
X434050D02*Y361500D01*
X435150D01*
Y362100D01*
X434050D01*
G37*
G54D280*X437650Y361700D02*X438350Y362400D01*
X438550D01*
X436950D02*X437650Y361700D01*
X436450D02*X437150Y362400D01*
X435750D02*X436450Y361700D01*
X435600Y351500D02*X438600D01*
X434900Y352200D02*X435600Y351500D01*
X438600D02*X439300Y352200D01*
G54D279*G36*
X439000Y352500D02*Y351900D01*
X441100D01*
Y352500D01*
X439000D01*
G37*
G36*
X434100D02*Y351900D01*
X435200D01*
Y352500D01*
X434100D01*
G37*
G54D280*X437700Y352100D02*X438300Y351500D01*
X437100D02*X437700Y352100D01*
X435900Y351500D02*X436500Y352100D01*
X437100Y351500D01*
X435500Y354100D02*X438600D01*
X434900Y353500D02*X435500Y354100D01*
X438600D02*X439200Y353500D01*
G54D279*G36*
X438900Y353800D02*Y353200D01*
X441100D01*
Y353800D01*
X438900D01*
G37*
G36*
X434100D02*Y353200D01*
X435200D01*
Y353800D01*
X434100D01*
G37*
G54D280*X437700Y353400D02*X438400Y354100D01*
X438600D01*
X437000D02*X437700Y353400D01*
X436500D02*X437200Y354100D01*
X435800D02*X436500Y353400D01*
X434600Y489500D02*X437600D01*
X433900Y490200D02*X434600Y489500D01*
X437600D02*X438300Y490200D01*
G54D279*G36*
X438000Y490500D02*Y489900D01*
X440100D01*
Y490500D01*
X438000D01*
G37*
G36*
X433100D02*Y489900D01*
X434200D01*
Y490500D01*
X433100D01*
G37*
G54D280*X436700Y490100D02*X437300Y489500D01*
X436100D02*X436700Y490100D01*
X434900Y489500D02*X435500Y490100D01*
X436100Y489500D01*
X434500Y492100D02*X437600D01*
X433900Y491500D02*X434500Y492100D01*
X437600D02*X438200Y491500D01*
G54D279*G36*
X437900Y491800D02*Y491200D01*
X440100D01*
Y491800D01*
X437900D01*
G37*
G36*
X433100D02*Y491200D01*
X434200D01*
Y491800D01*
X433100D01*
G37*
G54D280*X436700Y491400D02*X437400Y492100D01*
X437600D01*
X436000D02*X436700Y491400D01*
X435500D02*X436200Y492100D01*
X434800D02*X435500Y491400D01*
X428100Y475500D02*X431100D01*
X427400Y476200D02*X428100Y475500D01*
X431100D02*X431800Y476200D01*
G54D279*G36*
X431500Y476500D02*Y475900D01*
X433600D01*
Y476500D01*
X431500D01*
G37*
G36*
X426600D02*Y475900D01*
X427700D01*
Y476500D01*
X426600D01*
G37*
G54D280*X430200Y476100D02*X430800Y475500D01*
X429600D02*X430200Y476100D01*
X428400Y475500D02*X429000Y476100D01*
X429600Y475500D01*
X428000Y478100D02*X431100D01*
X427400Y477500D02*X428000Y478100D01*
X431100D02*X431700Y477500D01*
G54D279*G36*
X431400Y477800D02*Y477200D01*
X433600D01*
Y477800D01*
X431400D01*
G37*
G36*
X426600D02*Y477200D01*
X427700D01*
Y477800D01*
X426600D01*
G37*
G54D280*X430200Y477400D02*X430900Y478100D01*
X431100D01*
X429500D02*X430200Y477400D01*
X429000D02*X429700Y478100D01*
X428300D02*X429000Y477400D01*
X436550Y479300D02*X439550D01*
X435850Y480000D02*X436550Y479300D01*
X439550D02*X440250Y480000D01*
G54D279*G36*
X439950Y480300D02*Y479700D01*
X442050D01*
Y480300D01*
X439950D01*
G37*
G36*
X435050D02*Y479700D01*
X436150D01*
Y480300D01*
X435050D01*
G37*
G54D280*X438650Y479900D02*X439250Y479300D01*
X438050D02*X438650Y479900D01*
X436850Y479300D02*X437450Y479900D01*
X438050Y479300D01*
X436450Y481900D02*X439550D01*
X435850Y481300D02*X436450Y481900D01*
X439550D02*X440150Y481300D01*
G54D279*G36*
X439850Y481600D02*Y481000D01*
X442050D01*
Y481600D01*
X439850D01*
G37*
G36*
X435050D02*Y481000D01*
X436150D01*
Y481600D01*
X435050D01*
G37*
G54D280*X438650Y481200D02*X439350Y481900D01*
X439550D01*
X437950D02*X438650Y481200D01*
X437450D02*X438150Y481900D01*
X436750D02*X437450Y481200D01*
G54D279*G36*
X461973Y333452D02*X456855D01*
Y327548D01*
X461973D01*
Y333452D01*
G37*
G36*
X469059D02*X463941D01*
Y327548D01*
X469059D01*
Y333452D01*
G37*
G36*
X461973Y378452D02*X456855D01*
Y372548D01*
X461973D01*
Y378452D01*
G37*
G36*
X469059D02*X463941D01*
Y372548D01*
X469059D01*
Y378452D01*
G37*
G36*
X543898Y534961D02*X543268D01*
Y533150D01*
X543898D01*
Y534961D01*
G37*
G36*
X542520D02*X541890D01*
Y533150D01*
X542520D01*
Y534961D01*
G37*
G36*
X541142D02*X540512D01*
Y533150D01*
X541142D01*
Y534961D01*
G37*
G36*
X539764D02*X539134D01*
Y533150D01*
X539764D01*
Y534961D01*
G37*
G36*
X538386D02*X537756D01*
Y533150D01*
X538386D01*
Y534961D01*
G37*
G36*
X537008D02*X536378D01*
Y533150D01*
X537008D01*
Y534961D01*
G37*
G36*
X535630D02*X535000D01*
Y533150D01*
X535630D01*
Y534961D01*
G37*
G36*
X534252D02*X533622D01*
Y533150D01*
X534252D01*
Y534961D01*
G37*
G36*
X532874D02*X532244D01*
Y533150D01*
X532874D01*
Y534961D01*
G37*
G36*
X531496D02*X530866D01*
Y533150D01*
X531496D01*
Y534961D01*
G37*
G36*
X530118D02*X529488D01*
Y533150D01*
X530118D01*
Y534961D01*
G37*
G36*
X528740D02*X528110D01*
Y533150D01*
X528740D01*
Y534961D01*
G37*
G36*
X527362D02*X526732D01*
Y533150D01*
X527362D01*
Y534961D01*
G37*
G36*
X525984D02*X525354D01*
Y533150D01*
X525984D01*
Y534961D01*
G37*
G36*
X524606D02*X523976D01*
Y533150D01*
X524606D01*
Y534961D01*
G37*
G36*
X523228D02*X522598D01*
Y533150D01*
X523228D01*
Y534961D01*
G37*
G36*
X521850D02*X521220D01*
Y533150D01*
X521850D01*
Y534961D01*
G37*
G36*
X520472D02*X519843D01*
Y533150D01*
X520472D01*
Y534961D01*
G37*
G36*
X519094D02*X518465D01*
Y533150D01*
X519094D01*
Y534961D01*
G37*
G36*
X517717D02*X517087D01*
Y533150D01*
X517717D01*
Y534961D01*
G37*
G36*
X516339D02*X515709D01*
Y533150D01*
X516339D01*
Y534961D01*
G37*
G36*
X514961D02*X514331D01*
Y533150D01*
X514961D01*
Y534961D01*
G37*
G36*
X513583D02*X512953D01*
Y533150D01*
X513583D01*
Y534961D01*
G37*
G36*
X512205D02*X511575D01*
Y533150D01*
X512205D01*
Y534961D01*
G37*
G36*
X510827D02*X510197D01*
Y533150D01*
X510827D01*
Y534961D01*
G37*
G36*
X509449D02*X508819D01*
Y533150D01*
X509449D01*
Y534961D01*
G37*
G36*
X508071D02*X507441D01*
Y533150D01*
X508071D01*
Y534961D01*
G37*
G36*
X506693D02*X506063D01*
Y533150D01*
X506693D01*
Y534961D01*
G37*
G36*
X505315D02*X504685D01*
Y533150D01*
X505315D01*
Y534961D01*
G37*
G36*
X503937D02*X503307D01*
Y533150D01*
X503937D01*
Y534961D01*
G37*
G36*
X543898Y527283D02*X543268D01*
Y525472D01*
X543898D01*
Y527283D01*
G37*
G36*
X542520D02*X541890D01*
Y525472D01*
X542520D01*
Y527283D01*
G37*
G36*
X541142D02*X540512D01*
Y525472D01*
X541142D01*
Y527283D01*
G37*
G36*
X539764D02*X539134D01*
Y525472D01*
X539764D01*
Y527283D01*
G37*
G36*
X538386D02*X537756D01*
Y525472D01*
X538386D01*
Y527283D01*
G37*
G36*
X537008D02*X536378D01*
Y525472D01*
X537008D01*
Y527283D01*
G37*
G36*
X535630D02*X535000D01*
Y525472D01*
X535630D01*
Y527283D01*
G37*
G36*
X534252D02*X533622D01*
Y525472D01*
X534252D01*
Y527283D01*
G37*
G36*
X532874D02*X532244D01*
Y525472D01*
X532874D01*
Y527283D01*
G37*
G36*
X531496D02*X530866D01*
Y525472D01*
X531496D01*
Y527283D01*
G37*
G36*
X530118D02*X529488D01*
Y525472D01*
X530118D01*
Y527283D01*
G37*
G36*
X528740D02*X528110D01*
Y525472D01*
X528740D01*
Y527283D01*
G37*
G36*
X527362D02*X526732D01*
Y525472D01*
X527362D01*
Y527283D01*
G37*
G36*
X525984D02*X525354D01*
Y525472D01*
X525984D01*
Y527283D01*
G37*
G36*
X524606D02*X523976D01*
Y525472D01*
X524606D01*
Y527283D01*
G37*
G36*
X523228D02*X522598D01*
Y525472D01*
X523228D01*
Y527283D01*
G37*
G36*
X521850D02*X521220D01*
Y525472D01*
X521850D01*
Y527283D01*
G37*
G36*
X520472D02*X519843D01*
Y525472D01*
X520472D01*
Y527283D01*
G37*
G36*
X519094D02*X518465D01*
Y525472D01*
X519094D01*
Y527283D01*
G37*
G36*
X517717D02*X517087D01*
Y525472D01*
X517717D01*
Y527283D01*
G37*
G36*
X516339D02*X515709D01*
Y525472D01*
X516339D01*
Y527283D01*
G37*
G36*
X514961D02*X514331D01*
Y525472D01*
X514961D01*
Y527283D01*
G37*
G36*
X513583D02*X512953D01*
Y525472D01*
X513583D01*
Y527283D01*
G37*
G36*
X512205D02*X511575D01*
Y525472D01*
X512205D01*
Y527283D01*
G37*
G36*
X510827D02*X510197D01*
Y525472D01*
X510827D01*
Y527283D01*
G37*
G36*
X509449D02*X508819D01*
Y525472D01*
X509449D01*
Y527283D01*
G37*
G36*
X508071D02*X507441D01*
Y525472D01*
X508071D01*
Y527283D01*
G37*
G36*
X506693D02*X506063D01*
Y525472D01*
X506693D01*
Y527283D01*
G37*
G36*
X505315D02*X504685D01*
Y525472D01*
X505315D01*
Y527283D01*
G37*
G36*
X503937D02*X503307D01*
Y525472D01*
X503937D01*
Y527283D01*
G37*
G36*
X549409Y533583D02*X547992D01*
Y530787D01*
X549409D01*
Y533583D01*
G37*
G36*
Y529843D02*X547992D01*
Y527047D01*
X549409D01*
Y529843D01*
G37*
G36*
X499213D02*X497795D01*
Y527047D01*
X499213D01*
Y529843D01*
G37*
G36*
Y533583D02*X497795D01*
Y530787D01*
X499213D01*
Y533583D01*
G37*
M02*
