G04 start of page 17 for group -3984 idx -3984 *
G04 Title: (unknown), fab *
G04 Creator: pcb 4.2.0 *
G04 CreationDate: Mon Jul 20 21:59:32 2020 UTC *
G04 For: commonadmin *
G04 Format: Gerber/RS-274X *
G04 PCB-Dimensions (mil): 24000.00 18000.00 *
G04 PCB-Coordinate-Origin: lower left *
%MOIN*%
%FSLAX25Y25*%
%LNFAB*%
%ADD78C,0.0100*%
%ADD77C,0.0075*%
%ADD76C,0.0060*%
%ADD75C,0.0001*%
G54D75*G36*
X609036Y222041D02*X612002Y219076D01*
X611436Y218510D01*
X608471Y221476D01*
X609036Y222041D01*
G37*
G36*
X608471Y219076D02*X611436Y222041D01*
X612002Y221476D01*
X609036Y218510D01*
X608471Y219076D01*
G37*
G36*
X644469Y269285D02*X647435Y266320D01*
X646869Y265754D01*
X643904Y268720D01*
X644469Y269285D01*
G37*
G36*
X643904Y266320D02*X646869Y269285D01*
X647435Y268720D01*
X644469Y265754D01*
X643904Y266320D01*
G37*
G36*
X644469Y285033D02*X647435Y282068D01*
X646869Y281502D01*
X643904Y284468D01*
X644469Y285033D01*
G37*
G36*
X643904Y282068D02*X646869Y285033D01*
X647435Y284468D01*
X644469Y281502D01*
X643904Y282068D01*
G37*
G36*
X573603Y285033D02*X576569Y282068D01*
X576003Y281502D01*
X573037Y284468D01*
X573603Y285033D01*
G37*
G36*
X573037Y282068D02*X576003Y285033D01*
X576569Y284468D01*
X573603Y281502D01*
X573037Y282068D01*
G37*
G36*
X573603Y269285D02*X576569Y266320D01*
X576003Y265754D01*
X573037Y268720D01*
X573603Y269285D01*
G37*
G36*
X573037Y266320D02*X576003Y269285D01*
X576569Y268720D01*
X573603Y265754D01*
X573037Y266320D01*
G37*
G36*
X522422Y222041D02*X525388Y219076D01*
X524822Y218510D01*
X521856Y221476D01*
X522422Y222041D01*
G37*
G36*
X521856Y219076D02*X524822Y222041D01*
X525388Y221476D01*
X522422Y218510D01*
X521856Y219076D01*
G37*
G36*
X557855Y269285D02*X560821Y266320D01*
X560255Y265754D01*
X557289Y268720D01*
X557855Y269285D01*
G37*
G36*
X557289Y266320D02*X560255Y269285D01*
X560821Y268720D01*
X557855Y265754D01*
X557289Y266320D01*
G37*
G36*
X557855Y285033D02*X560821Y282068D01*
X560255Y281502D01*
X557289Y284468D01*
X557855Y285033D01*
G37*
G36*
X557289Y282068D02*X560255Y285033D01*
X560821Y284468D01*
X557855Y281502D01*
X557289Y282068D01*
G37*
G36*
X486989Y285033D02*X489955Y282068D01*
X489389Y281502D01*
X486423Y284468D01*
X486989Y285033D01*
G37*
G36*
X486423Y282068D02*X489389Y285033D01*
X489955Y284468D01*
X486989Y281502D01*
X486423Y282068D01*
G37*
G36*
X486989Y269285D02*X489955Y266320D01*
X489389Y265754D01*
X486423Y268720D01*
X486989Y269285D01*
G37*
G36*
X486423Y266320D02*X489389Y269285D01*
X489955Y268720D01*
X486989Y265754D01*
X486423Y266320D01*
G37*
G36*
X13800Y1828016D02*X16766Y1825050D01*
X16200Y1824484D01*
X13234Y1827450D01*
X13800Y1828016D01*
G37*
G36*
X13234Y1825050D02*X16200Y1828016D01*
X16766Y1827450D01*
X13800Y1824484D01*
X13234Y1825050D01*
G37*
G54D76*X135000Y1828500D02*X136500Y1825500D01*
X138000Y1828500D01*
X136500Y1825500D02*Y1822500D01*
X139800Y1825800D02*X142050D01*
X139800Y1822500D02*X142800D01*
X139800Y1828500D02*Y1822500D01*
Y1828500D02*X142800D01*
X147600D02*X148350Y1827750D01*
X145350Y1828500D02*X147600D01*
X144600Y1827750D02*X145350Y1828500D01*
X144600Y1827750D02*Y1826250D01*
X145350Y1825500D01*
X147600D01*
X148350Y1824750D01*
Y1823250D01*
X147600Y1822500D02*X148350Y1823250D01*
X145350Y1822500D02*X147600D01*
X144600Y1823250D02*X145350Y1822500D01*
X98000Y1827300D02*X99200Y1828500D01*
Y1822500D01*
X98000D02*X100250D01*
X102050Y1823250D02*X102800Y1822500D01*
X102050Y1827750D02*Y1823250D01*
Y1827750D02*X102800Y1828500D01*
X104300D01*
X105050Y1827750D01*
Y1823250D01*
X104300Y1822500D02*X105050Y1823250D01*
X102800Y1822500D02*X104300D01*
X102050Y1824000D02*X105050Y1827000D01*
X45000Y1823250D02*X45750Y1822500D01*
X45000Y1827750D02*Y1823250D01*
Y1827750D02*X45750Y1828500D01*
X47250D01*
X48000Y1827750D01*
Y1823250D01*
X47250Y1822500D02*X48000Y1823250D01*
X45750Y1822500D02*X47250D01*
X45000Y1824000D02*X48000Y1827000D01*
X49800Y1822500D02*X50550D01*
X52350Y1823250D02*X53100Y1822500D01*
X52350Y1827750D02*Y1823250D01*
Y1827750D02*X53100Y1828500D01*
X54600D01*
X55350Y1827750D01*
Y1823250D01*
X54600Y1822500D02*X55350Y1823250D01*
X53100Y1822500D02*X54600D01*
X52350Y1824000D02*X55350Y1827000D01*
X57900Y1822500D02*X60900Y1828500D01*
X57150D02*X60900D01*
X63450Y1822500D02*X65700Y1825500D01*
Y1827750D02*Y1825500D01*
X64950Y1828500D02*X65700Y1827750D01*
X63450Y1828500D02*X64950D01*
X62700Y1827750D02*X63450Y1828500D01*
X62700Y1827750D02*Y1826250D01*
X63450Y1825500D01*
X65700D01*
X610236Y206128D02*Y202928D01*
X608636Y204528D02*X611836D01*
X625984Y221876D02*Y218676D01*
X624384Y220276D02*X627584D01*
X610236Y237624D02*Y234424D01*
X608636Y236024D02*X611836D01*
X594488Y221876D02*Y218676D01*
X592888Y220276D02*X596088D01*
X602362Y235458D02*Y232258D01*
X600762Y233858D02*X603962D01*
X596457Y229553D02*Y226353D01*
X594857Y227953D02*X598057D01*
X602362Y208293D02*Y205093D01*
X600762Y206693D02*X603962D01*
X596457Y214198D02*Y210998D01*
X594857Y212598D02*X598057D01*
X618110Y208293D02*Y205093D01*
X616510Y206693D02*X619710D01*
X618110Y235458D02*Y232258D01*
X616510Y233858D02*X619710D01*
X624016Y214198D02*Y210998D01*
X622416Y212598D02*X625616D01*
X624016Y229553D02*Y226353D01*
X622416Y227953D02*X625616D01*
X523622Y206128D02*Y202928D01*
X522022Y204528D02*X525222D01*
X539370Y221876D02*Y218676D01*
X537770Y220276D02*X540970D01*
X523622Y237624D02*Y234424D01*
X522022Y236024D02*X525222D01*
X507874Y221876D02*Y218676D01*
X506274Y220276D02*X509474D01*
X515748Y235458D02*Y232258D01*
X514148Y233858D02*X517348D01*
X509843Y229553D02*Y226353D01*
X508243Y227953D02*X511443D01*
X515748Y208293D02*Y205093D01*
X514148Y206693D02*X517348D01*
X509843Y214198D02*Y210998D01*
X508243Y212598D02*X511443D01*
X531496Y208293D02*Y205093D01*
X529896Y206693D02*X533096D01*
X531496Y235458D02*Y232258D01*
X529896Y233858D02*X533096D01*
X537402Y214198D02*Y210998D01*
X535802Y212598D02*X539002D01*
X537402Y229553D02*Y226353D01*
X535802Y227953D02*X539002D01*
X15000Y1842850D02*Y1839650D01*
X13400Y1841250D02*X16600D01*
X135000Y1843500D02*X136500Y1840500D01*
X138000Y1843500D01*
X136500Y1840500D02*Y1837500D01*
X139800Y1840800D02*X142050D01*
X139800Y1837500D02*X142800D01*
X139800Y1843500D02*Y1837500D01*
Y1843500D02*X142800D01*
X147600D02*X148350Y1842750D01*
X145350Y1843500D02*X147600D01*
X144600Y1842750D02*X145350Y1843500D01*
X144600Y1842750D02*Y1841250D01*
X145350Y1840500D01*
X147600D01*
X148350Y1839750D01*
Y1838250D01*
X147600Y1837500D02*X148350Y1838250D01*
X145350Y1837500D02*X147600D01*
X144600Y1838250D02*X145350Y1837500D01*
X98000Y1842750D02*X98750Y1843500D01*
X101000D01*
X101750Y1842750D01*
Y1841250D01*
X98000Y1837500D02*X101750Y1841250D01*
X98000Y1837500D02*X101750D01*
X103550Y1839750D02*X106550Y1843500D01*
X103550Y1839750D02*X107300D01*
X106550Y1843500D02*Y1837500D01*
X45000Y1838250D02*X45750Y1837500D01*
X45000Y1842750D02*Y1838250D01*
Y1842750D02*X45750Y1843500D01*
X47250D01*
X48000Y1842750D01*
Y1838250D01*
X47250Y1837500D02*X48000Y1838250D01*
X45750Y1837500D02*X47250D01*
X45000Y1839000D02*X48000Y1842000D01*
X49800Y1837500D02*X50550D01*
X52350Y1838250D02*X53100Y1837500D01*
X52350Y1842750D02*Y1838250D01*
Y1842750D02*X53100Y1843500D01*
X54600D01*
X55350Y1842750D01*
Y1838250D01*
X54600Y1837500D02*X55350Y1838250D01*
X53100Y1837500D02*X54600D01*
X52350Y1839000D02*X55350Y1842000D01*
X57150Y1842750D02*X57900Y1843500D01*
X59400D01*
X60150Y1842750D01*
X59400Y1837500D02*X60150Y1838250D01*
X57900Y1837500D02*X59400D01*
X57150Y1838250D02*X57900Y1837500D01*
Y1840800D02*X59400D01*
X60150Y1842750D02*Y1841550D01*
Y1840050D02*Y1838250D01*
Y1840050D02*X59400Y1840800D01*
X60150Y1841550D02*X59400Y1840800D01*
X62700Y1837500D02*X64950Y1840500D01*
Y1842750D02*Y1840500D01*
X64200Y1843500D02*X64950Y1842750D01*
X62700Y1843500D02*X64200D01*
X61950Y1842750D02*X62700Y1843500D01*
X61950Y1842750D02*Y1841250D01*
X62700Y1840500D01*
X64950D01*
X635236Y257772D02*Y256172D01*
Y257772D02*X636623Y258572D01*
X635236Y257772D02*X633850Y258572D01*
X635236Y246272D02*Y244672D01*
Y246272D02*X636623Y247072D01*
X635236Y246272D02*X633850Y247072D01*
X625236Y247772D02*Y246172D01*
Y247772D02*X626623Y248572D01*
X625236Y247772D02*X623850Y248572D01*
X625236Y256272D02*Y254672D01*
Y256272D02*X626623Y257072D01*
X625236Y256272D02*X623850Y257072D01*
X615236Y257772D02*Y256172D01*
Y257772D02*X616623Y258572D01*
X615236Y257772D02*X613850Y258572D01*
X605236Y256272D02*Y254672D01*
Y256272D02*X606623Y257072D01*
X605236Y256272D02*X603850Y257072D01*
X595236Y257772D02*Y256172D01*
Y257772D02*X596623Y258572D01*
X595236Y257772D02*X593850Y258572D01*
X585236Y256272D02*Y254672D01*
Y256272D02*X586623Y257072D01*
X585236Y256272D02*X583850Y257072D01*
X615236Y246272D02*Y244672D01*
Y246272D02*X616623Y247072D01*
X615236Y246272D02*X613850Y247072D01*
X605236Y247772D02*Y246172D01*
Y247772D02*X606623Y248572D01*
X605236Y247772D02*X603850Y248572D01*
X595236Y246272D02*Y244672D01*
Y246272D02*X596623Y247072D01*
X595236Y246272D02*X593850Y247072D01*
X585236Y247772D02*Y246172D01*
Y247772D02*X586623Y248572D01*
X585236Y247772D02*X583850Y248572D01*
X548599Y257788D02*Y256188D01*
Y257788D02*X549985Y258588D01*
X548599Y257788D02*X547212Y258588D01*
X548599Y246288D02*Y244688D01*
Y246288D02*X549985Y247088D01*
X548599Y246288D02*X547212Y247088D01*
X538599Y247788D02*Y246188D01*
Y247788D02*X539985Y248588D01*
X538599Y247788D02*X537212Y248588D01*
X538599Y256288D02*Y254688D01*
Y256288D02*X539985Y257088D01*
X538599Y256288D02*X537212Y257088D01*
X528599Y257788D02*Y256188D01*
Y257788D02*X529985Y258588D01*
X528599Y257788D02*X527212Y258588D01*
X518599Y256288D02*Y254688D01*
Y256288D02*X519985Y257088D01*
X518599Y256288D02*X517212Y257088D01*
X508599Y257788D02*Y256188D01*
Y257788D02*X509985Y258588D01*
X508599Y257788D02*X507212Y258588D01*
X498599Y256288D02*Y254688D01*
Y256288D02*X499985Y257088D01*
X498599Y256288D02*X497212Y257088D01*
X528599Y246288D02*Y244688D01*
Y246288D02*X529985Y247088D01*
X528599Y246288D02*X527212Y247088D01*
X518599Y247788D02*Y246188D01*
Y247788D02*X519985Y248588D01*
X518599Y247788D02*X517212Y248588D01*
X508599Y246288D02*Y244688D01*
Y246288D02*X509985Y247088D01*
X508599Y246288D02*X507212Y247088D01*
X498599Y247788D02*Y246188D01*
Y247788D02*X499985Y248588D01*
X498599Y247788D02*X497212Y248588D01*
X15000Y1856250D02*Y1854650D01*
Y1856250D02*X16387Y1857050D01*
X15000Y1856250D02*X13613Y1857050D01*
X135000Y1858500D02*X136500Y1855500D01*
X138000Y1858500D01*
X136500Y1855500D02*Y1852500D01*
X139800Y1855800D02*X142050D01*
X139800Y1852500D02*X142800D01*
X139800Y1858500D02*Y1852500D01*
Y1858500D02*X142800D01*
X147600D02*X148350Y1857750D01*
X145350Y1858500D02*X147600D01*
X144600Y1857750D02*X145350Y1858500D01*
X144600Y1857750D02*Y1856250D01*
X145350Y1855500D01*
X147600D01*
X148350Y1854750D01*
Y1853250D01*
X147600Y1852500D02*X148350Y1853250D01*
X145350Y1852500D02*X147600D01*
X144600Y1853250D02*X145350Y1852500D01*
X98000Y1857750D02*X98750Y1858500D01*
X101000D01*
X101750Y1857750D01*
Y1856250D01*
X98000Y1852500D02*X101750Y1856250D01*
X98000Y1852500D02*X101750D01*
X103550Y1854750D02*X106550Y1858500D01*
X103550Y1854750D02*X107300D01*
X106550Y1858500D02*Y1852500D01*
X45000Y1853250D02*X45750Y1852500D01*
X45000Y1857750D02*Y1853250D01*
Y1857750D02*X45750Y1858500D01*
X47250D01*
X48000Y1857750D01*
Y1853250D01*
X47250Y1852500D02*X48000Y1853250D01*
X45750Y1852500D02*X47250D01*
X45000Y1854000D02*X48000Y1857000D01*
X49800Y1852500D02*X50550D01*
X52350Y1853250D02*X53100Y1852500D01*
X52350Y1857750D02*Y1853250D01*
Y1857750D02*X53100Y1858500D01*
X54600D01*
X55350Y1857750D01*
Y1853250D01*
X54600Y1852500D02*X55350Y1853250D01*
X53100Y1852500D02*X54600D01*
X52350Y1854000D02*X55350Y1857000D01*
X57150Y1857750D02*X57900Y1858500D01*
X59400D01*
X60150Y1857750D01*
X59400Y1852500D02*X60150Y1853250D01*
X57900Y1852500D02*X59400D01*
X57150Y1853250D02*X57900Y1852500D01*
Y1855800D02*X59400D01*
X60150Y1857750D02*Y1856550D01*
Y1855050D02*Y1853250D01*
Y1855050D02*X59400Y1855800D01*
X60150Y1856550D02*X59400Y1855800D01*
X61950Y1853250D02*X62700Y1852500D01*
X61950Y1854450D02*Y1853250D01*
Y1854450D02*X63000Y1855500D01*
X63900D01*
X64950Y1854450D01*
Y1853250D01*
X64200Y1852500D02*X64950Y1853250D01*
X62700Y1852500D02*X64200D01*
X61950Y1856550D02*X63000Y1855500D01*
X61950Y1857750D02*Y1856550D01*
Y1857750D02*X62700Y1858500D01*
X64200D01*
X64950Y1857750D01*
Y1856550D01*
X63900Y1855500D02*X64950Y1856550D01*
X3000Y1873500D02*X3750Y1872750D01*
X750Y1873500D02*X3000D01*
X0Y1872750D02*X750Y1873500D01*
X0Y1872750D02*Y1871250D01*
X750Y1870500D01*
X3000D01*
X3750Y1869750D01*
Y1868250D01*
X3000Y1867500D02*X3750Y1868250D01*
X750Y1867500D02*X3000D01*
X0Y1868250D02*X750Y1867500D01*
X5550Y1870500D02*Y1868250D01*
X6300Y1867500D01*
X8550Y1870500D02*Y1866000D01*
X7800Y1865250D02*X8550Y1866000D01*
X6300Y1865250D02*X7800D01*
X5550Y1866000D02*X6300Y1865250D01*
Y1867500D02*X7800D01*
X8550Y1868250D01*
X11100Y1869750D02*Y1867500D01*
Y1869750D02*X11850Y1870500D01*
X12600D01*
X13350Y1869750D01*
Y1867500D01*
Y1869750D02*X14100Y1870500D01*
X14850D01*
X15600Y1869750D01*
Y1867500D01*
X10350Y1870500D02*X11100Y1869750D01*
X17400Y1873500D02*Y1867500D01*
Y1868250D02*X18150Y1867500D01*
X19650D01*
X20400Y1868250D01*
Y1869750D02*Y1868250D01*
X19650Y1870500D02*X20400Y1869750D01*
X18150Y1870500D02*X19650D01*
X17400Y1869750D02*X18150Y1870500D01*
X22200Y1869750D02*Y1868250D01*
Y1869750D02*X22950Y1870500D01*
X24450D01*
X25200Y1869750D01*
Y1868250D01*
X24450Y1867500D02*X25200Y1868250D01*
X22950Y1867500D02*X24450D01*
X22200Y1868250D02*X22950Y1867500D01*
X27000Y1873500D02*Y1868250D01*
X27750Y1867500D01*
X0Y1864250D02*X29250D01*
X41750Y1873500D02*Y1867500D01*
X43700Y1873500D02*X44750Y1872450D01*
Y1868550D01*
X43700Y1867500D02*X44750Y1868550D01*
X41000Y1867500D02*X43700D01*
X41000Y1873500D02*X43700D01*
G54D77*X46550Y1872000D02*Y1871850D01*
G54D76*Y1869750D02*Y1867500D01*
X50300Y1870500D02*X51050Y1869750D01*
X48800Y1870500D02*X50300D01*
X48050Y1869750D02*X48800Y1870500D01*
X48050Y1869750D02*Y1868250D01*
X48800Y1867500D01*
X51050Y1870500D02*Y1868250D01*
X51800Y1867500D01*
X48800D02*X50300D01*
X51050Y1868250D01*
X54350Y1869750D02*Y1867500D01*
Y1869750D02*X55100Y1870500D01*
X55850D01*
X56600Y1869750D01*
Y1867500D01*
Y1869750D02*X57350Y1870500D01*
X58100D01*
X58850Y1869750D01*
Y1867500D01*
X53600Y1870500D02*X54350Y1869750D01*
X60650Y1867500D02*X61400D01*
X65900Y1868250D02*X66650Y1867500D01*
X65900Y1872750D02*X66650Y1873500D01*
X65900Y1872750D02*Y1868250D01*
X68450Y1873500D02*X69950D01*
X69200D02*Y1867500D01*
X68450D02*X69950D01*
X72500Y1869750D02*Y1867500D01*
Y1869750D02*X73250Y1870500D01*
X74000D01*
X74750Y1869750D01*
Y1867500D01*
X71750Y1870500D02*X72500Y1869750D01*
X77300Y1870500D02*X79550D01*
X76550Y1869750D02*X77300Y1870500D01*
X76550Y1869750D02*Y1868250D01*
X77300Y1867500D01*
X79550D01*
X81350Y1873500D02*Y1867500D01*
Y1869750D02*X82100Y1870500D01*
X83600D01*
X84350Y1869750D01*
Y1867500D01*
X86150Y1873500D02*X86900Y1872750D01*
Y1868250D01*
X86150Y1867500D02*X86900Y1868250D01*
X41000Y1864250D02*X88700D01*
X96050Y1867500D02*X98000D01*
X95000Y1868550D02*X96050Y1867500D01*
X95000Y1872450D02*Y1868550D01*
Y1872450D02*X96050Y1873500D01*
X98000D01*
X99800Y1869750D02*Y1868250D01*
Y1869750D02*X100550Y1870500D01*
X102050D01*
X102800Y1869750D01*
Y1868250D01*
X102050Y1867500D02*X102800Y1868250D01*
X100550Y1867500D02*X102050D01*
X99800Y1868250D02*X100550Y1867500D01*
X104600Y1870500D02*Y1868250D01*
X105350Y1867500D01*
X106850D01*
X107600Y1868250D01*
Y1870500D02*Y1868250D01*
X110150Y1869750D02*Y1867500D01*
Y1869750D02*X110900Y1870500D01*
X111650D01*
X112400Y1869750D01*
Y1867500D01*
X109400Y1870500D02*X110150Y1869750D01*
X114950Y1873500D02*Y1868250D01*
X115700Y1867500D01*
X114200Y1871250D02*X115700D01*
X95000Y1864250D02*X117200D01*
X130750Y1873500D02*Y1867500D01*
X130000Y1873500D02*X133000D01*
X133750Y1872750D01*
Y1871250D01*
X133000Y1870500D02*X133750Y1871250D01*
X130750Y1870500D02*X133000D01*
X135550Y1873500D02*Y1868250D01*
X136300Y1867500D01*
X140050Y1870500D02*X140800Y1869750D01*
X138550Y1870500D02*X140050D01*
X137800Y1869750D02*X138550Y1870500D01*
X137800Y1869750D02*Y1868250D01*
X138550Y1867500D01*
X140800Y1870500D02*Y1868250D01*
X141550Y1867500D01*
X138550D02*X140050D01*
X140800Y1868250D01*
X144100Y1873500D02*Y1868250D01*
X144850Y1867500D01*
X143350Y1871250D02*X144850D01*
X147100Y1867500D02*X149350D01*
X146350Y1868250D02*X147100Y1867500D01*
X146350Y1869750D02*Y1868250D01*
Y1869750D02*X147100Y1870500D01*
X148600D01*
X149350Y1869750D01*
X146350Y1869000D02*X149350D01*
Y1869750D02*Y1869000D01*
X154150Y1873500D02*Y1867500D01*
X153400D02*X154150Y1868250D01*
X151900Y1867500D02*X153400D01*
X151150Y1868250D02*X151900Y1867500D01*
X151150Y1869750D02*Y1868250D01*
Y1869750D02*X151900Y1870500D01*
X153400D01*
X154150Y1869750D01*
X157450Y1870500D02*Y1869750D01*
Y1868250D02*Y1867500D01*
X155950Y1872750D02*Y1872000D01*
Y1872750D02*X156700Y1873500D01*
X158200D01*
X158950Y1872750D01*
Y1872000D01*
X157450Y1870500D02*X158950Y1872000D01*
X130000Y1864250D02*X160750D01*
X0Y1888500D02*X3000D01*
X1500D02*Y1882500D01*
X4800Y1888500D02*Y1882500D01*
Y1884750D02*X5550Y1885500D01*
X7050D01*
X7800Y1884750D01*
Y1882500D01*
X10350D02*X12600D01*
X9600Y1883250D02*X10350Y1882500D01*
X9600Y1884750D02*Y1883250D01*
Y1884750D02*X10350Y1885500D01*
X11850D01*
X12600Y1884750D01*
X9600Y1884000D02*X12600D01*
Y1884750D02*Y1884000D01*
X15150Y1884750D02*Y1882500D01*
Y1884750D02*X15900Y1885500D01*
X17400D01*
X14400D02*X15150Y1884750D01*
X19950Y1882500D02*X22200D01*
X19200Y1883250D02*X19950Y1882500D01*
X19200Y1884750D02*Y1883250D01*
Y1884750D02*X19950Y1885500D01*
X21450D01*
X22200Y1884750D01*
X19200Y1884000D02*X22200D01*
Y1884750D02*Y1884000D01*
X28950Y1885500D02*X29700Y1884750D01*
X27450Y1885500D02*X28950D01*
X26700Y1884750D02*X27450Y1885500D01*
X26700Y1884750D02*Y1883250D01*
X27450Y1882500D01*
X29700Y1885500D02*Y1883250D01*
X30450Y1882500D01*
X27450D02*X28950D01*
X29700Y1883250D01*
X33000Y1884750D02*Y1882500D01*
Y1884750D02*X33750Y1885500D01*
X35250D01*
X32250D02*X33000Y1884750D01*
X37800Y1882500D02*X40050D01*
X37050Y1883250D02*X37800Y1882500D01*
X37050Y1884750D02*Y1883250D01*
Y1884750D02*X37800Y1885500D01*
X39300D01*
X40050Y1884750D01*
X37050Y1884000D02*X40050D01*
Y1884750D02*Y1884000D01*
X44550Y1887750D02*X45300Y1888500D01*
X46800D01*
X47550Y1887750D01*
X46800Y1882500D02*X47550Y1883250D01*
X45300Y1882500D02*X46800D01*
X44550Y1883250D02*X45300Y1882500D01*
Y1885800D02*X46800D01*
X47550Y1887750D02*Y1886550D01*
Y1885050D02*Y1883250D01*
Y1885050D02*X46800Y1885800D01*
X47550Y1886550D02*X46800Y1885800D01*
X55050Y1888500D02*Y1882500D01*
X54300D02*X55050Y1883250D01*
X52800Y1882500D02*X54300D01*
X52050Y1883250D02*X52800Y1882500D01*
X52050Y1884750D02*Y1883250D01*
Y1884750D02*X52800Y1885500D01*
X54300D01*
X55050Y1884750D01*
G54D77*X56850Y1887000D02*Y1886850D01*
G54D76*Y1884750D02*Y1882500D01*
X59100Y1887750D02*Y1882500D01*
Y1887750D02*X59850Y1888500D01*
X60600D01*
X58350Y1885500D02*X59850D01*
X62850Y1887750D02*Y1882500D01*
Y1887750D02*X63600Y1888500D01*
X64350D01*
X62100Y1885500D02*X63600D01*
X66600Y1882500D02*X68850D01*
X65850Y1883250D02*X66600Y1882500D01*
X65850Y1884750D02*Y1883250D01*
Y1884750D02*X66600Y1885500D01*
X68100D01*
X68850Y1884750D01*
X65850Y1884000D02*X68850D01*
Y1884750D02*Y1884000D01*
X71400Y1884750D02*Y1882500D01*
Y1884750D02*X72150Y1885500D01*
X73650D01*
X70650D02*X71400Y1884750D01*
X76200Y1882500D02*X78450D01*
X75450Y1883250D02*X76200Y1882500D01*
X75450Y1884750D02*Y1883250D01*
Y1884750D02*X76200Y1885500D01*
X77700D01*
X78450Y1884750D01*
X75450Y1884000D02*X78450D01*
Y1884750D02*Y1884000D01*
X81000Y1884750D02*Y1882500D01*
Y1884750D02*X81750Y1885500D01*
X82500D01*
X83250Y1884750D01*
Y1882500D01*
X80250Y1885500D02*X81000Y1884750D01*
X85800Y1888500D02*Y1883250D01*
X86550Y1882500D01*
X85050Y1886250D02*X86550D01*
X93750Y1888500D02*Y1882500D01*
X93000D02*X93750Y1883250D01*
X91500Y1882500D02*X93000D01*
X90750Y1883250D02*X91500Y1882500D01*
X90750Y1884750D02*Y1883250D01*
Y1884750D02*X91500Y1885500D01*
X93000D01*
X93750Y1884750D01*
X96300D02*Y1882500D01*
Y1884750D02*X97050Y1885500D01*
X98550D01*
X95550D02*X96300Y1884750D01*
G54D77*X100350Y1887000D02*Y1886850D01*
G54D76*Y1884750D02*Y1882500D01*
X101850Y1888500D02*Y1883250D01*
X102600Y1882500D01*
X104100Y1888500D02*Y1883250D01*
X104850Y1882500D01*
X109800D02*X112050D01*
X112800Y1883250D01*
X112050Y1884000D02*X112800Y1883250D01*
X109800Y1884000D02*X112050D01*
X109050Y1884750D02*X109800Y1884000D01*
X109050Y1884750D02*X109800Y1885500D01*
X112050D01*
X112800Y1884750D01*
X109050Y1883250D02*X109800Y1882500D01*
G54D77*X114600Y1887000D02*Y1886850D01*
G54D76*Y1884750D02*Y1882500D01*
X116100Y1885500D02*X119100D01*
X116100Y1882500D02*X119100Y1885500D01*
X116100Y1882500D02*X119100D01*
X121650D02*X123900D01*
X120900Y1883250D02*X121650Y1882500D01*
X120900Y1884750D02*Y1883250D01*
Y1884750D02*X121650Y1885500D01*
X123150D01*
X123900Y1884750D01*
X120900Y1884000D02*X123900D01*
Y1884750D02*Y1884000D01*
X126450Y1882500D02*X128700D01*
X129450Y1883250D01*
X128700Y1884000D02*X129450Y1883250D01*
X126450Y1884000D02*X128700D01*
X125700Y1884750D02*X126450Y1884000D01*
X125700Y1884750D02*X126450Y1885500D01*
X128700D01*
X129450Y1884750D01*
X125700Y1883250D02*X126450Y1882500D01*
X133950Y1885500D02*Y1883250D01*
X134700Y1882500D01*
X136200D01*
X136950Y1883250D01*
Y1885500D02*Y1883250D01*
X139500Y1882500D02*X141750D01*
X142500Y1883250D01*
X141750Y1884000D02*X142500Y1883250D01*
X139500Y1884000D02*X141750D01*
X138750Y1884750D02*X139500Y1884000D01*
X138750Y1884750D02*X139500Y1885500D01*
X141750D01*
X142500Y1884750D01*
X138750Y1883250D02*X139500Y1882500D01*
X145050D02*X147300D01*
X144300Y1883250D02*X145050Y1882500D01*
X144300Y1884750D02*Y1883250D01*
Y1884750D02*X145050Y1885500D01*
X146550D01*
X147300Y1884750D01*
X144300Y1884000D02*X147300D01*
Y1884750D02*Y1884000D01*
X152100Y1888500D02*Y1882500D01*
X151350D02*X152100Y1883250D01*
X149850Y1882500D02*X151350D01*
X149100Y1883250D02*X149850Y1882500D01*
X149100Y1884750D02*Y1883250D01*
Y1884750D02*X149850Y1885500D01*
X151350D01*
X152100Y1884750D01*
G54D77*X156600Y1887000D02*Y1886850D01*
G54D76*Y1884750D02*Y1882500D01*
X158850Y1884750D02*Y1882500D01*
Y1884750D02*X159600Y1885500D01*
X160350D01*
X161100Y1884750D01*
Y1882500D01*
X158100Y1885500D02*X158850Y1884750D01*
X166350Y1888500D02*Y1883250D01*
X167100Y1882500D01*
X165600Y1886250D02*X167100D01*
X168600Y1888500D02*Y1882500D01*
Y1884750D02*X169350Y1885500D01*
X170850D01*
X171600Y1884750D01*
Y1882500D01*
G54D77*X173400Y1887000D02*Y1886850D01*
G54D76*Y1884750D02*Y1882500D01*
X175650D02*X177900D01*
X178650Y1883250D01*
X177900Y1884000D02*X178650Y1883250D01*
X175650Y1884000D02*X177900D01*
X174900Y1884750D02*X175650Y1884000D01*
X174900Y1884750D02*X175650Y1885500D01*
X177900D01*
X178650Y1884750D01*
X174900Y1883250D02*X175650Y1882500D01*
X183150Y1888500D02*Y1883250D01*
X183900Y1882500D01*
X187650Y1885500D02*X188400Y1884750D01*
X186150Y1885500D02*X187650D01*
X185400Y1884750D02*X186150Y1885500D01*
X185400Y1884750D02*Y1883250D01*
X186150Y1882500D01*
X188400Y1885500D02*Y1883250D01*
X189150Y1882500D01*
X186150D02*X187650D01*
X188400Y1883250D01*
X190950Y1885500D02*Y1883250D01*
X191700Y1882500D01*
X193950Y1885500D02*Y1881000D01*
X193200Y1880250D02*X193950Y1881000D01*
X191700Y1880250D02*X193200D01*
X190950Y1881000D02*X191700Y1880250D01*
Y1882500D02*X193200D01*
X193950Y1883250D01*
X195750Y1884750D02*Y1883250D01*
Y1884750D02*X196500Y1885500D01*
X198000D01*
X198750Y1884750D01*
Y1883250D01*
X198000Y1882500D02*X198750Y1883250D01*
X196500Y1882500D02*X198000D01*
X195750Y1883250D02*X196500Y1882500D01*
X200550Y1885500D02*Y1883250D01*
X201300Y1882500D01*
X202800D01*
X203550Y1883250D01*
Y1885500D02*Y1883250D01*
X206100Y1888500D02*Y1883250D01*
X206850Y1882500D01*
X205350Y1886250D02*X206850D01*
X208350Y1881000D02*X209850Y1882500D01*
X214350Y1888500D02*X217350D01*
X214350D02*Y1885500D01*
X215100Y1886250D01*
X216600D01*
X217350Y1885500D01*
Y1883250D01*
X216600Y1882500D02*X217350Y1883250D01*
X215100Y1882500D02*X216600D01*
X214350Y1883250D02*X215100Y1882500D01*
X219150Y1883250D02*X219900Y1882500D01*
X219150Y1884450D02*Y1883250D01*
Y1884450D02*X220200Y1885500D01*
X221100D01*
X222150Y1884450D01*
Y1883250D01*
X221400Y1882500D02*X222150Y1883250D01*
X219900Y1882500D02*X221400D01*
X219150Y1886550D02*X220200Y1885500D01*
X219150Y1887750D02*Y1886550D01*
Y1887750D02*X219900Y1888500D01*
X221400D01*
X222150Y1887750D01*
Y1886550D01*
X221100Y1885500D02*X222150Y1886550D01*
X226650Y1888500D02*Y1882500D01*
Y1884750D02*X227400Y1885500D01*
X228900D01*
X229650Y1884750D01*
Y1882500D01*
X231450Y1884750D02*Y1883250D01*
Y1884750D02*X232200Y1885500D01*
X233700D01*
X234450Y1884750D01*
Y1883250D01*
X233700Y1882500D02*X234450Y1883250D01*
X232200Y1882500D02*X233700D01*
X231450Y1883250D02*X232200Y1882500D01*
X236250Y1888500D02*Y1883250D01*
X237000Y1882500D01*
X239250D02*X241500D01*
X238500Y1883250D02*X239250Y1882500D01*
X238500Y1884750D02*Y1883250D01*
Y1884750D02*X239250Y1885500D01*
X240750D01*
X241500Y1884750D01*
X238500Y1884000D02*X241500D01*
Y1884750D02*Y1884000D01*
X244050Y1882500D02*X246300D01*
X247050Y1883250D01*
X246300Y1884000D02*X247050Y1883250D01*
X244050Y1884000D02*X246300D01*
X243300Y1884750D02*X244050Y1884000D01*
X243300Y1884750D02*X244050Y1885500D01*
X246300D01*
X247050Y1884750D01*
X243300Y1883250D02*X244050Y1882500D01*
X252300Y1888500D02*Y1883250D01*
X253050Y1882500D01*
X251550Y1886250D02*X253050D01*
X254550Y1884750D02*Y1883250D01*
Y1884750D02*X255300Y1885500D01*
X256800D01*
X257550Y1884750D01*
Y1883250D01*
X256800Y1882500D02*X257550Y1883250D01*
X255300Y1882500D02*X256800D01*
X254550Y1883250D02*X255300Y1882500D01*
X260100Y1888500D02*Y1883250D01*
X260850Y1882500D01*
X259350Y1886250D02*X260850D01*
X264600Y1885500D02*X265350Y1884750D01*
X263100Y1885500D02*X264600D01*
X262350Y1884750D02*X263100Y1885500D01*
X262350Y1884750D02*Y1883250D01*
X263100Y1882500D01*
X265350Y1885500D02*Y1883250D01*
X266100Y1882500D01*
X263100D02*X264600D01*
X265350Y1883250D01*
X267900Y1888500D02*Y1883250D01*
X268650Y1882500D01*
G54D78*X0Y1800000D02*X2400000D01*
X0D02*Y0D01*
X2400000Y1800000D02*Y0D01*
X0D02*X2400000D01*
G54D76*X200000Y1813500D02*Y1807500D01*
Y1813500D02*X202250Y1810500D01*
X204500Y1813500D01*
Y1807500D01*
X208550Y1810500D02*X209300Y1809750D01*
X207050Y1810500D02*X208550D01*
X206300Y1809750D02*X207050Y1810500D01*
X206300Y1809750D02*Y1808250D01*
X207050Y1807500D01*
X209300Y1810500D02*Y1808250D01*
X210050Y1807500D01*
X207050D02*X208550D01*
X209300Y1808250D01*
X211850Y1810500D02*X214850Y1807500D01*
X211850D02*X214850Y1810500D01*
G54D77*X216650Y1812000D02*Y1811850D01*
G54D76*Y1809750D02*Y1807500D01*
X218900Y1809750D02*Y1807500D01*
Y1809750D02*X219650Y1810500D01*
X220400D01*
X221150Y1809750D01*
Y1807500D01*
Y1809750D02*X221900Y1810500D01*
X222650D01*
X223400Y1809750D01*
Y1807500D01*
X218150Y1810500D02*X218900Y1809750D01*
X225200Y1810500D02*Y1808250D01*
X225950Y1807500D01*
X227450D01*
X228200Y1808250D01*
Y1810500D02*Y1808250D01*
X230750Y1809750D02*Y1807500D01*
Y1809750D02*X231500Y1810500D01*
X232250D01*
X233000Y1809750D01*
Y1807500D01*
Y1809750D02*X233750Y1810500D01*
X234500D01*
X235250Y1809750D01*
Y1807500D01*
X230000Y1810500D02*X230750Y1809750D01*
X240500Y1813500D02*Y1807500D01*
X242450Y1813500D02*X243500Y1812450D01*
Y1808550D01*
X242450Y1807500D02*X243500Y1808550D01*
X239750Y1807500D02*X242450D01*
X239750Y1813500D02*X242450D01*
G54D77*X245300Y1812000D02*Y1811850D01*
G54D76*Y1809750D02*Y1807500D01*
X247550Y1809750D02*Y1807500D01*
Y1809750D02*X248300Y1810500D01*
X249050D01*
X249800Y1809750D01*
Y1807500D01*
Y1809750D02*X250550Y1810500D01*
X251300D01*
X252050Y1809750D01*
Y1807500D01*
X246800Y1810500D02*X247550Y1809750D01*
X254600Y1807500D02*X256850D01*
X253850Y1808250D02*X254600Y1807500D01*
X253850Y1809750D02*Y1808250D01*
Y1809750D02*X254600Y1810500D01*
X256100D01*
X256850Y1809750D01*
X253850Y1809000D02*X256850D01*
Y1809750D02*Y1809000D01*
X259400Y1809750D02*Y1807500D01*
Y1809750D02*X260150Y1810500D01*
X260900D01*
X261650Y1809750D01*
Y1807500D01*
X258650Y1810500D02*X259400Y1809750D01*
X264200Y1807500D02*X266450D01*
X267200Y1808250D01*
X266450Y1809000D02*X267200Y1808250D01*
X264200Y1809000D02*X266450D01*
X263450Y1809750D02*X264200Y1809000D01*
X263450Y1809750D02*X264200Y1810500D01*
X266450D01*
X267200Y1809750D01*
X263450Y1808250D02*X264200Y1807500D01*
G54D77*X269000Y1812000D02*Y1811850D01*
G54D76*Y1809750D02*Y1807500D01*
X270500Y1809750D02*Y1808250D01*
Y1809750D02*X271250Y1810500D01*
X272750D01*
X273500Y1809750D01*
Y1808250D01*
X272750Y1807500D02*X273500Y1808250D01*
X271250Y1807500D02*X272750D01*
X270500Y1808250D02*X271250Y1807500D01*
X276050Y1809750D02*Y1807500D01*
Y1809750D02*X276800Y1810500D01*
X277550D01*
X278300Y1809750D01*
Y1807500D01*
X275300Y1810500D02*X276050Y1809750D01*
X280850Y1807500D02*X283100D01*
X283850Y1808250D01*
X283100Y1809000D02*X283850Y1808250D01*
X280850Y1809000D02*X283100D01*
X280100Y1809750D02*X280850Y1809000D01*
X280100Y1809750D02*X280850Y1810500D01*
X283100D01*
X283850Y1809750D01*
X280100Y1808250D02*X280850Y1807500D01*
X285650Y1811250D02*X286400D01*
X285650Y1809750D02*X286400D01*
X290900Y1812750D02*X291650Y1813500D01*
X293900D01*
X294650Y1812750D01*
Y1811250D01*
X290900Y1807500D02*X294650Y1811250D01*
X290900Y1807500D02*X294650D01*
X296450Y1809750D02*X299450Y1813500D01*
X296450Y1809750D02*X300200D01*
X299450Y1813500D02*Y1807500D01*
X302000Y1808250D02*X302750Y1807500D01*
X302000Y1812750D02*Y1808250D01*
Y1812750D02*X302750Y1813500D01*
X304250D01*
X305000Y1812750D01*
Y1808250D01*
X304250Y1807500D02*X305000Y1808250D01*
X302750Y1807500D02*X304250D01*
X302000Y1809000D02*X305000Y1812000D01*
X306800Y1808250D02*X307550Y1807500D01*
X306800Y1812750D02*Y1808250D01*
Y1812750D02*X307550Y1813500D01*
X309050D01*
X309800Y1812750D01*
Y1808250D01*
X309050Y1807500D02*X309800Y1808250D01*
X307550Y1807500D02*X309050D01*
X306800Y1809000D02*X309800Y1812000D01*
X311600Y1808250D02*X312350Y1807500D01*
X311600Y1812750D02*Y1808250D01*
Y1812750D02*X312350Y1813500D01*
X313850D01*
X314600Y1812750D01*
Y1808250D01*
X313850Y1807500D02*X314600Y1808250D01*
X312350Y1807500D02*X313850D01*
X311600Y1809000D02*X314600Y1812000D01*
X316400Y1807500D02*X317150D01*
X318950Y1808250D02*X319700Y1807500D01*
X318950Y1812750D02*Y1808250D01*
Y1812750D02*X319700Y1813500D01*
X321200D01*
X321950Y1812750D01*
Y1808250D01*
X321200Y1807500D02*X321950Y1808250D01*
X319700Y1807500D02*X321200D01*
X318950Y1809000D02*X321950Y1812000D01*
X323750Y1808250D02*X324500Y1807500D01*
X323750Y1812750D02*Y1808250D01*
Y1812750D02*X324500Y1813500D01*
X326000D01*
X326750Y1812750D01*
Y1808250D01*
X326000Y1807500D02*X326750Y1808250D01*
X324500Y1807500D02*X326000D01*
X323750Y1809000D02*X326750Y1812000D01*
X328550Y1808250D02*X329300Y1807500D01*
X328550Y1812750D02*Y1808250D01*
Y1812750D02*X329300Y1813500D01*
X330800D01*
X331550Y1812750D01*
Y1808250D01*
X330800Y1807500D02*X331550Y1808250D01*
X329300Y1807500D02*X330800D01*
X328550Y1809000D02*X331550Y1812000D01*
X333350Y1808250D02*X334100Y1807500D01*
X333350Y1812750D02*Y1808250D01*
Y1812750D02*X334100Y1813500D01*
X335600D01*
X336350Y1812750D01*
Y1808250D01*
X335600Y1807500D02*X336350Y1808250D01*
X334100Y1807500D02*X335600D01*
X333350Y1809000D02*X336350Y1812000D01*
X338150Y1808250D02*X338900Y1807500D01*
X338150Y1812750D02*Y1808250D01*
Y1812750D02*X338900Y1813500D01*
X340400D01*
X341150Y1812750D01*
Y1808250D01*
X340400Y1807500D02*X341150Y1808250D01*
X338900Y1807500D02*X340400D01*
X338150Y1809000D02*X341150Y1812000D01*
X342950Y1808250D02*X343700Y1807500D01*
X342950Y1812750D02*Y1808250D01*
Y1812750D02*X343700Y1813500D01*
X345200D01*
X345950Y1812750D01*
Y1808250D01*
X345200Y1807500D02*X345950Y1808250D01*
X343700Y1807500D02*X345200D01*
X342950Y1809000D02*X345950Y1812000D01*
X351200Y1809750D02*Y1807500D01*
Y1809750D02*X351950Y1810500D01*
X352700D01*
X353450Y1809750D01*
Y1807500D01*
Y1809750D02*X354200Y1810500D01*
X354950D01*
X355700Y1809750D01*
Y1807500D01*
X350450Y1810500D02*X351200Y1809750D01*
G54D77*X357500Y1812000D02*Y1811850D01*
G54D76*Y1809750D02*Y1807500D01*
X359000Y1813500D02*Y1808250D01*
X359750Y1807500D01*
X362000D02*X364250D01*
X365000Y1808250D01*
X364250Y1809000D02*X365000Y1808250D01*
X362000Y1809000D02*X364250D01*
X361250Y1809750D02*X362000Y1809000D01*
X361250Y1809750D02*X362000Y1810500D01*
X364250D01*
X365000Y1809750D01*
X361250Y1808250D02*X362000Y1807500D01*
X369500Y1810500D02*Y1808250D01*
X370250Y1807500D01*
X371000D01*
X371750Y1808250D01*
Y1810500D02*Y1808250D01*
X372500Y1807500D01*
X373250D01*
X374000Y1808250D01*
Y1810500D02*Y1808250D01*
G54D77*X375800Y1812000D02*Y1811850D01*
G54D76*Y1809750D02*Y1807500D01*
X380300Y1813500D02*Y1807500D01*
X379550D02*X380300Y1808250D01*
X378050Y1807500D02*X379550D01*
X377300Y1808250D02*X378050Y1807500D01*
X377300Y1809750D02*Y1808250D01*
Y1809750D02*X378050Y1810500D01*
X379550D01*
X380300Y1809750D01*
X382850Y1807500D02*X385100D01*
X382100Y1808250D02*X382850Y1807500D01*
X382100Y1809750D02*Y1808250D01*
Y1809750D02*X382850Y1810500D01*
X384350D01*
X385100Y1809750D01*
X382100Y1809000D02*X385100D01*
Y1809750D02*Y1809000D01*
X386900Y1806000D02*X388400Y1807500D01*
X392900Y1812300D02*X394100Y1813500D01*
Y1807500D01*
X392900D02*X395150D01*
X396950Y1808250D02*X397700Y1807500D01*
X396950Y1809450D02*Y1808250D01*
Y1809450D02*X398000Y1810500D01*
X398900D01*
X399950Y1809450D01*
Y1808250D01*
X399200Y1807500D02*X399950Y1808250D01*
X397700Y1807500D02*X399200D01*
X396950Y1811550D02*X398000Y1810500D01*
X396950Y1812750D02*Y1811550D01*
Y1812750D02*X397700Y1813500D01*
X399200D01*
X399950Y1812750D01*
Y1811550D01*
X398900Y1810500D02*X399950Y1811550D01*
X401750Y1808250D02*X402500Y1807500D01*
X401750Y1812750D02*Y1808250D01*
Y1812750D02*X402500Y1813500D01*
X404000D01*
X404750Y1812750D01*
Y1808250D01*
X404000Y1807500D02*X404750Y1808250D01*
X402500Y1807500D02*X404000D01*
X401750Y1809000D02*X404750Y1812000D01*
X406550Y1808250D02*X407300Y1807500D01*
X406550Y1812750D02*Y1808250D01*
Y1812750D02*X407300Y1813500D01*
X408800D01*
X409550Y1812750D01*
Y1808250D01*
X408800Y1807500D02*X409550Y1808250D01*
X407300Y1807500D02*X408800D01*
X406550Y1809000D02*X409550Y1812000D01*
X411350Y1808250D02*X412100Y1807500D01*
X411350Y1812750D02*Y1808250D01*
Y1812750D02*X412100Y1813500D01*
X413600D01*
X414350Y1812750D01*
Y1808250D01*
X413600Y1807500D02*X414350Y1808250D01*
X412100Y1807500D02*X413600D01*
X411350Y1809000D02*X414350Y1812000D01*
X416150Y1807500D02*X416900D01*
X418700Y1808250D02*X419450Y1807500D01*
X418700Y1812750D02*Y1808250D01*
Y1812750D02*X419450Y1813500D01*
X420950D01*
X421700Y1812750D01*
Y1808250D01*
X420950Y1807500D02*X421700Y1808250D01*
X419450Y1807500D02*X420950D01*
X418700Y1809000D02*X421700Y1812000D01*
X423500Y1808250D02*X424250Y1807500D01*
X423500Y1812750D02*Y1808250D01*
Y1812750D02*X424250Y1813500D01*
X425750D01*
X426500Y1812750D01*
Y1808250D01*
X425750Y1807500D02*X426500Y1808250D01*
X424250Y1807500D02*X425750D01*
X423500Y1809000D02*X426500Y1812000D01*
X428300Y1808250D02*X429050Y1807500D01*
X428300Y1812750D02*Y1808250D01*
Y1812750D02*X429050Y1813500D01*
X430550D01*
X431300Y1812750D01*
Y1808250D01*
X430550Y1807500D02*X431300Y1808250D01*
X429050Y1807500D02*X430550D01*
X428300Y1809000D02*X431300Y1812000D01*
X433100Y1808250D02*X433850Y1807500D01*
X433100Y1812750D02*Y1808250D01*
Y1812750D02*X433850Y1813500D01*
X435350D01*
X436100Y1812750D01*
Y1808250D01*
X435350Y1807500D02*X436100Y1808250D01*
X433850Y1807500D02*X435350D01*
X433100Y1809000D02*X436100Y1812000D01*
X437900Y1808250D02*X438650Y1807500D01*
X437900Y1812750D02*Y1808250D01*
Y1812750D02*X438650Y1813500D01*
X440150D01*
X440900Y1812750D01*
Y1808250D01*
X440150Y1807500D02*X440900Y1808250D01*
X438650Y1807500D02*X440150D01*
X437900Y1809000D02*X440900Y1812000D01*
X442700Y1808250D02*X443450Y1807500D01*
X442700Y1812750D02*Y1808250D01*
Y1812750D02*X443450Y1813500D01*
X444950D01*
X445700Y1812750D01*
Y1808250D01*
X444950Y1807500D02*X445700Y1808250D01*
X443450Y1807500D02*X444950D01*
X442700Y1809000D02*X445700Y1812000D01*
X450950Y1809750D02*Y1807500D01*
Y1809750D02*X451700Y1810500D01*
X452450D01*
X453200Y1809750D01*
Y1807500D01*
Y1809750D02*X453950Y1810500D01*
X454700D01*
X455450Y1809750D01*
Y1807500D01*
X450200Y1810500D02*X450950Y1809750D01*
G54D77*X457250Y1812000D02*Y1811850D01*
G54D76*Y1809750D02*Y1807500D01*
X458750Y1813500D02*Y1808250D01*
X459500Y1807500D01*
X461750D02*X464000D01*
X464750Y1808250D01*
X464000Y1809000D02*X464750Y1808250D01*
X461750Y1809000D02*X464000D01*
X461000Y1809750D02*X461750Y1809000D01*
X461000Y1809750D02*X461750Y1810500D01*
X464000D01*
X464750Y1809750D01*
X461000Y1808250D02*X461750Y1807500D01*
X469250Y1813500D02*Y1807500D01*
Y1809750D02*X470000Y1810500D01*
X471500D01*
X472250Y1809750D01*
Y1807500D01*
G54D77*X474050Y1812000D02*Y1811850D01*
G54D76*Y1809750D02*Y1807500D01*
X477800Y1810500D02*X478550Y1809750D01*
X476300Y1810500D02*X477800D01*
X475550Y1809750D02*X476300Y1810500D01*
X475550Y1809750D02*Y1808250D01*
X476300Y1807500D01*
X477800D01*
X478550Y1808250D01*
X475550Y1806000D02*X476300Y1805250D01*
X477800D01*
X478550Y1806000D01*
Y1810500D02*Y1806000D01*
X480350Y1813500D02*Y1807500D01*
Y1809750D02*X481100Y1810500D01*
X482600D01*
X483350Y1809750D01*
Y1807500D01*
X992100Y-9500D02*X995100D01*
X995850Y-8750D01*
Y-6950D02*Y-8750D01*
X995100Y-6200D02*X995850Y-6950D01*
X992850Y-6200D02*X995100D01*
X992850Y-3500D02*Y-9500D01*
X992100Y-3500D02*X995100D01*
X995850Y-4250D01*
Y-5450D01*
X995100Y-6200D02*X995850Y-5450D01*
X997650Y-7250D02*Y-8750D01*
Y-7250D02*X998400Y-6500D01*
X999900D01*
X1000650Y-7250D01*
Y-8750D01*
X999900Y-9500D02*X1000650Y-8750D01*
X998400Y-9500D02*X999900D01*
X997650Y-8750D02*X998400Y-9500D01*
X1004700Y-6500D02*X1005450Y-7250D01*
X1003200Y-6500D02*X1004700D01*
X1002450Y-7250D02*X1003200Y-6500D01*
X1002450Y-7250D02*Y-8750D01*
X1003200Y-9500D01*
X1005450Y-6500D02*Y-8750D01*
X1006200Y-9500D01*
X1003200D02*X1004700D01*
X1005450Y-8750D01*
X1008750Y-7250D02*Y-9500D01*
Y-7250D02*X1009500Y-6500D01*
X1011000D01*
X1008000D02*X1008750Y-7250D01*
X1015800Y-3500D02*Y-9500D01*
X1015050D02*X1015800Y-8750D01*
X1013550Y-9500D02*X1015050D01*
X1012800Y-8750D02*X1013550Y-9500D01*
X1012800Y-7250D02*Y-8750D01*
Y-7250D02*X1013550Y-6500D01*
X1015050D01*
X1015800Y-7250D01*
X1020300D02*Y-8750D01*
Y-7250D02*X1021050Y-6500D01*
X1022550D01*
X1023300Y-7250D01*
Y-8750D01*
X1022550Y-9500D02*X1023300Y-8750D01*
X1021050Y-9500D02*X1022550D01*
X1020300Y-8750D02*X1021050Y-9500D01*
X1025100Y-6500D02*Y-8750D01*
X1025850Y-9500D01*
X1027350D01*
X1028100Y-8750D01*
Y-6500D02*Y-8750D01*
X1030650Y-3500D02*Y-8750D01*
X1031400Y-9500D01*
X1029900Y-5750D02*X1031400D01*
X1032900Y-3500D02*Y-8750D01*
X1033650Y-9500D01*
G54D77*X1035150Y-5000D02*Y-5150D01*
G54D76*Y-7250D02*Y-9500D01*
X1037400Y-7250D02*Y-9500D01*
Y-7250D02*X1038150Y-6500D01*
X1038900D01*
X1039650Y-7250D01*
Y-9500D01*
X1036650Y-6500D02*X1037400Y-7250D01*
X1042200Y-9500D02*X1044450D01*
X1041450Y-8750D02*X1042200Y-9500D01*
X1041450Y-7250D02*Y-8750D01*
Y-7250D02*X1042200Y-6500D01*
X1043700D01*
X1044450Y-7250D01*
X1041450Y-8000D02*X1044450D01*
Y-7250D02*Y-8000D01*
G54D77*X1048950Y-5000D02*Y-5150D01*
G54D76*Y-7250D02*Y-9500D01*
X1051200D02*X1053450D01*
X1054200Y-8750D01*
X1053450Y-8000D02*X1054200Y-8750D01*
X1051200Y-8000D02*X1053450D01*
X1050450Y-7250D02*X1051200Y-8000D01*
X1050450Y-7250D02*X1051200Y-6500D01*
X1053450D01*
X1054200Y-7250D01*
X1050450Y-8750D02*X1051200Y-9500D01*
X1059450Y-3500D02*Y-8750D01*
X1060200Y-9500D01*
X1058700Y-5750D02*X1060200D01*
X1061700Y-3500D02*Y-9500D01*
Y-7250D02*X1062450Y-6500D01*
X1063950D01*
X1064700Y-7250D01*
Y-9500D01*
X1067250D02*X1069500D01*
X1066500Y-8750D02*X1067250Y-9500D01*
X1066500Y-7250D02*Y-8750D01*
Y-7250D02*X1067250Y-6500D01*
X1068750D01*
X1069500Y-7250D01*
X1066500Y-8000D02*X1069500D01*
Y-7250D02*Y-8000D01*
X1074750Y-6500D02*X1077000D01*
X1074000Y-7250D02*X1074750Y-6500D01*
X1074000Y-7250D02*Y-8750D01*
X1074750Y-9500D01*
X1077000D01*
X1079550D02*X1081800D01*
X1078800Y-8750D02*X1079550Y-9500D01*
X1078800Y-7250D02*Y-8750D01*
Y-7250D02*X1079550Y-6500D01*
X1081050D01*
X1081800Y-7250D01*
X1078800Y-8000D02*X1081800D01*
Y-7250D02*Y-8000D01*
X1084350Y-7250D02*Y-9500D01*
Y-7250D02*X1085100Y-6500D01*
X1085850D01*
X1086600Y-7250D01*
Y-9500D01*
X1083600Y-6500D02*X1084350Y-7250D01*
X1089150Y-3500D02*Y-8750D01*
X1089900Y-9500D01*
X1088400Y-5750D02*X1089900D01*
X1092150Y-9500D02*X1094400D01*
X1091400Y-8750D02*X1092150Y-9500D01*
X1091400Y-7250D02*Y-8750D01*
Y-7250D02*X1092150Y-6500D01*
X1093650D01*
X1094400Y-7250D01*
X1091400Y-8000D02*X1094400D01*
Y-7250D02*Y-8000D01*
X1096950Y-7250D02*Y-9500D01*
Y-7250D02*X1097700Y-6500D01*
X1099200D01*
X1096200D02*X1096950Y-7250D01*
X1101000Y-3500D02*Y-8750D01*
X1101750Y-9500D01*
G54D77*X1103250Y-5000D02*Y-5150D01*
G54D76*Y-7250D02*Y-9500D01*
X1105500Y-7250D02*Y-9500D01*
Y-7250D02*X1106250Y-6500D01*
X1107000D01*
X1107750Y-7250D01*
Y-9500D01*
X1104750Y-6500D02*X1105500Y-7250D01*
X1110300Y-9500D02*X1112550D01*
X1109550Y-8750D02*X1110300Y-9500D01*
X1109550Y-7250D02*Y-8750D01*
Y-7250D02*X1110300Y-6500D01*
X1111800D01*
X1112550Y-7250D01*
X1109550Y-8000D02*X1112550D01*
Y-7250D02*Y-8000D01*
X1117050Y-7250D02*Y-8750D01*
Y-7250D02*X1117800Y-6500D01*
X1119300D01*
X1120050Y-7250D01*
Y-8750D01*
X1119300Y-9500D02*X1120050Y-8750D01*
X1117800Y-9500D02*X1119300D01*
X1117050Y-8750D02*X1117800Y-9500D01*
X1122600Y-4250D02*Y-9500D01*
Y-4250D02*X1123350Y-3500D01*
X1124100D01*
X1121850Y-6500D02*X1123350D01*
X1129050Y-3500D02*Y-8750D01*
X1129800Y-9500D01*
X1128300Y-5750D02*X1129800D01*
X1131300Y-3500D02*Y-9500D01*
Y-7250D02*X1132050Y-6500D01*
X1133550D01*
X1134300Y-7250D01*
Y-9500D01*
G54D77*X1136100Y-5000D02*Y-5150D01*
G54D76*Y-7250D02*Y-9500D01*
X1138350D02*X1140600D01*
X1141350Y-8750D01*
X1140600Y-8000D02*X1141350Y-8750D01*
X1138350Y-8000D02*X1140600D01*
X1137600Y-7250D02*X1138350Y-8000D01*
X1137600Y-7250D02*X1138350Y-6500D01*
X1140600D01*
X1141350Y-7250D01*
X1137600Y-8750D02*X1138350Y-9500D01*
X1145850Y-8750D02*X1146600Y-9500D01*
X1145850Y-7550D02*Y-8750D01*
Y-7550D02*X1146900Y-6500D01*
X1147800D01*
X1148850Y-7550D01*
Y-8750D01*
X1148100Y-9500D02*X1148850Y-8750D01*
X1146600Y-9500D02*X1148100D01*
X1145850Y-5450D02*X1146900Y-6500D01*
X1145850Y-4250D02*Y-5450D01*
Y-4250D02*X1146600Y-3500D01*
X1148100D01*
X1148850Y-4250D01*
Y-5450D01*
X1147800Y-6500D02*X1148850Y-5450D01*
X1150650Y-9500D02*X1151400D01*
X1153200Y-8750D02*X1153950Y-9500D01*
X1153200Y-4250D02*Y-8750D01*
Y-4250D02*X1153950Y-3500D01*
X1155450D01*
X1156200Y-4250D01*
Y-8750D01*
X1155450Y-9500D02*X1156200Y-8750D01*
X1153950Y-9500D02*X1155450D01*
X1153200Y-8000D02*X1156200Y-5000D01*
X1158000Y-8750D02*X1158750Y-9500D01*
X1158000Y-4250D02*Y-8750D01*
Y-4250D02*X1158750Y-3500D01*
X1160250D01*
X1161000Y-4250D01*
Y-8750D01*
X1160250Y-9500D02*X1161000Y-8750D01*
X1158750Y-9500D02*X1160250D01*
X1158000Y-8000D02*X1161000Y-5000D01*
X1162800Y-8750D02*X1163550Y-9500D01*
X1162800Y-4250D02*Y-8750D01*
Y-4250D02*X1163550Y-3500D01*
X1165050D01*
X1165800Y-4250D01*
Y-8750D01*
X1165050Y-9500D02*X1165800Y-8750D01*
X1163550Y-9500D02*X1165050D01*
X1162800Y-8000D02*X1165800Y-5000D01*
X1167600Y-8750D02*X1168350Y-9500D01*
X1167600Y-4250D02*Y-8750D01*
Y-4250D02*X1168350Y-3500D01*
X1169850D01*
X1170600Y-4250D01*
Y-8750D01*
X1169850Y-9500D02*X1170600Y-8750D01*
X1168350Y-9500D02*X1169850D01*
X1167600Y-8000D02*X1170600Y-5000D01*
X1172400Y-8750D02*X1173150Y-9500D01*
X1172400Y-4250D02*Y-8750D01*
Y-4250D02*X1173150Y-3500D01*
X1174650D01*
X1175400Y-4250D01*
Y-8750D01*
X1174650Y-9500D02*X1175400Y-8750D01*
X1173150Y-9500D02*X1174650D01*
X1172400Y-8000D02*X1175400Y-5000D01*
X1177200Y-8750D02*X1177950Y-9500D01*
X1177200Y-4250D02*Y-8750D01*
Y-4250D02*X1177950Y-3500D01*
X1179450D01*
X1180200Y-4250D01*
Y-8750D01*
X1179450Y-9500D02*X1180200Y-8750D01*
X1177950Y-9500D02*X1179450D01*
X1177200Y-8000D02*X1180200Y-5000D01*
X1185450Y-7250D02*Y-9500D01*
Y-7250D02*X1186200Y-6500D01*
X1186950D01*
X1187700Y-7250D01*
Y-9500D01*
Y-7250D02*X1188450Y-6500D01*
X1189200D01*
X1189950Y-7250D01*
Y-9500D01*
X1184700Y-6500D02*X1185450Y-7250D01*
G54D77*X1191750Y-5000D02*Y-5150D01*
G54D76*Y-7250D02*Y-9500D01*
X1193250Y-3500D02*Y-8750D01*
X1194000Y-9500D01*
X1198950Y-7250D02*Y-9500D01*
Y-7250D02*X1199700Y-6500D01*
X1201200D01*
X1198200D02*X1198950Y-7250D01*
X1203750Y-9500D02*X1206000D01*
X1203000Y-8750D02*X1203750Y-9500D01*
X1203000Y-7250D02*Y-8750D01*
Y-7250D02*X1203750Y-6500D01*
X1205250D01*
X1206000Y-7250D01*
X1203000Y-8000D02*X1206000D01*
Y-7250D02*Y-8000D01*
X1208550Y-6500D02*X1210800D01*
X1207800Y-7250D02*X1208550Y-6500D01*
X1207800Y-7250D02*Y-8750D01*
X1208550Y-9500D01*
X1210800D01*
X1213350Y-3500D02*Y-8750D01*
X1214100Y-9500D01*
X1212600Y-5750D02*X1214100D01*
X1217850Y-6500D02*X1218600Y-7250D01*
X1216350Y-6500D02*X1217850D01*
X1215600Y-7250D02*X1216350Y-6500D01*
X1215600Y-7250D02*Y-8750D01*
X1216350Y-9500D01*
X1218600Y-6500D02*Y-8750D01*
X1219350Y-9500D01*
X1216350D02*X1217850D01*
X1218600Y-8750D01*
X1221900Y-7250D02*Y-9500D01*
Y-7250D02*X1222650Y-6500D01*
X1223400D01*
X1224150Y-7250D01*
Y-9500D01*
X1221150Y-6500D02*X1221900Y-7250D01*
X1228200Y-6500D02*X1228950Y-7250D01*
X1226700Y-6500D02*X1228200D01*
X1225950Y-7250D02*X1226700Y-6500D01*
X1225950Y-7250D02*Y-8750D01*
X1226700Y-9500D01*
X1228200D01*
X1228950Y-8750D01*
X1225950Y-11000D02*X1226700Y-11750D01*
X1228200D01*
X1228950Y-11000D01*
Y-6500D02*Y-11000D01*
X1230750Y-3500D02*Y-8750D01*
X1231500Y-9500D01*
X1233750D02*X1236000D01*
X1233000Y-8750D02*X1233750Y-9500D01*
X1233000Y-7250D02*Y-8750D01*
Y-7250D02*X1233750Y-6500D01*
X1235250D01*
X1236000Y-7250D01*
X1233000Y-8000D02*X1236000D01*
Y-7250D02*Y-8000D01*
X1240500Y-6500D02*X1243500D01*
X1248000Y-8750D02*X1248750Y-9500D01*
X1248000Y-4250D02*Y-8750D01*
Y-4250D02*X1248750Y-3500D01*
X1250250D01*
X1251000Y-4250D01*
Y-8750D01*
X1250250Y-9500D02*X1251000Y-8750D01*
X1248750Y-9500D02*X1250250D01*
X1248000Y-8000D02*X1251000Y-5000D01*
X1252800Y-11000D02*X1254300Y-9500D01*
X1256100Y-8750D02*X1256850Y-9500D01*
X1256100Y-4250D02*Y-8750D01*
Y-4250D02*X1256850Y-3500D01*
X1258350D01*
X1259100Y-4250D01*
Y-8750D01*
X1258350Y-9500D02*X1259100Y-8750D01*
X1256850Y-9500D02*X1258350D01*
X1256100Y-8000D02*X1259100Y-5000D01*
X1264350Y-3500D02*Y-8750D01*
X1265100Y-9500D01*
X1263600Y-5750D02*X1265100D01*
X1266600Y-7250D02*Y-8750D01*
Y-7250D02*X1267350Y-6500D01*
X1268850D01*
X1269600Y-7250D01*
Y-8750D01*
X1268850Y-9500D02*X1269600Y-8750D01*
X1267350Y-9500D02*X1268850D01*
X1266600Y-8750D02*X1267350Y-9500D01*
X1274100Y-4250D02*X1274850Y-3500D01*
X1277100D01*
X1277850Y-4250D01*
Y-5750D01*
X1274100Y-9500D02*X1277850Y-5750D01*
X1274100Y-9500D02*X1277850D01*
X1279650Y-7250D02*X1282650Y-3500D01*
X1279650Y-7250D02*X1283400D01*
X1282650Y-3500D02*Y-9500D01*
X1285200Y-8750D02*X1285950Y-9500D01*
X1285200Y-4250D02*Y-8750D01*
Y-4250D02*X1285950Y-3500D01*
X1287450D01*
X1288200Y-4250D01*
Y-8750D01*
X1287450Y-9500D02*X1288200Y-8750D01*
X1285950Y-9500D02*X1287450D01*
X1285200Y-8000D02*X1288200Y-5000D01*
X1290000Y-8750D02*X1290750Y-9500D01*
X1290000Y-4250D02*Y-8750D01*
Y-4250D02*X1290750Y-3500D01*
X1292250D01*
X1293000Y-4250D01*
Y-8750D01*
X1292250Y-9500D02*X1293000Y-8750D01*
X1290750Y-9500D02*X1292250D01*
X1290000Y-8000D02*X1293000Y-5000D01*
X1294800Y-8750D02*X1295550Y-9500D01*
X1294800Y-4250D02*Y-8750D01*
Y-4250D02*X1295550Y-3500D01*
X1297050D01*
X1297800Y-4250D01*
Y-8750D01*
X1297050Y-9500D02*X1297800Y-8750D01*
X1295550Y-9500D02*X1297050D01*
X1294800Y-8000D02*X1297800Y-5000D01*
X1299600Y-9500D02*X1300350D01*
X1302150Y-8750D02*X1302900Y-9500D01*
X1302150Y-4250D02*Y-8750D01*
Y-4250D02*X1302900Y-3500D01*
X1304400D01*
X1305150Y-4250D01*
Y-8750D01*
X1304400Y-9500D02*X1305150Y-8750D01*
X1302900Y-9500D02*X1304400D01*
X1302150Y-8000D02*X1305150Y-5000D01*
X1306950Y-8750D02*X1307700Y-9500D01*
X1306950Y-4250D02*Y-8750D01*
Y-4250D02*X1307700Y-3500D01*
X1309200D01*
X1309950Y-4250D01*
Y-8750D01*
X1309200Y-9500D02*X1309950Y-8750D01*
X1307700Y-9500D02*X1309200D01*
X1306950Y-8000D02*X1309950Y-5000D01*
X1311750Y-8750D02*X1312500Y-9500D01*
X1311750Y-4250D02*Y-8750D01*
Y-4250D02*X1312500Y-3500D01*
X1314000D01*
X1314750Y-4250D01*
Y-8750D01*
X1314000Y-9500D02*X1314750Y-8750D01*
X1312500Y-9500D02*X1314000D01*
X1311750Y-8000D02*X1314750Y-5000D01*
X1316550Y-8750D02*X1317300Y-9500D01*
X1316550Y-4250D02*Y-8750D01*
Y-4250D02*X1317300Y-3500D01*
X1318800D01*
X1319550Y-4250D01*
Y-8750D01*
X1318800Y-9500D02*X1319550Y-8750D01*
X1317300Y-9500D02*X1318800D01*
X1316550Y-8000D02*X1319550Y-5000D01*
X1321350Y-8750D02*X1322100Y-9500D01*
X1321350Y-4250D02*Y-8750D01*
Y-4250D02*X1322100Y-3500D01*
X1323600D01*
X1324350Y-4250D01*
Y-8750D01*
X1323600Y-9500D02*X1324350Y-8750D01*
X1322100Y-9500D02*X1323600D01*
X1321350Y-8000D02*X1324350Y-5000D01*
X1326150Y-8750D02*X1326900Y-9500D01*
X1326150Y-4250D02*Y-8750D01*
Y-4250D02*X1326900Y-3500D01*
X1328400D01*
X1329150Y-4250D01*
Y-8750D01*
X1328400Y-9500D02*X1329150Y-8750D01*
X1326900Y-9500D02*X1328400D01*
X1326150Y-8000D02*X1329150Y-5000D01*
X1330950Y-11000D02*X1332450Y-9500D01*
X1334250Y-4700D02*X1335450Y-3500D01*
Y-9500D01*
X1334250D02*X1336500D01*
X1338300Y-8750D02*X1339050Y-9500D01*
X1338300Y-7550D02*Y-8750D01*
Y-7550D02*X1339350Y-6500D01*
X1340250D01*
X1341300Y-7550D01*
Y-8750D01*
X1340550Y-9500D02*X1341300Y-8750D01*
X1339050Y-9500D02*X1340550D01*
X1338300Y-5450D02*X1339350Y-6500D01*
X1338300Y-4250D02*Y-5450D01*
Y-4250D02*X1339050Y-3500D01*
X1340550D01*
X1341300Y-4250D01*
Y-5450D01*
X1340250Y-6500D02*X1341300Y-5450D01*
X1343100Y-8750D02*X1343850Y-9500D01*
X1343100Y-4250D02*Y-8750D01*
Y-4250D02*X1343850Y-3500D01*
X1345350D01*
X1346100Y-4250D01*
Y-8750D01*
X1345350Y-9500D02*X1346100Y-8750D01*
X1343850Y-9500D02*X1345350D01*
X1343100Y-8000D02*X1346100Y-5000D01*
X1347900Y-8750D02*X1348650Y-9500D01*
X1347900Y-4250D02*Y-8750D01*
Y-4250D02*X1348650Y-3500D01*
X1350150D01*
X1350900Y-4250D01*
Y-8750D01*
X1350150Y-9500D02*X1350900Y-8750D01*
X1348650Y-9500D02*X1350150D01*
X1347900Y-8000D02*X1350900Y-5000D01*
X1352700Y-8750D02*X1353450Y-9500D01*
X1352700Y-4250D02*Y-8750D01*
Y-4250D02*X1353450Y-3500D01*
X1354950D01*
X1355700Y-4250D01*
Y-8750D01*
X1354950Y-9500D02*X1355700Y-8750D01*
X1353450Y-9500D02*X1354950D01*
X1352700Y-8000D02*X1355700Y-5000D01*
X1357500Y-9500D02*X1358250D01*
X1360050Y-8750D02*X1360800Y-9500D01*
X1360050Y-4250D02*Y-8750D01*
Y-4250D02*X1360800Y-3500D01*
X1362300D01*
X1363050Y-4250D01*
Y-8750D01*
X1362300Y-9500D02*X1363050Y-8750D01*
X1360800Y-9500D02*X1362300D01*
X1360050Y-8000D02*X1363050Y-5000D01*
X1364850Y-8750D02*X1365600Y-9500D01*
X1364850Y-4250D02*Y-8750D01*
Y-4250D02*X1365600Y-3500D01*
X1367100D01*
X1367850Y-4250D01*
Y-8750D01*
X1367100Y-9500D02*X1367850Y-8750D01*
X1365600Y-9500D02*X1367100D01*
X1364850Y-8000D02*X1367850Y-5000D01*
X1369650Y-8750D02*X1370400Y-9500D01*
X1369650Y-4250D02*Y-8750D01*
Y-4250D02*X1370400Y-3500D01*
X1371900D01*
X1372650Y-4250D01*
Y-8750D01*
X1371900Y-9500D02*X1372650Y-8750D01*
X1370400Y-9500D02*X1371900D01*
X1369650Y-8000D02*X1372650Y-5000D01*
X1374450Y-8750D02*X1375200Y-9500D01*
X1374450Y-4250D02*Y-8750D01*
Y-4250D02*X1375200Y-3500D01*
X1376700D01*
X1377450Y-4250D01*
Y-8750D01*
X1376700Y-9500D02*X1377450Y-8750D01*
X1375200Y-9500D02*X1376700D01*
X1374450Y-8000D02*X1377450Y-5000D01*
X1379250Y-8750D02*X1380000Y-9500D01*
X1379250Y-4250D02*Y-8750D01*
Y-4250D02*X1380000Y-3500D01*
X1381500D01*
X1382250Y-4250D01*
Y-8750D01*
X1381500Y-9500D02*X1382250Y-8750D01*
X1380000Y-9500D02*X1381500D01*
X1379250Y-8000D02*X1382250Y-5000D01*
X1384050Y-8750D02*X1384800Y-9500D01*
X1384050Y-4250D02*Y-8750D01*
Y-4250D02*X1384800Y-3500D01*
X1386300D01*
X1387050Y-4250D01*
Y-8750D01*
X1386300Y-9500D02*X1387050Y-8750D01*
X1384800Y-9500D02*X1386300D01*
X1384050Y-8000D02*X1387050Y-5000D01*
X1392300Y-7250D02*Y-9500D01*
Y-7250D02*X1393050Y-6500D01*
X1393800D01*
X1394550Y-7250D01*
Y-9500D01*
Y-7250D02*X1395300Y-6500D01*
X1396050D01*
X1396800Y-7250D01*
Y-9500D01*
X1391550Y-6500D02*X1392300Y-7250D01*
G54D77*X1398600Y-5000D02*Y-5150D01*
G54D76*Y-7250D02*Y-9500D01*
X1400100Y-3500D02*Y-8750D01*
X1400850Y-9500D01*
X1403100D02*X1405350D01*
X1406100Y-8750D01*
X1405350Y-8000D02*X1406100Y-8750D01*
X1403100Y-8000D02*X1405350D01*
X1402350Y-7250D02*X1403100Y-8000D01*
X1402350Y-7250D02*X1403100Y-6500D01*
X1405350D01*
X1406100Y-7250D01*
X1402350Y-8750D02*X1403100Y-9500D01*
X200750Y1828500D02*Y1822500D01*
X202700Y1828500D02*X203750Y1827450D01*
Y1823550D01*
X202700Y1822500D02*X203750Y1823550D01*
X200000Y1822500D02*X202700D01*
X200000Y1828500D02*X202700D01*
X207800Y1825500D02*X208550Y1824750D01*
X206300Y1825500D02*X207800D01*
X205550Y1824750D02*X206300Y1825500D01*
X205550Y1824750D02*Y1823250D01*
X206300Y1822500D01*
X208550Y1825500D02*Y1823250D01*
X209300Y1822500D01*
X206300D02*X207800D01*
X208550Y1823250D01*
X211850Y1828500D02*Y1823250D01*
X212600Y1822500D01*
X211100Y1826250D02*X212600D01*
X214850Y1822500D02*X217100D01*
X214100Y1823250D02*X214850Y1822500D01*
X214100Y1824750D02*Y1823250D01*
Y1824750D02*X214850Y1825500D01*
X216350D01*
X217100Y1824750D01*
X214100Y1824000D02*X217100D01*
Y1824750D02*Y1824000D01*
X218900Y1826250D02*X219650D01*
X218900Y1824750D02*X219650D01*
X224150Y1828500D02*Y1822500D01*
Y1828500D02*X226400Y1825500D01*
X228650Y1828500D01*
Y1822500D01*
X230450Y1824750D02*Y1823250D01*
Y1824750D02*X231200Y1825500D01*
X232700D01*
X233450Y1824750D01*
Y1823250D01*
X232700Y1822500D02*X233450Y1823250D01*
X231200Y1822500D02*X232700D01*
X230450Y1823250D02*X231200Y1822500D01*
X236000Y1824750D02*Y1822500D01*
Y1824750D02*X236750Y1825500D01*
X237500D01*
X238250Y1824750D01*
Y1822500D01*
X235250Y1825500D02*X236000Y1824750D01*
X243800Y1828500D02*X245000D01*
Y1823250D01*
X244250Y1822500D02*X245000Y1823250D01*
X243500Y1822500D02*X244250D01*
X242750Y1823250D02*X243500Y1822500D01*
X242750Y1824000D02*Y1823250D01*
X246800Y1825500D02*Y1823250D01*
X247550Y1822500D01*
X249050D01*
X249800Y1823250D01*
Y1825500D02*Y1823250D01*
X251600Y1828500D02*Y1823250D01*
X252350Y1822500D01*
X256550Y1827750D02*X257300Y1828500D01*
X259550D01*
X260300Y1827750D01*
Y1826250D01*
X256550Y1822500D02*X260300Y1826250D01*
X256550Y1822500D02*X260300D01*
X262100Y1823250D02*X262850Y1822500D01*
X262100Y1827750D02*Y1823250D01*
Y1827750D02*X262850Y1828500D01*
X264350D01*
X265100Y1827750D01*
Y1823250D01*
X264350Y1822500D02*X265100Y1823250D01*
X262850Y1822500D02*X264350D01*
X262100Y1824000D02*X265100Y1827000D01*
X269600Y1827750D02*X270350Y1828500D01*
X272600D01*
X273350Y1827750D01*
Y1826250D01*
X269600Y1822500D02*X273350Y1826250D01*
X269600Y1822500D02*X273350D01*
X275150Y1827300D02*X276350Y1828500D01*
Y1822500D01*
X275150D02*X277400D01*
X279200Y1826250D02*X279950D01*
X279200Y1824750D02*X279950D01*
X281750Y1828500D02*X284750D01*
X281750D02*Y1825500D01*
X282500Y1826250D01*
X284000D01*
X284750Y1825500D01*
Y1823250D01*
X284000Y1822500D02*X284750Y1823250D01*
X282500Y1822500D02*X284000D01*
X281750Y1823250D02*X282500Y1822500D01*
X287300D02*X289550Y1825500D01*
Y1827750D02*Y1825500D01*
X288800Y1828500D02*X289550Y1827750D01*
X287300Y1828500D02*X288800D01*
X286550Y1827750D02*X287300Y1828500D01*
X286550Y1827750D02*Y1826250D01*
X287300Y1825500D01*
X289550D01*
X291350Y1826250D02*X292100D01*
X291350Y1824750D02*X292100D01*
X293900Y1827750D02*X294650Y1828500D01*
X296150D01*
X296900Y1827750D01*
X296150Y1822500D02*X296900Y1823250D01*
X294650Y1822500D02*X296150D01*
X293900Y1823250D02*X294650Y1822500D01*
Y1825800D02*X296150D01*
X296900Y1827750D02*Y1826550D01*
Y1825050D02*Y1823250D01*
Y1825050D02*X296150Y1825800D01*
X296900Y1826550D02*X296150Y1825800D01*
X298700Y1827750D02*X299450Y1828500D01*
X301700D01*
X302450Y1827750D01*
Y1826250D01*
X298700Y1822500D02*X302450Y1826250D01*
X298700Y1822500D02*X302450D01*
X306950Y1827750D02*X307700Y1828500D01*
X309950D01*
X310700Y1827750D01*
Y1826250D01*
X306950Y1822500D02*X310700Y1826250D01*
X306950Y1822500D02*X310700D01*
X312500Y1823250D02*X313250Y1822500D01*
X312500Y1827750D02*Y1823250D01*
Y1827750D02*X313250Y1828500D01*
X314750D01*
X315500Y1827750D01*
Y1823250D01*
X314750Y1822500D02*X315500Y1823250D01*
X313250Y1822500D02*X314750D01*
X312500Y1824000D02*X315500Y1827000D01*
X317300Y1827750D02*X318050Y1828500D01*
X320300D01*
X321050Y1827750D01*
Y1826250D01*
X317300Y1822500D02*X321050Y1826250D01*
X317300Y1822500D02*X321050D01*
X322850Y1823250D02*X323600Y1822500D01*
X322850Y1827750D02*Y1823250D01*
Y1827750D02*X323600Y1828500D01*
X325100D01*
X325850Y1827750D01*
Y1823250D01*
X325100Y1822500D02*X325850Y1823250D01*
X323600Y1822500D02*X325100D01*
X322850Y1824000D02*X325850Y1827000D01*
X330350Y1828500D02*Y1823250D01*
X331100Y1822500D01*
X332600D01*
X333350Y1823250D01*
Y1828500D02*Y1823250D01*
X335150Y1828500D02*X338150D01*
X336650D02*Y1822500D01*
X341000D02*X342950D01*
X339950Y1823550D02*X341000Y1822500D01*
X339950Y1827450D02*Y1823550D01*
Y1827450D02*X341000Y1828500D01*
X342950D01*
X200000Y1842000D02*Y1837500D01*
Y1842000D02*X201050Y1843500D01*
X202700D01*
X203750Y1842000D01*
Y1837500D01*
X200000Y1840500D02*X203750D01*
X205550D02*Y1838250D01*
X206300Y1837500D01*
X207800D01*
X208550Y1838250D01*
Y1840500D02*Y1838250D01*
X211100Y1843500D02*Y1838250D01*
X211850Y1837500D01*
X210350Y1841250D02*X211850D01*
X213350Y1843500D02*Y1837500D01*
Y1839750D02*X214100Y1840500D01*
X215600D01*
X216350Y1839750D01*
Y1837500D01*
X218150Y1839750D02*Y1838250D01*
Y1839750D02*X218900Y1840500D01*
X220400D01*
X221150Y1839750D01*
Y1838250D01*
X220400Y1837500D02*X221150Y1838250D01*
X218900Y1837500D02*X220400D01*
X218150Y1838250D02*X218900Y1837500D01*
X223700Y1839750D02*Y1837500D01*
Y1839750D02*X224450Y1840500D01*
X225950D01*
X222950D02*X223700Y1839750D01*
X227750Y1841250D02*X228500D01*
X227750Y1839750D02*X228500D01*
X233750Y1840500D02*X236000D01*
X233000Y1839750D02*X233750Y1840500D01*
X233000Y1839750D02*Y1838250D01*
X233750Y1837500D01*
X236000D01*
X237800Y1839750D02*Y1838250D01*
Y1839750D02*X238550Y1840500D01*
X240050D01*
X240800Y1839750D01*
Y1838250D01*
X240050Y1837500D02*X240800Y1838250D01*
X238550Y1837500D02*X240050D01*
X237800Y1838250D02*X238550Y1837500D01*
X243350Y1839750D02*Y1837500D01*
Y1839750D02*X244100Y1840500D01*
X244850D01*
X245600Y1839750D01*
Y1837500D01*
Y1839750D02*X246350Y1840500D01*
X247100D01*
X247850Y1839750D01*
Y1837500D01*
X242600Y1840500D02*X243350Y1839750D01*
X250400D02*Y1837500D01*
Y1839750D02*X251150Y1840500D01*
X251900D01*
X252650Y1839750D01*
Y1837500D01*
Y1839750D02*X253400Y1840500D01*
X254150D01*
X254900Y1839750D01*
Y1837500D01*
X249650Y1840500D02*X250400Y1839750D01*
X256700D02*Y1838250D01*
Y1839750D02*X257450Y1840500D01*
X258950D01*
X259700Y1839750D01*
Y1838250D01*
X258950Y1837500D02*X259700Y1838250D01*
X257450Y1837500D02*X258950D01*
X256700Y1838250D02*X257450Y1837500D01*
X262250Y1839750D02*Y1837500D01*
Y1839750D02*X263000Y1840500D01*
X263750D01*
X264500Y1839750D01*
Y1837500D01*
X261500Y1840500D02*X262250Y1839750D01*
X268550Y1840500D02*X269300Y1839750D01*
X267050Y1840500D02*X268550D01*
X266300Y1839750D02*X267050Y1840500D01*
X266300Y1839750D02*Y1838250D01*
X267050Y1837500D01*
X269300Y1840500D02*Y1838250D01*
X270050Y1837500D01*
X267050D02*X268550D01*
X269300Y1838250D01*
X274850Y1843500D02*Y1837500D01*
X274100D02*X274850Y1838250D01*
X272600Y1837500D02*X274100D01*
X271850Y1838250D02*X272600Y1837500D01*
X271850Y1839750D02*Y1838250D01*
Y1839750D02*X272600Y1840500D01*
X274100D01*
X274850Y1839750D01*
X277400D02*Y1837500D01*
Y1839750D02*X278150Y1840500D01*
X278900D01*
X279650Y1839750D01*
Y1837500D01*
Y1839750D02*X280400Y1840500D01*
X281150D01*
X281900Y1839750D01*
Y1837500D01*
X276650Y1840500D02*X277400Y1839750D01*
G54D77*X283700Y1842000D02*Y1841850D01*
G54D76*Y1839750D02*Y1837500D01*
X285950Y1839750D02*Y1837500D01*
Y1839750D02*X286700Y1840500D01*
X287450D01*
X288200Y1839750D01*
Y1837500D01*
X285200Y1840500D02*X285950Y1839750D01*
X200000Y1858500D02*X203000D01*
X201500D02*Y1852500D01*
G54D77*X204800Y1857000D02*Y1856850D01*
G54D76*Y1854750D02*Y1852500D01*
X207050Y1858500D02*Y1853250D01*
X207800Y1852500D01*
X206300Y1856250D02*X207800D01*
X209300Y1858500D02*Y1853250D01*
X210050Y1852500D01*
X212300D02*X214550D01*
X211550Y1853250D02*X212300Y1852500D01*
X211550Y1854750D02*Y1853250D01*
Y1854750D02*X212300Y1855500D01*
X213800D01*
X214550Y1854750D01*
X211550Y1854000D02*X214550D01*
Y1854750D02*Y1854000D01*
X216350Y1856250D02*X217100D01*
X216350Y1854750D02*X217100D01*
X221600Y1853250D02*X222350Y1852500D01*
X221600Y1857750D02*X222350Y1858500D01*
X221600Y1857750D02*Y1853250D01*
X224150Y1855500D02*Y1853250D01*
X224900Y1852500D01*
X226400D01*
X227150Y1853250D01*
Y1855500D02*Y1853250D01*
X229700Y1854750D02*Y1852500D01*
Y1854750D02*X230450Y1855500D01*
X231200D01*
X231950Y1854750D01*
Y1852500D01*
X228950Y1855500D02*X229700Y1854750D01*
X233750Y1858500D02*Y1852500D01*
Y1854750D02*X236000Y1852500D01*
X233750Y1854750D02*X235250Y1856250D01*
X238550Y1854750D02*Y1852500D01*
Y1854750D02*X239300Y1855500D01*
X240050D01*
X240800Y1854750D01*
Y1852500D01*
X237800Y1855500D02*X238550Y1854750D01*
X242600D02*Y1853250D01*
Y1854750D02*X243350Y1855500D01*
X244850D01*
X245600Y1854750D01*
Y1853250D01*
X244850Y1852500D02*X245600Y1853250D01*
X243350Y1852500D02*X244850D01*
X242600Y1853250D02*X243350Y1852500D01*
X247400Y1855500D02*Y1853250D01*
X248150Y1852500D01*
X248900D01*
X249650Y1853250D01*
Y1855500D02*Y1853250D01*
X250400Y1852500D01*
X251150D01*
X251900Y1853250D01*
Y1855500D02*Y1853250D01*
X254450Y1854750D02*Y1852500D01*
Y1854750D02*X255200Y1855500D01*
X255950D01*
X256700Y1854750D01*
Y1852500D01*
X253700Y1855500D02*X254450Y1854750D01*
X258500Y1858500D02*X259250Y1857750D01*
Y1853250D01*
X258500Y1852500D02*X259250Y1853250D01*
X263750Y1855500D02*X266750D01*
X271250Y1858500D02*Y1852500D01*
Y1858500D02*X274250D01*
X271250Y1855800D02*X273500D01*
X278300Y1855500D02*X279050Y1854750D01*
X276800Y1855500D02*X278300D01*
X276050Y1854750D02*X276800Y1855500D01*
X276050Y1854750D02*Y1853250D01*
X276800Y1852500D01*
X279050Y1855500D02*Y1853250D01*
X279800Y1852500D01*
X276800D02*X278300D01*
X279050Y1853250D01*
X281600Y1858500D02*Y1852500D01*
Y1853250D02*X282350Y1852500D01*
X283850D01*
X284600Y1853250D01*
Y1854750D02*Y1853250D01*
X283850Y1855500D02*X284600Y1854750D01*
X282350Y1855500D02*X283850D01*
X281600Y1854750D02*X282350Y1855500D01*
X287150Y1854750D02*Y1852500D01*
Y1854750D02*X287900Y1855500D01*
X289400D01*
X286400D02*X287150Y1854750D01*
G54D77*X291200Y1857000D02*Y1856850D01*
G54D76*Y1854750D02*Y1852500D01*
X293450Y1855500D02*X295700D01*
X292700Y1854750D02*X293450Y1855500D01*
X292700Y1854750D02*Y1853250D01*
X293450Y1852500D01*
X295700D01*
X299750Y1855500D02*X300500Y1854750D01*
X298250Y1855500D02*X299750D01*
X297500Y1854750D02*X298250Y1855500D01*
X297500Y1854750D02*Y1853250D01*
X298250Y1852500D01*
X300500Y1855500D02*Y1853250D01*
X301250Y1852500D01*
X298250D02*X299750D01*
X300500Y1853250D01*
X303800Y1858500D02*Y1853250D01*
X304550Y1852500D01*
X303050Y1856250D02*X304550D01*
G54D77*X306050Y1857000D02*Y1856850D01*
G54D76*Y1854750D02*Y1852500D01*
X307550Y1854750D02*Y1853250D01*
Y1854750D02*X308300Y1855500D01*
X309800D01*
X310550Y1854750D01*
Y1853250D01*
X309800Y1852500D02*X310550Y1853250D01*
X308300Y1852500D02*X309800D01*
X307550Y1853250D02*X308300Y1852500D01*
X313100Y1854750D02*Y1852500D01*
Y1854750D02*X313850Y1855500D01*
X314600D01*
X315350Y1854750D01*
Y1852500D01*
X312350Y1855500D02*X313100Y1854750D01*
X320600Y1858500D02*Y1852500D01*
X322550Y1858500D02*X323600Y1857450D01*
Y1853550D01*
X322550Y1852500D02*X323600Y1853550D01*
X319850Y1852500D02*X322550D01*
X319850Y1858500D02*X322550D01*
X326150Y1854750D02*Y1852500D01*
Y1854750D02*X326900Y1855500D01*
X328400D01*
X325400D02*X326150Y1854750D01*
X332450Y1855500D02*X333200Y1854750D01*
X330950Y1855500D02*X332450D01*
X330200Y1854750D02*X330950Y1855500D01*
X330200Y1854750D02*Y1853250D01*
X330950Y1852500D01*
X333200Y1855500D02*Y1853250D01*
X333950Y1852500D01*
X330950D02*X332450D01*
X333200Y1853250D01*
X335750Y1855500D02*Y1853250D01*
X336500Y1852500D01*
X337250D01*
X338000Y1853250D01*
Y1855500D02*Y1853250D01*
X338750Y1852500D01*
X339500D01*
X340250Y1853250D01*
Y1855500D02*Y1853250D01*
G54D77*X342050Y1857000D02*Y1856850D01*
G54D76*Y1854750D02*Y1852500D01*
X344300Y1854750D02*Y1852500D01*
Y1854750D02*X345050Y1855500D01*
X345800D01*
X346550Y1854750D01*
Y1852500D01*
X343550Y1855500D02*X344300Y1854750D01*
X350600Y1855500D02*X351350Y1854750D01*
X349100Y1855500D02*X350600D01*
X348350Y1854750D02*X349100Y1855500D01*
X348350Y1854750D02*Y1853250D01*
X349100Y1852500D01*
X350600D01*
X351350Y1853250D01*
X348350Y1851000D02*X349100Y1850250D01*
X350600D01*
X351350Y1851000D01*
Y1855500D02*Y1851000D01*
M02*
