M48
INCH
T58C0.079
T57C0.038
T56C0.039
%
T57
X049860Y025629
X049860Y024779
X050860Y025779
X050860Y024629
X051860Y025629
X051860Y024779
X052860Y025779
X052860Y024629
X053860Y025629
X053860Y024779
X054860Y025779
X054860Y024629
X058524Y025627
X058524Y024777
X059524Y025777
X059524Y024627
X060524Y025627
X060524Y024777
X061524Y025777
X061524Y024627
X062524Y025627
X062524Y024777
X063524Y025777
X063524Y024627
T56
X050787Y022028
X050984Y022795
X050984Y021260
X051575Y023386
X051575Y020669
X052362Y023602
X052362Y020453
X053150Y023386
X053150Y020669
X053740Y022795
X053740Y021260
X053937Y022028
X059449Y022028
X059646Y022795
X059646Y021260
X060236Y023386
X060236Y020669
X061024Y023602
X061024Y020453
X061811Y023386
X061811Y020669
X062402Y022795
X062402Y021260
X062598Y022028
T58
X048819Y028327
X048819Y026752
X052362Y022028
X055906Y028327
X055906Y026752
X057480Y028327
X057480Y026752
X061024Y022028
X064567Y028327
X064567Y026752
M30
