G04 This is an RS-274x file exported by *
G04 gerbv version 2.7.0 *
G04 More information is available about gerbv at *
G04 http://gerbv.geda-project.org/ *
G04 --End of header info--*
%MOIN*%
%FSLAX36Y36*%
%IPPOS*%
G04 --Define apertures--*
%ADD10C,0.0100*%
%ADD11C,0.0060*%
%ADD12C,0.0040*%
%ADD13C,0.0033*%
%ADD14C,0.0041*%
%ADD15C,0.0080*%
%ADD16C,0.0250*%
%ADD17C,0.0160*%
%ADD18C,0.0150*%
%ADD19C,0.0180*%
%ADD20C,0.0140*%
%ADD21C,0.0200*%
%ADD22C,0.0120*%
%ADD23C,0.0600*%
%ADD24C,0.0945*%
%ADD25C,0.0394*%
%ADD26C,0.0669*%
%ADD27C,0.0472*%
%ADD28C,0.1043*%
%ADD29C,0.0001*%
%ADD30C,0.0906*%
%ADD31C,0.1102*%
%ADD32C,0.0512*%
%ADD33C,0.2362*%
%ADD34C,0.0551*%
%ADD35C,0.0240*%
%ADD36C,0.0118*%
%ADD37C,0.0350*%
%ADD38C,0.0787*%
%ADD39C,0.0197*%
%ADD40C,0.0492*%
%ADD41C,0.0295*%
%ADD42C,0.0886*%
%ADD43C,0.0380*%
%ADD44C,0.0630*%
%ADD45C,0.0354*%
%ADD46C,0.1870*%
%ADD47C,0.1005*%
%ADD48C,0.0454*%
%ADD49C,0.0729*%
%ADD50C,0.0532*%
%ADD51C,0.1103*%
%ADD52C,0.0660*%
%ADD53C,0.0966*%
%ADD54C,0.1162*%
%ADD55C,0.0572*%
%ADD56C,0.2422*%
%ADD57C,0.0960*%
%ADD58C,0.0611*%
%ADD59C,0.0790*%
%ADD60C,0.0490*%
%ADD61C,0.0300*%
%ADD62C,0.0890*%
%ADD63C,0.0510*%
%ADD64C,0.0940*%
%ADD65C,0.0390*%
G04 --Start main section--*
G54D10*
G01X6515750Y3364170D02*
G01X6486220Y3364170D01*
G01X6515750Y3364170D02*
G01X6515750Y3393700D01*
G01X6148030Y3059060D02*
G01X6148030Y3055510D01*
G01X6148030Y3055510D02*
G01X6102360Y3009840D01*
G01X6013780Y5106300D02*
G01X5875980Y5106300D01*
G01X6013780Y4968500D02*
G01X6013780Y5106300D01*
G01X5875980Y4968500D02*
G01X6013780Y4968500D01*
G01X5875980Y5106300D02*
G01X5875980Y4968500D01*
G54D11*
G01X5851000Y5093000D02*
G01X5841000Y5093000D01*
G54D10*
G01X6407480Y5106300D02*
G01X6269690Y5106300D01*
G01X6515750Y5135830D02*
G01X6515750Y5106300D01*
G01X6515750Y5135830D02*
G01X6486220Y5135830D01*
G01X6407480Y4968500D02*
G01X6407480Y5106300D01*
G01X6269690Y4968500D02*
G01X6407480Y4968500D01*
G01X6269690Y5106300D02*
G01X6269690Y4968500D01*
G01X5767720Y5135830D02*
G01X5767720Y5106300D01*
G54D11*
G01X5851000Y4723000D02*
G01X5841000Y4723000D01*
G01X5851000Y4502000D02*
G01X5841000Y4502000D01*
G01X5851000Y4330000D02*
G01X5841000Y4330000D01*
G54D10*
G01X5767720Y5135830D02*
G01X5797240Y5135830D01*
G54D11*
G01X5748000Y5158000D02*
G01X5945000Y5158000D01*
G01X5748000Y5165000D02*
G01X5748000Y5151000D01*
G01X5945000Y5151000D02*
G01X5945000Y5165000D01*
G54D10*
G01X6122050Y5135830D02*
G01X6092520Y5135830D01*
G01X6122050Y5135830D02*
G01X6122050Y5106300D01*
G01X6161420Y5135830D02*
G01X6161420Y5106300D01*
G01X6161420Y5135830D02*
G01X6190940Y5135830D01*
G54D11*
G01X4301180Y5007870D02*
G01X4301180Y4909450D01*
G01X4301180Y4909450D02*
G01X4212600Y4958660D01*
G01X4212600Y4958660D02*
G01X4301180Y5007870D01*
G54D10*
G01X7283460Y5529530D02*
G01X7283460Y5519690D01*
G01X7283460Y5519690D02*
G01X7293310Y5519690D01*
G01X7401570Y5529530D02*
G01X7401570Y5519690D01*
G01X7401570Y5519690D02*
G01X7391730Y5519690D01*
G01X7283460Y5627950D02*
G01X7283460Y5637800D01*
G01X7283460Y5637800D02*
G01X7293310Y5637800D01*
G01X7401570Y5637800D02*
G01X7401570Y5627950D01*
G01X7401570Y5637800D02*
G01X7391730Y5637800D01*
G01X6870080Y5637800D02*
G01X6879920Y5637800D01*
G01X6879920Y5637800D02*
G01X6879920Y5627950D01*
G01X6761810Y5637800D02*
G01X6771650Y5637800D01*
G01X6761810Y5637800D02*
G01X6761810Y5627950D01*
G01X6879920Y5519690D02*
G01X6879920Y5529530D01*
G01X6879920Y5519690D02*
G01X6870080Y5519690D01*
G01X6761810Y5519690D02*
G01X6771650Y5519690D01*
G01X6761810Y5519690D02*
G01X6761810Y5529530D01*
G01X6122050Y3364170D02*
G01X6092520Y3364170D01*
G01X6122050Y3364170D02*
G01X6122050Y3393700D01*
G01X6161420Y3364170D02*
G01X6190940Y3364170D01*
G01X6161420Y3364170D02*
G01X6161420Y3393700D01*
G01X5948030Y3196850D02*
G01X6048030Y3196850D01*
G01X6148030Y3296850D02*
G01X6148030Y3291730D01*
G01X6102360Y3246060D02*
G01X6148030Y3291730D01*
G01X5948030Y2959060D02*
G01X6048030Y2959060D01*
G01X5767720Y3364170D02*
G01X5797240Y3364170D01*
G01X5767720Y3364170D02*
G01X5767720Y3393700D01*
G54D11*
G01X5777560Y3403540D02*
G01X5688980Y3354330D01*
G01X5688980Y3452760D02*
G01X5777560Y3403540D01*
G01X5688980Y3452760D02*
G01X5688980Y3354330D01*
G01X5669290Y2921260D02*
G01X5669290Y6051180D01*
G54D12*
G01X5935040Y3010310D02*
G01X5955040Y3010310D01*
G01X5945040Y3000310D02*
G01X5945040Y3020310D01*
G01X5967040Y2995310D02*
G01X5972040Y2990310D01*
G01X5972040Y2990310D02*
G01X5987040Y2990310D01*
G01X5987040Y2990310D02*
G01X5992040Y2995310D01*
G01X5992040Y2995310D02*
G01X5992040Y3005310D01*
G01X5967040Y3030310D02*
G01X5992040Y3005310D01*
G01X5967040Y3030310D02*
G01X5992040Y3030310D01*
G01X6004040Y3015310D02*
G01X6024040Y2990310D01*
G01X6004040Y3015310D02*
G01X6029040Y3015310D01*
G01X6024040Y2990310D02*
G01X6024040Y3030310D01*
G01X6041040Y2990310D02*
G01X6051040Y3030310D01*
G01X6051040Y3030310D02*
G01X6061040Y2990310D01*
G01X5935040Y3246540D02*
G01X5955040Y3246540D01*
G01X5945040Y3236540D02*
G01X5945040Y3256540D01*
G01X5967040Y3231540D02*
G01X5972040Y3226540D01*
G01X5972040Y3226540D02*
G01X5987040Y3226540D01*
G01X5987040Y3226540D02*
G01X5992040Y3231540D01*
G01X5992040Y3231540D02*
G01X5992040Y3241540D01*
G01X5967040Y3266540D02*
G01X5992040Y3241540D01*
G01X5967040Y3266540D02*
G01X5992040Y3266540D01*
G01X6004040Y3251540D02*
G01X6024040Y3226540D01*
G01X6004040Y3251540D02*
G01X6029040Y3251540D01*
G01X6024040Y3226540D02*
G01X6024040Y3266540D01*
G01X6041040Y3226540D02*
G01X6051040Y3266540D01*
G01X6051040Y3266540D02*
G01X6061040Y3226540D01*
G54D13*
G01X4250330Y4905350D02*
G01X4283130Y4905350D01*
G01X4250330Y4894690D02*
G01X4256070Y4888950D01*
G01X4256070Y4888950D02*
G01X4277390Y4888950D01*
G01X4283130Y4894690D02*
G01X4277390Y4888950D01*
G01X4283130Y4894690D02*
G01X4283130Y4909450D01*
G01X4250330Y4894690D02*
G01X4250330Y4909450D01*
G01X4258530Y4879110D02*
G01X4283130Y4879110D01*
G01X4258530Y4879110D02*
G01X4250330Y4873370D01*
G01X4250330Y4864350D02*
G01X4250330Y4873370D01*
G01X4250330Y4864350D02*
G01X4258530Y4858610D01*
G01X4258530Y4858610D02*
G01X4283130Y4858610D01*
G01X4266730Y4858610D02*
G01X4266730Y4879110D01*
G01X4250330Y4848770D02*
G01X4283130Y4848770D01*
G01X4250330Y4848770D02*
G01X4283130Y4828270D01*
G01X4250330Y4828270D02*
G01X4283130Y4828270D01*
G01X4250330Y4802030D02*
G01X4254430Y4797930D01*
G01X4250330Y4802030D02*
G01X4250330Y4814330D01*
G01X4254430Y4818430D02*
G01X4250330Y4814330D01*
G01X4254430Y4818430D02*
G01X4279030Y4818430D01*
G01X4279030Y4818430D02*
G01X4283130Y4814330D01*
G01X4283130Y4802030D02*
G01X4283130Y4814330D01*
G01X4283130Y4802030D02*
G01X4279030Y4797930D01*
G01X4270830Y4797930D02*
G01X4279030Y4797930D01*
G01X4266730Y4802030D02*
G01X4270830Y4797930D01*
G01X4266730Y4802030D02*
G01X4266730Y4810230D01*
G01X4265090Y4775790D02*
G01X4265090Y4788090D01*
G01X4283130Y4771690D02*
G01X4283130Y4788090D01*
G01X4250330Y4788090D02*
G01X4283130Y4788090D01*
G01X4250330Y4771690D02*
G01X4250330Y4788090D01*
G01X4250330Y4745450D02*
G01X4250330Y4761850D01*
G01X4250330Y4745450D02*
G01X4254430Y4741350D01*
G01X4254430Y4741350D02*
G01X4262630Y4741350D01*
G01X4266730Y4745450D02*
G01X4262630Y4741350D01*
G01X4266730Y4745450D02*
G01X4266730Y4757750D01*
G01X4250330Y4757750D02*
G01X4283130Y4757750D01*
G01X4266730Y4751190D02*
G01X4283130Y4741350D01*
G01X4262630Y4727410D02*
G01X4262630Y4731510D01*
G01X4270830Y4727410D02*
G01X4270830Y4731510D01*
G01X4250330Y4698710D02*
G01X4283130Y4698710D01*
G01X4250330Y4686410D02*
G01X4250330Y4702810D01*
G01X4250330Y4686410D02*
G01X4254430Y4682310D01*
G01X4254430Y4682310D02*
G01X4262630Y4682310D01*
G01X4266730Y4686410D02*
G01X4262630Y4682310D01*
G01X4266730Y4686410D02*
G01X4266730Y4698710D01*
G01X4270830Y4668370D02*
G01X4283130Y4668370D01*
G01X4270830Y4668370D02*
G01X4266730Y4664270D01*
G01X4266730Y4656070D02*
G01X4266730Y4664270D01*
G01X4266730Y4672470D02*
G01X4270830Y4668370D01*
G01X4270830Y4646230D02*
G01X4279030Y4646230D01*
G01X4270830Y4646230D02*
G01X4266730Y4642130D01*
G01X4266730Y4633930D02*
G01X4266730Y4642130D01*
G01X4266730Y4633930D02*
G01X4270830Y4629830D01*
G01X4270830Y4629830D02*
G01X4279030Y4629830D01*
G01X4283130Y4633930D02*
G01X4279030Y4629830D01*
G01X4283130Y4633930D02*
G01X4283130Y4642130D01*
G01X4279030Y4646230D02*
G01X4283130Y4642130D01*
G01X4270830Y4615890D02*
G01X4283130Y4615890D01*
G01X4270830Y4615890D02*
G01X4266730Y4611790D01*
G01X4266730Y4607690D02*
G01X4266730Y4611790D01*
G01X4266730Y4607690D02*
G01X4270830Y4603590D01*
G01X4270830Y4603590D02*
G01X4283130Y4603590D01*
G01X4270830Y4603590D02*
G01X4266730Y4599490D01*
G01X4266730Y4595390D02*
G01X4266730Y4599490D01*
G01X4266730Y4595390D02*
G01X4270830Y4591290D01*
G01X4270830Y4591290D02*
G01X4283130Y4591290D01*
G01X4266730Y4619990D02*
G01X4270830Y4615890D01*
G54D14*
G01X4258530Y4581450D02*
G01X4259350Y4581450D01*
G54D13*
G01X4270830Y4581450D02*
G01X4283130Y4581450D01*
G01X4270830Y4569150D02*
G01X4283130Y4569150D01*
G01X4270830Y4569150D02*
G01X4266730Y4565050D01*
G01X4266730Y4560950D02*
G01X4266730Y4565050D01*
G01X4266730Y4560950D02*
G01X4270830Y4556850D01*
G01X4270830Y4556850D02*
G01X4283130Y4556850D01*
G01X4266730Y4573250D02*
G01X4270830Y4569150D01*
G01X4283130Y4530610D02*
G01X4283130Y4542910D01*
G01X4279030Y4547010D02*
G01X4283130Y4542910D01*
G01X4270830Y4547010D02*
G01X4279030Y4547010D01*
G01X4270830Y4547010D02*
G01X4266730Y4542910D01*
G01X4266730Y4534710D02*
G01X4266730Y4542910D01*
G01X4266730Y4534710D02*
G01X4270830Y4530610D01*
G01X4274930Y4530610D02*
G01X4274930Y4547010D01*
G01X4270830Y4530610D02*
G01X4274930Y4530610D01*
G01X4270830Y4516670D02*
G01X4283130Y4516670D01*
G01X4270830Y4516670D02*
G01X4266730Y4512570D01*
G01X4266730Y4508470D02*
G01X4266730Y4512570D01*
G01X4266730Y4508470D02*
G01X4270830Y4504370D01*
G01X4270830Y4504370D02*
G01X4283130Y4504370D01*
G01X4266730Y4520770D02*
G01X4270830Y4516670D01*
G01X4250330Y4490430D02*
G01X4279030Y4490430D01*
G01X4279030Y4490430D02*
G01X4283130Y4486330D01*
G01X4262630Y4486330D02*
G01X4262630Y4494530D01*
G01X4250330Y4478130D02*
G01X4279030Y4478130D01*
G01X4279030Y4478130D02*
G01X4283130Y4474030D01*
G01X4266730Y4465830D02*
G01X4279030Y4465830D01*
G01X4279030Y4465830D02*
G01X4283130Y4461730D01*
G01X4266730Y4449430D02*
G01X4291330Y4449430D01*
G01X4295430Y4453530D02*
G01X4291330Y4449430D01*
G01X4295430Y4453530D02*
G01X4295430Y4461730D01*
G01X4291330Y4465830D02*
G01X4295430Y4461730D01*
G01X4283130Y4453530D02*
G01X4283130Y4461730D01*
G01X4283130Y4453530D02*
G01X4279030Y4449430D01*
G01X4250330Y4424830D02*
G01X4279030Y4424830D01*
G01X4279030Y4424830D02*
G01X4283130Y4420730D01*
G01X4266730Y4400230D02*
G01X4270830Y4396130D01*
G01X4266730Y4400230D02*
G01X4266730Y4408430D01*
G01X4270830Y4412530D02*
G01X4266730Y4408430D01*
G01X4270830Y4412530D02*
G01X4279030Y4412530D01*
G01X4279030Y4412530D02*
G01X4283130Y4408430D01*
G01X4266730Y4396130D02*
G01X4279030Y4396130D01*
G01X4279030Y4396130D02*
G01X4283130Y4392030D01*
G01X4283130Y4400230D02*
G01X4283130Y4408430D01*
G01X4283130Y4400230D02*
G01X4279030Y4396130D01*
G01X4250330Y4382190D02*
G01X4283130Y4382190D01*
G01X4279030Y4382190D02*
G01X4283130Y4378090D01*
G01X4283130Y4369890D02*
G01X4283130Y4378090D01*
G01X4283130Y4369890D02*
G01X4279030Y4365790D01*
G01X4270830Y4365790D02*
G01X4279030Y4365790D01*
G01X4266730Y4369890D02*
G01X4270830Y4365790D01*
G01X4266730Y4369890D02*
G01X4266730Y4378090D01*
G01X4270830Y4382190D02*
G01X4266730Y4378090D01*
G01X4283130Y4339550D02*
G01X4283130Y4351850D01*
G01X4279030Y4355950D02*
G01X4283130Y4351850D01*
G01X4270830Y4355950D02*
G01X4279030Y4355950D01*
G01X4270830Y4355950D02*
G01X4266730Y4351850D01*
G01X4266730Y4343650D02*
G01X4266730Y4351850D01*
G01X4266730Y4343650D02*
G01X4270830Y4339550D01*
G01X4274930Y4339550D02*
G01X4274930Y4355950D01*
G01X4270830Y4339550D02*
G01X4274930Y4339550D01*
G01X4250330Y4329710D02*
G01X4279030Y4329710D01*
G01X4279030Y4329710D02*
G01X4283130Y4325610D01*
G54D14*
G01X4258530Y4302650D02*
G01X4259350Y4302650D01*
G54D13*
G01X4270830Y4302650D02*
G01X4283130Y4302650D01*
G01X4254430Y4290350D02*
G01X4283130Y4290350D01*
G01X4254430Y4290350D02*
G01X4250330Y4286250D01*
G01X4250330Y4282150D02*
G01X4250330Y4286250D01*
G01X4266730Y4286250D02*
G01X4266730Y4294450D01*
G01X4270830Y4255090D02*
G01X4283130Y4255090D01*
G01X4270830Y4255090D02*
G01X4266730Y4250990D01*
G01X4266730Y4246890D02*
G01X4266730Y4250990D01*
G01X4266730Y4246890D02*
G01X4270830Y4242790D01*
G01X4270830Y4242790D02*
G01X4283130Y4242790D01*
G01X4270830Y4242790D02*
G01X4266730Y4238690D01*
G01X4266730Y4234590D02*
G01X4266730Y4238690D01*
G01X4266730Y4234590D02*
G01X4270830Y4230490D01*
G01X4270830Y4230490D02*
G01X4283130Y4230490D01*
G01X4266730Y4259190D02*
G01X4270830Y4255090D01*
G01X4270830Y4220650D02*
G01X4279030Y4220650D01*
G01X4270830Y4220650D02*
G01X4266730Y4216550D01*
G01X4266730Y4208350D02*
G01X4266730Y4216550D01*
G01X4266730Y4208350D02*
G01X4270830Y4204250D01*
G01X4270830Y4204250D02*
G01X4279030Y4204250D01*
G01X4283130Y4208350D02*
G01X4279030Y4204250D01*
G01X4283130Y4208350D02*
G01X4283130Y4216550D01*
G01X4279030Y4220650D02*
G01X4283130Y4216550D01*
G01X4250330Y4178010D02*
G01X4283130Y4178010D01*
G01X4283130Y4182110D02*
G01X4279030Y4178010D01*
G01X4283130Y4182110D02*
G01X4283130Y4190310D01*
G01X4279030Y4194410D02*
G01X4283130Y4190310D01*
G01X4270830Y4194410D02*
G01X4279030Y4194410D01*
G01X4270830Y4194410D02*
G01X4266730Y4190310D01*
G01X4266730Y4182110D02*
G01X4266730Y4190310D01*
G01X4266730Y4182110D02*
G01X4270830Y4178010D01*
G54D14*
G01X4258530Y4168170D02*
G01X4259350Y4168170D01*
G54D13*
G01X4270830Y4168170D02*
G01X4283130Y4168170D01*
G01X4254430Y4155870D02*
G01X4283130Y4155870D01*
G01X4254430Y4155870D02*
G01X4250330Y4151770D01*
G01X4250330Y4147670D02*
G01X4250330Y4151770D01*
G01X4266730Y4151770D02*
G01X4266730Y4159970D01*
G54D14*
G01X4258530Y4139470D02*
G01X4259350Y4139470D01*
G54D13*
G01X4270830Y4139470D02*
G01X4283130Y4139470D01*
G01X4283130Y4114870D02*
G01X4283130Y4127170D01*
G01X4279030Y4131270D02*
G01X4283130Y4127170D01*
G01X4270830Y4131270D02*
G01X4279030Y4131270D01*
G01X4270830Y4131270D02*
G01X4266730Y4127170D01*
G01X4266730Y4118970D02*
G01X4266730Y4127170D01*
G01X4266730Y4118970D02*
G01X4270830Y4114870D01*
G01X4274930Y4114870D02*
G01X4274930Y4131270D01*
G01X4270830Y4114870D02*
G01X4274930Y4114870D01*
G01X4250330Y4088630D02*
G01X4283130Y4088630D01*
G01X4283130Y4092730D02*
G01X4279030Y4088630D01*
G01X4283130Y4092730D02*
G01X4283130Y4100930D01*
G01X4279030Y4105030D02*
G01X4283130Y4100930D01*
G01X4270830Y4105030D02*
G01X4279030Y4105030D01*
G01X4270830Y4105030D02*
G01X4266730Y4100930D01*
G01X4266730Y4092730D02*
G01X4266730Y4100930D01*
G01X4266730Y4092730D02*
G01X4270830Y4088630D01*
G01X4279030Y4078790D02*
G01X4283130Y4078790D01*
G01X4250330Y4078790D02*
G01X4270830Y4078790D01*
G54D12*
G01X4277280Y4958660D02*
G01X4282280Y4958660D01*
G01X4242280Y4958660D02*
G01X4267280Y4958660D01*
G01X5707870Y3403540D02*
G01X5712870Y3403540D01*
G01X5722870Y3403540D02*
G01X5747870Y3403540D01*
G54D13*
G01X5716870Y3456860D02*
G01X5749670Y3456860D01*
G01X5749670Y3467520D02*
G01X5743930Y3473260D01*
G01X5722610Y3473260D02*
G01X5743930Y3473260D01*
G01X5716870Y3467520D02*
G01X5722610Y3473260D01*
G01X5716870Y3452760D02*
G01X5716870Y3467520D01*
G01X5749670Y3452760D02*
G01X5749670Y3467520D01*
G01X5716870Y3483100D02*
G01X5741470Y3483100D01*
G01X5741470Y3483100D02*
G01X5749670Y3488840D01*
G01X5749670Y3488840D02*
G01X5749670Y3497860D01*
G01X5749670Y3497860D02*
G01X5741470Y3503600D01*
G01X5716870Y3503600D02*
G01X5741470Y3503600D01*
G01X5733270Y3483100D02*
G01X5733270Y3503600D01*
G01X5716870Y3513440D02*
G01X5749670Y3513440D01*
G01X5749670Y3513440D02*
G01X5716870Y3533940D01*
G01X5716870Y3533940D02*
G01X5749670Y3533940D01*
G01X5749670Y3560180D02*
G01X5745570Y3564280D01*
G01X5749670Y3547880D02*
G01X5749670Y3560180D01*
G01X5745570Y3543780D02*
G01X5749670Y3547880D01*
G01X5720970Y3543780D02*
G01X5745570Y3543780D01*
G01X5720970Y3543780D02*
G01X5716870Y3547880D01*
G01X5716870Y3547880D02*
G01X5716870Y3560180D01*
G01X5716870Y3560180D02*
G01X5720970Y3564280D01*
G01X5720970Y3564280D02*
G01X5729170Y3564280D01*
G01X5733270Y3560180D02*
G01X5729170Y3564280D01*
G01X5733270Y3551980D02*
G01X5733270Y3560180D01*
G01X5734910Y3574120D02*
G01X5734910Y3586420D01*
G01X5716870Y3574120D02*
G01X5716870Y3590520D01*
G01X5716870Y3574120D02*
G01X5749670Y3574120D01*
G01X5749670Y3574120D02*
G01X5749670Y3590520D01*
G01X5749670Y3600360D02*
G01X5749670Y3616760D01*
G01X5749670Y3616760D02*
G01X5745570Y3620860D01*
G01X5737370Y3620860D02*
G01X5745570Y3620860D01*
G01X5733270Y3616760D02*
G01X5737370Y3620860D01*
G01X5733270Y3604460D02*
G01X5733270Y3616760D01*
G01X5716870Y3604460D02*
G01X5749670Y3604460D01*
G01X5733270Y3611020D02*
G01X5716870Y3620860D01*
G01X5737370Y3630700D02*
G01X5737370Y3634800D01*
G01X5729170Y3630700D02*
G01X5729170Y3634800D01*
G01X5716870Y3665140D02*
G01X5716870Y3675800D01*
G01X5722610Y3659400D02*
G01X5716870Y3665140D01*
G01X5722610Y3659400D02*
G01X5743930Y3659400D01*
G01X5743930Y3659400D02*
G01X5749670Y3665140D01*
G01X5749670Y3665140D02*
G01X5749670Y3675800D01*
G01X5720970Y3685640D02*
G01X5729170Y3685640D01*
G01X5729170Y3685640D02*
G01X5733270Y3689740D01*
G01X5733270Y3689740D02*
G01X5733270Y3697940D01*
G01X5733270Y3697940D02*
G01X5729170Y3702040D01*
G01X5720970Y3702040D02*
G01X5729170Y3702040D01*
G01X5716870Y3697940D02*
G01X5720970Y3702040D01*
G01X5716870Y3689740D02*
G01X5716870Y3697940D01*
G01X5720970Y3685640D02*
G01X5716870Y3689740D01*
G01X5716870Y3715980D02*
G01X5729170Y3715980D01*
G01X5729170Y3715980D02*
G01X5733270Y3720080D01*
G01X5733270Y3720080D02*
G01X5733270Y3724180D01*
G01X5733270Y3724180D02*
G01X5729170Y3728280D01*
G01X5716870Y3728280D02*
G01X5729170Y3728280D01*
G01X5733270Y3711880D02*
G01X5729170Y3715980D01*
G01X5716870Y3742220D02*
G01X5745570Y3742220D01*
G01X5745570Y3742220D02*
G01X5749670Y3746320D01*
G01X5749670Y3746320D02*
G01X5749670Y3750420D01*
G01X5733270Y3738120D02*
G01X5733270Y3746320D01*
G54D14*
G01X5740650Y3758620D02*
G01X5741470Y3758620D01*
G54D13*
G01X5716870Y3758620D02*
G01X5729170Y3758620D01*
G01X5733270Y3779120D02*
G01X5729170Y3783220D01*
G01X5733270Y3770920D02*
G01X5733270Y3779120D01*
G01X5729170Y3766820D02*
G01X5733270Y3770920D01*
G01X5720970Y3766820D02*
G01X5729170Y3766820D01*
G01X5720970Y3766820D02*
G01X5716870Y3770920D01*
G01X5716870Y3770920D02*
G01X5716870Y3779120D01*
G01X5716870Y3779120D02*
G01X5720970Y3783220D01*
G01X5708670Y3766820D02*
G01X5704570Y3770920D01*
G01X5704570Y3770920D02*
G01X5704570Y3779120D01*
G01X5704570Y3779120D02*
G01X5708670Y3783220D01*
G01X5708670Y3783220D02*
G01X5733270Y3783220D01*
G01X5720970Y3793060D02*
G01X5733270Y3793060D01*
G01X5720970Y3793060D02*
G01X5716870Y3797160D01*
G01X5716870Y3797160D02*
G01X5716870Y3805360D01*
G01X5716870Y3805360D02*
G01X5720970Y3809460D01*
G01X5720970Y3809460D02*
G01X5733270Y3809460D01*
G01X5716870Y3823400D02*
G01X5729170Y3823400D01*
G01X5729170Y3823400D02*
G01X5733270Y3827500D01*
G01X5733270Y3827500D02*
G01X5733270Y3835700D01*
G01X5733270Y3819300D02*
G01X5729170Y3823400D01*
G01X5716870Y3849640D02*
G01X5716870Y3861940D01*
G01X5720970Y3845540D02*
G01X5716870Y3849640D01*
G01X5720970Y3845540D02*
G01X5729170Y3845540D01*
G01X5729170Y3845540D02*
G01X5733270Y3849640D01*
G01X5733270Y3849640D02*
G01X5733270Y3857840D01*
G01X5733270Y3857840D02*
G01X5729170Y3861940D01*
G01X5725070Y3845540D02*
G01X5725070Y3861940D01*
G01X5725070Y3861940D02*
G01X5729170Y3861940D01*
G01X5733270Y3898840D02*
G01X5729170Y3902940D01*
G01X5733270Y3890640D02*
G01X5733270Y3898840D01*
G01X5729170Y3886540D02*
G01X5733270Y3890640D01*
G01X5720970Y3886540D02*
G01X5729170Y3886540D01*
G01X5720970Y3886540D02*
G01X5716870Y3890640D01*
G01X5720970Y3902940D02*
G01X5733270Y3902940D01*
G01X5720970Y3902940D02*
G01X5716870Y3907040D01*
G01X5716870Y3890640D02*
G01X5716870Y3898840D01*
G01X5716870Y3898840D02*
G01X5720970Y3902940D01*
G01X5716870Y3920980D02*
G01X5729170Y3920980D01*
G01X5729170Y3920980D02*
G01X5733270Y3925080D01*
G01X5733270Y3925080D02*
G01X5733270Y3929180D01*
G01X5733270Y3929180D02*
G01X5729170Y3933280D01*
G01X5716870Y3933280D02*
G01X5729170Y3933280D01*
G01X5733270Y3916880D02*
G01X5729170Y3920980D01*
G01X5716870Y3959520D02*
G01X5749670Y3959520D01*
G01X5716870Y3955420D02*
G01X5720970Y3959520D01*
G01X5716870Y3947220D02*
G01X5716870Y3955420D01*
G01X5720970Y3943120D02*
G01X5716870Y3947220D01*
G01X5720970Y3943120D02*
G01X5729170Y3943120D01*
G01X5729170Y3943120D02*
G01X5733270Y3947220D01*
G01X5733270Y3947220D02*
G01X5733270Y3955420D01*
G01X5733270Y3955420D02*
G01X5729170Y3959520D01*
G01X5749670Y3984120D02*
G01X5716870Y3992320D01*
G01X5716870Y3992320D02*
G01X5749670Y4000520D01*
G01X5716870Y4014460D02*
G01X5716870Y4026760D01*
G01X5720970Y4010360D02*
G01X5716870Y4014460D01*
G01X5720970Y4010360D02*
G01X5729170Y4010360D01*
G01X5729170Y4010360D02*
G01X5733270Y4014460D01*
G01X5733270Y4014460D02*
G01X5733270Y4022660D01*
G01X5733270Y4022660D02*
G01X5729170Y4026760D01*
G01X5725070Y4010360D02*
G01X5725070Y4026760D01*
G01X5725070Y4026760D02*
G01X5729170Y4026760D01*
G01X5716870Y4040700D02*
G01X5729170Y4040700D01*
G01X5729170Y4040700D02*
G01X5733270Y4044800D01*
G01X5733270Y4044800D02*
G01X5733270Y4053000D01*
G01X5733270Y4036600D02*
G01X5729170Y4040700D01*
G54D14*
G01X5740650Y4062840D02*
G01X5741470Y4062840D01*
G54D13*
G01X5716870Y4062840D02*
G01X5729170Y4062840D01*
G01X5716870Y4075140D02*
G01X5745570Y4075140D01*
G01X5745570Y4075140D02*
G01X5749670Y4079240D01*
G01X5749670Y4079240D02*
G01X5749670Y4083340D01*
G01X5733270Y4071040D02*
G01X5733270Y4079240D01*
G01X5720970Y4091540D02*
G01X5733270Y4091540D01*
G01X5720970Y4091540D02*
G01X5716870Y4095640D01*
G01X5708670Y4107940D02*
G01X5733270Y4107940D01*
G01X5704570Y4103840D02*
G01X5708670Y4107940D01*
G01X5704570Y4095640D02*
G01X5704570Y4103840D01*
G01X5708670Y4091540D02*
G01X5704570Y4095640D01*
G01X5716870Y4095640D02*
G01X5716870Y4103840D01*
G01X5716870Y4103840D02*
G01X5720970Y4107940D01*
G01X5720970Y4132540D02*
G01X5749670Y4132540D01*
G01X5720970Y4132540D02*
G01X5716870Y4136640D01*
G01X5716870Y4148940D02*
G01X5716870Y4161240D01*
G01X5720970Y4144840D02*
G01X5716870Y4148940D01*
G01X5720970Y4144840D02*
G01X5729170Y4144840D01*
G01X5729170Y4144840D02*
G01X5733270Y4148940D01*
G01X5733270Y4148940D02*
G01X5733270Y4157140D01*
G01X5733270Y4157140D02*
G01X5729170Y4161240D01*
G01X5725070Y4144840D02*
G01X5725070Y4161240D01*
G01X5725070Y4161240D02*
G01X5729170Y4161240D01*
G01X5733270Y4183380D02*
G01X5729170Y4187480D01*
G01X5733270Y4175180D02*
G01X5733270Y4183380D01*
G01X5729170Y4171080D02*
G01X5733270Y4175180D01*
G01X5720970Y4171080D02*
G01X5729170Y4171080D01*
G01X5720970Y4171080D02*
G01X5716870Y4175180D01*
G01X5716870Y4175180D02*
G01X5716870Y4183380D01*
G01X5716870Y4183380D02*
G01X5720970Y4187480D01*
G01X5708670Y4171080D02*
G01X5704570Y4175180D01*
G01X5704570Y4175180D02*
G01X5704570Y4183380D01*
G01X5704570Y4183380D02*
G01X5708670Y4187480D01*
G01X5708670Y4187480D02*
G01X5733270Y4187480D01*
G01X5733270Y4209620D02*
G01X5729170Y4213720D01*
G01X5733270Y4201420D02*
G01X5733270Y4209620D01*
G01X5729170Y4197320D02*
G01X5733270Y4201420D01*
G01X5720970Y4197320D02*
G01X5729170Y4197320D01*
G01X5720970Y4197320D02*
G01X5716870Y4201420D01*
G01X5720970Y4213720D02*
G01X5733270Y4213720D01*
G01X5720970Y4213720D02*
G01X5716870Y4217820D01*
G01X5716870Y4201420D02*
G01X5716870Y4209620D01*
G01X5716870Y4209620D02*
G01X5720970Y4213720D01*
G01X5733270Y4231760D02*
G01X5733270Y4244060D01*
G01X5729170Y4227660D02*
G01X5733270Y4231760D01*
G01X5720970Y4227660D02*
G01X5729170Y4227660D01*
G01X5720970Y4227660D02*
G01X5716870Y4231760D01*
G01X5716870Y4231760D02*
G01X5716870Y4244060D01*
G01X5720970Y4253900D02*
G01X5733270Y4253900D01*
G01X5720970Y4253900D02*
G01X5716870Y4258000D01*
G01X5708670Y4270300D02*
G01X5733270Y4270300D01*
G01X5704570Y4266200D02*
G01X5708670Y4270300D01*
G01X5704570Y4258000D02*
G01X5704570Y4266200D01*
G01X5708670Y4253900D02*
G01X5704570Y4258000D01*
G01X5716870Y4258000D02*
G01X5716870Y4266200D01*
G01X5716870Y4266200D02*
G01X5720970Y4270300D01*
G01X5704570Y4299000D02*
G01X5729170Y4299000D01*
G01X5733270Y4294900D02*
G01X5729170Y4299000D01*
G01X5729170Y4299000D02*
G01X5733270Y4303100D01*
G01X5733270Y4303100D02*
G01X5733270Y4311300D01*
G01X5733270Y4311300D02*
G01X5729170Y4315400D01*
G01X5720970Y4315400D02*
G01X5729170Y4315400D01*
G01X5716870Y4311300D02*
G01X5720970Y4315400D01*
G01X5716870Y4303100D02*
G01X5716870Y4311300D01*
G01X5720970Y4299000D02*
G01X5716870Y4303100D01*
G01X5720970Y4325240D02*
G01X5729170Y4325240D01*
G01X5729170Y4325240D02*
G01X5733270Y4329340D01*
G01X5733270Y4329340D02*
G01X5733270Y4337540D01*
G01X5733270Y4337540D02*
G01X5729170Y4341640D01*
G01X5720970Y4341640D02*
G01X5729170Y4341640D01*
G01X5716870Y4337540D02*
G01X5720970Y4341640D01*
G01X5716870Y4329340D02*
G01X5716870Y4337540D01*
G01X5720970Y4325240D02*
G01X5716870Y4329340D01*
G01X5720970Y4351480D02*
G01X5749670Y4351480D01*
G01X5720970Y4351480D02*
G01X5716870Y4355580D01*
G01X5733270Y4376080D02*
G01X5729170Y4380180D01*
G01X5733270Y4367880D02*
G01X5733270Y4376080D01*
G01X5729170Y4363780D02*
G01X5733270Y4367880D01*
G01X5720970Y4363780D02*
G01X5729170Y4363780D01*
G01X5720970Y4363780D02*
G01X5716870Y4367880D01*
G01X5720970Y4380180D02*
G01X5733270Y4380180D01*
G01X5720970Y4380180D02*
G01X5716870Y4384280D01*
G01X5716870Y4367880D02*
G01X5716870Y4376080D01*
G01X5716870Y4376080D02*
G01X5720970Y4380180D01*
G01X5716870Y4398220D02*
G01X5729170Y4398220D01*
G01X5729170Y4398220D02*
G01X5733270Y4402320D01*
G01X5733270Y4402320D02*
G01X5733270Y4410520D01*
G01X5733270Y4394120D02*
G01X5729170Y4398220D01*
G54D14*
G01X5740650Y4420360D02*
G01X5741470Y4420360D01*
G54D13*
G01X5716870Y4420360D02*
G01X5729170Y4420360D01*
G01X5720970Y4432660D02*
G01X5749670Y4432660D01*
G01X5720970Y4432660D02*
G01X5716870Y4436760D01*
G01X5737370Y4428560D02*
G01X5737370Y4436760D01*
G01X5720970Y4444960D02*
G01X5733270Y4444960D01*
G01X5720970Y4444960D02*
G01X5716870Y4449060D01*
G01X5708670Y4461360D02*
G01X5733270Y4461360D01*
G01X5704570Y4457260D02*
G01X5708670Y4461360D01*
G01X5704570Y4449060D02*
G01X5704570Y4457260D01*
G01X5708670Y4444960D02*
G01X5704570Y4449060D01*
G01X5716870Y4449060D02*
G01X5716870Y4457260D01*
G01X5716870Y4457260D02*
G01X5720970Y4461360D01*
G01X5716870Y4471200D02*
G01X5720970Y4471200D01*
G01X5729170Y4471200D02*
G01X5749670Y4471200D01*
G54D11*
G01X4427500Y4332000D02*
G01X4435500Y4324000D01*
G01X4392500Y4332000D02*
G01X4427500Y4332000D01*
G01X4385500Y4325000D02*
G01X4392500Y4332000D01*
G01X4393500Y4292000D02*
G01X4386500Y4299000D01*
G01X4393500Y4292000D02*
G01X4428500Y4292000D01*
G01X4435500Y4299000D02*
G01X4428500Y4292000D01*
G54D15*
G01X4625640Y3277450D02*
G01X4633500Y3277450D01*
G01X4625640Y3332550D02*
G01X4633500Y3332550D01*
G01X4625640Y3727450D02*
G01X4633500Y3727450D01*
G01X4625640Y3782550D02*
G01X4633500Y3782550D01*
G54D11*
G01X4426500Y4174000D02*
G01X4434500Y4166000D01*
G01X4391500Y4174000D02*
G01X4426500Y4174000D01*
G01X4384500Y4167000D02*
G01X4391500Y4174000D01*
G01X4392500Y4134000D02*
G01X4385500Y4141000D01*
G01X4392500Y4134000D02*
G01X4427500Y4134000D01*
G01X4434500Y4141000D02*
G01X4427500Y4134000D01*
G01X4412500Y4692000D02*
G01X4420500Y4684000D01*
G01X4377500Y4692000D02*
G01X4412500Y4692000D01*
G01X4370500Y4685000D02*
G01X4377500Y4692000D01*
G01X4378500Y4652000D02*
G01X4371500Y4659000D01*
G01X4378500Y4652000D02*
G01X4413500Y4652000D01*
G01X4420500Y4659000D02*
G01X4413500Y4652000D01*
G01X4373500Y4701000D02*
G01X4365500Y4709000D01*
G01X4373500Y4701000D02*
G01X4408500Y4701000D01*
G01X4415500Y4708000D02*
G01X4408500Y4701000D01*
G01X4407500Y4741000D02*
G01X4414500Y4734000D01*
G01X4372500Y4741000D02*
G01X4407500Y4741000D01*
G01X4365500Y4734000D02*
G01X4372500Y4741000D01*
G01X4344000Y4888000D02*
G01X4336000Y4896000D01*
G01X4344000Y4888000D02*
G01X4379000Y4888000D01*
G01X4386000Y4895000D02*
G01X4379000Y4888000D01*
G01X4378000Y4928000D02*
G01X4385000Y4921000D01*
G01X4343000Y4928000D02*
G01X4378000Y4928000D01*
G01X4336000Y4921000D02*
G01X4343000Y4928000D01*
G01X4279000Y4748000D02*
G01X4271000Y4756000D01*
G01X4279000Y4748000D02*
G01X4314000Y4748000D01*
G01X4321000Y4755000D02*
G01X4314000Y4748000D01*
G01X4313000Y4788000D02*
G01X4320000Y4781000D01*
G01X4278000Y4788000D02*
G01X4313000Y4788000D01*
G01X4271000Y4781000D02*
G01X4278000Y4788000D01*
G54D15*
G01X4621500Y5072450D02*
G01X4629360Y5072450D01*
G01X4621500Y5127550D02*
G01X4629360Y5127550D01*
G01X4686070Y4702020D02*
G01X4693930Y4702020D01*
G01X4686070Y4757120D02*
G01X4693930Y4757120D01*
G54D11*
G01X4353500Y3591000D02*
G01X4345500Y3599000D01*
G01X4353500Y3591000D02*
G01X4388500Y3591000D01*
G01X4395500Y3598000D02*
G01X4388500Y3591000D01*
G01X4387500Y3631000D02*
G01X4394500Y3624000D01*
G01X4352500Y3631000D02*
G01X4387500Y3631000D01*
G01X4345500Y3624000D02*
G01X4352500Y3631000D01*
G01X4354000Y3508000D02*
G01X4346000Y3516000D01*
G01X4354000Y3508000D02*
G01X4389000Y3508000D01*
G01X4396000Y3515000D02*
G01X4389000Y3508000D01*
G01X4388000Y3548000D02*
G01X4395000Y3541000D01*
G01X4353000Y3548000D02*
G01X4388000Y3548000D01*
G01X4346000Y3541000D02*
G01X4353000Y3548000D01*
G01X4363500Y4786000D02*
G01X4355500Y4794000D01*
G01X4363500Y4786000D02*
G01X4398500Y4786000D01*
G01X4405500Y4793000D02*
G01X4398500Y4786000D01*
G01X4397500Y4826000D02*
G01X4404500Y4819000D01*
G01X4362500Y4826000D02*
G01X4397500Y4826000D01*
G01X4355500Y4819000D02*
G01X4362500Y4826000D01*
G54D15*
G01X4625640Y3877450D02*
G01X4633500Y3877450D01*
G01X4625640Y3932550D02*
G01X4633500Y3932550D01*
G54D12*
G01X4598070Y3733500D02*
G01X4618070Y3733500D01*
G01X4618070Y3733500D02*
G01X4623070Y3738500D01*
G01X4623070Y3738500D02*
G01X4623070Y3748500D01*
G01X4618070Y3753500D02*
G01X4623070Y3748500D01*
G01X4603070Y3753500D02*
G01X4618070Y3753500D01*
G01X4603070Y3733500D02*
G01X4603070Y3773500D01*
G01X4611070Y3753500D02*
G01X4623070Y3773500D01*
G01X4635070Y3741500D02*
G01X4643070Y3733500D01*
G01X4643070Y3733500D02*
G01X4643070Y3773500D01*
G01X4635070Y3773500D02*
G01X4650070Y3773500D01*
G01X4662070Y3741500D02*
G01X4670070Y3733500D01*
G01X4670070Y3733500D02*
G01X4670070Y3773500D01*
G01X4662070Y3773500D02*
G01X4677070Y3773500D01*
G01X5442910Y5361420D02*
G01X5442910Y5401420D01*
G01X5442910Y5401420D02*
G01X5427910Y5381420D01*
G01X5427910Y5381420D02*
G01X5412910Y5401420D01*
G01X5412910Y5361420D02*
G01X5412910Y5401420D01*
G01X5385910Y5383420D02*
G01X5400910Y5383420D01*
G01X5380910Y5361420D02*
G01X5400910Y5361420D01*
G01X5400910Y5361420D02*
G01X5400910Y5401420D01*
G01X5380910Y5401420D02*
G01X5400910Y5401420D01*
G01X5343910Y5401420D02*
G01X5368910Y5401420D01*
G01X5368910Y5361420D02*
G01X5343910Y5401420D01*
G01X5343910Y5361420D02*
G01X5368910Y5361420D01*
G01X5331910Y5376420D02*
G01X5311910Y5401420D01*
G01X5306910Y5376420D02*
G01X5331910Y5376420D01*
G01X5311910Y5361420D02*
G01X5311910Y5401420D01*
G01X4658500Y4708070D02*
G01X4678500Y4708070D01*
G01X4678500Y4708070D02*
G01X4683500Y4713070D01*
G01X4683500Y4713070D02*
G01X4683500Y4723070D01*
G01X4678500Y4728070D02*
G01X4683500Y4723070D01*
G01X4663500Y4728070D02*
G01X4678500Y4728070D01*
G01X4663500Y4708070D02*
G01X4663500Y4748070D01*
G01X4671500Y4728070D02*
G01X4683500Y4748070D01*
G01X4695500Y4716070D02*
G01X4703500Y4708070D01*
G01X4703500Y4708070D02*
G01X4703500Y4748070D01*
G01X4695500Y4748070D02*
G01X4710500Y4748070D01*
G01X4722500Y4713070D02*
G01X4727500Y4708070D01*
G01X4727500Y4708070D02*
G01X4737500Y4708070D01*
G01X4737500Y4708070D02*
G01X4742500Y4713070D01*
G01X4737500Y4748070D02*
G01X4742500Y4743070D01*
G01X4727500Y4748070D02*
G01X4737500Y4748070D01*
G01X4722500Y4743070D02*
G01X4727500Y4748070D01*
G01X4727500Y4726070D02*
G01X4737500Y4726070D01*
G01X4742500Y4713070D02*
G01X4742500Y4721070D01*
G01X4742500Y4731070D02*
G01X4742500Y4743070D01*
G01X4742500Y4731070D02*
G01X4737500Y4726070D01*
G01X4742500Y4721070D02*
G01X4737500Y4726070D01*
G01X4593930Y5078500D02*
G01X4613930Y5078500D01*
G01X4613930Y5078500D02*
G01X4618930Y5083500D01*
G01X4618930Y5083500D02*
G01X4618930Y5093500D01*
G01X4613930Y5098500D02*
G01X4618930Y5093500D01*
G01X4598930Y5098500D02*
G01X4613930Y5098500D01*
G01X4598930Y5078500D02*
G01X4598930Y5118500D01*
G01X4606930Y5098500D02*
G01X4618930Y5118500D01*
G01X4630930Y5086500D02*
G01X4638930Y5078500D01*
G01X4638930Y5078500D02*
G01X4638930Y5118500D01*
G01X4630930Y5118500D02*
G01X4645930Y5118500D01*
G01X4657930Y5103500D02*
G01X4677930Y5078500D01*
G01X4657930Y5103500D02*
G01X4682930Y5103500D01*
G01X4677930Y5078500D02*
G01X4677930Y5118500D01*
G01X4394690Y5016500D02*
G01X4402690Y5016500D01*
G01X4394690Y4981500D02*
G01X4394690Y5016500D01*
G01X4399690Y4976500D02*
G01X4394690Y4981500D01*
G01X4399690Y4976500D02*
G01X4404690Y4976500D01*
G01X4409690Y4981500D02*
G01X4404690Y4976500D01*
G01X4409690Y4981500D02*
G01X4409690Y4986500D01*
G01X4382690Y5011500D02*
G01X4377690Y5016500D01*
G01X4367690Y5016500D02*
G01X4377690Y5016500D01*
G01X4367690Y5016500D02*
G01X4362690Y5011500D01*
G01X4367690Y4976500D02*
G01X4362690Y4981500D01*
G01X4367690Y4976500D02*
G01X4377690Y4976500D01*
G01X4382690Y4981500D02*
G01X4377690Y4976500D01*
G01X4367690Y4998500D02*
G01X4377690Y4998500D01*
G01X4362690Y5003500D02*
G01X4362690Y5011500D01*
G01X4362690Y4981500D02*
G01X4362690Y4993500D01*
G01X4362690Y4993500D02*
G01X4367690Y4998500D01*
G01X4362690Y5003500D02*
G01X4367690Y4998500D01*
G01X4394690Y4966500D02*
G01X4402690Y4966500D01*
G01X4394690Y4931500D02*
G01X4394690Y4966500D01*
G01X4399690Y4926500D02*
G01X4394690Y4931500D01*
G01X4399690Y4926500D02*
G01X4404690Y4926500D01*
G01X4409690Y4931500D02*
G01X4404690Y4926500D01*
G01X4409690Y4931500D02*
G01X4409690Y4936500D01*
G01X4382690Y4941500D02*
G01X4362690Y4966500D01*
G01X4357690Y4941500D02*
G01X4382690Y4941500D01*
G01X4362690Y4926500D02*
G01X4362690Y4966500D01*
G01X4598070Y3883500D02*
G01X4618070Y3883500D01*
G01X4618070Y3883500D02*
G01X4623070Y3888500D01*
G01X4623070Y3888500D02*
G01X4623070Y3898500D01*
G01X4618070Y3903500D02*
G01X4623070Y3898500D01*
G01X4603070Y3903500D02*
G01X4618070Y3903500D01*
G01X4603070Y3883500D02*
G01X4603070Y3923500D01*
G01X4611070Y3903500D02*
G01X4623070Y3923500D01*
G01X4635070Y3891500D02*
G01X4643070Y3883500D01*
G01X4643070Y3883500D02*
G01X4643070Y3923500D01*
G01X4635070Y3923500D02*
G01X4650070Y3923500D01*
G01X4662070Y3888500D02*
G01X4667070Y3883500D01*
G01X4667070Y3883500D02*
G01X4682070Y3883500D01*
G01X4682070Y3883500D02*
G01X4687070Y3888500D01*
G01X4687070Y3888500D02*
G01X4687070Y3898500D01*
G01X4662070Y3923500D02*
G01X4687070Y3898500D01*
G01X4662070Y3923500D02*
G01X4687070Y3923500D01*
G01X4374500Y3602000D02*
G01X4394500Y3602000D01*
G01X4384500Y3562000D02*
G01X4384500Y3602000D01*
G01X4362500Y3577000D02*
G01X4342500Y3602000D01*
G01X4337500Y3577000D02*
G01X4362500Y3577000D01*
G01X4342500Y3562000D02*
G01X4342500Y3602000D01*
G01X4375000Y3519000D02*
G01X4395000Y3519000D01*
G01X4385000Y3479000D02*
G01X4385000Y3519000D01*
G01X4363000Y3514000D02*
G01X4358000Y3519000D01*
G01X4348000Y3519000D02*
G01X4358000Y3519000D01*
G01X4348000Y3519000D02*
G01X4343000Y3514000D01*
G01X4348000Y3479000D02*
G01X4343000Y3484000D01*
G01X4348000Y3479000D02*
G01X4358000Y3479000D01*
G01X4363000Y3484000D02*
G01X4358000Y3479000D01*
G01X4348000Y3501000D02*
G01X4358000Y3501000D01*
G01X4343000Y3506000D02*
G01X4343000Y3514000D01*
G01X4343000Y3484000D02*
G01X4343000Y3496000D01*
G01X4343000Y3496000D02*
G01X4348000Y3501000D01*
G01X4343000Y3506000D02*
G01X4348000Y3501000D01*
G01X4598070Y3283500D02*
G01X4618070Y3283500D01*
G01X4618070Y3283500D02*
G01X4623070Y3288500D01*
G01X4623070Y3288500D02*
G01X4623070Y3298500D01*
G01X4618070Y3303500D02*
G01X4623070Y3298500D01*
G01X4603070Y3303500D02*
G01X4618070Y3303500D01*
G01X4603070Y3283500D02*
G01X4603070Y3323500D01*
G01X4611070Y3303500D02*
G01X4623070Y3323500D01*
G01X4635070Y3291500D02*
G01X4643070Y3283500D01*
G01X4643070Y3283500D02*
G01X4643070Y3323500D01*
G01X4635070Y3323500D02*
G01X4650070Y3323500D01*
G01X4662070Y3318500D02*
G01X4667070Y3323500D01*
G01X4662070Y3288500D02*
G01X4662070Y3318500D01*
G01X4662070Y3288500D02*
G01X4667070Y3283500D01*
G01X4667070Y3283500D02*
G01X4677070Y3283500D01*
G01X4677070Y3283500D02*
G01X4682070Y3288500D01*
G01X4682070Y3288500D02*
G01X4682070Y3318500D01*
G01X4677070Y3323500D02*
G01X4682070Y3318500D01*
G01X4667070Y3323500D02*
G01X4677070Y3323500D01*
G01X4662070Y3313500D02*
G01X4682070Y3293500D01*
G01X0000000Y0000000D02*
G54D16*
G01X5800000Y3315000D02*
G01X5800000Y3245000D01*
G01X5800000Y3315000D02*
G01X5836000Y3351000D01*
G54D17*
G01X5836000Y3359000D02*
G01X5836000Y3349000D01*
G54D16*
G01X5800000Y3245000D02*
G01X5850000Y3195000D01*
G54D17*
G01X5765000Y3418000D02*
G01X5768000Y3421000D01*
G54D16*
G01X5816000Y3421000D02*
G01X5769000Y3421000D01*
G01X5835000Y3388000D02*
G01X5908000Y3388000D01*
G01X5908000Y3388000D02*
G01X5915000Y3381000D01*
G01X5915000Y3381000D02*
G01X5915000Y3380000D01*
G01X5836000Y3388000D02*
G01X5753000Y3388000D01*
G01X5753000Y3388000D02*
G01X5737000Y3404000D01*
G01X5737000Y3404000D02*
G01X5737000Y3410000D01*
G01X5737000Y3410000D02*
G01X5735000Y3412000D01*
G01X5706000Y3401000D02*
G01X5703000Y3404000D01*
G01X5703000Y3404000D02*
G01X5703000Y3426000D01*
G54D17*
G01X5785000Y3453000D02*
G01X5784000Y3452000D01*
G54D18*
G01X5824000Y3417000D02*
G01X5820000Y3421000D01*
G01X5820000Y3421000D02*
G01X5816000Y3421000D01*
G54D19*
G01X5848000Y3428000D02*
G01X5848000Y3436000D01*
G54D16*
G01X5848000Y3436000D02*
G01X5831000Y3453000D01*
G01X5831000Y3453000D02*
G01X5785000Y3453000D01*
G01X5845000Y3485000D02*
G01X5772000Y3485000D01*
G01X5752000Y3450000D02*
G01X5752000Y3465000D01*
G01X5752000Y3465000D02*
G01X5772000Y3485000D01*
G01X5752000Y3450000D02*
G01X5746000Y3444000D01*
G01X5746000Y3444000D02*
G01X5721000Y3444000D01*
G01X5721000Y3444000D02*
G01X5710000Y3433000D01*
G01X5703000Y3426000D02*
G01X5711000Y3434000D01*
G01X5897000Y3420000D02*
G01X5880000Y3437000D01*
G01X5880000Y3437000D02*
G01X5880000Y3450000D01*
G01X5880000Y3450000D02*
G01X5845000Y3485000D01*
G54D11*
G01X5944880Y3462600D02*
G01X5944880Y3470120D01*
G01X5944880Y3470120D02*
G01X5905000Y3510000D01*
G54D16*
G01X5748000Y5158000D02*
G01X5945000Y5158000D01*
G01X5748000Y5127000D02*
G01X5945000Y5127000D01*
G54D11*
G01X5945000Y5105000D02*
G01X5748000Y5105000D01*
G01X5748000Y5093000D02*
G01X5945000Y5093000D01*
G54D16*
G01X5945000Y4973000D02*
G01X5748000Y4973000D01*
G54D11*
G01X5748000Y4951000D02*
G01X5945000Y4951000D01*
G01X5748000Y4939000D02*
G01X5945000Y4939000D01*
G54D16*
G01X5945000Y4776000D02*
G01X5748000Y4776000D01*
G01X5945000Y4745000D02*
G01X5748000Y4745000D01*
G01X5748000Y4579000D02*
G01X5945000Y4579000D01*
G01X5945000Y4548000D02*
G01X5748000Y4548000D01*
G54D11*
G01X5945000Y4723000D02*
G01X5748000Y4723000D01*
G01X5748000Y4526000D02*
G01X5945000Y4526000D01*
G01X5748000Y4514000D02*
G01X5945000Y4514000D01*
G54D16*
G01X5945000Y4383000D02*
G01X5748000Y4383000D01*
G01X5945000Y4352000D02*
G01X5748000Y4352000D01*
G54D11*
G01X5945000Y4502000D02*
G01X5748000Y4502000D01*
G01X5945000Y4330000D02*
G01X5748000Y4330000D01*
G54D16*
G01X6015000Y3705000D02*
G01X6000000Y3720000D01*
G01X6000000Y3720000D02*
G01X6000000Y3765000D01*
G01X6000000Y3765000D02*
G01X6015000Y3780000D01*
G01X6080000Y3780000D02*
G01X6095000Y3765000D01*
G01X6095000Y3765000D02*
G01X6095000Y3720000D01*
G01X6095000Y3720000D02*
G01X6080000Y3705000D01*
G01X6080000Y3780000D02*
G01X6095000Y3765000D01*
G01X6015000Y3705000D02*
G01X6015000Y3555000D01*
G01X6015000Y3555000D02*
G01X6030000Y3540000D01*
G01X6030000Y3540000D02*
G01X6045000Y3540000D01*
G01X6065000Y3505000D02*
G01X6045000Y3505000D01*
G01X6080000Y3705000D02*
G01X6080000Y3520000D01*
G01X6080000Y3520000D02*
G01X6065000Y3505000D01*
G01X6080000Y3900000D02*
G01X6095000Y3915000D01*
G01X6080000Y3900000D02*
G01X6080000Y3780000D01*
G01X6095000Y3915000D02*
G01X6095000Y3960000D01*
G01X6095000Y3960000D02*
G01X6080000Y3975000D01*
G01X6015000Y3975000D02*
G01X6000000Y3960000D01*
G01X6000000Y3960000D02*
G01X6000000Y3915000D01*
G01X6000000Y3915000D02*
G01X6015000Y3900000D01*
G01X6015000Y3900000D02*
G01X6015000Y3780000D01*
G01X6015000Y3975000D02*
G01X6015000Y4265000D01*
G01X6080000Y4225000D02*
G01X6080000Y3975000D01*
G01X6015000Y4265000D02*
G01X6025000Y4275000D01*
G01X6025000Y4275000D02*
G01X6070000Y4275000D01*
G01X6070000Y4275000D02*
G01X6080000Y4265000D01*
G01X6050000Y4235000D02*
G01X6070000Y4235000D01*
G01X6070000Y4235000D02*
G01X6080000Y4225000D01*
G54D11*
G01X6050000Y3295000D02*
G01X6050000Y3255000D01*
G01X6050000Y3295000D02*
G01X6140000Y3385000D01*
G01X6150000Y3295000D02*
G01X6150000Y3260000D01*
G54D16*
G01X5950000Y3220000D02*
G01X5900000Y3270000D01*
G01X5900000Y3270000D02*
G01X5900000Y3325000D01*
G01X5900000Y3325000D02*
G01X5920000Y3345000D01*
G01X5920000Y3345000D02*
G01X5935000Y3345000D01*
G01X5935000Y3345000D02*
G01X5950000Y3360000D01*
G01X5950000Y3360000D02*
G01X5950000Y3385000D01*
G01X5950000Y3385000D02*
G01X5960000Y3395000D01*
G01X5960000Y3395000D02*
G01X5975000Y3395000D01*
G01X5975000Y3395000D02*
G01X6010000Y3430000D01*
G54D11*
G01X6150000Y3295000D02*
G01X6190000Y3335000D01*
G01X6190000Y3335000D02*
G01X6190000Y3445000D01*
G01X6050000Y3255000D02*
G01X6010000Y3215000D01*
G01X6010000Y3215000D02*
G01X6010000Y3160000D01*
G54D16*
G01X5950000Y3195000D02*
G01X5950000Y3220000D01*
G54D11*
G01X6010000Y3160000D02*
G01X6045000Y3125000D01*
G01X6050000Y3060000D02*
G01X6045000Y3065000D01*
G01X6045000Y3125000D02*
G01X6045000Y3065000D01*
G01X6150000Y3260000D02*
G01X6110000Y3220000D01*
G01X6110000Y3220000D02*
G01X6110000Y3170000D01*
G01X6110000Y3170000D02*
G01X6135000Y3145000D01*
G01X6135000Y3145000D02*
G01X6135000Y3075000D01*
G01X6135000Y3075000D02*
G01X6150000Y3060000D01*
G01X6250000Y3060000D02*
G01X6250000Y3130000D01*
G01X6250000Y3130000D02*
G01X6210000Y3170000D01*
G01X6210000Y3170000D02*
G01X6210000Y3215000D01*
G01X6210000Y3215000D02*
G01X6250000Y3255000D01*
G01X6250000Y3255000D02*
G01X6250000Y3295000D01*
G54D16*
G01X6000000Y3500000D02*
G01X5970000Y3530000D01*
G01X5970000Y3530000D02*
G01X5970000Y3570000D01*
G54D11*
G01X6140000Y3385000D02*
G01X6140000Y3565000D01*
G01X6190000Y3445000D02*
G01X6225000Y3480000D01*
G01X6225000Y3480000D02*
G01X6225000Y3565000D01*
G54D16*
G01X6010000Y3430000D02*
G01X6010000Y3485000D01*
G01X6010000Y3485000D02*
G01X6000000Y3495000D01*
G01X6000000Y3495000D02*
G01X6000000Y3500000D01*
G01X6100000Y3470000D02*
G01X6070000Y3470000D01*
G01X6050000Y3450000D02*
G01X6030000Y3450000D01*
G01X6070000Y3470000D02*
G01X6050000Y3450000D01*
G01X6030000Y3450000D02*
G01X6005000Y3425000D01*
G01X5098430Y5773620D02*
G01X5098430Y5777560D01*
G01X5106300Y5765750D02*
G01X5098430Y5773620D01*
G01X5190940Y5765750D02*
G01X5106300Y5765750D01*
G01X5208660Y5748030D02*
G01X5190940Y5765750D01*
G01X5275590Y5748030D02*
G01X5208660Y5748030D01*
G01X5346460Y5818900D02*
G01X5275590Y5748030D01*
G01X5314960Y5718500D02*
G01X5324800Y5728350D01*
G54D11*
G01X5248030Y5696850D02*
G01X5236220Y5696850D01*
G01X5267720Y5677170D02*
G01X5248030Y5696850D01*
G54D16*
G01X5346460Y5881890D02*
G01X5346460Y5818900D01*
G01X5397640Y5728350D02*
G01X5405510Y5736220D01*
G01X5324800Y5728350D02*
G01X5397640Y5728350D01*
G01X5322830Y5905510D02*
G01X5346460Y5881890D01*
G01X5322830Y5938980D02*
G01X5322830Y5905510D01*
G01X5328740Y5944880D02*
G01X5322830Y5938980D01*
G54D20*
G01X5360240Y5976380D02*
G01X5328740Y5944880D01*
G01X5362200Y5976380D02*
G01X5360240Y5976380D01*
G54D16*
G01X5366140Y5980310D02*
G01X5362200Y5976380D01*
G01X5393700Y5980310D02*
G01X5366140Y5980310D01*
G01X5421260Y5952760D02*
G01X5393700Y5980310D01*
G01X5421260Y5944880D02*
G01X5421260Y5952760D01*
G01X5472440Y5893700D02*
G01X5421260Y5944880D01*
G01X5472440Y5842520D02*
G01X5472440Y5893700D01*
G01X5484250Y5830710D02*
G01X5472440Y5842520D01*
G01X5484250Y5799210D02*
G01X5484250Y5830710D01*
G01X5500000Y5783460D02*
G01X5484250Y5799210D01*
G01X5236220Y6011810D02*
G01X5236220Y5854330D01*
G01X5228350Y6011810D02*
G01X5236220Y6011810D01*
G01X5200790Y6039370D02*
G01X5228350Y6011810D01*
G01X5137800Y6039370D02*
G01X5200790Y6039370D01*
G01X5118110Y6019690D02*
G01X5137800Y6039370D01*
G01X5082680Y6019690D02*
G01X5118110Y6019690D01*
G01X5027560Y5964570D02*
G01X5082680Y6019690D01*
G01X5027560Y5921260D02*
G01X5027560Y5964570D01*
G01X4988190Y5881890D02*
G01X5027560Y5921260D01*
G01X5084650Y5931100D02*
G01X5019690Y5866140D01*
G01X5098430Y5931100D02*
G01X5084650Y5931100D01*
G01X5078740Y5850390D02*
G01X5078740Y5854330D01*
G01X5051180Y5822830D02*
G01X5078740Y5850390D01*
G01X4988190Y5688980D02*
G01X4988190Y5881890D01*
G01X5019690Y5866140D02*
G01X5019690Y5685040D01*
G01X5051180Y5669290D02*
G01X5051180Y5822830D01*
G01X5029530Y5647640D02*
G01X5051180Y5669290D01*
G01X4966540Y5647640D02*
G01X5029530Y5647640D01*
G01X4978350Y5679130D02*
G01X4988190Y5688980D01*
G01X4950790Y5679130D02*
G01X4978350Y5679130D01*
G01X4905510Y5633860D02*
G01X4950790Y5679130D01*
G01X4905510Y5555120D02*
G01X4905510Y5633860D01*
G01X4937010Y5618110D02*
G01X4966540Y5647640D01*
G01X4986100Y5594300D02*
G01X5044960Y5535430D01*
G01X5519690Y5653540D02*
G01X5500000Y5673230D01*
G54D20*
G01X5523620Y5649610D02*
G01X5519690Y5653540D01*
G54D16*
G01X5500000Y5673230D02*
G01X5500000Y5783460D01*
G54D21*
G01X5535430Y5598430D02*
G01X5507870Y5625980D01*
G54D16*
G01X5334650Y5614170D02*
G01X5425200Y5704720D01*
G01X5437010Y5704720D02*
G01X5425200Y5704720D01*
G01X5370080Y5536610D02*
G01X5334650Y5572050D01*
G54D21*
G01X5397440Y5594300D02*
G01X5386100Y5594300D01*
G01X5429130Y5625980D02*
G01X5397440Y5594300D01*
G54D16*
G01X5312990Y5536610D02*
G01X5461420Y5536610D01*
G54D21*
G01X5507870Y5625980D02*
G01X5429130Y5625980D01*
G01X5535430Y5562990D02*
G01X5535430Y5598430D01*
G01X5566930Y5531500D02*
G01X5535430Y5562990D01*
G01X5566930Y5452760D02*
G01X5566930Y5531500D01*
G54D16*
G01X5518500Y5536610D02*
G01X5535430Y5519690D01*
G01X5517320Y5536610D02*
G01X5518500Y5536610D01*
G01X5535430Y5519690D02*
G01X5535430Y5464570D01*
G54D22*
G01X5461420Y5536610D02*
G01X5517320Y5536610D01*
G54D16*
G01X5486100Y5494300D02*
G01X5474610Y5494300D01*
G54D11*
G01X5386100Y5479300D02*
G01X5329690Y5479300D01*
G01X5267720Y5598430D02*
G01X5267720Y5677170D01*
G01X5286100Y5580040D02*
G01X5267720Y5598430D01*
G01X5286100Y5579300D02*
G01X5286100Y5580040D01*
G54D16*
G01X5334650Y5572050D02*
G01X5334650Y5614170D01*
G01X5295740Y5503940D02*
G01X5342520Y5503940D01*
G01X5286100Y5494300D02*
G01X5295740Y5503940D01*
G54D22*
G01X5261020Y5536610D02*
G01X5312990Y5536610D01*
G54D11*
G01X5303150Y5452760D02*
G01X5263780Y5452760D01*
G01X5329690Y5479300D02*
G01X5303150Y5452760D01*
G54D16*
G01X5242330Y5494300D02*
G01X5286100Y5494300D01*
G01X5113780Y5536610D02*
G01X5261020Y5536610D01*
G01X5236220Y5488190D02*
G01X5242330Y5494300D01*
G01X5236220Y5456690D02*
G01X5236220Y5488190D01*
G54D20*
G01X5132840Y5479300D02*
G01X5186100Y5479300D01*
G01X5125980Y5472440D02*
G01X5132840Y5479300D01*
G54D11*
G01X6118110Y5377950D02*
G01X6078740Y5377950D01*
G54D22*
G01X6149610Y5366140D02*
G01X6149610Y5377950D01*
G54D11*
G01X6078740Y5377950D02*
G01X6074800Y5374020D01*
G01X6074800Y5374020D02*
G01X6074800Y5299210D01*
G01X6074800Y5299210D02*
G01X6031500Y5342520D01*
G54D22*
G01X6125980Y5401570D02*
G01X6086610Y5401570D01*
G54D16*
G01X6078740Y5401570D02*
G01X6074800Y5401570D01*
G54D20*
G01X6047240Y5381890D02*
G01X6035430Y5370080D01*
G01X6035430Y5370080D02*
G01X6000000Y5370080D01*
G54D16*
G01X6000000Y5370080D02*
G01X5948820Y5421260D01*
G54D11*
G01X6031500Y5342520D02*
G01X5972440Y5342520D01*
G01X5972440Y5342520D02*
G01X5948820Y5366140D01*
G54D16*
G01X6074800Y5401570D02*
G01X6051180Y5425200D01*
G01X6051180Y5425200D02*
G01X6027560Y5425200D01*
G01X6027560Y5425200D02*
G01X6001970Y5450790D01*
G54D20*
G01X6019690Y5393700D02*
G01X5964570Y5448820D01*
G54D16*
G01X6001970Y5450790D02*
G01X6001970Y5537400D01*
G01X6001970Y5537400D02*
G01X5960070Y5579300D01*
G01X5960070Y5579300D02*
G01X5952240Y5579300D01*
G54D20*
G01X5897640Y5456690D02*
G01X5897640Y5618110D01*
G54D16*
G01X5965120Y5579300D02*
G01X5952240Y5579300D01*
G54D20*
G01X5964570Y5448820D02*
G01X5905510Y5448820D01*
G01X5905510Y5448820D02*
G01X5897640Y5456690D01*
G54D16*
G01X5948820Y5421260D02*
G01X5921260Y5421260D01*
G01X5921260Y5421260D02*
G01X5897640Y5397640D01*
G01X5803150Y5452760D02*
G01X5826770Y5429130D01*
G01X5826770Y5429130D02*
G01X5881890Y5429130D01*
G54D11*
G01X5948820Y5366140D02*
G01X5854330Y5366140D01*
G54D16*
G01X5895670Y5395670D02*
G01X5852360Y5395670D01*
G54D11*
G01X5854330Y5366140D02*
G01X5842520Y5354330D01*
G01X5842520Y5354330D02*
G01X5814960Y5354330D01*
G01X5814960Y5354330D02*
G01X5807090Y5362200D01*
G01X5807090Y5362200D02*
G01X5807090Y5409450D01*
G54D16*
G01X5852360Y5395670D02*
G01X5834650Y5377950D01*
G01X6196850Y5397640D02*
G01X6196850Y5381890D01*
G01X6196850Y5381890D02*
G01X6181100Y5366140D01*
G01X6181100Y5366140D02*
G01X6145670Y5366140D01*
G54D22*
G01X6149610Y5377950D02*
G01X6125980Y5401570D01*
G54D16*
G01X6165350Y5397640D02*
G01X6165350Y5429130D01*
G01X6165350Y5429130D02*
G01X6141730Y5429130D01*
G54D22*
G01X6125980Y5409450D02*
G01X6133860Y5401570D01*
G01X6133860Y5401570D02*
G01X6137800Y5401570D01*
G01X6124020Y5411420D02*
G01X6120080Y5415350D01*
G01X6127950Y5407480D02*
G01X6124020Y5407480D01*
G01X6124020Y5407480D02*
G01X6122050Y5409450D01*
G54D11*
G01X6196850Y5429130D02*
G01X6192910Y5433070D01*
G01X6196850Y5429130D02*
G01X6259840Y5429130D01*
G01X6259840Y5429130D02*
G01X6263780Y5425200D01*
G01X6263780Y5425200D02*
G01X6263780Y5350390D01*
G01X6263780Y5350390D02*
G01X6228350Y5314960D01*
G01X6228350Y5314960D02*
G01X6228350Y5303150D01*
G54D21*
G01X6352240Y5579300D02*
G01X6352240Y5565080D01*
G01X6352240Y5565080D02*
G01X6401570Y5515750D01*
G01X6401570Y5515750D02*
G01X6401570Y5472440D01*
G01X6401570Y5472440D02*
G01X6374020Y5444880D01*
G01X6374020Y5444880D02*
G01X6374020Y5381890D01*
G54D16*
G01X6352240Y5494300D02*
G01X6303150Y5543390D01*
G01X6102360Y5511810D02*
G01X6052240Y5561930D01*
G01X6052240Y5561930D02*
G01X6052240Y5594300D01*
G01X6052240Y5594300D02*
G01X6083930Y5625980D01*
G01X6102360Y5511810D02*
G01X6102360Y5456690D01*
G54D22*
G01X6137800Y5429130D02*
G01X6102360Y5464570D01*
G54D16*
G01X6102360Y5464570D02*
G01X6110240Y5464570D01*
G54D11*
G01X6192910Y5538620D02*
G01X6192910Y5433070D01*
G01X6192910Y5539370D02*
G01X6192910Y5570870D01*
G01X6192910Y5570870D02*
G01X6184480Y5579300D01*
G01X6184480Y5579300D02*
G01X6152240Y5579300D01*
G54D20*
G01X6129920Y5657480D02*
G01X6125980Y5653540D01*
G54D16*
G01X6212600Y5625980D02*
G01X6271650Y5685040D01*
G01X6303150Y5704720D02*
G01X6303150Y5751970D01*
G01X6303150Y5751970D02*
G01X6287400Y5767720D01*
G01X6287400Y5767720D02*
G01X6287400Y5799210D01*
G01X6287400Y5799210D02*
G01X6259840Y5826770D01*
G01X6271650Y5736220D02*
G01X6271650Y5685040D01*
G01X6334650Y5685040D02*
G01X6334650Y5767720D01*
G01X6366140Y5669290D02*
G01X6366140Y5783460D01*
G01X6366140Y5783460D02*
G01X6350390Y5799210D01*
G01X6350390Y5799210D02*
G01X6350390Y5830710D01*
G01X6350390Y5830710D02*
G01X6338580Y5842520D01*
G01X6334650Y5767720D02*
G01X6318900Y5783460D01*
G01X6318900Y5783460D02*
G01X6318900Y5814960D01*
G01X6318900Y5814960D02*
G01X6307090Y5826770D01*
G01X6307090Y5826770D02*
G01X6307090Y5877950D01*
G01X6307090Y5877950D02*
G01X6283460Y5901570D01*
G01X6283460Y5901570D02*
G01X6269690Y5901570D01*
G01X6338580Y5842520D02*
G01X6338580Y5893700D01*
G01X6287400Y5944880D02*
G01X6338580Y5893700D01*
G01X6303150Y5543390D02*
G01X6303150Y5653540D01*
G01X6352240Y5579300D02*
G01X6370080Y5597130D01*
G01X6370080Y5597130D02*
G01X6370080Y5622050D01*
G01X6303150Y5653540D02*
G01X6334650Y5685040D01*
G01X6334650Y5625980D02*
G01X6334650Y5637800D01*
G01X6334650Y5637800D02*
G01X6366140Y5669290D01*
G54D20*
G01X6389760Y5649610D02*
G01X6389760Y5637800D01*
G54D16*
G01X6389760Y5637800D02*
G01X6385830Y5637800D01*
G01X6385830Y5637800D02*
G01X6370080Y5622050D01*
G01X5877950Y5645670D02*
G01X5830710Y5645670D01*
G01X5830710Y5645670D02*
G01X5803150Y5618110D01*
G01X5803150Y5618110D02*
G01X5803150Y5452760D01*
G54D11*
G01X5807090Y5409450D02*
G01X5779530Y5437010D01*
G01X5779530Y5629920D02*
G01X5779530Y5437010D01*
G54D16*
G01X5885830Y5685040D02*
G01X5885830Y5653540D01*
G01X5885830Y5653540D02*
G01X5877950Y5645670D01*
G54D20*
G01X5897640Y5618110D02*
G01X5913390Y5633860D01*
G01X5913390Y5633860D02*
G01X5913390Y5708660D01*
G01X5913390Y5708660D02*
G01X5885830Y5736220D01*
G54D11*
G01X5862200Y5685040D02*
G01X5850390Y5673230D01*
G01X5850390Y5673230D02*
G01X5822830Y5673230D01*
G01X5822830Y5673230D02*
G01X5779530Y5629920D01*
G54D20*
G01X5885830Y5736220D02*
G01X5885830Y5870080D01*
G54D11*
G01X5862200Y5877950D02*
G01X5862200Y5685040D01*
G54D16*
G01X6066930Y5653540D02*
G01X6039370Y5653540D01*
G01X6039370Y5653540D02*
G01X5965120Y5579300D01*
G01X6074800Y5748030D02*
G01X6045280Y5718500D01*
G01X6045280Y5718500D02*
G01X6023620Y5718500D01*
G54D11*
G01X6181100Y5990160D02*
G01X6120080Y6051180D01*
G01X6120080Y6051180D02*
G01X6082680Y6051180D01*
G01X6082680Y6051180D02*
G01X6059060Y6027560D01*
G54D20*
G01X6125980Y5653540D02*
G01X6066930Y5653540D01*
G54D16*
G01X6137800Y5625980D02*
G01X6083930Y5625980D01*
G01X6169290Y5625980D02*
G01X6212600Y5625980D01*
G54D20*
G01X6141730Y5625980D02*
G01X6165350Y5625980D01*
G54D16*
G01X6129920Y5657480D02*
G01X6188980Y5657480D01*
G01X6188980Y5657480D02*
G01X6240160Y5708660D01*
G01X6240160Y5708660D02*
G01X6240160Y5777560D01*
G01X6212600Y5818900D02*
G01X6141730Y5748030D01*
G01X6141730Y5748030D02*
G01X6074800Y5748030D01*
G01X6259840Y5826770D02*
G01X6259840Y5854330D01*
G01X6269690Y5901570D02*
G01X6240160Y5931100D01*
G01X6259840Y5980310D02*
G01X6287400Y5952760D01*
G01X6287400Y5952760D02*
G01X6287400Y5944880D01*
G01X6259840Y5980310D02*
G01X6232280Y5980310D01*
G01X6232280Y5980310D02*
G01X6228350Y5976380D01*
G54D20*
G01X6228350Y5976380D02*
G01X6226380Y5976380D01*
G01X6226380Y5976380D02*
G01X6192910Y5942910D01*
G54D16*
G01X6192910Y5942910D02*
G01X6188980Y5938980D01*
G01X6188980Y5938980D02*
G01X6188980Y5905510D01*
G01X6188980Y5905510D02*
G01X6212600Y5881890D01*
G01X6212600Y5881890D02*
G01X6212600Y5818900D01*
G54D20*
G01X5885830Y5870080D02*
G01X5921260Y5905510D01*
G01X5921260Y5905510D02*
G01X5921260Y5952760D01*
G01X5921260Y5952760D02*
G01X5958660Y5990160D01*
G01X5958660Y5990160D02*
G01X6023620Y5990160D01*
G54D11*
G01X6003940Y6027560D02*
G01X5988190Y6011810D01*
G01X5988190Y6011810D02*
G01X5952760Y6011810D01*
G01X5952760Y6011810D02*
G01X5901570Y5960630D01*
G01X5901570Y5960630D02*
G01X5901570Y5917320D01*
G01X5901570Y5917320D02*
G01X5862200Y5877950D01*
G01X6059060Y6027560D02*
G01X6003940Y6027560D01*
G54D16*
G01X6102360Y6011810D02*
G01X6102360Y5854330D01*
G54D21*
G01X5458660Y5348430D02*
G01X5492130Y5381890D01*
G01X5507870Y5381890D02*
G01X5492130Y5381890D01*
G54D11*
G01X5446850Y5340550D02*
G01X5476380Y5370080D01*
G01X5456690Y5346460D02*
G01X5456690Y5350390D01*
G01X5452760Y5342520D02*
G01X5456690Y5346460D01*
G01X5452760Y5322830D02*
G01X5452760Y5342520D01*
G01X5448820Y5318900D02*
G01X5452760Y5322830D01*
G01X5422050Y5318900D02*
G01X5448820Y5318900D01*
G01X5435830Y5340550D02*
G01X5446850Y5340550D01*
G54D21*
G01X5527560Y5413390D02*
G01X5566930Y5452760D01*
G54D16*
G01X5535430Y5464570D02*
G01X5515750Y5444880D01*
G54D21*
G01X5484250Y5413390D02*
G01X5527560Y5413390D01*
G54D16*
G01X5515750Y5444880D02*
G01X5472440Y5444880D01*
G54D21*
G01X5437010Y5366140D02*
G01X5484250Y5413390D01*
G54D16*
G01X5472440Y5444880D02*
G01X5425200Y5397640D01*
G01X5474610Y5494300D02*
G01X5409450Y5429130D01*
G54D11*
G01X5422050Y5287400D02*
G01X5435830Y5287400D01*
G01X5435830Y5340550D02*
G01X5435830Y5263780D01*
G01X5422050Y5340550D02*
G01X5422050Y5263780D01*
G01X5385830Y5287400D02*
G01X5381890Y5287400D01*
G01X5380710Y5284650D02*
G01X5377950Y5287400D01*
G01X5394490Y5278740D02*
G01X5385830Y5287400D01*
G01X5394490Y5263780D02*
G01X5394490Y5278740D01*
G01X5380710Y5263780D02*
G01X5380710Y5284650D01*
G01X5366930Y5276380D02*
G01X5366930Y5263780D01*
G01X5381890Y5291340D02*
G01X5366930Y5276380D01*
G01X5408270Y5278350D02*
G01X5422050Y5292130D01*
G01X5408270Y5263780D02*
G01X5408270Y5278350D01*
G01X5435830Y5303150D02*
G01X5422050Y5303150D01*
G01X5408270Y5361020D02*
G01X5409450Y5362200D01*
G01X5394490Y5359060D02*
G01X5397640Y5362200D01*
G01X5380710Y5357090D02*
G01X5389760Y5366140D01*
G01X5381890Y5366140D02*
G01X5389760Y5366140D01*
G01X5366930Y5351180D02*
G01X5381890Y5366140D01*
G01X5408270Y5325590D02*
G01X5408270Y5361020D01*
G01X5394490Y5323620D02*
G01X5394490Y5359060D01*
G01X5381890Y5318900D02*
G01X5401570Y5318900D01*
G01X5408270Y5325590D02*
G01X5401570Y5318900D01*
G01X5394490Y5323620D02*
G01X5389760Y5318900D01*
G01X5380710Y5339760D02*
G01X5380710Y5357090D01*
G01X5366930Y5325980D02*
G01X5366930Y5351180D01*
G01X5380710Y5340550D02*
G01X5380710Y5321650D01*
G54D16*
G01X5425200Y5397640D02*
G01X5362200Y5397640D01*
G54D21*
G01X5393700Y5366140D02*
G01X5437010Y5366140D01*
G54D11*
G01X5353150Y5312200D02*
G01X5362200Y5303150D01*
G01X5381890Y5314960D02*
G01X5381890Y5291340D01*
G01X5353150Y5340550D02*
G01X5353150Y5312200D01*
G01X5380710Y5321650D02*
G01X5377950Y5318900D01*
G01X5377950Y5318900D02*
G01X5381890Y5314960D01*
G01X5374020Y5318900D02*
G01X5377950Y5318900D01*
G01X5366930Y5325980D02*
G01X5374020Y5318900D01*
G54D16*
G01X4937010Y5523620D02*
G01X4905510Y5555120D01*
G01X4937010Y5452760D02*
G01X4937010Y5523620D01*
G01X4948820Y5440940D02*
G01X4937010Y5452760D01*
G01X4948820Y5397640D02*
G01X4948820Y5440940D01*
G01X4986100Y5529650D02*
G01X4986100Y5523620D01*
G01X4986100Y5479300D02*
G01X4986100Y5525710D01*
G01X4986100Y5479300D02*
G01X4984250Y5477450D01*
G01X4972440Y5543310D02*
G01X4986100Y5529650D01*
G01X4964570Y5543310D02*
G01X4972440Y5543310D01*
G01X4937010Y5570870D02*
G01X4964570Y5543310D01*
G01X4937010Y5618110D02*
G01X4937010Y5570870D01*
G01X4968500Y5377950D02*
G01X4948820Y5397640D01*
G01X4984250Y5413390D02*
G01X5007870Y5389760D01*
G01X5027560Y5389760D02*
G01X5007870Y5389760D01*
G54D20*
G01X5015750Y5429130D02*
G01X5023620Y5421260D01*
G54D11*
G01X5036220Y5381100D02*
G01X5035430Y5381890D01*
G54D16*
G01X4984250Y5477450D02*
G01X4984250Y5413390D01*
G01X5086100Y5452240D02*
G01X5086100Y5494300D01*
G54D22*
G01X5060240Y5536610D02*
G01X5113780Y5536610D01*
G01X5059060Y5535430D02*
G01X5060240Y5536610D01*
G54D16*
G01X5044960Y5535430D02*
G01X5059060Y5535430D01*
G54D20*
G01X5125980Y5437010D02*
G01X5125980Y5472440D01*
G01X5151570Y5411420D02*
G01X5125980Y5437010D01*
G54D11*
G01X5129920Y5401570D02*
G01X5132680Y5398820D01*
G54D16*
G01X5055120Y5421260D02*
G01X5086100Y5452240D01*
G01X5086100Y5413900D02*
G01X5086100Y5494300D01*
G01X5023620Y5421260D02*
G01X5055120Y5421260D01*
G54D20*
G01X5066930Y5389760D02*
G01X5027560Y5389760D01*
G01X5074800Y5381890D02*
G01X5066930Y5389760D01*
G54D11*
G01X5050000Y5379130D02*
G01X5047240Y5381890D01*
G01X5063780Y5377170D02*
G01X5059060Y5381890D01*
G01X5074800Y5381890D02*
G01X5027560Y5381890D01*
G01X5077560Y5379130D02*
G01X5074800Y5381890D01*
G01X5325590Y5263780D02*
G01X5325590Y5353150D01*
G01X5325590Y5338580D02*
G01X5325590Y5345280D01*
G01X5311810Y5263780D02*
G01X5311810Y5357090D01*
G01X5339370Y5263780D02*
G01X5339370Y5340550D01*
G01X5325590Y5317720D02*
G01X5339370Y5317720D01*
G01X5325590Y5287400D02*
G01X5339370Y5287400D01*
G01X5298030Y5287400D02*
G01X5311810Y5287400D01*
G01X5298030Y5317720D02*
G01X5311810Y5317720D01*
G01X5270470Y5317720D02*
G01X5284250Y5317720D01*
G01X5242910Y5317720D02*
G01X5256690Y5317720D01*
G01X5270470Y5345280D02*
G01X5291340Y5366140D01*
G01X5267720Y5362200D02*
G01X5275590Y5370080D01*
G01X5263780Y5362200D02*
G01X5267720Y5362200D01*
G01X5259840Y5358270D02*
G01X5263780Y5362200D01*
G01X5244090Y5358270D02*
G01X5259840Y5358270D01*
G01X5256690Y5355120D02*
G01X5271650Y5370080D01*
G01X5242910Y5357090D02*
G01X5244090Y5358270D01*
G01X5275590Y5393700D02*
G01X5273620Y5395670D01*
G01X5275590Y5375980D02*
G01X5275590Y5393700D01*
G01X5273620Y5374020D02*
G01X5275590Y5375980D01*
G01X5275590Y5370080D02*
G01X5275590Y5374020D01*
G01X5271650Y5370080D02*
G01X5271650Y5401570D01*
G01X5244090Y5385830D02*
G01X5244090Y5401570D01*
G01X5251970Y5377950D02*
G01X5244090Y5385830D01*
G01X5229130Y5396850D02*
G01X5229130Y5288190D01*
G01X5187800Y5390940D02*
G01X5187800Y5263780D01*
G01X5201570Y5385040D02*
G01X5188980Y5397640D01*
G01X5174020Y5263780D02*
G01X5174020Y5390550D01*
G01X5325590Y5340550D02*
G01X5325590Y5357090D01*
G01X5339370Y5338580D02*
G01X5339370Y5355120D01*
G01X5298030Y5338580D02*
G01X5298030Y5349210D01*
G01X5284250Y5338580D02*
G01X5284250Y5355120D01*
G01X5270470Y5339760D02*
G01X5270470Y5345280D01*
G01X5242910Y5338580D02*
G01X5242910Y5357090D01*
G01X5270470Y5287400D02*
G01X5284250Y5287400D01*
G01X5298030Y5263780D02*
G01X5298030Y5340550D01*
G01X5284250Y5263780D02*
G01X5284250Y5340550D01*
G01X5270470Y5263780D02*
G01X5270470Y5340550D01*
G01X5242910Y5287400D02*
G01X5256690Y5287400D01*
G01X5256690Y5263780D02*
G01X5256690Y5355120D01*
G01X5242910Y5263780D02*
G01X5242910Y5340550D01*
G01X5338580Y5370080D02*
G01X5334650Y5366140D01*
G01X5330710Y5370080D02*
G01X5338580Y5370080D01*
G01X5330710Y5362200D02*
G01X5330710Y5370080D01*
G01X5325590Y5357090D02*
G01X5330710Y5362200D01*
G01X5325590Y5353150D02*
G01X5338580Y5366140D01*
G01X5346460Y5358270D02*
G01X5342520Y5358270D01*
G01X5344490Y5360240D02*
G01X5346460Y5358270D01*
G01X5339370Y5355120D02*
G01X5346460Y5362200D01*
G54D21*
G01X5358270Y5377950D02*
G01X5346460Y5366140D01*
G01X5362200Y5377950D02*
G01X5358270Y5377950D01*
G54D16*
G01X5362200Y5397640D02*
G01X5362200Y5377950D01*
G01X5330710Y5397640D02*
G01X5330710Y5393700D01*
G54D11*
G01X5330710Y5389760D02*
G01X5330710Y5397640D01*
G01X5318900Y5377950D02*
G01X5330710Y5389760D01*
G01X5316930Y5377950D02*
G01X5318900Y5377950D01*
G01X5316930Y5383860D02*
G01X5316930Y5368110D01*
G01X5330710Y5397640D02*
G01X5312990Y5379920D01*
G54D20*
G01X5271650Y5401570D02*
G01X5275590Y5397640D01*
G54D16*
G01X5267720Y5421260D02*
G01X5267720Y5405510D01*
G01X5275590Y5429130D02*
G01X5267720Y5421260D01*
G01X5409450Y5429130D02*
G01X5275590Y5429130D01*
G54D11*
G01X5232280Y5413390D02*
G01X5244090Y5401570D01*
G01X5232280Y5421260D02*
G01X5232280Y5413390D01*
G01X5263780Y5452760D02*
G01X5232280Y5421260D01*
G01X5263780Y5452760D02*
G01X5251970Y5440940D01*
G54D16*
G01X5208660Y5429130D02*
G01X5236220Y5456690D01*
G01X5188980Y5429130D02*
G01X5208660Y5429130D01*
G01X5181100Y5421260D02*
G01X5188980Y5429130D01*
G54D11*
G01X5208660Y5417320D02*
G01X5181100Y5417320D01*
G01X5200790Y5405510D02*
G01X5192910Y5405510D01*
G54D16*
G01X5181100Y5401570D02*
G01X5181100Y5421260D01*
G54D11*
G01X5185040Y5393700D02*
G01X5177170Y5393700D01*
G01X5187800Y5390940D02*
G01X5185040Y5393700D01*
G01X5174020Y5390550D02*
G01X5177170Y5393700D01*
G01X5229130Y5396850D02*
G01X5208660Y5417320D01*
G01X5316930Y5368110D02*
G01X5311020Y5362200D01*
G01X5309060Y5364170D02*
G01X5311020Y5366140D01*
G01X5309060Y5360240D02*
G01X5309060Y5364170D01*
G01X5312990Y5379920D02*
G01X5312990Y5358270D01*
G01X5311810Y5357090D02*
G01X5312990Y5358270D01*
G01X5299210Y5374020D02*
G01X5295280Y5370080D01*
G01X5299210Y5397640D02*
G01X5299210Y5374020D01*
G01X5295280Y5366140D02*
G01X5295280Y5393700D01*
G01X5299210Y5397640D02*
G01X5295280Y5393700D01*
G01X5291340Y5366140D02*
G01X5291340Y5389760D01*
G01X5299210Y5397640D02*
G01X5291340Y5389760D01*
G01X5298030Y5349210D02*
G01X5309060Y5360240D01*
G01X5284250Y5355120D02*
G01X5295280Y5366140D01*
G01X5201570Y5385040D02*
G01X5201570Y5338580D01*
G01X5201570Y5340550D02*
G01X5201570Y5322050D01*
G01X5215350Y5390940D02*
G01X5215350Y5320080D01*
G01X5215350Y5390940D02*
G01X5200790Y5405510D01*
G54D20*
G01X5153540Y5232280D02*
G01X5153540Y5224410D01*
G54D11*
G01X5146460Y5235430D02*
G01X5149610Y5232280D01*
G01X5132680Y5247680D02*
G01X5110000Y5225000D01*
G01X5149610Y5232280D02*
G01X5157480Y5232280D01*
G01X5160240Y5235040D02*
G01X5157480Y5232280D01*
G01X5146460Y5394490D02*
G01X5146460Y5235430D01*
G01X5160240Y5394880D02*
G01X5160240Y5235040D01*
G01X5157480Y5397640D02*
G01X5149610Y5397640D01*
G01X5160240Y5394880D02*
G01X5157480Y5397640D01*
G01X5132680Y5398820D02*
G01X5132680Y5247680D01*
G54D20*
G01X5151570Y5399610D02*
G01X5151570Y5411420D01*
G54D11*
G01X5146460Y5394490D02*
G01X5149610Y5397640D01*
G54D16*
G01X5090550Y5409450D02*
G01X5086100Y5413900D01*
G54D11*
G01X5091340Y5400790D02*
G01X5090550Y5401570D01*
G54D20*
G01X5122050Y5409450D02*
G01X5090550Y5409450D01*
G01X5129920Y5401570D02*
G01X5122050Y5409450D01*
G54D11*
G01X5129920Y5401570D02*
G01X5090550Y5401570D01*
G01X5105120Y5398820D02*
G01X5102360Y5401570D01*
G01X5118900Y5396850D02*
G01X5114170Y5401570D01*
G01X5077560Y5263780D02*
G01X5077560Y5379130D01*
G01X5063780Y5377170D02*
G01X5063780Y5233780D01*
G01X5050000Y5379130D02*
G01X5050000Y5230000D01*
G01X5036220Y5381100D02*
G01X5036220Y5243780D01*
G01X5091340Y5243660D02*
G01X5110000Y5225000D01*
G01X5105120Y5229880D02*
G01X5110000Y5225000D01*
G01X5091340Y5400790D02*
G01X5091340Y5243660D01*
G01X5105120Y5398820D02*
G01X5105120Y5229880D01*
G01X5118900Y5396850D02*
G01X5118900Y5233900D01*
G01X5118900Y5233900D02*
G01X5110000Y5225000D01*
G54D16*
G01X4464570Y4679290D02*
G01X4490710Y4679290D01*
G54D11*
G01X4464570Y4759610D02*
G01X4464960Y4760000D01*
G01X4450710Y4665000D02*
G01X4465000Y4679290D01*
G01X4450000Y4720000D02*
G01X4534880Y4720000D01*
G01X4464960Y4760000D02*
G01X4550000Y4760000D01*
G01X4550000Y4760000D02*
G01X4580000Y4730000D01*
G01X4580000Y4730000D02*
G01X4580000Y4680000D01*
G54D16*
G01X4605000Y4740000D02*
G01X4605000Y4695000D01*
G54D11*
G01X4534880Y4720000D02*
G01X4535430Y4719450D01*
G01X4420000Y4665000D02*
G01X4450710Y4665000D01*
G01X4420000Y4678000D02*
G01X4420000Y4690000D01*
G01X4450000Y4720000D02*
G01X4420000Y4690000D01*
G54D16*
G01X4490710Y4679290D02*
G01X4580000Y4590000D01*
G01X4535430Y4684570D02*
G01X4615000Y4605000D01*
G01X4580000Y4590000D02*
G01X4580000Y4555000D01*
G01X4615000Y4605000D02*
G01X4615000Y4555000D01*
G54D11*
G01X4714060Y4555000D02*
G01X4615000Y4555000D01*
G01X4580000Y4680000D02*
G01X4625000Y4635000D01*
G01X4625000Y4635000D02*
G01X4665000Y4635000D01*
G01X4665000Y4635000D02*
G01X4680000Y4650000D01*
G01X4680000Y4650000D02*
G01X4680000Y4680000D01*
G54D16*
G01X4605000Y4695000D02*
G01X4635000Y4665000D01*
G01X4635000Y4665000D02*
G01X4650000Y4665000D01*
G54D11*
G01X4724800Y4644650D02*
G01X4725430Y4645270D01*
G01X4724800Y4544250D02*
G01X4714060Y4555000D01*
G01X4725430Y4645270D02*
G01X4725430Y4729570D01*
G01X4640000Y4780000D02*
G01X4715000Y4780000D01*
G54D16*
G01X4535430Y4719450D02*
G01X4535430Y4684570D01*
G01X4535430Y4799760D02*
G01X4535670Y4800000D01*
G01X4535330Y4799670D02*
G01X4545330Y4799670D01*
G01X4545330Y4799670D02*
G01X4605000Y4740000D01*
G54D11*
G01X4535670Y4800000D02*
G01X4450000Y4800000D01*
G01X4450000Y4800000D02*
G01X4425000Y4775000D01*
G01X4425000Y4775000D02*
G01X4425000Y4733500D01*
G01X4420000Y4790000D02*
G01X4440000Y4790000D01*
G01X4422000Y4762000D02*
G01X4425000Y4765000D01*
G54D16*
G01X4464570Y4920240D02*
G01X4464800Y4920000D01*
G01X4464800Y4920000D02*
G01X4515000Y4920000D01*
G01X4535430Y4880080D02*
G01X4535510Y4880000D01*
G54D11*
G01X4464570Y4839920D02*
G01X4580080Y4839920D01*
G54D16*
G01X4535430Y4880080D02*
G01X4550510Y4865000D01*
G54D11*
G01X4464570Y4839920D02*
G01X4464650Y4840000D01*
G54D16*
G01X4465000Y4920000D02*
G01X4465000Y4910000D01*
G01X4465000Y4910000D02*
G01X4415000Y4860000D01*
G54D11*
G01X4535430Y4960390D02*
G01X4455390Y4960390D01*
G01X4455390Y4960390D02*
G01X4410000Y4915000D01*
G01X4410000Y4915000D02*
G01X4390000Y4915000D01*
G54D16*
G01X4550510Y4865000D02*
G01X4590000Y4865000D01*
G01X4560000Y4920000D02*
G01X4582500Y4897500D01*
G01X4582500Y4897500D02*
G01X4602500Y4897500D01*
G54D11*
G01X4580000Y4810000D02*
G01X4580000Y4800000D01*
G54D16*
G01X4690000Y4810000D02*
G01X4770000Y4810000D01*
G01X4700000Y4845000D02*
G01X4780000Y4845000D01*
G01X4780000Y4845000D02*
G01X4805000Y4820000D01*
G54D11*
G01X4580000Y4800000D02*
G01X4650430Y4729570D01*
G01X4650430Y4729570D02*
G01X4654570Y4729570D01*
G01X4580080Y4839920D02*
G01X4640000Y4780000D01*
G54D16*
G01X4590000Y4865000D02*
G01X4650000Y4805000D01*
G01X4602500Y4897500D02*
G01X4690000Y4810000D01*
G54D11*
G01X4420000Y4715000D02*
G01X4445000Y4715000D01*
G01X4425000Y4733500D02*
G01X4419500Y4728000D01*
G01X4325000Y4775000D02*
G01X4330000Y4780000D01*
G01X4330000Y4780000D02*
G01X4330000Y4840000D01*
G01X4325500Y4762000D02*
G01X4422000Y4762000D01*
G01X4409500Y4813000D02*
G01X4438160Y4813000D01*
G01X4438160Y4813000D02*
G01X4465080Y4839920D01*
G01X4410000Y4800000D02*
G01X4420000Y4790000D01*
G54D16*
G01X4615000Y4930000D02*
G01X4700000Y4845000D01*
G54D11*
G01X4715000Y4875000D02*
G01X4705000Y4875000D01*
G01X4705000Y4875000D02*
G01X4650000Y4930000D01*
G54D20*
G01X4815000Y4855000D02*
G01X4820000Y4850000D01*
G01X4820000Y4850000D02*
G01X4830000Y4850000D01*
G54D11*
G01X4650000Y4930000D02*
G01X4650000Y4940000D01*
G01X4695000Y4935000D02*
G01X4735000Y4935000D01*
G54D16*
G01X4724800Y4984800D02*
G01X4705000Y4965000D01*
G01X4705000Y4965000D02*
G01X4680000Y4965000D01*
G54D20*
G01X4710000Y4955000D02*
G01X4710000Y4980240D01*
G01X4710000Y4980240D02*
G01X4724800Y4995040D01*
G54D16*
G01X4680000Y4965000D02*
G01X4655000Y4940000D01*
G54D20*
G01X4627500Y4962500D02*
G01X4617500Y4962500D01*
G01X4615000Y4960000D02*
G01X4627500Y4960000D01*
G01X4627500Y4960000D02*
G01X4630000Y4962500D01*
G01X4615000Y4965000D02*
G01X4607500Y4972500D01*
G54D16*
G01X4655000Y4940000D02*
G01X4650000Y4940000D01*
G01X4555000Y4920000D02*
G01X4560000Y4920000D01*
G54D17*
G01X4550000Y4920000D02*
G01X4520000Y4920000D01*
G54D16*
G01X4535430Y4960390D02*
G01X4535830Y4960000D01*
G01X4535430Y4960390D02*
G01X4564610Y4960390D01*
G01X4575000Y5005000D02*
G01X4615000Y4965000D01*
G01X4564610Y4960390D02*
G01X4595000Y4930000D01*
G01X4595000Y4930000D02*
G01X4615000Y4930000D01*
G54D20*
G01X4617500Y4962500D02*
G01X4615000Y4960000D01*
G01X4615000Y4960000D02*
G01X4615000Y4965000D01*
G01X4321380Y4955000D02*
G01X4321380Y4990000D01*
G54D23*
G01X4275000Y4960000D02*
G01X4275000Y5085000D01*
G01X4275000Y5085000D02*
G01X4335000Y5145000D01*
G01X4342520Y5322830D02*
G01X4342520Y5152520D01*
G01X4342520Y5152520D02*
G01X4337500Y5147500D01*
G54D16*
G01X4300000Y4990000D02*
G01X4310000Y4990000D01*
G54D20*
G01X4345000Y4990000D02*
G01X4321380Y4990000D01*
G54D16*
G01X4310000Y4955000D02*
G01X4300000Y4955000D01*
G54D20*
G01X4360000Y4955000D02*
G01X4345000Y4955000D01*
G54D16*
G01X4415000Y4860000D02*
G01X4265000Y4860000D01*
G01X4265000Y4860000D02*
G01X4230000Y4895000D01*
G01X4230000Y4895000D02*
G01X4230000Y4915000D01*
G54D20*
G01X4230000Y4915000D02*
G01X4230000Y4935000D01*
G54D11*
G01X4330000Y4840000D02*
G01X4350000Y4860000D01*
G54D16*
G01X4405000Y4990000D02*
G01X4360000Y4990000D01*
G01X4575000Y5005000D02*
G01X4465000Y5005000D01*
G01X4465000Y5005000D02*
G01X4425000Y4965000D01*
G01X4427500Y4967500D02*
G01X4415000Y4955000D01*
G01X4415000Y4955000D02*
G01X4360000Y4955000D01*
G01X4464570Y4029290D02*
G01X4510710Y4029290D01*
G01X4464570Y4109610D02*
G01X4514610Y4109610D01*
G01X4514610Y4109610D02*
G01X4515000Y4110000D01*
G01X4510710Y4029290D02*
G01X4515000Y4025000D01*
G01X4515000Y4025000D02*
G01X4575000Y4025000D01*
G01X4575000Y4025000D02*
G01X4580000Y4030000D01*
G01X4535430Y4069450D02*
G01X4585550Y4069450D01*
G01X4615000Y4030000D02*
G01X4615000Y4040000D01*
G01X4585550Y4069450D02*
G01X4615000Y4040000D01*
G54D11*
G01X4640000Y4005000D02*
G01X4615000Y4030000D01*
G01X4420000Y4120000D02*
G01X4420000Y4010000D01*
G01X4400000Y4000000D02*
G01X4400000Y4105000D01*
G01X4400000Y4105000D02*
G01X4390000Y4115000D01*
G01X4390000Y4115000D02*
G01X4350000Y4115000D01*
G01X4350000Y4115000D02*
G01X4340000Y4125000D01*
G01X4530000Y3975000D02*
G01X4455000Y3975000D01*
G01X4540000Y3990000D02*
G01X4495000Y3990000D01*
G01X4495000Y3990000D02*
G01X4490000Y3995000D01*
G01X4420000Y4010000D02*
G01X4455000Y3975000D01*
G01X4425000Y3975000D02*
G01X4400000Y4000000D01*
G54D20*
G01X4515000Y4110000D02*
G01X4560000Y4110000D01*
G54D16*
G01X4560000Y4110000D02*
G01X4590000Y4110000D01*
G01X4590000Y4110000D02*
G01X4650000Y4050000D01*
G01X4514920Y4189920D02*
G01X4515000Y4190000D01*
G54D20*
G01X4515000Y4190000D02*
G01X4560000Y4190000D01*
G54D16*
G01X4560000Y4190000D02*
G01X4610000Y4190000D01*
G01X4535430Y4149760D02*
G01X4595240Y4149760D01*
G01X4650000Y4050000D02*
G01X4650000Y4030000D01*
G01X4595240Y4149760D02*
G01X4700000Y4045000D01*
G01X4700000Y4045000D02*
G01X4720000Y4045000D01*
G01X4755000Y4045000D02*
G01X4755000Y4060000D01*
G01X4755000Y4060000D02*
G01X4737500Y4077500D01*
G01X4737500Y4077500D02*
G01X4722500Y4077500D01*
G01X4722500Y4077500D02*
G01X4610000Y4190000D01*
G01X4614920Y4230080D02*
G01X4720000Y4125000D01*
G01X4464570Y4189920D02*
G01X4514920Y4189920D01*
G54D11*
G01X4435080Y4160000D02*
G01X4465000Y4189920D01*
G01X4530670Y4145000D02*
G01X4535430Y4149760D01*
G01X4434000Y4147000D02*
G01X4532240Y4147000D01*
G01X4532240Y4147000D02*
G01X4535000Y4149760D01*
G01X4434000Y4160000D02*
G01X4435080Y4160000D01*
G01X4435000Y4147000D02*
G01X4435000Y4135000D01*
G01X4435000Y4135000D02*
G01X4420000Y4120000D01*
G01X4340000Y4125000D02*
G01X4340000Y4335000D01*
G01X4340000Y4335000D02*
G01X4360000Y4355000D01*
G01X4360000Y4355000D02*
G01X4550000Y4355000D01*
G54D16*
G01X4535430Y4230080D02*
G01X4614920Y4230080D01*
G01X4685000Y4232500D02*
G01X4682500Y4232500D01*
G54D11*
G01X4435000Y4305000D02*
G01X4450000Y4305000D01*
G01X4450000Y4305000D02*
G01X4464570Y4290430D01*
G01X4464570Y4290430D02*
G01X4464570Y4270240D01*
G01X4435000Y4318000D02*
G01X4527830Y4318000D01*
G01X4527830Y4318000D02*
G01X4535430Y4310390D01*
G54D16*
G01X4580000Y4320000D02*
G01X4580000Y4310000D01*
G01X4705000Y4300000D02*
G01X4680000Y4325000D01*
G01X4680000Y4325000D02*
G01X4680000Y4355000D01*
G01X4695000Y4265000D02*
G01X4645000Y4315000D01*
G01X4682500Y4232500D02*
G01X4650000Y4265000D01*
G54D11*
G01X4739840Y4330000D02*
G01X4724800Y4345040D01*
G54D16*
G01X4680000Y4355000D02*
G01X4670000Y4365000D01*
G01X4670000Y4365000D02*
G01X4625000Y4365000D01*
G01X4580000Y4320000D02*
G01X4625000Y4365000D01*
G01X4645000Y4315000D02*
G01X4620000Y4315000D01*
G01X4620000Y4315000D02*
G01X4615000Y4310000D01*
G54D11*
G01X4550000Y4355000D02*
G01X4595000Y4400000D01*
G01X4595000Y4400000D02*
G01X4695000Y4400000D01*
G01X4724800Y4445430D02*
G01X4724800Y4429800D01*
G01X4724800Y4429800D02*
G01X4695000Y4400000D01*
G54D16*
G01X4705000Y4300000D02*
G01X4895000Y4300000D01*
G54D11*
G01X4790000Y4330000D02*
G01X4739840Y4330000D01*
G54D16*
G01X4895000Y4300000D02*
G01X4905000Y4310000D01*
G01X4682500Y4232500D02*
G01X4922500Y4232500D01*
G01X4922500Y4232500D02*
G01X4930000Y4240000D01*
G01X4720000Y4200000D02*
G01X4935000Y4200000D01*
G01X4935000Y4200000D02*
G01X4940000Y4205000D01*
G01X4755000Y4160000D02*
G01X4940000Y4160000D01*
G01X4940000Y4160000D02*
G01X4950000Y4170000D01*
G01X4950000Y4125000D02*
G01X4960000Y4135000D01*
G01X4950000Y4125000D02*
G01X4720000Y4125000D01*
G54D11*
G01X4665000Y3905000D02*
G01X4714060Y3905000D01*
G01X4714060Y3905000D02*
G01X4724800Y3894250D01*
G01X4665000Y3905000D02*
G01X4665000Y3945000D01*
G01X4665000Y3945000D02*
G01X4655000Y3955000D01*
G01X4594140Y3905000D02*
G01X4594140Y3910860D01*
G01X4594140Y3910860D02*
G01X4530000Y3975000D01*
G01X4655000Y3955000D02*
G01X4575000Y3955000D01*
G01X4575000Y3955000D02*
G01X4540000Y3990000D01*
G01X4724800Y3994650D02*
G01X4670350Y3994650D01*
G01X4670350Y3994650D02*
G01X4660000Y4005000D01*
G01X4660000Y4005000D02*
G01X4640000Y4005000D01*
G54D20*
G01X4690000Y5034000D02*
G01X4760000Y5034000D01*
G01X4840000Y5055000D02*
G01X4910000Y5055000D01*
G54D16*
G01X4760000Y5025000D02*
G01X4840000Y5025000D01*
G01X4840000Y5065000D02*
G01X4760000Y5065000D01*
G54D20*
G01X4840000Y5035000D02*
G01X4930000Y5035000D01*
G01X4710000Y4955000D02*
G01X4740000Y4955000D01*
G01X4740000Y4955000D02*
G01X4745000Y4960000D01*
G54D16*
G01X4750000Y4955000D02*
G01X4785000Y4990000D01*
G54D11*
G01X4760000Y4930000D02*
G01X4795000Y4965000D01*
G01X4795000Y4965000D02*
G01X4805000Y4965000D01*
G01X4795000Y4940000D02*
G01X4805000Y4940000D01*
G54D16*
G01X4785000Y4990000D02*
G01X4825000Y4990000D01*
G01X4724800Y4995040D02*
G01X4724800Y4984800D01*
G01X4855000Y4950000D02*
G01X4825000Y4980000D01*
G01X4855000Y4950000D02*
G01X4895000Y4950000D01*
G54D11*
G01X4805000Y4965000D02*
G01X4845000Y4925000D01*
G54D16*
G01X4895000Y4950000D02*
G01X4920000Y4975000D01*
G01X4920000Y4975000D02*
G01X4920000Y5000000D01*
G01X4920000Y5000000D02*
G01X4925000Y5005000D01*
G01X4925000Y5005000D02*
G01X4950000Y5005000D01*
G54D11*
G01X4845000Y4925000D02*
G01X4905000Y4925000D01*
G01X4905000Y4925000D02*
G01X4955000Y4975000D01*
G01X4910000Y4910000D02*
G01X4955000Y4955000D01*
G54D16*
G01X4920000Y4885000D02*
G01X4945000Y4910000D01*
G54D11*
G01X4805000Y4940000D02*
G01X4835000Y4910000D01*
G01X4835000Y4910000D02*
G01X4910000Y4910000D01*
G54D16*
G01X4820000Y4885000D02*
G01X4920000Y4885000D01*
G01X4940000Y4850000D02*
G01X4835000Y4850000D01*
G54D11*
G01X4735000Y4935000D02*
G01X4740000Y4930000D01*
G01X4740000Y4930000D02*
G01X4760000Y4930000D01*
G01X4725000Y4915000D02*
G01X4770000Y4915000D01*
G01X4770000Y4915000D02*
G01X4795000Y4940000D01*
G54D20*
G01X4770000Y4895000D02*
G01X4780000Y4895000D01*
G54D16*
G01X4790000Y4900000D02*
G01X4795000Y4905000D01*
G01X4795000Y4905000D02*
G01X4800000Y4905000D01*
G01X4800000Y4905000D02*
G01X4820000Y4885000D01*
G01X4825000Y4980000D02*
G01X4825000Y4990000D01*
G01X4612830Y5322830D02*
G01X4625980Y5322830D01*
G01X4690000Y5025000D02*
G01X4627500Y4962500D01*
G54D20*
G01X4650000Y5025000D02*
G01X4645000Y5025000D01*
G54D16*
G01X4620000Y5005000D02*
G01X4665000Y5050000D01*
G54D20*
G01X4680000Y5055000D02*
G01X4650000Y5025000D01*
G01X4650000Y5045000D02*
G01X4660000Y5055000D01*
G01X4760000Y5055000D02*
G01X4660000Y5055000D01*
G54D11*
G01X4660860Y5100000D02*
G01X4720240Y5100000D01*
G01X4720240Y5100000D02*
G01X4724800Y5095430D01*
G54D16*
G01X4995000Y5080000D02*
G01X4930000Y5080000D01*
G01X4930000Y5080000D02*
G01X4915000Y5065000D01*
G01X4935000Y5040000D02*
G01X4940000Y5045000D01*
G01X4940000Y5045000D02*
G01X4985000Y5045000D01*
G01X5017500Y5057500D02*
G01X4995000Y5080000D01*
G01X5020000Y5055000D02*
G01X5070000Y5005000D01*
G01X4985000Y5045000D02*
G01X5064570Y4965430D01*
G01X5135430Y4979570D02*
G01X5135430Y4960390D01*
G01X5110000Y5005000D02*
G01X5135430Y4979570D01*
G01X5070000Y5005000D02*
G01X5110000Y5005000D01*
G01X5064570Y4965430D02*
G01X5064570Y4920240D01*
G54D11*
G01X5025000Y4955000D02*
G01X5025000Y4895000D01*
G54D16*
G01X5064570Y4919570D02*
G01X5065000Y4920000D01*
G54D11*
G01X4955000Y4975000D02*
G01X5005000Y4975000D01*
G01X5005000Y4975000D02*
G01X5025000Y4955000D01*
G01X5010000Y4825000D02*
G01X5010000Y4950000D01*
G01X5010000Y4950000D02*
G01X5005000Y4955000D01*
G01X5005000Y4955000D02*
G01X4955000Y4955000D01*
G54D16*
G01X4975000Y4910000D02*
G01X4985000Y4900000D01*
G01X4945000Y4910000D02*
G01X4975000Y4910000D01*
G54D11*
G01X5135430Y4880080D02*
G01X5135430Y4854570D01*
G01X5025000Y4895000D02*
G01X5035000Y4885000D01*
G01X5035000Y4885000D02*
G01X5130000Y4885000D01*
G01X5130000Y4885000D02*
G01X5135000Y4880000D01*
G54D16*
G01X5065000Y4920000D02*
G01X5115000Y4920000D01*
G54D20*
G01X5115000Y4920000D02*
G01X5160000Y4920000D01*
G54D16*
G01X5180000Y4900000D02*
G01X5165000Y4915000D01*
G01X4985000Y4900000D02*
G01X4985000Y4755000D01*
G01X4950000Y4745000D02*
G01X4950000Y4840000D01*
G01X4950000Y4840000D02*
G01X4940000Y4850000D01*
G01X5135430Y4960000D02*
G01X5170000Y4960000D01*
G01X5170000Y4960000D02*
G01X5175000Y4955000D01*
G54D20*
G01X5185000Y4940000D02*
G01X5185000Y4945000D01*
G01X5175000Y4955000D02*
G01X5185000Y4945000D01*
G54D16*
G01X5180000Y4900000D02*
G01X5180000Y4845000D01*
G54D11*
G01X5229130Y5318900D02*
G01X5204720Y5318900D01*
G01X5339370Y5303150D02*
G01X5325590Y5303150D01*
G01X5298030Y5303150D02*
G01X5311810Y5303150D01*
G01X5270470Y5303150D02*
G01X5284250Y5303150D01*
G01X5242910Y5303150D02*
G01X5256690Y5303150D01*
G01X5201570Y5322050D02*
G01X5204720Y5318900D01*
G01X5215350Y5320080D02*
G01X5216540Y5318900D01*
G01X5212600Y5295280D02*
G01X5208660Y5299210D01*
G01X5201570Y5284250D02*
G01X5212600Y5295280D01*
G01X5201570Y5263780D02*
G01X5201570Y5284250D01*
G01X5215350Y5278350D02*
G01X5220470Y5283460D01*
G01X5215350Y5263780D02*
G01X5215350Y5278350D01*
G01X5224410Y5283460D02*
G01X5229130Y5288190D01*
G01X5224410Y5283460D02*
G01X5220470Y5283460D01*
G01X5146460Y5303150D02*
G01X5160240Y5303150D01*
G01X5091340Y5303150D02*
G01X5132680Y5303150D01*
G01X5077560Y5303150D02*
G01X5036220Y5303150D01*
G01X5077560Y5265000D02*
G01X5077560Y5247560D01*
G01X5077560Y5247560D02*
G01X5055000Y5225000D01*
G01X5063780Y5233780D02*
G01X5055000Y5225000D01*
G01X5050000Y5230000D02*
G01X5055000Y5225000D01*
G01X5036220Y5243780D02*
G01X5055000Y5225000D01*
G54D20*
G01X5040000Y4720000D02*
G01X5085000Y4720000D01*
G54D16*
G01X5085000Y4720000D02*
G01X5085550Y4719450D01*
G01X5064960Y4760000D02*
G01X5115000Y4760000D01*
G01X5135430Y4719450D02*
G01X5085550Y4719450D01*
G54D11*
G01X5135430Y4799760D02*
G01X5135200Y4800000D01*
G01X5135200Y4800000D02*
G01X5035000Y4800000D01*
G01X5035000Y4800000D02*
G01X5010000Y4825000D01*
G54D16*
G01X4985000Y4755000D02*
G01X5020000Y4720000D01*
G01X5010000Y4685000D02*
G01X4950000Y4745000D01*
G01X5020000Y4720000D02*
G01X5040000Y4720000D01*
G01X5010000Y4685000D02*
G01X5058860Y4685000D01*
G01X5058860Y4685000D02*
G01X5098860Y4645000D01*
G54D11*
G01X5135430Y4799760D02*
G01X5170240Y4799760D01*
G01X5135430Y4854570D02*
G01X5225000Y4765000D01*
G01X5169760Y4799760D02*
G01X5219530Y4750000D01*
G54D16*
G01X5215000Y4810000D02*
G01X5180000Y4845000D01*
G54D20*
G01X5115000Y4760000D02*
G01X5155000Y4760000D01*
G54D16*
G01X5155000Y4760000D02*
G01X5175000Y4760000D01*
G01X5135430Y4719450D02*
G01X5174880Y4680000D01*
G54D11*
G01X5225000Y4765000D02*
G01X5280000Y4765000D01*
G01X5219530Y4750000D02*
G01X5260000Y4750000D01*
G01X5260000Y4750000D02*
G01X5265000Y4745000D01*
G01X5265000Y4745000D02*
G01X5305000Y4745000D01*
G01X5305000Y4745000D02*
G01X5310000Y4740000D01*
G54D16*
G01X5250000Y4725000D02*
G01X5210000Y4725000D01*
G01X5210000Y4725000D02*
G01X5175000Y4760000D01*
G01X5098860Y4645000D02*
G01X5375000Y4645000D01*
G01X5174880Y4680000D02*
G01X5340000Y4680000D01*
G01X5040000Y4310000D02*
G01X4905000Y4310000D01*
G01X5035000Y4275000D02*
G01X4920000Y4275000D01*
G01X4920000Y4275000D02*
G01X4910000Y4265000D01*
G01X4910000Y4265000D02*
G01X4695000Y4265000D01*
G01X5035000Y4230000D02*
G01X5025000Y4240000D01*
G01X5025000Y4240000D02*
G01X4930000Y4240000D01*
G01X5015000Y4205000D02*
G01X5027500Y4192500D01*
G01X5027500Y4192500D02*
G01X5061990Y4192500D01*
G01X4940000Y4205000D02*
G01X5015000Y4205000D01*
G01X4950000Y4170000D02*
G01X5000000Y4170000D01*
G01X5000000Y4170000D02*
G01X5010000Y4160000D01*
G01X5010000Y4160000D02*
G01X5030000Y4160000D01*
G01X4960000Y4135000D02*
G01X4985000Y4135000D01*
G01X5135040Y4310000D02*
G01X5135430Y4310390D01*
G01X5135430Y4310390D02*
G01X5084610Y4310390D01*
G01X5084610Y4310390D02*
G01X5080000Y4315000D01*
G01X5080000Y4315000D02*
G01X5045000Y4315000D01*
G01X5180000Y4310000D02*
G01X5135830Y4310000D01*
G01X5135830Y4310000D02*
G01X5135430Y4310390D01*
G01X5155000Y4355000D02*
G01X5115000Y4355000D01*
G01X5235040Y4421810D02*
G01X5107870Y4421810D01*
G01X5107870Y4421810D02*
G01X5100000Y4429690D01*
G01X5085000Y4150000D02*
G01X5135200Y4150000D01*
G01X5030000Y4160000D02*
G01X5040000Y4150000D01*
G54D20*
G01X5040000Y4150000D02*
G01X5085000Y4150000D01*
G54D16*
G01X5115000Y4190000D02*
G01X5064650Y4190000D01*
G01X5064650Y4190000D02*
G01X5064570Y4189920D01*
G01X5085080Y4230080D02*
G01X5160080Y4230080D01*
G01X5045000Y4315000D02*
G01X5040000Y4310000D01*
G01X5064570Y4270240D02*
G01X5039760Y4270240D01*
G01X5085080Y4230080D02*
G01X5085000Y4230000D01*
G54D20*
G01X5085000Y4230000D02*
G01X5045000Y4230000D01*
G54D16*
G01X5045000Y4230000D02*
G01X5035000Y4230000D01*
G01X5064800Y4270000D02*
G01X5064570Y4270240D01*
G01X5039760Y4270240D02*
G01X5035000Y4275000D01*
G01X5115000Y4270000D02*
G01X5064800Y4270000D01*
G54D20*
G01X5115000Y4270000D02*
G01X5155000Y4270000D01*
G54D16*
G01X5061990Y4192500D02*
G01X5064570Y4189920D01*
G01X5064570Y4109610D02*
G01X5064570Y4029290D01*
G01X4995000Y4125000D02*
G01X5010000Y4125000D01*
G01X5025390Y4109610D02*
G01X5010000Y4125000D01*
G01X5025000Y4110000D02*
G01X5025000Y4090000D01*
G01X5064570Y4109610D02*
G01X5025390Y4109610D01*
G01X5064570Y4109610D02*
G01X5064570Y4099570D01*
G01X5025000Y4090000D02*
G01X5045000Y4070000D01*
G01X5045000Y4070000D02*
G01X5075000Y4070000D01*
G01X5075000Y4070000D02*
G01X5095000Y4050000D01*
G01X5115000Y4025000D02*
G01X5095000Y4045000D01*
G01X5095000Y4050000D02*
G01X5095000Y4045000D01*
G01X5064570Y4029290D02*
G01X5110710Y4029290D01*
G01X5027500Y4107500D02*
G01X5012500Y4107500D01*
G01X4985000Y4135000D02*
G01X5012500Y4107500D01*
G01X5185000Y4270000D02*
G01X5215000Y4300000D01*
G01X5215000Y4300000D02*
G01X5215000Y4310000D01*
G01X5265000Y4345000D02*
G01X5165000Y4345000D01*
G01X5165000Y4345000D02*
G01X5155000Y4355000D01*
G01X5265000Y4345000D02*
G01X5285000Y4325000D01*
G54D22*
G01X5285000Y4310000D02*
G01X5285000Y4325000D01*
G54D16*
G01X5285000Y4325000D02*
G01X5285000Y4315000D01*
G01X5195000Y4235000D02*
G01X5250000Y4290000D01*
G01X5250000Y4310000D02*
G01X5250000Y4290000D01*
G01X5285000Y4280000D02*
G01X5207500Y4202500D01*
G01X5207500Y4202500D02*
G01X5182500Y4202500D01*
G01X5297500Y4247500D02*
G01X5220000Y4170000D01*
G01X5220000Y4170000D02*
G01X5195000Y4170000D01*
G01X5285000Y4280000D02*
G01X5305000Y4280000D01*
G01X5305000Y4280000D02*
G01X5320000Y4295000D01*
G01X5320000Y4295000D02*
G01X5320000Y4310000D01*
G01X5355000Y4310000D02*
G01X5355000Y4285000D01*
G01X5355000Y4285000D02*
G01X5317500Y4247500D01*
G01X5317500Y4247500D02*
G01X5297500Y4247500D01*
G01X5135200Y4150000D02*
G01X5135430Y4149760D01*
G01X5155000Y4270000D02*
G01X5185000Y4270000D01*
G01X5160080Y4230080D02*
G01X5165000Y4235000D01*
G01X5160000Y4190000D02*
G01X5170000Y4190000D01*
G01X5170000Y4190000D02*
G01X5180000Y4200000D01*
G01X5182500Y4202500D02*
G01X5170000Y4190000D01*
G01X5165000Y4235000D02*
G01X5195000Y4235000D01*
G54D20*
G01X5115000Y4190000D02*
G01X5165000Y4190000D01*
G54D16*
G01X5195000Y4170000D02*
G01X5180000Y4155000D01*
G01X5180000Y4155000D02*
G01X5140670Y4155000D01*
G01X5235040Y3917870D02*
G01X5107870Y3917870D01*
G01X5107870Y3917870D02*
G01X5100000Y3910000D01*
G01X5140670Y4155000D02*
G01X5135430Y4149760D01*
G01X4464570Y3379290D02*
G01X4510710Y3379290D01*
G01X4510710Y3379290D02*
G01X4515000Y3375000D01*
G01X4515000Y3375000D02*
G01X4575000Y3375000D01*
G01X4575000Y3375000D02*
G01X4580000Y3380000D01*
G01X4535430Y3419450D02*
G01X4539880Y3415000D01*
G01X4539880Y3415000D02*
G01X4590000Y3415000D01*
G54D11*
G01X4594140Y3365860D02*
G01X4580000Y3380000D01*
G54D16*
G01X4687500Y3617500D02*
G01X4762500Y3617500D01*
G54D11*
G01X4680000Y3585000D02*
G01X4650000Y3615000D01*
G54D16*
G01X4775000Y3560000D02*
G01X4680000Y3560000D01*
G54D22*
G01X4680000Y3560000D02*
G01X4675000Y3565000D01*
G54D11*
G01X4710000Y3535000D02*
G01X4705000Y3530000D01*
G01X4745000Y3520000D02*
G01X4740000Y3515000D01*
G01X4580000Y3505000D02*
G01X4630000Y3505000D01*
G01X4595000Y3520000D02*
G01X4645000Y3520000D01*
G01X4462330Y3618000D02*
G01X4464570Y3620240D01*
G01X4459650Y3535000D02*
G01X4464570Y3539920D01*
G54D16*
G01X4590000Y3415000D02*
G01X4615000Y3390000D01*
G54D11*
G01X4585000Y3455000D02*
G01X4645000Y3395000D01*
G01X4645000Y3395000D02*
G01X4645000Y3380000D01*
G54D16*
G01X4615000Y3390000D02*
G01X4615000Y3380000D01*
G54D11*
G01X4615000Y3380000D02*
G01X4615000Y3360000D01*
G01X4615000Y3360000D02*
G01X4620000Y3355000D01*
G54D16*
G01X4600000Y3480000D02*
G01X4675000Y3405000D01*
G01X4675000Y3405000D02*
G01X4675000Y3380000D01*
G54D11*
G01X4594140Y3305000D02*
G01X4594140Y3365860D01*
G01X4620000Y3355000D02*
G01X4685000Y3355000D01*
G01X4665000Y3305000D02*
G01X4685160Y3305000D01*
G01X4685160Y3305000D02*
G01X4724800Y3344650D01*
G01X4765000Y3330000D02*
G01X4724800Y3289800D01*
G01X4630000Y3505000D02*
G01X4700000Y3435000D01*
G01X4705000Y3435000D02*
G01X4700000Y3435000D01*
G01X4645000Y3520000D02*
G01X4705000Y3460000D01*
G01X4705000Y3460000D02*
G01X4715000Y3460000D01*
G01X4715000Y3460000D02*
G01X4740000Y3435000D01*
G01X4750000Y3385000D02*
G01X4765000Y3370000D01*
G01X4685000Y3355000D02*
G01X4715000Y3385000D01*
G01X4715000Y3385000D02*
G01X4750000Y3385000D01*
G01X4765000Y3370000D02*
G01X4765000Y3330000D01*
G01X4724800Y3244250D02*
G01X4724800Y3289800D01*
G54D16*
G01X4705000Y3650000D02*
G01X4745000Y3650000D01*
G01X4855000Y3650000D02*
G01X4845000Y3660000D01*
G01X4845000Y3660000D02*
G01X4755000Y3660000D01*
G01X4755000Y3660000D02*
G01X4745000Y3650000D01*
G01X4762500Y3617500D02*
G01X4770000Y3625000D01*
G54D11*
G01X4780000Y3600000D02*
G01X4765000Y3585000D01*
G01X4765000Y3585000D02*
G01X4680000Y3585000D01*
G54D16*
G01X4770000Y3625000D02*
G01X4830000Y3625000D01*
G01X4830000Y3625000D02*
G01X4840000Y3615000D01*
G01X4840000Y3615000D02*
G01X4915000Y3615000D01*
G54D11*
G01X4820000Y3600000D02*
G01X4780000Y3600000D01*
G54D16*
G01X4915000Y3615000D02*
G01X4925000Y3625000D01*
G54D11*
G01X4940000Y3600000D02*
G01X4925000Y3585000D01*
G01X4925000Y3585000D02*
G01X4835000Y3585000D01*
G01X4835000Y3585000D02*
G01X4820000Y3600000D01*
G54D16*
G01X4910390Y3660390D02*
G01X4900000Y3650000D01*
G01X4900000Y3650000D02*
G01X4855000Y3650000D01*
G01X4910390Y3660390D02*
G01X5040390Y3660390D01*
G01X4937500Y3562500D02*
G01X4822500Y3562500D01*
G54D11*
G01X4945000Y3535000D02*
G01X4710000Y3535000D01*
G01X5010000Y3520000D02*
G01X4745000Y3520000D01*
G54D16*
G01X4822500Y3562500D02*
G01X4810000Y3575000D01*
G01X4810000Y3575000D02*
G01X4790000Y3575000D01*
G01X4790000Y3575000D02*
G01X4775000Y3560000D01*
G01X4925000Y3625000D02*
G01X5059800Y3625000D01*
G54D11*
G01X5090000Y3585000D02*
G01X5045000Y3585000D01*
G01X5045000Y3585000D02*
G01X5030000Y3600000D01*
G54D16*
G01X5059800Y3625000D02*
G01X5064800Y3620000D01*
G54D11*
G01X5030000Y3600000D02*
G01X4940000Y3600000D01*
G54D16*
G01X5020000Y3575000D02*
G01X4950000Y3575000D01*
G01X4950000Y3575000D02*
G01X4937500Y3562500D01*
G54D11*
G01X5015000Y3545000D02*
G01X4955000Y3545000D01*
G01X4955000Y3545000D02*
G01X4945000Y3535000D01*
G01X5135430Y3419450D02*
G01X5134880Y3420000D01*
G01X5134880Y3420000D02*
G01X5050000Y3420000D01*
G01X5050000Y3420000D02*
G01X5025000Y3445000D01*
G01X5135430Y3419450D02*
G01X5135430Y3445430D01*
G01X5095000Y3505000D02*
G01X5045000Y3505000D01*
G54D16*
G01X5064570Y3539920D02*
G01X5064570Y3540430D01*
G01X5064570Y3540430D02*
G01X5045000Y3560000D01*
G01X5045000Y3560000D02*
G01X5035000Y3560000D01*
G01X5035000Y3560000D02*
G01X5020000Y3575000D01*
G54D11*
G01X5025000Y3535000D02*
G01X5015000Y3545000D01*
G01X5045000Y3505000D02*
G01X5025000Y3525000D01*
G01X5025000Y3525000D02*
G01X5025000Y3535000D01*
G01X5025000Y3445000D02*
G01X5025000Y3505000D01*
G01X5025000Y3505000D02*
G01X5010000Y3520000D01*
G54D16*
G01X5040390Y3660390D02*
G01X5045000Y3665000D01*
G01X5045000Y3665000D02*
G01X5080000Y3665000D01*
G01X5080000Y3665000D02*
G01X5085000Y3660000D01*
G01X5085000Y3660000D02*
G01X5180000Y3660000D01*
G01X5135430Y3660390D02*
G01X5135000Y3659960D01*
G54D11*
G01X5094920Y3580080D02*
G01X5090000Y3585000D01*
G54D16*
G01X5115000Y3620000D02*
G01X5064800Y3620000D01*
G01X5155000Y3620000D02*
G01X5190000Y3620000D01*
G54D22*
G01X5155000Y3620000D02*
G01X5115000Y3620000D01*
G54D11*
G01X5094920Y3580080D02*
G01X5155080Y3580080D01*
G01X5155080Y3580080D02*
G01X5170000Y3595000D01*
G01X5100240Y3499760D02*
G01X5095000Y3505000D01*
G01X5100240Y3499760D02*
G01X5154760Y3499760D01*
G54D16*
G01X5064570Y3540000D02*
G01X5115000Y3540000D01*
G54D22*
G01X5115000Y3540000D02*
G01X5155000Y3540000D01*
G54D16*
G01X5155000Y3540000D02*
G01X5160000Y3540000D01*
G01X5160000Y3540000D02*
G01X5190000Y3570000D01*
G01X5190000Y3570000D02*
G01X5210000Y3570000D01*
G54D11*
G01X5154760Y3499760D02*
G01X5200000Y3545000D01*
G01X5200000Y3545000D02*
G01X5220000Y3545000D01*
G01X5135430Y3445430D02*
G01X5220000Y3530000D01*
G01X5220000Y3530000D02*
G01X5230000Y3530000D01*
G54D16*
G01X5190000Y3620000D02*
G01X5215000Y3645000D01*
G54D11*
G01X5200000Y3595000D02*
G01X5240000Y3635000D01*
G01X5240000Y3635000D02*
G01X5240000Y3650000D01*
G54D16*
G01X5210000Y3570000D02*
G01X5280000Y3640000D01*
G01X5215000Y3645000D02*
G01X5215000Y3660000D01*
G01X5280000Y3660000D02*
G01X5280000Y3640000D01*
G54D11*
G01X5170000Y3595000D02*
G01X5200000Y3595000D01*
G01X5240000Y3650000D02*
G01X5250000Y3660000D01*
G01X5220000Y3545000D02*
G01X5305000Y3630000D01*
G01X5305000Y3630000D02*
G01X5305000Y3655000D01*
G01X5305000Y3655000D02*
G01X5310000Y3660000D01*
G01X5320000Y3620000D02*
G01X5320000Y3640000D01*
G01X5320000Y3640000D02*
G01X5340000Y3660000D01*
G01X5230000Y3530000D02*
G01X5320000Y3620000D01*
G01X4464570Y3459610D02*
G01X4505390Y3459610D01*
G01X4565000Y3535000D02*
G01X4575000Y3525000D01*
G01X4575000Y3525000D02*
G01X4575000Y3510000D01*
G01X4505390Y3459610D02*
G01X4510000Y3455000D01*
G01X4510000Y3455000D02*
G01X4585000Y3455000D01*
G54D16*
G01X4535430Y3499760D02*
G01X4555200Y3480000D01*
G01X4555200Y3480000D02*
G01X4600000Y3480000D01*
G54D11*
G01X4575000Y3510000D02*
G01X4580000Y3505000D01*
G01X4464570Y3539920D02*
G01X4469490Y3535000D01*
G01X4469490Y3535000D02*
G01X4565000Y3535000D01*
G01X4464570Y3620240D02*
G01X4469800Y3615000D01*
G01X4469800Y3615000D02*
G01X4555000Y3615000D01*
G01X4575000Y3595000D02*
G01X4575000Y3545000D01*
G01X4575000Y3545000D02*
G01X4590000Y3530000D01*
G01X4590000Y3530000D02*
G01X4590000Y3525000D01*
G01X4590000Y3525000D02*
G01X4595000Y3520000D01*
G01X4555000Y3615000D02*
G01X4575000Y3595000D01*
G54D16*
G01X4580000Y3660000D02*
G01X4580000Y3675000D01*
G01X4580000Y3675000D02*
G01X4600000Y3695000D01*
G01X4600000Y3695000D02*
G01X4660000Y3695000D01*
G01X4615000Y3660000D02*
G01X4645000Y3660000D01*
G54D11*
G01X4665000Y3755000D02*
G01X4684370Y3755000D01*
G01X4594140Y3755000D02*
G01X4594140Y3734140D01*
G54D16*
G01X4660000Y3695000D02*
G01X4705000Y3650000D01*
G01X4645000Y3660000D02*
G01X4687500Y3617500D01*
G54D11*
G01X4645000Y3615000D02*
G01X4650000Y3615000D01*
G01X4684370Y3755000D02*
G01X4724800Y3795430D01*
G01X4594140Y3734140D02*
G01X4560000Y3700000D01*
G01X4560000Y3700000D02*
G01X4515000Y3700000D01*
G01X4515000Y3700000D02*
G01X4475000Y3660000D01*
G01X4475000Y3660000D02*
G01X4440000Y3660000D01*
G01X4535430Y3499760D02*
G01X4330240Y3499760D01*
G01X4400500Y3522000D02*
G01X4400500Y3514030D01*
G01X4400500Y3514030D02*
G01X4414760Y3499760D01*
G01X4400000Y3535000D02*
G01X4459650Y3535000D01*
G01X4330240Y3499760D02*
G01X4315000Y3515000D01*
G01X4315000Y3515000D02*
G01X4315000Y3565000D01*
G01X4315000Y3565000D02*
G01X4330000Y3580000D01*
G01X4330000Y3580000D02*
G01X4400000Y3580000D01*
G01X4400000Y3580000D02*
G01X4405000Y3585000D01*
G01X4405000Y3585000D02*
G01X4405000Y3600000D01*
G01X4405000Y3600000D02*
G01X4400000Y3605000D01*
G01X4399500Y3618000D02*
G01X4462330Y3618000D01*
G54D24*
G01X7913390Y2291340D03*
G54D25*
G01X7854330Y2251970D03*
G54D26*
G01X7948820Y2216540D03*
G54D27*
G01X7889760Y2220470D03*
G54D24*
G01X7913390Y3708660D03*
G54D26*
G01X7948820Y3633860D03*
G54D27*
G01X7889760Y3637800D03*
G54D25*
G01X7854330Y3669290D03*
G54D24*
G01X7913390Y3551180D03*
G54D26*
G01X7948820Y3476380D03*
G54D27*
G01X7889760Y3480310D03*
G54D24*
G01X7913390Y3393700D03*
G54D26*
G01X7948820Y3318900D03*
G54D27*
G01X7889760Y3322830D03*
G54D25*
G01X7854330Y3354330D03*
G01X7854330Y3511810D03*
G54D24*
G01X7913390Y3236220D03*
G54D25*
G01X7854330Y3196850D03*
G54D26*
G01X7948820Y3161420D03*
G54D27*
G01X7889760Y3165350D03*
G54D24*
G01X7913390Y3078740D03*
G54D26*
G01X7948820Y3003940D03*
G54D27*
G01X7889760Y3007870D03*
G54D25*
G01X7854330Y3039370D03*
G54D24*
G01X7913390Y2921260D03*
G54D28*
G01X7342520Y3304530D03*
G01X7194880Y3304530D03*
G01X7342520Y2979530D03*
G01X7194880Y2979530D03*
G01X7194880Y2654530D03*
G54D26*
G01X7948820Y2846460D03*
G54D27*
G01X7889760Y2850390D03*
G54D24*
G01X7913390Y2763780D03*
G54D25*
G01X7854330Y2724410D03*
G01X7854330Y2881890D03*
G54D26*
G01X7948820Y2688980D03*
G54D27*
G01X7889760Y2692910D03*
G54D24*
G01X7913390Y2606300D03*
G54D26*
G01X7948820Y2531500D03*
G54D27*
G01X7889760Y2535430D03*
G54D25*
G01X7854330Y2566930D03*
G54D24*
G01X7913390Y2448820D03*
G54D26*
G01X7948820Y2374020D03*
G54D27*
G01X7889760Y2377950D03*
G54D25*
G01X7854330Y2409450D03*
G54D24*
G01X7913390Y6070870D03*
G54D26*
G01X7948820Y5996060D03*
G54D27*
G01X7889760Y6000000D03*
G54D25*
G01X7854330Y6031500D03*
G54D24*
G01X7913390Y5913390D03*
G54D26*
G01X7948820Y5838580D03*
G54D27*
G01X7889760Y5842520D03*
G54D25*
G01X7854330Y5874020D03*
G54D24*
G01X7913390Y4653540D03*
G54D26*
G01X7948820Y4578740D03*
G54D27*
G01X7889760Y4582680D03*
G54D25*
G01X7854330Y4614170D03*
G54D24*
G01X7913390Y4496060D03*
G54D26*
G01X7948820Y4421260D03*
G54D27*
G01X7889760Y4425200D03*
G54D25*
G01X7854330Y4456690D03*
G54D24*
G01X7913390Y4811020D03*
G54D26*
G01X7948820Y4736220D03*
G54D27*
G01X7889760Y4740160D03*
G54D25*
G01X7854330Y4771650D03*
G54D24*
G01X7913390Y4968500D03*
G54D26*
G01X7948820Y4893700D03*
G54D27*
G01X7889760Y4897640D03*
G54D25*
G01X7854330Y4929130D03*
G54D24*
G01X7913390Y5125980D03*
G01X7913390Y5283460D03*
G54D26*
G01X7948820Y5208660D03*
G54D27*
G01X7889760Y5212600D03*
G54D25*
G01X7854330Y5244090D03*
G54D26*
G01X7948820Y5051180D03*
G54D27*
G01X7889760Y5055120D03*
G54D25*
G01X7854330Y5086610D03*
G54D24*
G01X7913390Y5755910D03*
G54D26*
G01X7948820Y5681100D03*
G54D24*
G01X7913390Y5598430D03*
G54D25*
G01X7854330Y5559060D03*
G54D27*
G01X7889760Y5685040D03*
G54D25*
G01X7854330Y5716540D03*
G54D26*
G01X7948820Y5523620D03*
G54D27*
G01X7889760Y5527560D03*
G54D24*
G01X7913390Y5440940D03*
G54D26*
G01X7948820Y5366140D03*
G54D27*
G01X7889760Y5370080D03*
G54D25*
G01X7854330Y5401570D03*
G54D24*
G01X7913390Y4338580D03*
G54D26*
G01X7948820Y4263780D03*
G54D27*
G01X7889760Y4267720D03*
G54D25*
G01X7854330Y4299210D03*
G01X7854330Y4141730D03*
G54D24*
G01X7913390Y4181100D03*
G54D26*
G01X7948820Y4106300D03*
G54D27*
G01X7889760Y4110240D03*
G54D24*
G01X7913390Y4023620D03*
G54D26*
G01X7948820Y3948820D03*
G54D27*
G01X7889760Y3952760D03*
G54D24*
G01X7913390Y3866140D03*
G54D26*
G01X7948820Y3791340D03*
G54D27*
G01X7889760Y3795280D03*
G54D25*
G01X7854330Y3826770D03*
G01X7854330Y3984250D03*
G54D28*
G01X7342520Y3954530D03*
G01X7342520Y4279530D03*
G01X7342520Y4604530D03*
G01X7342520Y4929530D03*
G01X7342520Y5254530D03*
G01X7342520Y5579530D03*
G01X7342520Y5904530D03*
G01X7342520Y2654530D03*
G01X7342520Y3629530D03*
G01X7194880Y3629530D03*
G01X7194880Y3954530D03*
G01X7194880Y4279530D03*
G01X7194880Y4604530D03*
G01X7194880Y4929530D03*
G01X7194880Y5254530D03*
G01X7194880Y5579530D03*
G01X7194880Y5904530D03*
G54D29*
G36*
G01X7570000Y6530000D02*
G01X7570000Y6470000D01*
G01X7630000Y6470000D01*
G01X7630000Y6530000D01*
G01X7570000Y6530000D01*
G37*
G54D23*
G01X7700000Y6500000D03*
G01X7600000Y6400000D03*
G01X7700000Y6400000D03*
G54D30*
G01X6712600Y4840550D03*
G01X6712600Y4643700D03*
G01X6712600Y4446850D03*
G01X6712600Y4250000D03*
G01X6712600Y4053150D03*
G01X6712600Y3856300D03*
G01X6712600Y3659450D03*
G01X6712600Y3462600D03*
G54D28*
G01X6820870Y3305310D03*
G01X6820870Y2980310D03*
G01X6820870Y2655310D03*
G01X6820870Y3630310D03*
G01X6820870Y3955310D03*
G01X6820870Y4280310D03*
G01X6820870Y4605310D03*
G01X6820870Y4930310D03*
G54D29*
G36*
G01X5800000Y6530000D02*
G01X5800000Y6470000D01*
G01X5860000Y6470000D01*
G01X5860000Y6530000D01*
G01X5800000Y6530000D01*
G37*
G54D23*
G01X5830000Y6400000D03*
G01X5930000Y6400000D03*
G01X5930000Y6500000D03*
G54D29*
G36*
G01X6880000Y6935000D02*
G01X6880000Y6875000D01*
G01X6940000Y6875000D01*
G01X6940000Y6935000D01*
G01X6880000Y6935000D01*
G37*
G54D23*
G01X6910000Y6805000D03*
G01X6910000Y6705000D03*
G54D29*
G36*
G01X6585000Y6930000D02*
G01X6585000Y6870000D01*
G01X6645000Y6870000D01*
G01X6645000Y6930000D01*
G01X6585000Y6930000D01*
G37*
G54D23*
G01X6615000Y6800000D03*
G01X6615000Y6700000D03*
G01X6910000Y6605000D03*
G01X6615000Y6600000D03*
G01X6910000Y6505000D03*
G01X6615000Y6500000D03*
G01X6910000Y6405000D03*
G01X6615000Y6400000D03*
G01X6910000Y6305000D03*
G01X6615000Y6300000D03*
G01X6910000Y6205000D03*
G01X6615000Y6200000D03*
G54D30*
G01X6338580Y5037400D03*
G01X6338580Y4840550D03*
G01X6338580Y4643700D03*
G01X6338580Y4446850D03*
G01X6338580Y4250000D03*
G01X6338580Y4053150D03*
G01X6338580Y3856300D03*
G01X5944880Y5037400D03*
G01X5944880Y4840550D03*
G01X5944880Y4643700D03*
G01X5944880Y4446850D03*
G01X5944880Y4250000D03*
G01X5944880Y4053150D03*
G01X5944880Y3856300D03*
G01X5944880Y3659450D03*
G01X5944880Y3462600D03*
G54D23*
G01X5950000Y3295000D03*
G01X5950000Y3195000D03*
G01X6050000Y3195000D03*
G01X6050000Y3295000D03*
G01X6150000Y3195000D03*
G01X6150000Y3295000D03*
G01X6250000Y3195000D03*
G01X6350000Y3195000D03*
G01X6450000Y3195000D03*
G01X6550000Y3195000D03*
G01X6650000Y3195000D03*
G01X6250000Y3295000D03*
G01X6350000Y3295000D03*
G01X6450000Y3295000D03*
G01X6550000Y3295000D03*
G01X6650000Y3295000D03*
G54D30*
G01X6338580Y3659450D03*
G01X6338580Y3462600D03*
G54D29*
G36*
G01X5720000Y2990000D02*
G01X5720000Y2930000D01*
G01X5780000Y2930000D01*
G01X5780000Y2990000D01*
G01X5720000Y2990000D01*
G37*
G54D23*
G01X5850000Y2960000D03*
G01X5950000Y2960000D03*
G01X5750000Y3060000D03*
G01X5850000Y3060000D03*
G01X5950000Y3060000D03*
G01X6050000Y3060000D03*
G01X6150000Y3060000D03*
G01X6250000Y3060000D03*
G54D29*
G36*
G01X5720000Y3225000D02*
G01X5720000Y3165000D01*
G01X5780000Y3165000D01*
G01X5780000Y3225000D01*
G01X5720000Y3225000D01*
G37*
G54D23*
G01X5750000Y3295000D03*
G01X5850000Y3195000D03*
G01X5850000Y3295000D03*
G01X6050000Y2960000D03*
G01X6150000Y2960000D03*
G01X6250000Y2960000D03*
G01X6350000Y3060000D03*
G01X6450000Y3060000D03*
G01X6550000Y3060000D03*
G01X6350000Y2960000D03*
G01X6450000Y2960000D03*
G01X6550000Y2960000D03*
G01X6650000Y2960000D03*
G01X6650000Y3060000D03*
G54D26*
G01X5235040Y4567870D03*
G01X5235040Y5071810D03*
G01X5235040Y4421810D03*
G54D31*
G01X5100000Y5079690D03*
G54D32*
G01X4875200Y5095430D03*
G01X4875200Y4995040D03*
G54D31*
G01X5100000Y4560000D03*
G01X5100000Y4429690D03*
G54D32*
G01X5135430Y4799760D03*
G01X5135430Y4880080D03*
G01X5135430Y4960390D03*
G01X5064570Y4839920D03*
G01X5064570Y4920240D03*
G01X5064570Y4759610D03*
G01X5135430Y4719450D03*
G01X4875200Y4644650D03*
G01X4875200Y4544250D03*
G01X5064570Y4679290D03*
G01X4875200Y4445430D03*
G01X4724800Y4544250D03*
G01X4724800Y4644650D03*
G01X4724800Y4345040D03*
G01X4724800Y4445430D03*
G01X4724800Y4995040D03*
G01X4724800Y5095430D03*
G54D26*
G01X4364960Y5071810D03*
G54D31*
G01X4500000Y5079690D03*
G54D32*
G01X4464570Y4839920D03*
G01X4535430Y4799760D03*
G01X4535430Y4880080D03*
G01X4464570Y4920240D03*
G01X4535430Y4960390D03*
G54D33*
G01X4342520Y5322830D03*
G01X4625980Y5322830D03*
G54D32*
G01X4464570Y4759610D03*
G01X4535430Y4719450D03*
G54D26*
G01X4364960Y4567870D03*
G54D31*
G01X4500000Y4560000D03*
G54D32*
G01X4464570Y4679290D03*
G54D26*
G01X4364960Y4421810D03*
G54D31*
G01X4500000Y4429690D03*
G54D24*
G01X4881890Y5224410D03*
G01X4881890Y5381890D03*
G54D23*
G01X4986100Y5479300D03*
G01X4986100Y5594300D03*
G01X5086100Y5579300D03*
G01X5086100Y5494300D03*
G01X5186100Y5479300D03*
G54D32*
G01X5064570Y3620240D03*
G01X4875200Y3795430D03*
G01X4875200Y3695040D03*
G01X4875200Y3994650D03*
G01X4875200Y3894250D03*
G01X5135430Y4149760D03*
G01X5135430Y4069450D03*
G01X5135430Y4230080D03*
G01X5135430Y4310390D03*
G01X4875200Y4345040D03*
G01X5064570Y4189920D03*
G01X5064570Y4270240D03*
G01X5064570Y4109610D03*
G01X5064570Y4029290D03*
G54D26*
G01X5235040Y3771810D03*
G54D31*
G01X5100000Y3779690D03*
G54D32*
G01X5135430Y3499760D03*
G01X5135430Y3580080D03*
G01X5135430Y3660390D03*
G01X5135430Y3419450D03*
G01X5064570Y3539920D03*
G01X5064570Y3459610D03*
G01X5064570Y3379290D03*
G54D26*
G01X5235040Y3917870D03*
G54D31*
G01X5100000Y3910000D03*
G54D32*
G01X4875200Y3344650D03*
G01X4875200Y3244250D03*
G54D26*
G01X5235040Y3267870D03*
G54D31*
G01X5100000Y3260000D03*
G54D32*
G01X4535430Y3419450D03*
G54D26*
G01X4364960Y3267870D03*
G54D31*
G01X4500000Y3260000D03*
G54D32*
G01X4724800Y3244250D03*
G01X4724800Y3344650D03*
G01X4724800Y3695040D03*
G01X4724800Y3795430D03*
G01X4724800Y3894250D03*
G01X4724800Y3994650D03*
G01X4464570Y3459610D03*
G01X4464570Y4189920D03*
G01X4464570Y4270240D03*
G01X4464570Y4109610D03*
G01X4464570Y4029290D03*
G01X4464570Y3379290D03*
G01X4535430Y3499760D03*
G01X4535430Y4149760D03*
G01X4535430Y4069450D03*
G01X4535430Y4230080D03*
G01X4535430Y4310390D03*
G54D26*
G01X4364960Y3771810D03*
G54D31*
G01X4500000Y3779690D03*
G54D32*
G01X4464570Y3539920D03*
G01X4464570Y3620240D03*
G01X4535430Y3580080D03*
G01X4535430Y3660390D03*
G54D26*
G01X4364960Y3917870D03*
G54D31*
G01X4500000Y3910000D03*
G54D24*
G01X5236220Y5854330D03*
G54D34*
G01X5236220Y6011810D03*
G01X5078740Y5854330D03*
G01X5157480Y5990160D03*
G01X5098430Y5931100D03*
G01X5236220Y5696850D03*
G01X5393700Y5854330D03*
G01X5314960Y5718500D03*
G01X5374020Y5777560D03*
G01X5314960Y5990160D03*
G01X5157480Y5718500D03*
G54D23*
G01X5186100Y5594300D03*
G54D34*
G01X5098430Y5777560D03*
G01X5374020Y5931100D03*
G54D24*
G01X5590550Y5381890D03*
G01X5590550Y5224410D03*
G54D23*
G01X5386100Y5479300D03*
G01X5486100Y5494300D03*
G01X5486100Y5579300D03*
G01X5286100Y5494300D03*
G01X5286100Y5579300D03*
G01X5386100Y5594300D03*
G54D24*
G01X5748030Y5224410D03*
G01X5748030Y5381890D03*
G54D23*
G01X5852320Y5479330D03*
G01X5852320Y5594330D03*
G54D24*
G01X6456690Y5381890D03*
G01X6456690Y5224410D03*
G54D23*
G01X6352320Y5494330D03*
G01X6352320Y5579330D03*
G54D30*
G01X6712600Y5037400D03*
G54D28*
G01X6820870Y5255310D03*
G01X6820870Y5580310D03*
G01X6820870Y5905310D03*
G54D24*
G01X6102360Y5854330D03*
G54D34*
G01X6102360Y6011810D03*
G01X5944880Y5854330D03*
G01X6023620Y5990160D03*
G01X5964570Y5931100D03*
G01X6102360Y5696850D03*
G01X6259840Y5854330D03*
G01X6181100Y5718500D03*
G01X6240160Y5777560D03*
G54D23*
G01X6252320Y5594330D03*
G54D34*
G01X6181100Y5990160D03*
G01X6240160Y5931100D03*
G01X6023620Y5718500D03*
G01X5964570Y5777560D03*
G54D23*
G01X5952320Y5579330D03*
G01X6052320Y5594330D03*
G01X6152320Y5579330D03*
G01X5952320Y5494330D03*
G01X6052320Y5479330D03*
G01X6152320Y5494330D03*
G01X6252320Y5479330D03*
G01X3300000Y4200000D03*
G01X3400000Y4200000D03*
G01X3500000Y4200000D03*
G01X3600000Y4200000D03*
G01X3700000Y4200000D03*
G01X3800000Y4200000D03*
G01X3900000Y4200000D03*
G01X4000000Y4200000D03*
G01X3300000Y4950000D03*
G01X3400000Y4950000D03*
G01X3500000Y4950000D03*
G01X3600000Y4950000D03*
G01X3700000Y4950000D03*
G01X3800000Y4950000D03*
G01X3900000Y4950000D03*
G01X4000000Y4950000D03*
G01X4000000Y5400000D03*
G01X3900000Y5400000D03*
G01X3800000Y5400000D03*
G01X3700000Y5400000D03*
G01X3600000Y5400000D03*
G01X3500000Y5400000D03*
G01X3400000Y5400000D03*
G01X3300000Y5400000D03*
G01X2400000Y4200000D03*
G01X2500000Y4200000D03*
G01X2600000Y4200000D03*
G01X2700000Y4200000D03*
G01X2210000Y4200000D03*
G01X2210000Y4300000D03*
G01X2800000Y4200000D03*
G01X2900000Y4200000D03*
G01X3000000Y4200000D03*
G01X3100000Y4200000D03*
G01X2210000Y4400000D03*
G01X2210000Y4500000D03*
G01X2210000Y4600000D03*
G01X2210000Y4700000D03*
G01X2400000Y4700000D03*
G01X2500000Y4700000D03*
G01X2600000Y4700000D03*
G01X2700000Y4700000D03*
G01X2800000Y4700000D03*
G01X2900000Y4700000D03*
G01X3000000Y4700000D03*
G01X3100000Y4700000D03*
G01X3100000Y4950000D03*
G01X3000000Y4950000D03*
G01X3100000Y4850000D03*
G01X3000000Y4850000D03*
G01X2710000Y4850000D03*
G01X2610000Y4850000D03*
G01X2510000Y4850000D03*
G01X2410000Y4850000D03*
G01X2710000Y4950000D03*
G01X2610000Y4950000D03*
G01X2510000Y4950000D03*
G01X2410000Y4950000D03*
G01X2310000Y4950000D03*
G01X2310000Y4850000D03*
G01X2015000Y4950000D03*
G01X2015000Y4850000D03*
G01X1915000Y4950000D03*
G01X1915000Y4850000D03*
G01X1815000Y4950000D03*
G01X1815000Y4850000D03*
G01X1715000Y4950000D03*
G01X1715000Y4850000D03*
G01X1615000Y4950000D03*
G01X1325000Y4950000D03*
G01X1615000Y4850000D03*
G01X1325000Y4850000D03*
G01X1225000Y4850000D03*
G01X1225000Y4950000D03*
G01X1075000Y4950000D03*
G01X0975000Y4950000D03*
G01X0875000Y4950000D03*
G01X0775000Y4950000D03*
G01X0675000Y4950000D03*
G01X0575000Y4950000D03*
G01X1715000Y6150000D03*
G01X1815000Y6050000D03*
G01X1915000Y6050000D03*
G01X2015000Y6050000D03*
G01X1815000Y6150000D03*
G01X1915000Y6150000D03*
G01X2015000Y6150000D03*
G01X2310000Y6150000D03*
G01X2410000Y6150000D03*
G01X2510000Y6150000D03*
G01X4000000Y6150000D03*
G01X3900000Y6150000D03*
G01X3800000Y6150000D03*
G01X3700000Y6150000D03*
G01X3600000Y6150000D03*
G01X3500000Y6150000D03*
G01X3400000Y6150000D03*
G01X3300000Y6150000D03*
G01X2610000Y6150000D03*
G01X2710000Y6150000D03*
G01X3000000Y6150000D03*
G01X3100000Y6150000D03*
G01X2710000Y6050000D03*
G01X2900000Y5900000D03*
G01X2800000Y5900000D03*
G01X3000000Y6050000D03*
G01X3100000Y6050000D03*
G01X3100000Y5900000D03*
G01X3000000Y5900000D03*
G01X2700000Y5900000D03*
G01X3100000Y5400000D03*
G01X3000000Y5400000D03*
G01X2900000Y5400000D03*
G01X2800000Y5400000D03*
G01X2700000Y5400000D03*
G01X2310000Y6050000D03*
G01X2410000Y6050000D03*
G01X2510000Y6050000D03*
G01X2610000Y6050000D03*
G01X2600000Y5900000D03*
G01X2500000Y5900000D03*
G01X2400000Y5900000D03*
G01X2210000Y5900000D03*
G01X2210000Y5800000D03*
G01X2210000Y5700000D03*
G01X2210000Y5600000D03*
G01X2210000Y5500000D03*
G01X2210000Y5400000D03*
G01X2600000Y5400000D03*
G01X2500000Y5400000D03*
G01X2400000Y5400000D03*
G01X3300000Y3000000D03*
G01X3400000Y3000000D03*
G01X3500000Y3000000D03*
G01X3600000Y3000000D03*
G01X3700000Y3000000D03*
G01X3800000Y3000000D03*
G01X3900000Y3000000D03*
G01X4000000Y3000000D03*
G01X2400000Y3000000D03*
G01X2500000Y3000000D03*
G01X2600000Y3000000D03*
G01X2700000Y3000000D03*
G01X2800000Y3000000D03*
G01X2900000Y3000000D03*
G01X3000000Y3000000D03*
G01X3100000Y3000000D03*
G01X2210000Y3000000D03*
G01X2210000Y3100000D03*
G01X2210000Y3200000D03*
G01X2210000Y3300000D03*
G01X2210000Y3400000D03*
G01X2210000Y3500000D03*
G01X2400000Y3500000D03*
G01X2500000Y3500000D03*
G01X2600000Y3500000D03*
G01X2700000Y3500000D03*
G01X2800000Y3500000D03*
G01X2900000Y3500000D03*
G01X3000000Y3500000D03*
G01X3100000Y3500000D03*
G01X3300000Y3750000D03*
G01X3100000Y3750000D03*
G01X3100000Y3650000D03*
G01X3400000Y3750000D03*
G01X3500000Y3750000D03*
G01X3600000Y3750000D03*
G01X3700000Y3750000D03*
G01X3800000Y3750000D03*
G01X3900000Y3750000D03*
G01X4000000Y3750000D03*
G01X3000000Y3650000D03*
G01X3000000Y3750000D03*
G01X2710000Y3750000D03*
G01X2710000Y3650000D03*
G01X2610000Y3750000D03*
G01X2510000Y3750000D03*
G01X2410000Y3750000D03*
G01X2310000Y3750000D03*
G01X2610000Y3650000D03*
G01X2510000Y3650000D03*
G01X2410000Y3650000D03*
G01X2310000Y3650000D03*
G01X2015000Y3650000D03*
G01X1915000Y3650000D03*
G01X2015000Y3750000D03*
G01X1915000Y3750000D03*
G01X1815000Y3750000D03*
G01X1815000Y3650000D03*
G01X1715000Y3750000D03*
G01X1615000Y3750000D03*
G01X1715000Y3650000D03*
G01X1615000Y3650000D03*
G01X1325000Y3650000D03*
G01X1225000Y3650000D03*
G01X1325000Y3750000D03*
G01X1225000Y3750000D03*
G01X1075000Y3750000D03*
G01X0975000Y3750000D03*
G01X0875000Y3750000D03*
G01X0775000Y3750000D03*
G01X0675000Y3750000D03*
G01X0575000Y3750000D03*
G54D33*
G01X0666540Y7360000D03*
G01X0950000Y7360000D03*
G01X0666540Y7040000D03*
G01X0950000Y7040000D03*
G01X0666540Y6720000D03*
G01X0950000Y6720000D03*
G01X0666540Y6400000D03*
G01X0950000Y6400000D03*
G54D23*
G01X0575000Y6150000D03*
G01X0675000Y6150000D03*
G01X0775000Y6150000D03*
G01X0875000Y6150000D03*
G01X0975000Y6150000D03*
G01X1075000Y6150000D03*
G01X1225000Y6150000D03*
G01X1225000Y6050000D03*
G01X1325000Y6050000D03*
G01X1325000Y6150000D03*
G01X1615000Y6050000D03*
G01X1615000Y6150000D03*
G01X1715000Y6050000D03*
G54D29*
G36*
G01X4619730Y3934520D02*
G01X4568550Y3934520D01*
G01X4568550Y3875480D01*
G01X4619730Y3875480D01*
G01X4619730Y3934520D01*
G37*
G36*
G01X4690590Y3934520D02*
G01X4639410Y3934520D01*
G01X4639410Y3875480D01*
G01X4690590Y3875480D01*
G01X4690590Y3934520D01*
G37*
G36*
G01X4619730Y3784520D02*
G01X4568550Y3784520D01*
G01X4568550Y3725480D01*
G01X4619730Y3725480D01*
G01X4619730Y3784520D01*
G37*
G36*
G01X4690590Y3784520D02*
G01X4639410Y3784520D01*
G01X4639410Y3725480D01*
G01X4690590Y3725480D01*
G01X4690590Y3784520D01*
G37*
G54D11*
G01X4395500Y4325000D02*
G01X4425500Y4325000D01*
G01X4425500Y4325000D02*
G01X4432500Y4318000D01*
G54D29*
G36*
G01X4429500Y4321000D02*
G01X4429500Y4315000D01*
G01X4440500Y4315000D01*
G01X4440500Y4321000D01*
G01X4429500Y4321000D01*
G37*
G54D11*
G01X4416500Y4319000D02*
G01X4422500Y4325000D01*
G01X4410500Y4325000D02*
G01X4416500Y4319000D01*
G01X4388500Y4318000D02*
G01X4395500Y4325000D01*
G54D29*
G36*
G01X4370500Y4321000D02*
G01X4370500Y4315000D01*
G01X4391500Y4315000D01*
G01X4391500Y4321000D01*
G01X4370500Y4321000D01*
G37*
G54D11*
G01X4398500Y4325000D02*
G01X4404500Y4319000D01*
G01X4404500Y4319000D02*
G01X4410500Y4325000D01*
G01X4389500Y4305000D02*
G01X4395500Y4299000D01*
G54D29*
G36*
G01X4370500Y4308000D02*
G01X4370500Y4302000D01*
G01X4392500Y4302000D01*
G01X4392500Y4308000D01*
G01X4370500Y4308000D01*
G37*
G54D11*
G01X4397500Y4299000D02*
G01X4404500Y4306000D01*
G01X4395500Y4299000D02*
G01X4397500Y4299000D01*
G01X4426500Y4299000D02*
G01X4432500Y4305000D01*
G54D29*
G36*
G01X4429500Y4308000D02*
G01X4429500Y4302000D01*
G01X4440500Y4302000D01*
G01X4440500Y4308000D01*
G01X4429500Y4308000D01*
G37*
G54D11*
G01X4395500Y4299000D02*
G01X4426500Y4299000D01*
G01X4404500Y4306000D02*
G01X4411500Y4299000D01*
G01X4409500Y4299000D02*
G01X4416500Y4306000D01*
G01X4416500Y4306000D02*
G01X4423500Y4299000D01*
G01X4394500Y4167000D02*
G01X4424500Y4167000D01*
G01X4424500Y4167000D02*
G01X4431500Y4160000D01*
G54D29*
G36*
G01X4428500Y4163000D02*
G01X4428500Y4157000D01*
G01X4439500Y4157000D01*
G01X4439500Y4163000D01*
G01X4428500Y4163000D01*
G37*
G54D11*
G01X4415500Y4161000D02*
G01X4421500Y4167000D01*
G01X4409500Y4167000D02*
G01X4415500Y4161000D01*
G01X4387500Y4160000D02*
G01X4394500Y4167000D01*
G54D29*
G36*
G01X4369500Y4163000D02*
G01X4369500Y4157000D01*
G01X4390500Y4157000D01*
G01X4390500Y4163000D01*
G01X4369500Y4163000D01*
G37*
G54D11*
G01X4397500Y4167000D02*
G01X4403500Y4161000D01*
G01X4403500Y4161000D02*
G01X4409500Y4167000D01*
G01X4394500Y4141000D02*
G01X4425500Y4141000D01*
G01X4394500Y4141000D02*
G01X4396500Y4141000D01*
G01X4425500Y4141000D02*
G01X4431500Y4147000D01*
G54D29*
G36*
G01X4428500Y4150000D02*
G01X4428500Y4144000D01*
G01X4439500Y4144000D01*
G01X4439500Y4150000D01*
G01X4428500Y4150000D01*
G37*
G54D11*
G01X4388500Y4147000D02*
G01X4394500Y4141000D01*
G01X4396500Y4141000D02*
G01X4403500Y4148000D01*
G01X4403500Y4148000D02*
G01X4410500Y4141000D01*
G01X4408500Y4141000D02*
G01X4415500Y4148000D01*
G01X4415500Y4148000D02*
G01X4422500Y4141000D01*
G54D29*
G36*
G01X4369500Y4150000D02*
G01X4369500Y4144000D01*
G01X4391500Y4144000D01*
G01X4391500Y4150000D01*
G01X4369500Y4150000D01*
G37*
G54D11*
G01X4355500Y3598000D02*
G01X4385500Y3598000D01*
G01X4348500Y3605000D02*
G01X4355500Y3598000D01*
G54D29*
G36*
G01X4340500Y3608000D02*
G01X4340500Y3602000D01*
G01X4351500Y3602000D01*
G01X4351500Y3608000D01*
G01X4340500Y3608000D01*
G37*
G54D11*
G01X4358500Y3598000D02*
G01X4364500Y3604000D01*
G01X4364500Y3604000D02*
G01X4370500Y3598000D01*
G01X4385500Y3598000D02*
G01X4392500Y3605000D01*
G54D29*
G36*
G01X4389500Y3608000D02*
G01X4389500Y3602000D01*
G01X4410500Y3602000D01*
G01X4410500Y3608000D01*
G01X4389500Y3608000D01*
G37*
G54D11*
G01X4376500Y3604000D02*
G01X4382500Y3598000D01*
G01X4370500Y3598000D02*
G01X4376500Y3604000D01*
G01X4354500Y3624000D02*
G01X4385500Y3624000D01*
G01X4383500Y3624000D02*
G01X4385500Y3624000D01*
G01X4348500Y3618000D02*
G01X4354500Y3624000D01*
G54D29*
G36*
G01X4340500Y3621000D02*
G01X4340500Y3615000D01*
G01X4351500Y3615000D01*
G01X4351500Y3621000D01*
G01X4340500Y3621000D01*
G37*
G54D11*
G01X4385500Y3624000D02*
G01X4391500Y3618000D01*
G01X4376500Y3617000D02*
G01X4383500Y3624000D01*
G01X4369500Y3624000D02*
G01X4376500Y3617000D01*
G01X4364500Y3617000D02*
G01X4371500Y3624000D01*
G01X4357500Y3624000D02*
G01X4364500Y3617000D01*
G54D29*
G36*
G01X4388500Y3621000D02*
G01X4388500Y3615000D01*
G01X4410500Y3615000D01*
G01X4410500Y3621000D01*
G01X4388500Y3621000D01*
G37*
G54D11*
G01X4356000Y3515000D02*
G01X4386000Y3515000D01*
G01X4349000Y3522000D02*
G01X4356000Y3515000D01*
G01X4377000Y3521000D02*
G01X4383000Y3515000D01*
G01X4371000Y3515000D02*
G01X4377000Y3521000D01*
G01X4359000Y3515000D02*
G01X4365000Y3521000D01*
G01X4365000Y3521000D02*
G01X4371000Y3515000D01*
G54D29*
G36*
G01X4341000Y3525000D02*
G01X4341000Y3519000D01*
G01X4352000Y3519000D01*
G01X4352000Y3525000D01*
G01X4341000Y3525000D01*
G37*
G54D11*
G01X4349000Y3535000D02*
G01X4355000Y3541000D01*
G54D29*
G36*
G01X4341000Y3538000D02*
G01X4341000Y3532000D01*
G01X4352000Y3532000D01*
G01X4352000Y3538000D01*
G01X4341000Y3538000D01*
G37*
G54D11*
G01X4358000Y3541000D02*
G01X4365000Y3534000D01*
G01X4386000Y3515000D02*
G01X4393000Y3522000D01*
G54D29*
G36*
G01X4390000Y3525000D02*
G01X4390000Y3519000D01*
G01X4411000Y3519000D01*
G01X4411000Y3525000D01*
G01X4390000Y3525000D01*
G37*
G54D11*
G01X4386000Y3541000D02*
G01X4392000Y3535000D01*
G54D29*
G36*
G01X4389000Y3538000D02*
G01X4389000Y3532000D01*
G01X4411000Y3532000D01*
G01X4411000Y3538000D01*
G01X4389000Y3538000D01*
G37*
G54D11*
G01X4377000Y3534000D02*
G01X4384000Y3541000D01*
G01X4384000Y3541000D02*
G01X4386000Y3541000D01*
G01X4355000Y3541000D02*
G01X4386000Y3541000D01*
G01X4370000Y3541000D02*
G01X4377000Y3534000D01*
G01X4365000Y3534000D02*
G01X4372000Y3541000D01*
G54D29*
G36*
G01X4619730Y3334520D02*
G01X4568550Y3334520D01*
G01X4568550Y3275480D01*
G01X4619730Y3275480D01*
G01X4619730Y3334520D01*
G37*
G36*
G01X4690590Y3334520D02*
G01X4639410Y3334520D01*
G01X4639410Y3275480D01*
G01X4690590Y3275480D01*
G01X4690590Y3334520D01*
G37*
G36*
G01X4615590Y5129520D02*
G01X4564410Y5129520D01*
G01X4564410Y5070480D01*
G01X4615590Y5070480D01*
G01X4615590Y5129520D01*
G37*
G36*
G01X4686450Y5129520D02*
G01X4635270Y5129520D01*
G01X4635270Y5070480D01*
G01X4686450Y5070480D01*
G01X4686450Y5129520D01*
G37*
G36*
G01X4680160Y4759090D02*
G01X4628980Y4759090D01*
G01X4628980Y4700050D01*
G01X4680160Y4700050D01*
G01X4680160Y4759090D01*
G37*
G36*
G01X4751020Y4759090D02*
G01X4699840Y4759090D01*
G01X4699840Y4700050D01*
G01X4751020Y4700050D01*
G01X4751020Y4759090D01*
G37*
G36*
G01X4337130Y4997870D02*
G01X4337130Y4982130D01*
G01X4352870Y4982130D01*
G01X4352870Y4997870D01*
G01X4337130Y4997870D01*
G37*
G36*
G01X4313510Y4997870D02*
G01X4313510Y4982130D01*
G01X4329250Y4982130D01*
G01X4329250Y4997870D01*
G01X4313510Y4997870D01*
G37*
G36*
G01X4337130Y4962870D02*
G01X4337130Y4947130D01*
G01X4352870Y4947130D01*
G01X4352870Y4962870D01*
G01X4337130Y4962870D01*
G37*
G36*
G01X4313510Y4962870D02*
G01X4313510Y4947130D01*
G01X4329250Y4947130D01*
G01X4329250Y4962870D01*
G01X4313510Y4962870D01*
G37*
G54D11*
G01X4346000Y4895000D02*
G01X4376000Y4895000D01*
G01X4339000Y4915000D02*
G01X4345000Y4921000D01*
G54D29*
G36*
G01X4331000Y4918000D02*
G01X4331000Y4912000D01*
G01X4342000Y4912000D01*
G01X4342000Y4918000D01*
G01X4331000Y4918000D01*
G37*
G54D11*
G01X4360000Y4921000D02*
G01X4367000Y4914000D01*
G01X4355000Y4914000D02*
G01X4362000Y4921000D01*
G01X4348000Y4921000D02*
G01X4355000Y4914000D01*
G01X4339000Y4902000D02*
G01X4346000Y4895000D01*
G01X4349000Y4895000D02*
G01X4355000Y4901000D01*
G01X4355000Y4901000D02*
G01X4361000Y4895000D01*
G01X4376000Y4895000D02*
G01X4383000Y4902000D01*
G01X4367000Y4901000D02*
G01X4373000Y4895000D01*
G01X4361000Y4895000D02*
G01X4367000Y4901000D01*
G54D29*
G36*
G01X4380000Y4905000D02*
G01X4380000Y4899000D01*
G01X4401000Y4899000D01*
G01X4401000Y4905000D01*
G01X4380000Y4905000D01*
G37*
G36*
G01X4379000Y4918000D02*
G01X4379000Y4912000D01*
G01X4401000Y4912000D01*
G01X4401000Y4918000D01*
G01X4379000Y4918000D01*
G37*
G36*
G01X4331000Y4905000D02*
G01X4331000Y4899000D01*
G01X4342000Y4899000D01*
G01X4342000Y4905000D01*
G01X4331000Y4905000D01*
G37*
G54D11*
G01X4345000Y4921000D02*
G01X4376000Y4921000D01*
G01X4376000Y4921000D02*
G01X4382000Y4915000D01*
G01X4367000Y4914000D02*
G01X4374000Y4921000D01*
G01X4374000Y4921000D02*
G01X4376000Y4921000D01*
G01X4380500Y4685000D02*
G01X4410500Y4685000D01*
G01X4373500Y4678000D02*
G01X4380500Y4685000D01*
G01X4383500Y4685000D02*
G01X4389500Y4679000D01*
G01X4389500Y4679000D02*
G01X4395500Y4685000D01*
G54D29*
G36*
G01X4355500Y4681000D02*
G01X4355500Y4675000D01*
G01X4376500Y4675000D01*
G01X4376500Y4681000D01*
G01X4355500Y4681000D01*
G37*
G36*
G01X4414500Y4681000D02*
G01X4414500Y4675000D01*
G01X4425500Y4675000D01*
G01X4425500Y4681000D01*
G01X4414500Y4681000D01*
G37*
G54D11*
G01X4410500Y4685000D02*
G01X4417500Y4678000D01*
G01X4401500Y4679000D02*
G01X4407500Y4685000D01*
G01X4395500Y4685000D02*
G01X4401500Y4679000D01*
G01X4380500Y4659000D02*
G01X4411500Y4659000D01*
G01X4411500Y4659000D02*
G01X4417500Y4665000D01*
G54D29*
G36*
G01X4414500Y4668000D02*
G01X4414500Y4662000D01*
G01X4425500Y4662000D01*
G01X4425500Y4668000D01*
G01X4414500Y4668000D01*
G37*
G54D11*
G01X4389500Y4666000D02*
G01X4396500Y4659000D01*
G01X4394500Y4659000D02*
G01X4401500Y4666000D01*
G01X4401500Y4666000D02*
G01X4408500Y4659000D01*
G01X4374500Y4665000D02*
G01X4380500Y4659000D01*
G54D29*
G36*
G01X4355500Y4668000D02*
G01X4355500Y4662000D01*
G01X4377500Y4662000D01*
G01X4377500Y4668000D01*
G01X4355500Y4668000D01*
G37*
G54D11*
G01X4382500Y4659000D02*
G01X4389500Y4666000D01*
G01X4380500Y4659000D02*
G01X4382500Y4659000D01*
G01X4375500Y4708000D02*
G01X4405500Y4708000D01*
G01X4405500Y4708000D02*
G01X4412500Y4715000D01*
G01X4396500Y4714000D02*
G01X4402500Y4708000D01*
G01X4390500Y4708000D02*
G01X4396500Y4714000D01*
G54D29*
G36*
G01X4409500Y4718000D02*
G01X4409500Y4712000D01*
G01X4430500Y4712000D01*
G01X4430500Y4718000D01*
G01X4409500Y4718000D01*
G37*
G54D11*
G01X4368500Y4715000D02*
G01X4375500Y4708000D01*
G01X4378500Y4708000D02*
G01X4384500Y4714000D01*
G01X4384500Y4714000D02*
G01X4390500Y4708000D01*
G54D29*
G36*
G01X4360500Y4718000D02*
G01X4360500Y4712000D01*
G01X4371500Y4712000D01*
G01X4371500Y4718000D01*
G01X4360500Y4718000D01*
G37*
G54D11*
G01X4405500Y4734000D02*
G01X4411500Y4728000D01*
G54D29*
G36*
G01X4408500Y4731000D02*
G01X4408500Y4725000D01*
G01X4430500Y4725000D01*
G01X4430500Y4731000D01*
G01X4408500Y4731000D01*
G37*
G54D11*
G01X4396500Y4727000D02*
G01X4403500Y4734000D01*
G01X4403500Y4734000D02*
G01X4405500Y4734000D01*
G01X4368500Y4728000D02*
G01X4374500Y4734000D01*
G54D29*
G36*
G01X4360500Y4731000D02*
G01X4360500Y4725000D01*
G01X4371500Y4725000D01*
G01X4371500Y4731000D01*
G01X4360500Y4731000D01*
G37*
G54D11*
G01X4374500Y4734000D02*
G01X4405500Y4734000D01*
G01X4389500Y4734000D02*
G01X4396500Y4727000D01*
G01X4384500Y4727000D02*
G01X4391500Y4734000D01*
G01X4377500Y4734000D02*
G01X4384500Y4727000D01*
G01X4311000Y4755000D02*
G01X4318000Y4762000D01*
G54D29*
G36*
G01X4315000Y4765000D02*
G01X4315000Y4759000D01*
G01X4336000Y4759000D01*
G01X4336000Y4765000D01*
G01X4315000Y4765000D01*
G37*
G54D11*
G01X4274000Y4762000D02*
G01X4281000Y4755000D01*
G54D29*
G36*
G01X4266000Y4765000D02*
G01X4266000Y4759000D01*
G01X4277000Y4759000D01*
G01X4277000Y4765000D01*
G01X4266000Y4765000D01*
G37*
G54D11*
G01X4281000Y4755000D02*
G01X4311000Y4755000D01*
G01X4302000Y4761000D02*
G01X4308000Y4755000D01*
G01X4296000Y4755000D02*
G01X4302000Y4761000D01*
G01X4284000Y4755000D02*
G01X4290000Y4761000D01*
G01X4290000Y4761000D02*
G01X4296000Y4755000D01*
G01X4280000Y4781000D02*
G01X4311000Y4781000D01*
G01X4309000Y4781000D02*
G01X4311000Y4781000D01*
G01X4274000Y4775000D02*
G01X4280000Y4781000D01*
G54D29*
G36*
G01X4266000Y4778000D02*
G01X4266000Y4772000D01*
G01X4277000Y4772000D01*
G01X4277000Y4778000D01*
G01X4266000Y4778000D01*
G37*
G54D11*
G01X4311000Y4781000D02*
G01X4317000Y4775000D01*
G54D29*
G36*
G01X4314000Y4778000D02*
G01X4314000Y4772000D01*
G01X4336000Y4772000D01*
G01X4336000Y4778000D01*
G01X4314000Y4778000D01*
G37*
G54D11*
G01X4302000Y4774000D02*
G01X4309000Y4781000D01*
G01X4295000Y4781000D02*
G01X4302000Y4774000D01*
G01X4290000Y4774000D02*
G01X4297000Y4781000D01*
G01X4283000Y4781000D02*
G01X4290000Y4774000D01*
G01X4365500Y4793000D02*
G01X4395500Y4793000D01*
G01X4358500Y4813000D02*
G01X4364500Y4819000D01*
G54D29*
G36*
G01X4350500Y4816000D02*
G01X4350500Y4810000D01*
G01X4361500Y4810000D01*
G01X4361500Y4816000D01*
G01X4350500Y4816000D01*
G37*
G54D11*
G01X4379500Y4819000D02*
G01X4386500Y4812000D01*
G01X4374500Y4812000D02*
G01X4381500Y4819000D01*
G01X4367500Y4819000D02*
G01X4374500Y4812000D01*
G01X4358500Y4800000D02*
G01X4365500Y4793000D01*
G01X4368500Y4793000D02*
G01X4374500Y4799000D01*
G54D29*
G36*
G01X4350500Y4803000D02*
G01X4350500Y4797000D01*
G01X4361500Y4797000D01*
G01X4361500Y4803000D01*
G01X4350500Y4803000D01*
G37*
G54D11*
G01X4386500Y4799000D02*
G01X4392500Y4793000D01*
G01X4380500Y4793000D02*
G01X4386500Y4799000D01*
G01X4374500Y4799000D02*
G01X4380500Y4793000D01*
G01X4395500Y4793000D02*
G01X4402500Y4800000D01*
G54D29*
G36*
G01X4399500Y4803000D02*
G01X4399500Y4797000D01*
G01X4420500Y4797000D01*
G01X4420500Y4803000D01*
G01X4399500Y4803000D01*
G37*
G36*
G01X4398500Y4816000D02*
G01X4398500Y4810000D01*
G01X4420500Y4810000D01*
G01X4420500Y4816000D01*
G01X4398500Y4816000D01*
G37*
G54D11*
G01X4364500Y4819000D02*
G01X4395500Y4819000D01*
G01X4395500Y4819000D02*
G01X4401500Y4813000D01*
G01X4386500Y4812000D02*
G01X4393500Y4819000D01*
G01X4393500Y4819000D02*
G01X4395500Y4819000D01*
G54D29*
G36*
G01X5438980Y5349610D02*
G01X5432680Y5349610D01*
G01X5432680Y5331500D01*
G01X5438980Y5331500D01*
G01X5438980Y5349610D01*
G37*
G36*
G01X5425200Y5349610D02*
G01X5418900Y5349610D01*
G01X5418900Y5331500D01*
G01X5425200Y5331500D01*
G01X5425200Y5349610D01*
G37*
G36*
G01X5411420Y5349610D02*
G01X5405120Y5349610D01*
G01X5405120Y5331500D01*
G01X5411420Y5331500D01*
G01X5411420Y5349610D01*
G37*
G36*
G01X5397640Y5349610D02*
G01X5391340Y5349610D01*
G01X5391340Y5331500D01*
G01X5397640Y5331500D01*
G01X5397640Y5349610D01*
G37*
G36*
G01X5383860Y5349610D02*
G01X5377560Y5349610D01*
G01X5377560Y5331500D01*
G01X5383860Y5331500D01*
G01X5383860Y5349610D01*
G37*
G36*
G01X5494090Y5335830D02*
G01X5479920Y5335830D01*
G01X5479920Y5307870D01*
G01X5494090Y5307870D01*
G01X5494090Y5335830D01*
G37*
G36*
G01X5494090Y5298430D02*
G01X5479920Y5298430D01*
G01X5479920Y5270470D01*
G01X5494090Y5270470D01*
G01X5494090Y5298430D01*
G37*
G36*
G01X5370080Y5349610D02*
G01X5363780Y5349610D01*
G01X5363780Y5331500D01*
G01X5370080Y5331500D01*
G01X5370080Y5349610D01*
G37*
G36*
G01X5356300Y5349610D02*
G01X5350000Y5349610D01*
G01X5350000Y5331500D01*
G01X5356300Y5331500D01*
G01X5356300Y5349610D01*
G37*
G36*
G01X5342520Y5349610D02*
G01X5336220Y5349610D01*
G01X5336220Y5331500D01*
G01X5342520Y5331500D01*
G01X5342520Y5349610D01*
G37*
G36*
G01X5328740Y5349610D02*
G01X5322440Y5349610D01*
G01X5322440Y5331500D01*
G01X5328740Y5331500D01*
G01X5328740Y5349610D01*
G37*
G36*
G01X5314960Y5349610D02*
G01X5308660Y5349610D01*
G01X5308660Y5331500D01*
G01X5314960Y5331500D01*
G01X5314960Y5349610D01*
G37*
G36*
G01X5301180Y5349610D02*
G01X5294880Y5349610D01*
G01X5294880Y5331500D01*
G01X5301180Y5331500D01*
G01X5301180Y5349610D01*
G37*
G36*
G01X5287400Y5349610D02*
G01X5281100Y5349610D01*
G01X5281100Y5331500D01*
G01X5287400Y5331500D01*
G01X5287400Y5349610D01*
G37*
G36*
G01X5273620Y5349610D02*
G01X5267320Y5349610D01*
G01X5267320Y5331500D01*
G01X5273620Y5331500D01*
G01X5273620Y5349610D01*
G37*
G36*
G01X5259840Y5349610D02*
G01X5253540Y5349610D01*
G01X5253540Y5331500D01*
G01X5259840Y5331500D01*
G01X5259840Y5349610D01*
G37*
G36*
G01X5246060Y5349610D02*
G01X5239760Y5349610D01*
G01X5239760Y5331500D01*
G01X5246060Y5331500D01*
G01X5246060Y5349610D01*
G37*
G36*
G01X5232280Y5349610D02*
G01X5225980Y5349610D01*
G01X5225980Y5331500D01*
G01X5232280Y5331500D01*
G01X5232280Y5349610D01*
G37*
G36*
G01X5218500Y5349610D02*
G01X5212200Y5349610D01*
G01X5212200Y5331500D01*
G01X5218500Y5331500D01*
G01X5218500Y5349610D01*
G37*
G36*
G01X5204720Y5349610D02*
G01X5198430Y5349610D01*
G01X5198430Y5331500D01*
G01X5204720Y5331500D01*
G01X5204720Y5349610D01*
G37*
G36*
G01X5190940Y5349610D02*
G01X5184650Y5349610D01*
G01X5184650Y5331500D01*
G01X5190940Y5331500D01*
G01X5190940Y5349610D01*
G37*
G36*
G01X5177170Y5349610D02*
G01X5170870Y5349610D01*
G01X5170870Y5331500D01*
G01X5177170Y5331500D01*
G01X5177170Y5349610D01*
G37*
G36*
G01X5163390Y5349610D02*
G01X5157090Y5349610D01*
G01X5157090Y5331500D01*
G01X5163390Y5331500D01*
G01X5163390Y5349610D01*
G37*
G36*
G01X5149610Y5349610D02*
G01X5143310Y5349610D01*
G01X5143310Y5331500D01*
G01X5149610Y5331500D01*
G01X5149610Y5349610D01*
G37*
G36*
G01X5135830Y5349610D02*
G01X5129530Y5349610D01*
G01X5129530Y5331500D01*
G01X5135830Y5331500D01*
G01X5135830Y5349610D01*
G37*
G36*
G01X5122050Y5349610D02*
G01X5115750Y5349610D01*
G01X5115750Y5331500D01*
G01X5122050Y5331500D01*
G01X5122050Y5349610D01*
G37*
G36*
G01X5108270Y5349610D02*
G01X5101970Y5349610D01*
G01X5101970Y5331500D01*
G01X5108270Y5331500D01*
G01X5108270Y5349610D01*
G37*
G36*
G01X5094490Y5349610D02*
G01X5088190Y5349610D01*
G01X5088190Y5331500D01*
G01X5094490Y5331500D01*
G01X5094490Y5349610D01*
G37*
G36*
G01X5080710Y5349610D02*
G01X5074410Y5349610D01*
G01X5074410Y5331500D01*
G01X5080710Y5331500D01*
G01X5080710Y5349610D01*
G37*
G36*
G01X5066930Y5349610D02*
G01X5060630Y5349610D01*
G01X5060630Y5331500D01*
G01X5066930Y5331500D01*
G01X5066930Y5349610D01*
G37*
G36*
G01X5053150Y5349610D02*
G01X5046850Y5349610D01*
G01X5046850Y5331500D01*
G01X5053150Y5331500D01*
G01X5053150Y5349610D01*
G37*
G36*
G01X5039370Y5349610D02*
G01X5033070Y5349610D01*
G01X5033070Y5331500D01*
G01X5039370Y5331500D01*
G01X5039370Y5349610D01*
G37*
G36*
G01X4992130Y5335830D02*
G01X4977950Y5335830D01*
G01X4977950Y5307870D01*
G01X4992130Y5307870D01*
G01X4992130Y5335830D01*
G37*
G36*
G01X5438980Y5272830D02*
G01X5432680Y5272830D01*
G01X5432680Y5254720D01*
G01X5438980Y5254720D01*
G01X5438980Y5272830D01*
G37*
G36*
G01X5425200Y5272830D02*
G01X5418900Y5272830D01*
G01X5418900Y5254720D01*
G01X5425200Y5254720D01*
G01X5425200Y5272830D01*
G37*
G36*
G01X5411420Y5272830D02*
G01X5405120Y5272830D01*
G01X5405120Y5254720D01*
G01X5411420Y5254720D01*
G01X5411420Y5272830D01*
G37*
G36*
G01X5397640Y5272830D02*
G01X5391340Y5272830D01*
G01X5391340Y5254720D01*
G01X5397640Y5254720D01*
G01X5397640Y5272830D01*
G37*
G36*
G01X5383860Y5272830D02*
G01X5377560Y5272830D01*
G01X5377560Y5254720D01*
G01X5383860Y5254720D01*
G01X5383860Y5272830D01*
G37*
G36*
G01X5370080Y5272830D02*
G01X5363780Y5272830D01*
G01X5363780Y5254720D01*
G01X5370080Y5254720D01*
G01X5370080Y5272830D01*
G37*
G36*
G01X5356300Y5272830D02*
G01X5350000Y5272830D01*
G01X5350000Y5254720D01*
G01X5356300Y5254720D01*
G01X5356300Y5272830D01*
G37*
G36*
G01X5342520Y5272830D02*
G01X5336220Y5272830D01*
G01X5336220Y5254720D01*
G01X5342520Y5254720D01*
G01X5342520Y5272830D01*
G37*
G36*
G01X5328740Y5272830D02*
G01X5322440Y5272830D01*
G01X5322440Y5254720D01*
G01X5328740Y5254720D01*
G01X5328740Y5272830D01*
G37*
G36*
G01X5314960Y5272830D02*
G01X5308660Y5272830D01*
G01X5308660Y5254720D01*
G01X5314960Y5254720D01*
G01X5314960Y5272830D01*
G37*
G36*
G01X5301180Y5272830D02*
G01X5294880Y5272830D01*
G01X5294880Y5254720D01*
G01X5301180Y5254720D01*
G01X5301180Y5272830D01*
G37*
G36*
G01X5287400Y5272830D02*
G01X5281100Y5272830D01*
G01X5281100Y5254720D01*
G01X5287400Y5254720D01*
G01X5287400Y5272830D01*
G37*
G36*
G01X5273620Y5272830D02*
G01X5267320Y5272830D01*
G01X5267320Y5254720D01*
G01X5273620Y5254720D01*
G01X5273620Y5272830D01*
G37*
G36*
G01X5259840Y5272830D02*
G01X5253540Y5272830D01*
G01X5253540Y5254720D01*
G01X5259840Y5254720D01*
G01X5259840Y5272830D01*
G37*
G36*
G01X5246060Y5272830D02*
G01X5239760Y5272830D01*
G01X5239760Y5254720D01*
G01X5246060Y5254720D01*
G01X5246060Y5272830D01*
G37*
G36*
G01X5232280Y5272830D02*
G01X5225980Y5272830D01*
G01X5225980Y5254720D01*
G01X5232280Y5254720D01*
G01X5232280Y5272830D01*
G37*
G36*
G01X5218500Y5272830D02*
G01X5212200Y5272830D01*
G01X5212200Y5254720D01*
G01X5218500Y5254720D01*
G01X5218500Y5272830D01*
G37*
G36*
G01X5204720Y5272830D02*
G01X5198430Y5272830D01*
G01X5198430Y5254720D01*
G01X5204720Y5254720D01*
G01X5204720Y5272830D01*
G37*
G36*
G01X5190940Y5272830D02*
G01X5184650Y5272830D01*
G01X5184650Y5254720D01*
G01X5190940Y5254720D01*
G01X5190940Y5272830D01*
G37*
G36*
G01X5177170Y5272830D02*
G01X5170870Y5272830D01*
G01X5170870Y5254720D01*
G01X5177170Y5254720D01*
G01X5177170Y5272830D01*
G37*
G36*
G01X5163390Y5272830D02*
G01X5157090Y5272830D01*
G01X5157090Y5254720D01*
G01X5163390Y5254720D01*
G01X5163390Y5272830D01*
G37*
G36*
G01X5149610Y5272830D02*
G01X5143310Y5272830D01*
G01X5143310Y5254720D01*
G01X5149610Y5254720D01*
G01X5149610Y5272830D01*
G37*
G36*
G01X5135830Y5272830D02*
G01X5129530Y5272830D01*
G01X5129530Y5254720D01*
G01X5135830Y5254720D01*
G01X5135830Y5272830D01*
G37*
G36*
G01X5122050Y5272830D02*
G01X5115750Y5272830D01*
G01X5115750Y5254720D01*
G01X5122050Y5254720D01*
G01X5122050Y5272830D01*
G37*
G36*
G01X5108270Y5272830D02*
G01X5101970Y5272830D01*
G01X5101970Y5254720D01*
G01X5108270Y5254720D01*
G01X5108270Y5272830D01*
G37*
G36*
G01X5094490Y5272830D02*
G01X5088190Y5272830D01*
G01X5088190Y5254720D01*
G01X5094490Y5254720D01*
G01X5094490Y5272830D01*
G37*
G36*
G01X5080710Y5272830D02*
G01X5074410Y5272830D01*
G01X5074410Y5254720D01*
G01X5080710Y5254720D01*
G01X5080710Y5272830D01*
G37*
G36*
G01X5066930Y5272830D02*
G01X5060630Y5272830D01*
G01X5060630Y5254720D01*
G01X5066930Y5254720D01*
G01X5066930Y5272830D01*
G37*
G36*
G01X5053150Y5272830D02*
G01X5046850Y5272830D01*
G01X5046850Y5254720D01*
G01X5053150Y5254720D01*
G01X5053150Y5272830D01*
G37*
G36*
G01X5039370Y5272830D02*
G01X5033070Y5272830D01*
G01X5033070Y5254720D01*
G01X5039370Y5254720D01*
G01X5039370Y5272830D01*
G37*
G36*
G01X4992130Y5298430D02*
G01X4977950Y5298430D01*
G01X4977950Y5270470D01*
G01X4992130Y5270470D01*
G01X4992130Y5298430D01*
G37*
G54D21*
G01X4580000Y4555000D03*
G01X4615000Y4555000D03*
G01X5280000Y4615000D03*
G01X5310000Y4615000D03*
G01X5375000Y4645000D03*
G01X5340000Y4680000D03*
G01X4805000Y4820000D03*
G01X4815000Y4855000D03*
G01X5310000Y4740000D03*
G01X5280000Y4765000D03*
G01X5250000Y4725000D03*
G01X5215000Y4810000D03*
G01X5180000Y4310000D03*
G01X5015000Y4120000D03*
G01X5115000Y4355000D03*
G01X5215000Y4310000D03*
G01X4790000Y4265000D03*
G01X4790000Y4330000D03*
G01X5250000Y4310000D03*
G01X5285000Y4310000D03*
G01X5320000Y4310000D03*
G01X5355000Y4310000D03*
G01X5765000Y3418000D03*
G54D35*
G01X5784000Y3452000D03*
G54D21*
G01X5737000Y3410000D03*
G01X5836000Y3359000D03*
G01X5880000Y3359000D03*
G01X5824000Y3417000D03*
G01X5915000Y3380000D03*
G54D35*
G01X5897000Y3420000D03*
G54D23*
G01X6100000Y3470000D03*
G54D21*
G01X5848000Y3428000D03*
G01X5706000Y3401000D03*
G01X5970000Y3570000D03*
G01X6140000Y3565000D03*
G01X6225000Y3565000D03*
G01X4680000Y4680000D03*
G01X4650000Y4665000D03*
G01X4580000Y4810000D03*
G01X4715000Y4780000D03*
G01X4650000Y4805000D03*
G01X4715000Y4875000D03*
G01X4725000Y4915000D03*
G01X4230000Y4935000D03*
G01X4385000Y4895000D03*
G01X4650000Y4940000D03*
G01X4695000Y4935000D03*
G01X4405000Y4990000D03*
G01X4615000Y4960000D03*
G01X4590000Y5100000D03*
G01X4620000Y5005000D03*
G01X4945000Y5080000D03*
G01X4975000Y5045000D03*
G01X4770000Y4810000D03*
G01X4770000Y4895000D03*
G01X4580000Y4030000D03*
G01X4615000Y4030000D03*
G01X4650000Y4030000D03*
G01X4580000Y4310000D03*
G01X4615000Y4310000D03*
G01X4650000Y4265000D03*
G01X4755000Y4045000D03*
G01X4720000Y4045000D03*
G01X4685000Y4160000D03*
G01X4720000Y4200000D03*
G01X4755000Y4160000D03*
G01X4790000Y4125000D03*
G01X4685000Y4020000D03*
G01X4490000Y3995000D03*
G01X4425000Y3975000D03*
G01X4594140Y3910860D03*
G01X4580000Y3660000D03*
G01X4615000Y3660000D03*
G01X4645000Y3380000D03*
G01X4580000Y3380000D03*
G01X4615000Y3380000D03*
G01X4675000Y3380000D03*
G01X4645000Y3615000D03*
G01X4440000Y3660000D03*
G01X4675000Y3565000D03*
G01X4705000Y3530000D03*
G01X4740000Y3515000D03*
G01X4705000Y3435000D03*
G01X4740000Y3435000D03*
G01X5180000Y3660000D03*
G01X5215000Y3660000D03*
G01X5250000Y3660000D03*
G01X5280000Y3660000D03*
G01X5310000Y3660000D03*
G01X5340000Y3660000D03*
G01X4950000Y5005000D03*
G01X5280000Y5015000D03*
G01X5310000Y5015000D03*
G01X5185000Y4940000D03*
G01X5523620Y5649610D03*
G54D35*
G01X5507870Y5381890D03*
G54D21*
G01X5468500Y5625980D03*
G01X6334650Y5625980D03*
G01X6389760Y5649610D03*
G01X5437010Y5704720D03*
G01X5405510Y5736220D03*
G01X5885830Y5685040D03*
G01X6271650Y5736220D03*
G01X6303150Y5704720D03*
G01X6074800Y5299210D03*
G01X6228350Y5303150D03*
G01X6118110Y5377950D03*
G01X6019690Y5393700D03*
G01X5901570Y5452760D03*
G01X5881890Y5429130D03*
G01X6047240Y5381890D03*
G01X5834650Y5377950D03*
G01X6165350Y5397640D03*
G01X6196850Y5397640D03*
G54D35*
G01X6374020Y5381890D03*
G54D21*
G01X4968500Y5377950D03*
G01X5015750Y5429130D03*
G01X5035430Y5452760D03*
G01X5019690Y5685040D03*
G01X5181100Y5381890D03*
G01X5153540Y5393700D03*
G01X5251970Y5377950D03*
G01X5208660Y5299210D03*
G01X5362200Y5303150D03*
G01X5330710Y5397640D03*
G01X5299210Y5397640D03*
G01X5055000Y5225000D03*
G01X5110000Y5225000D03*
G01X0000000Y0000000D02*
G54D20*
G01X5777560Y6553150D02*
G01X5984250Y6553150D01*
G01X7549210Y6553150D02*
G01X7755910Y6553150D01*
G01X5984250Y6553150D02*
G01X5984250Y6080710D01*
G01X5984250Y6080710D02*
G01X6564960Y6080710D01*
G01X6958660Y6080710D02*
G01X7549210Y6080710D01*
G01X6564960Y6080710D02*
G01X6564960Y6946850D01*
G01X6564960Y6946850D02*
G01X6574800Y6956690D01*
G01X6574800Y6956690D02*
G01X6948820Y6956690D01*
G01X6948820Y6956690D02*
G01X6958660Y6946850D01*
G01X6958660Y6946850D02*
G01X6958660Y6080710D01*
G01X7549210Y6080710D02*
G01X7549210Y6553150D01*
G01X7755910Y6553150D02*
G01X7755910Y6159450D01*
G01X7755910Y6159450D02*
G01X8001970Y6159450D01*
G01X8001970Y6159450D02*
G01X8001970Y2143700D01*
G01X8001970Y2143700D02*
G01X7755910Y2143700D01*
G01X7755910Y2143700D02*
G01X7755910Y2891730D01*
G01X3200790Y6220470D02*
G01X3204720Y6224410D01*
G01X3204720Y6224410D02*
G01X4066930Y6224410D01*
G01X4066930Y6224410D02*
G01X4066930Y6086610D01*
G01X4066930Y6086610D02*
G01X4072830Y6080710D01*
G01X4072830Y6080710D02*
G01X5777560Y6080710D01*
G01X5777560Y6080710D02*
G01X5777560Y6553150D01*
G01X0484250Y6220470D02*
G01X3200790Y6220470D01*
G01X7755910Y2891730D02*
G01X0484250Y2891730D01*
G01X0484250Y2891730D02*
G01X0484250Y6220470D01*
G01X0000000Y0000000D02*
G54D47*
G01X7913390Y2291340D03*
G54D48*
G01X7854330Y2251970D03*
G54D49*
G01X7948820Y2216540D03*
G54D50*
G01X7889760Y2220470D03*
G54D47*
G01X7913390Y3708660D03*
G54D49*
G01X7948820Y3633860D03*
G54D50*
G01X7889760Y3637800D03*
G54D48*
G01X7854330Y3669290D03*
G54D47*
G01X7913390Y3551180D03*
G54D49*
G01X7948820Y3476380D03*
G54D50*
G01X7889760Y3480310D03*
G54D47*
G01X7913390Y3393700D03*
G54D49*
G01X7948820Y3318900D03*
G54D50*
G01X7889760Y3322830D03*
G54D48*
G01X7854330Y3354330D03*
G01X7854330Y3511810D03*
G54D47*
G01X7913390Y3236220D03*
G54D48*
G01X7854330Y3196850D03*
G54D49*
G01X7948820Y3161420D03*
G54D50*
G01X7889760Y3165350D03*
G54D47*
G01X7913390Y3078740D03*
G54D49*
G01X7948820Y3003940D03*
G54D50*
G01X7889760Y3007870D03*
G54D48*
G01X7854330Y3039370D03*
G54D47*
G01X7913390Y2921260D03*
G54D51*
G01X7342520Y3304530D03*
G01X7194880Y3304530D03*
G01X7342520Y2979530D03*
G01X7194880Y2979530D03*
G01X7194880Y2654530D03*
G54D49*
G01X7948820Y2846460D03*
G54D50*
G01X7889760Y2850390D03*
G54D47*
G01X7913390Y2763780D03*
G54D48*
G01X7854330Y2724410D03*
G01X7854330Y2881890D03*
G54D49*
G01X7948820Y2688980D03*
G54D50*
G01X7889760Y2692910D03*
G54D47*
G01X7913390Y2606300D03*
G54D49*
G01X7948820Y2531500D03*
G54D50*
G01X7889760Y2535430D03*
G54D48*
G01X7854330Y2566930D03*
G54D47*
G01X7913390Y2448820D03*
G54D49*
G01X7948820Y2374020D03*
G54D50*
G01X7889760Y2377950D03*
G54D48*
G01X7854330Y2409450D03*
G54D47*
G01X7913390Y6070870D03*
G54D49*
G01X7948820Y5996060D03*
G54D50*
G01X7889760Y6000000D03*
G54D48*
G01X7854330Y6031500D03*
G54D47*
G01X7913390Y5913390D03*
G54D49*
G01X7948820Y5838580D03*
G54D50*
G01X7889760Y5842520D03*
G54D48*
G01X7854330Y5874020D03*
G54D47*
G01X7913390Y4653540D03*
G54D49*
G01X7948820Y4578740D03*
G54D50*
G01X7889760Y4582680D03*
G54D48*
G01X7854330Y4614170D03*
G54D47*
G01X7913390Y4496060D03*
G54D49*
G01X7948820Y4421260D03*
G54D50*
G01X7889760Y4425200D03*
G54D48*
G01X7854330Y4456690D03*
G54D47*
G01X7913390Y4811020D03*
G54D49*
G01X7948820Y4736220D03*
G54D50*
G01X7889760Y4740160D03*
G54D48*
G01X7854330Y4771650D03*
G54D47*
G01X7913390Y4968500D03*
G54D49*
G01X7948820Y4893700D03*
G54D50*
G01X7889760Y4897640D03*
G54D48*
G01X7854330Y4929130D03*
G54D47*
G01X7913390Y5125980D03*
G01X7913390Y5283460D03*
G54D49*
G01X7948820Y5208660D03*
G54D50*
G01X7889760Y5212600D03*
G54D48*
G01X7854330Y5244090D03*
G54D49*
G01X7948820Y5051180D03*
G54D50*
G01X7889760Y5055120D03*
G54D48*
G01X7854330Y5086610D03*
G54D47*
G01X7913390Y5755910D03*
G54D49*
G01X7948820Y5681100D03*
G54D47*
G01X7913390Y5598430D03*
G54D48*
G01X7854330Y5559060D03*
G54D50*
G01X7889760Y5685040D03*
G54D48*
G01X7854330Y5716540D03*
G54D49*
G01X7948820Y5523620D03*
G54D50*
G01X7889760Y5527560D03*
G54D47*
G01X7913390Y5440940D03*
G54D49*
G01X7948820Y5366140D03*
G54D50*
G01X7889760Y5370080D03*
G54D48*
G01X7854330Y5401570D03*
G54D47*
G01X7913390Y4338580D03*
G54D49*
G01X7948820Y4263780D03*
G54D50*
G01X7889760Y4267720D03*
G54D48*
G01X7854330Y4299210D03*
G01X7854330Y4141730D03*
G54D47*
G01X7913390Y4181100D03*
G54D49*
G01X7948820Y4106300D03*
G54D50*
G01X7889760Y4110240D03*
G54D47*
G01X7913390Y4023620D03*
G54D49*
G01X7948820Y3948820D03*
G54D50*
G01X7889760Y3952760D03*
G54D47*
G01X7913390Y3866140D03*
G54D49*
G01X7948820Y3791340D03*
G54D50*
G01X7889760Y3795280D03*
G54D48*
G01X7854330Y3826770D03*
G01X7854330Y3984250D03*
G54D51*
G01X7342520Y3954530D03*
G01X7342520Y4279530D03*
G01X7342520Y4604530D03*
G01X7342520Y4929530D03*
G01X7342520Y5254530D03*
G01X7342520Y5579530D03*
G01X7342520Y5904530D03*
G01X7342520Y2654530D03*
G01X7342520Y3629530D03*
G01X7194880Y3629530D03*
G01X7194880Y3954530D03*
G01X7194880Y4279530D03*
G01X7194880Y4604530D03*
G01X7194880Y4929530D03*
G01X7194880Y5254530D03*
G01X7194880Y5579530D03*
G01X7194880Y5904530D03*
G54D29*
G36*
G01X7567000Y6533000D02*
G01X7567000Y6467000D01*
G01X7633000Y6467000D01*
G01X7633000Y6533000D01*
G01X7567000Y6533000D01*
G37*
G54D52*
G01X7700000Y6500000D03*
G01X7600000Y6400000D03*
G01X7700000Y6400000D03*
G54D53*
G01X6712600Y4840550D03*
G01X6712600Y4643700D03*
G01X6712600Y4446850D03*
G01X6712600Y4250000D03*
G01X6712600Y4053150D03*
G01X6712600Y3856300D03*
G01X6712600Y3659450D03*
G01X6712600Y3462600D03*
G54D51*
G01X6820870Y3305310D03*
G01X6820870Y2980310D03*
G01X6820870Y2655310D03*
G01X6820870Y3630310D03*
G01X6820870Y3955310D03*
G01X6820870Y4280310D03*
G01X6820870Y4605310D03*
G01X6820870Y4930310D03*
G54D29*
G36*
G01X5797000Y6533000D02*
G01X5797000Y6467000D01*
G01X5863000Y6467000D01*
G01X5863000Y6533000D01*
G01X5797000Y6533000D01*
G37*
G54D52*
G01X5830000Y6400000D03*
G01X5930000Y6400000D03*
G01X5930000Y6500000D03*
G54D29*
G36*
G01X6877000Y6938000D02*
G01X6877000Y6872000D01*
G01X6943000Y6872000D01*
G01X6943000Y6938000D01*
G01X6877000Y6938000D01*
G37*
G54D52*
G01X6910000Y6805000D03*
G01X6910000Y6705000D03*
G54D29*
G36*
G01X6582000Y6933000D02*
G01X6582000Y6867000D01*
G01X6648000Y6867000D01*
G01X6648000Y6933000D01*
G01X6582000Y6933000D01*
G37*
G54D52*
G01X6615000Y6800000D03*
G01X6615000Y6700000D03*
G01X6910000Y6605000D03*
G01X6615000Y6600000D03*
G01X6910000Y6505000D03*
G01X6615000Y6500000D03*
G01X6910000Y6405000D03*
G01X6615000Y6400000D03*
G01X6910000Y6305000D03*
G01X6615000Y6300000D03*
G01X6910000Y6205000D03*
G01X6615000Y6200000D03*
G54D53*
G01X6338580Y5037400D03*
G01X6338580Y4840550D03*
G01X6338580Y4643700D03*
G01X6338580Y4446850D03*
G01X6338580Y4250000D03*
G01X6338580Y4053150D03*
G01X6338580Y3856300D03*
G01X5944880Y5037400D03*
G01X5944880Y4840550D03*
G01X5944880Y4643700D03*
G01X5944880Y4446850D03*
G01X5944880Y4250000D03*
G01X5944880Y4053150D03*
G01X5944880Y3856300D03*
G01X5944880Y3659450D03*
G01X5944880Y3462600D03*
G54D52*
G01X5950000Y3295000D03*
G01X5950000Y3195000D03*
G01X6050000Y3195000D03*
G01X6050000Y3295000D03*
G01X6150000Y3195000D03*
G01X6150000Y3295000D03*
G01X6250000Y3195000D03*
G01X6350000Y3195000D03*
G01X6450000Y3195000D03*
G01X6550000Y3195000D03*
G01X6650000Y3195000D03*
G01X6250000Y3295000D03*
G01X6350000Y3295000D03*
G01X6450000Y3295000D03*
G01X6550000Y3295000D03*
G01X6650000Y3295000D03*
G54D53*
G01X6338580Y3659450D03*
G01X6338580Y3462600D03*
G54D29*
G36*
G01X5717000Y2993000D02*
G01X5717000Y2927000D01*
G01X5783000Y2927000D01*
G01X5783000Y2993000D01*
G01X5717000Y2993000D01*
G37*
G54D52*
G01X5850000Y2960000D03*
G01X5950000Y2960000D03*
G01X5750000Y3060000D03*
G01X5850000Y3060000D03*
G01X5950000Y3060000D03*
G01X6050000Y3060000D03*
G01X6150000Y3060000D03*
G01X6250000Y3060000D03*
G54D29*
G36*
G01X5717000Y3228000D02*
G01X5717000Y3162000D01*
G01X5783000Y3162000D01*
G01X5783000Y3228000D01*
G01X5717000Y3228000D01*
G37*
G54D52*
G01X5750000Y3295000D03*
G01X5850000Y3195000D03*
G01X5850000Y3295000D03*
G01X6050000Y2960000D03*
G01X6150000Y2960000D03*
G01X6250000Y2960000D03*
G01X6350000Y3060000D03*
G01X6450000Y3060000D03*
G01X6550000Y3060000D03*
G01X6350000Y2960000D03*
G01X6450000Y2960000D03*
G01X6550000Y2960000D03*
G01X6650000Y2960000D03*
G01X6650000Y3060000D03*
G54D49*
G01X5235040Y4567870D03*
G01X5235040Y5071810D03*
G01X5235040Y4421810D03*
G54D54*
G01X5100000Y5079690D03*
G54D55*
G01X4875200Y5095430D03*
G01X4875200Y4995040D03*
G54D54*
G01X5100000Y4560000D03*
G01X5100000Y4429690D03*
G54D55*
G01X5135430Y4799760D03*
G01X5135430Y4880080D03*
G01X5135430Y4960390D03*
G01X5064570Y4839920D03*
G01X5064570Y4920240D03*
G01X5064570Y4759610D03*
G01X5135430Y4719450D03*
G01X4875200Y4644650D03*
G01X4875200Y4544250D03*
G01X5064570Y4679290D03*
G01X4875200Y4445430D03*
G01X4724800Y4544250D03*
G01X4724800Y4644650D03*
G01X4724800Y4345040D03*
G01X4724800Y4445430D03*
G01X4724800Y4995040D03*
G01X4724800Y5095430D03*
G54D49*
G01X4364960Y5071810D03*
G54D54*
G01X4500000Y5079690D03*
G54D55*
G01X4464570Y4839920D03*
G01X4535430Y4799760D03*
G01X4535430Y4880080D03*
G01X4464570Y4920240D03*
G01X4535430Y4960390D03*
G54D56*
G01X4342520Y5322830D03*
G01X4625980Y5322830D03*
G54D55*
G01X4464570Y4759610D03*
G01X4535430Y4719450D03*
G54D49*
G01X4364960Y4567870D03*
G54D54*
G01X4500000Y4560000D03*
G54D55*
G01X4464570Y4679290D03*
G54D49*
G01X4364960Y4421810D03*
G54D54*
G01X4500000Y4429690D03*
G54D57*
G01X4881890Y5224410D03*
G01X4881890Y5381890D03*
G54D52*
G01X4986100Y5479300D03*
G01X4986100Y5594300D03*
G01X5086100Y5579300D03*
G01X5086100Y5494300D03*
G01X5186100Y5479300D03*
G54D55*
G01X5064570Y3620240D03*
G01X4875200Y3795430D03*
G01X4875200Y3695040D03*
G01X4875200Y3994650D03*
G01X4875200Y3894250D03*
G01X5135430Y4149760D03*
G01X5135430Y4069450D03*
G01X5135430Y4230080D03*
G01X5135430Y4310390D03*
G01X4875200Y4345040D03*
G01X5064570Y4189920D03*
G01X5064570Y4270240D03*
G01X5064570Y4109610D03*
G01X5064570Y4029290D03*
G54D49*
G01X5235040Y3771810D03*
G54D54*
G01X5100000Y3779690D03*
G54D55*
G01X5135430Y3499760D03*
G01X5135430Y3580080D03*
G01X5135430Y3660390D03*
G01X5135430Y3419450D03*
G01X5064570Y3539920D03*
G01X5064570Y3459610D03*
G01X5064570Y3379290D03*
G54D49*
G01X5235040Y3917870D03*
G54D54*
G01X5100000Y3910000D03*
G54D55*
G01X4875200Y3344650D03*
G01X4875200Y3244250D03*
G54D49*
G01X5235040Y3267870D03*
G54D54*
G01X5100000Y3260000D03*
G54D55*
G01X4535430Y3419450D03*
G54D49*
G01X4364960Y3267870D03*
G54D54*
G01X4500000Y3260000D03*
G54D55*
G01X4724800Y3244250D03*
G01X4724800Y3344650D03*
G01X4724800Y3695040D03*
G01X4724800Y3795430D03*
G01X4724800Y3894250D03*
G01X4724800Y3994650D03*
G01X4464570Y3459610D03*
G01X4464570Y4189920D03*
G01X4464570Y4270240D03*
G01X4464570Y4109610D03*
G01X4464570Y4029290D03*
G01X4464570Y3379290D03*
G01X4535430Y3499760D03*
G01X4535430Y4149760D03*
G01X4535430Y4069450D03*
G01X4535430Y4230080D03*
G01X4535430Y4310390D03*
G54D49*
G01X4364960Y3771810D03*
G54D54*
G01X4500000Y3779690D03*
G54D55*
G01X4464570Y3539920D03*
G01X4464570Y3620240D03*
G01X4535430Y3580080D03*
G01X4535430Y3660390D03*
G54D49*
G01X4364960Y3917870D03*
G54D54*
G01X4500000Y3910000D03*
G54D47*
G01X5236220Y5854330D03*
G54D58*
G01X5236220Y6011810D03*
G01X5078740Y5854330D03*
G01X5157480Y5990160D03*
G01X5098430Y5931100D03*
G01X5236220Y5696850D03*
G01X5393700Y5854330D03*
G01X5314960Y5718500D03*
G01X5374020Y5777560D03*
G01X5314960Y5990160D03*
G01X5157480Y5718500D03*
G54D52*
G01X5186100Y5594300D03*
G54D58*
G01X5098430Y5777560D03*
G01X5374020Y5931100D03*
G54D57*
G01X5590550Y5381890D03*
G01X5590550Y5224410D03*
G54D52*
G01X5386100Y5479300D03*
G01X5486100Y5494300D03*
G01X5486100Y5579300D03*
G01X5286100Y5494300D03*
G01X5286100Y5579300D03*
G01X5386100Y5594300D03*
G54D57*
G01X5748030Y5224410D03*
G01X5748030Y5381890D03*
G54D52*
G01X5852320Y5479330D03*
G01X5852320Y5594330D03*
G54D57*
G01X6456690Y5381890D03*
G01X6456690Y5224410D03*
G54D52*
G01X6352320Y5494330D03*
G01X6352320Y5579330D03*
G54D53*
G01X6712600Y5037400D03*
G54D51*
G01X6820870Y5255310D03*
G01X6820870Y5580310D03*
G01X6820870Y5905310D03*
G54D47*
G01X6102360Y5854330D03*
G54D58*
G01X6102360Y6011810D03*
G01X5944880Y5854330D03*
G01X6023620Y5990160D03*
G01X5964570Y5931100D03*
G01X6102360Y5696850D03*
G01X6259840Y5854330D03*
G01X6181100Y5718500D03*
G01X6240160Y5777560D03*
G54D52*
G01X6252320Y5594330D03*
G54D58*
G01X6181100Y5990160D03*
G01X6240160Y5931100D03*
G01X6023620Y5718500D03*
G01X5964570Y5777560D03*
G54D52*
G01X5952320Y5579330D03*
G01X6052320Y5594330D03*
G01X6152320Y5579330D03*
G01X5952320Y5494330D03*
G01X6052320Y5479330D03*
G01X6152320Y5494330D03*
G01X6252320Y5479330D03*
G01X3300000Y4200000D03*
G01X3400000Y4200000D03*
G01X3500000Y4200000D03*
G01X3600000Y4200000D03*
G01X3700000Y4200000D03*
G01X3800000Y4200000D03*
G01X3900000Y4200000D03*
G01X4000000Y4200000D03*
G01X3300000Y4950000D03*
G01X3400000Y4950000D03*
G01X3500000Y4950000D03*
G01X3600000Y4950000D03*
G01X3700000Y4950000D03*
G01X3800000Y4950000D03*
G01X3900000Y4950000D03*
G01X4000000Y4950000D03*
G01X4000000Y5400000D03*
G01X3900000Y5400000D03*
G01X3800000Y5400000D03*
G01X3700000Y5400000D03*
G01X3600000Y5400000D03*
G01X3500000Y5400000D03*
G01X3400000Y5400000D03*
G01X3300000Y5400000D03*
G01X2400000Y4200000D03*
G01X2500000Y4200000D03*
G01X2600000Y4200000D03*
G01X2700000Y4200000D03*
G01X2210000Y4200000D03*
G01X2210000Y4300000D03*
G01X2800000Y4200000D03*
G01X2900000Y4200000D03*
G01X3000000Y4200000D03*
G01X3100000Y4200000D03*
G01X2210000Y4400000D03*
G01X2210000Y4500000D03*
G01X2210000Y4600000D03*
G01X2210000Y4700000D03*
G01X2400000Y4700000D03*
G01X2500000Y4700000D03*
G01X2600000Y4700000D03*
G01X2700000Y4700000D03*
G01X2800000Y4700000D03*
G01X2900000Y4700000D03*
G01X3000000Y4700000D03*
G01X3100000Y4700000D03*
G01X3100000Y4950000D03*
G01X3000000Y4950000D03*
G01X3100000Y4850000D03*
G01X3000000Y4850000D03*
G01X2710000Y4850000D03*
G01X2610000Y4850000D03*
G01X2510000Y4850000D03*
G01X2410000Y4850000D03*
G01X2710000Y4950000D03*
G01X2610000Y4950000D03*
G01X2510000Y4950000D03*
G01X2410000Y4950000D03*
G01X2310000Y4950000D03*
G01X2310000Y4850000D03*
G01X2015000Y4950000D03*
G01X2015000Y4850000D03*
G01X1915000Y4950000D03*
G01X1915000Y4850000D03*
G01X1815000Y4950000D03*
G01X1815000Y4850000D03*
G01X1715000Y4950000D03*
G01X1715000Y4850000D03*
G01X1615000Y4950000D03*
G01X1325000Y4950000D03*
G01X1615000Y4850000D03*
G01X1325000Y4850000D03*
G01X1225000Y4850000D03*
G01X1225000Y4950000D03*
G01X1075000Y4950000D03*
G01X0975000Y4950000D03*
G01X0875000Y4950000D03*
G01X0775000Y4950000D03*
G01X0675000Y4950000D03*
G01X0575000Y4950000D03*
G01X1715000Y6150000D03*
G01X1815000Y6050000D03*
G01X1915000Y6050000D03*
G01X2015000Y6050000D03*
G01X1815000Y6150000D03*
G01X1915000Y6150000D03*
G01X2015000Y6150000D03*
G01X2310000Y6150000D03*
G01X2410000Y6150000D03*
G01X2510000Y6150000D03*
G01X4000000Y6150000D03*
G01X3900000Y6150000D03*
G01X3800000Y6150000D03*
G01X3700000Y6150000D03*
G01X3600000Y6150000D03*
G01X3500000Y6150000D03*
G01X3400000Y6150000D03*
G01X3300000Y6150000D03*
G01X2610000Y6150000D03*
G01X2710000Y6150000D03*
G01X3000000Y6150000D03*
G01X3100000Y6150000D03*
G01X2710000Y6050000D03*
G01X2900000Y5900000D03*
G01X2800000Y5900000D03*
G01X3000000Y6050000D03*
G01X3100000Y6050000D03*
G01X3100000Y5900000D03*
G01X3000000Y5900000D03*
G01X2700000Y5900000D03*
G01X3100000Y5400000D03*
G01X3000000Y5400000D03*
G01X2900000Y5400000D03*
G01X2800000Y5400000D03*
G01X2700000Y5400000D03*
G01X2310000Y6050000D03*
G01X2410000Y6050000D03*
G01X2510000Y6050000D03*
G01X2610000Y6050000D03*
G01X2600000Y5900000D03*
G01X2500000Y5900000D03*
G01X2400000Y5900000D03*
G01X2210000Y5900000D03*
G01X2210000Y5800000D03*
G01X2210000Y5700000D03*
G01X2210000Y5600000D03*
G01X2210000Y5500000D03*
G01X2210000Y5400000D03*
G01X2600000Y5400000D03*
G01X2500000Y5400000D03*
G01X2400000Y5400000D03*
G01X3300000Y3000000D03*
G01X3400000Y3000000D03*
G01X3500000Y3000000D03*
G01X3600000Y3000000D03*
G01X3700000Y3000000D03*
G01X3800000Y3000000D03*
G01X3900000Y3000000D03*
G01X4000000Y3000000D03*
G01X2400000Y3000000D03*
G01X2500000Y3000000D03*
G01X2600000Y3000000D03*
G01X2700000Y3000000D03*
G01X2800000Y3000000D03*
G01X2900000Y3000000D03*
G01X3000000Y3000000D03*
G01X3100000Y3000000D03*
G01X2210000Y3000000D03*
G01X2210000Y3100000D03*
G01X2210000Y3200000D03*
G01X2210000Y3300000D03*
G01X2210000Y3400000D03*
G01X2210000Y3500000D03*
G01X2400000Y3500000D03*
G01X2500000Y3500000D03*
G01X2600000Y3500000D03*
G01X2700000Y3500000D03*
G01X2800000Y3500000D03*
G01X2900000Y3500000D03*
G01X3000000Y3500000D03*
G01X3100000Y3500000D03*
G01X3300000Y3750000D03*
G01X3100000Y3750000D03*
G01X3100000Y3650000D03*
G01X3400000Y3750000D03*
G01X3500000Y3750000D03*
G01X3600000Y3750000D03*
G01X3700000Y3750000D03*
G01X3800000Y3750000D03*
G01X3900000Y3750000D03*
G01X4000000Y3750000D03*
G01X3000000Y3650000D03*
G01X3000000Y3750000D03*
G01X2710000Y3750000D03*
G01X2710000Y3650000D03*
G01X2610000Y3750000D03*
G01X2510000Y3750000D03*
G01X2410000Y3750000D03*
G01X2310000Y3750000D03*
G01X2610000Y3650000D03*
G01X2510000Y3650000D03*
G01X2410000Y3650000D03*
G01X2310000Y3650000D03*
G01X2015000Y3650000D03*
G01X1915000Y3650000D03*
G01X2015000Y3750000D03*
G01X1915000Y3750000D03*
G01X1815000Y3750000D03*
G01X1815000Y3650000D03*
G01X1715000Y3750000D03*
G01X1615000Y3750000D03*
G01X1715000Y3650000D03*
G01X1615000Y3650000D03*
G01X1325000Y3650000D03*
G01X1225000Y3650000D03*
G01X1325000Y3750000D03*
G01X1225000Y3750000D03*
G01X1075000Y3750000D03*
G01X0975000Y3750000D03*
G01X0875000Y3750000D03*
G01X0775000Y3750000D03*
G01X0675000Y3750000D03*
G01X0575000Y3750000D03*
G54D56*
G01X0666540Y7360000D03*
G01X0950000Y7360000D03*
G01X0666540Y7040000D03*
G01X0950000Y7040000D03*
G01X0666540Y6720000D03*
G01X0950000Y6720000D03*
G01X0666540Y6400000D03*
G01X0950000Y6400000D03*
G54D52*
G01X0575000Y6150000D03*
G01X0675000Y6150000D03*
G01X0775000Y6150000D03*
G01X0875000Y6150000D03*
G01X0975000Y6150000D03*
G01X1075000Y6150000D03*
G01X1225000Y6150000D03*
G01X1225000Y6050000D03*
G01X1325000Y6050000D03*
G01X1325000Y6150000D03*
G01X1615000Y6050000D03*
G01X1615000Y6150000D03*
G01X1715000Y6050000D03*
G54D29*
G36*
G01X4622730Y3937520D02*
G01X4565550Y3937520D01*
G01X4565550Y3872480D01*
G01X4622730Y3872480D01*
G01X4622730Y3937520D01*
G37*
G36*
G01X4693590Y3937520D02*
G01X4636410Y3937520D01*
G01X4636410Y3872480D01*
G01X4693590Y3872480D01*
G01X4693590Y3937520D01*
G37*
G36*
G01X4622730Y3787520D02*
G01X4565550Y3787520D01*
G01X4565550Y3722480D01*
G01X4622730Y3722480D01*
G01X4622730Y3787520D01*
G37*
G36*
G01X4693590Y3787520D02*
G01X4636410Y3787520D01*
G01X4636410Y3722480D01*
G01X4693590Y3722480D01*
G01X4693590Y3787520D01*
G37*
G54D21*
G01X4395500Y4325000D02*
G01X4425500Y4325000D01*
G01X4425500Y4325000D02*
G01X4432500Y4318000D01*
G54D29*
G36*
G01X4422500Y4328000D02*
G01X4422500Y4308000D01*
G01X4447500Y4308000D01*
G01X4447500Y4328000D01*
G01X4422500Y4328000D01*
G37*
G54D21*
G01X4416500Y4319000D02*
G01X4422500Y4325000D01*
G01X4410500Y4325000D02*
G01X4416500Y4319000D01*
G01X4388500Y4318000D02*
G01X4395500Y4325000D01*
G54D29*
G36*
G01X4363500Y4328000D02*
G01X4363500Y4308000D01*
G01X4398500Y4308000D01*
G01X4398500Y4328000D01*
G01X4363500Y4328000D01*
G37*
G54D21*
G01X4398500Y4325000D02*
G01X4404500Y4319000D01*
G01X4404500Y4319000D02*
G01X4410500Y4325000D01*
G01X4389500Y4305000D02*
G01X4395500Y4299000D01*
G54D29*
G36*
G01X4363500Y4315000D02*
G01X4363500Y4295000D01*
G01X4399500Y4295000D01*
G01X4399500Y4315000D01*
G01X4363500Y4315000D01*
G37*
G54D21*
G01X4397500Y4299000D02*
G01X4404500Y4306000D01*
G01X4395500Y4299000D02*
G01X4397500Y4299000D01*
G01X4426500Y4299000D02*
G01X4432500Y4305000D01*
G54D29*
G36*
G01X4422500Y4315000D02*
G01X4422500Y4295000D01*
G01X4447500Y4295000D01*
G01X4447500Y4315000D01*
G01X4422500Y4315000D01*
G37*
G54D21*
G01X4395500Y4299000D02*
G01X4426500Y4299000D01*
G01X4404500Y4306000D02*
G01X4411500Y4299000D01*
G01X4409500Y4299000D02*
G01X4416500Y4306000D01*
G01X4416500Y4306000D02*
G01X4423500Y4299000D01*
G01X4394500Y4167000D02*
G01X4424500Y4167000D01*
G01X4424500Y4167000D02*
G01X4431500Y4160000D01*
G54D29*
G36*
G01X4421500Y4170000D02*
G01X4421500Y4150000D01*
G01X4446500Y4150000D01*
G01X4446500Y4170000D01*
G01X4421500Y4170000D01*
G37*
G54D21*
G01X4415500Y4161000D02*
G01X4421500Y4167000D01*
G01X4409500Y4167000D02*
G01X4415500Y4161000D01*
G01X4387500Y4160000D02*
G01X4394500Y4167000D01*
G54D29*
G36*
G01X4362500Y4170000D02*
G01X4362500Y4150000D01*
G01X4397500Y4150000D01*
G01X4397500Y4170000D01*
G01X4362500Y4170000D01*
G37*
G54D21*
G01X4397500Y4167000D02*
G01X4403500Y4161000D01*
G01X4403500Y4161000D02*
G01X4409500Y4167000D01*
G01X4394500Y4141000D02*
G01X4425500Y4141000D01*
G01X4394500Y4141000D02*
G01X4396500Y4141000D01*
G01X4425500Y4141000D02*
G01X4431500Y4147000D01*
G54D29*
G36*
G01X4421500Y4157000D02*
G01X4421500Y4137000D01*
G01X4446500Y4137000D01*
G01X4446500Y4157000D01*
G01X4421500Y4157000D01*
G37*
G54D21*
G01X4388500Y4147000D02*
G01X4394500Y4141000D01*
G01X4396500Y4141000D02*
G01X4403500Y4148000D01*
G01X4403500Y4148000D02*
G01X4410500Y4141000D01*
G01X4408500Y4141000D02*
G01X4415500Y4148000D01*
G01X4415500Y4148000D02*
G01X4422500Y4141000D01*
G54D29*
G36*
G01X4362500Y4157000D02*
G01X4362500Y4137000D01*
G01X4398500Y4137000D01*
G01X4398500Y4157000D01*
G01X4362500Y4157000D01*
G37*
G54D21*
G01X4355500Y3598000D02*
G01X4385500Y3598000D01*
G01X4348500Y3605000D02*
G01X4355500Y3598000D01*
G54D29*
G36*
G01X4333500Y3615000D02*
G01X4333500Y3595000D01*
G01X4358500Y3595000D01*
G01X4358500Y3615000D01*
G01X4333500Y3615000D01*
G37*
G54D21*
G01X4358500Y3598000D02*
G01X4364500Y3604000D01*
G01X4364500Y3604000D02*
G01X4370500Y3598000D01*
G01X4385500Y3598000D02*
G01X4392500Y3605000D01*
G54D29*
G36*
G01X4382500Y3615000D02*
G01X4382500Y3595000D01*
G01X4417500Y3595000D01*
G01X4417500Y3615000D01*
G01X4382500Y3615000D01*
G37*
G54D21*
G01X4376500Y3604000D02*
G01X4382500Y3598000D01*
G01X4370500Y3598000D02*
G01X4376500Y3604000D01*
G01X4354500Y3624000D02*
G01X4385500Y3624000D01*
G01X4383500Y3624000D02*
G01X4385500Y3624000D01*
G01X4348500Y3618000D02*
G01X4354500Y3624000D01*
G54D29*
G36*
G01X4333500Y3628000D02*
G01X4333500Y3608000D01*
G01X4358500Y3608000D01*
G01X4358500Y3628000D01*
G01X4333500Y3628000D01*
G37*
G54D21*
G01X4385500Y3624000D02*
G01X4391500Y3618000D01*
G01X4376500Y3617000D02*
G01X4383500Y3624000D01*
G01X4369500Y3624000D02*
G01X4376500Y3617000D01*
G01X4364500Y3617000D02*
G01X4371500Y3624000D01*
G01X4357500Y3624000D02*
G01X4364500Y3617000D01*
G54D29*
G36*
G01X4381500Y3628000D02*
G01X4381500Y3608000D01*
G01X4417500Y3608000D01*
G01X4417500Y3628000D01*
G01X4381500Y3628000D01*
G37*
G54D21*
G01X4356000Y3515000D02*
G01X4386000Y3515000D01*
G01X4349000Y3522000D02*
G01X4356000Y3515000D01*
G01X4377000Y3521000D02*
G01X4383000Y3515000D01*
G01X4371000Y3515000D02*
G01X4377000Y3521000D01*
G01X4359000Y3515000D02*
G01X4365000Y3521000D01*
G01X4365000Y3521000D02*
G01X4371000Y3515000D01*
G54D29*
G36*
G01X4334000Y3532000D02*
G01X4334000Y3512000D01*
G01X4359000Y3512000D01*
G01X4359000Y3532000D01*
G01X4334000Y3532000D01*
G37*
G54D21*
G01X4349000Y3535000D02*
G01X4355000Y3541000D01*
G54D29*
G36*
G01X4334000Y3545000D02*
G01X4334000Y3525000D01*
G01X4359000Y3525000D01*
G01X4359000Y3545000D01*
G01X4334000Y3545000D01*
G37*
G54D21*
G01X4358000Y3541000D02*
G01X4365000Y3534000D01*
G01X4386000Y3515000D02*
G01X4393000Y3522000D01*
G54D29*
G36*
G01X4383000Y3532000D02*
G01X4383000Y3512000D01*
G01X4418000Y3512000D01*
G01X4418000Y3532000D01*
G01X4383000Y3532000D01*
G37*
G54D21*
G01X4386000Y3541000D02*
G01X4392000Y3535000D01*
G54D29*
G36*
G01X4382000Y3545000D02*
G01X4382000Y3525000D01*
G01X4418000Y3525000D01*
G01X4418000Y3545000D01*
G01X4382000Y3545000D01*
G37*
G54D21*
G01X4377000Y3534000D02*
G01X4384000Y3541000D01*
G01X4384000Y3541000D02*
G01X4386000Y3541000D01*
G01X4355000Y3541000D02*
G01X4386000Y3541000D01*
G01X4370000Y3541000D02*
G01X4377000Y3534000D01*
G01X4365000Y3534000D02*
G01X4372000Y3541000D01*
G54D29*
G36*
G01X4622730Y3337520D02*
G01X4565550Y3337520D01*
G01X4565550Y3272480D01*
G01X4622730Y3272480D01*
G01X4622730Y3337520D01*
G37*
G36*
G01X4693590Y3337520D02*
G01X4636410Y3337520D01*
G01X4636410Y3272480D01*
G01X4693590Y3272480D01*
G01X4693590Y3337520D01*
G37*
G36*
G01X4618590Y5132520D02*
G01X4561410Y5132520D01*
G01X4561410Y5067480D01*
G01X4618590Y5067480D01*
G01X4618590Y5132520D01*
G37*
G36*
G01X4689450Y5132520D02*
G01X4632270Y5132520D01*
G01X4632270Y5067480D01*
G01X4689450Y5067480D01*
G01X4689450Y5132520D01*
G37*
G36*
G01X4683160Y4762090D02*
G01X4625980Y4762090D01*
G01X4625980Y4697050D01*
G01X4683160Y4697050D01*
G01X4683160Y4762090D01*
G37*
G36*
G01X4754020Y4762090D02*
G01X4696840Y4762090D01*
G01X4696840Y4697050D01*
G01X4754020Y4697050D01*
G01X4754020Y4762090D01*
G37*
G36*
G01X4334130Y5000870D02*
G01X4334130Y4979130D01*
G01X4355870Y4979130D01*
G01X4355870Y5000870D01*
G01X4334130Y5000870D01*
G37*
G36*
G01X4310510Y5000870D02*
G01X4310510Y4979130D01*
G01X4332250Y4979130D01*
G01X4332250Y5000870D01*
G01X4310510Y5000870D01*
G37*
G36*
G01X4334130Y4965870D02*
G01X4334130Y4944130D01*
G01X4355870Y4944130D01*
G01X4355870Y4965870D01*
G01X4334130Y4965870D01*
G37*
G36*
G01X4310510Y4965870D02*
G01X4310510Y4944130D01*
G01X4332250Y4944130D01*
G01X4332250Y4965870D01*
G01X4310510Y4965870D01*
G37*
G54D21*
G01X4346000Y4895000D02*
G01X4376000Y4895000D01*
G01X4339000Y4915000D02*
G01X4345000Y4921000D01*
G54D29*
G36*
G01X4324000Y4925000D02*
G01X4324000Y4905000D01*
G01X4349000Y4905000D01*
G01X4349000Y4925000D01*
G01X4324000Y4925000D01*
G37*
G54D21*
G01X4360000Y4921000D02*
G01X4367000Y4914000D01*
G01X4355000Y4914000D02*
G01X4362000Y4921000D01*
G01X4348000Y4921000D02*
G01X4355000Y4914000D01*
G01X4339000Y4902000D02*
G01X4346000Y4895000D01*
G01X4349000Y4895000D02*
G01X4355000Y4901000D01*
G01X4355000Y4901000D02*
G01X4361000Y4895000D01*
G01X4376000Y4895000D02*
G01X4383000Y4902000D01*
G01X4367000Y4901000D02*
G01X4373000Y4895000D01*
G01X4361000Y4895000D02*
G01X4367000Y4901000D01*
G54D29*
G36*
G01X4373000Y4912000D02*
G01X4373000Y4892000D01*
G01X4408000Y4892000D01*
G01X4408000Y4912000D01*
G01X4373000Y4912000D01*
G37*
G36*
G01X4372000Y4925000D02*
G01X4372000Y4905000D01*
G01X4408000Y4905000D01*
G01X4408000Y4925000D01*
G01X4372000Y4925000D01*
G37*
G36*
G01X4324000Y4912000D02*
G01X4324000Y4892000D01*
G01X4349000Y4892000D01*
G01X4349000Y4912000D01*
G01X4324000Y4912000D01*
G37*
G54D21*
G01X4345000Y4921000D02*
G01X4376000Y4921000D01*
G01X4376000Y4921000D02*
G01X4382000Y4915000D01*
G01X4367000Y4914000D02*
G01X4374000Y4921000D01*
G01X4374000Y4921000D02*
G01X4376000Y4921000D01*
G01X4380500Y4685000D02*
G01X4410500Y4685000D01*
G01X4373500Y4678000D02*
G01X4380500Y4685000D01*
G01X4383500Y4685000D02*
G01X4389500Y4679000D01*
G01X4389500Y4679000D02*
G01X4395500Y4685000D01*
G54D29*
G36*
G01X4348500Y4688000D02*
G01X4348500Y4668000D01*
G01X4383500Y4668000D01*
G01X4383500Y4688000D01*
G01X4348500Y4688000D01*
G37*
G36*
G01X4407500Y4688000D02*
G01X4407500Y4668000D01*
G01X4432500Y4668000D01*
G01X4432500Y4688000D01*
G01X4407500Y4688000D01*
G37*
G54D21*
G01X4410500Y4685000D02*
G01X4417500Y4678000D01*
G01X4401500Y4679000D02*
G01X4407500Y4685000D01*
G01X4395500Y4685000D02*
G01X4401500Y4679000D01*
G01X4380500Y4659000D02*
G01X4411500Y4659000D01*
G01X4411500Y4659000D02*
G01X4417500Y4665000D01*
G54D29*
G36*
G01X4407500Y4675000D02*
G01X4407500Y4655000D01*
G01X4432500Y4655000D01*
G01X4432500Y4675000D01*
G01X4407500Y4675000D01*
G37*
G54D21*
G01X4389500Y4666000D02*
G01X4396500Y4659000D01*
G01X4394500Y4659000D02*
G01X4401500Y4666000D01*
G01X4401500Y4666000D02*
G01X4408500Y4659000D01*
G01X4374500Y4665000D02*
G01X4380500Y4659000D01*
G54D29*
G36*
G01X4348500Y4675000D02*
G01X4348500Y4655000D01*
G01X4384500Y4655000D01*
G01X4384500Y4675000D01*
G01X4348500Y4675000D01*
G37*
G54D21*
G01X4382500Y4659000D02*
G01X4389500Y4666000D01*
G01X4380500Y4659000D02*
G01X4382500Y4659000D01*
G01X4375500Y4708000D02*
G01X4405500Y4708000D01*
G01X4405500Y4708000D02*
G01X4412500Y4715000D01*
G01X4396500Y4714000D02*
G01X4402500Y4708000D01*
G01X4390500Y4708000D02*
G01X4396500Y4714000D01*
G54D29*
G36*
G01X4402500Y4725000D02*
G01X4402500Y4705000D01*
G01X4437500Y4705000D01*
G01X4437500Y4725000D01*
G01X4402500Y4725000D01*
G37*
G54D21*
G01X4368500Y4715000D02*
G01X4375500Y4708000D01*
G01X4378500Y4708000D02*
G01X4384500Y4714000D01*
G01X4384500Y4714000D02*
G01X4390500Y4708000D01*
G54D29*
G36*
G01X4353500Y4725000D02*
G01X4353500Y4705000D01*
G01X4378500Y4705000D01*
G01X4378500Y4725000D01*
G01X4353500Y4725000D01*
G37*
G54D21*
G01X4405500Y4734000D02*
G01X4411500Y4728000D01*
G54D29*
G36*
G01X4401500Y4738000D02*
G01X4401500Y4718000D01*
G01X4437500Y4718000D01*
G01X4437500Y4738000D01*
G01X4401500Y4738000D01*
G37*
G54D21*
G01X4396500Y4727000D02*
G01X4403500Y4734000D01*
G01X4403500Y4734000D02*
G01X4405500Y4734000D01*
G01X4368500Y4728000D02*
G01X4374500Y4734000D01*
G54D29*
G36*
G01X4353500Y4738000D02*
G01X4353500Y4718000D01*
G01X4378500Y4718000D01*
G01X4378500Y4738000D01*
G01X4353500Y4738000D01*
G37*
G54D21*
G01X4374500Y4734000D02*
G01X4405500Y4734000D01*
G01X4389500Y4734000D02*
G01X4396500Y4727000D01*
G01X4384500Y4727000D02*
G01X4391500Y4734000D01*
G01X4377500Y4734000D02*
G01X4384500Y4727000D01*
G01X4311000Y4755000D02*
G01X4318000Y4762000D01*
G54D29*
G36*
G01X4308000Y4772000D02*
G01X4308000Y4752000D01*
G01X4343000Y4752000D01*
G01X4343000Y4772000D01*
G01X4308000Y4772000D01*
G37*
G54D21*
G01X4274000Y4762000D02*
G01X4281000Y4755000D01*
G54D29*
G36*
G01X4259000Y4772000D02*
G01X4259000Y4752000D01*
G01X4284000Y4752000D01*
G01X4284000Y4772000D01*
G01X4259000Y4772000D01*
G37*
G54D21*
G01X4281000Y4755000D02*
G01X4311000Y4755000D01*
G01X4302000Y4761000D02*
G01X4308000Y4755000D01*
G01X4296000Y4755000D02*
G01X4302000Y4761000D01*
G01X4284000Y4755000D02*
G01X4290000Y4761000D01*
G01X4290000Y4761000D02*
G01X4296000Y4755000D01*
G01X4280000Y4781000D02*
G01X4311000Y4781000D01*
G01X4309000Y4781000D02*
G01X4311000Y4781000D01*
G01X4274000Y4775000D02*
G01X4280000Y4781000D01*
G54D29*
G36*
G01X4259000Y4785000D02*
G01X4259000Y4765000D01*
G01X4284000Y4765000D01*
G01X4284000Y4785000D01*
G01X4259000Y4785000D01*
G37*
G54D21*
G01X4311000Y4781000D02*
G01X4317000Y4775000D01*
G54D29*
G36*
G01X4307000Y4785000D02*
G01X4307000Y4765000D01*
G01X4343000Y4765000D01*
G01X4343000Y4785000D01*
G01X4307000Y4785000D01*
G37*
G54D21*
G01X4302000Y4774000D02*
G01X4309000Y4781000D01*
G01X4295000Y4781000D02*
G01X4302000Y4774000D01*
G01X4290000Y4774000D02*
G01X4297000Y4781000D01*
G01X4283000Y4781000D02*
G01X4290000Y4774000D01*
G01X4365500Y4793000D02*
G01X4395500Y4793000D01*
G01X4358500Y4813000D02*
G01X4364500Y4819000D01*
G54D29*
G36*
G01X4343500Y4823000D02*
G01X4343500Y4803000D01*
G01X4368500Y4803000D01*
G01X4368500Y4823000D01*
G01X4343500Y4823000D01*
G37*
G54D21*
G01X4379500Y4819000D02*
G01X4386500Y4812000D01*
G01X4374500Y4812000D02*
G01X4381500Y4819000D01*
G01X4367500Y4819000D02*
G01X4374500Y4812000D01*
G01X4358500Y4800000D02*
G01X4365500Y4793000D01*
G01X4368500Y4793000D02*
G01X4374500Y4799000D01*
G54D29*
G36*
G01X4343500Y4810000D02*
G01X4343500Y4790000D01*
G01X4368500Y4790000D01*
G01X4368500Y4810000D01*
G01X4343500Y4810000D01*
G37*
G54D21*
G01X4386500Y4799000D02*
G01X4392500Y4793000D01*
G01X4380500Y4793000D02*
G01X4386500Y4799000D01*
G01X4374500Y4799000D02*
G01X4380500Y4793000D01*
G01X4395500Y4793000D02*
G01X4402500Y4800000D01*
G54D29*
G36*
G01X4392500Y4810000D02*
G01X4392500Y4790000D01*
G01X4427500Y4790000D01*
G01X4427500Y4810000D01*
G01X4392500Y4810000D01*
G37*
G36*
G01X4391500Y4823000D02*
G01X4391500Y4803000D01*
G01X4427500Y4803000D01*
G01X4427500Y4823000D01*
G01X4391500Y4823000D01*
G37*
G54D21*
G01X4364500Y4819000D02*
G01X4395500Y4819000D01*
G01X4395500Y4819000D02*
G01X4401500Y4813000D01*
G01X4386500Y4812000D02*
G01X4393500Y4819000D01*
G01X4393500Y4819000D02*
G01X4395500Y4819000D01*
G54D29*
G36*
G01X5448980Y5359610D02*
G01X5422680Y5359610D01*
G01X5422680Y5321500D01*
G01X5448980Y5321500D01*
G01X5448980Y5359610D01*
G37*
G36*
G01X5435200Y5359610D02*
G01X5408900Y5359610D01*
G01X5408900Y5321500D01*
G01X5435200Y5321500D01*
G01X5435200Y5359610D01*
G37*
G36*
G01X5421420Y5359610D02*
G01X5395120Y5359610D01*
G01X5395120Y5321500D01*
G01X5421420Y5321500D01*
G01X5421420Y5359610D01*
G37*
G36*
G01X5407640Y5359610D02*
G01X5381340Y5359610D01*
G01X5381340Y5321500D01*
G01X5407640Y5321500D01*
G01X5407640Y5359610D01*
G37*
G36*
G01X5393860Y5359610D02*
G01X5367560Y5359610D01*
G01X5367560Y5321500D01*
G01X5393860Y5321500D01*
G01X5393860Y5359610D01*
G37*
G36*
G01X5504090Y5345830D02*
G01X5469920Y5345830D01*
G01X5469920Y5297870D01*
G01X5504090Y5297870D01*
G01X5504090Y5345830D01*
G37*
G36*
G01X5504090Y5308430D02*
G01X5469920Y5308430D01*
G01X5469920Y5260470D01*
G01X5504090Y5260470D01*
G01X5504090Y5308430D01*
G37*
G36*
G01X5380080Y5359610D02*
G01X5353780Y5359610D01*
G01X5353780Y5321500D01*
G01X5380080Y5321500D01*
G01X5380080Y5359610D01*
G37*
G36*
G01X5366300Y5359610D02*
G01X5340000Y5359610D01*
G01X5340000Y5321500D01*
G01X5366300Y5321500D01*
G01X5366300Y5359610D01*
G37*
G36*
G01X5352520Y5359610D02*
G01X5326220Y5359610D01*
G01X5326220Y5321500D01*
G01X5352520Y5321500D01*
G01X5352520Y5359610D01*
G37*
G36*
G01X5338740Y5359610D02*
G01X5312440Y5359610D01*
G01X5312440Y5321500D01*
G01X5338740Y5321500D01*
G01X5338740Y5359610D01*
G37*
G36*
G01X5324960Y5359610D02*
G01X5298660Y5359610D01*
G01X5298660Y5321500D01*
G01X5324960Y5321500D01*
G01X5324960Y5359610D01*
G37*
G36*
G01X5311180Y5359610D02*
G01X5284880Y5359610D01*
G01X5284880Y5321500D01*
G01X5311180Y5321500D01*
G01X5311180Y5359610D01*
G37*
G36*
G01X5297400Y5359610D02*
G01X5271100Y5359610D01*
G01X5271100Y5321500D01*
G01X5297400Y5321500D01*
G01X5297400Y5359610D01*
G37*
G36*
G01X5283620Y5359610D02*
G01X5257320Y5359610D01*
G01X5257320Y5321500D01*
G01X5283620Y5321500D01*
G01X5283620Y5359610D01*
G37*
G36*
G01X5269840Y5359610D02*
G01X5243540Y5359610D01*
G01X5243540Y5321500D01*
G01X5269840Y5321500D01*
G01X5269840Y5359610D01*
G37*
G36*
G01X5256060Y5359610D02*
G01X5229760Y5359610D01*
G01X5229760Y5321500D01*
G01X5256060Y5321500D01*
G01X5256060Y5359610D01*
G37*
G36*
G01X5242280Y5359610D02*
G01X5215980Y5359610D01*
G01X5215980Y5321500D01*
G01X5242280Y5321500D01*
G01X5242280Y5359610D01*
G37*
G36*
G01X5228500Y5359610D02*
G01X5202200Y5359610D01*
G01X5202200Y5321500D01*
G01X5228500Y5321500D01*
G01X5228500Y5359610D01*
G37*
G36*
G01X5214720Y5359610D02*
G01X5188430Y5359610D01*
G01X5188430Y5321500D01*
G01X5214720Y5321500D01*
G01X5214720Y5359610D01*
G37*
G36*
G01X5200940Y5359610D02*
G01X5174650Y5359610D01*
G01X5174650Y5321500D01*
G01X5200940Y5321500D01*
G01X5200940Y5359610D01*
G37*
G36*
G01X5187170Y5359610D02*
G01X5160870Y5359610D01*
G01X5160870Y5321500D01*
G01X5187170Y5321500D01*
G01X5187170Y5359610D01*
G37*
G36*
G01X5173390Y5359610D02*
G01X5147090Y5359610D01*
G01X5147090Y5321500D01*
G01X5173390Y5321500D01*
G01X5173390Y5359610D01*
G37*
G36*
G01X5159610Y5359610D02*
G01X5133310Y5359610D01*
G01X5133310Y5321500D01*
G01X5159610Y5321500D01*
G01X5159610Y5359610D01*
G37*
G36*
G01X5145830Y5359610D02*
G01X5119530Y5359610D01*
G01X5119530Y5321500D01*
G01X5145830Y5321500D01*
G01X5145830Y5359610D01*
G37*
G36*
G01X5132050Y5359610D02*
G01X5105750Y5359610D01*
G01X5105750Y5321500D01*
G01X5132050Y5321500D01*
G01X5132050Y5359610D01*
G37*
G36*
G01X5118270Y5359610D02*
G01X5091970Y5359610D01*
G01X5091970Y5321500D01*
G01X5118270Y5321500D01*
G01X5118270Y5359610D01*
G37*
G36*
G01X5104490Y5359610D02*
G01X5078190Y5359610D01*
G01X5078190Y5321500D01*
G01X5104490Y5321500D01*
G01X5104490Y5359610D01*
G37*
G36*
G01X5090710Y5359610D02*
G01X5064410Y5359610D01*
G01X5064410Y5321500D01*
G01X5090710Y5321500D01*
G01X5090710Y5359610D01*
G37*
G36*
G01X5076930Y5359610D02*
G01X5050630Y5359610D01*
G01X5050630Y5321500D01*
G01X5076930Y5321500D01*
G01X5076930Y5359610D01*
G37*
G36*
G01X5063150Y5359610D02*
G01X5036850Y5359610D01*
G01X5036850Y5321500D01*
G01X5063150Y5321500D01*
G01X5063150Y5359610D01*
G37*
G36*
G01X5049370Y5359610D02*
G01X5023070Y5359610D01*
G01X5023070Y5321500D01*
G01X5049370Y5321500D01*
G01X5049370Y5359610D01*
G37*
G36*
G01X5002130Y5345830D02*
G01X4967950Y5345830D01*
G01X4967950Y5297870D01*
G01X5002130Y5297870D01*
G01X5002130Y5345830D01*
G37*
G36*
G01X5448980Y5282830D02*
G01X5422680Y5282830D01*
G01X5422680Y5244720D01*
G01X5448980Y5244720D01*
G01X5448980Y5282830D01*
G37*
G36*
G01X5435200Y5282830D02*
G01X5408900Y5282830D01*
G01X5408900Y5244720D01*
G01X5435200Y5244720D01*
G01X5435200Y5282830D01*
G37*
G36*
G01X5421420Y5282830D02*
G01X5395120Y5282830D01*
G01X5395120Y5244720D01*
G01X5421420Y5244720D01*
G01X5421420Y5282830D01*
G37*
G36*
G01X5407640Y5282830D02*
G01X5381340Y5282830D01*
G01X5381340Y5244720D01*
G01X5407640Y5244720D01*
G01X5407640Y5282830D01*
G37*
G36*
G01X5393860Y5282830D02*
G01X5367560Y5282830D01*
G01X5367560Y5244720D01*
G01X5393860Y5244720D01*
G01X5393860Y5282830D01*
G37*
G36*
G01X5380080Y5282830D02*
G01X5353780Y5282830D01*
G01X5353780Y5244720D01*
G01X5380080Y5244720D01*
G01X5380080Y5282830D01*
G37*
G36*
G01X5366300Y5282830D02*
G01X5340000Y5282830D01*
G01X5340000Y5244720D01*
G01X5366300Y5244720D01*
G01X5366300Y5282830D01*
G37*
G36*
G01X5352520Y5282830D02*
G01X5326220Y5282830D01*
G01X5326220Y5244720D01*
G01X5352520Y5244720D01*
G01X5352520Y5282830D01*
G37*
G36*
G01X5338740Y5282830D02*
G01X5312440Y5282830D01*
G01X5312440Y5244720D01*
G01X5338740Y5244720D01*
G01X5338740Y5282830D01*
G37*
G36*
G01X5324960Y5282830D02*
G01X5298660Y5282830D01*
G01X5298660Y5244720D01*
G01X5324960Y5244720D01*
G01X5324960Y5282830D01*
G37*
G36*
G01X5311180Y5282830D02*
G01X5284880Y5282830D01*
G01X5284880Y5244720D01*
G01X5311180Y5244720D01*
G01X5311180Y5282830D01*
G37*
G36*
G01X5297400Y5282830D02*
G01X5271100Y5282830D01*
G01X5271100Y5244720D01*
G01X5297400Y5244720D01*
G01X5297400Y5282830D01*
G37*
G36*
G01X5283620Y5282830D02*
G01X5257320Y5282830D01*
G01X5257320Y5244720D01*
G01X5283620Y5244720D01*
G01X5283620Y5282830D01*
G37*
G36*
G01X5269840Y5282830D02*
G01X5243540Y5282830D01*
G01X5243540Y5244720D01*
G01X5269840Y5244720D01*
G01X5269840Y5282830D01*
G37*
G36*
G01X5256060Y5282830D02*
G01X5229760Y5282830D01*
G01X5229760Y5244720D01*
G01X5256060Y5244720D01*
G01X5256060Y5282830D01*
G37*
G36*
G01X5242280Y5282830D02*
G01X5215980Y5282830D01*
G01X5215980Y5244720D01*
G01X5242280Y5244720D01*
G01X5242280Y5282830D01*
G37*
G36*
G01X5228500Y5282830D02*
G01X5202200Y5282830D01*
G01X5202200Y5244720D01*
G01X5228500Y5244720D01*
G01X5228500Y5282830D01*
G37*
G36*
G01X5214720Y5282830D02*
G01X5188430Y5282830D01*
G01X5188430Y5244720D01*
G01X5214720Y5244720D01*
G01X5214720Y5282830D01*
G37*
G36*
G01X5200940Y5282830D02*
G01X5174650Y5282830D01*
G01X5174650Y5244720D01*
G01X5200940Y5244720D01*
G01X5200940Y5282830D01*
G37*
G36*
G01X5187170Y5282830D02*
G01X5160870Y5282830D01*
G01X5160870Y5244720D01*
G01X5187170Y5244720D01*
G01X5187170Y5282830D01*
G37*
G36*
G01X5173390Y5282830D02*
G01X5147090Y5282830D01*
G01X5147090Y5244720D01*
G01X5173390Y5244720D01*
G01X5173390Y5282830D01*
G37*
G36*
G01X5159610Y5282830D02*
G01X5133310Y5282830D01*
G01X5133310Y5244720D01*
G01X5159610Y5244720D01*
G01X5159610Y5282830D01*
G37*
G36*
G01X5145830Y5282830D02*
G01X5119530Y5282830D01*
G01X5119530Y5244720D01*
G01X5145830Y5244720D01*
G01X5145830Y5282830D01*
G37*
G36*
G01X5132050Y5282830D02*
G01X5105750Y5282830D01*
G01X5105750Y5244720D01*
G01X5132050Y5244720D01*
G01X5132050Y5282830D01*
G37*
G36*
G01X5118270Y5282830D02*
G01X5091970Y5282830D01*
G01X5091970Y5244720D01*
G01X5118270Y5244720D01*
G01X5118270Y5282830D01*
G37*
G36*
G01X5104490Y5282830D02*
G01X5078190Y5282830D01*
G01X5078190Y5244720D01*
G01X5104490Y5244720D01*
G01X5104490Y5282830D01*
G37*
G36*
G01X5090710Y5282830D02*
G01X5064410Y5282830D01*
G01X5064410Y5244720D01*
G01X5090710Y5244720D01*
G01X5090710Y5282830D01*
G37*
G36*
G01X5076930Y5282830D02*
G01X5050630Y5282830D01*
G01X5050630Y5244720D01*
G01X5076930Y5244720D01*
G01X5076930Y5282830D01*
G37*
G36*
G01X5063150Y5282830D02*
G01X5036850Y5282830D01*
G01X5036850Y5244720D01*
G01X5063150Y5244720D01*
G01X5063150Y5282830D01*
G37*
G36*
G01X5049370Y5282830D02*
G01X5023070Y5282830D01*
G01X5023070Y5244720D01*
G01X5049370Y5244720D01*
G01X5049370Y5282830D01*
G37*
G36*
G01X5002130Y5308430D02*
G01X4967950Y5308430D01*
G01X4967950Y5260470D01*
G01X5002130Y5260470D01*
G01X5002130Y5308430D01*
G37*
G01X0000000Y0000000D02*
G54D10*
G01X4230000Y4935000D03*
G01X4385000Y4895000D03*
G01X4405000Y4990000D03*
G01X4425000Y3975000D03*
G01X4440000Y3660000D03*
G01X4490000Y3995000D03*
G01X4580000Y4810000D03*
G01X4580000Y4555000D03*
G01X4580000Y4310000D03*
G01X4580000Y4030000D03*
G01X4580000Y3660000D03*
G01X4580000Y3380000D03*
G01X4590000Y5100000D03*
G01X4594100Y3910900D03*
G01X4615000Y4960000D03*
G01X4615000Y4555000D03*
G01X4615000Y4310000D03*
G01X4615000Y4030000D03*
G01X4615000Y3660000D03*
G01X4615000Y3380000D03*
G01X4620000Y5005000D03*
G01X4645000Y3615000D03*
G01X4645000Y3380000D03*
G01X4650000Y4940000D03*
G01X4650000Y4805000D03*
G01X4650000Y4665000D03*
G01X4650000Y4265000D03*
G01X4650000Y4030000D03*
G01X4675000Y3565000D03*
G01X4675000Y3380000D03*
G01X4680000Y4680000D03*
G01X4685000Y4160000D03*
G01X4685000Y4020000D03*
G01X4695000Y4935000D03*
G01X4705000Y3530000D03*
G01X4705000Y3435000D03*
G01X4715000Y4875000D03*
G01X4715000Y4780000D03*
G01X4720000Y4200000D03*
G01X4720000Y4045000D03*
G01X4725000Y4915000D03*
G01X4740000Y3515000D03*
G01X4740000Y3435000D03*
G01X4755000Y4160000D03*
G01X4755000Y4045000D03*
G01X4770000Y4895000D03*
G01X4770000Y4810000D03*
G01X4790000Y4330000D03*
G01X4790000Y4265000D03*
G01X4790000Y4125000D03*
G01X4805000Y4820000D03*
G01X4815000Y4855000D03*
G01X4945000Y5080000D03*
G01X4950000Y5005000D03*
G01X4968500Y5378000D03*
G01X4975000Y5045000D03*
G01X5015000Y4120000D03*
G01X5015700Y5429100D03*
G01X5019700Y5685000D03*
G01X5035400Y5452800D03*
G01X5055000Y5225000D03*
G01X5110000Y5225000D03*
G01X5115000Y4355000D03*
G01X5153500Y5393700D03*
G01X5180000Y4310000D03*
G01X5180000Y3660000D03*
G01X5181100Y5381900D03*
G01X5185000Y4940000D03*
G01X5208700Y5299200D03*
G01X5215000Y4810000D03*
G01X5215000Y4310000D03*
G01X5215000Y3660000D03*
G01X5250000Y4725000D03*
G01X5250000Y4310000D03*
G01X5250000Y3660000D03*
G01X5252000Y5378000D03*
G01X5280000Y5015000D03*
G01X5280000Y4765000D03*
G01X5280000Y4615000D03*
G01X5280000Y3660000D03*
G01X5285000Y4310000D03*
G01X5299200Y5397600D03*
G01X5310000Y5015000D03*
G01X5310000Y4740000D03*
G01X5310000Y4615000D03*
G01X5310000Y3660000D03*
G01X5320000Y4310000D03*
G01X5330700Y5397600D03*
G01X5340000Y4680000D03*
G01X5340000Y3660000D03*
G01X5355000Y4310000D03*
G01X5362200Y5303100D03*
G01X5375000Y4645000D03*
G01X5405500Y5736200D03*
G01X5437000Y5704700D03*
G01X5468500Y5626000D03*
G01X5523600Y5649600D03*
G01X5706000Y3401000D03*
G01X5737000Y3410000D03*
G01X5765000Y3418000D03*
G01X5824000Y3417000D03*
G01X5834600Y5378000D03*
G01X5836000Y3359000D03*
G01X5848000Y3428000D03*
G01X5880000Y3359000D03*
G01X5881900Y5429100D03*
G01X5885800Y5685000D03*
G01X5901600Y5452800D03*
G01X5915000Y3380000D03*
G01X5970000Y3570000D03*
G01X6019700Y5393700D03*
G01X6047200Y5381900D03*
G01X6074800Y5299200D03*
G01X6118100Y5378000D03*
G01X6140000Y3565000D03*
G01X6165400Y5397600D03*
G01X6196900Y5397600D03*
G01X6225000Y3565000D03*
G01X6228300Y5303100D03*
G01X6271700Y5736200D03*
G01X6303100Y5704700D03*
G01X6334600Y5626000D03*
G01X6389800Y5649600D03*
G54D22*
G01X5507900Y5381900D03*
G01X5784000Y3452000D03*
G01X5897000Y3420000D03*
G01X6374000Y5381900D03*
G54D21*
G01X7854300Y6031500D03*
G01X7854300Y5874000D03*
G01X7854300Y5716500D03*
G01X7854300Y5559100D03*
G01X7854300Y5401600D03*
G01X7854300Y5244100D03*
G01X7854300Y5086600D03*
G01X7854300Y4929100D03*
G01X7854300Y4771700D03*
G01X7854300Y4614200D03*
G01X7854300Y4456700D03*
G01X7854300Y4299200D03*
G01X7854300Y4141700D03*
G01X7854300Y3984300D03*
G01X7854300Y3826800D03*
G01X7854300Y3669300D03*
G01X7854300Y3511800D03*
G01X7854300Y3354300D03*
G01X7854300Y3196900D03*
G01X7854300Y3039400D03*
G01X7854300Y2881900D03*
G01X7854300Y2724400D03*
G01X7854300Y2566900D03*
G01X7854300Y2409400D03*
G01X7854300Y2252000D03*
G54D61*
G01X7889800Y6000000D03*
G01X7889800Y5842500D03*
G01X7889800Y5685000D03*
G01X7889800Y5527600D03*
G01X7889800Y5370100D03*
G01X7889800Y5212600D03*
G01X7889800Y5055100D03*
G01X7889800Y4897600D03*
G01X7889800Y4740200D03*
G01X7889800Y4582700D03*
G01X7889800Y4425200D03*
G01X7889800Y4267700D03*
G01X7889800Y4110200D03*
G01X7889800Y3952800D03*
G01X7889800Y3795300D03*
G01X7889800Y3637800D03*
G01X7889800Y3480300D03*
G01X7889800Y3322800D03*
G01X7889800Y3165400D03*
G01X7889800Y3007900D03*
G01X7889800Y2850400D03*
G01X7889800Y2692900D03*
G01X7889800Y2535400D03*
G01X7889800Y2378000D03*
G01X7889800Y2220500D03*
G54D37*
G01X6100000Y3470000D03*
G01X4464600Y4920200D03*
G01X4464600Y4839900D03*
G01X4464600Y4759600D03*
G01X4464600Y4679300D03*
G01X4464600Y4270200D03*
G01X4464600Y4189900D03*
G01X4464600Y4109600D03*
G01X4464600Y4029300D03*
G01X4464600Y3620200D03*
G01X4464600Y3539900D03*
G01X4464600Y3459600D03*
G01X4464600Y3379300D03*
G01X4535400Y4960400D03*
G01X4535400Y4880100D03*
G01X4535400Y4799800D03*
G01X4535400Y4719400D03*
G01X4535400Y4310400D03*
G01X4535400Y4230100D03*
G01X4535400Y4149800D03*
G01X4535400Y4069400D03*
G01X4535400Y3660400D03*
G01X4535400Y3580100D03*
G01X4535400Y3499800D03*
G01X4535400Y3419400D03*
G01X4724800Y5095400D03*
G01X4724800Y4995000D03*
G01X4724800Y4644600D03*
G01X4724800Y4544300D03*
G01X4724800Y4445400D03*
G01X4724800Y4345000D03*
G01X4724800Y3994600D03*
G01X4724800Y3894300D03*
G01X4724800Y3795400D03*
G01X4724800Y3695000D03*
G01X4724800Y3344600D03*
G01X4724800Y3244300D03*
G01X4875200Y5095400D03*
G01X4875200Y4995000D03*
G01X4875200Y4644600D03*
G01X4875200Y4544300D03*
G01X4875200Y4445400D03*
G01X4875200Y4345000D03*
G01X4875200Y3994600D03*
G01X4875200Y3894300D03*
G01X4875200Y3795400D03*
G01X4875200Y3695000D03*
G01X4875200Y3344600D03*
G01X4875200Y3244300D03*
G01X5064600Y4920200D03*
G01X5064600Y4839900D03*
G01X5064600Y4759600D03*
G01X5064600Y4679300D03*
G01X5064600Y4270200D03*
G01X5064600Y4189900D03*
G01X5064600Y4109600D03*
G01X5064600Y4029300D03*
G01X5064600Y3620200D03*
G01X5064600Y3539900D03*
G01X5064600Y3459600D03*
G01X5064600Y3379300D03*
G01X5135400Y4960400D03*
G01X5135400Y4880100D03*
G01X5135400Y4799800D03*
G01X5135400Y4719400D03*
G01X5135400Y4310400D03*
G01X5135400Y4230100D03*
G01X5135400Y4149800D03*
G01X5135400Y4069400D03*
G01X5135400Y3660400D03*
G01X5135400Y3580100D03*
G01X5135400Y3499800D03*
G01X5135400Y3419400D03*
G54D43*
G01X0575000Y6150000D03*
G01X0575000Y4950000D03*
G01X0575000Y3750000D03*
G01X0675000Y6150000D03*
G01X0675000Y4950000D03*
G01X0675000Y3750000D03*
G01X0775000Y6150000D03*
G01X0775000Y4950000D03*
G01X0775000Y3750000D03*
G01X0875000Y6150000D03*
G01X0875000Y4950000D03*
G01X0875000Y3750000D03*
G01X0975000Y6150000D03*
G01X0975000Y4950000D03*
G01X0975000Y3750000D03*
G01X1075000Y6150000D03*
G01X1075000Y4950000D03*
G01X1075000Y3750000D03*
G01X1225000Y6150000D03*
G01X1225000Y6050000D03*
G01X1225000Y4950000D03*
G01X1225000Y4850000D03*
G01X1225000Y3750000D03*
G01X1225000Y3650000D03*
G01X1325000Y6150000D03*
G01X1325000Y6050000D03*
G01X1325000Y4950000D03*
G01X1325000Y4850000D03*
G01X1325000Y3750000D03*
G01X1325000Y3650000D03*
G01X1615000Y6150000D03*
G01X1615000Y6050000D03*
G01X1615000Y4950000D03*
G01X1615000Y4850000D03*
G01X1615000Y3750000D03*
G01X1615000Y3650000D03*
G01X1715000Y6150000D03*
G01X1715000Y6050000D03*
G01X1715000Y4950000D03*
G01X1715000Y4850000D03*
G01X1715000Y3750000D03*
G01X1715000Y3650000D03*
G01X1815000Y6150000D03*
G01X1815000Y6050000D03*
G01X1815000Y4950000D03*
G01X1815000Y4850000D03*
G01X1815000Y3750000D03*
G01X1815000Y3650000D03*
G01X1915000Y6150000D03*
G01X1915000Y6050000D03*
G01X1915000Y4950000D03*
G01X1915000Y4850000D03*
G01X1915000Y3750000D03*
G01X1915000Y3650000D03*
G01X2015000Y6150000D03*
G01X2015000Y6050000D03*
G01X2015000Y4950000D03*
G01X2015000Y4850000D03*
G01X2015000Y3750000D03*
G01X2015000Y3650000D03*
G01X2210000Y5900000D03*
G01X2210000Y5800000D03*
G01X2210000Y5700000D03*
G01X2210000Y5600000D03*
G01X2210000Y5500000D03*
G01X2210000Y5400000D03*
G01X2210000Y4700000D03*
G01X2210000Y4600000D03*
G01X2210000Y4500000D03*
G01X2210000Y4400000D03*
G01X2210000Y4300000D03*
G01X2210000Y4200000D03*
G01X2210000Y3500000D03*
G01X2210000Y3400000D03*
G01X2210000Y3300000D03*
G01X2210000Y3200000D03*
G01X2210000Y3100000D03*
G01X2210000Y3000000D03*
G01X2310000Y6150000D03*
G01X2310000Y6050000D03*
G01X2310000Y4950000D03*
G01X2310000Y4850000D03*
G01X2310000Y3750000D03*
G01X2310000Y3650000D03*
G01X2400000Y5900000D03*
G01X2400000Y5400000D03*
G01X2400000Y4700000D03*
G01X2400000Y4200000D03*
G01X2400000Y3500000D03*
G01X2400000Y3000000D03*
G01X2410000Y6150000D03*
G01X2410000Y6050000D03*
G01X2410000Y4950000D03*
G01X2410000Y4850000D03*
G01X2410000Y3750000D03*
G01X2410000Y3650000D03*
G01X2500000Y5900000D03*
G01X2500000Y5400000D03*
G01X2500000Y4700000D03*
G01X2500000Y4200000D03*
G01X2500000Y3500000D03*
G01X2500000Y3000000D03*
G01X2510000Y6150000D03*
G01X2510000Y6050000D03*
G01X2510000Y4950000D03*
G01X2510000Y4850000D03*
G01X2510000Y3750000D03*
G01X2510000Y3650000D03*
G01X2600000Y5900000D03*
G01X2600000Y5400000D03*
G01X2600000Y4700000D03*
G01X2600000Y4200000D03*
G01X2600000Y3500000D03*
G01X2600000Y3000000D03*
G01X2610000Y6150000D03*
G01X2610000Y6050000D03*
G01X2610000Y4950000D03*
G01X2610000Y4850000D03*
G01X2610000Y3750000D03*
G01X2610000Y3650000D03*
G01X2700000Y5900000D03*
G01X2700000Y5400000D03*
G01X2700000Y4700000D03*
G01X2700000Y4200000D03*
G01X2700000Y3500000D03*
G01X2700000Y3000000D03*
G01X2710000Y6150000D03*
G01X2710000Y6050000D03*
G01X2710000Y4950000D03*
G01X2710000Y4850000D03*
G01X2710000Y3750000D03*
G01X2710000Y3650000D03*
G01X2800000Y5900000D03*
G01X2800000Y5400000D03*
G01X2800000Y4700000D03*
G01X2800000Y4200000D03*
G01X2800000Y3500000D03*
G01X2800000Y3000000D03*
G01X2900000Y5900000D03*
G01X2900000Y5400000D03*
G01X2900000Y4700000D03*
G01X2900000Y4200000D03*
G01X2900000Y3500000D03*
G01X2900000Y3000000D03*
G01X3000000Y6150000D03*
G01X3000000Y6050000D03*
G01X3000000Y5900000D03*
G01X3000000Y5400000D03*
G01X3000000Y4950000D03*
G01X3000000Y4850000D03*
G01X3000000Y4700000D03*
G01X3000000Y4200000D03*
G01X3000000Y3750000D03*
G01X3000000Y3650000D03*
G01X3000000Y3500000D03*
G01X3000000Y3000000D03*
G01X3100000Y6150000D03*
G01X3100000Y6050000D03*
G01X3100000Y5900000D03*
G01X3100000Y5400000D03*
G01X3100000Y4950000D03*
G01X3100000Y4850000D03*
G01X3100000Y4700000D03*
G01X3100000Y4200000D03*
G01X3100000Y3750000D03*
G01X3100000Y3650000D03*
G01X3100000Y3500000D03*
G01X3100000Y3000000D03*
G01X3300000Y6150000D03*
G01X3300000Y5400000D03*
G01X3300000Y4950000D03*
G01X3300000Y4200000D03*
G01X3300000Y3750000D03*
G01X3300000Y3000000D03*
G01X3400000Y6150000D03*
G01X3400000Y5400000D03*
G01X3400000Y4950000D03*
G01X3400000Y4200000D03*
G01X3400000Y3750000D03*
G01X3400000Y3000000D03*
G01X3500000Y6150000D03*
G01X3500000Y5400000D03*
G01X3500000Y4950000D03*
G01X3500000Y4200000D03*
G01X3500000Y3750000D03*
G01X3500000Y3000000D03*
G01X3600000Y6150000D03*
G01X3600000Y5400000D03*
G01X3600000Y4950000D03*
G01X3600000Y4200000D03*
G01X3600000Y3750000D03*
G01X3600000Y3000000D03*
G01X3700000Y6150000D03*
G01X3700000Y5400000D03*
G01X3700000Y4950000D03*
G01X3700000Y4200000D03*
G01X3700000Y3750000D03*
G01X3700000Y3000000D03*
G01X3800000Y6150000D03*
G01X3800000Y5400000D03*
G01X3800000Y4950000D03*
G01X3800000Y4200000D03*
G01X3800000Y3750000D03*
G01X3800000Y3000000D03*
G01X3900000Y6150000D03*
G01X3900000Y5400000D03*
G01X3900000Y4950000D03*
G01X3900000Y4200000D03*
G01X3900000Y3750000D03*
G01X3900000Y3000000D03*
G01X4000000Y6150000D03*
G01X4000000Y5400000D03*
G01X4000000Y4950000D03*
G01X4000000Y4200000D03*
G01X4000000Y3750000D03*
G01X4000000Y3000000D03*
G01X4986100Y5594300D03*
G01X4986100Y5479300D03*
G01X5086100Y5579300D03*
G01X5086100Y5494300D03*
G01X5186100Y5594300D03*
G01X5186100Y5479300D03*
G01X5286100Y5579300D03*
G01X5286100Y5494300D03*
G01X5386100Y5594300D03*
G01X5386100Y5479300D03*
G01X5486100Y5579300D03*
G01X5486100Y5494300D03*
G01X5750000Y3295000D03*
G01X5750000Y3195000D03*
G01X5750000Y3060000D03*
G01X5750000Y2960000D03*
G01X5830000Y6500000D03*
G01X5830000Y6400000D03*
G01X5850000Y3295000D03*
G01X5850000Y3195000D03*
G01X5850000Y3060000D03*
G01X5850000Y2960000D03*
G01X5852300Y5594300D03*
G01X5852300Y5479300D03*
G01X5930000Y6500000D03*
G01X5930000Y6400000D03*
G01X5950000Y3295000D03*
G01X5950000Y3195000D03*
G01X5950000Y3060000D03*
G01X5950000Y2960000D03*
G01X5952300Y5579300D03*
G01X5952300Y5494300D03*
G01X6050000Y3295000D03*
G01X6050000Y3195000D03*
G01X6050000Y3060000D03*
G01X6050000Y2960000D03*
G01X6052300Y5594300D03*
G01X6052300Y5479300D03*
G01X6150000Y3295000D03*
G01X6150000Y3195000D03*
G01X6150000Y3060000D03*
G01X6150000Y2960000D03*
G01X6152300Y5579300D03*
G01X6152300Y5494300D03*
G01X6250000Y3295000D03*
G01X6250000Y3195000D03*
G01X6250000Y3060000D03*
G01X6250000Y2960000D03*
G01X6252300Y5594300D03*
G01X6252300Y5479300D03*
G01X6350000Y3295000D03*
G01X6350000Y3195000D03*
G01X6350000Y3060000D03*
G01X6350000Y2960000D03*
G01X6352300Y5579300D03*
G01X6352300Y5494300D03*
G01X6450000Y3295000D03*
G01X6450000Y3195000D03*
G01X6450000Y3060000D03*
G01X6450000Y2960000D03*
G01X6550000Y3295000D03*
G01X6550000Y3195000D03*
G01X6550000Y3060000D03*
G01X6550000Y2960000D03*
G01X6615000Y6900000D03*
G01X6615000Y6800000D03*
G01X6615000Y6700000D03*
G01X6615000Y6600000D03*
G01X6615000Y6500000D03*
G01X6615000Y6400000D03*
G01X6615000Y6300000D03*
G01X6615000Y6200000D03*
G01X6650000Y3295000D03*
G01X6650000Y3195000D03*
G01X6650000Y3060000D03*
G01X6650000Y2960000D03*
G01X6910000Y6905000D03*
G01X6910000Y6805000D03*
G01X6910000Y6705000D03*
G01X6910000Y6605000D03*
G01X6910000Y6505000D03*
G01X6910000Y6405000D03*
G01X6910000Y6305000D03*
G01X6910000Y6205000D03*
G01X7600000Y6500000D03*
G01X7600000Y6400000D03*
G01X7700000Y6500000D03*
G01X7700000Y6400000D03*
G54D65*
G01X5078700Y5854300D03*
G01X5098400Y5931100D03*
G01X5098400Y5777600D03*
G01X5157500Y5990200D03*
G01X5157500Y5718500D03*
G01X5236200Y6011800D03*
G01X5236200Y5696900D03*
G01X5315000Y5990200D03*
G01X5315000Y5718500D03*
G01X5374000Y5931100D03*
G01X5374000Y5777600D03*
G01X5393700Y5854300D03*
G01X5944900Y5854300D03*
G01X5964600Y5931100D03*
G01X5964600Y5777600D03*
G01X6023600Y5990200D03*
G01X6023600Y5718500D03*
G01X6102400Y6011800D03*
G01X6102400Y5696900D03*
G01X6181100Y5990200D03*
G01X6181100Y5718500D03*
G01X6240200Y5931100D03*
G01X6240200Y5777600D03*
G01X6259800Y5854300D03*
G54D60*
G01X7948800Y5996100D03*
G01X7948800Y5838600D03*
G01X7948800Y5681100D03*
G01X7948800Y5523600D03*
G01X7948800Y5366100D03*
G01X7948800Y5208700D03*
G01X7948800Y5051200D03*
G01X7948800Y4893700D03*
G01X7948800Y4736200D03*
G01X7948800Y4578700D03*
G01X7948800Y4421300D03*
G01X7948800Y4263800D03*
G01X7948800Y4106300D03*
G01X7948800Y3948800D03*
G01X7948800Y3791300D03*
G01X7948800Y3633900D03*
G01X7948800Y3476400D03*
G01X7948800Y3318900D03*
G01X7948800Y3161400D03*
G01X7948800Y3003900D03*
G01X7948800Y2846500D03*
G01X7948800Y2689000D03*
G01X7948800Y2531500D03*
G01X7948800Y2374000D03*
G01X7948800Y2216500D03*
G54D63*
G01X4365000Y5071800D03*
G01X4365000Y4567900D03*
G01X4365000Y4421800D03*
G01X4365000Y3917900D03*
G01X4365000Y3771800D03*
G01X4365000Y3267900D03*
G01X5235000Y5071800D03*
G01X5235000Y4567900D03*
G01X5235000Y4421800D03*
G01X5235000Y3917900D03*
G01X5235000Y3771800D03*
G01X5235000Y3267900D03*
G54D44*
G01X5944900Y5037400D03*
G01X5944900Y4840600D03*
G01X5944900Y4643700D03*
G01X5944900Y4446900D03*
G01X5944900Y4250000D03*
G01X5944900Y4053100D03*
G01X5944900Y3856300D03*
G01X5944900Y3659400D03*
G01X5944900Y3462600D03*
G01X6338600Y5037400D03*
G01X6338600Y4840600D03*
G01X6338600Y4643700D03*
G01X6338600Y4446900D03*
G01X6338600Y4250000D03*
G01X6338600Y4053100D03*
G01X6338600Y3856300D03*
G01X6338600Y3659400D03*
G01X6338600Y3462600D03*
G01X6712600Y5037400D03*
G01X6712600Y4840600D03*
G01X6712600Y4643700D03*
G01X6712600Y4446900D03*
G01X6712600Y4250000D03*
G01X6712600Y4053100D03*
G01X6712600Y3856300D03*
G01X6712600Y3659400D03*
G01X6712600Y3462600D03*
G54D59*
G01X4881900Y5381900D03*
G01X4881900Y5224400D03*
G01X5236200Y5854300D03*
G01X5590600Y5381900D03*
G01X5590600Y5224400D03*
G01X5748000Y5381900D03*
G01X5748000Y5224400D03*
G01X6102400Y5854300D03*
G01X6456700Y5381900D03*
G01X6456700Y5224400D03*
G01X7913400Y6070900D03*
G01X7913400Y5913400D03*
G01X7913400Y5755900D03*
G01X7913400Y5598400D03*
G01X7913400Y5440900D03*
G01X7913400Y5283500D03*
G01X7913400Y5126000D03*
G01X7913400Y4968500D03*
G01X7913400Y4811000D03*
G01X7913400Y4653500D03*
G01X7913400Y4496100D03*
G01X7913400Y4338600D03*
G01X7913400Y4181100D03*
G01X7913400Y4023600D03*
G01X7913400Y3866100D03*
G01X7913400Y3708700D03*
G01X7913400Y3551200D03*
G01X7913400Y3393700D03*
G01X7913400Y3236200D03*
G01X7913400Y3078700D03*
G01X7913400Y2921300D03*
G01X7913400Y2763800D03*
G01X7913400Y2606300D03*
G01X7913400Y2448800D03*
G01X7913400Y2291300D03*
G54D62*
G01X6820900Y5905300D03*
G01X6820900Y5580300D03*
G01X6820900Y5255300D03*
G01X6820900Y4930300D03*
G01X6820900Y4605300D03*
G01X6820900Y4280300D03*
G01X6820900Y3955300D03*
G01X6820900Y3630300D03*
G01X6820900Y3305300D03*
G01X6820900Y2980300D03*
G01X6820900Y2655300D03*
G01X7194900Y5904500D03*
G01X7194900Y5579500D03*
G01X7194900Y5254500D03*
G01X7194900Y4929500D03*
G01X7194900Y4604500D03*
G01X7194900Y4279500D03*
G01X7194900Y3954500D03*
G01X7194900Y3629500D03*
G01X7194900Y3304500D03*
G01X7194900Y2979500D03*
G01X7194900Y2654500D03*
G01X7342500Y5904500D03*
G01X7342500Y5579500D03*
G01X7342500Y5254500D03*
G01X7342500Y4929500D03*
G01X7342500Y4604500D03*
G01X7342500Y4279500D03*
G01X7342500Y3954500D03*
G01X7342500Y3629500D03*
G01X7342500Y3304500D03*
G01X7342500Y2979500D03*
G01X7342500Y2654500D03*
G54D64*
G01X4500000Y5079700D03*
G01X4500000Y4560000D03*
G01X4500000Y4429700D03*
G01X4500000Y3910000D03*
G01X4500000Y3779700D03*
G01X4500000Y3260000D03*
G01X5100000Y5079700D03*
G01X5100000Y4560000D03*
G01X5100000Y4429700D03*
G01X5100000Y3910000D03*
G01X5100000Y3779700D03*
G01X5100000Y3260000D03*
G54D46*
G01X0666500Y7360000D03*
G01X0666500Y7040000D03*
G01X0666500Y6720000D03*
G01X0666500Y6400000D03*
G01X0950000Y7360000D03*
G01X0950000Y7040000D03*
G01X0950000Y6720000D03*
G01X0950000Y6400000D03*
G01X4342500Y5322800D03*
G01X4626000Y5322800D03*
M02*
