<?xml version="1.0" encoding="UTF-8"?>
<svg xmlns="http://www.w3.org/2000/svg" xmlns:xlink="http://www.w3.org/1999/xlink" width="371pt" height="272pt" viewBox="0 0 371 272" version="1.1">
<g id="surface1">
<path style="fill:none;stroke-width:0.01;stroke-linecap:round;stroke-linejoin:miter;stroke:rgb(100%,49.803922%,45.098039%);stroke-opacity:1;stroke-miterlimit:10;" d="M -0.00000807146 3.899994 L 0.0999811 3.999983 " transform="matrix(72,0,0,-72,9.1998,293.940199)"/>
<path style="fill:none;stroke-width:0.01;stroke-linecap:round;stroke-linejoin:miter;stroke:rgb(100%,49.803922%,45.098039%);stroke-opacity:1;stroke-miterlimit:10;" d="M 0.0999811 3.999983 L 4.900003 3.999983 " transform="matrix(72,0,0,-72,9.1998,293.940199)"/>
<path style="fill:none;stroke-width:0.01;stroke-linecap:round;stroke-linejoin:miter;stroke:rgb(100%,49.803922%,45.098039%);stroke-opacity:1;stroke-miterlimit:10;" d="M 4.900003 3.999983 L 4.900003 0.399994 " transform="matrix(72,0,0,-72,9.1998,293.940199)"/>
<path style="fill:none;stroke-width:0.01;stroke-linecap:round;stroke-linejoin:miter;stroke:rgb(100%,49.803922%,45.098039%);stroke-opacity:1;stroke-miterlimit:10;" d="M 4.900003 0.399994 L -0.00000807146 0.399994 " transform="matrix(72,0,0,-72,9.1998,293.940199)"/>
<path style="fill:none;stroke-width:0.01;stroke-linecap:round;stroke-linejoin:miter;stroke:rgb(100%,49.803922%,45.098039%);stroke-opacity:1;stroke-miterlimit:10;" d="M -0.00000807146 0.399994 L -0.00000807146 3.899994 " transform="matrix(72,0,0,-72,9.1998,293.940199)"/>
<path style=" stroke:none;fill-rule:evenodd;fill:rgb(45.098039%,45.098039%,87.058824%);fill-opacity:1;" d="M 117.558594 67.140625 C 117.558594 66.660156 116.839844 66.660156 116.839844 67.140625 C 116.839844 67.621094 117.558594 67.621094 117.558594 67.140625 "/>
<path style=" stroke:none;fill-rule:evenodd;fill:rgb(45.098039%,45.098039%,87.058824%);fill-opacity:1;" d="M 128 28.980469 C 128 28.5 127.28125 28.5 127.28125 28.980469 C 127.28125 29.460938 128 29.460938 128 28.980469 "/>
<path style=" stroke:none;fill-rule:evenodd;fill:rgb(45.098039%,45.098039%,87.058824%);fill-opacity:1;" d="M 128 36.179688 C 128 35.699219 127.28125 35.699219 127.28125 36.179688 C 127.28125 36.660156 128 36.660156 128 36.179688 "/>
<path style=" stroke:none;fill-rule:evenodd;fill:rgb(45.098039%,45.098039%,87.058824%);fill-opacity:1;" d="M 140.238281 72.539062 C 140.238281 72.058594 139.519531 72.058594 139.519531 72.539062 C 139.519531 73.019531 140.238281 73.019531 140.238281 72.539062 "/>
<path style=" stroke:none;fill-rule:evenodd;fill:rgb(45.098039%,45.098039%,87.058824%);fill-opacity:1;" d="M 217.640625 24.300781 C 217.640625 23.820312 216.917969 23.820312 216.917969 24.300781 C 216.917969 24.78125 217.640625 24.78125 217.640625 24.300781 "/>
<path style=" stroke:none;fill-rule:evenodd;fill:rgb(45.098039%,45.098039%,87.058824%);fill-opacity:1;" d="M 219.441406 29.699219 C 219.441406 29.21875 218.71875 29.21875 218.71875 29.699219 C 218.71875 30.179688 219.441406 30.179688 219.441406 29.699219 "/>
<path style=" stroke:none;fill-rule:evenodd;fill:rgb(45.098039%,45.098039%,87.058824%);fill-opacity:1;" d="M 223.761719 19.621094 C 223.761719 19.140625 223.039062 19.140625 223.039062 19.621094 C 223.039062 20.101562 223.761719 20.101562 223.761719 19.621094 "/>
<path style=" stroke:none;fill-rule:evenodd;fill:rgb(45.098039%,45.098039%,87.058824%);fill-opacity:1;" d="M 302.960938 136.980469 C 302.960938 136.5 302.238281 136.5 302.238281 136.980469 C 302.238281 137.460938 302.960938 137.460938 302.960938 136.980469 "/>
<path style=" stroke:none;fill-rule:evenodd;fill:rgb(45.098039%,45.098039%,87.058824%);fill-opacity:1;" d="M 305.121094 136.980469 C 305.121094 136.5 304.398438 136.5 304.398438 136.980469 C 304.398438 137.460938 305.121094 137.460938 305.121094 136.980469 "/>
<path style=" stroke:none;fill-rule:evenodd;fill:rgb(45.098039%,45.098039%,87.058824%);fill-opacity:1;" d="M 307.28125 136.980469 C 307.28125 136.5 306.558594 136.5 306.558594 136.980469 C 306.558594 137.460938 307.28125 137.460938 307.28125 136.980469 "/>
<path style=" stroke:none;fill-rule:evenodd;fill:rgb(45.098039%,45.098039%,87.058824%);fill-opacity:1;" d="M 310.160156 144.179688 C 310.160156 143.699219 309.441406 143.699219 309.441406 144.179688 C 309.441406 144.660156 310.160156 144.660156 310.160156 144.179688 "/>
<path style=" stroke:none;fill-rule:evenodd;fill:rgb(45.098039%,45.098039%,87.058824%);fill-opacity:1;" d="M 312.320312 144.179688 C 312.320312 143.699219 311.601562 143.699219 311.601562 144.179688 C 311.601562 144.660156 312.320312 144.660156 312.320312 144.179688 "/>
<path style=" stroke:none;fill-rule:evenodd;fill:rgb(45.098039%,45.098039%,87.058824%);fill-opacity:1;" d="M 314.480469 144.179688 C 314.480469 143.699219 313.761719 143.699219 313.761719 144.179688 C 313.761719 144.660156 314.480469 144.660156 314.480469 144.179688 "/>
<path style=" stroke:none;fill-rule:evenodd;fill:rgb(45.098039%,45.098039%,87.058824%);fill-opacity:1;" d="M 319.160156 142.738281 C 319.160156 142.261719 318.441406 142.261719 318.441406 142.738281 C 318.441406 143.21875 319.160156 143.21875 319.160156 142.738281 "/>
<path style=" stroke:none;fill-rule:evenodd;fill:rgb(45.098039%,45.098039%,87.058824%);fill-opacity:1;" d="M 320.960938 144.179688 C 320.960938 143.699219 320.238281 143.699219 320.238281 144.179688 C 320.238281 144.660156 320.960938 144.660156 320.960938 144.179688 "/>
<path style=" stroke:none;fill-rule:evenodd;fill:rgb(45.098039%,45.098039%,87.058824%);fill-opacity:1;" d="M 323.121094 144.179688 C 323.121094 143.699219 322.398438 143.699219 322.398438 144.179688 C 322.398438 144.660156 323.121094 144.660156 323.121094 144.179688 "/>
<path style=" stroke:none;fill-rule:evenodd;fill:rgb(45.098039%,45.098039%,87.058824%);fill-opacity:1;" d="M 324.917969 142.738281 C 324.917969 142.261719 324.199219 142.261719 324.199219 142.738281 C 324.199219 143.21875 324.917969 143.21875 324.917969 142.738281 "/>
<path style=" stroke:none;fill-rule:evenodd;fill:rgb(45.098039%,45.098039%,87.058824%);fill-opacity:1;" d="M 328.160156 136.621094 C 328.160156 136.140625 327.441406 136.140625 327.441406 136.621094 C 327.441406 137.101562 328.160156 137.101562 328.160156 136.621094 "/>
<path style=" stroke:none;fill-rule:evenodd;fill:rgb(45.098039%,45.098039%,87.058824%);fill-opacity:1;" d="M 330.320312 136.621094 C 330.320312 136.140625 329.601562 136.140625 329.601562 136.621094 C 329.601562 137.101562 330.320312 137.101562 330.320312 136.621094 "/>
<path style=" stroke:none;fill-rule:evenodd;fill:rgb(45.098039%,45.098039%,87.058824%);fill-opacity:1;" d="M 334.28125 131.582031 C 334.28125 131.101562 333.558594 131.101562 333.558594 131.582031 C 333.558594 132.058594 334.28125 132.058594 334.28125 131.582031 "/>
<path style=" stroke:none;fill-rule:evenodd;fill:rgb(45.098039%,45.098039%,87.058824%);fill-opacity:1;" d="M 334.28125 133.738281 C 334.28125 133.261719 333.558594 133.261719 333.558594 133.738281 C 333.558594 134.21875 334.28125 134.21875 334.28125 133.738281 "/>
<path style=" stroke:none;fill-rule:evenodd;fill:rgb(45.098039%,45.098039%,87.058824%);fill-opacity:1;" d="M 336.078125 141.300781 C 336.078125 140.820312 335.359375 140.820312 335.359375 141.300781 C 335.359375 141.78125 336.078125 141.78125 336.078125 141.300781 "/>
<path style=" stroke:none;fill-rule:evenodd;fill:rgb(45.098039%,45.098039%,87.058824%);fill-opacity:1;" d="M 338.238281 141.300781 C 338.238281 140.820312 337.519531 140.820312 337.519531 141.300781 C 337.519531 141.78125 338.238281 141.78125 338.238281 141.300781 "/>
<path style=" stroke:none;fill-rule:evenodd;fill:rgb(45.098039%,45.098039%,87.058824%);fill-opacity:1;" d="M 339.679688 143.820312 C 339.679688 143.339844 338.960938 143.339844 338.960938 143.820312 C 338.960938 144.300781 339.679688 144.300781 339.679688 143.820312 "/>
<path style=" stroke:none;fill-rule:evenodd;fill:rgb(45.098039%,45.098039%,87.058824%);fill-opacity:1;" d="M 341.839844 143.820312 C 341.839844 143.339844 341.121094 143.339844 341.121094 143.820312 C 341.121094 144.300781 341.839844 144.300781 341.839844 143.820312 "/>
<path style=" stroke:none;fill-rule:evenodd;fill:rgb(45.098039%,45.098039%,87.058824%);fill-opacity:1;" d="M 350.121094 144.179688 C 350.121094 143.699219 349.398438 143.699219 349.398438 144.179688 C 349.398438 144.660156 350.121094 144.660156 350.121094 144.179688 "/>
<path style=" stroke:none;fill-rule:evenodd;fill:rgb(45.098039%,45.098039%,87.058824%);fill-opacity:1;" d="M 350.839844 130.859375 C 350.839844 130.378906 350.121094 130.378906 350.121094 130.859375 C 350.121094 131.339844 350.839844 131.339844 350.839844 130.859375 "/>
<path style=" stroke:none;fill-rule:evenodd;fill:rgb(45.098039%,45.098039%,87.058824%);fill-opacity:1;" d="M 352.28125 144.179688 C 352.28125 143.699219 351.558594 143.699219 351.558594 144.179688 C 351.558594 144.660156 352.28125 144.660156 352.28125 144.179688 "/>
<path style=" stroke:none;fill-rule:evenodd;fill:rgb(45.098039%,45.098039%,87.058824%);fill-opacity:1;" d="M 353 130.859375 C 353 130.378906 352.28125 130.378906 352.28125 130.859375 C 352.28125 131.339844 353 131.339844 353 130.859375 "/>
<path style=" stroke:none;fill-rule:evenodd;fill:rgb(45.098039%,45.098039%,87.058824%);fill-opacity:1;" d="M 75.367188 20.339844 C 75.367188 18.515625 72.632812 18.515625 72.632812 20.339844 C 72.632812 22.164062 75.367188 22.164062 75.367188 20.339844 "/>
<path style=" stroke:none;fill-rule:evenodd;fill:rgb(45.098039%,45.098039%,87.058824%);fill-opacity:1;" d="M 75.367188 27.539062 C 75.367188 25.714844 72.632812 25.714844 72.632812 27.539062 C 72.632812 29.363281 75.367188 29.363281 75.367188 27.539062 "/>
<path style=" stroke:none;fill-rule:evenodd;fill:rgb(45.098039%,45.098039%,87.058824%);fill-opacity:1;" d="M 75.367188 34.738281 C 75.367188 32.917969 72.632812 32.917969 72.632812 34.738281 C 72.632812 36.5625 75.367188 36.5625 75.367188 34.738281 "/>
<path style=" stroke:none;fill-rule:evenodd;fill:rgb(45.098039%,45.098039%,87.058824%);fill-opacity:1;" d="M 75.367188 41.941406 C 75.367188 40.117188 72.632812 40.117188 72.632812 41.941406 C 72.632812 43.765625 75.367188 43.765625 75.367188 41.941406 "/>
<path style=" stroke:none;fill-rule:evenodd;fill:rgb(45.098039%,45.098039%,87.058824%);fill-opacity:1;" d="M 75.367188 49.140625 C 75.367188 47.316406 72.632812 47.316406 72.632812 49.140625 C 72.632812 50.964844 75.367188 50.964844 75.367188 49.140625 "/>
<path style=" stroke:none;fill-rule:evenodd;fill:rgb(45.098039%,45.098039%,87.058824%);fill-opacity:1;" d="M 75.367188 128.339844 C 75.367188 126.515625 72.632812 126.515625 72.632812 128.339844 C 72.632812 130.164062 75.367188 130.164062 75.367188 128.339844 "/>
<path style=" stroke:none;fill-rule:evenodd;fill:rgb(45.098039%,45.098039%,87.058824%);fill-opacity:1;" d="M 75.367188 135.539062 C 75.367188 133.714844 72.632812 133.714844 72.632812 135.539062 C 72.632812 137.363281 75.367188 137.363281 75.367188 135.539062 "/>
<path style=" stroke:none;fill-rule:evenodd;fill:rgb(45.098039%,45.098039%,87.058824%);fill-opacity:1;" d="M 82.566406 20.339844 C 82.566406 18.515625 79.832031 18.515625 79.832031 20.339844 C 79.832031 22.164062 82.566406 22.164062 82.566406 20.339844 "/>
<path style=" stroke:none;fill-rule:evenodd;fill:rgb(45.098039%,45.098039%,87.058824%);fill-opacity:1;" d="M 82.566406 41.941406 C 82.566406 40.117188 79.832031 40.117188 79.832031 41.941406 C 79.832031 43.765625 82.566406 43.765625 82.566406 41.941406 "/>
<path style=" stroke:none;fill-rule:evenodd;fill:rgb(45.098039%,45.098039%,87.058824%);fill-opacity:1;" d="M 82.566406 49.140625 C 82.566406 47.316406 79.832031 47.316406 79.832031 49.140625 C 79.832031 50.964844 82.566406 50.964844 82.566406 49.140625 "/>
<path style=" stroke:none;fill-rule:evenodd;fill:rgb(45.098039%,45.098039%,87.058824%);fill-opacity:1;" d="M 82.566406 128.339844 C 82.566406 126.515625 79.832031 126.515625 79.832031 128.339844 C 79.832031 130.164062 82.566406 130.164062 82.566406 128.339844 "/>
<path style=" stroke:none;fill-rule:evenodd;fill:rgb(45.098039%,45.098039%,87.058824%);fill-opacity:1;" d="M 82.566406 135.539062 C 82.566406 133.714844 79.832031 133.714844 79.832031 135.539062 C 79.832031 137.363281 82.566406 137.363281 82.566406 135.539062 "/>
<path style=" stroke:none;fill-rule:evenodd;fill:rgb(45.098039%,45.098039%,87.058824%);fill-opacity:1;" d="M 125.046875 63.539062 C 125.046875 61.714844 122.3125 61.714844 122.3125 63.539062 C 122.3125 65.363281 125.046875 65.363281 125.046875 63.539062 "/>
<path style=" stroke:none;fill-rule:evenodd;fill:rgb(45.098039%,45.098039%,87.058824%);fill-opacity:1;" d="M 125.046875 70.738281 C 125.046875 68.917969 122.3125 68.917969 122.3125 70.738281 C 122.3125 72.5625 125.046875 72.5625 125.046875 70.738281 "/>
<path style=" stroke:none;fill-rule:evenodd;fill:rgb(45.098039%,45.098039%,87.058824%);fill-opacity:1;" d="M 125.046875 77.941406 C 125.046875 76.117188 122.3125 76.117188 122.3125 77.941406 C 122.3125 79.765625 125.046875 79.765625 125.046875 77.941406 "/>
<path style=" stroke:none;fill-rule:evenodd;fill:rgb(45.098039%,45.098039%,87.058824%);fill-opacity:1;" d="M 125.046875 92.339844 C 125.046875 90.515625 122.3125 90.515625 122.3125 92.339844 C 122.3125 94.164062 125.046875 94.164062 125.046875 92.339844 "/>
<path style=" stroke:none;fill-rule:evenodd;fill:rgb(45.098039%,45.098039%,87.058824%);fill-opacity:1;" d="M 125.046875 149.941406 C 125.046875 148.117188 122.3125 148.117188 122.3125 149.941406 C 122.3125 151.765625 125.046875 151.765625 125.046875 149.941406 "/>
<path style=" stroke:none;fill-rule:evenodd;fill:rgb(45.098039%,45.098039%,87.058824%);fill-opacity:1;" d="M 125.046875 157.140625 C 125.046875 155.316406 122.3125 155.316406 122.3125 157.140625 C 122.3125 158.964844 125.046875 158.964844 125.046875 157.140625 "/>
<path style=" stroke:none;fill-rule:evenodd;fill:rgb(45.098039%,45.098039%,87.058824%);fill-opacity:1;" d="M 125.046875 164.339844 C 125.046875 162.515625 122.3125 162.515625 122.3125 164.339844 C 122.3125 166.164062 125.046875 166.164062 125.046875 164.339844 "/>
<path style=" stroke:none;fill-rule:evenodd;fill:rgb(45.098039%,45.098039%,87.058824%);fill-opacity:1;" d="M 125.046875 171.539062 C 125.046875 169.714844 122.3125 169.714844 122.3125 171.539062 C 122.3125 173.363281 125.046875 173.363281 125.046875 171.539062 "/>
<path style=" stroke:none;fill-rule:evenodd;fill:rgb(45.098039%,45.098039%,87.058824%);fill-opacity:1;" d="M 132.246094 63.539062 C 132.246094 61.714844 129.511719 61.714844 129.511719 63.539062 C 129.511719 65.363281 132.246094 65.363281 132.246094 63.539062 "/>
<path style=" stroke:none;fill-rule:evenodd;fill:rgb(45.098039%,45.098039%,87.058824%);fill-opacity:1;" d="M 132.246094 70.738281 C 132.246094 68.917969 129.511719 68.917969 129.511719 70.738281 C 129.511719 72.5625 132.246094 72.5625 132.246094 70.738281 "/>
<path style=" stroke:none;fill-rule:evenodd;fill:rgb(45.098039%,45.098039%,87.058824%);fill-opacity:1;" d="M 132.246094 77.941406 C 132.246094 76.117188 129.511719 76.117188 129.511719 77.941406 C 129.511719 79.765625 132.246094 79.765625 132.246094 77.941406 "/>
<path style=" stroke:none;fill-rule:evenodd;fill:rgb(45.098039%,45.098039%,87.058824%);fill-opacity:1;" d="M 132.246094 85.140625 C 132.246094 83.316406 129.511719 83.316406 129.511719 85.140625 C 129.511719 86.964844 132.246094 86.964844 132.246094 85.140625 "/>
<path style=" stroke:none;fill-rule:evenodd;fill:rgb(45.098039%,45.098039%,87.058824%);fill-opacity:1;" d="M 132.246094 92.339844 C 132.246094 90.515625 129.511719 90.515625 129.511719 92.339844 C 129.511719 94.164062 132.246094 94.164062 132.246094 92.339844 "/>
<path style=" stroke:none;fill-rule:evenodd;fill:rgb(45.098039%,45.098039%,87.058824%);fill-opacity:1;" d="M 132.246094 99.539062 C 132.246094 97.714844 129.511719 97.714844 129.511719 99.539062 C 129.511719 101.363281 132.246094 101.363281 132.246094 99.539062 "/>
<path style=" stroke:none;fill-rule:evenodd;fill:rgb(45.098039%,45.098039%,87.058824%);fill-opacity:1;" d="M 132.246094 149.941406 C 132.246094 148.117188 129.511719 148.117188 129.511719 149.941406 C 129.511719 151.765625 132.246094 151.765625 132.246094 149.941406 "/>
<path style=" stroke:none;fill-rule:evenodd;fill:rgb(45.098039%,45.098039%,87.058824%);fill-opacity:1;" d="M 132.246094 157.140625 C 132.246094 155.316406 129.511719 155.316406 129.511719 157.140625 C 129.511719 158.964844 132.246094 158.964844 132.246094 157.140625 "/>
<path style=" stroke:none;fill-rule:evenodd;fill:rgb(45.098039%,45.098039%,87.058824%);fill-opacity:1;" d="M 132.246094 164.339844 C 132.246094 162.515625 129.511719 162.515625 129.511719 164.339844 C 129.511719 166.164062 132.246094 166.164062 132.246094 164.339844 "/>
<path style=" stroke:none;fill-rule:evenodd;fill:rgb(45.098039%,45.098039%,87.058824%);fill-opacity:1;" d="M 132.246094 171.539062 C 132.246094 169.714844 129.511719 169.714844 129.511719 171.539062 C 129.511719 173.363281 132.246094 173.363281 132.246094 171.539062 "/>
<path style=" stroke:none;fill-rule:evenodd;fill:rgb(45.098039%,45.098039%,87.058824%);fill-opacity:1;" d="M 132.246094 178.738281 C 132.246094 176.917969 129.511719 176.917969 129.511719 178.738281 C 129.511719 180.5625 132.246094 180.5625 132.246094 178.738281 "/>
<path style=" stroke:none;fill-rule:evenodd;fill:rgb(45.098039%,45.098039%,87.058824%);fill-opacity:1;" d="M 132.246094 185.941406 C 132.246094 184.117188 129.511719 184.117188 129.511719 185.941406 C 129.511719 187.765625 132.246094 187.765625 132.246094 185.941406 "/>
<path style=" stroke:none;fill-rule:evenodd;fill:rgb(45.098039%,45.098039%,87.058824%);fill-opacity:1;" d="M 146.289062 67.140625 C 146.289062 65.316406 143.550781 65.316406 143.550781 67.140625 C 143.550781 68.964844 146.289062 68.964844 146.289062 67.140625 "/>
<path style=" stroke:none;fill-rule:evenodd;fill:rgb(45.098039%,45.098039%,87.058824%);fill-opacity:1;" d="M 146.289062 81.539062 C 146.289062 79.714844 143.550781 79.714844 143.550781 81.539062 C 143.550781 83.363281 146.289062 83.363281 146.289062 81.539062 "/>
<path style=" stroke:none;fill-rule:evenodd;fill:rgb(45.098039%,45.098039%,87.058824%);fill-opacity:1;" d="M 203.167969 27.539062 C 203.167969 25.714844 200.433594 25.714844 200.433594 27.539062 C 200.433594 29.363281 203.167969 29.363281 203.167969 27.539062 "/>
<path style=" stroke:none;fill-rule:evenodd;fill:rgb(45.098039%,45.098039%,87.058824%);fill-opacity:1;" d="M 203.167969 41.941406 C 203.167969 40.117188 200.433594 40.117188 200.433594 41.941406 C 200.433594 43.765625 203.167969 43.765625 203.167969 41.941406 "/>
<path style=" stroke:none;fill-rule:evenodd;fill:rgb(45.098039%,45.098039%,87.058824%);fill-opacity:1;" d="M 203.167969 49.140625 C 203.167969 47.316406 200.433594 47.316406 200.433594 49.140625 C 200.433594 50.964844 203.167969 50.964844 203.167969 49.140625 "/>
<path style=" stroke:none;fill-rule:evenodd;fill:rgb(45.098039%,45.098039%,87.058824%);fill-opacity:1;" d="M 203.167969 128.339844 C 203.167969 126.515625 200.433594 126.515625 200.433594 128.339844 C 200.433594 130.164062 203.167969 130.164062 203.167969 128.339844 "/>
<path style=" stroke:none;fill-rule:evenodd;fill:rgb(45.098039%,45.098039%,87.058824%);fill-opacity:1;" d="M 203.167969 135.539062 C 203.167969 133.714844 200.433594 133.714844 200.433594 135.539062 C 200.433594 137.363281 203.167969 137.363281 203.167969 135.539062 "/>
<path style=" stroke:none;fill-rule:evenodd;fill:rgb(45.098039%,45.098039%,87.058824%);fill-opacity:1;" d="M 210.367188 27.539062 C 210.367188 25.714844 207.632812 25.714844 207.632812 27.539062 C 207.632812 29.363281 210.367188 29.363281 210.367188 27.539062 "/>
<path style=" stroke:none;fill-rule:evenodd;fill:rgb(45.098039%,45.098039%,87.058824%);fill-opacity:1;" d="M 210.367188 41.941406 C 210.367188 40.117188 207.632812 40.117188 207.632812 41.941406 C 207.632812 43.765625 210.367188 43.765625 210.367188 41.941406 "/>
<path style=" stroke:none;fill-rule:evenodd;fill:rgb(45.098039%,45.098039%,87.058824%);fill-opacity:1;" d="M 210.367188 49.140625 C 210.367188 47.316406 207.632812 47.316406 207.632812 49.140625 C 207.632812 50.964844 210.367188 50.964844 210.367188 49.140625 "/>
<path style=" stroke:none;fill-rule:evenodd;fill:rgb(45.098039%,45.098039%,87.058824%);fill-opacity:1;" d="M 210.367188 128.339844 C 210.367188 126.515625 207.632812 126.515625 207.632812 128.339844 C 207.632812 130.164062 210.367188 130.164062 210.367188 128.339844 "/>
<path style=" stroke:none;fill-rule:evenodd;fill:rgb(45.098039%,45.098039%,87.058824%);fill-opacity:1;" d="M 210.367188 135.539062 C 210.367188 133.714844 207.632812 133.714844 207.632812 135.539062 C 207.632812 137.363281 210.367188 137.363281 210.367188 135.539062 "/>
<path style=" stroke:none;fill-rule:evenodd;fill:rgb(45.098039%,45.098039%,87.058824%);fill-opacity:1;" d="M 224.769531 41.941406 C 224.769531 40.117188 222.03125 40.117188 222.03125 41.941406 C 222.03125 43.765625 224.769531 43.765625 224.769531 41.941406 "/>
<path style=" stroke:none;fill-rule:evenodd;fill:rgb(45.098039%,45.098039%,87.058824%);fill-opacity:1;" d="M 224.769531 95.941406 C 224.769531 94.117188 222.03125 94.117188 222.03125 95.941406 C 222.03125 97.765625 224.769531 97.765625 224.769531 95.941406 "/>
<path style=" stroke:none;fill-rule:evenodd;fill:rgb(45.098039%,45.098039%,87.058824%);fill-opacity:1;" d="M 224.769531 128.339844 C 224.769531 126.515625 222.03125 126.515625 222.03125 128.339844 C 222.03125 130.164062 224.769531 130.164062 224.769531 128.339844 "/>
<path style=" stroke:none;fill-rule:evenodd;fill:rgb(45.098039%,45.098039%,87.058824%);fill-opacity:1;" d="M 224.769531 182.339844 C 224.769531 180.515625 222.03125 180.515625 222.03125 182.339844 C 222.03125 184.164062 224.769531 184.164062 224.769531 182.339844 "/>
<path style=" stroke:none;fill-rule:evenodd;fill:rgb(45.098039%,45.098039%,87.058824%);fill-opacity:1;" d="M 231.96875 41.941406 C 231.96875 40.117188 229.230469 40.117188 229.230469 41.941406 C 229.230469 43.765625 231.96875 43.765625 231.96875 41.941406 "/>
<path style=" stroke:none;fill-rule:evenodd;fill:rgb(45.098039%,45.098039%,87.058824%);fill-opacity:1;" d="M 231.96875 95.941406 C 231.96875 94.117188 229.230469 94.117188 229.230469 95.941406 C 229.230469 97.765625 231.96875 97.765625 231.96875 95.941406 "/>
<path style=" stroke:none;fill-rule:evenodd;fill:rgb(45.098039%,45.098039%,87.058824%);fill-opacity:1;" d="M 231.96875 128.339844 C 231.96875 126.515625 229.230469 126.515625 229.230469 128.339844 C 229.230469 130.164062 231.96875 130.164062 231.96875 128.339844 "/>
<path style=" stroke:none;fill-rule:evenodd;fill:rgb(45.098039%,45.098039%,87.058824%);fill-opacity:1;" d="M 231.96875 182.339844 C 231.96875 180.515625 229.230469 180.515625 229.230469 182.339844 C 229.230469 184.164062 231.96875 184.164062 231.96875 182.339844 "/>
<path style=" stroke:none;fill-rule:evenodd;fill:rgb(45.098039%,45.098039%,87.058824%);fill-opacity:1;" d="M 239.167969 41.941406 C 239.167969 40.117188 236.433594 40.117188 236.433594 41.941406 C 236.433594 43.765625 239.167969 43.765625 239.167969 41.941406 "/>
<path style=" stroke:none;fill-rule:evenodd;fill:rgb(45.098039%,45.098039%,87.058824%);fill-opacity:1;" d="M 239.167969 95.941406 C 239.167969 94.117188 236.433594 94.117188 236.433594 95.941406 C 236.433594 97.765625 239.167969 97.765625 239.167969 95.941406 "/>
<path style=" stroke:none;fill-rule:evenodd;fill:rgb(45.098039%,45.098039%,87.058824%);fill-opacity:1;" d="M 239.167969 128.339844 C 239.167969 126.515625 236.433594 126.515625 236.433594 128.339844 C 236.433594 130.164062 239.167969 130.164062 239.167969 128.339844 "/>
<path style=" stroke:none;fill-rule:evenodd;fill:rgb(45.098039%,45.098039%,87.058824%);fill-opacity:1;" d="M 239.167969 182.339844 C 239.167969 180.515625 236.433594 180.515625 236.433594 182.339844 C 236.433594 184.164062 239.167969 184.164062 239.167969 182.339844 "/>
<path style=" stroke:none;fill-rule:evenodd;fill:rgb(45.098039%,45.098039%,87.058824%);fill-opacity:1;" d="M 246.367188 41.941406 C 246.367188 40.117188 243.632812 40.117188 243.632812 41.941406 C 243.632812 43.765625 246.367188 43.765625 246.367188 41.941406 "/>
<path style=" stroke:none;fill-rule:evenodd;fill:rgb(45.098039%,45.098039%,87.058824%);fill-opacity:1;" d="M 246.367188 95.941406 C 246.367188 94.117188 243.632812 94.117188 243.632812 95.941406 C 243.632812 97.765625 246.367188 97.765625 246.367188 95.941406 "/>
<path style=" stroke:none;fill-rule:evenodd;fill:rgb(45.098039%,45.098039%,87.058824%);fill-opacity:1;" d="M 246.367188 128.339844 C 246.367188 126.515625 243.632812 126.515625 243.632812 128.339844 C 243.632812 130.164062 246.367188 130.164062 246.367188 128.339844 "/>
<path style=" stroke:none;fill-rule:evenodd;fill:rgb(45.098039%,45.098039%,87.058824%);fill-opacity:1;" d="M 246.367188 182.339844 C 246.367188 180.515625 243.632812 180.515625 243.632812 182.339844 C 243.632812 184.164062 246.367188 184.164062 246.367188 182.339844 "/>
<path style=" stroke:none;fill-rule:evenodd;fill:rgb(45.098039%,45.098039%,87.058824%);fill-opacity:1;" d="M 253.566406 41.941406 C 253.566406 40.117188 250.832031 40.117188 250.832031 41.941406 C 250.832031 43.765625 253.566406 43.765625 253.566406 41.941406 "/>
<path style=" stroke:none;fill-rule:evenodd;fill:rgb(45.098039%,45.098039%,87.058824%);fill-opacity:1;" d="M 253.566406 95.941406 C 253.566406 94.117188 250.832031 94.117188 250.832031 95.941406 C 250.832031 97.765625 253.566406 97.765625 253.566406 95.941406 "/>
<path style=" stroke:none;fill-rule:evenodd;fill:rgb(45.098039%,45.098039%,87.058824%);fill-opacity:1;" d="M 253.566406 128.339844 C 253.566406 126.515625 250.832031 126.515625 250.832031 128.339844 C 250.832031 130.164062 253.566406 130.164062 253.566406 128.339844 "/>
<path style=" stroke:none;fill-rule:evenodd;fill:rgb(45.098039%,45.098039%,87.058824%);fill-opacity:1;" d="M 253.566406 182.339844 C 253.566406 180.515625 250.832031 180.515625 250.832031 182.339844 C 250.832031 184.164062 253.566406 184.164062 253.566406 182.339844 "/>
<path style=" stroke:none;fill-rule:evenodd;fill:rgb(45.098039%,45.098039%,87.058824%);fill-opacity:1;" d="M 260.769531 41.941406 C 260.769531 40.117188 258.03125 40.117188 258.03125 41.941406 C 258.03125 43.765625 260.769531 43.765625 260.769531 41.941406 "/>
<path style=" stroke:none;fill-rule:evenodd;fill:rgb(45.098039%,45.098039%,87.058824%);fill-opacity:1;" d="M 260.769531 95.941406 C 260.769531 94.117188 258.03125 94.117188 258.03125 95.941406 C 258.03125 97.765625 260.769531 97.765625 260.769531 95.941406 "/>
<path style=" stroke:none;fill-rule:evenodd;fill:rgb(45.098039%,45.098039%,87.058824%);fill-opacity:1;" d="M 260.769531 128.339844 C 260.769531 126.515625 258.03125 126.515625 258.03125 128.339844 C 258.03125 130.164062 260.769531 130.164062 260.769531 128.339844 "/>
<path style=" stroke:none;fill-rule:evenodd;fill:rgb(45.098039%,45.098039%,87.058824%);fill-opacity:1;" d="M 260.769531 182.339844 C 260.769531 180.515625 258.03125 180.515625 258.03125 182.339844 C 258.03125 184.164062 260.769531 184.164062 260.769531 182.339844 "/>
<path style=" stroke:none;fill-rule:evenodd;fill:rgb(45.098039%,45.098039%,87.058824%);fill-opacity:1;" d="M 267.96875 41.941406 C 267.96875 40.117188 265.230469 40.117188 265.230469 41.941406 C 265.230469 43.765625 267.96875 43.765625 267.96875 41.941406 "/>
<path style=" stroke:none;fill-rule:evenodd;fill:rgb(45.098039%,45.098039%,87.058824%);fill-opacity:1;" d="M 267.96875 95.941406 C 267.96875 94.117188 265.230469 94.117188 265.230469 95.941406 C 265.230469 97.765625 267.96875 97.765625 267.96875 95.941406 "/>
<path style=" stroke:none;fill-rule:evenodd;fill:rgb(45.098039%,45.098039%,87.058824%);fill-opacity:1;" d="M 267.96875 128.339844 C 267.96875 126.515625 265.230469 126.515625 265.230469 128.339844 C 265.230469 130.164062 267.96875 130.164062 267.96875 128.339844 "/>
<path style=" stroke:none;fill-rule:evenodd;fill:rgb(45.098039%,45.098039%,87.058824%);fill-opacity:1;" d="M 267.96875 182.339844 C 267.96875 180.515625 265.230469 180.515625 265.230469 182.339844 C 265.230469 184.164062 267.96875 184.164062 267.96875 182.339844 "/>
<path style=" stroke:none;fill-rule:evenodd;fill:rgb(45.098039%,45.098039%,87.058824%);fill-opacity:1;" d="M 275.167969 41.941406 C 275.167969 40.117188 272.433594 40.117188 272.433594 41.941406 C 272.433594 43.765625 275.167969 43.765625 275.167969 41.941406 "/>
<path style=" stroke:none;fill-rule:evenodd;fill:rgb(45.098039%,45.098039%,87.058824%);fill-opacity:1;" d="M 275.167969 95.941406 C 275.167969 94.117188 272.433594 94.117188 272.433594 95.941406 C 272.433594 97.765625 275.167969 97.765625 275.167969 95.941406 "/>
<path style=" stroke:none;fill-rule:evenodd;fill:rgb(45.098039%,45.098039%,87.058824%);fill-opacity:1;" d="M 275.167969 128.339844 C 275.167969 126.515625 272.433594 126.515625 272.433594 128.339844 C 272.433594 130.164062 275.167969 130.164062 275.167969 128.339844 "/>
<path style=" stroke:none;fill-rule:evenodd;fill:rgb(45.098039%,45.098039%,87.058824%);fill-opacity:1;" d="M 275.167969 182.339844 C 275.167969 180.515625 272.433594 180.515625 272.433594 182.339844 C 272.433594 184.164062 275.167969 184.164062 275.167969 182.339844 "/>
</g>
</svg>
