G04 This is an RS-274x file exported by *
G04 gerbv version 2.7.0 *
G04 More information is available about gerbv at *
G04 http://gerbv.geda-project.org/ *
G04 --End of header info--*
%MOIN*%
%FSLAX36Y36*%
%IPPOS*%
G04 --Define apertures--*
%ADD10C,0.0100*%
%ADD11C,0.0660*%
%ADD12C,0.0260*%
%ADD13C,0.0001*%
%ADD14C,0.0380*%
G04 --Start main section--*
G01X0000000Y0000000D02*
G54D10*
G01X0000000Y3900000D02*
G01X0100000Y4000000D01*
G01X0100000Y4000000D02*
G01X4900000Y4000000D01*
G01X4900000Y4000000D02*
G01X4900000Y0400000D01*
G01X4900000Y0400000D02*
G01X0000000Y0400000D01*
G01X0000000Y0400000D02*
G01X0000000Y3900000D01*
G01X0000000Y0000000D02*
G54D11*
G01X3275000Y1550000D03*
G01X3375000Y1550000D03*
G01X3475000Y1550000D03*
G01X3575000Y1550000D03*
G01X2975000Y1550000D03*
G01X3075000Y1550000D03*
G01X3175000Y1550000D03*
G01X2975000Y2300000D03*
G01X2775000Y2300000D03*
G01X2775000Y2200000D03*
G01X2675000Y2200000D03*
G01X2675000Y2300000D03*
G01X3675000Y1550000D03*
G01X3075000Y2300000D03*
G01X3175000Y2300000D03*
G01X3275000Y2300000D03*
G01X3375000Y2300000D03*
G01X3475000Y2300000D03*
G01X3575000Y2300000D03*
G01X3675000Y2300000D03*
G01X3675000Y2750000D03*
G01X3575000Y2750000D03*
G01X3475000Y2750000D03*
G01X3375000Y2750000D03*
G01X3275000Y2750000D03*
G01X3175000Y2750000D03*
G01X3075000Y2750000D03*
G01X2975000Y2750000D03*
G54D12*
G01X4584990Y2085000D03*
G01X4380000Y2100000D03*
G01X4615000Y2085000D03*
G01X4730000Y2080000D03*
G01X4760000Y2080000D03*
G01X4535000Y2120000D03*
G01X4565000Y2120000D03*
G01X4425000Y2185000D03*
G01X4455000Y2185000D03*
G01X4300000Y2100000D03*
G01X4325000Y2080000D03*
G01X4355000Y2080000D03*
G01X4175000Y2080000D03*
G01X4205000Y2080000D03*
G01X4235000Y2080000D03*
G01X4075000Y2180000D03*
G01X4105000Y2180000D03*
G01X4135000Y2180000D03*
G54D13*
G36*
G01X1657000Y3233000D02*
G01X1657000Y3167000D01*
G01X1723000Y3167000D01*
G01X1723000Y3233000D01*
G01X1657000Y3233000D01*
G37*
G54D11*
G01X1690000Y3100000D03*
G01X1690000Y3000000D03*
G01X1885000Y3150000D03*
G01X2675000Y3500000D03*
G01X2675000Y3400000D03*
G01X2775000Y3400000D03*
G01X2775000Y3500000D03*
G01X1690000Y2900000D03*
G01X1690000Y2800000D03*
G01X1690000Y2700000D03*
G01X1885000Y2950000D03*
G01X3675000Y3500000D03*
G01X3575000Y3500000D03*
G01X3475000Y3500000D03*
G01X3375000Y3500000D03*
G01X3275000Y3500000D03*
G01X3175000Y3500000D03*
G01X3075000Y3500000D03*
G01X2975000Y3500000D03*
G01X1000000Y2300000D03*
G01X1000000Y2200000D03*
G01X0900000Y2200000D03*
G01X0900000Y2300000D03*
G54D13*
G36*
G01X1657000Y2033000D02*
G01X1657000Y1967000D01*
G01X1723000Y1967000D01*
G01X1723000Y2033000D01*
G01X1657000Y2033000D01*
G37*
G54D11*
G01X1690000Y1900000D03*
G01X1690000Y1800000D03*
G01X1690000Y1700000D03*
G01X1690000Y1600000D03*
G01X1690000Y1500000D03*
G01X0900000Y3500000D03*
G01X0900000Y3400000D03*
G01X1000000Y3400000D03*
G01X1000000Y3500000D03*
G01X0000000Y0000000D02*
G54D10*
G01X1500000Y3150000D03*
G01X1645000Y3680000D03*
G01X1645000Y3580000D03*
G01X1815000Y3075000D03*
G01X2890000Y3745000D03*
G01X2915000Y3670000D03*
G01X2975000Y3810000D03*
G01X4075000Y2180000D03*
G01X4105000Y2180000D03*
G01X4135000Y2180000D03*
G01X4175000Y2080000D03*
G01X4205000Y2080000D03*
G01X4235000Y2080000D03*
G01X4300000Y2100000D03*
G01X4325000Y2080000D03*
G01X4355000Y2080000D03*
G01X4380000Y2100000D03*
G01X4425000Y2185000D03*
G01X4455000Y2185000D03*
G01X4510000Y2255000D03*
G01X4510000Y2225000D03*
G01X4535000Y2120000D03*
G01X4565000Y2120000D03*
G01X4585000Y2085000D03*
G01X4615000Y2085000D03*
G01X4730000Y2080000D03*
G01X4740000Y2265000D03*
G01X4760000Y2080000D03*
G01X4770000Y2265000D03*
G54D14*
G01X0900000Y3800000D03*
G01X0900000Y3700000D03*
G01X0900000Y3600000D03*
G01X0900000Y3500000D03*
G01X0900000Y3400000D03*
G01X0900000Y2300000D03*
G01X0900000Y2200000D03*
G01X1000000Y3800000D03*
G01X1000000Y3500000D03*
G01X1000000Y3400000D03*
G01X1000000Y2300000D03*
G01X1000000Y2200000D03*
G01X1590000Y3200000D03*
G01X1590000Y3100000D03*
G01X1590000Y3000000D03*
G01X1590000Y2800000D03*
G01X1590000Y2000000D03*
G01X1590000Y1900000D03*
G01X1590000Y1800000D03*
G01X1590000Y1700000D03*
G01X1690000Y3200000D03*
G01X1690000Y3100000D03*
G01X1690000Y3000000D03*
G01X1690000Y2900000D03*
G01X1690000Y2800000D03*
G01X1690000Y2700000D03*
G01X1690000Y2000000D03*
G01X1690000Y1900000D03*
G01X1690000Y1800000D03*
G01X1690000Y1700000D03*
G01X1690000Y1600000D03*
G01X1690000Y1500000D03*
G01X1885000Y3150000D03*
G01X1885000Y2950000D03*
G01X2675000Y3700000D03*
G01X2675000Y3500000D03*
G01X2675000Y3400000D03*
G01X2675000Y2300000D03*
G01X2675000Y2200000D03*
G01X2775000Y3700000D03*
G01X2775000Y3500000D03*
G01X2775000Y3400000D03*
G01X2775000Y2300000D03*
G01X2775000Y2200000D03*
G01X2975000Y3500000D03*
G01X2975000Y2750000D03*
G01X2975000Y2300000D03*
G01X2975000Y1550000D03*
G01X3075000Y3500000D03*
G01X3075000Y2750000D03*
G01X3075000Y2300000D03*
G01X3075000Y1550000D03*
G01X3175000Y3500000D03*
G01X3175000Y2750000D03*
G01X3175000Y2300000D03*
G01X3175000Y1550000D03*
G01X3275000Y3500000D03*
G01X3275000Y2750000D03*
G01X3275000Y2300000D03*
G01X3275000Y1550000D03*
G01X3375000Y3500000D03*
G01X3375000Y2750000D03*
G01X3375000Y2300000D03*
G01X3375000Y1550000D03*
G01X3475000Y3500000D03*
G01X3475000Y2750000D03*
G01X3475000Y2300000D03*
G01X3475000Y1550000D03*
G01X3575000Y3500000D03*
G01X3575000Y2750000D03*
G01X3575000Y2300000D03*
G01X3575000Y1550000D03*
G01X3675000Y3500000D03*
G01X3675000Y2750000D03*
G01X3675000Y2300000D03*
G01X3675000Y1550000D03*
M02*
