<?xml version="1.0" encoding="UTF-8"?>
<svg xmlns="http://www.w3.org/2000/svg" xmlns:xlink="http://www.w3.org/1999/xlink" width="371pt" height="272pt" viewBox="0 0 371 272" version="1.1">
<g id="surface1">
<path style="fill:none;stroke-width:0.025;stroke-linecap:round;stroke-linejoin:miter;stroke:rgb(0%,76.470588%,76.470588%);stroke-opacity:1;stroke-miterlimit:10;" d="M 1.645011 3.679996 L 1.645011 3.580007 " transform="matrix(72,0,0,-72,9.1998,293.940199)"/>
<path style="fill:none;stroke-width:0.025;stroke-linecap:round;stroke-linejoin:miter;stroke:rgb(0%,76.470588%,76.470588%);stroke-opacity:1;stroke-miterlimit:10;" d="M 1.499992 3.149994 L 1.740009 3.149994 " transform="matrix(72,0,0,-72,9.1998,293.940199)"/>
<path style="fill:none;stroke-width:0.025;stroke-linecap:round;stroke-linejoin:miter;stroke:rgb(0%,76.470588%,76.470588%);stroke-opacity:1;stroke-miterlimit:10;" d="M 1.740009 3.149994 L 1.814988 3.075016 " transform="matrix(72,0,0,-72,9.1998,293.940199)"/>
<path style="fill:none;stroke-width:0.025;stroke-linecap:round;stroke-linejoin:miter;stroke:rgb(0%,76.470588%,76.470588%);stroke-opacity:1;stroke-miterlimit:10;" d="M 2.89002 3.744992 L 2.89002 3.695024 " transform="matrix(72,0,0,-72,9.1998,293.940199)"/>
<path style="fill:none;stroke-width:0.025;stroke-linecap:round;stroke-linejoin:miter;stroke:rgb(0%,76.470588%,76.470588%);stroke-opacity:1;stroke-miterlimit:10;" d="M 2.89002 3.695024 L 2.914977 3.670014 " transform="matrix(72,0,0,-72,9.1998,293.940199)"/>
<path style="fill:none;stroke-width:0.01;stroke-linecap:round;stroke-linejoin:miter;stroke:rgb(0%,76.470588%,76.470588%);stroke-opacity:1;stroke-miterlimit:10;" d="M 2.675014 3.700016 L 2.675014 3.705007 " transform="matrix(72,0,0,-72,9.1998,293.940199)"/>
<path style="fill:none;stroke-width:0.01;stroke-linecap:round;stroke-linejoin:miter;stroke:rgb(0%,76.470588%,76.470588%);stroke-opacity:1;stroke-miterlimit:10;" d="M 2.675014 3.705007 L 2.805005 3.834998 " transform="matrix(72,0,0,-72,9.1998,293.940199)"/>
<path style="fill:none;stroke-width:0.01;stroke-linecap:round;stroke-linejoin:miter;stroke:rgb(0%,76.470588%,76.470588%);stroke-opacity:1;stroke-miterlimit:10;" d="M 2.805005 3.834998 L 2.950024 3.834998 " transform="matrix(72,0,0,-72,9.1998,293.940199)"/>
<path style="fill:none;stroke-width:0.01;stroke-linecap:round;stroke-linejoin:miter;stroke:rgb(0%,76.470588%,76.470588%);stroke-opacity:1;stroke-miterlimit:10;" d="M 2.950024 3.834998 L 2.974981 3.809988 " transform="matrix(72,0,0,-72,9.1998,293.940199)"/>
<path style="fill:none;stroke-width:0.01;stroke-linecap:round;stroke-linejoin:miter;stroke:rgb(0%,76.470588%,76.470588%);stroke-opacity:1;stroke-miterlimit:10;" d="M 4.509975 2.254975 L 4.730027 2.254975 " transform="matrix(72,0,0,-72,9.1998,293.940199)"/>
<path style="fill:none;stroke-width:0.01;stroke-linecap:round;stroke-linejoin:miter;stroke:rgb(0%,76.470588%,76.470588%);stroke-opacity:1;stroke-miterlimit:10;" d="M 4.730027 2.254975 L 4.740009 2.265011 " transform="matrix(72,0,0,-72,9.1998,293.940199)"/>
<path style="fill:none;stroke-width:0.01;stroke-linecap:round;stroke-linejoin:miter;stroke:rgb(0%,76.470588%,76.470588%);stroke-opacity:1;stroke-miterlimit:10;" d="M 4.509975 2.225027 L 4.730027 2.225027 " transform="matrix(72,0,0,-72,9.1998,293.940199)"/>
<path style="fill:none;stroke-width:0.01;stroke-linecap:round;stroke-linejoin:miter;stroke:rgb(0%,76.470588%,76.470588%);stroke-opacity:1;stroke-miterlimit:10;" d="M 4.730027 2.225027 L 4.770011 2.265011 " transform="matrix(72,0,0,-72,9.1998,293.940199)"/>
<path style=" stroke:none;fill-rule:evenodd;fill:rgb(0%,76.470588%,76.470588%);fill-opacity:1;" d="M 247.160156 182.339844 C 247.160156 179.460938 242.839844 179.460938 242.839844 182.339844 C 242.839844 185.21875 247.160156 185.21875 247.160156 182.339844 "/>
<path style=" stroke:none;fill-rule:evenodd;fill:rgb(0%,76.470588%,76.470588%);fill-opacity:1;" d="M 254.359375 182.339844 C 254.359375 179.460938 250.039062 179.460938 250.039062 182.339844 C 250.039062 185.21875 254.359375 185.21875 254.359375 182.339844 "/>
<path style=" stroke:none;fill-rule:evenodd;fill:rgb(0%,76.470588%,76.470588%);fill-opacity:1;" d="M 261.558594 182.339844 C 261.558594 179.460938 257.238281 179.460938 257.238281 182.339844 C 257.238281 185.21875 261.558594 185.21875 261.558594 182.339844 "/>
<path style=" stroke:none;fill-rule:evenodd;fill:rgb(0%,76.470588%,76.470588%);fill-opacity:1;" d="M 268.761719 182.339844 C 268.761719 179.460938 264.441406 179.460938 264.441406 182.339844 C 264.441406 185.21875 268.761719 185.21875 268.761719 182.339844 "/>
<path style=" stroke:none;fill-rule:evenodd;fill:rgb(0%,76.470588%,76.470588%);fill-opacity:1;" d="M 225.558594 182.339844 C 225.558594 179.460938 221.238281 179.460938 221.238281 182.339844 C 221.238281 185.21875 225.558594 185.21875 225.558594 182.339844 "/>
<path style=" stroke:none;fill-rule:evenodd;fill:rgb(0%,76.470588%,76.470588%);fill-opacity:1;" d="M 232.761719 182.339844 C 232.761719 179.460938 228.441406 179.460938 228.441406 182.339844 C 228.441406 185.21875 232.761719 185.21875 232.761719 182.339844 "/>
<path style=" stroke:none;fill-rule:evenodd;fill:rgb(0%,76.470588%,76.470588%);fill-opacity:1;" d="M 239.960938 182.339844 C 239.960938 179.460938 235.640625 179.460938 235.640625 182.339844 C 235.640625 185.21875 239.960938 185.21875 239.960938 182.339844 "/>
<path style=" stroke:none;fill-rule:evenodd;fill:rgb(0%,76.470588%,76.470588%);fill-opacity:1;" d="M 225.558594 128.339844 C 225.558594 125.460938 221.238281 125.460938 221.238281 128.339844 C 221.238281 131.21875 225.558594 131.21875 225.558594 128.339844 "/>
<path style=" stroke:none;fill-rule:evenodd;fill:rgb(0%,76.470588%,76.470588%);fill-opacity:1;" d="M 211.160156 128.339844 C 211.160156 125.460938 206.839844 125.460938 206.839844 128.339844 C 206.839844 131.21875 211.160156 131.21875 211.160156 128.339844 "/>
<path style=" stroke:none;fill-rule:evenodd;fill:rgb(0%,76.470588%,76.470588%);fill-opacity:1;" d="M 211.160156 135.539062 C 211.160156 132.660156 206.839844 132.660156 206.839844 135.539062 C 206.839844 138.421875 211.160156 138.421875 211.160156 135.539062 "/>
<path style=" stroke:none;fill-rule:evenodd;fill:rgb(0%,76.470588%,76.470588%);fill-opacity:1;" d="M 203.960938 135.539062 C 203.960938 132.660156 199.640625 132.660156 199.640625 135.539062 C 199.640625 138.421875 203.960938 138.421875 203.960938 135.539062 "/>
<path style=" stroke:none;fill-rule:evenodd;fill:rgb(0%,76.470588%,76.470588%);fill-opacity:1;" d="M 203.960938 128.339844 C 203.960938 125.460938 199.640625 125.460938 199.640625 128.339844 C 199.640625 131.21875 203.960938 131.21875 203.960938 128.339844 "/>
<path style=" stroke:none;fill-rule:evenodd;fill:rgb(0%,76.470588%,76.470588%);fill-opacity:1;" d="M 275.960938 182.339844 C 275.960938 179.460938 271.640625 179.460938 271.640625 182.339844 C 271.640625 185.21875 275.960938 185.21875 275.960938 182.339844 "/>
<path style=" stroke:none;fill-rule:evenodd;fill:rgb(0%,76.470588%,76.470588%);fill-opacity:1;" d="M 232.761719 128.339844 C 232.761719 125.460938 228.441406 125.460938 228.441406 128.339844 C 228.441406 131.21875 232.761719 131.21875 232.761719 128.339844 "/>
<path style=" stroke:none;fill-rule:evenodd;fill:rgb(0%,76.470588%,76.470588%);fill-opacity:1;" d="M 239.960938 128.339844 C 239.960938 125.460938 235.640625 125.460938 235.640625 128.339844 C 235.640625 131.21875 239.960938 131.21875 239.960938 128.339844 "/>
<path style=" stroke:none;fill-rule:evenodd;fill:rgb(0%,76.470588%,76.470588%);fill-opacity:1;" d="M 247.160156 128.339844 C 247.160156 125.460938 242.839844 125.460938 242.839844 128.339844 C 242.839844 131.21875 247.160156 131.21875 247.160156 128.339844 "/>
<path style=" stroke:none;fill-rule:evenodd;fill:rgb(0%,76.470588%,76.470588%);fill-opacity:1;" d="M 254.359375 128.339844 C 254.359375 125.460938 250.039062 125.460938 250.039062 128.339844 C 250.039062 131.21875 254.359375 131.21875 254.359375 128.339844 "/>
<path style=" stroke:none;fill-rule:evenodd;fill:rgb(0%,76.470588%,76.470588%);fill-opacity:1;" d="M 261.558594 128.339844 C 261.558594 125.460938 257.238281 125.460938 257.238281 128.339844 C 257.238281 131.21875 261.558594 131.21875 261.558594 128.339844 "/>
<path style=" stroke:none;fill-rule:evenodd;fill:rgb(0%,76.470588%,76.470588%);fill-opacity:1;" d="M 268.761719 128.339844 C 268.761719 125.460938 264.441406 125.460938 264.441406 128.339844 C 264.441406 131.21875 268.761719 131.21875 268.761719 128.339844 "/>
<path style=" stroke:none;fill-rule:evenodd;fill:rgb(0%,76.470588%,76.470588%);fill-opacity:1;" d="M 275.960938 128.339844 C 275.960938 125.460938 271.640625 125.460938 271.640625 128.339844 C 271.640625 131.21875 275.960938 131.21875 275.960938 128.339844 "/>
<path style=" stroke:none;fill-rule:evenodd;fill:rgb(0%,76.470588%,76.470588%);fill-opacity:1;" d="M 275.960938 95.941406 C 275.960938 93.058594 271.640625 93.058594 271.640625 95.941406 C 271.640625 98.820312 275.960938 98.820312 275.960938 95.941406 "/>
<path style=" stroke:none;fill-rule:evenodd;fill:rgb(0%,76.470588%,76.470588%);fill-opacity:1;" d="M 268.761719 95.941406 C 268.761719 93.058594 264.441406 93.058594 264.441406 95.941406 C 264.441406 98.820312 268.761719 98.820312 268.761719 95.941406 "/>
<path style=" stroke:none;fill-rule:evenodd;fill:rgb(0%,76.470588%,76.470588%);fill-opacity:1;" d="M 261.558594 95.941406 C 261.558594 93.058594 257.238281 93.058594 257.238281 95.941406 C 257.238281 98.820312 261.558594 98.820312 261.558594 95.941406 "/>
<path style=" stroke:none;fill-rule:evenodd;fill:rgb(0%,76.470588%,76.470588%);fill-opacity:1;" d="M 254.359375 95.941406 C 254.359375 93.058594 250.039062 93.058594 250.039062 95.941406 C 250.039062 98.820312 254.359375 98.820312 254.359375 95.941406 "/>
<path style=" stroke:none;fill-rule:evenodd;fill:rgb(0%,76.470588%,76.470588%);fill-opacity:1;" d="M 247.160156 95.941406 C 247.160156 93.058594 242.839844 93.058594 242.839844 95.941406 C 242.839844 98.820312 247.160156 98.820312 247.160156 95.941406 "/>
<path style=" stroke:none;fill-rule:evenodd;fill:rgb(0%,76.470588%,76.470588%);fill-opacity:1;" d="M 239.960938 95.941406 C 239.960938 93.058594 235.640625 93.058594 235.640625 95.941406 C 235.640625 98.820312 239.960938 98.820312 239.960938 95.941406 "/>
<path style=" stroke:none;fill-rule:evenodd;fill:rgb(0%,76.470588%,76.470588%);fill-opacity:1;" d="M 232.761719 95.941406 C 232.761719 93.058594 228.441406 93.058594 228.441406 95.941406 C 228.441406 98.820312 232.761719 98.820312 232.761719 95.941406 "/>
<path style=" stroke:none;fill-rule:evenodd;fill:rgb(0%,76.470588%,76.470588%);fill-opacity:1;" d="M 225.558594 95.941406 C 225.558594 93.058594 221.238281 93.058594 221.238281 95.941406 C 221.238281 98.820312 225.558594 98.820312 225.558594 95.941406 "/>
<path style=" stroke:none;fill-rule:evenodd;fill:rgb(0%,76.470588%,76.470588%);fill-opacity:1;" d="M 340.039062 143.820312 C 340.039062 142.859375 338.597656 142.859375 338.597656 143.820312 C 338.597656 144.78125 340.039062 144.78125 340.039062 143.820312 "/>
<path style=" stroke:none;fill-rule:evenodd;fill:rgb(0%,76.470588%,76.470588%);fill-opacity:1;" d="M 325.28125 142.738281 C 325.28125 141.78125 323.839844 141.78125 323.839844 142.738281 C 323.839844 143.699219 325.28125 143.699219 325.28125 142.738281 "/>
<path style=" stroke:none;fill-rule:evenodd;fill:rgb(0%,76.470588%,76.470588%);fill-opacity:1;" d="M 342.199219 143.820312 C 342.199219 142.859375 340.761719 142.859375 340.761719 143.820312 C 340.761719 144.78125 342.199219 144.78125 342.199219 143.820312 "/>
<path style=" stroke:none;fill-rule:evenodd;fill:rgb(0%,76.470588%,76.470588%);fill-opacity:1;" d="M 350.480469 144.179688 C 350.480469 143.21875 349.039062 143.21875 349.039062 144.179688 C 349.039062 145.140625 350.480469 145.140625 350.480469 144.179688 "/>
<path style=" stroke:none;fill-rule:evenodd;fill:rgb(0%,76.470588%,76.470588%);fill-opacity:1;" d="M 352.640625 144.179688 C 352.640625 143.21875 351.199219 143.21875 351.199219 144.179688 C 351.199219 145.140625 352.640625 145.140625 352.640625 144.179688 "/>
<path style=" stroke:none;fill-rule:evenodd;fill:rgb(0%,76.470588%,76.470588%);fill-opacity:1;" d="M 336.441406 141.300781 C 336.441406 140.339844 335 140.339844 335 141.300781 C 335 142.261719 336.441406 142.261719 336.441406 141.300781 "/>
<path style=" stroke:none;fill-rule:evenodd;fill:rgb(0%,76.470588%,76.470588%);fill-opacity:1;" d="M 338.601562 141.300781 C 338.601562 140.339844 337.160156 140.339844 337.160156 141.300781 C 337.160156 142.261719 338.601562 142.261719 338.601562 141.300781 "/>
<path style=" stroke:none;fill-rule:evenodd;fill:rgb(0%,76.470588%,76.470588%);fill-opacity:1;" d="M 328.519531 136.621094 C 328.519531 135.660156 327.078125 135.660156 327.078125 136.621094 C 327.078125 137.582031 328.519531 137.582031 328.519531 136.621094 "/>
<path style=" stroke:none;fill-rule:evenodd;fill:rgb(0%,76.470588%,76.470588%);fill-opacity:1;" d="M 330.679688 136.621094 C 330.679688 135.660156 329.238281 135.660156 329.238281 136.621094 C 329.238281 137.582031 330.679688 137.582031 330.679688 136.621094 "/>
<path style=" stroke:none;fill-rule:evenodd;fill:rgb(0%,76.470588%,76.470588%);fill-opacity:1;" d="M 319.519531 142.738281 C 319.519531 141.78125 318.078125 141.78125 318.078125 142.738281 C 318.078125 143.699219 319.519531 143.699219 319.519531 142.738281 "/>
<path style=" stroke:none;fill-rule:evenodd;fill:rgb(0%,76.470588%,76.470588%);fill-opacity:1;" d="M 321.320312 144.179688 C 321.320312 143.21875 319.878906 143.21875 319.878906 144.179688 C 319.878906 145.140625 321.320312 145.140625 321.320312 144.179688 "/>
<path style=" stroke:none;fill-rule:evenodd;fill:rgb(0%,76.470588%,76.470588%);fill-opacity:1;" d="M 323.480469 144.179688 C 323.480469 143.21875 322.039062 143.21875 322.039062 144.179688 C 322.039062 145.140625 323.480469 145.140625 323.480469 144.179688 "/>
<path style=" stroke:none;fill-rule:evenodd;fill:rgb(0%,76.470588%,76.470588%);fill-opacity:1;" d="M 310.519531 144.179688 C 310.519531 143.21875 309.078125 143.21875 309.078125 144.179688 C 309.078125 145.140625 310.519531 145.140625 310.519531 144.179688 "/>
<path style=" stroke:none;fill-rule:evenodd;fill:rgb(0%,76.470588%,76.470588%);fill-opacity:1;" d="M 312.679688 144.179688 C 312.679688 143.21875 311.238281 143.21875 311.238281 144.179688 C 311.238281 145.140625 312.679688 145.140625 312.679688 144.179688 "/>
<path style=" stroke:none;fill-rule:evenodd;fill:rgb(0%,76.470588%,76.470588%);fill-opacity:1;" d="M 314.839844 144.179688 C 314.839844 143.21875 313.398438 143.21875 313.398438 144.179688 C 313.398438 145.140625 314.839844 145.140625 314.839844 144.179688 "/>
<path style=" stroke:none;fill-rule:evenodd;fill:rgb(0%,76.470588%,76.470588%);fill-opacity:1;" d="M 303.320312 136.980469 C 303.320312 136.019531 301.878906 136.019531 301.878906 136.980469 C 301.878906 137.941406 303.320312 137.941406 303.320312 136.980469 "/>
<path style=" stroke:none;fill-rule:evenodd;fill:rgb(0%,76.470588%,76.470588%);fill-opacity:1;" d="M 305.480469 136.980469 C 305.480469 136.019531 304.039062 136.019531 304.039062 136.980469 C 304.039062 137.941406 305.480469 137.941406 305.480469 136.980469 "/>
<path style=" stroke:none;fill-rule:evenodd;fill:rgb(0%,76.470588%,76.470588%);fill-opacity:1;" d="M 307.640625 136.980469 C 307.640625 136.019531 306.199219 136.019531 306.199219 136.980469 C 306.199219 137.941406 307.640625 137.941406 307.640625 136.980469 "/>
<path style=" stroke:none;fill-rule:evenodd;fill:rgb(0%,76.470588%,76.470588%);fill-opacity:1;" d="M 128.71875 61.378906 L 128.71875 65.699219 L 133.039062 65.699219 L 133.039062 61.378906 Z M 128.71875 61.378906 "/>
<path style=" stroke:none;fill-rule:evenodd;fill:rgb(0%,76.470588%,76.470588%);fill-opacity:1;" d="M 133.039062 70.738281 C 133.039062 67.859375 128.71875 67.859375 128.71875 70.738281 C 128.71875 73.621094 133.039062 73.621094 133.039062 70.738281 "/>
<path style=" stroke:none;fill-rule:evenodd;fill:rgb(0%,76.470588%,76.470588%);fill-opacity:1;" d="M 133.039062 77.941406 C 133.039062 75.058594 128.71875 75.058594 128.71875 77.941406 C 128.71875 80.820312 133.039062 80.820312 133.039062 77.941406 "/>
<path style=" stroke:none;fill-rule:evenodd;fill:rgb(0%,76.470588%,76.470588%);fill-opacity:1;" d="M 147.078125 67.140625 C 147.078125 64.261719 142.761719 64.261719 142.761719 67.140625 C 142.761719 70.019531 147.078125 70.019531 147.078125 67.140625 "/>
<path style=" stroke:none;fill-rule:evenodd;fill:rgb(0%,76.470588%,76.470588%);fill-opacity:1;" d="M 203.960938 41.941406 C 203.960938 39.058594 199.640625 39.058594 199.640625 41.941406 C 199.640625 44.820312 203.960938 44.820312 203.960938 41.941406 "/>
<path style=" stroke:none;fill-rule:evenodd;fill:rgb(0%,76.470588%,76.470588%);fill-opacity:1;" d="M 203.960938 49.140625 C 203.960938 46.261719 199.640625 46.261719 199.640625 49.140625 C 199.640625 52.019531 203.960938 52.019531 203.960938 49.140625 "/>
<path style=" stroke:none;fill-rule:evenodd;fill:rgb(0%,76.470588%,76.470588%);fill-opacity:1;" d="M 211.160156 49.140625 C 211.160156 46.261719 206.839844 46.261719 206.839844 49.140625 C 206.839844 52.019531 211.160156 52.019531 211.160156 49.140625 "/>
<path style=" stroke:none;fill-rule:evenodd;fill:rgb(0%,76.470588%,76.470588%);fill-opacity:1;" d="M 211.160156 41.941406 C 211.160156 39.058594 206.839844 39.058594 206.839844 41.941406 C 206.839844 44.820312 211.160156 44.820312 211.160156 41.941406 "/>
<path style=" stroke:none;fill-rule:evenodd;fill:rgb(0%,76.470588%,76.470588%);fill-opacity:1;" d="M 133.039062 85.140625 C 133.039062 82.261719 128.71875 82.261719 128.71875 85.140625 C 128.71875 88.019531 133.039062 88.019531 133.039062 85.140625 "/>
<path style=" stroke:none;fill-rule:evenodd;fill:rgb(0%,76.470588%,76.470588%);fill-opacity:1;" d="M 133.039062 92.339844 C 133.039062 89.460938 128.71875 89.460938 128.71875 92.339844 C 128.71875 95.21875 133.039062 95.21875 133.039062 92.339844 "/>
<path style=" stroke:none;fill-rule:evenodd;fill:rgb(0%,76.470588%,76.470588%);fill-opacity:1;" d="M 133.039062 99.539062 C 133.039062 96.660156 128.71875 96.660156 128.71875 99.539062 C 128.71875 102.421875 133.039062 102.421875 133.039062 99.539062 "/>
<path style=" stroke:none;fill-rule:evenodd;fill:rgb(0%,76.470588%,76.470588%);fill-opacity:1;" d="M 147.078125 81.539062 C 147.078125 78.660156 142.761719 78.660156 142.761719 81.539062 C 142.761719 84.421875 147.078125 84.421875 147.078125 81.539062 "/>
<path style=" stroke:none;fill-rule:evenodd;fill:rgb(0%,76.470588%,76.470588%);fill-opacity:1;" d="M 275.960938 41.941406 C 275.960938 39.058594 271.640625 39.058594 271.640625 41.941406 C 271.640625 44.820312 275.960938 44.820312 275.960938 41.941406 "/>
<path style=" stroke:none;fill-rule:evenodd;fill:rgb(0%,76.470588%,76.470588%);fill-opacity:1;" d="M 268.761719 41.941406 C 268.761719 39.058594 264.441406 39.058594 264.441406 41.941406 C 264.441406 44.820312 268.761719 44.820312 268.761719 41.941406 "/>
<path style=" stroke:none;fill-rule:evenodd;fill:rgb(0%,76.470588%,76.470588%);fill-opacity:1;" d="M 261.558594 41.941406 C 261.558594 39.058594 257.238281 39.058594 257.238281 41.941406 C 257.238281 44.820312 261.558594 44.820312 261.558594 41.941406 "/>
<path style=" stroke:none;fill-rule:evenodd;fill:rgb(0%,76.470588%,76.470588%);fill-opacity:1;" d="M 254.359375 41.941406 C 254.359375 39.058594 250.039062 39.058594 250.039062 41.941406 C 250.039062 44.820312 254.359375 44.820312 254.359375 41.941406 "/>
<path style=" stroke:none;fill-rule:evenodd;fill:rgb(0%,76.470588%,76.470588%);fill-opacity:1;" d="M 247.160156 41.941406 C 247.160156 39.058594 242.839844 39.058594 242.839844 41.941406 C 242.839844 44.820312 247.160156 44.820312 247.160156 41.941406 "/>
<path style=" stroke:none;fill-rule:evenodd;fill:rgb(0%,76.470588%,76.470588%);fill-opacity:1;" d="M 239.960938 41.941406 C 239.960938 39.058594 235.640625 39.058594 235.640625 41.941406 C 235.640625 44.820312 239.960938 44.820312 239.960938 41.941406 "/>
<path style=" stroke:none;fill-rule:evenodd;fill:rgb(0%,76.470588%,76.470588%);fill-opacity:1;" d="M 232.761719 41.941406 C 232.761719 39.058594 228.441406 39.058594 228.441406 41.941406 C 228.441406 44.820312 232.761719 44.820312 232.761719 41.941406 "/>
<path style=" stroke:none;fill-rule:evenodd;fill:rgb(0%,76.470588%,76.470588%);fill-opacity:1;" d="M 225.558594 41.941406 C 225.558594 39.058594 221.238281 39.058594 221.238281 41.941406 C 221.238281 44.820312 225.558594 44.820312 225.558594 41.941406 "/>
<path style=" stroke:none;fill-rule:evenodd;fill:rgb(0%,76.470588%,76.470588%);fill-opacity:1;" d="M 83.359375 128.339844 C 83.359375 125.460938 79.039062 125.460938 79.039062 128.339844 C 79.039062 131.21875 83.359375 131.21875 83.359375 128.339844 "/>
<path style=" stroke:none;fill-rule:evenodd;fill:rgb(0%,76.470588%,76.470588%);fill-opacity:1;" d="M 83.359375 135.539062 C 83.359375 132.660156 79.039062 132.660156 79.039062 135.539062 C 79.039062 138.421875 83.359375 138.421875 83.359375 135.539062 "/>
<path style=" stroke:none;fill-rule:evenodd;fill:rgb(0%,76.470588%,76.470588%);fill-opacity:1;" d="M 76.160156 135.539062 C 76.160156 132.660156 71.839844 132.660156 71.839844 135.539062 C 71.839844 138.421875 76.160156 138.421875 76.160156 135.539062 "/>
<path style=" stroke:none;fill-rule:evenodd;fill:rgb(0%,76.470588%,76.470588%);fill-opacity:1;" d="M 76.160156 128.339844 C 76.160156 125.460938 71.839844 125.460938 71.839844 128.339844 C 71.839844 131.21875 76.160156 131.21875 76.160156 128.339844 "/>
<path style=" stroke:none;fill-rule:evenodd;fill:rgb(0%,76.470588%,76.470588%);fill-opacity:1;" d="M 128.71875 147.78125 L 128.71875 152.101562 L 133.039062 152.101562 L 133.039062 147.78125 Z M 128.71875 147.78125 "/>
<path style=" stroke:none;fill-rule:evenodd;fill:rgb(0%,76.470588%,76.470588%);fill-opacity:1;" d="M 133.039062 157.140625 C 133.039062 154.261719 128.71875 154.261719 128.71875 157.140625 C 128.71875 160.019531 133.039062 160.019531 133.039062 157.140625 "/>
<path style=" stroke:none;fill-rule:evenodd;fill:rgb(0%,76.470588%,76.470588%);fill-opacity:1;" d="M 133.039062 164.339844 C 133.039062 161.460938 128.71875 161.460938 128.71875 164.339844 C 128.71875 167.21875 133.039062 167.21875 133.039062 164.339844 "/>
<path style=" stroke:none;fill-rule:evenodd;fill:rgb(0%,76.470588%,76.470588%);fill-opacity:1;" d="M 133.039062 171.539062 C 133.039062 168.660156 128.71875 168.660156 128.71875 171.539062 C 128.71875 174.421875 133.039062 174.421875 133.039062 171.539062 "/>
<path style=" stroke:none;fill-rule:evenodd;fill:rgb(0%,76.470588%,76.470588%);fill-opacity:1;" d="M 133.039062 178.738281 C 133.039062 175.859375 128.71875 175.859375 128.71875 178.738281 C 128.71875 181.621094 133.039062 181.621094 133.039062 178.738281 "/>
<path style=" stroke:none;fill-rule:evenodd;fill:rgb(0%,76.470588%,76.470588%);fill-opacity:1;" d="M 133.039062 185.941406 C 133.039062 183.058594 128.71875 183.058594 128.71875 185.941406 C 128.71875 188.820312 133.039062 188.820312 133.039062 185.941406 "/>
<path style=" stroke:none;fill-rule:evenodd;fill:rgb(0%,76.470588%,76.470588%);fill-opacity:1;" d="M 76.160156 41.941406 C 76.160156 39.058594 71.839844 39.058594 71.839844 41.941406 C 71.839844 44.820312 76.160156 44.820312 76.160156 41.941406 "/>
<path style=" stroke:none;fill-rule:evenodd;fill:rgb(0%,76.470588%,76.470588%);fill-opacity:1;" d="M 76.160156 49.140625 C 76.160156 46.261719 71.839844 46.261719 71.839844 49.140625 C 71.839844 52.019531 76.160156 52.019531 76.160156 49.140625 "/>
<path style=" stroke:none;fill-rule:evenodd;fill:rgb(0%,76.470588%,76.470588%);fill-opacity:1;" d="M 83.359375 49.140625 C 83.359375 46.261719 79.039062 46.261719 79.039062 49.140625 C 79.039062 52.019531 83.359375 52.019531 83.359375 49.140625 "/>
<path style=" stroke:none;fill-rule:evenodd;fill:rgb(0%,76.470588%,76.470588%);fill-opacity:1;" d="M 83.359375 41.941406 C 83.359375 39.058594 79.039062 39.058594 79.039062 41.941406 C 79.039062 44.820312 83.359375 44.820312 83.359375 41.941406 "/>
<path style=" stroke:none;fill-rule:evenodd;fill:rgb(0%,76.470588%,76.470588%);fill-opacity:1;" d="M 125.839844 63.539062 C 125.839844 60.660156 121.519531 60.660156 121.519531 63.539062 C 121.519531 66.421875 125.839844 66.421875 125.839844 63.539062 "/>
<path style=" stroke:none;fill-rule:evenodd;fill:rgb(0%,76.470588%,76.470588%);fill-opacity:1;" d="M 125.839844 70.738281 C 125.839844 67.859375 121.519531 67.859375 121.519531 70.738281 C 121.519531 73.621094 125.839844 73.621094 125.839844 70.738281 "/>
<path style=" stroke:none;fill-rule:evenodd;fill:rgb(0%,76.470588%,76.470588%);fill-opacity:1;" d="M 128.359375 28.980469 C 128.359375 28.019531 126.917969 28.019531 126.917969 28.980469 C 126.917969 29.941406 128.359375 29.941406 128.359375 28.980469 "/>
<path style=" stroke:none;fill-rule:evenodd;fill:rgb(0%,76.470588%,76.470588%);fill-opacity:1;" d="M 128.359375 36.179688 C 128.359375 35.21875 126.917969 35.21875 126.917969 36.179688 C 126.917969 37.140625 128.359375 37.140625 128.359375 36.179688 "/>
<path style=" stroke:none;fill-rule:evenodd;fill:rgb(0%,76.470588%,76.470588%);fill-opacity:1;" d="M 117.917969 67.140625 C 117.917969 66.179688 116.480469 66.179688 116.480469 67.140625 C 116.480469 68.101562 117.917969 68.101562 117.917969 67.140625 "/>
<path style=" stroke:none;fill-rule:evenodd;fill:rgb(0%,76.470588%,76.470588%);fill-opacity:1;" d="M 140.601562 72.539062 C 140.601562 71.582031 139.160156 71.582031 139.160156 72.539062 C 139.160156 73.5 140.601562 73.5 140.601562 72.539062 "/>
<path style=" stroke:none;fill-rule:evenodd;fill:rgb(0%,76.470588%,76.470588%);fill-opacity:1;" d="M 211.160156 27.539062 C 211.160156 24.660156 206.839844 24.660156 206.839844 27.539062 C 206.839844 30.421875 211.160156 30.421875 211.160156 27.539062 "/>
<path style=" stroke:none;fill-rule:evenodd;fill:rgb(0%,76.470588%,76.470588%);fill-opacity:1;" d="M 219.800781 29.699219 C 219.800781 28.738281 218.359375 28.738281 218.359375 29.699219 C 218.359375 30.660156 219.800781 30.660156 219.800781 29.699219 "/>
<path style=" stroke:none;fill-rule:evenodd;fill:rgb(0%,76.470588%,76.470588%);fill-opacity:1;" d="M 218 24.300781 C 218 23.339844 216.558594 23.339844 216.558594 24.300781 C 216.558594 25.261719 218 25.261719 218 24.300781 "/>
<path style=" stroke:none;fill-rule:evenodd;fill:rgb(0%,76.470588%,76.470588%);fill-opacity:1;" d="M 125.839844 92.339844 C 125.839844 89.460938 121.519531 89.460938 121.519531 92.339844 C 121.519531 95.21875 125.839844 95.21875 125.839844 92.339844 "/>
<path style=" stroke:none;fill-rule:evenodd;fill:rgb(0%,76.470588%,76.470588%);fill-opacity:1;" d="M 125.839844 149.941406 C 125.839844 147.058594 121.519531 147.058594 121.519531 149.941406 C 121.519531 152.820312 125.839844 152.820312 125.839844 149.941406 "/>
<path style=" stroke:none;fill-rule:evenodd;fill:rgb(0%,76.470588%,76.470588%);fill-opacity:1;" d="M 125.839844 157.140625 C 125.839844 154.261719 121.519531 154.261719 121.519531 157.140625 C 121.519531 160.019531 125.839844 160.019531 125.839844 157.140625 "/>
<path style=" stroke:none;fill-rule:evenodd;fill:rgb(0%,76.470588%,76.470588%);fill-opacity:1;" d="M 125.839844 164.339844 C 125.839844 161.460938 121.519531 161.460938 121.519531 164.339844 C 121.519531 167.21875 125.839844 167.21875 125.839844 164.339844 "/>
<path style=" stroke:none;fill-rule:evenodd;fill:rgb(0%,76.470588%,76.470588%);fill-opacity:1;" d="M 125.839844 171.539062 C 125.839844 168.660156 121.519531 168.660156 121.519531 171.539062 C 121.519531 174.421875 125.839844 174.421875 125.839844 171.539062 "/>
<path style=" stroke:none;fill-rule:evenodd;fill:rgb(0%,76.470588%,76.470588%);fill-opacity:1;" d="M 125.839844 77.941406 C 125.839844 75.058594 121.519531 75.058594 121.519531 77.941406 C 121.519531 80.820312 125.839844 80.820312 125.839844 77.941406 "/>
<path style=" stroke:none;fill-rule:evenodd;fill:rgb(0%,76.470588%,76.470588%);fill-opacity:1;" d="M 224.121094 19.621094 C 224.121094 18.660156 222.679688 18.660156 222.679688 19.621094 C 222.679688 20.582031 224.121094 20.582031 224.121094 19.621094 "/>
<path style=" stroke:none;fill-rule:evenodd;fill:rgb(0%,76.470588%,76.470588%);fill-opacity:1;" d="M 351.199219 130.859375 C 351.199219 129.898438 349.761719 129.898438 349.761719 130.859375 C 349.761719 131.820312 351.199219 131.820312 351.199219 130.859375 "/>
<path style=" stroke:none;fill-rule:evenodd;fill:rgb(0%,76.470588%,76.470588%);fill-opacity:1;" d="M 353.359375 130.859375 C 353.359375 129.898438 351.917969 129.898438 351.917969 130.859375 C 351.917969 131.820312 353.359375 131.820312 353.359375 130.859375 "/>
<path style=" stroke:none;fill-rule:evenodd;fill:rgb(0%,76.470588%,76.470588%);fill-opacity:1;" d="M 334.640625 133.738281 C 334.640625 132.78125 333.199219 132.78125 333.199219 133.738281 C 333.199219 134.699219 334.640625 134.699219 334.640625 133.738281 "/>
<path style=" stroke:none;fill-rule:evenodd;fill:rgb(0%,76.470588%,76.470588%);fill-opacity:1;" d="M 334.640625 131.582031 C 334.640625 130.621094 333.199219 130.621094 333.199219 131.582031 C 333.199219 132.539062 334.640625 132.539062 334.640625 131.582031 "/>
<path style=" stroke:none;fill-rule:evenodd;fill:rgb(0%,76.470588%,76.470588%);fill-opacity:1;" d="M 203.960938 27.539062 C 203.960938 24.660156 199.640625 24.660156 199.640625 27.539062 C 199.640625 30.421875 203.960938 30.421875 203.960938 27.539062 "/>
<path style=" stroke:none;fill-rule:evenodd;fill:rgb(0%,76.470588%,76.470588%);fill-opacity:1;" d="M 83.359375 20.339844 C 83.359375 17.460938 79.039062 17.460938 79.039062 20.339844 C 79.039062 23.21875 83.359375 23.21875 83.359375 20.339844 "/>
<path style=" stroke:none;fill-rule:evenodd;fill:rgb(0%,76.470588%,76.470588%);fill-opacity:1;" d="M 76.160156 20.339844 C 76.160156 17.460938 71.839844 17.460938 71.839844 20.339844 C 71.839844 23.21875 76.160156 23.21875 76.160156 20.339844 "/>
<path style=" stroke:none;fill-rule:evenodd;fill:rgb(0%,76.470588%,76.470588%);fill-opacity:1;" d="M 76.160156 27.539062 C 76.160156 24.660156 71.839844 24.660156 71.839844 27.539062 C 71.839844 30.421875 76.160156 30.421875 76.160156 27.539062 "/>
<path style=" stroke:none;fill-rule:evenodd;fill:rgb(0%,76.470588%,76.470588%);fill-opacity:1;" d="M 76.160156 34.738281 C 76.160156 31.859375 71.839844 31.859375 71.839844 34.738281 C 71.839844 37.621094 76.160156 37.621094 76.160156 34.738281 "/>
<path style="fill:none;stroke-width:0.01;stroke-linecap:round;stroke-linejoin:miter;stroke:rgb(45.882353%,94.901961%,40.392157%);stroke-opacity:1;stroke-miterlimit:10;" d="M -0.00000807146 3.899994 L 0.0999811 3.999983 " transform="matrix(72,0,0,-72,9.1998,293.940199)"/>
<path style="fill:none;stroke-width:0.01;stroke-linecap:round;stroke-linejoin:miter;stroke:rgb(45.882353%,94.901961%,40.392157%);stroke-opacity:1;stroke-miterlimit:10;" d="M 0.0999811 3.999983 L 4.900003 3.999983 " transform="matrix(72,0,0,-72,9.1998,293.940199)"/>
<path style="fill:none;stroke-width:0.01;stroke-linecap:round;stroke-linejoin:miter;stroke:rgb(45.882353%,94.901961%,40.392157%);stroke-opacity:1;stroke-miterlimit:10;" d="M 4.900003 3.999983 L 4.900003 0.399994 " transform="matrix(72,0,0,-72,9.1998,293.940199)"/>
<path style="fill:none;stroke-width:0.01;stroke-linecap:round;stroke-linejoin:miter;stroke:rgb(45.882353%,94.901961%,40.392157%);stroke-opacity:1;stroke-miterlimit:10;" d="M 4.900003 0.399994 L -0.00000807146 0.399994 " transform="matrix(72,0,0,-72,9.1998,293.940199)"/>
<path style="fill:none;stroke-width:0.01;stroke-linecap:round;stroke-linejoin:miter;stroke:rgb(45.882353%,94.901961%,40.392157%);stroke-opacity:1;stroke-miterlimit:10;" d="M -0.00000807146 0.399994 L -0.00000807146 3.899994 " transform="matrix(72,0,0,-72,9.1998,293.940199)"/>
<path style=" stroke:none;fill-rule:evenodd;fill:rgb(75.686275%,0%,87.843137%);fill-opacity:1;" d="M 247.375 182.339844 C 247.375 179.171875 242.625 179.171875 242.625 182.339844 C 242.625 185.507812 247.375 185.507812 247.375 182.339844 "/>
<path style=" stroke:none;fill-rule:evenodd;fill:rgb(75.686275%,0%,87.843137%);fill-opacity:1;" d="M 254.574219 182.339844 C 254.574219 179.171875 249.824219 179.171875 249.824219 182.339844 C 249.824219 185.507812 254.574219 185.507812 254.574219 182.339844 "/>
<path style=" stroke:none;fill-rule:evenodd;fill:rgb(75.686275%,0%,87.843137%);fill-opacity:1;" d="M 261.777344 182.339844 C 261.777344 179.171875 257.023438 179.171875 257.023438 182.339844 C 257.023438 185.507812 261.777344 185.507812 261.777344 182.339844 "/>
<path style=" stroke:none;fill-rule:evenodd;fill:rgb(75.686275%,0%,87.843137%);fill-opacity:1;" d="M 268.976562 182.339844 C 268.976562 179.171875 264.222656 179.171875 264.222656 182.339844 C 264.222656 185.507812 268.976562 185.507812 268.976562 182.339844 "/>
<path style=" stroke:none;fill-rule:evenodd;fill:rgb(75.686275%,0%,87.843137%);fill-opacity:1;" d="M 225.777344 182.339844 C 225.777344 179.171875 221.023438 179.171875 221.023438 182.339844 C 221.023438 185.507812 225.777344 185.507812 225.777344 182.339844 "/>
<path style=" stroke:none;fill-rule:evenodd;fill:rgb(75.686275%,0%,87.843137%);fill-opacity:1;" d="M 232.976562 182.339844 C 232.976562 179.171875 228.222656 179.171875 228.222656 182.339844 C 228.222656 185.507812 232.976562 185.507812 232.976562 182.339844 "/>
<path style=" stroke:none;fill-rule:evenodd;fill:rgb(75.686275%,0%,87.843137%);fill-opacity:1;" d="M 240.175781 182.339844 C 240.175781 179.171875 235.421875 179.171875 235.421875 182.339844 C 235.421875 185.507812 240.175781 185.507812 240.175781 182.339844 "/>
<path style=" stroke:none;fill-rule:evenodd;fill:rgb(75.686275%,0%,87.843137%);fill-opacity:1;" d="M 225.777344 128.339844 C 225.777344 125.171875 221.023438 125.171875 221.023438 128.339844 C 221.023438 131.507812 225.777344 131.507812 225.777344 128.339844 "/>
<path style=" stroke:none;fill-rule:evenodd;fill:rgb(75.686275%,0%,87.843137%);fill-opacity:1;" d="M 211.375 128.339844 C 211.375 125.171875 206.625 125.171875 206.625 128.339844 C 206.625 131.507812 211.375 131.507812 211.375 128.339844 "/>
<path style=" stroke:none;fill-rule:evenodd;fill:rgb(75.686275%,0%,87.843137%);fill-opacity:1;" d="M 211.375 135.539062 C 211.375 132.371094 206.625 132.371094 206.625 135.539062 C 206.625 138.707031 211.375 138.707031 211.375 135.539062 "/>
<path style=" stroke:none;fill-rule:evenodd;fill:rgb(75.686275%,0%,87.843137%);fill-opacity:1;" d="M 204.175781 135.539062 C 204.175781 132.371094 199.421875 132.371094 199.421875 135.539062 C 199.421875 138.707031 204.175781 138.707031 204.175781 135.539062 "/>
<path style=" stroke:none;fill-rule:evenodd;fill:rgb(75.686275%,0%,87.843137%);fill-opacity:1;" d="M 204.175781 128.339844 C 204.175781 125.171875 199.421875 125.171875 199.421875 128.339844 C 199.421875 131.507812 204.175781 131.507812 204.175781 128.339844 "/>
<path style=" stroke:none;fill-rule:evenodd;fill:rgb(75.686275%,0%,87.843137%);fill-opacity:1;" d="M 276.175781 182.339844 C 276.175781 179.171875 271.421875 179.171875 271.421875 182.339844 C 271.421875 185.507812 276.175781 185.507812 276.175781 182.339844 "/>
<path style=" stroke:none;fill-rule:evenodd;fill:rgb(75.686275%,0%,87.843137%);fill-opacity:1;" d="M 232.976562 128.339844 C 232.976562 125.171875 228.222656 125.171875 228.222656 128.339844 C 228.222656 131.507812 232.976562 131.507812 232.976562 128.339844 "/>
<path style=" stroke:none;fill-rule:evenodd;fill:rgb(75.686275%,0%,87.843137%);fill-opacity:1;" d="M 240.175781 128.339844 C 240.175781 125.171875 235.421875 125.171875 235.421875 128.339844 C 235.421875 131.507812 240.175781 131.507812 240.175781 128.339844 "/>
<path style=" stroke:none;fill-rule:evenodd;fill:rgb(75.686275%,0%,87.843137%);fill-opacity:1;" d="M 247.375 128.339844 C 247.375 125.171875 242.625 125.171875 242.625 128.339844 C 242.625 131.507812 247.375 131.507812 247.375 128.339844 "/>
<path style=" stroke:none;fill-rule:evenodd;fill:rgb(75.686275%,0%,87.843137%);fill-opacity:1;" d="M 254.574219 128.339844 C 254.574219 125.171875 249.824219 125.171875 249.824219 128.339844 C 249.824219 131.507812 254.574219 131.507812 254.574219 128.339844 "/>
<path style=" stroke:none;fill-rule:evenodd;fill:rgb(75.686275%,0%,87.843137%);fill-opacity:1;" d="M 261.777344 128.339844 C 261.777344 125.171875 257.023438 125.171875 257.023438 128.339844 C 257.023438 131.507812 261.777344 131.507812 261.777344 128.339844 "/>
<path style=" stroke:none;fill-rule:evenodd;fill:rgb(75.686275%,0%,87.843137%);fill-opacity:1;" d="M 268.976562 128.339844 C 268.976562 125.171875 264.222656 125.171875 264.222656 128.339844 C 264.222656 131.507812 268.976562 131.507812 268.976562 128.339844 "/>
<path style=" stroke:none;fill-rule:evenodd;fill:rgb(75.686275%,0%,87.843137%);fill-opacity:1;" d="M 276.175781 128.339844 C 276.175781 125.171875 271.421875 125.171875 271.421875 128.339844 C 271.421875 131.507812 276.175781 131.507812 276.175781 128.339844 "/>
<path style=" stroke:none;fill-rule:evenodd;fill:rgb(75.686275%,0%,87.843137%);fill-opacity:1;" d="M 276.175781 95.941406 C 276.175781 92.773438 271.421875 92.773438 271.421875 95.941406 C 271.421875 99.109375 276.175781 99.109375 276.175781 95.941406 "/>
<path style=" stroke:none;fill-rule:evenodd;fill:rgb(75.686275%,0%,87.843137%);fill-opacity:1;" d="M 268.976562 95.941406 C 268.976562 92.773438 264.222656 92.773438 264.222656 95.941406 C 264.222656 99.109375 268.976562 99.109375 268.976562 95.941406 "/>
<path style=" stroke:none;fill-rule:evenodd;fill:rgb(75.686275%,0%,87.843137%);fill-opacity:1;" d="M 261.777344 95.941406 C 261.777344 92.773438 257.023438 92.773438 257.023438 95.941406 C 257.023438 99.109375 261.777344 99.109375 261.777344 95.941406 "/>
<path style=" stroke:none;fill-rule:evenodd;fill:rgb(75.686275%,0%,87.843137%);fill-opacity:1;" d="M 254.574219 95.941406 C 254.574219 92.773438 249.824219 92.773438 249.824219 95.941406 C 249.824219 99.109375 254.574219 99.109375 254.574219 95.941406 "/>
<path style=" stroke:none;fill-rule:evenodd;fill:rgb(75.686275%,0%,87.843137%);fill-opacity:1;" d="M 247.375 95.941406 C 247.375 92.773438 242.625 92.773438 242.625 95.941406 C 242.625 99.109375 247.375 99.109375 247.375 95.941406 "/>
<path style=" stroke:none;fill-rule:evenodd;fill:rgb(75.686275%,0%,87.843137%);fill-opacity:1;" d="M 240.175781 95.941406 C 240.175781 92.773438 235.421875 92.773438 235.421875 95.941406 C 235.421875 99.109375 240.175781 99.109375 240.175781 95.941406 "/>
<path style=" stroke:none;fill-rule:evenodd;fill:rgb(75.686275%,0%,87.843137%);fill-opacity:1;" d="M 232.976562 95.941406 C 232.976562 92.773438 228.222656 92.773438 228.222656 95.941406 C 228.222656 99.109375 232.976562 99.109375 232.976562 95.941406 "/>
<path style=" stroke:none;fill-rule:evenodd;fill:rgb(75.686275%,0%,87.843137%);fill-opacity:1;" d="M 225.777344 95.941406 C 225.777344 92.773438 221.023438 92.773438 221.023438 95.941406 C 221.023438 99.109375 225.777344 99.109375 225.777344 95.941406 "/>
<path style=" stroke:none;fill-rule:evenodd;fill:rgb(75.686275%,0%,87.843137%);fill-opacity:1;" d="M 340.253906 143.820312 C 340.253906 142.570312 338.382812 142.570312 338.382812 143.820312 C 338.382812 145.066406 340.253906 145.066406 340.253906 143.820312 "/>
<path style=" stroke:none;fill-rule:evenodd;fill:rgb(75.686275%,0%,87.843137%);fill-opacity:1;" d="M 325.496094 142.738281 C 325.496094 141.492188 323.625 141.492188 323.625 142.738281 C 323.625 143.988281 325.496094 143.988281 325.496094 142.738281 "/>
<path style=" stroke:none;fill-rule:evenodd;fill:rgb(75.686275%,0%,87.843137%);fill-opacity:1;" d="M 342.414062 143.820312 C 342.414062 142.570312 340.542969 142.570312 340.542969 143.820312 C 340.542969 145.066406 342.414062 145.066406 342.414062 143.820312 "/>
<path style=" stroke:none;fill-rule:evenodd;fill:rgb(75.686275%,0%,87.843137%);fill-opacity:1;" d="M 350.695312 144.179688 C 350.695312 142.933594 348.824219 142.933594 348.824219 144.179688 C 348.824219 145.429688 350.695312 145.429688 350.695312 144.179688 "/>
<path style=" stroke:none;fill-rule:evenodd;fill:rgb(75.686275%,0%,87.843137%);fill-opacity:1;" d="M 352.855469 144.179688 C 352.855469 142.933594 350.984375 142.933594 350.984375 144.179688 C 350.984375 145.429688 352.855469 145.429688 352.855469 144.179688 "/>
<path style=" stroke:none;fill-rule:evenodd;fill:rgb(75.686275%,0%,87.843137%);fill-opacity:1;" d="M 336.65625 141.300781 C 336.65625 140.050781 334.785156 140.050781 334.785156 141.300781 C 334.785156 142.546875 336.65625 142.546875 336.65625 141.300781 "/>
<path style=" stroke:none;fill-rule:evenodd;fill:rgb(75.686275%,0%,87.843137%);fill-opacity:1;" d="M 338.816406 141.300781 C 338.816406 140.050781 336.945312 140.050781 336.945312 141.300781 C 336.945312 142.546875 338.816406 142.546875 338.816406 141.300781 "/>
<path style=" stroke:none;fill-rule:evenodd;fill:rgb(75.686275%,0%,87.843137%);fill-opacity:1;" d="M 328.734375 136.621094 C 328.734375 135.371094 326.863281 135.371094 326.863281 136.621094 C 326.863281 137.867188 328.734375 137.867188 328.734375 136.621094 "/>
<path style=" stroke:none;fill-rule:evenodd;fill:rgb(75.686275%,0%,87.843137%);fill-opacity:1;" d="M 330.894531 136.621094 C 330.894531 135.371094 329.023438 135.371094 329.023438 136.621094 C 329.023438 137.867188 330.894531 137.867188 330.894531 136.621094 "/>
<path style=" stroke:none;fill-rule:evenodd;fill:rgb(75.686275%,0%,87.843137%);fill-opacity:1;" d="M 319.734375 142.738281 C 319.734375 141.492188 317.863281 141.492188 317.863281 142.738281 C 317.863281 143.988281 319.734375 143.988281 319.734375 142.738281 "/>
<path style=" stroke:none;fill-rule:evenodd;fill:rgb(75.686275%,0%,87.843137%);fill-opacity:1;" d="M 321.535156 144.179688 C 321.535156 142.933594 319.664062 142.933594 319.664062 144.179688 C 319.664062 145.429688 321.535156 145.429688 321.535156 144.179688 "/>
<path style=" stroke:none;fill-rule:evenodd;fill:rgb(75.686275%,0%,87.843137%);fill-opacity:1;" d="M 323.695312 144.179688 C 323.695312 142.933594 321.824219 142.933594 321.824219 144.179688 C 321.824219 145.429688 323.695312 145.429688 323.695312 144.179688 "/>
<path style=" stroke:none;fill-rule:evenodd;fill:rgb(75.686275%,0%,87.843137%);fill-opacity:1;" d="M 310.734375 144.179688 C 310.734375 142.933594 308.863281 142.933594 308.863281 144.179688 C 308.863281 145.429688 310.734375 145.429688 310.734375 144.179688 "/>
<path style=" stroke:none;fill-rule:evenodd;fill:rgb(75.686275%,0%,87.843137%);fill-opacity:1;" d="M 312.894531 144.179688 C 312.894531 142.933594 311.023438 142.933594 311.023438 144.179688 C 311.023438 145.429688 312.894531 145.429688 312.894531 144.179688 "/>
<path style=" stroke:none;fill-rule:evenodd;fill:rgb(75.686275%,0%,87.843137%);fill-opacity:1;" d="M 315.054688 144.179688 C 315.054688 142.933594 313.183594 142.933594 313.183594 144.179688 C 313.183594 145.429688 315.054688 145.429688 315.054688 144.179688 "/>
<path style=" stroke:none;fill-rule:evenodd;fill:rgb(75.686275%,0%,87.843137%);fill-opacity:1;" d="M 303.535156 136.980469 C 303.535156 135.730469 301.664062 135.730469 301.664062 136.980469 C 301.664062 138.226562 303.535156 138.226562 303.535156 136.980469 "/>
<path style=" stroke:none;fill-rule:evenodd;fill:rgb(75.686275%,0%,87.843137%);fill-opacity:1;" d="M 305.695312 136.980469 C 305.695312 135.730469 303.824219 135.730469 303.824219 136.980469 C 303.824219 138.226562 305.695312 138.226562 305.695312 136.980469 "/>
<path style=" stroke:none;fill-rule:evenodd;fill:rgb(75.686275%,0%,87.843137%);fill-opacity:1;" d="M 307.855469 136.980469 C 307.855469 135.730469 305.984375 135.730469 305.984375 136.980469 C 305.984375 138.226562 307.855469 138.226562 307.855469 136.980469 "/>
<path style=" stroke:none;fill-rule:evenodd;fill:rgb(75.686275%,0%,87.843137%);fill-opacity:1;" d="M 128.503906 61.164062 L 128.503906 65.917969 L 133.253906 65.917969 L 133.253906 61.164062 Z M 128.503906 61.164062 "/>
<path style=" stroke:none;fill-rule:evenodd;fill:rgb(75.686275%,0%,87.843137%);fill-opacity:1;" d="M 133.253906 70.738281 C 133.253906 67.570312 128.503906 67.570312 128.503906 70.738281 C 128.503906 73.90625 133.253906 73.90625 133.253906 70.738281 "/>
<path style=" stroke:none;fill-rule:evenodd;fill:rgb(75.686275%,0%,87.843137%);fill-opacity:1;" d="M 133.253906 77.941406 C 133.253906 74.773438 128.503906 74.773438 128.503906 77.941406 C 128.503906 81.109375 133.253906 81.109375 133.253906 77.941406 "/>
<path style=" stroke:none;fill-rule:evenodd;fill:rgb(75.686275%,0%,87.843137%);fill-opacity:1;" d="M 147.296875 67.140625 C 147.296875 63.972656 142.542969 63.972656 142.542969 67.140625 C 142.542969 70.308594 147.296875 70.308594 147.296875 67.140625 "/>
<path style=" stroke:none;fill-rule:evenodd;fill:rgb(75.686275%,0%,87.843137%);fill-opacity:1;" d="M 204.175781 41.941406 C 204.175781 38.773438 199.421875 38.773438 199.421875 41.941406 C 199.421875 45.109375 204.175781 45.109375 204.175781 41.941406 "/>
<path style=" stroke:none;fill-rule:evenodd;fill:rgb(75.686275%,0%,87.843137%);fill-opacity:1;" d="M 204.175781 49.140625 C 204.175781 45.972656 199.421875 45.972656 199.421875 49.140625 C 199.421875 52.308594 204.175781 52.308594 204.175781 49.140625 "/>
<path style=" stroke:none;fill-rule:evenodd;fill:rgb(75.686275%,0%,87.843137%);fill-opacity:1;" d="M 211.375 49.140625 C 211.375 45.972656 206.625 45.972656 206.625 49.140625 C 206.625 52.308594 211.375 52.308594 211.375 49.140625 "/>
<path style=" stroke:none;fill-rule:evenodd;fill:rgb(75.686275%,0%,87.843137%);fill-opacity:1;" d="M 211.375 41.941406 C 211.375 38.773438 206.625 38.773438 206.625 41.941406 C 206.625 45.109375 211.375 45.109375 211.375 41.941406 "/>
<path style=" stroke:none;fill-rule:evenodd;fill:rgb(75.686275%,0%,87.843137%);fill-opacity:1;" d="M 133.253906 85.140625 C 133.253906 81.972656 128.503906 81.972656 128.503906 85.140625 C 128.503906 88.308594 133.253906 88.308594 133.253906 85.140625 "/>
<path style=" stroke:none;fill-rule:evenodd;fill:rgb(75.686275%,0%,87.843137%);fill-opacity:1;" d="M 133.253906 92.339844 C 133.253906 89.171875 128.503906 89.171875 128.503906 92.339844 C 128.503906 95.507812 133.253906 95.507812 133.253906 92.339844 "/>
<path style=" stroke:none;fill-rule:evenodd;fill:rgb(75.686275%,0%,87.843137%);fill-opacity:1;" d="M 133.253906 99.539062 C 133.253906 96.371094 128.503906 96.371094 128.503906 99.539062 C 128.503906 102.707031 133.253906 102.707031 133.253906 99.539062 "/>
<path style=" stroke:none;fill-rule:evenodd;fill:rgb(75.686275%,0%,87.843137%);fill-opacity:1;" d="M 147.296875 81.539062 C 147.296875 78.371094 142.542969 78.371094 142.542969 81.539062 C 142.542969 84.707031 147.296875 84.707031 147.296875 81.539062 "/>
<path style=" stroke:none;fill-rule:evenodd;fill:rgb(75.686275%,0%,87.843137%);fill-opacity:1;" d="M 276.175781 41.941406 C 276.175781 38.773438 271.421875 38.773438 271.421875 41.941406 C 271.421875 45.109375 276.175781 45.109375 276.175781 41.941406 "/>
<path style=" stroke:none;fill-rule:evenodd;fill:rgb(75.686275%,0%,87.843137%);fill-opacity:1;" d="M 268.976562 41.941406 C 268.976562 38.773438 264.222656 38.773438 264.222656 41.941406 C 264.222656 45.109375 268.976562 45.109375 268.976562 41.941406 "/>
<path style=" stroke:none;fill-rule:evenodd;fill:rgb(75.686275%,0%,87.843137%);fill-opacity:1;" d="M 261.777344 41.941406 C 261.777344 38.773438 257.023438 38.773438 257.023438 41.941406 C 257.023438 45.109375 261.777344 45.109375 261.777344 41.941406 "/>
<path style=" stroke:none;fill-rule:evenodd;fill:rgb(75.686275%,0%,87.843137%);fill-opacity:1;" d="M 254.574219 41.941406 C 254.574219 38.773438 249.824219 38.773438 249.824219 41.941406 C 249.824219 45.109375 254.574219 45.109375 254.574219 41.941406 "/>
<path style=" stroke:none;fill-rule:evenodd;fill:rgb(75.686275%,0%,87.843137%);fill-opacity:1;" d="M 247.375 41.941406 C 247.375 38.773438 242.625 38.773438 242.625 41.941406 C 242.625 45.109375 247.375 45.109375 247.375 41.941406 "/>
<path style=" stroke:none;fill-rule:evenodd;fill:rgb(75.686275%,0%,87.843137%);fill-opacity:1;" d="M 240.175781 41.941406 C 240.175781 38.773438 235.421875 38.773438 235.421875 41.941406 C 235.421875 45.109375 240.175781 45.109375 240.175781 41.941406 "/>
<path style=" stroke:none;fill-rule:evenodd;fill:rgb(75.686275%,0%,87.843137%);fill-opacity:1;" d="M 232.976562 41.941406 C 232.976562 38.773438 228.222656 38.773438 228.222656 41.941406 C 228.222656 45.109375 232.976562 45.109375 232.976562 41.941406 "/>
<path style=" stroke:none;fill-rule:evenodd;fill:rgb(75.686275%,0%,87.843137%);fill-opacity:1;" d="M 225.777344 41.941406 C 225.777344 38.773438 221.023438 38.773438 221.023438 41.941406 C 221.023438 45.109375 225.777344 45.109375 225.777344 41.941406 "/>
<path style=" stroke:none;fill-rule:evenodd;fill:rgb(75.686275%,0%,87.843137%);fill-opacity:1;" d="M 83.574219 128.339844 C 83.574219 125.171875 78.824219 125.171875 78.824219 128.339844 C 78.824219 131.507812 83.574219 131.507812 83.574219 128.339844 "/>
<path style=" stroke:none;fill-rule:evenodd;fill:rgb(75.686275%,0%,87.843137%);fill-opacity:1;" d="M 83.574219 135.539062 C 83.574219 132.371094 78.824219 132.371094 78.824219 135.539062 C 78.824219 138.707031 83.574219 138.707031 83.574219 135.539062 "/>
<path style=" stroke:none;fill-rule:evenodd;fill:rgb(75.686275%,0%,87.843137%);fill-opacity:1;" d="M 76.375 135.539062 C 76.375 132.371094 71.625 132.371094 71.625 135.539062 C 71.625 138.707031 76.375 138.707031 76.375 135.539062 "/>
<path style=" stroke:none;fill-rule:evenodd;fill:rgb(75.686275%,0%,87.843137%);fill-opacity:1;" d="M 76.375 128.339844 C 76.375 125.171875 71.625 125.171875 71.625 128.339844 C 71.625 131.507812 76.375 131.507812 76.375 128.339844 "/>
<path style=" stroke:none;fill-rule:evenodd;fill:rgb(75.686275%,0%,87.843137%);fill-opacity:1;" d="M 128.503906 147.5625 L 128.503906 152.316406 L 133.253906 152.316406 L 133.253906 147.5625 Z M 128.503906 147.5625 "/>
<path style=" stroke:none;fill-rule:evenodd;fill:rgb(75.686275%,0%,87.843137%);fill-opacity:1;" d="M 133.253906 157.140625 C 133.253906 153.972656 128.503906 153.972656 128.503906 157.140625 C 128.503906 160.308594 133.253906 160.308594 133.253906 157.140625 "/>
<path style=" stroke:none;fill-rule:evenodd;fill:rgb(75.686275%,0%,87.843137%);fill-opacity:1;" d="M 133.253906 164.339844 C 133.253906 161.171875 128.503906 161.171875 128.503906 164.339844 C 128.503906 167.507812 133.253906 167.507812 133.253906 164.339844 "/>
<path style=" stroke:none;fill-rule:evenodd;fill:rgb(75.686275%,0%,87.843137%);fill-opacity:1;" d="M 133.253906 171.539062 C 133.253906 168.371094 128.503906 168.371094 128.503906 171.539062 C 128.503906 174.707031 133.253906 174.707031 133.253906 171.539062 "/>
<path style=" stroke:none;fill-rule:evenodd;fill:rgb(75.686275%,0%,87.843137%);fill-opacity:1;" d="M 133.253906 178.738281 C 133.253906 175.570312 128.503906 175.570312 128.503906 178.738281 C 128.503906 181.90625 133.253906 181.90625 133.253906 178.738281 "/>
<path style=" stroke:none;fill-rule:evenodd;fill:rgb(75.686275%,0%,87.843137%);fill-opacity:1;" d="M 133.253906 185.941406 C 133.253906 182.773438 128.503906 182.773438 128.503906 185.941406 C 128.503906 189.109375 133.253906 189.109375 133.253906 185.941406 "/>
<path style=" stroke:none;fill-rule:evenodd;fill:rgb(75.686275%,0%,87.843137%);fill-opacity:1;" d="M 76.375 41.941406 C 76.375 38.773438 71.625 38.773438 71.625 41.941406 C 71.625 45.109375 76.375 45.109375 76.375 41.941406 "/>
<path style=" stroke:none;fill-rule:evenodd;fill:rgb(75.686275%,0%,87.843137%);fill-opacity:1;" d="M 76.375 49.140625 C 76.375 45.972656 71.625 45.972656 71.625 49.140625 C 71.625 52.308594 76.375 52.308594 76.375 49.140625 "/>
<path style=" stroke:none;fill-rule:evenodd;fill:rgb(75.686275%,0%,87.843137%);fill-opacity:1;" d="M 83.574219 49.140625 C 83.574219 45.972656 78.824219 45.972656 78.824219 49.140625 C 78.824219 52.308594 83.574219 52.308594 83.574219 49.140625 "/>
<path style=" stroke:none;fill-rule:evenodd;fill:rgb(75.686275%,0%,87.843137%);fill-opacity:1;" d="M 83.574219 41.941406 C 83.574219 38.773438 78.824219 38.773438 78.824219 41.941406 C 78.824219 45.109375 83.574219 45.109375 83.574219 41.941406 "/>
<path style=" stroke:none;fill-rule:evenodd;fill:rgb(100%,49.803922%,45.098039%);fill-opacity:1;" d="M 117.558594 67.140625 C 117.558594 66.660156 116.839844 66.660156 116.839844 67.140625 C 116.839844 67.621094 117.558594 67.621094 117.558594 67.140625 "/>
<path style=" stroke:none;fill-rule:evenodd;fill:rgb(100%,49.803922%,45.098039%);fill-opacity:1;" d="M 128 28.980469 C 128 28.5 127.28125 28.5 127.28125 28.980469 C 127.28125 29.460938 128 29.460938 128 28.980469 "/>
<path style=" stroke:none;fill-rule:evenodd;fill:rgb(100%,49.803922%,45.098039%);fill-opacity:1;" d="M 128 36.179688 C 128 35.699219 127.28125 35.699219 127.28125 36.179688 C 127.28125 36.660156 128 36.660156 128 36.179688 "/>
<path style=" stroke:none;fill-rule:evenodd;fill:rgb(100%,49.803922%,45.098039%);fill-opacity:1;" d="M 140.238281 72.539062 C 140.238281 72.058594 139.519531 72.058594 139.519531 72.539062 C 139.519531 73.019531 140.238281 73.019531 140.238281 72.539062 "/>
<path style=" stroke:none;fill-rule:evenodd;fill:rgb(100%,49.803922%,45.098039%);fill-opacity:1;" d="M 217.640625 24.300781 C 217.640625 23.820312 216.917969 23.820312 216.917969 24.300781 C 216.917969 24.78125 217.640625 24.78125 217.640625 24.300781 "/>
<path style=" stroke:none;fill-rule:evenodd;fill:rgb(100%,49.803922%,45.098039%);fill-opacity:1;" d="M 219.441406 29.699219 C 219.441406 29.21875 218.71875 29.21875 218.71875 29.699219 C 218.71875 30.179688 219.441406 30.179688 219.441406 29.699219 "/>
<path style=" stroke:none;fill-rule:evenodd;fill:rgb(100%,49.803922%,45.098039%);fill-opacity:1;" d="M 223.761719 19.621094 C 223.761719 19.140625 223.039062 19.140625 223.039062 19.621094 C 223.039062 20.101562 223.761719 20.101562 223.761719 19.621094 "/>
<path style=" stroke:none;fill-rule:evenodd;fill:rgb(100%,49.803922%,45.098039%);fill-opacity:1;" d="M 302.960938 136.980469 C 302.960938 136.5 302.238281 136.5 302.238281 136.980469 C 302.238281 137.460938 302.960938 137.460938 302.960938 136.980469 "/>
<path style=" stroke:none;fill-rule:evenodd;fill:rgb(100%,49.803922%,45.098039%);fill-opacity:1;" d="M 305.121094 136.980469 C 305.121094 136.5 304.398438 136.5 304.398438 136.980469 C 304.398438 137.460938 305.121094 137.460938 305.121094 136.980469 "/>
<path style=" stroke:none;fill-rule:evenodd;fill:rgb(100%,49.803922%,45.098039%);fill-opacity:1;" d="M 307.28125 136.980469 C 307.28125 136.5 306.558594 136.5 306.558594 136.980469 C 306.558594 137.460938 307.28125 137.460938 307.28125 136.980469 "/>
<path style=" stroke:none;fill-rule:evenodd;fill:rgb(100%,49.803922%,45.098039%);fill-opacity:1;" d="M 310.160156 144.179688 C 310.160156 143.699219 309.441406 143.699219 309.441406 144.179688 C 309.441406 144.660156 310.160156 144.660156 310.160156 144.179688 "/>
<path style=" stroke:none;fill-rule:evenodd;fill:rgb(100%,49.803922%,45.098039%);fill-opacity:1;" d="M 312.320312 144.179688 C 312.320312 143.699219 311.601562 143.699219 311.601562 144.179688 C 311.601562 144.660156 312.320312 144.660156 312.320312 144.179688 "/>
<path style=" stroke:none;fill-rule:evenodd;fill:rgb(100%,49.803922%,45.098039%);fill-opacity:1;" d="M 314.480469 144.179688 C 314.480469 143.699219 313.761719 143.699219 313.761719 144.179688 C 313.761719 144.660156 314.480469 144.660156 314.480469 144.179688 "/>
<path style=" stroke:none;fill-rule:evenodd;fill:rgb(100%,49.803922%,45.098039%);fill-opacity:1;" d="M 319.160156 142.738281 C 319.160156 142.261719 318.441406 142.261719 318.441406 142.738281 C 318.441406 143.21875 319.160156 143.21875 319.160156 142.738281 "/>
<path style=" stroke:none;fill-rule:evenodd;fill:rgb(100%,49.803922%,45.098039%);fill-opacity:1;" d="M 320.960938 144.179688 C 320.960938 143.699219 320.238281 143.699219 320.238281 144.179688 C 320.238281 144.660156 320.960938 144.660156 320.960938 144.179688 "/>
<path style=" stroke:none;fill-rule:evenodd;fill:rgb(100%,49.803922%,45.098039%);fill-opacity:1;" d="M 323.121094 144.179688 C 323.121094 143.699219 322.398438 143.699219 322.398438 144.179688 C 322.398438 144.660156 323.121094 144.660156 323.121094 144.179688 "/>
<path style=" stroke:none;fill-rule:evenodd;fill:rgb(100%,49.803922%,45.098039%);fill-opacity:1;" d="M 324.917969 142.738281 C 324.917969 142.261719 324.199219 142.261719 324.199219 142.738281 C 324.199219 143.21875 324.917969 143.21875 324.917969 142.738281 "/>
<path style=" stroke:none;fill-rule:evenodd;fill:rgb(100%,49.803922%,45.098039%);fill-opacity:1;" d="M 328.160156 136.621094 C 328.160156 136.140625 327.441406 136.140625 327.441406 136.621094 C 327.441406 137.101562 328.160156 137.101562 328.160156 136.621094 "/>
<path style=" stroke:none;fill-rule:evenodd;fill:rgb(100%,49.803922%,45.098039%);fill-opacity:1;" d="M 330.320312 136.621094 C 330.320312 136.140625 329.601562 136.140625 329.601562 136.621094 C 329.601562 137.101562 330.320312 137.101562 330.320312 136.621094 "/>
<path style=" stroke:none;fill-rule:evenodd;fill:rgb(100%,49.803922%,45.098039%);fill-opacity:1;" d="M 334.28125 131.582031 C 334.28125 131.101562 333.558594 131.101562 333.558594 131.582031 C 333.558594 132.058594 334.28125 132.058594 334.28125 131.582031 "/>
<path style=" stroke:none;fill-rule:evenodd;fill:rgb(100%,49.803922%,45.098039%);fill-opacity:1;" d="M 334.28125 133.738281 C 334.28125 133.261719 333.558594 133.261719 333.558594 133.738281 C 333.558594 134.21875 334.28125 134.21875 334.28125 133.738281 "/>
<path style=" stroke:none;fill-rule:evenodd;fill:rgb(100%,49.803922%,45.098039%);fill-opacity:1;" d="M 336.078125 141.300781 C 336.078125 140.820312 335.359375 140.820312 335.359375 141.300781 C 335.359375 141.78125 336.078125 141.78125 336.078125 141.300781 "/>
<path style=" stroke:none;fill-rule:evenodd;fill:rgb(100%,49.803922%,45.098039%);fill-opacity:1;" d="M 338.238281 141.300781 C 338.238281 140.820312 337.519531 140.820312 337.519531 141.300781 C 337.519531 141.78125 338.238281 141.78125 338.238281 141.300781 "/>
<path style=" stroke:none;fill-rule:evenodd;fill:rgb(100%,49.803922%,45.098039%);fill-opacity:1;" d="M 339.679688 143.820312 C 339.679688 143.339844 338.960938 143.339844 338.960938 143.820312 C 338.960938 144.300781 339.679688 144.300781 339.679688 143.820312 "/>
<path style=" stroke:none;fill-rule:evenodd;fill:rgb(100%,49.803922%,45.098039%);fill-opacity:1;" d="M 341.839844 143.820312 C 341.839844 143.339844 341.121094 143.339844 341.121094 143.820312 C 341.121094 144.300781 341.839844 144.300781 341.839844 143.820312 "/>
<path style=" stroke:none;fill-rule:evenodd;fill:rgb(100%,49.803922%,45.098039%);fill-opacity:1;" d="M 350.121094 144.179688 C 350.121094 143.699219 349.398438 143.699219 349.398438 144.179688 C 349.398438 144.660156 350.121094 144.660156 350.121094 144.179688 "/>
<path style=" stroke:none;fill-rule:evenodd;fill:rgb(100%,49.803922%,45.098039%);fill-opacity:1;" d="M 350.839844 130.859375 C 350.839844 130.378906 350.121094 130.378906 350.121094 130.859375 C 350.121094 131.339844 350.839844 131.339844 350.839844 130.859375 "/>
<path style=" stroke:none;fill-rule:evenodd;fill:rgb(100%,49.803922%,45.098039%);fill-opacity:1;" d="M 352.28125 144.179688 C 352.28125 143.699219 351.558594 143.699219 351.558594 144.179688 C 351.558594 144.660156 352.28125 144.660156 352.28125 144.179688 "/>
<path style=" stroke:none;fill-rule:evenodd;fill:rgb(100%,49.803922%,45.098039%);fill-opacity:1;" d="M 353 130.859375 C 353 130.378906 352.28125 130.378906 352.28125 130.859375 C 352.28125 131.339844 353 131.339844 353 130.859375 "/>
<path style=" stroke:none;fill-rule:evenodd;fill:rgb(100%,49.803922%,45.098039%);fill-opacity:1;" d="M 75.367188 20.339844 C 75.367188 18.515625 72.632812 18.515625 72.632812 20.339844 C 72.632812 22.164062 75.367188 22.164062 75.367188 20.339844 "/>
<path style=" stroke:none;fill-rule:evenodd;fill:rgb(100%,49.803922%,45.098039%);fill-opacity:1;" d="M 75.367188 27.539062 C 75.367188 25.714844 72.632812 25.714844 72.632812 27.539062 C 72.632812 29.363281 75.367188 29.363281 75.367188 27.539062 "/>
<path style=" stroke:none;fill-rule:evenodd;fill:rgb(100%,49.803922%,45.098039%);fill-opacity:1;" d="M 75.367188 34.738281 C 75.367188 32.917969 72.632812 32.917969 72.632812 34.738281 C 72.632812 36.5625 75.367188 36.5625 75.367188 34.738281 "/>
<path style=" stroke:none;fill-rule:evenodd;fill:rgb(100%,49.803922%,45.098039%);fill-opacity:1;" d="M 75.367188 41.941406 C 75.367188 40.117188 72.632812 40.117188 72.632812 41.941406 C 72.632812 43.765625 75.367188 43.765625 75.367188 41.941406 "/>
<path style=" stroke:none;fill-rule:evenodd;fill:rgb(100%,49.803922%,45.098039%);fill-opacity:1;" d="M 75.367188 49.140625 C 75.367188 47.316406 72.632812 47.316406 72.632812 49.140625 C 72.632812 50.964844 75.367188 50.964844 75.367188 49.140625 "/>
<path style=" stroke:none;fill-rule:evenodd;fill:rgb(100%,49.803922%,45.098039%);fill-opacity:1;" d="M 75.367188 128.339844 C 75.367188 126.515625 72.632812 126.515625 72.632812 128.339844 C 72.632812 130.164062 75.367188 130.164062 75.367188 128.339844 "/>
<path style=" stroke:none;fill-rule:evenodd;fill:rgb(100%,49.803922%,45.098039%);fill-opacity:1;" d="M 75.367188 135.539062 C 75.367188 133.714844 72.632812 133.714844 72.632812 135.539062 C 72.632812 137.363281 75.367188 137.363281 75.367188 135.539062 "/>
<path style=" stroke:none;fill-rule:evenodd;fill:rgb(100%,49.803922%,45.098039%);fill-opacity:1;" d="M 82.566406 20.339844 C 82.566406 18.515625 79.832031 18.515625 79.832031 20.339844 C 79.832031 22.164062 82.566406 22.164062 82.566406 20.339844 "/>
<path style=" stroke:none;fill-rule:evenodd;fill:rgb(100%,49.803922%,45.098039%);fill-opacity:1;" d="M 82.566406 41.941406 C 82.566406 40.117188 79.832031 40.117188 79.832031 41.941406 C 79.832031 43.765625 82.566406 43.765625 82.566406 41.941406 "/>
<path style=" stroke:none;fill-rule:evenodd;fill:rgb(100%,49.803922%,45.098039%);fill-opacity:1;" d="M 82.566406 49.140625 C 82.566406 47.316406 79.832031 47.316406 79.832031 49.140625 C 79.832031 50.964844 82.566406 50.964844 82.566406 49.140625 "/>
<path style=" stroke:none;fill-rule:evenodd;fill:rgb(100%,49.803922%,45.098039%);fill-opacity:1;" d="M 82.566406 128.339844 C 82.566406 126.515625 79.832031 126.515625 79.832031 128.339844 C 79.832031 130.164062 82.566406 130.164062 82.566406 128.339844 "/>
<path style=" stroke:none;fill-rule:evenodd;fill:rgb(100%,49.803922%,45.098039%);fill-opacity:1;" d="M 82.566406 135.539062 C 82.566406 133.714844 79.832031 133.714844 79.832031 135.539062 C 79.832031 137.363281 82.566406 137.363281 82.566406 135.539062 "/>
<path style=" stroke:none;fill-rule:evenodd;fill:rgb(100%,49.803922%,45.098039%);fill-opacity:1;" d="M 125.046875 63.539062 C 125.046875 61.714844 122.3125 61.714844 122.3125 63.539062 C 122.3125 65.363281 125.046875 65.363281 125.046875 63.539062 "/>
<path style=" stroke:none;fill-rule:evenodd;fill:rgb(100%,49.803922%,45.098039%);fill-opacity:1;" d="M 125.046875 70.738281 C 125.046875 68.917969 122.3125 68.917969 122.3125 70.738281 C 122.3125 72.5625 125.046875 72.5625 125.046875 70.738281 "/>
<path style=" stroke:none;fill-rule:evenodd;fill:rgb(100%,49.803922%,45.098039%);fill-opacity:1;" d="M 125.046875 77.941406 C 125.046875 76.117188 122.3125 76.117188 122.3125 77.941406 C 122.3125 79.765625 125.046875 79.765625 125.046875 77.941406 "/>
<path style=" stroke:none;fill-rule:evenodd;fill:rgb(100%,49.803922%,45.098039%);fill-opacity:1;" d="M 125.046875 92.339844 C 125.046875 90.515625 122.3125 90.515625 122.3125 92.339844 C 122.3125 94.164062 125.046875 94.164062 125.046875 92.339844 "/>
<path style=" stroke:none;fill-rule:evenodd;fill:rgb(100%,49.803922%,45.098039%);fill-opacity:1;" d="M 125.046875 149.941406 C 125.046875 148.117188 122.3125 148.117188 122.3125 149.941406 C 122.3125 151.765625 125.046875 151.765625 125.046875 149.941406 "/>
<path style=" stroke:none;fill-rule:evenodd;fill:rgb(100%,49.803922%,45.098039%);fill-opacity:1;" d="M 125.046875 157.140625 C 125.046875 155.316406 122.3125 155.316406 122.3125 157.140625 C 122.3125 158.964844 125.046875 158.964844 125.046875 157.140625 "/>
<path style=" stroke:none;fill-rule:evenodd;fill:rgb(100%,49.803922%,45.098039%);fill-opacity:1;" d="M 125.046875 164.339844 C 125.046875 162.515625 122.3125 162.515625 122.3125 164.339844 C 122.3125 166.164062 125.046875 166.164062 125.046875 164.339844 "/>
<path style=" stroke:none;fill-rule:evenodd;fill:rgb(100%,49.803922%,45.098039%);fill-opacity:1;" d="M 125.046875 171.539062 C 125.046875 169.714844 122.3125 169.714844 122.3125 171.539062 C 122.3125 173.363281 125.046875 173.363281 125.046875 171.539062 "/>
<path style=" stroke:none;fill-rule:evenodd;fill:rgb(100%,49.803922%,45.098039%);fill-opacity:1;" d="M 132.246094 63.539062 C 132.246094 61.714844 129.511719 61.714844 129.511719 63.539062 C 129.511719 65.363281 132.246094 65.363281 132.246094 63.539062 "/>
<path style=" stroke:none;fill-rule:evenodd;fill:rgb(100%,49.803922%,45.098039%);fill-opacity:1;" d="M 132.246094 70.738281 C 132.246094 68.917969 129.511719 68.917969 129.511719 70.738281 C 129.511719 72.5625 132.246094 72.5625 132.246094 70.738281 "/>
<path style=" stroke:none;fill-rule:evenodd;fill:rgb(100%,49.803922%,45.098039%);fill-opacity:1;" d="M 132.246094 77.941406 C 132.246094 76.117188 129.511719 76.117188 129.511719 77.941406 C 129.511719 79.765625 132.246094 79.765625 132.246094 77.941406 "/>
<path style=" stroke:none;fill-rule:evenodd;fill:rgb(100%,49.803922%,45.098039%);fill-opacity:1;" d="M 132.246094 85.140625 C 132.246094 83.316406 129.511719 83.316406 129.511719 85.140625 C 129.511719 86.964844 132.246094 86.964844 132.246094 85.140625 "/>
<path style=" stroke:none;fill-rule:evenodd;fill:rgb(100%,49.803922%,45.098039%);fill-opacity:1;" d="M 132.246094 92.339844 C 132.246094 90.515625 129.511719 90.515625 129.511719 92.339844 C 129.511719 94.164062 132.246094 94.164062 132.246094 92.339844 "/>
<path style=" stroke:none;fill-rule:evenodd;fill:rgb(100%,49.803922%,45.098039%);fill-opacity:1;" d="M 132.246094 99.539062 C 132.246094 97.714844 129.511719 97.714844 129.511719 99.539062 C 129.511719 101.363281 132.246094 101.363281 132.246094 99.539062 "/>
<path style=" stroke:none;fill-rule:evenodd;fill:rgb(100%,49.803922%,45.098039%);fill-opacity:1;" d="M 132.246094 149.941406 C 132.246094 148.117188 129.511719 148.117188 129.511719 149.941406 C 129.511719 151.765625 132.246094 151.765625 132.246094 149.941406 "/>
<path style=" stroke:none;fill-rule:evenodd;fill:rgb(100%,49.803922%,45.098039%);fill-opacity:1;" d="M 132.246094 157.140625 C 132.246094 155.316406 129.511719 155.316406 129.511719 157.140625 C 129.511719 158.964844 132.246094 158.964844 132.246094 157.140625 "/>
<path style=" stroke:none;fill-rule:evenodd;fill:rgb(100%,49.803922%,45.098039%);fill-opacity:1;" d="M 132.246094 164.339844 C 132.246094 162.515625 129.511719 162.515625 129.511719 164.339844 C 129.511719 166.164062 132.246094 166.164062 132.246094 164.339844 "/>
<path style=" stroke:none;fill-rule:evenodd;fill:rgb(100%,49.803922%,45.098039%);fill-opacity:1;" d="M 132.246094 171.539062 C 132.246094 169.714844 129.511719 169.714844 129.511719 171.539062 C 129.511719 173.363281 132.246094 173.363281 132.246094 171.539062 "/>
<path style=" stroke:none;fill-rule:evenodd;fill:rgb(100%,49.803922%,45.098039%);fill-opacity:1;" d="M 132.246094 178.738281 C 132.246094 176.917969 129.511719 176.917969 129.511719 178.738281 C 129.511719 180.5625 132.246094 180.5625 132.246094 178.738281 "/>
<path style=" stroke:none;fill-rule:evenodd;fill:rgb(100%,49.803922%,45.098039%);fill-opacity:1;" d="M 132.246094 185.941406 C 132.246094 184.117188 129.511719 184.117188 129.511719 185.941406 C 129.511719 187.765625 132.246094 187.765625 132.246094 185.941406 "/>
<path style=" stroke:none;fill-rule:evenodd;fill:rgb(100%,49.803922%,45.098039%);fill-opacity:1;" d="M 146.289062 67.140625 C 146.289062 65.316406 143.550781 65.316406 143.550781 67.140625 C 143.550781 68.964844 146.289062 68.964844 146.289062 67.140625 "/>
<path style=" stroke:none;fill-rule:evenodd;fill:rgb(100%,49.803922%,45.098039%);fill-opacity:1;" d="M 146.289062 81.539062 C 146.289062 79.714844 143.550781 79.714844 143.550781 81.539062 C 143.550781 83.363281 146.289062 83.363281 146.289062 81.539062 "/>
<path style=" stroke:none;fill-rule:evenodd;fill:rgb(100%,49.803922%,45.098039%);fill-opacity:1;" d="M 203.167969 27.539062 C 203.167969 25.714844 200.433594 25.714844 200.433594 27.539062 C 200.433594 29.363281 203.167969 29.363281 203.167969 27.539062 "/>
<path style=" stroke:none;fill-rule:evenodd;fill:rgb(100%,49.803922%,45.098039%);fill-opacity:1;" d="M 203.167969 41.941406 C 203.167969 40.117188 200.433594 40.117188 200.433594 41.941406 C 200.433594 43.765625 203.167969 43.765625 203.167969 41.941406 "/>
<path style=" stroke:none;fill-rule:evenodd;fill:rgb(100%,49.803922%,45.098039%);fill-opacity:1;" d="M 203.167969 49.140625 C 203.167969 47.316406 200.433594 47.316406 200.433594 49.140625 C 200.433594 50.964844 203.167969 50.964844 203.167969 49.140625 "/>
<path style=" stroke:none;fill-rule:evenodd;fill:rgb(100%,49.803922%,45.098039%);fill-opacity:1;" d="M 203.167969 128.339844 C 203.167969 126.515625 200.433594 126.515625 200.433594 128.339844 C 200.433594 130.164062 203.167969 130.164062 203.167969 128.339844 "/>
<path style=" stroke:none;fill-rule:evenodd;fill:rgb(100%,49.803922%,45.098039%);fill-opacity:1;" d="M 203.167969 135.539062 C 203.167969 133.714844 200.433594 133.714844 200.433594 135.539062 C 200.433594 137.363281 203.167969 137.363281 203.167969 135.539062 "/>
<path style=" stroke:none;fill-rule:evenodd;fill:rgb(100%,49.803922%,45.098039%);fill-opacity:1;" d="M 210.367188 27.539062 C 210.367188 25.714844 207.632812 25.714844 207.632812 27.539062 C 207.632812 29.363281 210.367188 29.363281 210.367188 27.539062 "/>
<path style=" stroke:none;fill-rule:evenodd;fill:rgb(100%,49.803922%,45.098039%);fill-opacity:1;" d="M 210.367188 41.941406 C 210.367188 40.117188 207.632812 40.117188 207.632812 41.941406 C 207.632812 43.765625 210.367188 43.765625 210.367188 41.941406 "/>
<path style=" stroke:none;fill-rule:evenodd;fill:rgb(100%,49.803922%,45.098039%);fill-opacity:1;" d="M 210.367188 49.140625 C 210.367188 47.316406 207.632812 47.316406 207.632812 49.140625 C 207.632812 50.964844 210.367188 50.964844 210.367188 49.140625 "/>
<path style=" stroke:none;fill-rule:evenodd;fill:rgb(100%,49.803922%,45.098039%);fill-opacity:1;" d="M 210.367188 128.339844 C 210.367188 126.515625 207.632812 126.515625 207.632812 128.339844 C 207.632812 130.164062 210.367188 130.164062 210.367188 128.339844 "/>
<path style=" stroke:none;fill-rule:evenodd;fill:rgb(100%,49.803922%,45.098039%);fill-opacity:1;" d="M 210.367188 135.539062 C 210.367188 133.714844 207.632812 133.714844 207.632812 135.539062 C 207.632812 137.363281 210.367188 137.363281 210.367188 135.539062 "/>
<path style=" stroke:none;fill-rule:evenodd;fill:rgb(100%,49.803922%,45.098039%);fill-opacity:1;" d="M 224.769531 41.941406 C 224.769531 40.117188 222.03125 40.117188 222.03125 41.941406 C 222.03125 43.765625 224.769531 43.765625 224.769531 41.941406 "/>
<path style=" stroke:none;fill-rule:evenodd;fill:rgb(100%,49.803922%,45.098039%);fill-opacity:1;" d="M 224.769531 95.941406 C 224.769531 94.117188 222.03125 94.117188 222.03125 95.941406 C 222.03125 97.765625 224.769531 97.765625 224.769531 95.941406 "/>
<path style=" stroke:none;fill-rule:evenodd;fill:rgb(100%,49.803922%,45.098039%);fill-opacity:1;" d="M 224.769531 128.339844 C 224.769531 126.515625 222.03125 126.515625 222.03125 128.339844 C 222.03125 130.164062 224.769531 130.164062 224.769531 128.339844 "/>
<path style=" stroke:none;fill-rule:evenodd;fill:rgb(100%,49.803922%,45.098039%);fill-opacity:1;" d="M 224.769531 182.339844 C 224.769531 180.515625 222.03125 180.515625 222.03125 182.339844 C 222.03125 184.164062 224.769531 184.164062 224.769531 182.339844 "/>
<path style=" stroke:none;fill-rule:evenodd;fill:rgb(100%,49.803922%,45.098039%);fill-opacity:1;" d="M 231.96875 41.941406 C 231.96875 40.117188 229.230469 40.117188 229.230469 41.941406 C 229.230469 43.765625 231.96875 43.765625 231.96875 41.941406 "/>
<path style=" stroke:none;fill-rule:evenodd;fill:rgb(100%,49.803922%,45.098039%);fill-opacity:1;" d="M 231.96875 95.941406 C 231.96875 94.117188 229.230469 94.117188 229.230469 95.941406 C 229.230469 97.765625 231.96875 97.765625 231.96875 95.941406 "/>
<path style=" stroke:none;fill-rule:evenodd;fill:rgb(100%,49.803922%,45.098039%);fill-opacity:1;" d="M 231.96875 128.339844 C 231.96875 126.515625 229.230469 126.515625 229.230469 128.339844 C 229.230469 130.164062 231.96875 130.164062 231.96875 128.339844 "/>
<path style=" stroke:none;fill-rule:evenodd;fill:rgb(100%,49.803922%,45.098039%);fill-opacity:1;" d="M 231.96875 182.339844 C 231.96875 180.515625 229.230469 180.515625 229.230469 182.339844 C 229.230469 184.164062 231.96875 184.164062 231.96875 182.339844 "/>
<path style=" stroke:none;fill-rule:evenodd;fill:rgb(100%,49.803922%,45.098039%);fill-opacity:1;" d="M 239.167969 41.941406 C 239.167969 40.117188 236.433594 40.117188 236.433594 41.941406 C 236.433594 43.765625 239.167969 43.765625 239.167969 41.941406 "/>
<path style=" stroke:none;fill-rule:evenodd;fill:rgb(100%,49.803922%,45.098039%);fill-opacity:1;" d="M 239.167969 95.941406 C 239.167969 94.117188 236.433594 94.117188 236.433594 95.941406 C 236.433594 97.765625 239.167969 97.765625 239.167969 95.941406 "/>
<path style=" stroke:none;fill-rule:evenodd;fill:rgb(100%,49.803922%,45.098039%);fill-opacity:1;" d="M 239.167969 128.339844 C 239.167969 126.515625 236.433594 126.515625 236.433594 128.339844 C 236.433594 130.164062 239.167969 130.164062 239.167969 128.339844 "/>
<path style=" stroke:none;fill-rule:evenodd;fill:rgb(100%,49.803922%,45.098039%);fill-opacity:1;" d="M 239.167969 182.339844 C 239.167969 180.515625 236.433594 180.515625 236.433594 182.339844 C 236.433594 184.164062 239.167969 184.164062 239.167969 182.339844 "/>
<path style=" stroke:none;fill-rule:evenodd;fill:rgb(100%,49.803922%,45.098039%);fill-opacity:1;" d="M 246.367188 41.941406 C 246.367188 40.117188 243.632812 40.117188 243.632812 41.941406 C 243.632812 43.765625 246.367188 43.765625 246.367188 41.941406 "/>
<path style=" stroke:none;fill-rule:evenodd;fill:rgb(100%,49.803922%,45.098039%);fill-opacity:1;" d="M 246.367188 95.941406 C 246.367188 94.117188 243.632812 94.117188 243.632812 95.941406 C 243.632812 97.765625 246.367188 97.765625 246.367188 95.941406 "/>
<path style=" stroke:none;fill-rule:evenodd;fill:rgb(100%,49.803922%,45.098039%);fill-opacity:1;" d="M 246.367188 128.339844 C 246.367188 126.515625 243.632812 126.515625 243.632812 128.339844 C 243.632812 130.164062 246.367188 130.164062 246.367188 128.339844 "/>
<path style=" stroke:none;fill-rule:evenodd;fill:rgb(100%,49.803922%,45.098039%);fill-opacity:1;" d="M 246.367188 182.339844 C 246.367188 180.515625 243.632812 180.515625 243.632812 182.339844 C 243.632812 184.164062 246.367188 184.164062 246.367188 182.339844 "/>
<path style=" stroke:none;fill-rule:evenodd;fill:rgb(100%,49.803922%,45.098039%);fill-opacity:1;" d="M 253.566406 41.941406 C 253.566406 40.117188 250.832031 40.117188 250.832031 41.941406 C 250.832031 43.765625 253.566406 43.765625 253.566406 41.941406 "/>
<path style=" stroke:none;fill-rule:evenodd;fill:rgb(100%,49.803922%,45.098039%);fill-opacity:1;" d="M 253.566406 95.941406 C 253.566406 94.117188 250.832031 94.117188 250.832031 95.941406 C 250.832031 97.765625 253.566406 97.765625 253.566406 95.941406 "/>
<path style=" stroke:none;fill-rule:evenodd;fill:rgb(100%,49.803922%,45.098039%);fill-opacity:1;" d="M 253.566406 128.339844 C 253.566406 126.515625 250.832031 126.515625 250.832031 128.339844 C 250.832031 130.164062 253.566406 130.164062 253.566406 128.339844 "/>
<path style=" stroke:none;fill-rule:evenodd;fill:rgb(100%,49.803922%,45.098039%);fill-opacity:1;" d="M 253.566406 182.339844 C 253.566406 180.515625 250.832031 180.515625 250.832031 182.339844 C 250.832031 184.164062 253.566406 184.164062 253.566406 182.339844 "/>
<path style=" stroke:none;fill-rule:evenodd;fill:rgb(100%,49.803922%,45.098039%);fill-opacity:1;" d="M 260.769531 41.941406 C 260.769531 40.117188 258.03125 40.117188 258.03125 41.941406 C 258.03125 43.765625 260.769531 43.765625 260.769531 41.941406 "/>
<path style=" stroke:none;fill-rule:evenodd;fill:rgb(100%,49.803922%,45.098039%);fill-opacity:1;" d="M 260.769531 95.941406 C 260.769531 94.117188 258.03125 94.117188 258.03125 95.941406 C 258.03125 97.765625 260.769531 97.765625 260.769531 95.941406 "/>
<path style=" stroke:none;fill-rule:evenodd;fill:rgb(100%,49.803922%,45.098039%);fill-opacity:1;" d="M 260.769531 128.339844 C 260.769531 126.515625 258.03125 126.515625 258.03125 128.339844 C 258.03125 130.164062 260.769531 130.164062 260.769531 128.339844 "/>
<path style=" stroke:none;fill-rule:evenodd;fill:rgb(100%,49.803922%,45.098039%);fill-opacity:1;" d="M 260.769531 182.339844 C 260.769531 180.515625 258.03125 180.515625 258.03125 182.339844 C 258.03125 184.164062 260.769531 184.164062 260.769531 182.339844 "/>
<path style=" stroke:none;fill-rule:evenodd;fill:rgb(100%,49.803922%,45.098039%);fill-opacity:1;" d="M 267.96875 41.941406 C 267.96875 40.117188 265.230469 40.117188 265.230469 41.941406 C 265.230469 43.765625 267.96875 43.765625 267.96875 41.941406 "/>
<path style=" stroke:none;fill-rule:evenodd;fill:rgb(100%,49.803922%,45.098039%);fill-opacity:1;" d="M 267.96875 95.941406 C 267.96875 94.117188 265.230469 94.117188 265.230469 95.941406 C 265.230469 97.765625 267.96875 97.765625 267.96875 95.941406 "/>
<path style=" stroke:none;fill-rule:evenodd;fill:rgb(100%,49.803922%,45.098039%);fill-opacity:1;" d="M 267.96875 128.339844 C 267.96875 126.515625 265.230469 126.515625 265.230469 128.339844 C 265.230469 130.164062 267.96875 130.164062 267.96875 128.339844 "/>
<path style=" stroke:none;fill-rule:evenodd;fill:rgb(100%,49.803922%,45.098039%);fill-opacity:1;" d="M 267.96875 182.339844 C 267.96875 180.515625 265.230469 180.515625 265.230469 182.339844 C 265.230469 184.164062 267.96875 184.164062 267.96875 182.339844 "/>
<path style=" stroke:none;fill-rule:evenodd;fill:rgb(100%,49.803922%,45.098039%);fill-opacity:1;" d="M 275.167969 41.941406 C 275.167969 40.117188 272.433594 40.117188 272.433594 41.941406 C 272.433594 43.765625 275.167969 43.765625 275.167969 41.941406 "/>
<path style=" stroke:none;fill-rule:evenodd;fill:rgb(100%,49.803922%,45.098039%);fill-opacity:1;" d="M 275.167969 95.941406 C 275.167969 94.117188 272.433594 94.117188 272.433594 95.941406 C 272.433594 97.765625 275.167969 97.765625 275.167969 95.941406 "/>
<path style=" stroke:none;fill-rule:evenodd;fill:rgb(100%,49.803922%,45.098039%);fill-opacity:1;" d="M 275.167969 128.339844 C 275.167969 126.515625 272.433594 126.515625 272.433594 128.339844 C 272.433594 130.164062 275.167969 130.164062 275.167969 128.339844 "/>
<path style=" stroke:none;fill-rule:evenodd;fill:rgb(100%,49.803922%,45.098039%);fill-opacity:1;" d="M 275.167969 182.339844 C 275.167969 180.515625 272.433594 180.515625 272.433594 182.339844 C 272.433594 184.164062 275.167969 184.164062 275.167969 182.339844 "/>
</g>
</svg>
