<?xml version="1.0" encoding="UTF-8"?>
<svg xmlns="http://www.w3.org/2000/svg" xmlns:xlink="http://www.w3.org/1999/xlink" width="371pt" height="272pt" viewBox="0 0 371 272" version="1.1">
<g id="surface1">
<path style="fill:none;stroke-width:0.01;stroke-linecap:round;stroke-linejoin:miter;stroke:rgb(45.882353%,94.901961%,40.392157%);stroke-opacity:1;stroke-miterlimit:10;" d="M -0.00000807146 3.899994 L 0.0999811 3.999983 " transform="matrix(72,0,0,-72,9.1998,293.940199)"/>
<path style="fill:none;stroke-width:0.01;stroke-linecap:round;stroke-linejoin:miter;stroke:rgb(45.882353%,94.901961%,40.392157%);stroke-opacity:1;stroke-miterlimit:10;" d="M 0.0999811 3.999983 L 4.900003 3.999983 " transform="matrix(72,0,0,-72,9.1998,293.940199)"/>
<path style="fill:none;stroke-width:0.01;stroke-linecap:round;stroke-linejoin:miter;stroke:rgb(45.882353%,94.901961%,40.392157%);stroke-opacity:1;stroke-miterlimit:10;" d="M 4.900003 3.999983 L 4.900003 0.399994 " transform="matrix(72,0,0,-72,9.1998,293.940199)"/>
<path style="fill:none;stroke-width:0.01;stroke-linecap:round;stroke-linejoin:miter;stroke:rgb(45.882353%,94.901961%,40.392157%);stroke-opacity:1;stroke-miterlimit:10;" d="M 4.900003 0.399994 L -0.00000807146 0.399994 " transform="matrix(72,0,0,-72,9.1998,293.940199)"/>
<path style="fill:none;stroke-width:0.01;stroke-linecap:round;stroke-linejoin:miter;stroke:rgb(45.882353%,94.901961%,40.392157%);stroke-opacity:1;stroke-miterlimit:10;" d="M -0.00000807146 0.399994 L -0.00000807146 3.899994 " transform="matrix(72,0,0,-72,9.1998,293.940199)"/>
<path style=" stroke:none;fill-rule:evenodd;fill:rgb(75.686275%,0%,87.843137%);fill-opacity:1;" d="M 247.375 182.339844 C 247.375 179.171875 242.625 179.171875 242.625 182.339844 C 242.625 185.507812 247.375 185.507812 247.375 182.339844 "/>
<path style=" stroke:none;fill-rule:evenodd;fill:rgb(75.686275%,0%,87.843137%);fill-opacity:1;" d="M 254.574219 182.339844 C 254.574219 179.171875 249.824219 179.171875 249.824219 182.339844 C 249.824219 185.507812 254.574219 185.507812 254.574219 182.339844 "/>
<path style=" stroke:none;fill-rule:evenodd;fill:rgb(75.686275%,0%,87.843137%);fill-opacity:1;" d="M 261.777344 182.339844 C 261.777344 179.171875 257.023438 179.171875 257.023438 182.339844 C 257.023438 185.507812 261.777344 185.507812 261.777344 182.339844 "/>
<path style=" stroke:none;fill-rule:evenodd;fill:rgb(75.686275%,0%,87.843137%);fill-opacity:1;" d="M 268.976562 182.339844 C 268.976562 179.171875 264.222656 179.171875 264.222656 182.339844 C 264.222656 185.507812 268.976562 185.507812 268.976562 182.339844 "/>
<path style=" stroke:none;fill-rule:evenodd;fill:rgb(75.686275%,0%,87.843137%);fill-opacity:1;" d="M 225.777344 182.339844 C 225.777344 179.171875 221.023438 179.171875 221.023438 182.339844 C 221.023438 185.507812 225.777344 185.507812 225.777344 182.339844 "/>
<path style=" stroke:none;fill-rule:evenodd;fill:rgb(75.686275%,0%,87.843137%);fill-opacity:1;" d="M 232.976562 182.339844 C 232.976562 179.171875 228.222656 179.171875 228.222656 182.339844 C 228.222656 185.507812 232.976562 185.507812 232.976562 182.339844 "/>
<path style=" stroke:none;fill-rule:evenodd;fill:rgb(75.686275%,0%,87.843137%);fill-opacity:1;" d="M 240.175781 182.339844 C 240.175781 179.171875 235.421875 179.171875 235.421875 182.339844 C 235.421875 185.507812 240.175781 185.507812 240.175781 182.339844 "/>
<path style=" stroke:none;fill-rule:evenodd;fill:rgb(75.686275%,0%,87.843137%);fill-opacity:1;" d="M 276.175781 182.339844 C 276.175781 179.171875 271.421875 179.171875 271.421875 182.339844 C 271.421875 185.507812 276.175781 185.507812 276.175781 182.339844 "/>
<path style=" stroke:none;fill-rule:evenodd;fill:rgb(75.686275%,0%,87.843137%);fill-opacity:1;" d="M 232.976562 128.339844 C 232.976562 125.171875 228.222656 125.171875 228.222656 128.339844 C 228.222656 131.507812 232.976562 131.507812 232.976562 128.339844 "/>
<path style=" stroke:none;fill-rule:evenodd;fill:rgb(75.686275%,0%,87.843137%);fill-opacity:1;" d="M 240.175781 128.339844 C 240.175781 125.171875 235.421875 125.171875 235.421875 128.339844 C 235.421875 131.507812 240.175781 131.507812 240.175781 128.339844 "/>
<path style=" stroke:none;fill-rule:evenodd;fill:rgb(75.686275%,0%,87.843137%);fill-opacity:1;" d="M 247.375 128.339844 C 247.375 125.171875 242.625 125.171875 242.625 128.339844 C 242.625 131.507812 247.375 131.507812 247.375 128.339844 "/>
<path style=" stroke:none;fill-rule:evenodd;fill:rgb(75.686275%,0%,87.843137%);fill-opacity:1;" d="M 254.574219 128.339844 C 254.574219 125.171875 249.824219 125.171875 249.824219 128.339844 C 249.824219 131.507812 254.574219 131.507812 254.574219 128.339844 "/>
<path style=" stroke:none;fill-rule:evenodd;fill:rgb(75.686275%,0%,87.843137%);fill-opacity:1;" d="M 261.777344 128.339844 C 261.777344 125.171875 257.023438 125.171875 257.023438 128.339844 C 257.023438 131.507812 261.777344 131.507812 261.777344 128.339844 "/>
<path style=" stroke:none;fill-rule:evenodd;fill:rgb(75.686275%,0%,87.843137%);fill-opacity:1;" d="M 268.976562 128.339844 C 268.976562 125.171875 264.222656 125.171875 264.222656 128.339844 C 264.222656 131.507812 268.976562 131.507812 268.976562 128.339844 "/>
<path style=" stroke:none;fill-rule:evenodd;fill:rgb(75.686275%,0%,87.843137%);fill-opacity:1;" d="M 276.175781 128.339844 C 276.175781 125.171875 271.421875 125.171875 271.421875 128.339844 C 271.421875 131.507812 276.175781 131.507812 276.175781 128.339844 "/>
<path style=" stroke:none;fill-rule:evenodd;fill:rgb(75.686275%,0%,87.843137%);fill-opacity:1;" d="M 340.253906 143.820312 C 340.253906 142.570312 338.382812 142.570312 338.382812 143.820312 C 338.382812 145.066406 340.253906 145.066406 340.253906 143.820312 "/>
<path style=" stroke:none;fill-rule:evenodd;fill:rgb(75.686275%,0%,87.843137%);fill-opacity:1;" d="M 325.496094 142.738281 C 325.496094 141.492188 323.625 141.492188 323.625 142.738281 C 323.625 143.988281 325.496094 143.988281 325.496094 142.738281 "/>
<path style=" stroke:none;fill-rule:evenodd;fill:rgb(75.686275%,0%,87.843137%);fill-opacity:1;" d="M 342.414062 143.820312 C 342.414062 142.570312 340.542969 142.570312 340.542969 143.820312 C 340.542969 145.066406 342.414062 145.066406 342.414062 143.820312 "/>
<path style=" stroke:none;fill-rule:evenodd;fill:rgb(75.686275%,0%,87.843137%);fill-opacity:1;" d="M 350.695312 144.179688 C 350.695312 142.933594 348.824219 142.933594 348.824219 144.179688 C 348.824219 145.429688 350.695312 145.429688 350.695312 144.179688 "/>
<path style=" stroke:none;fill-rule:evenodd;fill:rgb(75.686275%,0%,87.843137%);fill-opacity:1;" d="M 352.855469 144.179688 C 352.855469 142.933594 350.984375 142.933594 350.984375 144.179688 C 350.984375 145.429688 352.855469 145.429688 352.855469 144.179688 "/>
<path style=" stroke:none;fill-rule:evenodd;fill:rgb(75.686275%,0%,87.843137%);fill-opacity:1;" d="M 336.65625 141.300781 C 336.65625 140.050781 334.785156 140.050781 334.785156 141.300781 C 334.785156 142.546875 336.65625 142.546875 336.65625 141.300781 "/>
<path style=" stroke:none;fill-rule:evenodd;fill:rgb(75.686275%,0%,87.843137%);fill-opacity:1;" d="M 338.816406 141.300781 C 338.816406 140.050781 336.945312 140.050781 336.945312 141.300781 C 336.945312 142.546875 338.816406 142.546875 338.816406 141.300781 "/>
<path style=" stroke:none;fill-rule:evenodd;fill:rgb(75.686275%,0%,87.843137%);fill-opacity:1;" d="M 328.734375 136.621094 C 328.734375 135.371094 326.863281 135.371094 326.863281 136.621094 C 326.863281 137.867188 328.734375 137.867188 328.734375 136.621094 "/>
<path style=" stroke:none;fill-rule:evenodd;fill:rgb(75.686275%,0%,87.843137%);fill-opacity:1;" d="M 330.894531 136.621094 C 330.894531 135.371094 329.023438 135.371094 329.023438 136.621094 C 329.023438 137.867188 330.894531 137.867188 330.894531 136.621094 "/>
<path style=" stroke:none;fill-rule:evenodd;fill:rgb(75.686275%,0%,87.843137%);fill-opacity:1;" d="M 319.734375 142.738281 C 319.734375 141.492188 317.863281 141.492188 317.863281 142.738281 C 317.863281 143.988281 319.734375 143.988281 319.734375 142.738281 "/>
<path style=" stroke:none;fill-rule:evenodd;fill:rgb(75.686275%,0%,87.843137%);fill-opacity:1;" d="M 321.535156 144.179688 C 321.535156 142.933594 319.664062 142.933594 319.664062 144.179688 C 319.664062 145.429688 321.535156 145.429688 321.535156 144.179688 "/>
<path style=" stroke:none;fill-rule:evenodd;fill:rgb(75.686275%,0%,87.843137%);fill-opacity:1;" d="M 323.695312 144.179688 C 323.695312 142.933594 321.824219 142.933594 321.824219 144.179688 C 321.824219 145.429688 323.695312 145.429688 323.695312 144.179688 "/>
<path style=" stroke:none;fill-rule:evenodd;fill:rgb(75.686275%,0%,87.843137%);fill-opacity:1;" d="M 310.734375 144.179688 C 310.734375 142.933594 308.863281 142.933594 308.863281 144.179688 C 308.863281 145.429688 310.734375 145.429688 310.734375 144.179688 "/>
<path style=" stroke:none;fill-rule:evenodd;fill:rgb(75.686275%,0%,87.843137%);fill-opacity:1;" d="M 312.894531 144.179688 C 312.894531 142.933594 311.023438 142.933594 311.023438 144.179688 C 311.023438 145.429688 312.894531 145.429688 312.894531 144.179688 "/>
<path style=" stroke:none;fill-rule:evenodd;fill:rgb(75.686275%,0%,87.843137%);fill-opacity:1;" d="M 315.054688 144.179688 C 315.054688 142.933594 313.183594 142.933594 313.183594 144.179688 C 313.183594 145.429688 315.054688 145.429688 315.054688 144.179688 "/>
<path style=" stroke:none;fill-rule:evenodd;fill:rgb(75.686275%,0%,87.843137%);fill-opacity:1;" d="M 303.535156 136.980469 C 303.535156 135.730469 301.664062 135.730469 301.664062 136.980469 C 301.664062 138.226562 303.535156 138.226562 303.535156 136.980469 "/>
<path style=" stroke:none;fill-rule:evenodd;fill:rgb(75.686275%,0%,87.843137%);fill-opacity:1;" d="M 305.695312 136.980469 C 305.695312 135.730469 303.824219 135.730469 303.824219 136.980469 C 303.824219 138.226562 305.695312 138.226562 305.695312 136.980469 "/>
<path style=" stroke:none;fill-rule:evenodd;fill:rgb(75.686275%,0%,87.843137%);fill-opacity:1;" d="M 307.855469 136.980469 C 307.855469 135.730469 305.984375 135.730469 305.984375 136.980469 C 305.984375 138.226562 307.855469 138.226562 307.855469 136.980469 "/>
<path style=" stroke:none;fill-rule:evenodd;fill:rgb(75.686275%,0%,87.843137%);fill-opacity:1;" d="M 225.777344 128.339844 C 225.777344 125.171875 221.023438 125.171875 221.023438 128.339844 C 221.023438 131.507812 225.777344 131.507812 225.777344 128.339844 "/>
<path style=" stroke:none;fill-rule:evenodd;fill:rgb(75.686275%,0%,87.843137%);fill-opacity:1;" d="M 211.375 128.339844 C 211.375 125.171875 206.625 125.171875 206.625 128.339844 C 206.625 131.507812 211.375 131.507812 211.375 128.339844 "/>
<path style=" stroke:none;fill-rule:evenodd;fill:rgb(75.686275%,0%,87.843137%);fill-opacity:1;" d="M 211.375 135.539062 C 211.375 132.371094 206.625 132.371094 206.625 135.539062 C 206.625 138.707031 211.375 138.707031 211.375 135.539062 "/>
<path style=" stroke:none;fill-rule:evenodd;fill:rgb(75.686275%,0%,87.843137%);fill-opacity:1;" d="M 204.175781 135.539062 C 204.175781 132.371094 199.421875 132.371094 199.421875 135.539062 C 199.421875 138.707031 204.175781 138.707031 204.175781 135.539062 "/>
<path style=" stroke:none;fill-rule:evenodd;fill:rgb(75.686275%,0%,87.843137%);fill-opacity:1;" d="M 204.175781 128.339844 C 204.175781 125.171875 199.421875 125.171875 199.421875 128.339844 C 199.421875 131.507812 204.175781 131.507812 204.175781 128.339844 "/>
<path style=" stroke:none;fill-rule:evenodd;fill:rgb(75.686275%,0%,87.843137%);fill-opacity:1;" d="M 276.175781 95.941406 C 276.175781 92.773438 271.421875 92.773438 271.421875 95.941406 C 271.421875 99.109375 276.175781 99.109375 276.175781 95.941406 "/>
<path style=" stroke:none;fill-rule:evenodd;fill:rgb(75.686275%,0%,87.843137%);fill-opacity:1;" d="M 268.976562 95.941406 C 268.976562 92.773438 264.222656 92.773438 264.222656 95.941406 C 264.222656 99.109375 268.976562 99.109375 268.976562 95.941406 "/>
<path style=" stroke:none;fill-rule:evenodd;fill:rgb(75.686275%,0%,87.843137%);fill-opacity:1;" d="M 261.777344 95.941406 C 261.777344 92.773438 257.023438 92.773438 257.023438 95.941406 C 257.023438 99.109375 261.777344 99.109375 261.777344 95.941406 "/>
<path style=" stroke:none;fill-rule:evenodd;fill:rgb(75.686275%,0%,87.843137%);fill-opacity:1;" d="M 254.574219 95.941406 C 254.574219 92.773438 249.824219 92.773438 249.824219 95.941406 C 249.824219 99.109375 254.574219 99.109375 254.574219 95.941406 "/>
<path style=" stroke:none;fill-rule:evenodd;fill:rgb(75.686275%,0%,87.843137%);fill-opacity:1;" d="M 247.375 95.941406 C 247.375 92.773438 242.625 92.773438 242.625 95.941406 C 242.625 99.109375 247.375 99.109375 247.375 95.941406 "/>
<path style=" stroke:none;fill-rule:evenodd;fill:rgb(75.686275%,0%,87.843137%);fill-opacity:1;" d="M 240.175781 95.941406 C 240.175781 92.773438 235.421875 92.773438 235.421875 95.941406 C 235.421875 99.109375 240.175781 99.109375 240.175781 95.941406 "/>
<path style=" stroke:none;fill-rule:evenodd;fill:rgb(75.686275%,0%,87.843137%);fill-opacity:1;" d="M 232.976562 95.941406 C 232.976562 92.773438 228.222656 92.773438 228.222656 95.941406 C 228.222656 99.109375 232.976562 99.109375 232.976562 95.941406 "/>
<path style=" stroke:none;fill-rule:evenodd;fill:rgb(75.686275%,0%,87.843137%);fill-opacity:1;" d="M 225.777344 95.941406 C 225.777344 92.773438 221.023438 92.773438 221.023438 95.941406 C 221.023438 99.109375 225.777344 99.109375 225.777344 95.941406 "/>
<path style=" stroke:none;fill-rule:evenodd;fill:rgb(75.686275%,0%,87.843137%);fill-opacity:1;" d="M 204.175781 41.941406 C 204.175781 38.773438 199.421875 38.773438 199.421875 41.941406 C 199.421875 45.109375 204.175781 45.109375 204.175781 41.941406 "/>
<path style=" stroke:none;fill-rule:evenodd;fill:rgb(75.686275%,0%,87.843137%);fill-opacity:1;" d="M 211.375 41.941406 C 211.375 38.773438 206.625 38.773438 206.625 41.941406 C 206.625 45.109375 211.375 45.109375 211.375 41.941406 "/>
<path style=" stroke:none;fill-rule:evenodd;fill:rgb(75.686275%,0%,87.843137%);fill-opacity:1;" d="M 204.175781 49.140625 C 204.175781 45.972656 199.421875 45.972656 199.421875 49.140625 C 199.421875 52.308594 204.175781 52.308594 204.175781 49.140625 "/>
<path style=" stroke:none;fill-rule:evenodd;fill:rgb(75.686275%,0%,87.843137%);fill-opacity:1;" d="M 211.375 49.140625 C 211.375 45.972656 206.625 45.972656 206.625 49.140625 C 206.625 52.308594 211.375 52.308594 211.375 49.140625 "/>
<path style=" stroke:none;fill-rule:evenodd;fill:rgb(75.686275%,0%,87.843137%);fill-opacity:1;" d="M 276.175781 41.941406 C 276.175781 38.773438 271.421875 38.773438 271.421875 41.941406 C 271.421875 45.109375 276.175781 45.109375 276.175781 41.941406 "/>
<path style=" stroke:none;fill-rule:evenodd;fill:rgb(75.686275%,0%,87.843137%);fill-opacity:1;" d="M 268.976562 41.941406 C 268.976562 38.773438 264.222656 38.773438 264.222656 41.941406 C 264.222656 45.109375 268.976562 45.109375 268.976562 41.941406 "/>
<path style=" stroke:none;fill-rule:evenodd;fill:rgb(75.686275%,0%,87.843137%);fill-opacity:1;" d="M 261.777344 41.941406 C 261.777344 38.773438 257.023438 38.773438 257.023438 41.941406 C 257.023438 45.109375 261.777344 45.109375 261.777344 41.941406 "/>
<path style=" stroke:none;fill-rule:evenodd;fill:rgb(75.686275%,0%,87.843137%);fill-opacity:1;" d="M 254.574219 41.941406 C 254.574219 38.773438 249.824219 38.773438 249.824219 41.941406 C 249.824219 45.109375 254.574219 45.109375 254.574219 41.941406 "/>
<path style=" stroke:none;fill-rule:evenodd;fill:rgb(75.686275%,0%,87.843137%);fill-opacity:1;" d="M 247.375 41.941406 C 247.375 38.773438 242.625 38.773438 242.625 41.941406 C 242.625 45.109375 247.375 45.109375 247.375 41.941406 "/>
<path style=" stroke:none;fill-rule:evenodd;fill:rgb(75.686275%,0%,87.843137%);fill-opacity:1;" d="M 240.175781 41.941406 C 240.175781 38.773438 235.421875 38.773438 235.421875 41.941406 C 235.421875 45.109375 240.175781 45.109375 240.175781 41.941406 "/>
<path style=" stroke:none;fill-rule:evenodd;fill:rgb(75.686275%,0%,87.843137%);fill-opacity:1;" d="M 232.976562 41.941406 C 232.976562 38.773438 228.222656 38.773438 228.222656 41.941406 C 228.222656 45.109375 232.976562 45.109375 232.976562 41.941406 "/>
<path style=" stroke:none;fill-rule:evenodd;fill:rgb(75.686275%,0%,87.843137%);fill-opacity:1;" d="M 225.777344 41.941406 C 225.777344 38.773438 221.023438 38.773438 221.023438 41.941406 C 221.023438 45.109375 225.777344 45.109375 225.777344 41.941406 "/>
<path style=" stroke:none;fill-rule:evenodd;fill:rgb(75.686275%,0%,87.843137%);fill-opacity:1;" d="M 83.574219 128.339844 C 83.574219 125.171875 78.824219 125.171875 78.824219 128.339844 C 78.824219 131.507812 83.574219 131.507812 83.574219 128.339844 "/>
<path style=" stroke:none;fill-rule:evenodd;fill:rgb(75.686275%,0%,87.843137%);fill-opacity:1;" d="M 83.574219 135.539062 C 83.574219 132.371094 78.824219 132.371094 78.824219 135.539062 C 78.824219 138.707031 83.574219 138.707031 83.574219 135.539062 "/>
<path style=" stroke:none;fill-rule:evenodd;fill:rgb(75.686275%,0%,87.843137%);fill-opacity:1;" d="M 76.375 135.539062 C 76.375 132.371094 71.625 132.371094 71.625 135.539062 C 71.625 138.707031 76.375 138.707031 76.375 135.539062 "/>
<path style=" stroke:none;fill-rule:evenodd;fill:rgb(75.686275%,0%,87.843137%);fill-opacity:1;" d="M 76.375 128.339844 C 76.375 125.171875 71.625 125.171875 71.625 128.339844 C 71.625 131.507812 76.375 131.507812 76.375 128.339844 "/>
<path style=" stroke:none;fill-rule:evenodd;fill:rgb(75.686275%,0%,87.843137%);fill-opacity:1;" d="M 133.253906 171.539062 C 133.253906 168.371094 128.503906 168.371094 128.503906 171.539062 C 128.503906 174.707031 133.253906 174.707031 133.253906 171.539062 "/>
<path style=" stroke:none;fill-rule:evenodd;fill:rgb(75.686275%,0%,87.843137%);fill-opacity:1;" d="M 121.304688 82.042969 L 121.304688 88.234375 L 127.496094 88.234375 L 127.496094 82.042969 Z M 121.304688 82.042969 "/>
<path style=" stroke:none;fill-rule:evenodd;fill:rgb(75.686275%,0%,87.843137%);fill-opacity:1;" d="M 133.253906 178.738281 C 133.253906 175.570312 128.503906 175.570312 128.503906 178.738281 C 128.503906 181.90625 133.253906 181.90625 133.253906 178.738281 "/>
<path style=" stroke:none;fill-rule:evenodd;fill:rgb(75.686275%,0%,87.843137%);fill-opacity:1;" d="M 133.253906 185.941406 C 133.253906 182.773438 128.503906 182.773438 128.503906 185.941406 C 128.503906 189.109375 133.253906 189.109375 133.253906 185.941406 "/>
<path style=" stroke:none;fill-rule:evenodd;fill:rgb(75.686275%,0%,87.843137%);fill-opacity:1;" d="M 120.296875 85.140625 C 120.296875 81.011719 114.105469 81.011719 114.105469 85.140625 C 114.105469 89.269531 120.296875 89.269531 120.296875 85.140625 "/>
<path style=" stroke:none;fill-rule:evenodd;fill:rgb(75.686275%,0%,87.843137%);fill-opacity:1;" d="M 128.503906 147.5625 L 128.503906 152.316406 L 133.253906 152.316406 L 133.253906 147.5625 Z M 128.503906 147.5625 "/>
<path style=" stroke:none;fill-rule:evenodd;fill:rgb(75.686275%,0%,87.843137%);fill-opacity:1;" d="M 133.253906 157.140625 C 133.253906 153.972656 128.503906 153.972656 128.503906 157.140625 C 128.503906 160.308594 133.253906 160.308594 133.253906 157.140625 "/>
<path style=" stroke:none;fill-rule:evenodd;fill:rgb(75.686275%,0%,87.843137%);fill-opacity:1;" d="M 133.253906 164.339844 C 133.253906 161.171875 128.503906 161.171875 128.503906 164.339844 C 128.503906 167.507812 133.253906 167.507812 133.253906 164.339844 "/>
<path style=" stroke:none;fill-rule:evenodd;fill:rgb(75.686275%,0%,87.843137%);fill-opacity:1;" d="M 128.503906 61.164062 L 128.503906 65.917969 L 133.253906 65.917969 L 133.253906 61.164062 Z M 128.503906 61.164062 "/>
<path style=" stroke:none;fill-rule:evenodd;fill:rgb(75.686275%,0%,87.843137%);fill-opacity:1;" d="M 133.253906 70.738281 C 133.253906 67.570312 128.503906 67.570312 128.503906 70.738281 C 128.503906 73.90625 133.253906 73.90625 133.253906 70.738281 "/>
<path style=" stroke:none;fill-rule:evenodd;fill:rgb(75.686275%,0%,87.843137%);fill-opacity:1;" d="M 133.253906 77.941406 C 133.253906 74.773438 128.503906 74.773438 128.503906 77.941406 C 128.503906 81.109375 133.253906 81.109375 133.253906 77.941406 "/>
<path style=" stroke:none;fill-rule:evenodd;fill:rgb(75.686275%,0%,87.843137%);fill-opacity:1;" d="M 133.253906 85.140625 C 133.253906 81.972656 128.503906 81.972656 128.503906 85.140625 C 128.503906 88.308594 133.253906 88.308594 133.253906 85.140625 "/>
<path style=" stroke:none;fill-rule:evenodd;fill:rgb(75.686275%,0%,87.843137%);fill-opacity:1;" d="M 133.253906 92.339844 C 133.253906 89.171875 128.503906 89.171875 128.503906 92.339844 C 128.503906 95.507812 133.253906 95.507812 133.253906 92.339844 "/>
<path style=" stroke:none;fill-rule:evenodd;fill:rgb(75.686275%,0%,87.843137%);fill-opacity:1;" d="M 133.253906 99.539062 C 133.253906 96.371094 128.503906 96.371094 128.503906 99.539062 C 128.503906 102.707031 133.253906 102.707031 133.253906 99.539062 "/>
<path style=" stroke:none;fill-rule:evenodd;fill:rgb(75.686275%,0%,87.843137%);fill-opacity:1;" d="M 147.296875 67.140625 C 147.296875 63.972656 142.542969 63.972656 142.542969 67.140625 C 142.542969 70.308594 147.296875 70.308594 147.296875 67.140625 "/>
<path style=" stroke:none;fill-rule:evenodd;fill:rgb(75.686275%,0%,87.843137%);fill-opacity:1;" d="M 147.296875 81.539062 C 147.296875 78.371094 142.542969 78.371094 142.542969 81.539062 C 142.542969 84.707031 147.296875 84.707031 147.296875 81.539062 "/>
<path style=" stroke:none;fill-rule:evenodd;fill:rgb(75.686275%,0%,87.843137%);fill-opacity:1;" d="M 76.375 41.941406 C 76.375 38.773438 71.625 38.773438 71.625 41.941406 C 71.625 45.109375 76.375 45.109375 76.375 41.941406 "/>
<path style=" stroke:none;fill-rule:evenodd;fill:rgb(75.686275%,0%,87.843137%);fill-opacity:1;" d="M 83.574219 41.941406 C 83.574219 38.773438 78.824219 38.773438 78.824219 41.941406 C 78.824219 45.109375 83.574219 45.109375 83.574219 41.941406 "/>
<path style=" stroke:none;fill-rule:evenodd;fill:rgb(75.686275%,0%,87.843137%);fill-opacity:1;" d="M 76.375 49.140625 C 76.375 45.972656 71.625 45.972656 71.625 49.140625 C 71.625 52.308594 76.375 52.308594 76.375 49.140625 "/>
<path style=" stroke:none;fill-rule:evenodd;fill:rgb(75.686275%,0%,87.843137%);fill-opacity:1;" d="M 83.574219 49.140625 C 83.574219 45.972656 78.824219 45.972656 78.824219 49.140625 C 78.824219 52.308594 83.574219 52.308594 83.574219 49.140625 "/>
<path style=" stroke:none;fill-rule:evenodd;fill:rgb(75.686275%,0%,87.843137%);fill-opacity:1;" d="M 71.804688 75.746094 L 71.804688 80.136719 L 76.195312 80.136719 L 76.195312 75.746094 Z M 71.804688 75.746094 "/>
<path style=" stroke:none;fill-rule:evenodd;fill:rgb(75.686275%,0%,87.843137%);fill-opacity:1;" d="M 104.996094 77.941406 C 104.996094 75.011719 100.605469 75.011719 100.605469 77.941406 C 100.605469 80.867188 104.996094 80.867188 104.996094 77.941406 "/>
<path style=" stroke:none;fill-rule:evenodd;fill:rgb(75.686275%,0%,87.843137%);fill-opacity:1;" d="M 84.296875 85.140625 C 84.296875 81.011719 78.105469 81.011719 78.105469 85.140625 C 78.105469 89.269531 84.296875 89.269531 84.296875 85.140625 "/>
<path style=" stroke:none;fill-rule:evenodd;fill:rgb(75.686275%,0%,87.843137%);fill-opacity:1;" d="M 83.394531 77.941406 C 83.394531 75.011719 79.003906 75.011719 79.003906 77.941406 C 79.003906 80.867188 83.394531 80.867188 83.394531 77.941406 "/>
<path style=" stroke:none;fill-rule:evenodd;fill:rgb(75.686275%,0%,87.843137%);fill-opacity:1;" d="M 70.902344 82.042969 L 70.902344 88.234375 L 77.097656 88.234375 L 77.097656 82.042969 Z M 70.902344 82.042969 "/>
<path style=" stroke:none;fill-rule:evenodd;fill:rgb(75.686275%,0%,87.843137%);fill-opacity:1;" d="M 107.804688 75.746094 L 107.804688 80.136719 L 112.195312 80.136719 L 112.195312 75.746094 Z M 107.804688 75.746094 "/>
<path style=" stroke:none;fill-rule:evenodd;fill:rgb(100%,49.803922%,45.098039%);fill-opacity:1;" d="M 117.558594 67.140625 C 117.558594 66.660156 116.839844 66.660156 116.839844 67.140625 C 116.839844 67.621094 117.558594 67.621094 117.558594 67.140625 "/>
<path style=" stroke:none;fill-rule:evenodd;fill:rgb(100%,49.803922%,45.098039%);fill-opacity:1;" d="M 128 28.980469 C 128 28.5 127.28125 28.5 127.28125 28.980469 C 127.28125 29.460938 128 29.460938 128 28.980469 "/>
<path style=" stroke:none;fill-rule:evenodd;fill:rgb(100%,49.803922%,45.098039%);fill-opacity:1;" d="M 128 36.179688 C 128 35.699219 127.28125 35.699219 127.28125 36.179688 C 127.28125 36.660156 128 36.660156 128 36.179688 "/>
<path style=" stroke:none;fill-rule:evenodd;fill:rgb(100%,49.803922%,45.098039%);fill-opacity:1;" d="M 139.878906 157.140625 C 139.878906 156.660156 139.160156 156.660156 139.160156 157.140625 C 139.160156 157.621094 139.878906 157.621094 139.878906 157.140625 "/>
<path style=" stroke:none;fill-rule:evenodd;fill:rgb(100%,49.803922%,45.098039%);fill-opacity:1;" d="M 139.878906 160.378906 C 139.878906 159.898438 139.160156 159.898438 139.160156 160.378906 C 139.160156 160.859375 139.878906 160.859375 139.878906 160.378906 "/>
<path style=" stroke:none;fill-rule:evenodd;fill:rgb(100%,49.803922%,45.098039%);fill-opacity:1;" d="M 140.238281 72.539062 C 140.238281 72.058594 139.519531 72.058594 139.519531 72.539062 C 139.519531 73.019531 140.238281 73.019531 140.238281 72.539062 "/>
<path style=" stroke:none;fill-rule:evenodd;fill:rgb(100%,49.803922%,45.098039%);fill-opacity:1;" d="M 146 157.140625 C 146 156.660156 145.28125 156.660156 145.28125 157.140625 C 145.28125 157.621094 146 157.621094 146 157.140625 "/>
<path style=" stroke:none;fill-rule:evenodd;fill:rgb(100%,49.803922%,45.098039%);fill-opacity:1;" d="M 146 160.378906 C 146 159.898438 145.28125 159.898438 145.28125 160.378906 C 145.28125 160.859375 146 160.859375 146 160.378906 "/>
<path style=" stroke:none;fill-rule:evenodd;fill:rgb(100%,49.803922%,45.098039%);fill-opacity:1;" d="M 217.640625 24.300781 C 217.640625 23.820312 216.917969 23.820312 216.917969 24.300781 C 216.917969 24.78125 217.640625 24.78125 217.640625 24.300781 "/>
<path style=" stroke:none;fill-rule:evenodd;fill:rgb(100%,49.803922%,45.098039%);fill-opacity:1;" d="M 219.441406 29.699219 C 219.441406 29.21875 218.71875 29.21875 218.71875 29.699219 C 218.71875 30.179688 219.441406 30.179688 219.441406 29.699219 "/>
<path style=" stroke:none;fill-rule:evenodd;fill:rgb(100%,49.803922%,45.098039%);fill-opacity:1;" d="M 223.761719 19.621094 C 223.761719 19.140625 223.039062 19.140625 223.039062 19.621094 C 223.039062 20.101562 223.761719 20.101562 223.761719 19.621094 "/>
<path style=" stroke:none;fill-rule:evenodd;fill:rgb(100%,49.803922%,45.098039%);fill-opacity:1;" d="M 241.039062 147.058594 C 241.039062 146.582031 240.320312 146.582031 240.320312 147.058594 C 240.320312 147.539062 241.039062 147.539062 241.039062 147.058594 "/>
<path style=" stroke:none;fill-rule:evenodd;fill:rgb(100%,49.803922%,45.098039%);fill-opacity:1;" d="M 241.039062 152.820312 C 241.039062 152.339844 240.320312 152.339844 240.320312 152.820312 C 240.320312 153.300781 241.039062 153.300781 241.039062 152.820312 "/>
<path style=" stroke:none;fill-rule:evenodd;fill:rgb(100%,49.803922%,45.098039%);fill-opacity:1;" d="M 263 147.058594 C 263 146.582031 262.28125 146.582031 262.28125 147.058594 C 262.28125 147.539062 263 147.539062 263 147.058594 "/>
<path style=" stroke:none;fill-rule:evenodd;fill:rgb(100%,49.803922%,45.098039%);fill-opacity:1;" d="M 263 160.019531 C 263 159.539062 262.28125 159.539062 262.28125 160.019531 C 262.28125 160.5 263 160.5 263 160.019531 "/>
<path style=" stroke:none;fill-rule:evenodd;fill:rgb(100%,49.803922%,45.098039%);fill-opacity:1;" d="M 266.960938 147.058594 C 266.960938 146.582031 266.238281 146.582031 266.238281 147.058594 C 266.238281 147.539062 266.960938 147.539062 266.960938 147.058594 "/>
<path style=" stroke:none;fill-rule:evenodd;fill:rgb(100%,49.803922%,45.098039%);fill-opacity:1;" d="M 266.960938 152.460938 C 266.960938 151.980469 266.238281 151.980469 266.238281 152.460938 C 266.238281 152.941406 266.960938 152.941406 266.960938 152.460938 "/>
<path style=" stroke:none;fill-rule:evenodd;fill:rgb(100%,49.803922%,45.098039%);fill-opacity:1;" d="M 302.960938 136.980469 C 302.960938 136.5 302.238281 136.5 302.238281 136.980469 C 302.238281 137.460938 302.960938 137.460938 302.960938 136.980469 "/>
<path style=" stroke:none;fill-rule:evenodd;fill:rgb(100%,49.803922%,45.098039%);fill-opacity:1;" d="M 305.121094 136.980469 C 305.121094 136.5 304.398438 136.5 304.398438 136.980469 C 304.398438 137.460938 305.121094 137.460938 305.121094 136.980469 "/>
<path style=" stroke:none;fill-rule:evenodd;fill:rgb(100%,49.803922%,45.098039%);fill-opacity:1;" d="M 307.28125 136.980469 C 307.28125 136.5 306.558594 136.5 306.558594 136.980469 C 306.558594 137.460938 307.28125 137.460938 307.28125 136.980469 "/>
<path style=" stroke:none;fill-rule:evenodd;fill:rgb(100%,49.803922%,45.098039%);fill-opacity:1;" d="M 310.160156 144.179688 C 310.160156 143.699219 309.441406 143.699219 309.441406 144.179688 C 309.441406 144.660156 310.160156 144.660156 310.160156 144.179688 "/>
<path style=" stroke:none;fill-rule:evenodd;fill:rgb(100%,49.803922%,45.098039%);fill-opacity:1;" d="M 312.320312 144.179688 C 312.320312 143.699219 311.601562 143.699219 311.601562 144.179688 C 311.601562 144.660156 312.320312 144.660156 312.320312 144.179688 "/>
<path style=" stroke:none;fill-rule:evenodd;fill:rgb(100%,49.803922%,45.098039%);fill-opacity:1;" d="M 314.480469 144.179688 C 314.480469 143.699219 313.761719 143.699219 313.761719 144.179688 C 313.761719 144.660156 314.480469 144.660156 314.480469 144.179688 "/>
<path style=" stroke:none;fill-rule:evenodd;fill:rgb(100%,49.803922%,45.098039%);fill-opacity:1;" d="M 318.078125 117.898438 C 318.078125 117.421875 317.359375 117.421875 317.359375 117.898438 C 317.359375 118.378906 318.078125 118.378906 318.078125 117.898438 "/>
<path style=" stroke:none;fill-rule:evenodd;fill:rgb(100%,49.803922%,45.098039%);fill-opacity:1;" d="M 318.078125 122.941406 C 318.078125 122.460938 317.359375 122.460938 317.359375 122.941406 C 317.359375 123.421875 318.078125 123.421875 318.078125 122.941406 "/>
<path style=" stroke:none;fill-rule:evenodd;fill:rgb(100%,49.803922%,45.098039%);fill-opacity:1;" d="M 319.160156 142.738281 C 319.160156 142.261719 318.441406 142.261719 318.441406 142.738281 C 318.441406 143.21875 319.160156 143.21875 319.160156 142.738281 "/>
<path style=" stroke:none;fill-rule:evenodd;fill:rgb(100%,49.803922%,45.098039%);fill-opacity:1;" d="M 320.601562 120.421875 C 320.601562 119.941406 319.878906 119.941406 319.878906 120.421875 C 319.878906 120.898438 320.601562 120.898438 320.601562 120.421875 "/>
<path style=" stroke:none;fill-rule:evenodd;fill:rgb(100%,49.803922%,45.098039%);fill-opacity:1;" d="M 320.601562 122.941406 C 320.601562 122.460938 319.878906 122.460938 319.878906 122.941406 C 319.878906 123.421875 320.601562 123.421875 320.601562 122.941406 "/>
<path style=" stroke:none;fill-rule:evenodd;fill:rgb(100%,49.803922%,45.098039%);fill-opacity:1;" d="M 320.960938 144.179688 C 320.960938 143.699219 320.238281 143.699219 320.238281 144.179688 C 320.238281 144.660156 320.960938 144.660156 320.960938 144.179688 "/>
<path style=" stroke:none;fill-rule:evenodd;fill:rgb(100%,49.803922%,45.098039%);fill-opacity:1;" d="M 323.121094 112.859375 C 323.121094 112.378906 322.398438 112.378906 322.398438 112.859375 C 322.398438 113.339844 323.121094 113.339844 323.121094 112.859375 "/>
<path style=" stroke:none;fill-rule:evenodd;fill:rgb(100%,49.803922%,45.098039%);fill-opacity:1;" d="M 323.121094 122.941406 C 323.121094 122.460938 322.398438 122.460938 322.398438 122.941406 C 322.398438 123.421875 323.121094 123.421875 323.121094 122.941406 "/>
<path style=" stroke:none;fill-rule:evenodd;fill:rgb(100%,49.803922%,45.098039%);fill-opacity:1;" d="M 323.121094 144.179688 C 323.121094 143.699219 322.398438 143.699219 322.398438 144.179688 C 322.398438 144.660156 323.121094 144.660156 323.121094 144.179688 "/>
<path style=" stroke:none;fill-rule:evenodd;fill:rgb(100%,49.803922%,45.098039%);fill-opacity:1;" d="M 324.917969 142.738281 C 324.917969 142.261719 324.199219 142.261719 324.199219 142.738281 C 324.199219 143.21875 324.917969 143.21875 324.917969 142.738281 "/>
<path style=" stroke:none;fill-rule:evenodd;fill:rgb(100%,49.803922%,45.098039%);fill-opacity:1;" d="M 325.640625 115.378906 C 325.640625 114.898438 324.917969 114.898438 324.917969 115.378906 C 324.917969 115.859375 325.640625 115.859375 325.640625 115.378906 "/>
<path style=" stroke:none;fill-rule:evenodd;fill:rgb(100%,49.803922%,45.098039%);fill-opacity:1;" d="M 325.640625 122.941406 C 325.640625 122.460938 324.917969 122.460938 324.917969 122.941406 C 324.917969 123.421875 325.640625 123.421875 325.640625 122.941406 "/>
<path style=" stroke:none;fill-rule:evenodd;fill:rgb(100%,49.803922%,45.098039%);fill-opacity:1;" d="M 328.160156 136.621094 C 328.160156 136.140625 327.441406 136.140625 327.441406 136.621094 C 327.441406 137.101562 328.160156 137.101562 328.160156 136.621094 "/>
<path style=" stroke:none;fill-rule:evenodd;fill:rgb(100%,49.803922%,45.098039%);fill-opacity:1;" d="M 329.238281 51.300781 C 329.238281 50.820312 328.519531 50.820312 328.519531 51.300781 C 328.519531 51.78125 329.238281 51.78125 329.238281 51.300781 "/>
<path style=" stroke:none;fill-rule:evenodd;fill:rgb(100%,49.803922%,45.098039%);fill-opacity:1;" d="M 330.320312 136.621094 C 330.320312 136.140625 329.601562 136.140625 329.601562 136.621094 C 329.601562 137.101562 330.320312 137.101562 330.320312 136.621094 "/>
<path style=" stroke:none;fill-rule:evenodd;fill:rgb(100%,49.803922%,45.098039%);fill-opacity:1;" d="M 331.039062 49.859375 C 331.039062 49.378906 330.320312 49.378906 330.320312 49.859375 C 330.320312 50.339844 331.039062 50.339844 331.039062 49.859375 "/>
<path style=" stroke:none;fill-rule:evenodd;fill:rgb(100%,49.803922%,45.098039%);fill-opacity:1;" d="M 336.078125 141.300781 C 336.078125 140.820312 335.359375 140.820312 335.359375 141.300781 C 335.359375 141.78125 336.078125 141.78125 336.078125 141.300781 "/>
<path style=" stroke:none;fill-rule:evenodd;fill:rgb(100%,49.803922%,45.098039%);fill-opacity:1;" d="M 338.238281 141.300781 C 338.238281 140.820312 337.519531 140.820312 337.519531 141.300781 C 337.519531 141.78125 338.238281 141.78125 338.238281 141.300781 "/>
<path style=" stroke:none;fill-rule:evenodd;fill:rgb(100%,49.803922%,45.098039%);fill-opacity:1;" d="M 339.679688 143.820312 C 339.679688 143.339844 338.960938 143.339844 338.960938 143.820312 C 338.960938 144.300781 339.679688 144.300781 339.679688 143.820312 "/>
<path style=" stroke:none;fill-rule:evenodd;fill:rgb(100%,49.803922%,45.098039%);fill-opacity:1;" d="M 341.839844 143.820312 C 341.839844 143.339844 341.121094 143.339844 341.121094 143.820312 C 341.121094 144.300781 341.839844 144.300781 341.839844 143.820312 "/>
<path style=" stroke:none;fill-rule:evenodd;fill:rgb(100%,49.803922%,45.098039%);fill-opacity:1;" d="M 350.121094 144.179688 C 350.121094 143.699219 349.398438 143.699219 349.398438 144.179688 C 349.398438 144.660156 350.121094 144.660156 350.121094 144.179688 "/>
<path style=" stroke:none;fill-rule:evenodd;fill:rgb(100%,49.803922%,45.098039%);fill-opacity:1;" d="M 351.199219 35.460938 C 351.199219 34.980469 350.480469 34.980469 350.480469 35.460938 C 350.480469 35.941406 351.199219 35.941406 351.199219 35.460938 "/>
<path style=" stroke:none;fill-rule:evenodd;fill:rgb(100%,49.803922%,45.098039%);fill-opacity:1;" d="M 352.28125 37.621094 C 352.28125 37.140625 351.558594 37.140625 351.558594 37.621094 C 351.558594 38.101562 352.28125 38.101562 352.28125 37.621094 "/>
<path style=" stroke:none;fill-rule:evenodd;fill:rgb(100%,49.803922%,45.098039%);fill-opacity:1;" d="M 352.28125 144.179688 C 352.28125 143.699219 351.558594 143.699219 351.558594 144.179688 C 351.558594 144.660156 352.28125 144.660156 352.28125 144.179688 "/>
<path style=" stroke:none;fill-rule:evenodd;fill:rgb(100%,49.803922%,45.098039%);fill-opacity:1;" d="M 75.078125 77.941406 C 75.078125 76.5 72.917969 76.5 72.917969 77.941406 C 72.917969 79.378906 75.078125 79.378906 75.078125 77.941406 "/>
<path style=" stroke:none;fill-rule:evenodd;fill:rgb(100%,49.803922%,45.098039%);fill-opacity:1;" d="M 82.28125 77.941406 C 82.28125 76.5 80.121094 76.5 80.121094 77.941406 C 80.121094 79.378906 82.28125 79.378906 82.28125 77.941406 "/>
<path style=" stroke:none;fill-rule:evenodd;fill:rgb(100%,49.803922%,45.098039%);fill-opacity:1;" d="M 103.878906 77.941406 C 103.878906 76.5 101.71875 76.5 101.71875 77.941406 C 101.71875 79.378906 103.878906 79.378906 103.878906 77.941406 "/>
<path style=" stroke:none;fill-rule:evenodd;fill:rgb(100%,49.803922%,45.098039%);fill-opacity:1;" d="M 111.078125 77.941406 C 111.078125 76.5 108.917969 76.5 108.917969 77.941406 C 108.917969 79.378906 111.078125 79.378906 111.078125 77.941406 "/>
<path style=" stroke:none;fill-rule:evenodd;fill:rgb(100%,49.803922%,45.098039%);fill-opacity:1;" d="M 75.367188 20.339844 C 75.367188 18.515625 72.632812 18.515625 72.632812 20.339844 C 72.632812 22.164062 75.367188 22.164062 75.367188 20.339844 "/>
<path style=" stroke:none;fill-rule:evenodd;fill:rgb(100%,49.803922%,45.098039%);fill-opacity:1;" d="M 75.367188 27.539062 C 75.367188 25.714844 72.632812 25.714844 72.632812 27.539062 C 72.632812 29.363281 75.367188 29.363281 75.367188 27.539062 "/>
<path style=" stroke:none;fill-rule:evenodd;fill:rgb(100%,49.803922%,45.098039%);fill-opacity:1;" d="M 75.367188 34.738281 C 75.367188 32.917969 72.632812 32.917969 72.632812 34.738281 C 72.632812 36.5625 75.367188 36.5625 75.367188 34.738281 "/>
<path style=" stroke:none;fill-rule:evenodd;fill:rgb(100%,49.803922%,45.098039%);fill-opacity:1;" d="M 75.367188 41.941406 C 75.367188 40.117188 72.632812 40.117188 72.632812 41.941406 C 72.632812 43.765625 75.367188 43.765625 75.367188 41.941406 "/>
<path style=" stroke:none;fill-rule:evenodd;fill:rgb(100%,49.803922%,45.098039%);fill-opacity:1;" d="M 75.367188 49.140625 C 75.367188 47.316406 72.632812 47.316406 72.632812 49.140625 C 72.632812 50.964844 75.367188 50.964844 75.367188 49.140625 "/>
<path style=" stroke:none;fill-rule:evenodd;fill:rgb(100%,49.803922%,45.098039%);fill-opacity:1;" d="M 75.367188 128.339844 C 75.367188 126.515625 72.632812 126.515625 72.632812 128.339844 C 72.632812 130.164062 75.367188 130.164062 75.367188 128.339844 "/>
<path style=" stroke:none;fill-rule:evenodd;fill:rgb(100%,49.803922%,45.098039%);fill-opacity:1;" d="M 75.367188 135.539062 C 75.367188 133.714844 72.632812 133.714844 72.632812 135.539062 C 72.632812 137.363281 75.367188 137.363281 75.367188 135.539062 "/>
<path style=" stroke:none;fill-rule:evenodd;fill:rgb(100%,49.803922%,45.098039%);fill-opacity:1;" d="M 82.566406 20.339844 C 82.566406 18.515625 79.832031 18.515625 79.832031 20.339844 C 79.832031 22.164062 82.566406 22.164062 82.566406 20.339844 "/>
<path style=" stroke:none;fill-rule:evenodd;fill:rgb(100%,49.803922%,45.098039%);fill-opacity:1;" d="M 82.566406 41.941406 C 82.566406 40.117188 79.832031 40.117188 79.832031 41.941406 C 79.832031 43.765625 82.566406 43.765625 82.566406 41.941406 "/>
<path style=" stroke:none;fill-rule:evenodd;fill:rgb(100%,49.803922%,45.098039%);fill-opacity:1;" d="M 82.566406 49.140625 C 82.566406 47.316406 79.832031 47.316406 79.832031 49.140625 C 79.832031 50.964844 82.566406 50.964844 82.566406 49.140625 "/>
<path style=" stroke:none;fill-rule:evenodd;fill:rgb(100%,49.803922%,45.098039%);fill-opacity:1;" d="M 82.566406 128.339844 C 82.566406 126.515625 79.832031 126.515625 79.832031 128.339844 C 79.832031 130.164062 82.566406 130.164062 82.566406 128.339844 "/>
<path style=" stroke:none;fill-rule:evenodd;fill:rgb(100%,49.803922%,45.098039%);fill-opacity:1;" d="M 82.566406 135.539062 C 82.566406 133.714844 79.832031 133.714844 79.832031 135.539062 C 79.832031 137.363281 82.566406 137.363281 82.566406 135.539062 "/>
<path style=" stroke:none;fill-rule:evenodd;fill:rgb(100%,49.803922%,45.098039%);fill-opacity:1;" d="M 125.046875 63.539062 C 125.046875 61.714844 122.3125 61.714844 122.3125 63.539062 C 122.3125 65.363281 125.046875 65.363281 125.046875 63.539062 "/>
<path style=" stroke:none;fill-rule:evenodd;fill:rgb(100%,49.803922%,45.098039%);fill-opacity:1;" d="M 125.046875 70.738281 C 125.046875 68.917969 122.3125 68.917969 122.3125 70.738281 C 122.3125 72.5625 125.046875 72.5625 125.046875 70.738281 "/>
<path style=" stroke:none;fill-rule:evenodd;fill:rgb(100%,49.803922%,45.098039%);fill-opacity:1;" d="M 125.046875 77.941406 C 125.046875 76.117188 122.3125 76.117188 122.3125 77.941406 C 122.3125 79.765625 125.046875 79.765625 125.046875 77.941406 "/>
<path style=" stroke:none;fill-rule:evenodd;fill:rgb(100%,49.803922%,45.098039%);fill-opacity:1;" d="M 125.046875 92.339844 C 125.046875 90.515625 122.3125 90.515625 122.3125 92.339844 C 122.3125 94.164062 125.046875 94.164062 125.046875 92.339844 "/>
<path style=" stroke:none;fill-rule:evenodd;fill:rgb(100%,49.803922%,45.098039%);fill-opacity:1;" d="M 125.046875 149.941406 C 125.046875 148.117188 122.3125 148.117188 122.3125 149.941406 C 122.3125 151.765625 125.046875 151.765625 125.046875 149.941406 "/>
<path style=" stroke:none;fill-rule:evenodd;fill:rgb(100%,49.803922%,45.098039%);fill-opacity:1;" d="M 125.046875 157.140625 C 125.046875 155.316406 122.3125 155.316406 122.3125 157.140625 C 122.3125 158.964844 125.046875 158.964844 125.046875 157.140625 "/>
<path style=" stroke:none;fill-rule:evenodd;fill:rgb(100%,49.803922%,45.098039%);fill-opacity:1;" d="M 125.046875 164.339844 C 125.046875 162.515625 122.3125 162.515625 122.3125 164.339844 C 122.3125 166.164062 125.046875 166.164062 125.046875 164.339844 "/>
<path style=" stroke:none;fill-rule:evenodd;fill:rgb(100%,49.803922%,45.098039%);fill-opacity:1;" d="M 125.046875 171.539062 C 125.046875 169.714844 122.3125 169.714844 122.3125 171.539062 C 122.3125 173.363281 125.046875 173.363281 125.046875 171.539062 "/>
<path style=" stroke:none;fill-rule:evenodd;fill:rgb(100%,49.803922%,45.098039%);fill-opacity:1;" d="M 132.246094 63.539062 C 132.246094 61.714844 129.511719 61.714844 129.511719 63.539062 C 129.511719 65.363281 132.246094 65.363281 132.246094 63.539062 "/>
<path style=" stroke:none;fill-rule:evenodd;fill:rgb(100%,49.803922%,45.098039%);fill-opacity:1;" d="M 132.246094 70.738281 C 132.246094 68.917969 129.511719 68.917969 129.511719 70.738281 C 129.511719 72.5625 132.246094 72.5625 132.246094 70.738281 "/>
<path style=" stroke:none;fill-rule:evenodd;fill:rgb(100%,49.803922%,45.098039%);fill-opacity:1;" d="M 132.246094 77.941406 C 132.246094 76.117188 129.511719 76.117188 129.511719 77.941406 C 129.511719 79.765625 132.246094 79.765625 132.246094 77.941406 "/>
<path style=" stroke:none;fill-rule:evenodd;fill:rgb(100%,49.803922%,45.098039%);fill-opacity:1;" d="M 132.246094 85.140625 C 132.246094 83.316406 129.511719 83.316406 129.511719 85.140625 C 129.511719 86.964844 132.246094 86.964844 132.246094 85.140625 "/>
<path style=" stroke:none;fill-rule:evenodd;fill:rgb(100%,49.803922%,45.098039%);fill-opacity:1;" d="M 132.246094 92.339844 C 132.246094 90.515625 129.511719 90.515625 129.511719 92.339844 C 129.511719 94.164062 132.246094 94.164062 132.246094 92.339844 "/>
<path style=" stroke:none;fill-rule:evenodd;fill:rgb(100%,49.803922%,45.098039%);fill-opacity:1;" d="M 132.246094 99.539062 C 132.246094 97.714844 129.511719 97.714844 129.511719 99.539062 C 129.511719 101.363281 132.246094 101.363281 132.246094 99.539062 "/>
<path style=" stroke:none;fill-rule:evenodd;fill:rgb(100%,49.803922%,45.098039%);fill-opacity:1;" d="M 132.246094 149.941406 C 132.246094 148.117188 129.511719 148.117188 129.511719 149.941406 C 129.511719 151.765625 132.246094 151.765625 132.246094 149.941406 "/>
<path style=" stroke:none;fill-rule:evenodd;fill:rgb(100%,49.803922%,45.098039%);fill-opacity:1;" d="M 132.246094 157.140625 C 132.246094 155.316406 129.511719 155.316406 129.511719 157.140625 C 129.511719 158.964844 132.246094 158.964844 132.246094 157.140625 "/>
<path style=" stroke:none;fill-rule:evenodd;fill:rgb(100%,49.803922%,45.098039%);fill-opacity:1;" d="M 132.246094 164.339844 C 132.246094 162.515625 129.511719 162.515625 129.511719 164.339844 C 129.511719 166.164062 132.246094 166.164062 132.246094 164.339844 "/>
<path style=" stroke:none;fill-rule:evenodd;fill:rgb(100%,49.803922%,45.098039%);fill-opacity:1;" d="M 132.246094 171.539062 C 132.246094 169.714844 129.511719 169.714844 129.511719 171.539062 C 129.511719 173.363281 132.246094 173.363281 132.246094 171.539062 "/>
<path style=" stroke:none;fill-rule:evenodd;fill:rgb(100%,49.803922%,45.098039%);fill-opacity:1;" d="M 132.246094 178.738281 C 132.246094 176.917969 129.511719 176.917969 129.511719 178.738281 C 129.511719 180.5625 132.246094 180.5625 132.246094 178.738281 "/>
<path style=" stroke:none;fill-rule:evenodd;fill:rgb(100%,49.803922%,45.098039%);fill-opacity:1;" d="M 132.246094 185.941406 C 132.246094 184.117188 129.511719 184.117188 129.511719 185.941406 C 129.511719 187.765625 132.246094 187.765625 132.246094 185.941406 "/>
<path style=" stroke:none;fill-rule:evenodd;fill:rgb(100%,49.803922%,45.098039%);fill-opacity:1;" d="M 146.289062 67.140625 C 146.289062 65.316406 143.550781 65.316406 143.550781 67.140625 C 143.550781 68.964844 146.289062 68.964844 146.289062 67.140625 "/>
<path style=" stroke:none;fill-rule:evenodd;fill:rgb(100%,49.803922%,45.098039%);fill-opacity:1;" d="M 146.289062 81.539062 C 146.289062 79.714844 143.550781 79.714844 143.550781 81.539062 C 143.550781 83.363281 146.289062 83.363281 146.289062 81.539062 "/>
<path style=" stroke:none;fill-rule:evenodd;fill:rgb(100%,49.803922%,45.098039%);fill-opacity:1;" d="M 203.167969 27.539062 C 203.167969 25.714844 200.433594 25.714844 200.433594 27.539062 C 200.433594 29.363281 203.167969 29.363281 203.167969 27.539062 "/>
<path style=" stroke:none;fill-rule:evenodd;fill:rgb(100%,49.803922%,45.098039%);fill-opacity:1;" d="M 203.167969 41.941406 C 203.167969 40.117188 200.433594 40.117188 200.433594 41.941406 C 200.433594 43.765625 203.167969 43.765625 203.167969 41.941406 "/>
<path style=" stroke:none;fill-rule:evenodd;fill:rgb(100%,49.803922%,45.098039%);fill-opacity:1;" d="M 203.167969 49.140625 C 203.167969 47.316406 200.433594 47.316406 200.433594 49.140625 C 200.433594 50.964844 203.167969 50.964844 203.167969 49.140625 "/>
<path style=" stroke:none;fill-rule:evenodd;fill:rgb(100%,49.803922%,45.098039%);fill-opacity:1;" d="M 203.167969 128.339844 C 203.167969 126.515625 200.433594 126.515625 200.433594 128.339844 C 200.433594 130.164062 203.167969 130.164062 203.167969 128.339844 "/>
<path style=" stroke:none;fill-rule:evenodd;fill:rgb(100%,49.803922%,45.098039%);fill-opacity:1;" d="M 203.167969 135.539062 C 203.167969 133.714844 200.433594 133.714844 200.433594 135.539062 C 200.433594 137.363281 203.167969 137.363281 203.167969 135.539062 "/>
<path style=" stroke:none;fill-rule:evenodd;fill:rgb(100%,49.803922%,45.098039%);fill-opacity:1;" d="M 210.367188 27.539062 C 210.367188 25.714844 207.632812 25.714844 207.632812 27.539062 C 207.632812 29.363281 210.367188 29.363281 210.367188 27.539062 "/>
<path style=" stroke:none;fill-rule:evenodd;fill:rgb(100%,49.803922%,45.098039%);fill-opacity:1;" d="M 210.367188 41.941406 C 210.367188 40.117188 207.632812 40.117188 207.632812 41.941406 C 207.632812 43.765625 210.367188 43.765625 210.367188 41.941406 "/>
<path style=" stroke:none;fill-rule:evenodd;fill:rgb(100%,49.803922%,45.098039%);fill-opacity:1;" d="M 210.367188 49.140625 C 210.367188 47.316406 207.632812 47.316406 207.632812 49.140625 C 207.632812 50.964844 210.367188 50.964844 210.367188 49.140625 "/>
<path style=" stroke:none;fill-rule:evenodd;fill:rgb(100%,49.803922%,45.098039%);fill-opacity:1;" d="M 210.367188 128.339844 C 210.367188 126.515625 207.632812 126.515625 207.632812 128.339844 C 207.632812 130.164062 210.367188 130.164062 210.367188 128.339844 "/>
<path style=" stroke:none;fill-rule:evenodd;fill:rgb(100%,49.803922%,45.098039%);fill-opacity:1;" d="M 210.367188 135.539062 C 210.367188 133.714844 207.632812 133.714844 207.632812 135.539062 C 207.632812 137.363281 210.367188 137.363281 210.367188 135.539062 "/>
<path style=" stroke:none;fill-rule:evenodd;fill:rgb(100%,49.803922%,45.098039%);fill-opacity:1;" d="M 224.769531 41.941406 C 224.769531 40.117188 222.03125 40.117188 222.03125 41.941406 C 222.03125 43.765625 224.769531 43.765625 224.769531 41.941406 "/>
<path style=" stroke:none;fill-rule:evenodd;fill:rgb(100%,49.803922%,45.098039%);fill-opacity:1;" d="M 224.769531 95.941406 C 224.769531 94.117188 222.03125 94.117188 222.03125 95.941406 C 222.03125 97.765625 224.769531 97.765625 224.769531 95.941406 "/>
<path style=" stroke:none;fill-rule:evenodd;fill:rgb(100%,49.803922%,45.098039%);fill-opacity:1;" d="M 224.769531 128.339844 C 224.769531 126.515625 222.03125 126.515625 222.03125 128.339844 C 222.03125 130.164062 224.769531 130.164062 224.769531 128.339844 "/>
<path style=" stroke:none;fill-rule:evenodd;fill:rgb(100%,49.803922%,45.098039%);fill-opacity:1;" d="M 224.769531 182.339844 C 224.769531 180.515625 222.03125 180.515625 222.03125 182.339844 C 222.03125 184.164062 224.769531 184.164062 224.769531 182.339844 "/>
<path style=" stroke:none;fill-rule:evenodd;fill:rgb(100%,49.803922%,45.098039%);fill-opacity:1;" d="M 231.96875 41.941406 C 231.96875 40.117188 229.230469 40.117188 229.230469 41.941406 C 229.230469 43.765625 231.96875 43.765625 231.96875 41.941406 "/>
<path style=" stroke:none;fill-rule:evenodd;fill:rgb(100%,49.803922%,45.098039%);fill-opacity:1;" d="M 231.96875 95.941406 C 231.96875 94.117188 229.230469 94.117188 229.230469 95.941406 C 229.230469 97.765625 231.96875 97.765625 231.96875 95.941406 "/>
<path style=" stroke:none;fill-rule:evenodd;fill:rgb(100%,49.803922%,45.098039%);fill-opacity:1;" d="M 231.96875 128.339844 C 231.96875 126.515625 229.230469 126.515625 229.230469 128.339844 C 229.230469 130.164062 231.96875 130.164062 231.96875 128.339844 "/>
<path style=" stroke:none;fill-rule:evenodd;fill:rgb(100%,49.803922%,45.098039%);fill-opacity:1;" d="M 231.96875 182.339844 C 231.96875 180.515625 229.230469 180.515625 229.230469 182.339844 C 229.230469 184.164062 231.96875 184.164062 231.96875 182.339844 "/>
<path style=" stroke:none;fill-rule:evenodd;fill:rgb(100%,49.803922%,45.098039%);fill-opacity:1;" d="M 239.167969 41.941406 C 239.167969 40.117188 236.433594 40.117188 236.433594 41.941406 C 236.433594 43.765625 239.167969 43.765625 239.167969 41.941406 "/>
<path style=" stroke:none;fill-rule:evenodd;fill:rgb(100%,49.803922%,45.098039%);fill-opacity:1;" d="M 239.167969 95.941406 C 239.167969 94.117188 236.433594 94.117188 236.433594 95.941406 C 236.433594 97.765625 239.167969 97.765625 239.167969 95.941406 "/>
<path style=" stroke:none;fill-rule:evenodd;fill:rgb(100%,49.803922%,45.098039%);fill-opacity:1;" d="M 239.167969 128.339844 C 239.167969 126.515625 236.433594 126.515625 236.433594 128.339844 C 236.433594 130.164062 239.167969 130.164062 239.167969 128.339844 "/>
<path style=" stroke:none;fill-rule:evenodd;fill:rgb(100%,49.803922%,45.098039%);fill-opacity:1;" d="M 239.167969 182.339844 C 239.167969 180.515625 236.433594 180.515625 236.433594 182.339844 C 236.433594 184.164062 239.167969 184.164062 239.167969 182.339844 "/>
<path style=" stroke:none;fill-rule:evenodd;fill:rgb(100%,49.803922%,45.098039%);fill-opacity:1;" d="M 246.367188 41.941406 C 246.367188 40.117188 243.632812 40.117188 243.632812 41.941406 C 243.632812 43.765625 246.367188 43.765625 246.367188 41.941406 "/>
<path style=" stroke:none;fill-rule:evenodd;fill:rgb(100%,49.803922%,45.098039%);fill-opacity:1;" d="M 246.367188 95.941406 C 246.367188 94.117188 243.632812 94.117188 243.632812 95.941406 C 243.632812 97.765625 246.367188 97.765625 246.367188 95.941406 "/>
<path style=" stroke:none;fill-rule:evenodd;fill:rgb(100%,49.803922%,45.098039%);fill-opacity:1;" d="M 246.367188 128.339844 C 246.367188 126.515625 243.632812 126.515625 243.632812 128.339844 C 243.632812 130.164062 246.367188 130.164062 246.367188 128.339844 "/>
<path style=" stroke:none;fill-rule:evenodd;fill:rgb(100%,49.803922%,45.098039%);fill-opacity:1;" d="M 246.367188 182.339844 C 246.367188 180.515625 243.632812 180.515625 243.632812 182.339844 C 243.632812 184.164062 246.367188 184.164062 246.367188 182.339844 "/>
<path style=" stroke:none;fill-rule:evenodd;fill:rgb(100%,49.803922%,45.098039%);fill-opacity:1;" d="M 253.566406 41.941406 C 253.566406 40.117188 250.832031 40.117188 250.832031 41.941406 C 250.832031 43.765625 253.566406 43.765625 253.566406 41.941406 "/>
<path style=" stroke:none;fill-rule:evenodd;fill:rgb(100%,49.803922%,45.098039%);fill-opacity:1;" d="M 253.566406 95.941406 C 253.566406 94.117188 250.832031 94.117188 250.832031 95.941406 C 250.832031 97.765625 253.566406 97.765625 253.566406 95.941406 "/>
<path style=" stroke:none;fill-rule:evenodd;fill:rgb(100%,49.803922%,45.098039%);fill-opacity:1;" d="M 253.566406 128.339844 C 253.566406 126.515625 250.832031 126.515625 250.832031 128.339844 C 250.832031 130.164062 253.566406 130.164062 253.566406 128.339844 "/>
<path style=" stroke:none;fill-rule:evenodd;fill:rgb(100%,49.803922%,45.098039%);fill-opacity:1;" d="M 253.566406 182.339844 C 253.566406 180.515625 250.832031 180.515625 250.832031 182.339844 C 250.832031 184.164062 253.566406 184.164062 253.566406 182.339844 "/>
<path style=" stroke:none;fill-rule:evenodd;fill:rgb(100%,49.803922%,45.098039%);fill-opacity:1;" d="M 260.769531 41.941406 C 260.769531 40.117188 258.03125 40.117188 258.03125 41.941406 C 258.03125 43.765625 260.769531 43.765625 260.769531 41.941406 "/>
<path style=" stroke:none;fill-rule:evenodd;fill:rgb(100%,49.803922%,45.098039%);fill-opacity:1;" d="M 260.769531 95.941406 C 260.769531 94.117188 258.03125 94.117188 258.03125 95.941406 C 258.03125 97.765625 260.769531 97.765625 260.769531 95.941406 "/>
<path style=" stroke:none;fill-rule:evenodd;fill:rgb(100%,49.803922%,45.098039%);fill-opacity:1;" d="M 260.769531 128.339844 C 260.769531 126.515625 258.03125 126.515625 258.03125 128.339844 C 258.03125 130.164062 260.769531 130.164062 260.769531 128.339844 "/>
<path style=" stroke:none;fill-rule:evenodd;fill:rgb(100%,49.803922%,45.098039%);fill-opacity:1;" d="M 260.769531 182.339844 C 260.769531 180.515625 258.03125 180.515625 258.03125 182.339844 C 258.03125 184.164062 260.769531 184.164062 260.769531 182.339844 "/>
<path style=" stroke:none;fill-rule:evenodd;fill:rgb(100%,49.803922%,45.098039%);fill-opacity:1;" d="M 267.96875 41.941406 C 267.96875 40.117188 265.230469 40.117188 265.230469 41.941406 C 265.230469 43.765625 267.96875 43.765625 267.96875 41.941406 "/>
<path style=" stroke:none;fill-rule:evenodd;fill:rgb(100%,49.803922%,45.098039%);fill-opacity:1;" d="M 267.96875 95.941406 C 267.96875 94.117188 265.230469 94.117188 265.230469 95.941406 C 265.230469 97.765625 267.96875 97.765625 267.96875 95.941406 "/>
<path style=" stroke:none;fill-rule:evenodd;fill:rgb(100%,49.803922%,45.098039%);fill-opacity:1;" d="M 267.96875 128.339844 C 267.96875 126.515625 265.230469 126.515625 265.230469 128.339844 C 265.230469 130.164062 267.96875 130.164062 267.96875 128.339844 "/>
<path style=" stroke:none;fill-rule:evenodd;fill:rgb(100%,49.803922%,45.098039%);fill-opacity:1;" d="M 267.96875 182.339844 C 267.96875 180.515625 265.230469 180.515625 265.230469 182.339844 C 265.230469 184.164062 267.96875 184.164062 267.96875 182.339844 "/>
<path style=" stroke:none;fill-rule:evenodd;fill:rgb(100%,49.803922%,45.098039%);fill-opacity:1;" d="M 275.167969 41.941406 C 275.167969 40.117188 272.433594 40.117188 272.433594 41.941406 C 272.433594 43.765625 275.167969 43.765625 275.167969 41.941406 "/>
<path style=" stroke:none;fill-rule:evenodd;fill:rgb(100%,49.803922%,45.098039%);fill-opacity:1;" d="M 275.167969 95.941406 C 275.167969 94.117188 272.433594 94.117188 272.433594 95.941406 C 272.433594 97.765625 275.167969 97.765625 275.167969 95.941406 "/>
<path style=" stroke:none;fill-rule:evenodd;fill:rgb(100%,49.803922%,45.098039%);fill-opacity:1;" d="M 275.167969 128.339844 C 275.167969 126.515625 272.433594 126.515625 272.433594 128.339844 C 272.433594 130.164062 275.167969 130.164062 275.167969 128.339844 "/>
<path style=" stroke:none;fill-rule:evenodd;fill:rgb(100%,49.803922%,45.098039%);fill-opacity:1;" d="M 275.167969 182.339844 C 275.167969 180.515625 272.433594 180.515625 272.433594 182.339844 C 272.433594 184.164062 275.167969 184.164062 275.167969 182.339844 "/>
<path style=" stroke:none;fill-rule:evenodd;fill:rgb(100%,49.803922%,45.098039%);fill-opacity:1;" d="M 75.800781 85.140625 C 75.800781 82.738281 72.199219 82.738281 72.199219 85.140625 C 72.199219 87.539062 75.800781 87.539062 75.800781 85.140625 "/>
<path style=" stroke:none;fill-rule:evenodd;fill:rgb(100%,49.803922%,45.098039%);fill-opacity:1;" d="M 83 85.140625 C 83 82.738281 79.398438 82.738281 79.398438 85.140625 C 79.398438 87.539062 83 87.539062 83 85.140625 "/>
<path style=" stroke:none;fill-rule:evenodd;fill:rgb(100%,49.803922%,45.098039%);fill-opacity:1;" d="M 119 85.140625 C 119 82.738281 115.398438 82.738281 115.398438 85.140625 C 115.398438 87.539062 119 87.539062 119 85.140625 "/>
<path style=" stroke:none;fill-rule:evenodd;fill:rgb(100%,49.803922%,45.098039%);fill-opacity:1;" d="M 126.199219 85.140625 C 126.199219 82.738281 122.601562 82.738281 122.601562 85.140625 C 122.601562 87.539062 126.199219 87.539062 126.199219 85.140625 "/>
</g>
</svg>
