G04 start of page 6 for group 4 idx 15 *
G04 Title: (unknown), exclude2 *
G04 Creator: pcb 4.2.0 *
G04 CreationDate: Mon Sep 28 02:31:23 2020 UTC *
G04 For: commonadmin *
G04 Format: Gerber/RS-274X *
G04 PCB-Dimensions (mil): 6000.00 7000.00 *
G04 PCB-Coordinate-Origin: lower left *
%MOIN*%
%FSLAX25Y25*%
%LNGROUP4*%
%ADD60C,0.0300*%
%ADD59C,0.0500*%
%ADD58C,0.0130*%
%ADD57C,0.0380*%
%ADD56C,0.0270*%
%ADD55C,0.0800*%
%ADD54C,0.0550*%
%ADD53C,0.0001*%
%ADD52C,0.0200*%
%ADD51C,0.0600*%
%ADD50C,0.0250*%
%ADD49C,0.0100*%
G54D49*X277500Y350000D02*X291000D01*
X277000Y356500D02*X278500D01*
X283000Y352000D01*
X290500D01*
X267500Y350000D02*X270500D01*
X277000Y356500D01*
X267500Y350000D02*Y340000D01*
X277500Y350000D02*Y340000D01*
X279250Y335750D02*X289000Y345500D01*
X261500Y340000D02*X265750Y335750D01*
X279250D01*
X261000Y338000D02*X265000Y334000D01*
X280000D01*
X289500Y343500D01*
X261500Y220000D02*X105000D01*
X104500Y220500D01*
Y231500D01*
X101500Y234500D01*
X98500D01*
X94000Y230000D01*
X90000D01*
X261000Y218000D02*X102000D01*
X100000Y220000D01*
G54D50*X169000Y200000D02*X129000D01*
Y190000D02*X169000D01*
Y180000D02*X129000D01*
X169000Y170000D02*X129000D01*
G54D49*X261500Y340000D02*X105000D01*
X104500Y340500D01*
Y351500D01*
X101500Y354500D01*
X98500D01*
X94000Y350000D01*
X90000D01*
X261000Y338000D02*X102000D01*
X100000Y340000D01*
G54D50*X169000Y320000D02*X129000D01*
X169000Y310000D02*X129000D01*
X169000Y280000D02*X129000D01*
X169000Y290000D02*X130000D01*
X169000Y300000D02*X130000D01*
G54D49*X277500Y110000D02*X291000D01*
X295500Y114500D01*
X267500Y110000D02*X270500D01*
X283000Y112000D02*X290500D01*
X277000Y116500D02*X278500D01*
X283000Y112000D01*
X290500D02*X294750Y116250D01*
X295500Y114500D02*X309000D01*
X313500Y110000D01*
X294750Y116250D02*X317250D01*
X313500Y110000D02*X317500D01*
X317250Y116250D02*X323500Y110000D01*
X327500D01*
X289000Y105500D02*X372000D01*
X289500Y103500D02*X370000D01*
X372000Y105500D02*X372500Y105000D01*
X370000Y103500D02*X370500Y103000D01*
X372500Y105000D02*Y40500D01*
X370500Y103000D02*Y42000D01*
X372500Y40500D02*X371500Y39500D01*
X370500Y42000D02*X370000Y41500D01*
X371500Y39500D02*X352000D01*
X347500Y35000D01*
X370000Y41500D02*X351500D01*
X349500Y39500D01*
X332000D01*
X327500Y35000D01*
X270500Y110000D02*X277000Y116500D01*
X267500Y110000D02*Y100000D01*
X261000Y98000D02*X265000Y94000D01*
X277500Y110000D02*Y100000D01*
X261500D02*X265750Y95750D01*
X279250D01*
X289000Y105500D01*
X265000Y94000D02*X280000D01*
X289500Y103500D01*
X261500Y100000D02*X105000D01*
X261000Y98000D02*X102000D01*
X100000Y100000D01*
X105000D02*X104500Y100500D01*
Y111500D01*
X101500Y114500D01*
X98500D01*
X94000Y110000D01*
X90000D01*
G54D50*X169000Y80000D02*X129000D01*
X169000Y70000D02*X129000D01*
X169000Y60000D02*X129000D01*
X169000Y50000D02*X129000D01*
G54D49*X291000Y350000D02*X295500Y354500D01*
X309000D01*
X313500Y350000D01*
X290500Y352000D02*X294750Y356250D01*
X317250D01*
X323500Y350000D01*
X321000D02*X325500Y345500D01*
X289000D02*X323000D01*
X322500Y343500D02*X289500D01*
X289000Y225500D02*X372000D01*
X372500Y225000D01*
Y160500D01*
X370500Y223000D02*Y162000D01*
X372500Y160500D02*X371500Y159500D01*
X370500Y162000D02*X370000Y161500D01*
X371500Y159500D02*X352000D01*
X370000Y161500D02*X351500D01*
X349500Y159500D01*
X332000D01*
X352000D02*X347500Y155000D01*
X332000Y159500D02*X327500Y155000D01*
X289500Y223500D02*X370000D01*
X370500Y223000D01*
X267500Y230000D02*Y220000D01*
X277500Y230000D02*Y220000D01*
X279250Y215750D02*X289000Y225500D01*
X280000Y214000D02*X289500Y223500D01*
X261500Y220000D02*X265750Y215750D01*
X279250D01*
X261000Y218000D02*X265000Y214000D01*
X280000D01*
X323500Y350000D02*X327500D01*
X313500D02*X321000D01*
X325500Y345500D02*X371500D01*
X372500Y344500D01*
X323000Y345500D02*X325000Y343500D01*
X370000D01*
X370500Y343000D01*
X368000Y341500D02*X324500D01*
X322500Y343500D01*
X372500Y344500D02*Y280000D01*
X370500Y343000D02*Y282000D01*
X370000Y281500D01*
X368500Y284000D02*Y341000D01*
X368000Y341500D01*
X372500Y280000D02*X372000Y279500D01*
X366000D01*
X361500Y275000D01*
X357500D01*
X370000Y281500D02*X354000D01*
X347500Y275000D02*X354000Y281500D01*
X349500Y279500D02*X353250Y283250D01*
X367750D01*
X368500Y284000D01*
X349500Y279500D02*X332000D01*
X327500Y275000D01*
X323500D01*
X347500D02*X343500D01*
X323500D02*X319250Y279250D01*
X305750D01*
X301500Y275000D01*
X297500D01*
X343500D02*X339000Y270500D01*
X326000D01*
X323500Y273000D01*
X319500D01*
X317500Y275000D01*
G54D51*X367500Y155000D03*
X307500Y230000D03*
X317500D03*
X327500D03*
X337500D03*
X347500D03*
X357500D03*
X367500D03*
G54D52*X458499Y208500D03*
X438000Y210000D03*
X461500Y208500D03*
X473000Y208000D03*
X476000D03*
X453500Y212000D03*
X456500D03*
X442500Y218500D03*
X445500D03*
X430000Y210000D03*
X432500Y208000D03*
X435500D03*
X417500D03*
X420500D03*
X423500D03*
X407500Y218000D03*
X410500D03*
X413500D03*
G54D51*X327500Y155000D03*
X337500D03*
X347500D03*
X357500D03*
X297500D03*
X307500D03*
X317500D03*
X267500Y110000D03*
X277500D03*
X267500Y100000D03*
X277500D03*
X337500Y110000D03*
X327500D03*
X317500D03*
X307500D03*
X297500D03*
X367500D03*
X357500D03*
X347500D03*
X367500Y35000D03*
X357500D03*
X347500D03*
X337500D03*
X327500D03*
X317500D03*
X307500D03*
X297500D03*
X100000Y230000D03*
Y220000D03*
X90000D03*
Y230000D03*
Y110000D03*
Y100000D03*
X100000D03*
Y110000D03*
G54D53*G36*
X166000Y83000D02*Y77000D01*
X172000D01*
Y83000D01*
X166000D01*
G37*
G54D51*X169000Y70000D03*
Y60000D03*
Y50000D03*
Y40000D03*
Y30000D03*
X188500Y75000D03*
Y55000D03*
G54D53*G36*
X166000Y203000D02*Y197000D01*
X172000D01*
Y203000D01*
X166000D01*
G37*
G54D51*X169000Y190000D03*
Y180000D03*
Y170000D03*
Y160000D03*
Y150000D03*
G54D53*G36*
X166000Y323000D02*Y317000D01*
X172000D01*
Y323000D01*
X166000D01*
G37*
G54D51*X188500Y315000D03*
X169000Y310000D03*
Y300000D03*
X188500Y295000D03*
X169000Y290000D03*
G54D53*G36*
X156000Y294000D02*Y286000D01*
X164000D01*
Y294000D01*
X156000D01*
G37*
G54D51*X169000Y280000D03*
Y270000D03*
X90000Y350000D03*
Y340000D03*
X100000D03*
Y350000D03*
G54D53*G36*
X87250Y302750D02*Y297250D01*
X92750D01*
Y302750D01*
X87250D01*
G37*
G54D54*X130000Y300000D03*
G54D55*X100000Y290000D03*
G54D54*Y300000D03*
G54D53*G36*
X86000Y294000D02*Y286000D01*
X94000D01*
Y294000D01*
X86000D01*
G37*
G54D55*X150000Y290000D03*
G54D53*G36*
X137250Y302750D02*Y297250D01*
X142750D01*
Y302750D01*
X137250D01*
G37*
G54D51*X297500Y230000D03*
X277500D03*
Y220000D03*
X267500D03*
Y230000D03*
Y350000D03*
Y340000D03*
X277500D03*
Y350000D03*
X297500D03*
Y275000D03*
X367500D03*
Y350000D03*
X357500Y275000D03*
X347500D03*
X337500D03*
X327500D03*
X317500D03*
X307500D03*
X357500Y350000D03*
X347500D03*
X337500D03*
X327500D03*
X317500D03*
X307500D03*
X159000Y280000D03*
Y200000D03*
Y190000D03*
Y180000D03*
Y170000D03*
Y80000D03*
Y70000D03*
Y60000D03*
X100000Y130000D03*
X159000Y300000D03*
G54D52*X189500Y185500D03*
X181000D03*
X189500Y190000D03*
X181000D03*
G54D51*X159000Y320000D03*
Y310000D03*
G54D52*X164500Y368000D03*
Y358000D03*
G54D51*X277500Y370000D03*
G54D52*X291500Y367000D03*
X289000Y374500D03*
G54D51*X267500Y370000D03*
X100000Y380000D03*
X90000Y370000D03*
Y380000D03*
Y360000D03*
G54D52*X150000Y315000D03*
X181500Y307500D03*
X297500Y381000D03*
X321500Y196000D03*
X297500Y93000D03*
X321500Y204000D03*
X352000D03*
Y186000D03*
X357500Y204000D03*
Y196500D03*
G54D51*X267500Y130000D03*
G54D52*X444000Y337000D03*
X474500Y359000D03*
X446500Y339000D03*
X476000Y356000D03*
X376000Y132500D03*
X391000D03*
X394000D03*
X397000D03*
X376000Y126500D03*
Y129500D03*
G54D56*X425500Y153500D03*
Y150000D03*
X430000Y157000D03*
Y160500D03*
Y150000D03*
Y153500D03*
X425500Y157000D03*
Y160500D03*
G54D52*X439000Y237500D03*
X435500D03*
X432000D03*
X428500D03*
Y241000D03*
X432000Y244500D03*
X435500Y248000D03*
X439000Y251500D03*
G54D57*G54D49*G54D57*G54D49*G54D57*G54D49*G54D57*G54D49*G54D57*G54D49*G54D58*G54D49*G54D57*G54D49*G54D57*G54D59*G54D57*G54D60*G54D59*G54D60*G54D59*G54D60*G54D57*M02*
