M48
INCH
T36C0.010
T35C0.038
%
T36
X015000Y031500
X016450Y036800
X016450Y035800
X018150Y030750
X028900Y037450
X029150Y036700
X029750Y038100
X040750Y021800
X041050Y021800
X041350Y021800
X041750Y020800
X042050Y020800
X042350Y020800
X043000Y021000
X043250Y020800
X043550Y020800
X043800Y021000
X044250Y021850
X044550Y021850
X045100Y022550
X045100Y022250
X045350Y021200
X045650Y021200
X045850Y020850
X046150Y020850
X047300Y020800
X047400Y022650
X047600Y020800
X047700Y022650
T35
X009000Y038000
X009000Y037000
X009000Y036000
X009000Y035000
X009000Y034000
X009000Y023000
X009000Y022000
X010000Y038000
X010000Y035000
X010000Y034000
X010000Y023000
X010000Y022000
X015900Y032000
X015900Y031000
X015900Y030000
X015900Y028000
X015900Y020000
X015900Y019000
X015900Y018000
X015900Y017000
X016900Y032000
X016900Y031000
X016900Y030000
X016900Y029000
X016900Y028000
X016900Y027000
X016900Y020000
X016900Y019000
X016900Y018000
X016900Y017000
X016900Y016000
X016900Y015000
X018850Y031500
X018850Y029500
X026750Y037000
X026750Y035000
X026750Y034000
X026750Y023000
X026750Y022000
X027750Y037000
X027750Y035000
X027750Y034000
X027750Y023000
X027750Y022000
X029750Y035000
X029750Y027500
X029750Y023000
X029750Y015500
X030750Y035000
X030750Y027500
X030750Y023000
X030750Y015500
X031750Y035000
X031750Y027500
X031750Y023000
X031750Y015500
X032750Y035000
X032750Y027500
X032750Y023000
X032750Y015500
X033750Y035000
X033750Y027500
X033750Y023000
X033750Y015500
X034750Y035000
X034750Y027500
X034750Y023000
X034750Y015500
X035750Y035000
X035750Y027500
X035750Y023000
X035750Y015500
X036750Y035000
X036750Y027500
X036750Y023000
X036750Y015500
M30
