G04 start of page 2 for group 0 idx 0 *
G04 Title: (unknown), P1_W1 *
G04 Creator: pcb 4.2.0 *
G04 CreationDate: Wed Jul 29 19:47:20 2020 UTC *
G04 For: commonadmin *
G04 Format: Gerber/RS-274X *
G04 PCB-Dimensions (mil): 6000.00 7000.00 *
G04 PCB-Coordinate-Origin: lower left *
%MOIN*%
%FSLAX25Y25*%
%LNTOP*%
%ADD17C,0.0380*%
%ADD16C,0.0001*%
%ADD15C,0.0200*%
%ADD14C,0.0600*%
%ADD13C,0.0100*%
%ADD12C,0.0140*%
%ADD11C,0.0250*%
G54D11*X289000Y374500D02*X284000Y379500D01*
X263500D01*
X252000Y368000D01*
X173500D01*
X166500Y361000D01*
X459500Y360500D02*X453000Y367000D01*
X291500D01*
X458499Y208500D02*Y209599D01*
X459500Y210600D01*
Y360500D02*Y210600D01*
X166500Y361000D02*X103000D01*
X94000Y370000D01*
X90000D01*
Y360000D01*
X170000D02*Y336000D01*
X169000Y335000D01*
X161000D01*
X158500Y332500D01*
Y327500D01*
X153500Y322500D01*
Y318000D01*
X158500Y313000D01*
Y310500D01*
X159000Y310000D01*
Y300000D01*
X287500Y370500D02*X282000Y376000D01*
X265000D01*
X253500Y364500D01*
X174500D01*
X170000Y360000D01*
X463000Y362000D02*X454500Y370500D01*
X287500D01*
G54D12*X461500Y208500D02*X462500D01*
X463000Y209000D01*
G54D11*Y362000D02*Y209000D01*
X471000Y363500D02*X457250Y377250D01*
X296750D01*
X476000Y208000D02*Y209500D01*
X474250Y211250D01*
X472750D01*
X471000Y213000D01*
Y363500D02*Y213000D01*
X296750Y377250D02*X287750Y386250D01*
X260250D01*
X249000Y375000D01*
X171500D01*
X164500Y368000D01*
X166500Y356000D02*Y340500D01*
G54D12*X165500Y357000D02*X164500Y358000D01*
G54D11*X166500Y356000D02*X165000Y357500D01*
X166500Y340500D02*X164500Y338500D01*
X181500Y307500D02*Y280000D01*
X176500Y275000D01*
X164000D01*
X159000Y280000D01*
X164500Y338500D02*X159500D01*
X155000Y334000D01*
Y329000D01*
X150000Y324000D01*
Y315000D01*
X295000Y374000D02*X286000Y383000D01*
X262000D01*
X250500Y371500D01*
X172500D01*
X165500Y364500D01*
X467500Y362000D02*X455500Y374000D01*
X295000D01*
X467500Y212000D02*X471500Y208000D01*
X472500D01*
X467500Y212000D02*Y362000D01*
X165500Y364500D02*X105500D01*
X90000Y380000D01*
G54D13*X102500Y377500D02*X100000Y380000D01*
G54D11*X439500Y244500D02*X433500Y250500D01*
X202500D01*
X180500Y228500D01*
X166500D01*
X147000Y182000D02*X159000Y170000D01*
X166500Y228500D02*X147000Y209000D01*
Y182000D01*
G54D13*X451000Y222500D02*X449500D01*
X445500Y218500D01*
X477000Y226500D02*Y227500D01*
X476000Y228500D01*
G54D11*X438500Y210000D02*X439500Y211000D01*
G54D12*X438000Y210000D02*X438500D01*
G54D13*X476000Y228500D02*Y364500D01*
G54D11*X439500Y244500D02*Y211000D01*
G54D13*X300000Y382000D02*X296500Y385500D01*
X292500D01*
X289000Y389000D01*
X259500D01*
X248000Y377500D01*
X476000Y364500D02*X458500Y382000D01*
X300000D01*
X248000Y377500D02*X102500D01*
G54D11*X429000Y238000D02*X427500Y239500D01*
G54D13*X451000Y225500D02*X449500D01*
X442500Y218500D01*
X474000Y364000D02*X458000Y380000D01*
X298000D01*
X297500Y381000D02*Y380500D01*
X298000Y380000D01*
G54D12*X430000Y210000D02*X429000Y211000D01*
G54D13*X474000Y364000D02*Y226500D01*
G54D11*X429000Y238000D02*Y211000D01*
X427500Y239500D02*X206000D01*
X184500Y218000D01*
X170500D01*
X159000Y206500D01*
Y200000D01*
X432500Y241000D02*X430500Y243000D01*
G54D13*X456500Y212000D02*Y215000D01*
X455500Y216000D01*
G54D12*X432500Y208000D02*Y212500D01*
G54D11*Y241000D02*Y212500D01*
G54D13*X455500Y360500D02*X452500Y363500D01*
X284000D01*
X277500Y370000D01*
X455500Y360500D02*Y216000D01*
G54D11*X154000Y195000D02*X159000Y190000D01*
X430500Y243000D02*X205000D01*
X183500Y221500D01*
X169500D01*
X154000Y206000D01*
Y195000D01*
G54D13*X452000Y361500D02*X453500Y360000D01*
X452000Y361500D02*X175500D01*
X159000Y320000D02*X161000Y322000D01*
Y331000D01*
X162500Y332500D01*
X173250Y333750D02*X172000Y332500D01*
X162500D01*
X173250Y359250D02*X175500Y361500D01*
X173250Y359250D02*Y333750D01*
G54D11*X436000Y243000D02*X432000Y247000D01*
X204000D01*
X150500Y188500D02*X159000Y180000D01*
X204000Y247000D02*X182000Y225000D01*
X168000D01*
X150500Y207500D01*
Y188500D01*
G54D12*X436000Y212500D02*X435500Y212000D01*
Y208000D01*
G54D13*X453500Y212000D02*Y360000D01*
G54D11*X436000Y243000D02*Y212500D01*
G54D14*X327500Y155000D03*
X337500D03*
X347500D03*
X357500D03*
X297500D03*
X307500D03*
X317500D03*
X297500Y230000D03*
X277500D03*
Y220000D03*
X267500D03*
Y230000D03*
X367500Y155000D03*
X307500Y230000D03*
X317500D03*
X327500D03*
X337500D03*
X347500D03*
X357500D03*
X367500D03*
Y275000D03*
X357500D03*
X347500D03*
X337500D03*
X327500D03*
X317500D03*
X307500D03*
X297500D03*
G54D15*X458499Y208500D03*
X438000Y210000D03*
X461500Y208500D03*
X473000Y208000D03*
X476000D03*
X453500Y212000D03*
X456500D03*
X442500Y218500D03*
X445500D03*
X430000Y210000D03*
X432500Y208000D03*
X435500D03*
X417500D03*
X420500D03*
X423500D03*
X407500Y218000D03*
X410500D03*
X413500D03*
G54D16*G36*
X166000Y323000D02*Y317000D01*
X172000D01*
Y323000D01*
X166000D01*
G37*
G54D14*X169000Y310000D03*
Y300000D03*
X188500Y315000D03*
X267500Y350000D03*
Y340000D03*
X277500D03*
Y350000D03*
X169000Y290000D03*
Y280000D03*
Y270000D03*
X188500Y295000D03*
X367500Y350000D03*
X357500D03*
X347500D03*
X337500D03*
X327500D03*
X317500D03*
X307500D03*
X297500D03*
X100000Y230000D03*
Y220000D03*
X90000D03*
Y230000D03*
G54D16*G36*
X166000Y203000D02*Y197000D01*
X172000D01*
Y203000D01*
X166000D01*
G37*
G54D14*X169000Y190000D03*
Y180000D03*
Y170000D03*
Y160000D03*
Y150000D03*
X90000Y350000D03*
Y340000D03*
X100000D03*
Y350000D03*
X159000Y320000D03*
Y310000D03*
G54D15*X164500Y368000D03*
Y358000D03*
X150000Y315000D03*
X181500Y307500D03*
G54D14*X277500Y370000D03*
G54D15*X291500Y367000D03*
X289000Y374500D03*
G54D14*X159000Y280000D03*
Y200000D03*
Y190000D03*
Y180000D03*
Y170000D03*
Y300000D03*
G54D15*X297500Y381000D03*
X474000Y226500D03*
X477000D03*
X451000Y222500D03*
Y225500D03*
G54D14*X267500Y370000D03*
X100000Y380000D03*
X90000D03*
Y370000D03*
Y360000D03*
G54D17*G54D13*G54D17*G54D13*G54D17*G54D13*G54D17*G54D13*G54D17*M02*
