G04 start of page 14 for group -3984 idx -3984 *
G04 Title: (unknown), fab *
G04 Creator: pcb 4.2.0 *
G04 CreationDate: Thu Sep 17 08:22:16 2020 UTC *
G04 For: commonadmin *
G04 Format: Gerber/RS-274X *
G04 PCB-Dimensions (mil): 6000.00 7000.00 *
G04 PCB-Coordinate-Origin: lower left *
%MOIN*%
%FSLAX25Y25*%
%LNFAB*%
%ADD88C,0.0100*%
%ADD87C,0.0075*%
%ADD86C,0.0060*%
%ADD85C,0.0080*%
G54D85*X159200Y290000D02*G75*G03X160800Y290000I800J0D01*G01*
G75*G03X159200Y290000I-800J0D01*G01*
X99200D02*G75*G03X100800Y290000I800J0D01*G01*
G75*G03X99200Y290000I-800J0D01*G01*
X89200D02*G75*G03X90800Y290000I800J0D01*G01*
G75*G03X89200Y290000I-800J0D01*G01*
X149200D02*G75*G03X150800Y290000I800J0D01*G01*
G75*G03X149200Y290000I-800J0D01*G01*
X14200Y711250D02*G75*G03X15800Y711250I800J0D01*G01*
G75*G03X14200Y711250I-800J0D01*G01*
G54D86*X135000Y713500D02*X136500Y710500D01*
X138000Y713500D01*
X136500Y710500D02*Y707500D01*
X139800Y710800D02*X142050D01*
X139800Y707500D02*X142800D01*
X139800Y713500D02*Y707500D01*
Y713500D02*X142800D01*
X147600D02*X148350Y712750D01*
X145350Y713500D02*X147600D01*
X144600Y712750D02*X145350Y713500D01*
X144600Y712750D02*Y711250D01*
X145350Y710500D01*
X147600D01*
X148350Y709750D01*
Y708250D01*
X147600Y707500D02*X148350Y708250D01*
X145350Y707500D02*X147600D01*
X144600Y708250D02*X145350Y707500D01*
X98000Y709750D02*X101000Y713500D01*
X98000Y709750D02*X101750D01*
X101000Y713500D02*Y707500D01*
X45000Y708250D02*X45750Y707500D01*
X45000Y712750D02*Y708250D01*
Y712750D02*X45750Y713500D01*
X47250D01*
X48000Y712750D01*
Y708250D01*
X47250Y707500D02*X48000Y708250D01*
X45750Y707500D02*X47250D01*
X45000Y709000D02*X48000Y712000D01*
X49800Y707500D02*X50550D01*
X52350Y708250D02*X53100Y707500D01*
X52350Y712750D02*Y708250D01*
Y712750D02*X53100Y713500D01*
X54600D01*
X55350Y712750D01*
Y708250D01*
X54600Y707500D02*X55350Y708250D01*
X53100Y707500D02*X54600D01*
X52350Y709000D02*X55350Y712000D01*
X57150Y713500D02*X60150D01*
X57150D02*Y710500D01*
X57900Y711250D01*
X59400D01*
X60150Y710500D01*
Y708250D01*
X59400Y707500D02*X60150Y708250D01*
X57900Y707500D02*X59400D01*
X57150Y708250D02*X57900Y707500D01*
X61950Y708250D02*X62700Y707500D01*
X61950Y712750D02*Y708250D01*
Y712750D02*X62700Y713500D01*
X64200D01*
X64950Y712750D01*
Y708250D01*
X64200Y707500D02*X64950Y708250D01*
X62700Y707500D02*X64200D01*
X61950Y709000D02*X64950Y712000D01*
X296300Y156200D02*X298700Y153800D01*
X296300D02*X298700Y156200D01*
X306300D02*X308700Y153800D01*
X306300D02*X308700Y156200D01*
X316300D02*X318700Y153800D01*
X316300D02*X318700Y156200D01*
X326300D02*X328700Y153800D01*
X326300D02*X328700Y156200D01*
X336300D02*X338700Y153800D01*
X336300D02*X338700Y156200D01*
X346300D02*X348700Y153800D01*
X346300D02*X348700Y156200D01*
X356300D02*X358700Y153800D01*
X356300D02*X358700Y156200D01*
X366300D02*X368700Y153800D01*
X366300D02*X368700Y156200D01*
X296300Y231200D02*X298700Y228800D01*
X296300D02*X298700Y231200D01*
X306300D02*X308700Y228800D01*
X306300D02*X308700Y231200D01*
X316300D02*X318700Y228800D01*
X316300D02*X318700Y231200D01*
X326300D02*X328700Y228800D01*
X326300D02*X328700Y231200D01*
X336300D02*X338700Y228800D01*
X336300D02*X338700Y231200D01*
X346300D02*X348700Y228800D01*
X346300D02*X348700Y231200D01*
X356300D02*X358700Y228800D01*
X356300D02*X358700Y231200D01*
X366300D02*X368700Y228800D01*
X366300D02*X368700Y231200D01*
X276300D02*X278700Y228800D01*
X276300D02*X278700Y231200D01*
X276300Y221200D02*X278700Y218800D01*
X276300D02*X278700Y221200D01*
X266300D02*X268700Y218800D01*
X266300D02*X268700Y221200D01*
X266300Y231200D02*X268700Y228800D01*
X266300D02*X268700Y231200D01*
X98800D02*X101200Y228800D01*
X98800D02*X101200Y231200D01*
X98800Y221200D02*X101200Y218800D01*
X98800D02*X101200Y221200D01*
X88800D02*X91200Y218800D01*
X88800D02*X91200Y221200D01*
X88800Y231200D02*X91200Y228800D01*
X88800D02*X91200Y231200D01*
X167800Y201200D02*X170200Y198800D01*
X167800D02*X170200Y201200D01*
X167800Y191200D02*X170200Y188800D01*
X167800D02*X170200Y191200D01*
X167800Y181200D02*X170200Y178800D01*
X167800D02*X170200Y181200D01*
X167800Y171200D02*X170200Y168800D01*
X167800D02*X170200Y171200D01*
X167800Y161200D02*X170200Y158800D01*
X167800D02*X170200Y161200D01*
X167800Y151200D02*X170200Y148800D01*
X167800D02*X170200Y151200D01*
X167800Y321200D02*X170200Y318800D01*
X167800D02*X170200Y321200D01*
X167800Y311200D02*X170200Y308800D01*
X167800D02*X170200Y311200D01*
X167800Y301200D02*X170200Y298800D01*
X167800D02*X170200Y301200D01*
X167800Y291200D02*X170200Y288800D01*
X167800D02*X170200Y291200D01*
X167800Y281200D02*X170200Y278800D01*
X167800D02*X170200Y281200D01*
X167800Y271200D02*X170200Y268800D01*
X167800D02*X170200Y271200D01*
X88800Y351200D02*X91200Y348800D01*
X88800D02*X91200Y351200D01*
X88800Y341200D02*X91200Y338800D01*
X88800D02*X91200Y341200D01*
X98800D02*X101200Y338800D01*
X98800D02*X101200Y341200D01*
X98800Y351200D02*X101200Y348800D01*
X98800D02*X101200Y351200D01*
X266300D02*X268700Y348800D01*
X266300D02*X268700Y351200D01*
X266300Y341200D02*X268700Y338800D01*
X266300D02*X268700Y341200D01*
X276300D02*X278700Y338800D01*
X276300D02*X278700Y341200D01*
X276300Y351200D02*X278700Y348800D01*
X276300D02*X278700Y351200D01*
X187300Y316200D02*X189700Y313800D01*
X187300D02*X189700Y316200D01*
X187300Y296200D02*X189700Y293800D01*
X187300D02*X189700Y296200D01*
X366300Y276200D02*X368700Y273800D01*
X366300D02*X368700Y276200D01*
X356300D02*X358700Y273800D01*
X356300D02*X358700Y276200D01*
X346300D02*X348700Y273800D01*
X346300D02*X348700Y276200D01*
X336300D02*X338700Y273800D01*
X336300D02*X338700Y276200D01*
X326300D02*X328700Y273800D01*
X326300D02*X328700Y276200D01*
X316300D02*X318700Y273800D01*
X316300D02*X318700Y276200D01*
X306300D02*X308700Y273800D01*
X306300D02*X308700Y276200D01*
X296300D02*X298700Y273800D01*
X296300D02*X298700Y276200D01*
X366300Y351200D02*X368700Y348800D01*
X366300D02*X368700Y351200D01*
X356300D02*X358700Y348800D01*
X356300D02*X358700Y351200D01*
X346300D02*X348700Y348800D01*
X346300D02*X348700Y351200D01*
X336300D02*X338700Y348800D01*
X336300D02*X338700Y351200D01*
X326300D02*X328700Y348800D01*
X326300D02*X328700Y351200D01*
X316300D02*X318700Y348800D01*
X316300D02*X318700Y351200D01*
X306300D02*X308700Y348800D01*
X306300D02*X308700Y351200D01*
X296300D02*X298700Y348800D01*
X296300D02*X298700Y351200D01*
X276300Y371200D02*X278700Y368800D01*
X276300D02*X278700Y371200D01*
X157800Y321200D02*X160200Y318800D01*
X157800D02*X160200Y321200D01*
X157800Y311200D02*X160200Y308800D01*
X157800D02*X160200Y311200D01*
X157800Y281200D02*X160200Y278800D01*
X157800D02*X160200Y281200D01*
X266300Y371200D02*X268700Y368800D01*
X266300D02*X268700Y371200D01*
X98800Y381200D02*X101200Y378800D01*
X98800D02*X101200Y381200D01*
X157800Y201200D02*X160200Y198800D01*
X157800D02*X160200Y201200D01*
X157800Y191200D02*X160200Y188800D01*
X157800D02*X160200Y191200D01*
X157800Y181200D02*X160200Y178800D01*
X157800D02*X160200Y181200D01*
X157800Y171200D02*X160200Y168800D01*
X157800D02*X160200Y171200D01*
X88800Y371200D02*X91200Y368800D01*
X88800D02*X91200Y371200D01*
X88800Y381200D02*X91200Y378800D01*
X88800D02*X91200Y381200D01*
X88800Y361200D02*X91200Y358800D01*
X88800D02*X91200Y361200D01*
X157800Y301200D02*X160200Y298800D01*
X157800D02*X160200Y301200D01*
X13800Y727450D02*X16200Y725050D01*
X13800D02*X16200Y727450D01*
X135000Y728500D02*X136500Y725500D01*
X138000Y728500D01*
X136500Y725500D02*Y722500D01*
X139800Y725800D02*X142050D01*
X139800Y722500D02*X142800D01*
X139800Y728500D02*Y722500D01*
Y728500D02*X142800D01*
X147600D02*X148350Y727750D01*
X145350Y728500D02*X147600D01*
X144600Y727750D02*X145350Y728500D01*
X144600Y727750D02*Y726250D01*
X145350Y725500D01*
X147600D01*
X148350Y724750D01*
Y723250D01*
X147600Y722500D02*X148350Y723250D01*
X145350Y722500D02*X147600D01*
X144600Y723250D02*X145350Y722500D01*
X98750D02*X101750Y728500D01*
X98000D02*X101750D01*
X105800D02*X106550Y727750D01*
X104300Y728500D02*X105800D01*
X103550Y727750D02*X104300Y728500D01*
X103550Y727750D02*Y723250D01*
X104300Y722500D01*
X105800Y725800D02*X106550Y725050D01*
X103550Y725800D02*X105800D01*
X104300Y722500D02*X105800D01*
X106550Y723250D01*
Y725050D02*Y723250D01*
X45000D02*X45750Y722500D01*
X45000Y727750D02*Y723250D01*
Y727750D02*X45750Y728500D01*
X47250D01*
X48000Y727750D01*
Y723250D01*
X47250Y722500D02*X48000Y723250D01*
X45750Y722500D02*X47250D01*
X45000Y724000D02*X48000Y727000D01*
X49800Y722500D02*X50550D01*
X52350Y723250D02*X53100Y722500D01*
X52350Y727750D02*Y723250D01*
Y727750D02*X53100Y728500D01*
X54600D01*
X55350Y727750D01*
Y723250D01*
X54600Y722500D02*X55350Y723250D01*
X53100Y722500D02*X54600D01*
X52350Y724000D02*X55350Y727000D01*
X57150Y727750D02*X57900Y728500D01*
X59400D01*
X60150Y727750D01*
X59400Y722500D02*X60150Y723250D01*
X57900Y722500D02*X59400D01*
X57150Y723250D02*X57900Y722500D01*
Y725800D02*X59400D01*
X60150Y727750D02*Y726550D01*
Y725050D02*Y723250D01*
Y725050D02*X59400Y725800D01*
X60150Y726550D02*X59400Y725800D01*
X61950Y723250D02*X62700Y722500D01*
X61950Y724450D02*Y723250D01*
Y724450D02*X63000Y725500D01*
X63900D01*
X64950Y724450D01*
Y723250D01*
X64200Y722500D02*X64950Y723250D01*
X62700Y722500D02*X64200D01*
X61950Y726550D02*X63000Y725500D01*
X61950Y727750D02*Y726550D01*
Y727750D02*X62700Y728500D01*
X64200D01*
X64950Y727750D01*
Y726550D01*
X63900Y725500D02*X64950Y726550D01*
X90000Y301600D02*Y298400D01*
X88400Y300000D02*X91600D01*
X130000Y301600D02*Y298400D01*
X128400Y300000D02*X131600D01*
X140000Y301600D02*Y298400D01*
X138400Y300000D02*X141600D01*
X100000Y301600D02*Y298400D01*
X98400Y300000D02*X101600D01*
X15000Y742850D02*Y739650D01*
X13400Y741250D02*X16600D01*
X135000Y743500D02*X136500Y740500D01*
X138000Y743500D01*
X136500Y740500D02*Y737500D01*
X139800Y740800D02*X142050D01*
X139800Y737500D02*X142800D01*
X139800Y743500D02*Y737500D01*
Y743500D02*X142800D01*
X147600D02*X148350Y742750D01*
X145350Y743500D02*X147600D01*
X144600Y742750D02*X145350Y743500D01*
X144600Y742750D02*Y741250D01*
X145350Y740500D01*
X147600D01*
X148350Y739750D01*
Y738250D01*
X147600Y737500D02*X148350Y738250D01*
X145350Y737500D02*X147600D01*
X144600Y738250D02*X145350Y737500D01*
X98000Y739750D02*X101000Y743500D01*
X98000Y739750D02*X101750D01*
X101000Y743500D02*Y737500D01*
X45000Y738250D02*X45750Y737500D01*
X45000Y742750D02*Y738250D01*
Y742750D02*X45750Y743500D01*
X47250D01*
X48000Y742750D01*
Y738250D01*
X47250Y737500D02*X48000Y738250D01*
X45750Y737500D02*X47250D01*
X45000Y739000D02*X48000Y742000D01*
X49800Y737500D02*X50550D01*
X52350Y738250D02*X53100Y737500D01*
X52350Y742750D02*Y738250D01*
Y742750D02*X53100Y743500D01*
X54600D01*
X55350Y742750D01*
Y738250D01*
X54600Y737500D02*X55350Y738250D01*
X53100Y737500D02*X54600D01*
X52350Y739000D02*X55350Y742000D01*
X57150Y742750D02*X57900Y743500D01*
X59400D01*
X60150Y742750D01*
X59400Y737500D02*X60150Y738250D01*
X57900Y737500D02*X59400D01*
X57150Y738250D02*X57900Y737500D01*
Y740800D02*X59400D01*
X60150Y742750D02*Y741550D01*
Y740050D02*Y738250D01*
Y740050D02*X59400Y740800D01*
X60150Y741550D02*X59400Y740800D01*
X61950Y738250D02*X62700Y737500D01*
X61950Y742750D02*Y738250D01*
Y742750D02*X62700Y743500D01*
X64200D01*
X64950Y742750D01*
Y738250D01*
X64200Y737500D02*X64950Y738250D01*
X62700Y737500D02*X64200D01*
X61950Y739000D02*X64950Y742000D01*
X458499Y208500D02*Y206900D01*
Y208500D02*X459886Y209300D01*
X458499Y208500D02*X457113Y209300D01*
X461500Y208500D02*Y206900D01*
Y208500D02*X462887Y209300D01*
X461500Y208500D02*X460113Y209300D01*
X453500Y212000D02*Y210400D01*
Y212000D02*X454887Y212800D01*
X453500Y212000D02*X452113Y212800D01*
X456500Y212000D02*Y210400D01*
Y212000D02*X457887Y212800D01*
X456500Y212000D02*X455113Y212800D01*
X442500Y218500D02*Y216900D01*
Y218500D02*X443887Y219300D01*
X442500Y218500D02*X441113Y219300D01*
X445500Y218500D02*Y216900D01*
Y218500D02*X446887Y219300D01*
X445500Y218500D02*X444113Y219300D01*
X430000Y210000D02*Y208400D01*
Y210000D02*X431387Y210800D01*
X430000Y210000D02*X428613Y210800D01*
X432500Y208000D02*Y206400D01*
Y208000D02*X433887Y208800D01*
X432500Y208000D02*X431113Y208800D01*
X435500Y208000D02*Y206400D01*
Y208000D02*X436887Y208800D01*
X435500Y208000D02*X434113Y208800D01*
X438000Y210000D02*Y208400D01*
Y210000D02*X439387Y210800D01*
X438000Y210000D02*X436613Y210800D01*
X473000Y208000D02*Y206400D01*
Y208000D02*X474387Y208800D01*
X473000Y208000D02*X471613Y208800D01*
X476000Y208000D02*Y206400D01*
Y208000D02*X477387Y208800D01*
X476000Y208000D02*X474613Y208800D01*
X417500Y208000D02*Y206400D01*
Y208000D02*X418887Y208800D01*
X417500Y208000D02*X416113Y208800D01*
X420500Y208000D02*Y206400D01*
Y208000D02*X421887Y208800D01*
X420500Y208000D02*X419113Y208800D01*
X423500Y208000D02*Y206400D01*
Y208000D02*X424887Y208800D01*
X423500Y208000D02*X422113Y208800D01*
X407500Y218000D02*Y216400D01*
Y218000D02*X408887Y218800D01*
X407500Y218000D02*X406113Y218800D01*
X410500Y218000D02*Y216400D01*
Y218000D02*X411887Y218800D01*
X410500Y218000D02*X409113Y218800D01*
X413500Y218000D02*Y216400D01*
Y218000D02*X414887Y218800D01*
X413500Y218000D02*X412113Y218800D01*
X291500Y367000D02*Y365400D01*
Y367000D02*X292887Y367800D01*
X291500Y367000D02*X290113Y367800D01*
X289000Y374500D02*Y372900D01*
Y374500D02*X290387Y375300D01*
X289000Y374500D02*X287613Y375300D01*
X164500Y368000D02*Y366400D01*
Y368000D02*X165887Y368800D01*
X164500Y368000D02*X163113Y368800D01*
X164500Y358000D02*Y356400D01*
Y358000D02*X165887Y358800D01*
X164500Y358000D02*X163113Y358800D01*
X297500Y381000D02*Y379400D01*
Y381000D02*X298887Y381800D01*
X297500Y381000D02*X296113Y381800D01*
X321500Y196000D02*Y194400D01*
Y196000D02*X322887Y196800D01*
X321500Y196000D02*X320113Y196800D01*
X150000Y315000D02*Y313400D01*
Y315000D02*X151387Y315800D01*
X150000Y315000D02*X148613Y315800D01*
X181500Y307500D02*Y305900D01*
Y307500D02*X182887Y308300D01*
X181500Y307500D02*X180113Y308300D01*
X352000Y204000D02*Y202400D01*
Y204000D02*X353387Y204800D01*
X352000Y204000D02*X350613Y204800D01*
X352000Y186000D02*Y184400D01*
Y186000D02*X353387Y186800D01*
X352000Y186000D02*X350613Y186800D01*
X189500Y185500D02*Y183900D01*
Y185500D02*X190887Y186300D01*
X189500Y185500D02*X188113Y186300D01*
X181000Y185500D02*Y183900D01*
Y185500D02*X182387Y186300D01*
X181000Y185500D02*X179613Y186300D01*
X357500Y204000D02*Y202400D01*
Y204000D02*X358887Y204800D01*
X357500Y204000D02*X356113Y204800D01*
X357500Y196500D02*Y194900D01*
Y196500D02*X358887Y197300D01*
X357500Y196500D02*X356113Y197300D01*
X189500Y190000D02*Y188400D01*
Y190000D02*X190887Y190800D01*
X189500Y190000D02*X188113Y190800D01*
X181000Y190000D02*Y188400D01*
Y190000D02*X182387Y190800D01*
X181000Y190000D02*X179613Y190800D01*
X321500Y204000D02*Y202400D01*
Y204000D02*X322887Y204800D01*
X321500Y204000D02*X320113Y204800D01*
X439000Y237500D02*Y235900D01*
Y237500D02*X440387Y238300D01*
X439000Y237500D02*X437613Y238300D01*
X435500Y237500D02*Y235900D01*
Y237500D02*X436887Y238300D01*
X435500Y237500D02*X434113Y238300D01*
X432000Y237500D02*Y235900D01*
Y237500D02*X433387Y238300D01*
X432000Y237500D02*X430613Y238300D01*
X428500Y237500D02*Y235900D01*
Y237500D02*X429887Y238300D01*
X428500Y237500D02*X427113Y238300D01*
X439000Y248000D02*Y246400D01*
Y248000D02*X440387Y248800D01*
X439000Y248000D02*X437613Y248800D01*
X435500Y251500D02*Y249900D01*
Y251500D02*X436887Y252300D01*
X435500Y251500D02*X434113Y252300D01*
X432000Y241000D02*Y239400D01*
Y241000D02*X433387Y241800D01*
X432000Y241000D02*X430613Y241800D01*
X428500Y244500D02*Y242900D01*
Y244500D02*X429887Y245300D01*
X428500Y244500D02*X427113Y245300D01*
X444000Y337000D02*Y335400D01*
Y337000D02*X445387Y337800D01*
X444000Y337000D02*X442613Y337800D01*
X474500Y359000D02*Y357400D01*
Y359000D02*X475887Y359800D01*
X474500Y359000D02*X473113Y359800D01*
X446500Y339000D02*Y337400D01*
Y339000D02*X447887Y339800D01*
X446500Y339000D02*X445113Y339800D01*
X476000Y356000D02*Y354400D01*
Y356000D02*X477387Y356800D01*
X476000Y356000D02*X474613Y356800D01*
X15000Y756250D02*Y754650D01*
Y756250D02*X16387Y757050D01*
X15000Y756250D02*X13613Y757050D01*
X135000Y758500D02*X136500Y755500D01*
X138000Y758500D01*
X136500Y755500D02*Y752500D01*
X139800Y755800D02*X142050D01*
X139800Y752500D02*X142800D01*
X139800Y758500D02*Y752500D01*
Y758500D02*X142800D01*
X147600D02*X148350Y757750D01*
X145350Y758500D02*X147600D01*
X144600Y757750D02*X145350Y758500D01*
X144600Y757750D02*Y756250D01*
X145350Y755500D01*
X147600D01*
X148350Y754750D01*
Y753250D01*
X147600Y752500D02*X148350Y753250D01*
X145350Y752500D02*X147600D01*
X144600Y753250D02*X145350Y752500D01*
X98000Y754750D02*X101000Y758500D01*
X98000Y754750D02*X101750D01*
X101000Y758500D02*Y752500D01*
X104300D02*X107300Y758500D01*
X103550D02*X107300D01*
X45000Y753250D02*X45750Y752500D01*
X45000Y757750D02*Y753250D01*
Y757750D02*X45750Y758500D01*
X47250D01*
X48000Y757750D01*
Y753250D01*
X47250Y752500D02*X48000Y753250D01*
X45750Y752500D02*X47250D01*
X45000Y754000D02*X48000Y757000D01*
X49800Y752500D02*X50550D01*
X52350Y753250D02*X53100Y752500D01*
X52350Y757750D02*Y753250D01*
Y757750D02*X53100Y758500D01*
X54600D01*
X55350Y757750D01*
Y753250D01*
X54600Y752500D02*X55350Y753250D01*
X53100Y752500D02*X54600D01*
X52350Y754000D02*X55350Y757000D01*
X57150Y757300D02*X58350Y758500D01*
Y752500D01*
X57150D02*X59400D01*
X61200Y753250D02*X61950Y752500D01*
X61200Y757750D02*Y753250D01*
Y757750D02*X61950Y758500D01*
X63450D01*
X64200Y757750D01*
Y753250D01*
X63450Y752500D02*X64200Y753250D01*
X61950Y752500D02*X63450D01*
X61200Y754000D02*X64200Y757000D01*
X3000Y773500D02*X3750Y772750D01*
X750Y773500D02*X3000D01*
X0Y772750D02*X750Y773500D01*
X0Y772750D02*Y771250D01*
X750Y770500D01*
X3000D01*
X3750Y769750D01*
Y768250D01*
X3000Y767500D02*X3750Y768250D01*
X750Y767500D02*X3000D01*
X0Y768250D02*X750Y767500D01*
X5550Y770500D02*Y768250D01*
X6300Y767500D01*
X8550Y770500D02*Y766000D01*
X7800Y765250D02*X8550Y766000D01*
X6300Y765250D02*X7800D01*
X5550Y766000D02*X6300Y765250D01*
Y767500D02*X7800D01*
X8550Y768250D01*
X11100Y769750D02*Y767500D01*
Y769750D02*X11850Y770500D01*
X12600D01*
X13350Y769750D01*
Y767500D01*
Y769750D02*X14100Y770500D01*
X14850D01*
X15600Y769750D01*
Y767500D01*
X10350Y770500D02*X11100Y769750D01*
X17400Y773500D02*Y767500D01*
Y768250D02*X18150Y767500D01*
X19650D01*
X20400Y768250D01*
Y769750D02*Y768250D01*
X19650Y770500D02*X20400Y769750D01*
X18150Y770500D02*X19650D01*
X17400Y769750D02*X18150Y770500D01*
X22200Y769750D02*Y768250D01*
Y769750D02*X22950Y770500D01*
X24450D01*
X25200Y769750D01*
Y768250D01*
X24450Y767500D02*X25200Y768250D01*
X22950Y767500D02*X24450D01*
X22200Y768250D02*X22950Y767500D01*
X27000Y773500D02*Y768250D01*
X27750Y767500D01*
X0Y764250D02*X29250D01*
X41750Y773500D02*Y767500D01*
X43700Y773500D02*X44750Y772450D01*
Y768550D01*
X43700Y767500D02*X44750Y768550D01*
X41000Y767500D02*X43700D01*
X41000Y773500D02*X43700D01*
G54D87*X46550Y772000D02*Y771850D01*
G54D86*Y769750D02*Y767500D01*
X50300Y770500D02*X51050Y769750D01*
X48800Y770500D02*X50300D01*
X48050Y769750D02*X48800Y770500D01*
X48050Y769750D02*Y768250D01*
X48800Y767500D01*
X51050Y770500D02*Y768250D01*
X51800Y767500D01*
X48800D02*X50300D01*
X51050Y768250D01*
X54350Y769750D02*Y767500D01*
Y769750D02*X55100Y770500D01*
X55850D01*
X56600Y769750D01*
Y767500D01*
Y769750D02*X57350Y770500D01*
X58100D01*
X58850Y769750D01*
Y767500D01*
X53600Y770500D02*X54350Y769750D01*
X60650Y767500D02*X61400D01*
X65900Y768250D02*X66650Y767500D01*
X65900Y772750D02*X66650Y773500D01*
X65900Y772750D02*Y768250D01*
X68450Y773500D02*X69950D01*
X69200D02*Y767500D01*
X68450D02*X69950D01*
X72500Y769750D02*Y767500D01*
Y769750D02*X73250Y770500D01*
X74000D01*
X74750Y769750D01*
Y767500D01*
X71750Y770500D02*X72500Y769750D01*
X77300Y770500D02*X79550D01*
X76550Y769750D02*X77300Y770500D01*
X76550Y769750D02*Y768250D01*
X77300Y767500D01*
X79550D01*
X81350Y773500D02*Y767500D01*
Y769750D02*X82100Y770500D01*
X83600D01*
X84350Y769750D01*
Y767500D01*
X86150Y773500D02*X86900Y772750D01*
Y768250D01*
X86150Y767500D02*X86900Y768250D01*
X41000Y764250D02*X88700D01*
X96050Y767500D02*X98000D01*
X95000Y768550D02*X96050Y767500D01*
X95000Y772450D02*Y768550D01*
Y772450D02*X96050Y773500D01*
X98000D01*
X99800Y769750D02*Y768250D01*
Y769750D02*X100550Y770500D01*
X102050D01*
X102800Y769750D01*
Y768250D01*
X102050Y767500D02*X102800Y768250D01*
X100550Y767500D02*X102050D01*
X99800Y768250D02*X100550Y767500D01*
X104600Y770500D02*Y768250D01*
X105350Y767500D01*
X106850D01*
X107600Y768250D01*
Y770500D02*Y768250D01*
X110150Y769750D02*Y767500D01*
Y769750D02*X110900Y770500D01*
X111650D01*
X112400Y769750D01*
Y767500D01*
X109400Y770500D02*X110150Y769750D01*
X114950Y773500D02*Y768250D01*
X115700Y767500D01*
X114200Y771250D02*X115700D01*
X95000Y764250D02*X117200D01*
X130750Y773500D02*Y767500D01*
X130000Y773500D02*X133000D01*
X133750Y772750D01*
Y771250D01*
X133000Y770500D02*X133750Y771250D01*
X130750Y770500D02*X133000D01*
X135550Y773500D02*Y768250D01*
X136300Y767500D01*
X140050Y770500D02*X140800Y769750D01*
X138550Y770500D02*X140050D01*
X137800Y769750D02*X138550Y770500D01*
X137800Y769750D02*Y768250D01*
X138550Y767500D01*
X140800Y770500D02*Y768250D01*
X141550Y767500D01*
X138550D02*X140050D01*
X140800Y768250D01*
X144100Y773500D02*Y768250D01*
X144850Y767500D01*
X143350Y771250D02*X144850D01*
X147100Y767500D02*X149350D01*
X146350Y768250D02*X147100Y767500D01*
X146350Y769750D02*Y768250D01*
Y769750D02*X147100Y770500D01*
X148600D01*
X149350Y769750D01*
X146350Y769000D02*X149350D01*
Y769750D02*Y769000D01*
X154150Y773500D02*Y767500D01*
X153400D02*X154150Y768250D01*
X151900Y767500D02*X153400D01*
X151150Y768250D02*X151900Y767500D01*
X151150Y769750D02*Y768250D01*
Y769750D02*X151900Y770500D01*
X153400D01*
X154150Y769750D01*
X157450Y770500D02*Y769750D01*
Y768250D02*Y767500D01*
X155950Y772750D02*Y772000D01*
Y772750D02*X156700Y773500D01*
X158200D01*
X158950Y772750D01*
Y772000D01*
X157450Y770500D02*X158950Y772000D01*
X130000Y764250D02*X160750D01*
X0Y788500D02*X3000D01*
X1500D02*Y782500D01*
X4800Y788500D02*Y782500D01*
Y784750D02*X5550Y785500D01*
X7050D01*
X7800Y784750D01*
Y782500D01*
X10350D02*X12600D01*
X9600Y783250D02*X10350Y782500D01*
X9600Y784750D02*Y783250D01*
Y784750D02*X10350Y785500D01*
X11850D01*
X12600Y784750D01*
X9600Y784000D02*X12600D01*
Y784750D02*Y784000D01*
X15150Y784750D02*Y782500D01*
Y784750D02*X15900Y785500D01*
X17400D01*
X14400D02*X15150Y784750D01*
X19950Y782500D02*X22200D01*
X19200Y783250D02*X19950Y782500D01*
X19200Y784750D02*Y783250D01*
Y784750D02*X19950Y785500D01*
X21450D01*
X22200Y784750D01*
X19200Y784000D02*X22200D01*
Y784750D02*Y784000D01*
X28950Y785500D02*X29700Y784750D01*
X27450Y785500D02*X28950D01*
X26700Y784750D02*X27450Y785500D01*
X26700Y784750D02*Y783250D01*
X27450Y782500D01*
X29700Y785500D02*Y783250D01*
X30450Y782500D01*
X27450D02*X28950D01*
X29700Y783250D01*
X33000Y784750D02*Y782500D01*
Y784750D02*X33750Y785500D01*
X35250D01*
X32250D02*X33000Y784750D01*
X37800Y782500D02*X40050D01*
X37050Y783250D02*X37800Y782500D01*
X37050Y784750D02*Y783250D01*
Y784750D02*X37800Y785500D01*
X39300D01*
X40050Y784750D01*
X37050Y784000D02*X40050D01*
Y784750D02*Y784000D01*
X44550Y784750D02*X47550Y788500D01*
X44550Y784750D02*X48300D01*
X47550Y788500D02*Y782500D01*
X55800Y788500D02*Y782500D01*
X55050D02*X55800Y783250D01*
X53550Y782500D02*X55050D01*
X52800Y783250D02*X53550Y782500D01*
X52800Y784750D02*Y783250D01*
Y784750D02*X53550Y785500D01*
X55050D01*
X55800Y784750D01*
G54D87*X57600Y787000D02*Y786850D01*
G54D86*Y784750D02*Y782500D01*
X59850Y787750D02*Y782500D01*
Y787750D02*X60600Y788500D01*
X61350D01*
X59100Y785500D02*X60600D01*
X63600Y787750D02*Y782500D01*
Y787750D02*X64350Y788500D01*
X65100D01*
X62850Y785500D02*X64350D01*
X67350Y782500D02*X69600D01*
X66600Y783250D02*X67350Y782500D01*
X66600Y784750D02*Y783250D01*
Y784750D02*X67350Y785500D01*
X68850D01*
X69600Y784750D01*
X66600Y784000D02*X69600D01*
Y784750D02*Y784000D01*
X72150Y784750D02*Y782500D01*
Y784750D02*X72900Y785500D01*
X74400D01*
X71400D02*X72150Y784750D01*
X76950Y782500D02*X79200D01*
X76200Y783250D02*X76950Y782500D01*
X76200Y784750D02*Y783250D01*
Y784750D02*X76950Y785500D01*
X78450D01*
X79200Y784750D01*
X76200Y784000D02*X79200D01*
Y784750D02*Y784000D01*
X81750Y784750D02*Y782500D01*
Y784750D02*X82500Y785500D01*
X83250D01*
X84000Y784750D01*
Y782500D01*
X81000Y785500D02*X81750Y784750D01*
X86550Y788500D02*Y783250D01*
X87300Y782500D01*
X85800Y786250D02*X87300D01*
X94500Y788500D02*Y782500D01*
X93750D02*X94500Y783250D01*
X92250Y782500D02*X93750D01*
X91500Y783250D02*X92250Y782500D01*
X91500Y784750D02*Y783250D01*
Y784750D02*X92250Y785500D01*
X93750D01*
X94500Y784750D01*
X97050D02*Y782500D01*
Y784750D02*X97800Y785500D01*
X99300D01*
X96300D02*X97050Y784750D01*
G54D87*X101100Y787000D02*Y786850D01*
G54D86*Y784750D02*Y782500D01*
X102600Y788500D02*Y783250D01*
X103350Y782500D01*
X104850Y788500D02*Y783250D01*
X105600Y782500D01*
X110550D02*X112800D01*
X113550Y783250D01*
X112800Y784000D02*X113550Y783250D01*
X110550Y784000D02*X112800D01*
X109800Y784750D02*X110550Y784000D01*
X109800Y784750D02*X110550Y785500D01*
X112800D01*
X113550Y784750D01*
X109800Y783250D02*X110550Y782500D01*
G54D87*X115350Y787000D02*Y786850D01*
G54D86*Y784750D02*Y782500D01*
X116850Y785500D02*X119850D01*
X116850Y782500D02*X119850Y785500D01*
X116850Y782500D02*X119850D01*
X122400D02*X124650D01*
X121650Y783250D02*X122400Y782500D01*
X121650Y784750D02*Y783250D01*
Y784750D02*X122400Y785500D01*
X123900D01*
X124650Y784750D01*
X121650Y784000D02*X124650D01*
Y784750D02*Y784000D01*
X127200Y782500D02*X129450D01*
X130200Y783250D01*
X129450Y784000D02*X130200Y783250D01*
X127200Y784000D02*X129450D01*
X126450Y784750D02*X127200Y784000D01*
X126450Y784750D02*X127200Y785500D01*
X129450D01*
X130200Y784750D01*
X126450Y783250D02*X127200Y782500D01*
X134700Y785500D02*Y783250D01*
X135450Y782500D01*
X136950D01*
X137700Y783250D01*
Y785500D02*Y783250D01*
X140250Y782500D02*X142500D01*
X143250Y783250D01*
X142500Y784000D02*X143250Y783250D01*
X140250Y784000D02*X142500D01*
X139500Y784750D02*X140250Y784000D01*
X139500Y784750D02*X140250Y785500D01*
X142500D01*
X143250Y784750D01*
X139500Y783250D02*X140250Y782500D01*
X145800D02*X148050D01*
X145050Y783250D02*X145800Y782500D01*
X145050Y784750D02*Y783250D01*
Y784750D02*X145800Y785500D01*
X147300D01*
X148050Y784750D01*
X145050Y784000D02*X148050D01*
Y784750D02*Y784000D01*
X152850Y788500D02*Y782500D01*
X152100D02*X152850Y783250D01*
X150600Y782500D02*X152100D01*
X149850Y783250D02*X150600Y782500D01*
X149850Y784750D02*Y783250D01*
Y784750D02*X150600Y785500D01*
X152100D01*
X152850Y784750D01*
G54D87*X157350Y787000D02*Y786850D01*
G54D86*Y784750D02*Y782500D01*
X159600Y784750D02*Y782500D01*
Y784750D02*X160350Y785500D01*
X161100D01*
X161850Y784750D01*
Y782500D01*
X158850Y785500D02*X159600Y784750D01*
X167100Y788500D02*Y783250D01*
X167850Y782500D01*
X166350Y786250D02*X167850D01*
X169350Y788500D02*Y782500D01*
Y784750D02*X170100Y785500D01*
X171600D01*
X172350Y784750D01*
Y782500D01*
G54D87*X174150Y787000D02*Y786850D01*
G54D86*Y784750D02*Y782500D01*
X176400D02*X178650D01*
X179400Y783250D01*
X178650Y784000D02*X179400Y783250D01*
X176400Y784000D02*X178650D01*
X175650Y784750D02*X176400Y784000D01*
X175650Y784750D02*X176400Y785500D01*
X178650D01*
X179400Y784750D01*
X175650Y783250D02*X176400Y782500D01*
X183900Y788500D02*Y783250D01*
X184650Y782500D01*
X188400Y785500D02*X189150Y784750D01*
X186900Y785500D02*X188400D01*
X186150Y784750D02*X186900Y785500D01*
X186150Y784750D02*Y783250D01*
X186900Y782500D01*
X189150Y785500D02*Y783250D01*
X189900Y782500D01*
X186900D02*X188400D01*
X189150Y783250D01*
X191700Y785500D02*Y783250D01*
X192450Y782500D01*
X194700Y785500D02*Y781000D01*
X193950Y780250D02*X194700Y781000D01*
X192450Y780250D02*X193950D01*
X191700Y781000D02*X192450Y780250D01*
Y782500D02*X193950D01*
X194700Y783250D01*
X196500Y784750D02*Y783250D01*
Y784750D02*X197250Y785500D01*
X198750D01*
X199500Y784750D01*
Y783250D01*
X198750Y782500D02*X199500Y783250D01*
X197250Y782500D02*X198750D01*
X196500Y783250D02*X197250Y782500D01*
X201300Y785500D02*Y783250D01*
X202050Y782500D01*
X203550D01*
X204300Y783250D01*
Y785500D02*Y783250D01*
X206850Y788500D02*Y783250D01*
X207600Y782500D01*
X206100Y786250D02*X207600D01*
X209100Y781000D02*X210600Y782500D01*
X215100Y787300D02*X216300Y788500D01*
Y782500D01*
X215100D02*X217350D01*
X219150Y787750D02*X219900Y788500D01*
X221400D01*
X222150Y787750D01*
X221400Y782500D02*X222150Y783250D01*
X219900Y782500D02*X221400D01*
X219150Y783250D02*X219900Y782500D01*
Y785800D02*X221400D01*
X222150Y787750D02*Y786550D01*
Y785050D02*Y783250D01*
Y785050D02*X221400Y785800D01*
X222150Y786550D02*X221400Y785800D01*
X223950Y787300D02*X225150Y788500D01*
Y782500D01*
X223950D02*X226200D01*
X230700Y788500D02*Y782500D01*
Y784750D02*X231450Y785500D01*
X232950D01*
X233700Y784750D01*
Y782500D01*
X235500Y784750D02*Y783250D01*
Y784750D02*X236250Y785500D01*
X237750D01*
X238500Y784750D01*
Y783250D01*
X237750Y782500D02*X238500Y783250D01*
X236250Y782500D02*X237750D01*
X235500Y783250D02*X236250Y782500D01*
X240300Y788500D02*Y783250D01*
X241050Y782500D01*
X243300D02*X245550D01*
X242550Y783250D02*X243300Y782500D01*
X242550Y784750D02*Y783250D01*
Y784750D02*X243300Y785500D01*
X244800D01*
X245550Y784750D01*
X242550Y784000D02*X245550D01*
Y784750D02*Y784000D01*
X248100Y782500D02*X250350D01*
X251100Y783250D01*
X250350Y784000D02*X251100Y783250D01*
X248100Y784000D02*X250350D01*
X247350Y784750D02*X248100Y784000D01*
X247350Y784750D02*X248100Y785500D01*
X250350D01*
X251100Y784750D01*
X247350Y783250D02*X248100Y782500D01*
X256350Y788500D02*Y783250D01*
X257100Y782500D01*
X255600Y786250D02*X257100D01*
X258600Y784750D02*Y783250D01*
Y784750D02*X259350Y785500D01*
X260850D01*
X261600Y784750D01*
Y783250D01*
X260850Y782500D02*X261600Y783250D01*
X259350Y782500D02*X260850D01*
X258600Y783250D02*X259350Y782500D01*
X264150Y788500D02*Y783250D01*
X264900Y782500D01*
X263400Y786250D02*X264900D01*
X268650Y785500D02*X269400Y784750D01*
X267150Y785500D02*X268650D01*
X266400Y784750D02*X267150Y785500D01*
X266400Y784750D02*Y783250D01*
X267150Y782500D01*
X269400Y785500D02*Y783250D01*
X270150Y782500D01*
X267150D02*X268650D01*
X269400Y783250D01*
X271950Y788500D02*Y783250D01*
X272700Y782500D01*
G54D88*X0Y390000D02*X10000Y400000D01*
X490000D01*
Y40000D01*
X0D01*
Y390000D01*
G54D86*X213675Y-9500D02*X216675D01*
X217425Y-8750D01*
Y-6950D02*Y-8750D01*
X216675Y-6200D02*X217425Y-6950D01*
X214425Y-6200D02*X216675D01*
X214425Y-3500D02*Y-9500D01*
X213675Y-3500D02*X216675D01*
X217425Y-4250D01*
Y-5450D01*
X216675Y-6200D02*X217425Y-5450D01*
X219225Y-7250D02*Y-8750D01*
Y-7250D02*X219975Y-6500D01*
X221475D01*
X222225Y-7250D01*
Y-8750D01*
X221475Y-9500D02*X222225Y-8750D01*
X219975Y-9500D02*X221475D01*
X219225Y-8750D02*X219975Y-9500D01*
X226275Y-6500D02*X227025Y-7250D01*
X224775Y-6500D02*X226275D01*
X224025Y-7250D02*X224775Y-6500D01*
X224025Y-7250D02*Y-8750D01*
X224775Y-9500D01*
X227025Y-6500D02*Y-8750D01*
X227775Y-9500D01*
X224775D02*X226275D01*
X227025Y-8750D01*
X230325Y-7250D02*Y-9500D01*
Y-7250D02*X231075Y-6500D01*
X232575D01*
X229575D02*X230325Y-7250D01*
X237375Y-3500D02*Y-9500D01*
X236625D02*X237375Y-8750D01*
X235125Y-9500D02*X236625D01*
X234375Y-8750D02*X235125Y-9500D01*
X234375Y-7250D02*Y-8750D01*
Y-7250D02*X235125Y-6500D01*
X236625D01*
X237375Y-7250D01*
X241875D02*Y-8750D01*
Y-7250D02*X242625Y-6500D01*
X244125D01*
X244875Y-7250D01*
Y-8750D01*
X244125Y-9500D02*X244875Y-8750D01*
X242625Y-9500D02*X244125D01*
X241875Y-8750D02*X242625Y-9500D01*
X246675Y-6500D02*Y-8750D01*
X247425Y-9500D01*
X248925D01*
X249675Y-8750D01*
Y-6500D02*Y-8750D01*
X252225Y-3500D02*Y-8750D01*
X252975Y-9500D01*
X251475Y-5750D02*X252975D01*
X254475Y-3500D02*Y-8750D01*
X255225Y-9500D01*
G54D87*X256725Y-5000D02*Y-5150D01*
G54D86*Y-7250D02*Y-9500D01*
X258975Y-7250D02*Y-9500D01*
Y-7250D02*X259725Y-6500D01*
X260475D01*
X261225Y-7250D01*
Y-9500D01*
X258225Y-6500D02*X258975Y-7250D01*
X263775Y-9500D02*X266025D01*
X263025Y-8750D02*X263775Y-9500D01*
X263025Y-7250D02*Y-8750D01*
Y-7250D02*X263775Y-6500D01*
X265275D01*
X266025Y-7250D01*
X263025Y-8000D02*X266025D01*
Y-7250D02*Y-8000D01*
G54D87*X270525Y-5000D02*Y-5150D01*
G54D86*Y-7250D02*Y-9500D01*
X272775D02*X275025D01*
X275775Y-8750D01*
X275025Y-8000D02*X275775Y-8750D01*
X272775Y-8000D02*X275025D01*
X272025Y-7250D02*X272775Y-8000D01*
X272025Y-7250D02*X272775Y-6500D01*
X275025D01*
X275775Y-7250D01*
X272025Y-8750D02*X272775Y-9500D01*
X281025Y-3500D02*Y-8750D01*
X281775Y-9500D01*
X280275Y-5750D02*X281775D01*
X283275Y-3500D02*Y-9500D01*
Y-7250D02*X284025Y-6500D01*
X285525D01*
X286275Y-7250D01*
Y-9500D01*
X288825D02*X291075D01*
X288075Y-8750D02*X288825Y-9500D01*
X288075Y-7250D02*Y-8750D01*
Y-7250D02*X288825Y-6500D01*
X290325D01*
X291075Y-7250D01*
X288075Y-8000D02*X291075D01*
Y-7250D02*Y-8000D01*
X296325Y-6500D02*X298575D01*
X295575Y-7250D02*X296325Y-6500D01*
X295575Y-7250D02*Y-8750D01*
X296325Y-9500D01*
X298575D01*
X301125D02*X303375D01*
X300375Y-8750D02*X301125Y-9500D01*
X300375Y-7250D02*Y-8750D01*
Y-7250D02*X301125Y-6500D01*
X302625D01*
X303375Y-7250D01*
X300375Y-8000D02*X303375D01*
Y-7250D02*Y-8000D01*
X305925Y-7250D02*Y-9500D01*
Y-7250D02*X306675Y-6500D01*
X307425D01*
X308175Y-7250D01*
Y-9500D01*
X305175Y-6500D02*X305925Y-7250D01*
X310725Y-3500D02*Y-8750D01*
X311475Y-9500D01*
X309975Y-5750D02*X311475D01*
X313725Y-9500D02*X315975D01*
X312975Y-8750D02*X313725Y-9500D01*
X312975Y-7250D02*Y-8750D01*
Y-7250D02*X313725Y-6500D01*
X315225D01*
X315975Y-7250D01*
X312975Y-8000D02*X315975D01*
Y-7250D02*Y-8000D01*
X318525Y-7250D02*Y-9500D01*
Y-7250D02*X319275Y-6500D01*
X320775D01*
X317775D02*X318525Y-7250D01*
X322575Y-3500D02*Y-8750D01*
X323325Y-9500D01*
G54D87*X324825Y-5000D02*Y-5150D01*
G54D86*Y-7250D02*Y-9500D01*
X327075Y-7250D02*Y-9500D01*
Y-7250D02*X327825Y-6500D01*
X328575D01*
X329325Y-7250D01*
Y-9500D01*
X326325Y-6500D02*X327075Y-7250D01*
X331875Y-9500D02*X334125D01*
X331125Y-8750D02*X331875Y-9500D01*
X331125Y-7250D02*Y-8750D01*
Y-7250D02*X331875Y-6500D01*
X333375D01*
X334125Y-7250D01*
X331125Y-8000D02*X334125D01*
Y-7250D02*Y-8000D01*
X338625Y-7250D02*Y-8750D01*
Y-7250D02*X339375Y-6500D01*
X340875D01*
X341625Y-7250D01*
Y-8750D01*
X340875Y-9500D02*X341625Y-8750D01*
X339375Y-9500D02*X340875D01*
X338625Y-8750D02*X339375Y-9500D01*
X344175Y-4250D02*Y-9500D01*
Y-4250D02*X344925Y-3500D01*
X345675D01*
X343425Y-6500D02*X344925D01*
X350625Y-3500D02*Y-8750D01*
X351375Y-9500D01*
X349875Y-5750D02*X351375D01*
X352875Y-3500D02*Y-9500D01*
Y-7250D02*X353625Y-6500D01*
X355125D01*
X355875Y-7250D01*
Y-9500D01*
G54D87*X357675Y-5000D02*Y-5150D01*
G54D86*Y-7250D02*Y-9500D01*
X359925D02*X362175D01*
X362925Y-8750D01*
X362175Y-8000D02*X362925Y-8750D01*
X359925Y-8000D02*X362175D01*
X359175Y-7250D02*X359925Y-8000D01*
X359175Y-7250D02*X359925Y-6500D01*
X362175D01*
X362925Y-7250D01*
X359175Y-8750D02*X359925Y-9500D01*
X368175Y-7250D02*Y-11750D01*
X367425Y-6500D02*X368175Y-7250D01*
X368925Y-6500D01*
X370425D01*
X371175Y-7250D01*
Y-8750D01*
X370425Y-9500D02*X371175Y-8750D01*
X368925Y-9500D02*X370425D01*
X368175Y-8750D02*X368925Y-9500D01*
X375225Y-6500D02*X375975Y-7250D01*
X373725Y-6500D02*X375225D01*
X372975Y-7250D02*X373725Y-6500D01*
X372975Y-7250D02*Y-8750D01*
X373725Y-9500D01*
X375975Y-6500D02*Y-8750D01*
X376725Y-9500D01*
X373725D02*X375225D01*
X375975Y-8750D01*
X379275Y-3500D02*Y-8750D01*
X380025Y-9500D01*
X378525Y-5750D02*X380025D01*
X381525Y-3500D02*Y-9500D01*
Y-7250D02*X382275Y-6500D01*
X383775D01*
X384525Y-7250D01*
Y-9500D01*
X200750Y728500D02*Y722500D01*
X202700Y728500D02*X203750Y727450D01*
Y723550D01*
X202700Y722500D02*X203750Y723550D01*
X200000Y722500D02*X202700D01*
X200000Y728500D02*X202700D01*
X207800Y725500D02*X208550Y724750D01*
X206300Y725500D02*X207800D01*
X205550Y724750D02*X206300Y725500D01*
X205550Y724750D02*Y723250D01*
X206300Y722500D01*
X208550Y725500D02*Y723250D01*
X209300Y722500D01*
X206300D02*X207800D01*
X208550Y723250D01*
X211850Y728500D02*Y723250D01*
X212600Y722500D01*
X211100Y726250D02*X212600D01*
X214850Y722500D02*X217100D01*
X214100Y723250D02*X214850Y722500D01*
X214100Y724750D02*Y723250D01*
Y724750D02*X214850Y725500D01*
X216350D01*
X217100Y724750D01*
X214100Y724000D02*X217100D01*
Y724750D02*Y724000D01*
X218900Y726250D02*X219650D01*
X218900Y724750D02*X219650D01*
X224150Y728500D02*X227150D01*
X225650D02*Y722500D01*
X228950Y728500D02*Y722500D01*
Y724750D02*X229700Y725500D01*
X231200D01*
X231950Y724750D01*
Y722500D01*
X233750Y725500D02*Y723250D01*
X234500Y722500D01*
X236000D01*
X236750Y723250D01*
Y725500D02*Y723250D01*
X244250Y728500D02*X245000Y727750D01*
X242000Y728500D02*X244250D01*
X241250Y727750D02*X242000Y728500D01*
X241250Y727750D02*Y726250D01*
X242000Y725500D01*
X244250D01*
X245000Y724750D01*
Y723250D01*
X244250Y722500D02*X245000Y723250D01*
X242000Y722500D02*X244250D01*
X241250Y723250D02*X242000Y722500D01*
X247550D02*X249800D01*
X246800Y723250D02*X247550Y722500D01*
X246800Y724750D02*Y723250D01*
Y724750D02*X247550Y725500D01*
X249050D01*
X249800Y724750D01*
X246800Y724000D02*X249800D01*
Y724750D02*Y724000D01*
X252350Y724750D02*Y720250D01*
X251600Y725500D02*X252350Y724750D01*
X253100Y725500D01*
X254600D01*
X255350Y724750D01*
Y723250D01*
X254600Y722500D02*X255350Y723250D01*
X253100Y722500D02*X254600D01*
X252350Y723250D02*X253100Y722500D01*
X259850Y727300D02*X261050Y728500D01*
Y722500D01*
X259850D02*X262100D01*
X264650D02*X267650Y728500D01*
X263900D02*X267650D01*
X272150Y723250D02*X272900Y722500D01*
X272150Y727750D02*Y723250D01*
Y727750D02*X272900Y728500D01*
X274400D01*
X275150Y727750D01*
Y723250D01*
X274400Y722500D02*X275150Y723250D01*
X272900Y722500D02*X274400D01*
X272150Y724000D02*X275150Y727000D01*
X276950Y723250D02*X277700Y722500D01*
X276950Y724450D02*Y723250D01*
Y724450D02*X278000Y725500D01*
X278900D01*
X279950Y724450D01*
Y723250D01*
X279200Y722500D02*X279950Y723250D01*
X277700Y722500D02*X279200D01*
X276950Y726550D02*X278000Y725500D01*
X276950Y727750D02*Y726550D01*
Y727750D02*X277700Y728500D01*
X279200D01*
X279950Y727750D01*
Y726550D01*
X278900Y725500D02*X279950Y726550D01*
X281750Y726250D02*X282500D01*
X281750Y724750D02*X282500D01*
X284300Y727750D02*X285050Y728500D01*
X287300D01*
X288050Y727750D01*
Y726250D01*
X284300Y722500D02*X288050Y726250D01*
X284300Y722500D02*X288050D01*
X289850Y727750D02*X290600Y728500D01*
X292850D01*
X293600Y727750D01*
Y726250D01*
X289850Y722500D02*X293600Y726250D01*
X289850Y722500D02*X293600D01*
X295400Y726250D02*X296150D01*
X295400Y724750D02*X296150D01*
X297950Y727300D02*X299150Y728500D01*
Y722500D01*
X297950D02*X300200D01*
X304250Y728500D02*X305000Y727750D01*
X302750Y728500D02*X304250D01*
X302000Y727750D02*X302750Y728500D01*
X302000Y727750D02*Y723250D01*
X302750Y722500D01*
X304250Y725800D02*X305000Y725050D01*
X302000Y725800D02*X304250D01*
X302750Y722500D02*X304250D01*
X305000Y723250D01*
Y725050D02*Y723250D01*
X309500Y727750D02*X310250Y728500D01*
X312500D01*
X313250Y727750D01*
Y726250D01*
X309500Y722500D02*X313250Y726250D01*
X309500Y722500D02*X313250D01*
X315050Y723250D02*X315800Y722500D01*
X315050Y727750D02*Y723250D01*
Y727750D02*X315800Y728500D01*
X317300D01*
X318050Y727750D01*
Y723250D01*
X317300Y722500D02*X318050Y723250D01*
X315800Y722500D02*X317300D01*
X315050Y724000D02*X318050Y727000D01*
X319850Y727750D02*X320600Y728500D01*
X322850D01*
X323600Y727750D01*
Y726250D01*
X319850Y722500D02*X323600Y726250D01*
X319850Y722500D02*X323600D01*
X325400Y723250D02*X326150Y722500D01*
X325400Y727750D02*Y723250D01*
Y727750D02*X326150Y728500D01*
X327650D01*
X328400Y727750D01*
Y723250D01*
X327650Y722500D02*X328400Y723250D01*
X326150Y722500D02*X327650D01*
X325400Y724000D02*X328400Y727000D01*
X332900Y728500D02*Y723250D01*
X333650Y722500D01*
X335150D01*
X335900Y723250D01*
Y728500D02*Y723250D01*
X337700Y728500D02*X340700D01*
X339200D02*Y722500D01*
X343550D02*X345500D01*
X342500Y723550D02*X343550Y722500D01*
X342500Y727450D02*Y723550D01*
Y727450D02*X343550Y728500D01*
X345500D01*
X200000Y742000D02*Y737500D01*
Y742000D02*X201050Y743500D01*
X202700D01*
X203750Y742000D01*
Y737500D01*
X200000Y740500D02*X203750D01*
X205550D02*Y738250D01*
X206300Y737500D01*
X207800D01*
X208550Y738250D01*
Y740500D02*Y738250D01*
X211100Y743500D02*Y738250D01*
X211850Y737500D01*
X210350Y741250D02*X211850D01*
X213350Y743500D02*Y737500D01*
Y739750D02*X214100Y740500D01*
X215600D01*
X216350Y739750D01*
Y737500D01*
X218150Y739750D02*Y738250D01*
Y739750D02*X218900Y740500D01*
X220400D01*
X221150Y739750D01*
Y738250D01*
X220400Y737500D02*X221150Y738250D01*
X218900Y737500D02*X220400D01*
X218150Y738250D02*X218900Y737500D01*
X223700Y739750D02*Y737500D01*
Y739750D02*X224450Y740500D01*
X225950D01*
X222950D02*X223700Y739750D01*
X227750Y741250D02*X228500D01*
X227750Y739750D02*X228500D01*
X233750Y740500D02*X236000D01*
X233000Y739750D02*X233750Y740500D01*
X233000Y739750D02*Y738250D01*
X233750Y737500D01*
X236000D01*
X237800Y739750D02*Y738250D01*
Y739750D02*X238550Y740500D01*
X240050D01*
X240800Y739750D01*
Y738250D01*
X240050Y737500D02*X240800Y738250D01*
X238550Y737500D02*X240050D01*
X237800Y738250D02*X238550Y737500D01*
X243350Y739750D02*Y737500D01*
Y739750D02*X244100Y740500D01*
X244850D01*
X245600Y739750D01*
Y737500D01*
Y739750D02*X246350Y740500D01*
X247100D01*
X247850Y739750D01*
Y737500D01*
X242600Y740500D02*X243350Y739750D01*
X250400D02*Y737500D01*
Y739750D02*X251150Y740500D01*
X251900D01*
X252650Y739750D01*
Y737500D01*
Y739750D02*X253400Y740500D01*
X254150D01*
X254900Y739750D01*
Y737500D01*
X249650Y740500D02*X250400Y739750D01*
X256700D02*Y738250D01*
Y739750D02*X257450Y740500D01*
X258950D01*
X259700Y739750D01*
Y738250D01*
X258950Y737500D02*X259700Y738250D01*
X257450Y737500D02*X258950D01*
X256700Y738250D02*X257450Y737500D01*
X262250Y739750D02*Y737500D01*
Y739750D02*X263000Y740500D01*
X263750D01*
X264500Y739750D01*
Y737500D01*
X261500Y740500D02*X262250Y739750D01*
X268550Y740500D02*X269300Y739750D01*
X267050Y740500D02*X268550D01*
X266300Y739750D02*X267050Y740500D01*
X266300Y739750D02*Y738250D01*
X267050Y737500D01*
X269300Y740500D02*Y738250D01*
X270050Y737500D01*
X267050D02*X268550D01*
X269300Y738250D01*
X274850Y743500D02*Y737500D01*
X274100D02*X274850Y738250D01*
X272600Y737500D02*X274100D01*
X271850Y738250D02*X272600Y737500D01*
X271850Y739750D02*Y738250D01*
Y739750D02*X272600Y740500D01*
X274100D01*
X274850Y739750D01*
X277400D02*Y737500D01*
Y739750D02*X278150Y740500D01*
X278900D01*
X279650Y739750D01*
Y737500D01*
Y739750D02*X280400Y740500D01*
X281150D01*
X281900Y739750D01*
Y737500D01*
X276650Y740500D02*X277400Y739750D01*
G54D87*X283700Y742000D02*Y741850D01*
G54D86*Y739750D02*Y737500D01*
X285950Y739750D02*Y737500D01*
Y739750D02*X286700Y740500D01*
X287450D01*
X288200Y739750D01*
Y737500D01*
X285200Y740500D02*X285950Y739750D01*
X200000Y758500D02*X203000D01*
X201500D02*Y752500D01*
G54D87*X204800Y757000D02*Y756850D01*
G54D86*Y754750D02*Y752500D01*
X207050Y758500D02*Y753250D01*
X207800Y752500D01*
X206300Y756250D02*X207800D01*
X209300Y758500D02*Y753250D01*
X210050Y752500D01*
X212300D02*X214550D01*
X211550Y753250D02*X212300Y752500D01*
X211550Y754750D02*Y753250D01*
Y754750D02*X212300Y755500D01*
X213800D01*
X214550Y754750D01*
X211550Y754000D02*X214550D01*
Y754750D02*Y754000D01*
X216350Y756250D02*X217100D01*
X216350Y754750D02*X217100D01*
X221600Y753250D02*X222350Y752500D01*
X221600Y757750D02*X222350Y758500D01*
X221600Y757750D02*Y753250D01*
X224150Y755500D02*Y753250D01*
X224900Y752500D01*
X226400D01*
X227150Y753250D01*
Y755500D02*Y753250D01*
X229700Y754750D02*Y752500D01*
Y754750D02*X230450Y755500D01*
X231200D01*
X231950Y754750D01*
Y752500D01*
X228950Y755500D02*X229700Y754750D01*
X233750Y758500D02*Y752500D01*
Y754750D02*X236000Y752500D01*
X233750Y754750D02*X235250Y756250D01*
X238550Y754750D02*Y752500D01*
Y754750D02*X239300Y755500D01*
X240050D01*
X240800Y754750D01*
Y752500D01*
X237800Y755500D02*X238550Y754750D01*
X242600D02*Y753250D01*
Y754750D02*X243350Y755500D01*
X244850D01*
X245600Y754750D01*
Y753250D01*
X244850Y752500D02*X245600Y753250D01*
X243350Y752500D02*X244850D01*
X242600Y753250D02*X243350Y752500D01*
X247400Y755500D02*Y753250D01*
X248150Y752500D01*
X248900D01*
X249650Y753250D01*
Y755500D02*Y753250D01*
X250400Y752500D01*
X251150D01*
X251900Y753250D01*
Y755500D02*Y753250D01*
X254450Y754750D02*Y752500D01*
Y754750D02*X255200Y755500D01*
X255950D01*
X256700Y754750D01*
Y752500D01*
X253700Y755500D02*X254450Y754750D01*
X258500Y758500D02*X259250Y757750D01*
Y753250D01*
X258500Y752500D02*X259250Y753250D01*
X263750Y755500D02*X266750D01*
X271250Y758500D02*Y752500D01*
Y758500D02*X274250D01*
X271250Y755800D02*X273500D01*
X278300Y755500D02*X279050Y754750D01*
X276800Y755500D02*X278300D01*
X276050Y754750D02*X276800Y755500D01*
X276050Y754750D02*Y753250D01*
X276800Y752500D01*
X279050Y755500D02*Y753250D01*
X279800Y752500D01*
X276800D02*X278300D01*
X279050Y753250D01*
X281600Y758500D02*Y752500D01*
Y753250D02*X282350Y752500D01*
X283850D01*
X284600Y753250D01*
Y754750D02*Y753250D01*
X283850Y755500D02*X284600Y754750D01*
X282350Y755500D02*X283850D01*
X281600Y754750D02*X282350Y755500D01*
X287150Y754750D02*Y752500D01*
Y754750D02*X287900Y755500D01*
X289400D01*
X286400D02*X287150Y754750D01*
G54D87*X291200Y757000D02*Y756850D01*
G54D86*Y754750D02*Y752500D01*
X293450Y755500D02*X295700D01*
X292700Y754750D02*X293450Y755500D01*
X292700Y754750D02*Y753250D01*
X293450Y752500D01*
X295700D01*
X299750Y755500D02*X300500Y754750D01*
X298250Y755500D02*X299750D01*
X297500Y754750D02*X298250Y755500D01*
X297500Y754750D02*Y753250D01*
X298250Y752500D01*
X300500Y755500D02*Y753250D01*
X301250Y752500D01*
X298250D02*X299750D01*
X300500Y753250D01*
X303800Y758500D02*Y753250D01*
X304550Y752500D01*
X303050Y756250D02*X304550D01*
G54D87*X306050Y757000D02*Y756850D01*
G54D86*Y754750D02*Y752500D01*
X307550Y754750D02*Y753250D01*
Y754750D02*X308300Y755500D01*
X309800D01*
X310550Y754750D01*
Y753250D01*
X309800Y752500D02*X310550Y753250D01*
X308300Y752500D02*X309800D01*
X307550Y753250D02*X308300Y752500D01*
X313100Y754750D02*Y752500D01*
Y754750D02*X313850Y755500D01*
X314600D01*
X315350Y754750D01*
Y752500D01*
X312350Y755500D02*X313100Y754750D01*
X320600Y758500D02*Y752500D01*
X322550Y758500D02*X323600Y757450D01*
Y753550D01*
X322550Y752500D02*X323600Y753550D01*
X319850Y752500D02*X322550D01*
X319850Y758500D02*X322550D01*
X326150Y754750D02*Y752500D01*
Y754750D02*X326900Y755500D01*
X328400D01*
X325400D02*X326150Y754750D01*
X332450Y755500D02*X333200Y754750D01*
X330950Y755500D02*X332450D01*
X330200Y754750D02*X330950Y755500D01*
X330200Y754750D02*Y753250D01*
X330950Y752500D01*
X333200Y755500D02*Y753250D01*
X333950Y752500D01*
X330950D02*X332450D01*
X333200Y753250D01*
X335750Y755500D02*Y753250D01*
X336500Y752500D01*
X337250D01*
X338000Y753250D01*
Y755500D02*Y753250D01*
X338750Y752500D01*
X339500D01*
X340250Y753250D01*
Y755500D02*Y753250D01*
G54D87*X342050Y757000D02*Y756850D01*
G54D86*Y754750D02*Y752500D01*
X344300Y754750D02*Y752500D01*
Y754750D02*X345050Y755500D01*
X345800D01*
X346550Y754750D01*
Y752500D01*
X343550Y755500D02*X344300Y754750D01*
X350600Y755500D02*X351350Y754750D01*
X349100Y755500D02*X350600D01*
X348350Y754750D02*X349100Y755500D01*
X348350Y754750D02*Y753250D01*
X349100Y752500D01*
X350600D01*
X351350Y753250D01*
X348350Y751000D02*X349100Y750250D01*
X350600D01*
X351350Y751000D01*
Y755500D02*Y751000D01*
M02*
