M48
INCH
T65C0.013
T64C0.030
T63C0.050
T62C0.010
T61C0.038
%
T62
X015000Y031500
X016450Y036800
X016450Y035800
X018100Y019000
X018100Y018550
X018150Y030750
X018950Y019000
X018950Y018550
X028900Y037450
X029150Y036700
X029750Y038100
X029750Y009300
X032150Y020400
X032150Y019600
X035200Y020400
X035200Y018600
X035750Y020400
X035750Y019650
X037600Y013250
X037600Y012950
X037600Y012650
X039100Y013250
X039400Y013250
X039700Y013250
X040750Y021800
X041050Y021800
X041350Y021800
X041750Y020800
X042050Y020800
X042350Y020800
X042850Y024450
X042850Y023750
X043000Y021000
X043200Y024100
X043200Y023750
X043250Y020800
X043550Y025150
X043550Y023750
X043550Y020800
X043800Y021000
X043900Y024800
X043900Y023750
X044250Y021850
X044400Y033700
X044550Y021850
X044650Y033900
X045350Y021200
X045650Y021200
X045850Y020850
X046150Y020850
X047300Y020800
X047450Y035900
X047600Y035600
X047600Y020800
T65
X042550Y016050
X042550Y015700
X042550Y015350
X042550Y015000
X043000Y016050
X043000Y015700
X043000Y015350
X043000Y015000
T64
X009000Y030000
X010000Y030000
X013000Y030000
X014000Y030000
T61
X009000Y038000
X009000Y037000
X009000Y036000
X009000Y035000
X009000Y034000
X009000Y023000
X009000Y022000
X009000Y011000
X009000Y010000
X010000Y038000
X010000Y035000
X010000Y034000
X010000Y023000
X010000Y022000
X010000Y013000
X010000Y011000
X010000Y010000
X015900Y032000
X015900Y031000
X015900Y030000
X015900Y028000
X015900Y020000
X015900Y019000
X015900Y018000
X015900Y017000
X015900Y008000
X015900Y007000
X015900Y006000
X016900Y032000
X016900Y031000
X016900Y030000
X016900Y029000
X016900Y028000
X016900Y027000
X016900Y020000
X016900Y019000
X016900Y018000
X016900Y017000
X016900Y016000
X016900Y015000
X016900Y008000
X016900Y007000
X016900Y006000
X016900Y005000
X016900Y004000
X016900Y003000
X018850Y031500
X018850Y029500
X018850Y007500
X018850Y005500
X026750Y037000
X026750Y035000
X026750Y034000
X026750Y023000
X026750Y022000
X026750Y013000
X026750Y011000
X026750Y010000
X027750Y037000
X027750Y035000
X027750Y034000
X027750Y023000
X027750Y022000
X027750Y011000
X027750Y010000
X029750Y035000
X029750Y027500
X029750Y023000
X029750Y015500
X029750Y011000
X029750Y003500
X030750Y035000
X030750Y027500
X030750Y023000
X030750Y015500
X030750Y011000
X030750Y003500
X031750Y035000
X031750Y027500
X031750Y023000
X031750Y015500
X031750Y011000
X031750Y003500
X032750Y035000
X032750Y027500
X032750Y023000
X032750Y015500
X032750Y011000
X032750Y003500
X033750Y035000
X033750Y027500
X033750Y023000
X033750Y015500
X033750Y011000
X033750Y003500
X034750Y035000
X034750Y027500
X034750Y023000
X034750Y015500
X034750Y011000
X034750Y003500
X035750Y035000
X035750Y027500
X035750Y023000
X035750Y015500
X035750Y011000
X035750Y003500
X036750Y035000
X036750Y027500
X036750Y023000
X036750Y015500
X036750Y011000
X036750Y003500
T63
X009000Y029000
X010000Y029000
X015000Y029000
X016000Y029000
M30
