G04 start of page 9 for group -4062 idx -4062 *
G04 Title: (unknown), soldermask *
G04 Creator: pcb 4.2.0 *
G04 CreationDate: Wed Jul 29 19:42:11 2020 UTC *
G04 For: commonadmin *
G04 Format: Gerber/RS-274X *
G04 PCB-Dimensions (mil): 6000.00 7000.00 *
G04 PCB-Coordinate-Origin: lower left *
%MOIN*%
%FSLAX25Y25*%
%LNBOTTOMMASK*%
%ADD77C,0.0400*%
%ADD76C,0.0860*%
%ADD75C,0.0610*%
%ADD74C,0.0001*%
%ADD73C,0.0260*%
%ADD72C,0.0660*%
G54D72*X367500Y155000D03*
X307500Y230000D03*
X317500D03*
X327500D03*
X337500D03*
X347500D03*
X357500D03*
X367500D03*
G54D73*X458499Y208500D03*
X438000Y210000D03*
X461500Y208500D03*
X473000Y208000D03*
X476000D03*
X453500Y212000D03*
X456500D03*
X442500Y218500D03*
X445500D03*
X430000Y210000D03*
X432500Y208000D03*
X435500D03*
X417500D03*
X420500D03*
X423500D03*
X407500Y218000D03*
X410500D03*
X413500D03*
G54D72*X327500Y155000D03*
X337500D03*
X347500D03*
X357500D03*
X297500D03*
X307500D03*
X317500D03*
X267500Y110000D03*
X277500D03*
X267500Y100000D03*
X277500D03*
X337500Y110000D03*
X327500D03*
X317500D03*
X307500D03*
X297500D03*
X367500D03*
X357500D03*
X347500D03*
X367500Y35000D03*
X357500D03*
X347500D03*
X337500D03*
X327500D03*
X317500D03*
X307500D03*
X297500D03*
X100000Y230000D03*
Y220000D03*
X90000D03*
Y230000D03*
Y110000D03*
Y100000D03*
X100000D03*
Y110000D03*
G54D74*G36*
X165700Y83300D02*Y76700D01*
X172300D01*
Y83300D01*
X165700D01*
G37*
G54D72*X169000Y70000D03*
Y60000D03*
Y50000D03*
Y40000D03*
Y30000D03*
X188500Y75000D03*
Y55000D03*
G54D74*G36*
X165700Y203300D02*Y196700D01*
X172300D01*
Y203300D01*
X165700D01*
G37*
G54D72*X169000Y190000D03*
Y180000D03*
Y170000D03*
Y160000D03*
Y150000D03*
G54D74*G36*
X165700Y323300D02*Y316700D01*
X172300D01*
Y323300D01*
X165700D01*
G37*
G54D72*X188500Y315000D03*
X169000Y310000D03*
Y300000D03*
X188500Y295000D03*
X169000Y290000D03*
G54D74*G36*
X155700Y294300D02*Y285700D01*
X164300D01*
Y294300D01*
X155700D01*
G37*
G54D72*X169000Y280000D03*
Y270000D03*
X90000Y350000D03*
Y340000D03*
X100000D03*
Y350000D03*
G54D74*G36*
X86950Y303050D02*Y296950D01*
X93050D01*
Y303050D01*
X86950D01*
G37*
G54D75*X130000Y300000D03*
G54D76*X100000Y290000D03*
G54D75*Y300000D03*
G54D74*G36*
X85700Y294300D02*Y285700D01*
X94300D01*
Y294300D01*
X85700D01*
G37*
G54D76*X150000Y290000D03*
G54D74*G36*
X136950Y303050D02*Y296950D01*
X143050D01*
Y303050D01*
X136950D01*
G37*
G54D72*X297500Y230000D03*
X277500D03*
Y220000D03*
X267500D03*
Y230000D03*
Y350000D03*
Y340000D03*
X277500D03*
Y350000D03*
X297500D03*
Y275000D03*
X367500D03*
Y350000D03*
X357500Y275000D03*
X347500D03*
X337500D03*
X327500D03*
X317500D03*
X307500D03*
X357500Y350000D03*
X347500D03*
X337500D03*
X327500D03*
X317500D03*
X307500D03*
G54D77*X425500Y153500D03*
Y157000D03*
Y160500D03*
Y150000D03*
X430000Y157000D03*
Y160500D03*
Y150000D03*
Y153500D03*
M02*
