G04 start of page 9 for group 7 idx 7 *
G04 Title: (unknown), spare *
G04 Creator: pcb 4.2.0 *
G04 CreationDate: Tue Jul 14 02:55:31 2020 UTC *
G04 For: commonadmin *
G04 Format: Gerber/RS-274X *
G04 PCB-Dimensions (mil): 24000.00 18000.00 *
G04 PCB-Coordinate-Origin: lower left *
%MOIN*%
%FSLAX25Y25*%
%LNGROUP7*%
%ADD207C,0.1870*%
%ADD206C,0.0354*%
%ADD205C,0.0630*%
%ADD204C,0.0380*%
%ADD203C,0.0886*%
%ADD202C,0.0295*%
%ADD201C,0.0492*%
%ADD200C,0.0197*%
%ADD199C,0.0787*%
%ADD198C,0.0350*%
%ADD197C,0.0118*%
%ADD196C,0.0100*%
%ADD195C,0.0240*%
%ADD194C,0.0200*%
%ADD193C,0.0551*%
%ADD192C,0.2362*%
%ADD191C,0.0512*%
%ADD190C,0.1102*%
%ADD189C,0.0906*%
%ADD188C,0.0600*%
%ADD187C,0.0001*%
%ADD186C,0.1043*%
%ADD185C,0.0472*%
%ADD184C,0.0669*%
%ADD183C,0.0394*%
%ADD182C,0.0945*%
G54D182*X791339Y229134D03*
G54D183*X785433Y225197D03*
G54D184*X794882Y221654D03*
G54D185*X788976Y222047D03*
G54D182*X791339Y370866D03*
G54D184*X794882Y363386D03*
G54D185*X788976Y363780D03*
G54D183*X785433Y366929D03*
G54D182*X791339Y355118D03*
G54D184*X794882Y347638D03*
G54D185*X788976Y348031D03*
G54D182*X791339Y339370D03*
G54D184*X794882Y331890D03*
G54D185*X788976Y332283D03*
G54D183*X785433Y335433D03*
Y351181D03*
G54D182*X791339Y323622D03*
G54D183*X785433Y319685D03*
G54D184*X794882Y316142D03*
G54D185*X788976Y316535D03*
G54D182*X791339Y307874D03*
G54D184*X794882Y300394D03*
G54D185*X788976Y300787D03*
G54D183*X785433Y303937D03*
G54D182*X791339Y292126D03*
G54D186*X734252Y330453D03*
X719488D03*
X734252Y297953D03*
X719488D03*
Y265453D03*
G54D184*X794882Y284646D03*
G54D185*X788976Y285039D03*
G54D182*X791339Y276378D03*
G54D183*X785433Y272441D03*
Y288189D03*
G54D184*X794882Y268898D03*
G54D185*X788976Y269291D03*
G54D182*X791339Y260630D03*
G54D184*X794882Y253150D03*
G54D185*X788976Y253543D03*
G54D183*X785433Y256693D03*
G54D182*X791339Y244882D03*
G54D184*X794882Y237402D03*
G54D185*X788976Y237795D03*
G54D183*X785433Y240945D03*
G54D182*X791339Y607087D03*
G54D184*X794882Y599606D03*
G54D185*X788976Y600000D03*
G54D183*X785433Y603150D03*
G54D182*X791339Y591339D03*
G54D184*X794882Y583858D03*
G54D185*X788976Y584252D03*
G54D183*X785433Y587402D03*
G54D182*X791339Y465354D03*
G54D184*X794882Y457874D03*
G54D185*X788976Y458268D03*
G54D183*X785433Y461417D03*
G54D182*X791339Y449606D03*
G54D184*X794882Y442126D03*
G54D185*X788976Y442520D03*
G54D183*X785433Y445669D03*
G54D182*X791339Y481102D03*
G54D184*X794882Y473622D03*
G54D185*X788976Y474016D03*
G54D183*X785433Y477165D03*
G54D182*X791339Y496850D03*
G54D184*X794882Y489370D03*
G54D185*X788976Y489764D03*
G54D183*X785433Y492913D03*
G54D182*X791339Y512598D03*
Y528346D03*
G54D184*X794882Y520866D03*
G54D185*X788976Y521260D03*
G54D183*X785433Y524409D03*
G54D184*X794882Y505118D03*
G54D185*X788976Y505512D03*
G54D183*X785433Y508661D03*
G54D182*X791339Y575591D03*
G54D184*X794882Y568110D03*
G54D182*X791339Y559843D03*
G54D183*X785433Y555906D03*
G54D185*X788976Y568504D03*
G54D183*X785433Y571654D03*
G54D184*X794882Y552362D03*
G54D185*X788976Y552756D03*
G54D182*X791339Y544094D03*
G54D184*X794882Y536614D03*
G54D185*X788976Y537008D03*
G54D183*X785433Y540157D03*
G54D182*X791339Y433858D03*
G54D184*X794882Y426378D03*
G54D185*X788976Y426772D03*
G54D183*X785433Y429921D03*
Y414173D03*
G54D182*X791339Y418110D03*
G54D184*X794882Y410630D03*
G54D185*X788976Y411024D03*
G54D182*X791339Y402362D03*
G54D184*X794882Y394882D03*
G54D185*X788976Y395276D03*
G54D182*X791339Y386614D03*
G54D184*X794882Y379134D03*
G54D185*X788976Y379528D03*
G54D183*X785433Y382677D03*
Y398425D03*
G54D186*X734252Y395453D03*
Y427953D03*
Y460453D03*
Y492953D03*
Y525453D03*
Y557953D03*
Y590453D03*
Y265453D03*
Y362953D03*
X719488D03*
Y395453D03*
Y427953D03*
Y460453D03*
Y492953D03*
Y525453D03*
Y557953D03*
Y590453D03*
G54D187*G36*
X757000Y653000D02*Y647000D01*
X763000D01*
Y653000D01*
X757000D01*
G37*
G54D188*X770000Y650000D03*
X760000Y640000D03*
X770000D03*
G54D189*X671260Y484055D03*
Y464370D03*
Y444685D03*
Y425000D03*
Y405315D03*
Y385630D03*
Y365945D03*
Y346260D03*
G54D186*X682087Y330531D03*
Y298031D03*
Y265531D03*
Y363031D03*
Y395531D03*
Y428031D03*
Y460531D03*
Y493031D03*
G54D187*G36*
X580000Y653000D02*Y647000D01*
X586000D01*
Y653000D01*
X580000D01*
G37*
G54D188*X583000Y640000D03*
X593000D03*
Y650000D03*
G54D187*G36*
X688000Y693500D02*Y687500D01*
X694000D01*
Y693500D01*
X688000D01*
G37*
G54D188*X691000Y680500D03*
Y670500D03*
G54D187*G36*
X658500Y693000D02*Y687000D01*
X664500D01*
Y693000D01*
X658500D01*
G37*
G54D188*X661500Y680000D03*
Y670000D03*
X691000Y660500D03*
X661500Y660000D03*
X691000Y650500D03*
X661500Y650000D03*
X691000Y640500D03*
X661500Y640000D03*
X691000Y630500D03*
X661500Y630000D03*
X691000Y620500D03*
X661500Y620000D03*
G54D189*X633858Y503740D03*
Y484055D03*
Y464370D03*
Y444685D03*
Y425000D03*
Y405315D03*
Y385630D03*
X594488Y503740D03*
Y484055D03*
Y464370D03*
Y444685D03*
Y425000D03*
Y405315D03*
Y385630D03*
Y365945D03*
Y346260D03*
G54D188*X595000Y329500D03*
Y319500D03*
X605000D03*
Y329500D03*
X615000Y319500D03*
Y329500D03*
X625000Y319500D03*
X635000D03*
X645000D03*
X655000D03*
X665000D03*
X625000Y329500D03*
X635000D03*
X645000D03*
X655000D03*
X665000D03*
G54D189*X633858Y365945D03*
Y346260D03*
G54D187*G36*
X572000Y299000D02*Y293000D01*
X578000D01*
Y299000D01*
X572000D01*
G37*
G54D188*X585000Y296000D03*
X595000D03*
X575000Y306000D03*
X585000D03*
X595000D03*
X605000D03*
X615000D03*
X625000D03*
G54D187*G36*
X572000Y322500D02*Y316500D01*
X578000D01*
Y322500D01*
X572000D01*
G37*
G54D188*X575000Y329500D03*
X585000Y319500D03*
Y329500D03*
X605000Y296000D03*
X615000D03*
X625000D03*
X635000Y306000D03*
X645000D03*
X655000D03*
X635000Y296000D03*
X645000D03*
X655000D03*
X665000D03*
Y306000D03*
G54D184*X523504Y456787D03*
Y507181D03*
Y442181D03*
G54D190*X510000Y507969D03*
G54D191*X487520Y509543D03*
Y499504D03*
G54D190*X510000Y456000D03*
Y442969D03*
G54D191*X513543Y479976D03*
Y488008D03*
Y496039D03*
X506457Y483992D03*
Y492024D03*
Y475961D03*
X513543Y471945D03*
X487520Y464465D03*
Y454425D03*
X506457Y467929D03*
X487520Y444543D03*
X472480Y454425D03*
Y464465D03*
Y434504D03*
Y444543D03*
Y499504D03*
Y509543D03*
G54D184*X436496Y507181D03*
G54D190*X450000Y507969D03*
G54D191*X446457Y483992D03*
X453543Y479976D03*
Y488008D03*
X446457Y492024D03*
X453543Y496039D03*
G54D192*X434252Y532283D03*
X462598D03*
G54D191*X446457Y475961D03*
X453543Y471945D03*
G54D184*X436496Y456787D03*
G54D190*X450000Y456000D03*
G54D191*X446457Y467929D03*
G54D184*X436496Y442181D03*
G54D190*X450000Y442969D03*
G54D182*X488189Y522441D03*
Y538189D03*
G54D188*X498610Y547930D03*
Y559430D03*
X508610Y557930D03*
Y549430D03*
X518610Y547930D03*
G54D191*X506457Y362024D03*
X487520Y379543D03*
Y369504D03*
Y399465D03*
Y389425D03*
X513543Y414976D03*
Y406945D03*
Y423008D03*
Y431039D03*
X487520Y434504D03*
X506457Y418992D03*
Y427024D03*
Y410961D03*
Y402929D03*
G54D184*X523504Y377181D03*
G54D190*X510000Y377969D03*
G54D191*X513543Y349976D03*
Y358008D03*
Y366039D03*
Y341945D03*
X506457Y353992D03*
Y345961D03*
Y337929D03*
G54D184*X523504Y391787D03*
G54D190*X510000Y391000D03*
G54D191*X487520Y334465D03*
Y324425D03*
G54D184*X523504Y326787D03*
G54D190*X510000Y326000D03*
G54D191*X453543Y341945D03*
G54D184*X436496Y326787D03*
G54D190*X450000Y326000D03*
G54D191*X472480Y324425D03*
Y334465D03*
Y369504D03*
Y379543D03*
Y389425D03*
Y399465D03*
X446457Y345961D03*
Y418992D03*
Y427024D03*
Y410961D03*
Y402929D03*
Y337929D03*
X453543Y349976D03*
Y414976D03*
Y406945D03*
Y423008D03*
Y431039D03*
G54D184*X436496Y377181D03*
G54D190*X450000Y377969D03*
G54D191*X446457Y353992D03*
Y362024D03*
X453543Y358008D03*
Y366039D03*
G54D184*X436496Y391787D03*
G54D190*X450000Y391000D03*
G54D182*X523622Y585433D03*
G54D193*Y601181D03*
X507874Y585433D03*
X515748Y599016D03*
X509843Y593110D03*
X523622Y569685D03*
X539370Y585433D03*
X531496Y571850D03*
X537402Y577756D03*
X531496Y599016D03*
X515748Y571850D03*
G54D188*X518610Y559430D03*
G54D193*X509843Y577756D03*
X537402Y593110D03*
G54D182*X559055Y538189D03*
Y522441D03*
G54D188*X538610Y547930D03*
X548610Y549430D03*
Y557930D03*
X528610Y549430D03*
Y557930D03*
X538610Y559430D03*
G54D182*X574803Y522441D03*
Y538189D03*
G54D188*X585232Y547933D03*
Y559433D03*
G54D182*X645669Y538189D03*
Y522441D03*
G54D188*X635232Y549433D03*
Y557933D03*
G54D189*X671260Y503740D03*
G54D186*X682087Y525531D03*
Y558031D03*
Y590531D03*
G54D182*X610236Y585433D03*
G54D193*Y601181D03*
X594488Y585433D03*
X602362Y599016D03*
X596457Y593110D03*
X610236Y569685D03*
X625984Y585433D03*
X618110Y571850D03*
X624016Y577756D03*
G54D188*X625232Y559433D03*
G54D193*X618110Y599016D03*
X624016Y593110D03*
X602362Y571850D03*
X596457Y577756D03*
G54D188*X595232Y557933D03*
X605232Y559433D03*
X615232Y557933D03*
X595232Y549433D03*
X605232Y547933D03*
X615232Y549433D03*
X625232Y547933D03*
X330000Y420000D03*
X340000D03*
X350000D03*
X360000D03*
X370000D03*
X380000D03*
X390000D03*
X400000D03*
X330000Y495000D03*
X340000D03*
X350000D03*
X360000D03*
X370000D03*
X380000D03*
X390000D03*
X400000D03*
Y540000D03*
X390000D03*
X380000D03*
X370000D03*
X360000D03*
X350000D03*
X340000D03*
X330000D03*
X240000Y420000D03*
X250000D03*
X260000D03*
X270000D03*
X221000D03*
Y430000D03*
X280000Y420000D03*
X290000D03*
X300000D03*
X310000D03*
X221000Y440000D03*
Y450000D03*
Y460000D03*
Y470000D03*
X240000D03*
X250000D03*
X260000D03*
X270000D03*
X280000D03*
X290000D03*
X300000D03*
X310000D03*
Y495000D03*
X300000D03*
X310000Y485000D03*
X300000D03*
X271000D03*
X261000D03*
X251000D03*
X241000D03*
X271000Y495000D03*
X261000D03*
X251000D03*
X241000D03*
X231000D03*
Y485000D03*
X201500Y495000D03*
Y485000D03*
X191500Y495000D03*
Y485000D03*
X181500Y495000D03*
Y485000D03*
X171500Y495000D03*
Y485000D03*
X161500Y495000D03*
X132500D03*
X161500Y485000D03*
X132500D03*
X122500D03*
Y495000D03*
X107500D03*
X97500D03*
X87500D03*
X77500D03*
X67500D03*
X57500D03*
X171500Y615000D03*
X181500Y605000D03*
X191500D03*
X201500D03*
X181500Y615000D03*
X191500D03*
X201500D03*
X231000D03*
X241000D03*
X251000D03*
X400000D03*
X390000D03*
X380000D03*
X370000D03*
X360000D03*
X350000D03*
X340000D03*
X330000D03*
X261000D03*
X271000D03*
X300000D03*
X310000D03*
X271000Y605000D03*
X290000Y590000D03*
X280000D03*
X300000Y605000D03*
X310000D03*
Y590000D03*
X300000D03*
X270000D03*
X310000Y540000D03*
X300000D03*
X290000D03*
X280000D03*
X270000D03*
X231000Y605000D03*
X241000D03*
X251000D03*
X261000D03*
X260000Y590000D03*
X250000D03*
X240000D03*
X221000D03*
Y580000D03*
Y570000D03*
Y560000D03*
Y550000D03*
Y540000D03*
X260000D03*
X250000D03*
X240000D03*
X330000Y300000D03*
X340000D03*
X350000D03*
X360000D03*
X370000D03*
X380000D03*
X390000D03*
X400000D03*
X240000D03*
X250000D03*
X260000D03*
X270000D03*
X280000D03*
X290000D03*
X300000D03*
X310000D03*
X221000D03*
Y310000D03*
Y320000D03*
Y330000D03*
Y340000D03*
Y350000D03*
X240000D03*
X250000D03*
X260000D03*
X270000D03*
X280000D03*
X290000D03*
X300000D03*
X310000D03*
X330000Y375000D03*
X310000D03*
Y365000D03*
X340000Y375000D03*
X350000D03*
X360000D03*
X370000D03*
X380000D03*
X390000D03*
X400000D03*
X300000Y365000D03*
Y375000D03*
X271000D03*
Y365000D03*
X261000Y375000D03*
X251000D03*
X241000D03*
X231000D03*
X261000Y365000D03*
X251000D03*
X241000D03*
X231000D03*
X201500D03*
X191500D03*
X201500Y375000D03*
X191500D03*
X181500D03*
Y365000D03*
X171500Y375000D03*
X161500D03*
X171500Y365000D03*
X161500D03*
X132500D03*
X122500D03*
X132500Y375000D03*
X122500D03*
X107500D03*
X97500D03*
X87500D03*
X77500D03*
X67500D03*
X57500D03*
G54D192*X66654Y736000D03*
X95000D03*
X66654Y704000D03*
X95000D03*
X66654Y672000D03*
X95000D03*
X66654Y640000D03*
X95000D03*
G54D188*X57500Y615000D03*
X67500D03*
X77500D03*
X87500D03*
X97500D03*
X107500D03*
X122500D03*
Y605000D03*
X132500D03*
Y615000D03*
X161500Y605000D03*
Y615000D03*
X171500Y605000D03*
G54D194*X458000Y455500D03*
X461500D03*
X528000Y461500D03*
X531000D03*
X537500Y464500D03*
X534000Y468000D03*
X480500Y482000D03*
X481500Y485500D03*
X531000Y474000D03*
X528000Y476500D03*
X525000Y472500D03*
X521500Y481000D03*
X518000Y431000D03*
X501500Y412000D03*
X511500Y435500D03*
X521500Y431000D03*
X479000Y426500D03*
Y433000D03*
X525000Y431000D03*
X528500D03*
X532000D03*
X535500D03*
X576500Y341800D03*
G54D195*X578400Y345200D03*
G54D194*X573700Y341000D03*
X583600Y335900D03*
X588000D03*
X582400Y341700D03*
X591500Y338000D03*
G54D195*X589700Y342000D03*
G54D188*X610000Y347000D03*
G54D194*X584800Y342800D03*
X570600Y340100D03*
X597000Y357000D03*
X614000Y356500D03*
X622500D03*
X468000Y468000D03*
X465000Y466500D03*
X458000Y481000D03*
X471500Y478000D03*
X465000Y480500D03*
X471500Y487500D03*
X472500Y491500D03*
X423000Y493500D03*
X438500Y489500D03*
X465000Y494000D03*
X469500Y493500D03*
X440500Y499000D03*
X461500Y496000D03*
X459000Y510000D03*
X462000Y500500D03*
X494500Y508000D03*
X497500Y504500D03*
X477000Y481000D03*
Y489500D03*
X458000Y403000D03*
X461500D03*
X465000D03*
X458000Y431000D03*
X461500D03*
X465000Y426500D03*
X475500Y404500D03*
X472000D03*
X468500Y416000D03*
X472000Y420000D03*
X475500Y416000D03*
X479000Y412500D03*
X468500Y402000D03*
X449000Y399500D03*
X442500Y397500D03*
X459414Y391086D03*
X458000Y366000D03*
X461500D03*
X464500Y338000D03*
X458000D03*
X461500D03*
X467500D03*
X464500Y361500D03*
X444000Y366000D03*
X467500Y356500D03*
X470500Y353000D03*
X474000Y351500D03*
X470500Y343500D03*
X474000D03*
X518000Y366000D03*
X521500D03*
X525000D03*
X528000D03*
X531000D03*
X534000D03*
X495000Y500500D03*
X528000Y501500D03*
X531000D03*
X518500Y494000D03*
X552362Y564961D03*
G54D195*X550787Y538189D03*
G54D194*X546850Y562598D03*
X633465D03*
X638976Y564961D03*
X543701Y570472D03*
X540551Y573622D03*
X588583Y568504D03*
X627165Y573622D03*
X630315Y570472D03*
X607480Y529921D03*
X622835Y530315D03*
X611811Y537795D03*
X601969Y539370D03*
X590157Y545276D03*
X588189Y542913D03*
X604724Y538189D03*
X583465Y537795D03*
X616535Y539764D03*
X619685D03*
G54D195*X637402Y538189D03*
G54D194*X496850Y537795D03*
X501575Y542913D03*
X503543Y545276D03*
X501969Y568504D03*
X518110Y538189D03*
X515354Y539370D03*
X525197Y537795D03*
X520866Y529921D03*
X536220Y530315D03*
X533071Y539764D03*
X529921D03*
X505500Y522500D03*
X511000D03*
G54D196*G54D197*G54D196*G54D197*G54D198*G54D196*G54D197*G54D196*G54D197*G54D196*G54D199*G54D200*G54D201*G54D202*G54D199*G54D201*G54D202*G54D200*G54D199*G54D201*G54D202*G54D199*G54D201*G54D202*G54D200*G54D199*G54D200*G54D201*G54D202*G54D199*G54D201*G54D202*G54D200*G54D199*G54D203*G54D201*G54D202*G54D199*G54D200*G54D201*G54D202*G54D199*G54D201*G54D202*G54D200*G54D199*G54D201*G54D202*G54D200*G54D199*G54D201*G54D202*G54D200*G54D199*G54D201*G54D202*G54D200*G54D199*G54D201*G54D202*G54D200*G54D199*G54D201*G54D202*G54D200*G54D199*G54D201*G54D202*G54D200*G54D199*G54D201*G54D202*G54D200*G54D199*G54D201*G54D202*G54D200*G54D201*G54D202*G54D200*G54D199*G54D201*G54D199*G54D200*G54D202*G54D200*G54D201*G54D202*G54D199*G54D201*G54D202*G54D200*G54D199*G54D201*G54D202*G54D200*G54D199*G54D201*G54D202*G54D199*G54D201*G54D202*G54D199*G54D201*G54D202*G54D200*G54D203*G54D204*G54D205*G54D203*G54D204*G54D205*G54D204*G54D205*G54D204*G54D191*G54D182*G54D206*G54D182*G54D206*G54D191*G54D182*G54D206*G54D207*G54D206*G54D191*G54D182*G54D206*G54D191*G54D182*G54D199*G54D204*G54D206*G54D191*G54D182*G54D206*G54D191*G54D182*G54D206*G54D191*G54D182*G54D206*G54D191*G54D182*G54D206*G54D191*G54D182*G54D206*G54D191*G54D182*G54D199*G54D183*G54D204*G54D183*G54D199*G54D204*G54D199*G54D204*G54D199*G54D204*G54D205*G54D203*G54D199*G54D183*G54D204*G54D183*G54D204*G54D207*G54D204*M02*
