G04 start of page 9 for group 7 idx 7 *
G04 Title: (unknown), spare *
G04 Creator: pcb 4.2.0 *
G04 CreationDate: Mon Jul 20 21:55:51 2020 UTC *
G04 For: commonadmin *
G04 Format: Gerber/RS-274X *
G04 PCB-Dimensions (mil): 24000.00 18000.00 *
G04 PCB-Coordinate-Origin: lower left *
%MOIN*%
%FSLAX25Y25*%
%LNGROUP7*%
%ADD207C,0.1870*%
%ADD206C,0.0354*%
%ADD205C,0.0630*%
%ADD204C,0.0380*%
%ADD203C,0.0886*%
%ADD202C,0.0295*%
%ADD201C,0.0492*%
%ADD200C,0.0197*%
%ADD199C,0.0787*%
%ADD198C,0.0350*%
%ADD197C,0.0118*%
%ADD196C,0.0100*%
%ADD195C,0.0240*%
%ADD194C,0.0200*%
%ADD193C,0.0551*%
%ADD192C,0.2362*%
%ADD191C,0.0512*%
%ADD190C,0.1102*%
%ADD189C,0.0906*%
%ADD188C,0.0600*%
%ADD187C,0.0001*%
%ADD186C,0.1043*%
%ADD185C,0.0472*%
%ADD184C,0.0669*%
%ADD183C,0.0394*%
%ADD182C,0.0945*%
G54D182*X791339Y229134D03*
G54D183*X785433Y225197D03*
G54D184*X794882Y221654D03*
G54D185*X788976Y222047D03*
G54D182*X791339Y370866D03*
G54D184*X794882Y363386D03*
G54D185*X788976Y363780D03*
G54D183*X785433Y366929D03*
G54D182*X791339Y355118D03*
G54D184*X794882Y347638D03*
G54D185*X788976Y348031D03*
G54D182*X791339Y339370D03*
G54D184*X794882Y331890D03*
G54D185*X788976Y332283D03*
G54D183*X785433Y335433D03*
Y351181D03*
G54D182*X791339Y323622D03*
G54D183*X785433Y319685D03*
G54D184*X794882Y316142D03*
G54D185*X788976Y316535D03*
G54D182*X791339Y307874D03*
G54D184*X794882Y300394D03*
G54D185*X788976Y300787D03*
G54D183*X785433Y303937D03*
G54D182*X791339Y292126D03*
G54D186*X734252Y330453D03*
X719488D03*
X734252Y297953D03*
X719488D03*
Y265453D03*
G54D184*X794882Y284646D03*
G54D185*X788976Y285039D03*
G54D182*X791339Y276378D03*
G54D183*X785433Y272441D03*
Y288189D03*
G54D184*X794882Y268898D03*
G54D185*X788976Y269291D03*
G54D182*X791339Y260630D03*
G54D184*X794882Y253150D03*
G54D185*X788976Y253543D03*
G54D183*X785433Y256693D03*
G54D182*X791339Y244882D03*
G54D184*X794882Y237402D03*
G54D185*X788976Y237795D03*
G54D183*X785433Y240945D03*
G54D182*X791339Y607087D03*
G54D184*X794882Y599606D03*
G54D185*X788976Y600000D03*
G54D183*X785433Y603150D03*
G54D182*X791339Y591339D03*
G54D184*X794882Y583858D03*
G54D185*X788976Y584252D03*
G54D183*X785433Y587402D03*
G54D182*X791339Y465354D03*
G54D184*X794882Y457874D03*
G54D185*X788976Y458268D03*
G54D183*X785433Y461417D03*
G54D182*X791339Y449606D03*
G54D184*X794882Y442126D03*
G54D185*X788976Y442520D03*
G54D183*X785433Y445669D03*
G54D182*X791339Y481102D03*
G54D184*X794882Y473622D03*
G54D185*X788976Y474016D03*
G54D183*X785433Y477165D03*
G54D182*X791339Y496850D03*
G54D184*X794882Y489370D03*
G54D185*X788976Y489764D03*
G54D183*X785433Y492913D03*
G54D182*X791339Y512598D03*
Y528346D03*
G54D184*X794882Y520866D03*
G54D185*X788976Y521260D03*
G54D183*X785433Y524409D03*
G54D184*X794882Y505118D03*
G54D185*X788976Y505512D03*
G54D183*X785433Y508661D03*
G54D182*X791339Y575591D03*
G54D184*X794882Y568110D03*
G54D182*X791339Y559843D03*
G54D183*X785433Y555906D03*
G54D185*X788976Y568504D03*
G54D183*X785433Y571654D03*
G54D184*X794882Y552362D03*
G54D185*X788976Y552756D03*
G54D182*X791339Y544094D03*
G54D184*X794882Y536614D03*
G54D185*X788976Y537008D03*
G54D183*X785433Y540157D03*
G54D182*X791339Y433858D03*
G54D184*X794882Y426378D03*
G54D185*X788976Y426772D03*
G54D183*X785433Y429921D03*
Y414173D03*
G54D182*X791339Y418110D03*
G54D184*X794882Y410630D03*
G54D185*X788976Y411024D03*
G54D182*X791339Y402362D03*
G54D184*X794882Y394882D03*
G54D185*X788976Y395276D03*
G54D182*X791339Y386614D03*
G54D184*X794882Y379134D03*
G54D185*X788976Y379528D03*
G54D183*X785433Y382677D03*
Y398425D03*
G54D186*X734252Y395453D03*
Y427953D03*
Y460453D03*
Y492953D03*
Y525453D03*
Y557953D03*
Y590453D03*
Y265453D03*
Y362953D03*
X719488D03*
Y395453D03*
Y427953D03*
Y460453D03*
Y492953D03*
Y525453D03*
Y557953D03*
Y590453D03*
G54D187*G36*
X757000Y653000D02*Y647000D01*
X763000D01*
Y653000D01*
X757000D01*
G37*
G54D188*X770000Y650000D03*
X760000Y640000D03*
X770000D03*
G54D189*X633858Y484055D03*
Y464370D03*
Y444685D03*
Y425000D03*
Y405315D03*
Y385630D03*
Y365945D03*
G54D186*X682087Y363031D03*
G54D189*X671260Y365945D03*
Y346260D03*
G54D186*X682087Y395531D03*
Y428031D03*
Y460531D03*
G54D189*X671260Y503740D03*
Y484055D03*
Y464370D03*
Y444685D03*
Y425000D03*
Y405315D03*
Y385630D03*
X633858Y346260D03*
X594488Y444685D03*
Y425000D03*
Y405315D03*
Y385630D03*
Y365945D03*
Y346260D03*
G54D186*X682087Y330531D03*
Y298031D03*
Y265531D03*
G54D188*X615000Y296000D03*
X625000D03*
X635000D03*
X645000D03*
X655000D03*
X665000D03*
X635000Y306000D03*
X645000D03*
X655000D03*
X665000D03*
X615000Y319500D03*
Y329500D03*
X625000D03*
X635000D03*
X645000D03*
X655000D03*
X665000D03*
X625000Y319500D03*
X635000D03*
X645000D03*
X655000D03*
X665000D03*
G54D187*G36*
X688000Y693000D02*Y687000D01*
X694000D01*
Y693000D01*
X688000D01*
G37*
G54D188*X691000Y680000D03*
Y670000D03*
Y660000D03*
Y650000D03*
Y640000D03*
Y630000D03*
Y620000D03*
G54D187*G36*
X658500Y693000D02*Y687000D01*
X664500D01*
Y693000D01*
X658500D01*
G37*
G54D188*X661500Y680000D03*
Y670000D03*
Y660000D03*
Y650000D03*
Y640000D03*
Y630000D03*
Y620000D03*
G54D187*G36*
X580000Y653000D02*Y647000D01*
X586000D01*
Y653000D01*
X580000D01*
G37*
G54D188*X583000Y640000D03*
X593000D03*
Y650000D03*
G54D189*X594488Y503740D03*
Y484055D03*
Y464370D03*
G54D187*G36*
X572000Y299000D02*Y293000D01*
X578000D01*
Y299000D01*
X572000D01*
G37*
G54D188*X585000Y296000D03*
X595000D03*
X605000D03*
Y319500D03*
Y329500D03*
Y306000D03*
X615000D03*
X625000D03*
X575000D03*
X585000D03*
X595000D03*
G54D187*G36*
X572000Y322500D02*Y316500D01*
X578000D01*
Y322500D01*
X572000D01*
G37*
G54D188*X585000Y319500D03*
X595000D03*
X575000Y329500D03*
X585000D03*
X595000D03*
G54D184*X523504Y456787D03*
Y507181D03*
Y442181D03*
G54D190*X510000Y507969D03*
G54D191*X487520Y509543D03*
Y499504D03*
G54D190*X510000Y456000D03*
Y442969D03*
G54D191*X513543Y479976D03*
Y488008D03*
Y496039D03*
X506457Y483992D03*
Y492024D03*
Y475961D03*
X513543Y471945D03*
X487520Y464465D03*
Y454425D03*
X506457Y467929D03*
X487520Y444543D03*
X472480Y454425D03*
Y464465D03*
Y434504D03*
Y444543D03*
Y499504D03*
Y509543D03*
G54D184*X436496Y507181D03*
G54D190*X450000Y507969D03*
G54D191*X446457Y483992D03*
X453543Y479976D03*
Y488008D03*
X446457Y492024D03*
X453543Y496039D03*
G54D192*X434252Y532283D03*
X462598D03*
G54D191*X446457Y475961D03*
X453543Y471945D03*
G54D184*X436496Y456787D03*
G54D190*X450000Y456000D03*
G54D191*X446457Y467929D03*
G54D184*X436496Y442181D03*
G54D190*X450000Y442969D03*
G54D182*X488189Y522441D03*
Y538189D03*
G54D188*X498610Y547930D03*
Y559430D03*
X508610Y557930D03*
Y549430D03*
X518610Y547930D03*
G54D191*X506457Y362024D03*
X487520Y379543D03*
Y369504D03*
Y399465D03*
Y389425D03*
X513543Y414976D03*
Y406945D03*
Y423008D03*
Y431039D03*
X487520Y434504D03*
X506457Y418992D03*
Y427024D03*
Y410961D03*
Y402929D03*
G54D184*X523504Y377181D03*
G54D190*X510000Y377969D03*
G54D191*X513543Y349976D03*
Y358008D03*
Y366039D03*
Y341945D03*
X506457Y353992D03*
Y345961D03*
Y337929D03*
G54D184*X523504Y391787D03*
G54D190*X510000Y391000D03*
G54D191*X487520Y334465D03*
Y324425D03*
G54D184*X523504Y326787D03*
G54D190*X510000Y326000D03*
G54D191*X453543Y341945D03*
G54D184*X436496Y326787D03*
G54D190*X450000Y326000D03*
G54D191*X472480Y324425D03*
Y334465D03*
Y369504D03*
Y379543D03*
Y389425D03*
Y399465D03*
X446457Y345961D03*
Y418992D03*
Y427024D03*
Y410961D03*
Y402929D03*
Y337929D03*
X453543Y349976D03*
Y414976D03*
Y406945D03*
Y423008D03*
Y431039D03*
G54D184*X436496Y377181D03*
G54D190*X450000Y377969D03*
G54D191*X446457Y353992D03*
Y362024D03*
X453543Y358008D03*
Y366039D03*
G54D184*X436496Y391787D03*
G54D190*X450000Y391000D03*
G54D182*X523622Y585433D03*
G54D193*Y601181D03*
X507874Y585433D03*
X515748Y599016D03*
X509843Y593110D03*
X523622Y569685D03*
X539370Y585433D03*
X531496Y571850D03*
X537402Y577756D03*
X531496Y599016D03*
X515748Y571850D03*
G54D188*X518610Y559430D03*
G54D193*X509843Y577756D03*
X537402Y593110D03*
G54D182*X559055Y538189D03*
Y522441D03*
G54D188*X538610Y547930D03*
X548610Y549430D03*
Y557930D03*
X528610Y549430D03*
Y557930D03*
X538610Y559430D03*
G54D182*X574803Y522441D03*
Y538189D03*
G54D188*X585232Y547933D03*
Y559433D03*
G54D182*X645669Y538189D03*
Y522441D03*
G54D188*X635232Y549433D03*
Y557933D03*
G54D189*X633858Y503740D03*
G54D182*X610236Y585433D03*
G54D193*Y601181D03*
X594488Y585433D03*
X602362Y599016D03*
X596457Y593110D03*
X610236Y569685D03*
X625984Y585433D03*
X618110Y571850D03*
X624016Y577756D03*
G54D188*X625232Y559433D03*
G54D193*X618110Y599016D03*
X624016Y593110D03*
X602362Y571850D03*
X596457Y577756D03*
G54D188*X595232Y557933D03*
X605232Y559433D03*
X615232Y557933D03*
X595232Y549433D03*
X605232Y547933D03*
X615232Y549433D03*
X625232Y547933D03*
G54D186*X682087Y493031D03*
Y525531D03*
Y558031D03*
Y590531D03*
G54D192*X24654Y736000D03*
X53000D03*
X24654Y704000D03*
Y672000D03*
Y640000D03*
G54D188*X15500Y615000D03*
X25500D03*
X35500D03*
G54D192*X53000Y704000D03*
Y672000D03*
Y640000D03*
G54D188*X45500Y615000D03*
X55500D03*
X65500D03*
X80500D03*
Y605000D03*
X90500D03*
Y615000D03*
X119500Y605000D03*
Y615000D03*
X129500Y605000D03*
Y615000D03*
X139500Y605000D03*
Y615000D03*
X149500D03*
X159500D03*
X149500Y605000D03*
X159500D03*
X189000D03*
X199000D03*
X209000D03*
X219000D03*
X189000Y615000D03*
X199000D03*
X209000D03*
X219000D03*
X228000Y590000D03*
X218000D03*
X208000D03*
X198000D03*
X179000D03*
X229000Y605000D03*
X258000D03*
X268000D03*
X229000Y615000D03*
X258000D03*
X268000D03*
Y590000D03*
X258000D03*
X248000D03*
X238000D03*
X268000Y540000D03*
X258000D03*
X248000D03*
X238000D03*
X179000Y580000D03*
Y570000D03*
Y560000D03*
Y550000D03*
Y540000D03*
X228000D03*
X218000D03*
X208000D03*
X198000D03*
X288000Y300000D03*
X298000D03*
X308000D03*
X318000D03*
X328000D03*
X338000D03*
X348000D03*
X358000D03*
X198000D03*
X208000D03*
X218000D03*
X228000D03*
X238000D03*
X248000D03*
X258000D03*
X268000D03*
X288000Y375000D03*
X268000D03*
Y365000D03*
X298000Y375000D03*
X308000D03*
X318000D03*
X328000D03*
X338000D03*
X348000D03*
X358000D03*
X258000Y365000D03*
Y375000D03*
X229000D03*
Y365000D03*
X358000Y540000D03*
Y615000D03*
X348000Y540000D03*
Y615000D03*
X338000D03*
X328000D03*
X318000D03*
X308000D03*
X298000D03*
X288000D03*
Y420000D03*
X298000D03*
X308000D03*
X318000D03*
X328000D03*
X338000D03*
X348000D03*
X358000D03*
X338000Y540000D03*
X328000D03*
X318000D03*
X308000D03*
X298000D03*
X288000D03*
X318000Y495000D03*
X328000D03*
X338000D03*
X348000D03*
X358000D03*
X288000D03*
X298000D03*
X308000D03*
X229000D03*
X219000D03*
X209000D03*
X268000D03*
Y485000D03*
X258000D03*
Y495000D03*
X229000Y485000D03*
X219000D03*
X209000D03*
X199000Y495000D03*
Y485000D03*
X189000D03*
Y495000D03*
X159500D03*
X149500D03*
X139500D03*
X129500D03*
X119500D03*
X159500Y485000D03*
X149500D03*
X139500D03*
X129500D03*
X119500D03*
X90500Y495000D03*
X80500D03*
X65500D03*
X90500Y485000D03*
X80500D03*
X55500Y495000D03*
X45500D03*
X35500D03*
X25500D03*
X15500D03*
X179000Y300000D03*
Y310000D03*
Y320000D03*
Y330000D03*
Y340000D03*
Y350000D03*
X198000D03*
X208000D03*
X218000D03*
X228000D03*
X238000D03*
X248000D03*
X258000D03*
X268000D03*
X219000Y375000D03*
X209000D03*
X199000D03*
X189000D03*
X219000Y365000D03*
X209000D03*
X199000D03*
X189000D03*
X159500D03*
X149500D03*
X159500Y375000D03*
X149500D03*
X139500D03*
Y365000D03*
X129500Y375000D03*
X119500D03*
X129500Y365000D03*
X119500D03*
X90500D03*
X80500D03*
X90500Y375000D03*
X80500D03*
X65500D03*
X55500D03*
X45500D03*
X35500D03*
X25500D03*
X15500D03*
X198000Y420000D03*
X179000D03*
Y430000D03*
X208000Y420000D03*
X179000Y440000D03*
Y450000D03*
Y460000D03*
Y470000D03*
X198000D03*
X218000Y420000D03*
X228000D03*
X238000D03*
X248000D03*
X258000D03*
X268000D03*
X208000Y470000D03*
X218000D03*
X228000D03*
X238000D03*
X248000D03*
X258000D03*
X268000D03*
G54D194*X495000Y500500D03*
X528000Y501500D03*
X531000D03*
X518500Y494000D03*
X525000Y501500D03*
X543500Y494500D03*
X494500Y508000D03*
X491000Y512500D03*
X497500Y504500D03*
X505500Y522500D03*
X498000Y511500D03*
X511000Y522500D03*
X517500Y512500D03*
X515354Y522441D03*
X527500Y512500D03*
X522400Y522400D03*
G54D195*X530900Y522600D03*
G54D194*X518500Y523500D03*
X546850Y562598D03*
X501969Y568504D03*
X508500Y567500D03*
X495500Y571000D03*
X518110Y538189D03*
X503543Y545276D03*
X515354Y539370D03*
X508500Y542500D03*
X500000Y540000D03*
X575000Y546000D03*
X536220Y530315D03*
X533400Y531100D03*
X547500Y525500D03*
X533071Y539764D03*
X529921D03*
X525197Y537795D03*
X520866Y529921D03*
X527800Y530300D03*
X530400Y529500D03*
X537000Y513000D03*
X627000Y497500D03*
X585500D03*
X615800Y518900D03*
X625000Y523500D03*
X626000Y531000D03*
X585000Y527500D03*
X560000Y513000D03*
X601000Y516000D03*
X595000Y512500D03*
X582500Y516000D03*
X584500Y512500D03*
X572500D03*
X552362Y564961D03*
X588583Y568504D03*
X543701Y570472D03*
X540551Y573622D03*
X548500Y536000D03*
X616535Y539764D03*
X601969Y539370D03*
X590157Y545276D03*
X588189Y542913D03*
X583465Y537795D03*
X495500Y576500D03*
X582500Y572500D03*
X607480Y529921D03*
X611811Y537795D03*
X604724Y538189D03*
X619685Y539764D03*
G54D195*X637402Y538189D03*
G54D194*X622835Y530315D03*
X631500Y537500D03*
X633661Y530500D03*
X627165Y573622D03*
X630315Y570472D03*
X633465Y562598D03*
X638976Y564961D03*
X370000Y602500D03*
X376000D03*
X373000Y595500D03*
X379000Y602500D03*
X396000D03*
X399000D03*
X536000Y601500D03*
X623000D03*
X367000Y545500D03*
X373000Y534000D03*
X370000Y499500D03*
X373000Y502000D03*
X376000Y504500D03*
X378500Y506500D03*
X398500Y540000D03*
X402000Y530500D03*
X405500Y526500D03*
Y546500D03*
X363500Y490500D03*
X429500Y481500D03*
X398500D03*
X395500Y472500D03*
X429500D03*
X363500Y414000D03*
X373000Y448000D03*
X409500Y463500D03*
X367000D03*
X409500Y490500D03*
Y448000D03*
X402000Y494500D03*
X382000Y427000D03*
X385500Y432000D03*
X382000Y375000D03*
X385500Y380000D03*
X389000Y370000D03*
X392500Y366500D03*
X430500Y432000D03*
Y427000D03*
Y407000D03*
Y419000D03*
X367000Y410000D03*
X389000Y407000D03*
X392500Y419000D03*
X675000Y458000D03*
X650500Y465000D03*
X693000Y468500D03*
X755500Y465500D03*
X728000Y470000D03*
X683500Y453000D03*
X641500Y450500D03*
X647000D03*
X588000Y455000D03*
X622500Y442500D03*
X600500Y449000D03*
X584800Y457800D03*
X588500Y461000D03*
Y474500D03*
X680000D03*
X708000Y477500D03*
X741500Y477600D03*
X745000Y474500D03*
X587000Y477500D03*
X724000Y438500D03*
X723500Y421500D03*
Y402000D03*
Y388500D03*
X711500Y444500D03*
X679500Y441500D03*
X680500Y444000D03*
X711500Y395500D03*
X734500Y410500D03*
X718000Y446500D03*
X717500Y410500D03*
X721000Y444500D03*
X689500Y421000D03*
X681500Y405500D03*
X661000Y410500D03*
X627000Y494000D03*
X643500D03*
X648500Y493000D03*
X612000Y491500D03*
X632500Y516000D03*
X628000Y512500D03*
X628500Y519000D03*
X629500Y523000D03*
X640000Y527500D03*
X674000Y493500D03*
X673000Y497500D03*
X663500Y507000D03*
X661000Y516000D03*
X665000Y512500D03*
X676500Y520000D03*
X669500Y526000D03*
X748500Y448000D03*
X752000Y444500D03*
X774000Y441000D03*
X775500Y438000D03*
X780000Y436000D03*
Y386500D03*
X762000Y451500D03*
X771000Y432000D03*
X759000Y418000D03*
X755500Y402500D03*
X689500Y516000D03*
X693000Y512500D03*
X696000Y509500D03*
X728000Y506000D03*
X683000Y507000D03*
X699000Y501000D03*
X702500Y487500D03*
X705000Y483500D03*
X693000Y493000D03*
X768000Y487500D03*
X770500Y483500D03*
X762000Y497500D03*
X759000Y482000D03*
X696000Y558000D03*
X702000D03*
X705000D03*
X693000D03*
X702000Y525500D03*
X696000Y524500D03*
X755500Y516000D03*
X759000Y512500D03*
X762000Y509500D03*
X765000Y501000D03*
X695000Y583000D03*
X741500Y542500D03*
X752000Y540000D03*
X748500Y537500D03*
X745000Y535000D03*
X689500Y554000D03*
X692000Y580000D03*
X690500Y577500D03*
X690945Y612992D03*
X687992D03*
Y603508D03*
X692000Y604500D03*
X685236Y612992D03*
Y603264D03*
X601500Y582500D03*
X585000Y594000D03*
X762000Y602500D03*
X768000D03*
Y592000D03*
X765000Y572000D03*
Y528500D03*
Y583000D03*
X762000Y578000D03*
X768000Y569000D03*
X774000Y560000D03*
X776500Y544000D03*
X774000Y580000D03*
X776500Y575500D03*
X770500Y566500D03*
X771000Y602500D03*
X774000D03*
X777000D03*
X780000Y596500D03*
X661417Y612992D03*
X664764D03*
X661000Y604000D03*
X668000Y574500D03*
X671000Y573500D03*
X672000Y571000D03*
X671500Y549000D03*
X669000Y545500D03*
G54D195*Y538500D03*
G54D194*X671500Y542000D03*
G54D195*X678000Y549000D03*
Y545500D03*
Y542000D03*
Y538500D03*
G54D194*X576500Y341800D03*
G54D195*X578400Y345200D03*
G54D194*X573700Y341000D03*
X583600Y335900D03*
X588000D03*
X582400Y341700D03*
X591500Y338000D03*
X609000Y322000D03*
X618000Y323500D03*
G54D195*X589700Y342000D03*
G54D188*X610000Y347000D03*
G54D194*X654000Y346500D03*
X584800Y342800D03*
X570600Y340100D03*
X518000Y366000D03*
X521500D03*
X525000D03*
X528000D03*
X531000D03*
X534000D03*
X572000Y366500D03*
X526500Y372500D03*
X534500Y394500D03*
X533500Y391500D03*
Y388000D03*
Y385000D03*
X578000Y386000D03*
X574500Y384500D03*
X767000Y298000D03*
Y294750D03*
Y301500D03*
Y305000D03*
X741500Y301000D03*
X745000Y311000D03*
X748500Y303000D03*
X752000Y298000D03*
X672500Y296500D03*
X363500Y305000D03*
X367000Y308000D03*
X597000Y357000D03*
X622500Y356500D03*
X620500Y363000D03*
X708000D03*
X689500Y359500D03*
X682000Y320000D03*
X699000Y392000D03*
X661000Y376000D03*
X696000Y330500D03*
X689500Y337000D03*
X693000Y320500D03*
Y355500D03*
X711500Y305500D03*
X708000Y297000D03*
X699000Y310000D03*
X719000Y320500D03*
X734000Y343500D03*
X718500Y347500D03*
X759000Y372000D03*
X755500Y355000D03*
X759000Y323500D03*
X755500Y319000D03*
X759000Y315500D03*
X426000Y362000D03*
X379000Y361500D03*
X376000Y354000D03*
X426000D03*
X458000Y455500D03*
X461500D03*
X528000Y461500D03*
X537500Y464500D03*
X534000Y468000D03*
X528500Y458000D03*
X480500Y482000D03*
X481500Y485500D03*
X468000Y468000D03*
X465000Y466500D03*
X458000Y481000D03*
X471500Y478000D03*
X465000Y480500D03*
X471500Y487500D03*
X472500Y491500D03*
X423000Y493500D03*
X438500Y489500D03*
X465000Y494000D03*
X469500Y493500D03*
X440500Y499000D03*
X461500Y496000D03*
X459000Y510000D03*
X462000Y500500D03*
X477000Y481000D03*
Y489500D03*
X458000Y403000D03*
X461500D03*
X465000D03*
X458000Y431000D03*
X461500D03*
X465000Y426500D03*
X475500Y404500D03*
X472000D03*
X468500Y416000D03*
X472000Y420000D03*
X475500Y416000D03*
X479000Y412500D03*
X518000Y431000D03*
X501500Y412000D03*
X511500Y435500D03*
X521500Y431000D03*
X479000Y426500D03*
Y433000D03*
X525000Y431000D03*
X528500D03*
X525000Y403000D03*
X528500D03*
X532000D03*
X531000Y474000D03*
X528000Y476500D03*
X525000Y472500D03*
X521500Y481000D03*
X545500Y477500D03*
X549000Y475000D03*
X573500Y470500D03*
X575500Y463000D03*
X580000Y466500D03*
X552500Y457500D03*
X560000Y436000D03*
X555000Y453000D03*
X534500Y451500D03*
X531500Y454500D03*
X559000Y450500D03*
X556500Y448500D03*
X561000Y446000D03*
X528000Y504500D03*
X533000Y508500D03*
X585500Y509500D03*
X542000Y497000D03*
X579500Y497500D03*
X582000Y494000D03*
X584500Y493000D03*
X573500Y487000D03*
X532000Y431000D03*
X535500D03*
X652500Y431500D03*
X535500Y404000D03*
X652500Y405500D03*
X585000Y424500D03*
X581500Y444500D03*
X604500Y438500D03*
X621500Y435000D03*
X630000Y431000D03*
X621000Y449000D03*
X656000Y438500D03*
X637000Y450500D03*
X656000Y405500D03*
X659500Y435000D03*
X596500Y471000D03*
X604500Y467500D03*
X608500Y470500D03*
X604500Y474500D03*
X621000Y477600D03*
X620500Y467500D03*
X621500Y453500D03*
X635500Y497500D03*
X628000Y509500D03*
X624000Y509800D03*
X636000Y494000D03*
X468500Y402000D03*
X449000Y399500D03*
X442500Y397500D03*
X459414Y391086D03*
X458000Y366000D03*
X461500D03*
X464500Y361500D03*
X467500Y356500D03*
X464500Y338000D03*
X458000D03*
X461500D03*
X467500D03*
X470500Y353000D03*
X474000Y351500D03*
X470500Y343500D03*
X474000D03*
X370000Y346000D03*
X441500Y348000D03*
X426000Y346000D03*
G54D196*G54D197*G54D196*G54D197*G54D196*G54D197*G54D196*G54D197*G54D196*G54D197*G54D196*G54D197*G54D198*G54D196*G54D199*G54D200*G54D201*G54D202*G54D199*G54D201*G54D202*G54D200*G54D199*G54D201*G54D202*G54D199*G54D201*G54D202*G54D200*G54D199*G54D200*G54D201*G54D202*G54D199*G54D201*G54D202*G54D200*G54D199*G54D203*G54D201*G54D202*G54D199*G54D200*G54D201*G54D202*G54D199*G54D201*G54D202*G54D200*G54D199*G54D201*G54D202*G54D200*G54D199*G54D201*G54D202*G54D200*G54D199*G54D201*G54D202*G54D200*G54D199*G54D201*G54D202*G54D200*G54D199*G54D201*G54D202*G54D200*G54D199*G54D201*G54D202*G54D200*G54D199*G54D201*G54D202*G54D200*G54D199*G54D201*G54D202*G54D200*G54D201*G54D202*G54D200*G54D199*G54D201*G54D199*G54D200*G54D202*G54D200*G54D201*G54D202*G54D199*G54D201*G54D202*G54D200*G54D199*G54D201*G54D202*G54D200*G54D199*G54D201*G54D202*G54D199*G54D201*G54D202*G54D199*G54D201*G54D202*G54D200*G54D203*G54D204*G54D205*G54D203*G54D205*G54D203*G54D205*G54D203*G54D204*G54D205*G54D204*G54D191*G54D182*G54D206*G54D182*G54D206*G54D191*G54D182*G54D206*G54D207*G54D206*G54D191*G54D182*G54D206*G54D191*G54D182*G54D199*G54D204*G54D206*G54D191*G54D182*G54D206*G54D191*G54D182*G54D206*G54D191*G54D182*G54D206*G54D191*G54D182*G54D206*G54D191*G54D182*G54D206*G54D191*G54D182*G54D199*G54D183*G54D204*G54D183*G54D199*G54D204*G54D199*G54D204*G54D199*G54D204*G54D205*G54D199*G54D183*G54D204*G54D183*G54D204*G54D203*G54D207*G54D204*G54D207*G54D204*M02*
