G04 start of page 11 for group -4063 idx -4063 *
G04 Title: (unknown), componentmask *
G04 Creator: pcb 4.2.0 *
G04 CreationDate: Tue Jul 14 02:55:31 2020 UTC *
G04 For: commonadmin *
G04 Format: Gerber/RS-274X *
G04 PCB-Dimensions (mil): 24000.00 18000.00 *
G04 PCB-Coordinate-Origin: lower left *
%MOIN*%
%FSLAX25Y25*%
%LNTOPMASK*%
%ADD235C,0.0611*%
%ADD234C,0.0960*%
%ADD233C,0.2422*%
%ADD232C,0.0572*%
%ADD231C,0.1162*%
%ADD230C,0.0966*%
%ADD229C,0.0660*%
%ADD228C,0.0001*%
%ADD227C,0.1103*%
%ADD226C,0.0532*%
%ADD225C,0.0729*%
%ADD224C,0.0454*%
%ADD223C,0.1005*%
G54D223*X791339Y229134D03*
G54D224*X785433Y225197D03*
G54D225*X794882Y221654D03*
G54D226*X788976Y222047D03*
G54D223*X791339Y370866D03*
G54D225*X794882Y363386D03*
G54D226*X788976Y363780D03*
G54D224*X785433Y366929D03*
G54D223*X791339Y355118D03*
G54D225*X794882Y347638D03*
G54D226*X788976Y348031D03*
G54D223*X791339Y339370D03*
G54D225*X794882Y331890D03*
G54D226*X788976Y332283D03*
G54D224*X785433Y335433D03*
Y351181D03*
G54D223*X791339Y323622D03*
G54D224*X785433Y319685D03*
G54D225*X794882Y316142D03*
G54D226*X788976Y316535D03*
G54D223*X791339Y307874D03*
G54D225*X794882Y300394D03*
G54D226*X788976Y300787D03*
G54D224*X785433Y303937D03*
G54D223*X791339Y292126D03*
G54D227*X734252Y330453D03*
X719488D03*
X734252Y297953D03*
X719488D03*
Y265453D03*
G54D225*X794882Y284646D03*
G54D226*X788976Y285039D03*
G54D223*X791339Y276378D03*
G54D224*X785433Y272441D03*
Y288189D03*
G54D225*X794882Y268898D03*
G54D226*X788976Y269291D03*
G54D223*X791339Y260630D03*
G54D225*X794882Y253150D03*
G54D226*X788976Y253543D03*
G54D224*X785433Y256693D03*
G54D223*X791339Y244882D03*
G54D225*X794882Y237402D03*
G54D226*X788976Y237795D03*
G54D224*X785433Y240945D03*
G54D223*X791339Y607087D03*
G54D225*X794882Y599606D03*
G54D226*X788976Y600000D03*
G54D224*X785433Y603150D03*
G54D223*X791339Y591339D03*
G54D225*X794882Y583858D03*
G54D226*X788976Y584252D03*
G54D224*X785433Y587402D03*
G54D223*X791339Y465354D03*
G54D225*X794882Y457874D03*
G54D226*X788976Y458268D03*
G54D224*X785433Y461417D03*
G54D223*X791339Y449606D03*
G54D225*X794882Y442126D03*
G54D226*X788976Y442520D03*
G54D224*X785433Y445669D03*
G54D223*X791339Y481102D03*
G54D225*X794882Y473622D03*
G54D226*X788976Y474016D03*
G54D224*X785433Y477165D03*
G54D223*X791339Y496850D03*
G54D225*X794882Y489370D03*
G54D226*X788976Y489764D03*
G54D224*X785433Y492913D03*
G54D223*X791339Y512598D03*
Y528346D03*
G54D225*X794882Y520866D03*
G54D226*X788976Y521260D03*
G54D224*X785433Y524409D03*
G54D225*X794882Y505118D03*
G54D226*X788976Y505512D03*
G54D224*X785433Y508661D03*
G54D223*X791339Y575591D03*
G54D225*X794882Y568110D03*
G54D223*X791339Y559843D03*
G54D224*X785433Y555906D03*
G54D226*X788976Y568504D03*
G54D224*X785433Y571654D03*
G54D225*X794882Y552362D03*
G54D226*X788976Y552756D03*
G54D223*X791339Y544094D03*
G54D225*X794882Y536614D03*
G54D226*X788976Y537008D03*
G54D224*X785433Y540157D03*
G54D223*X791339Y433858D03*
G54D225*X794882Y426378D03*
G54D226*X788976Y426772D03*
G54D224*X785433Y429921D03*
Y414173D03*
G54D223*X791339Y418110D03*
G54D225*X794882Y410630D03*
G54D226*X788976Y411024D03*
G54D223*X791339Y402362D03*
G54D225*X794882Y394882D03*
G54D226*X788976Y395276D03*
G54D223*X791339Y386614D03*
G54D225*X794882Y379134D03*
G54D226*X788976Y379528D03*
G54D224*X785433Y382677D03*
Y398425D03*
G54D227*X734252Y395453D03*
Y427953D03*
Y460453D03*
Y492953D03*
Y525453D03*
Y557953D03*
Y590453D03*
Y265453D03*
Y362953D03*
X719488D03*
Y395453D03*
Y427953D03*
Y460453D03*
Y492953D03*
Y525453D03*
Y557953D03*
Y590453D03*
G54D228*G36*
X756700Y653300D02*Y646700D01*
X763300D01*
Y653300D01*
X756700D01*
G37*
G54D229*X770000Y650000D03*
X760000Y640000D03*
X770000D03*
G54D230*X671260Y484055D03*
Y464370D03*
Y444685D03*
Y425000D03*
Y405315D03*
Y385630D03*
Y365945D03*
Y346260D03*
G54D227*X682087Y330531D03*
Y298031D03*
Y265531D03*
Y363031D03*
Y395531D03*
Y428031D03*
Y460531D03*
Y493031D03*
G54D228*G36*
X579700Y653300D02*Y646700D01*
X586300D01*
Y653300D01*
X579700D01*
G37*
G54D229*X583000Y640000D03*
X593000D03*
Y650000D03*
G54D228*G36*
X687700Y693800D02*Y687200D01*
X694300D01*
Y693800D01*
X687700D01*
G37*
G54D229*X691000Y680500D03*
Y670500D03*
G54D228*G36*
X658200Y693300D02*Y686700D01*
X664800D01*
Y693300D01*
X658200D01*
G37*
G54D229*X661500Y680000D03*
Y670000D03*
X691000Y660500D03*
X661500Y660000D03*
X691000Y650500D03*
X661500Y650000D03*
X691000Y640500D03*
X661500Y640000D03*
X691000Y630500D03*
X661500Y630000D03*
X691000Y620500D03*
X661500Y620000D03*
G54D230*X633858Y503740D03*
Y484055D03*
Y464370D03*
Y444685D03*
Y425000D03*
Y405315D03*
Y385630D03*
X594488Y503740D03*
Y484055D03*
Y464370D03*
Y444685D03*
Y425000D03*
Y405315D03*
Y385630D03*
Y365945D03*
Y346260D03*
G54D229*X595000Y329500D03*
Y319500D03*
X605000D03*
Y329500D03*
X615000Y319500D03*
Y329500D03*
X625000Y319500D03*
X635000D03*
X645000D03*
X655000D03*
X665000D03*
X625000Y329500D03*
X635000D03*
X645000D03*
X655000D03*
X665000D03*
G54D230*X633858Y365945D03*
Y346260D03*
G54D228*G36*
X571700Y299300D02*Y292700D01*
X578300D01*
Y299300D01*
X571700D01*
G37*
G54D229*X585000Y296000D03*
X595000D03*
X575000Y306000D03*
X585000D03*
X595000D03*
X605000D03*
X615000D03*
X625000D03*
G54D228*G36*
X571700Y322800D02*Y316200D01*
X578300D01*
Y322800D01*
X571700D01*
G37*
G54D229*X575000Y329500D03*
X585000Y319500D03*
Y329500D03*
X605000Y296000D03*
X615000D03*
X625000D03*
X635000Y306000D03*
X645000D03*
X655000D03*
X635000Y296000D03*
X645000D03*
X655000D03*
X665000D03*
Y306000D03*
G54D225*X523504Y456787D03*
Y507181D03*
Y442181D03*
G54D231*X510000Y507969D03*
G54D232*X487520Y509543D03*
Y499504D03*
G54D231*X510000Y456000D03*
Y442969D03*
G54D232*X513543Y479976D03*
Y488008D03*
Y496039D03*
X506457Y483992D03*
Y492024D03*
Y475961D03*
X513543Y471945D03*
X487520Y464465D03*
Y454425D03*
X506457Y467929D03*
X487520Y444543D03*
X472480Y454425D03*
Y464465D03*
Y434504D03*
Y444543D03*
Y499504D03*
Y509543D03*
G54D225*X436496Y507181D03*
G54D231*X450000Y507969D03*
G54D232*X446457Y483992D03*
X453543Y479976D03*
Y488008D03*
X446457Y492024D03*
X453543Y496039D03*
G54D233*X434252Y532283D03*
X462598D03*
G54D232*X446457Y475961D03*
X453543Y471945D03*
G54D225*X436496Y456787D03*
G54D231*X450000Y456000D03*
G54D232*X446457Y467929D03*
G54D225*X436496Y442181D03*
G54D231*X450000Y442969D03*
G54D234*X488189Y522441D03*
Y538189D03*
G54D229*X498610Y547930D03*
Y559430D03*
X508610Y557930D03*
Y549430D03*
X518610Y547930D03*
G54D232*X506457Y362024D03*
X487520Y379543D03*
Y369504D03*
Y399465D03*
Y389425D03*
X513543Y414976D03*
Y406945D03*
Y423008D03*
Y431039D03*
X487520Y434504D03*
X506457Y418992D03*
Y427024D03*
Y410961D03*
Y402929D03*
G54D225*X523504Y377181D03*
G54D231*X510000Y377969D03*
G54D232*X513543Y349976D03*
Y358008D03*
Y366039D03*
Y341945D03*
X506457Y353992D03*
Y345961D03*
Y337929D03*
G54D225*X523504Y391787D03*
G54D231*X510000Y391000D03*
G54D232*X487520Y334465D03*
Y324425D03*
G54D225*X523504Y326787D03*
G54D231*X510000Y326000D03*
G54D232*X453543Y341945D03*
G54D225*X436496Y326787D03*
G54D231*X450000Y326000D03*
G54D232*X472480Y324425D03*
Y334465D03*
Y369504D03*
Y379543D03*
Y389425D03*
Y399465D03*
X446457Y345961D03*
Y418992D03*
Y427024D03*
Y410961D03*
Y402929D03*
Y337929D03*
X453543Y349976D03*
Y414976D03*
Y406945D03*
Y423008D03*
Y431039D03*
G54D225*X436496Y377181D03*
G54D231*X450000Y377969D03*
G54D232*X446457Y353992D03*
Y362024D03*
X453543Y358008D03*
Y366039D03*
G54D225*X436496Y391787D03*
G54D231*X450000Y391000D03*
G54D223*X523622Y585433D03*
G54D235*Y601181D03*
X507874Y585433D03*
X515748Y599016D03*
X509843Y593110D03*
X523622Y569685D03*
X539370Y585433D03*
X531496Y571850D03*
X537402Y577756D03*
X531496Y599016D03*
X515748Y571850D03*
G54D229*X518610Y559430D03*
G54D235*X509843Y577756D03*
X537402Y593110D03*
G54D234*X559055Y538189D03*
Y522441D03*
G54D229*X538610Y547930D03*
X548610Y549430D03*
Y557930D03*
X528610Y549430D03*
Y557930D03*
X538610Y559430D03*
G54D234*X574803Y522441D03*
Y538189D03*
G54D229*X585232Y547933D03*
Y559433D03*
G54D234*X645669Y538189D03*
Y522441D03*
G54D229*X635232Y549433D03*
Y557933D03*
G54D230*X671260Y503740D03*
G54D227*X682087Y525531D03*
Y558031D03*
Y590531D03*
G54D223*X610236Y585433D03*
G54D235*Y601181D03*
X594488Y585433D03*
X602362Y599016D03*
X596457Y593110D03*
X610236Y569685D03*
X625984Y585433D03*
X618110Y571850D03*
X624016Y577756D03*
G54D229*X625232Y559433D03*
G54D235*X618110Y599016D03*
X624016Y593110D03*
X602362Y571850D03*
X596457Y577756D03*
G54D229*X595232Y557933D03*
X605232Y559433D03*
X615232Y557933D03*
X595232Y549433D03*
X605232Y547933D03*
X615232Y549433D03*
X625232Y547933D03*
X330000Y420000D03*
X340000D03*
X350000D03*
X360000D03*
X370000D03*
X380000D03*
X390000D03*
X400000D03*
X330000Y495000D03*
X340000D03*
X350000D03*
X360000D03*
X370000D03*
X380000D03*
X390000D03*
X400000D03*
Y540000D03*
X390000D03*
X380000D03*
X370000D03*
X360000D03*
X350000D03*
X340000D03*
X330000D03*
X240000Y420000D03*
X250000D03*
X260000D03*
X270000D03*
X221000D03*
Y430000D03*
X280000Y420000D03*
X290000D03*
X300000D03*
X310000D03*
X221000Y440000D03*
Y450000D03*
Y460000D03*
Y470000D03*
X240000D03*
X250000D03*
X260000D03*
X270000D03*
X280000D03*
X290000D03*
X300000D03*
X310000D03*
Y495000D03*
X300000D03*
X310000Y485000D03*
X300000D03*
X271000D03*
X261000D03*
X251000D03*
X241000D03*
X271000Y495000D03*
X261000D03*
X251000D03*
X241000D03*
X231000D03*
Y485000D03*
X201500Y495000D03*
Y485000D03*
X191500Y495000D03*
Y485000D03*
X181500Y495000D03*
Y485000D03*
X171500Y495000D03*
Y485000D03*
X161500Y495000D03*
X132500D03*
X161500Y485000D03*
X132500D03*
X122500D03*
Y495000D03*
X107500D03*
X97500D03*
X87500D03*
X77500D03*
X67500D03*
X57500D03*
X171500Y615000D03*
X181500Y605000D03*
X191500D03*
X201500D03*
X181500Y615000D03*
X191500D03*
X201500D03*
X231000D03*
X241000D03*
X251000D03*
X400000D03*
X390000D03*
X380000D03*
X370000D03*
X360000D03*
X350000D03*
X340000D03*
X330000D03*
X261000D03*
X271000D03*
X300000D03*
X310000D03*
X271000Y605000D03*
X290000Y590000D03*
X280000D03*
X300000Y605000D03*
X310000D03*
Y590000D03*
X300000D03*
X270000D03*
X310000Y540000D03*
X300000D03*
X290000D03*
X280000D03*
X270000D03*
X231000Y605000D03*
X241000D03*
X251000D03*
X261000D03*
X260000Y590000D03*
X250000D03*
X240000D03*
X221000D03*
Y580000D03*
Y570000D03*
Y560000D03*
Y550000D03*
Y540000D03*
X260000D03*
X250000D03*
X240000D03*
X330000Y300000D03*
X340000D03*
X350000D03*
X360000D03*
X370000D03*
X380000D03*
X390000D03*
X400000D03*
X240000D03*
X250000D03*
X260000D03*
X270000D03*
X280000D03*
X290000D03*
X300000D03*
X310000D03*
X221000D03*
Y310000D03*
Y320000D03*
Y330000D03*
Y340000D03*
Y350000D03*
X240000D03*
X250000D03*
X260000D03*
X270000D03*
X280000D03*
X290000D03*
X300000D03*
X310000D03*
X330000Y375000D03*
X310000D03*
Y365000D03*
X340000Y375000D03*
X350000D03*
X360000D03*
X370000D03*
X380000D03*
X390000D03*
X400000D03*
X300000Y365000D03*
Y375000D03*
X271000D03*
Y365000D03*
X261000Y375000D03*
X251000D03*
X241000D03*
X231000D03*
X261000Y365000D03*
X251000D03*
X241000D03*
X231000D03*
X201500D03*
X191500D03*
X201500Y375000D03*
X191500D03*
X181500D03*
Y365000D03*
X171500Y375000D03*
X161500D03*
X171500Y365000D03*
X161500D03*
X132500D03*
X122500D03*
X132500Y375000D03*
X122500D03*
X107500D03*
X97500D03*
X87500D03*
X77500D03*
X67500D03*
X57500D03*
G54D233*X66654Y736000D03*
X95000D03*
X66654Y704000D03*
X95000D03*
X66654Y672000D03*
X95000D03*
X66654Y640000D03*
X95000D03*
G54D229*X57500Y615000D03*
X67500D03*
X77500D03*
X87500D03*
X97500D03*
X107500D03*
X122500D03*
Y605000D03*
X132500D03*
Y615000D03*
X161500Y605000D03*
Y615000D03*
X171500Y605000D03*
G54D228*G36*
X590232Y529681D02*X587406D01*
Y524925D01*
X590232D01*
Y529681D01*
G37*
G36*
Y535705D02*X587406D01*
Y530949D01*
X590232D01*
Y535705D01*
G37*
G36*
X574078Y510047D02*Y507873D01*
X576252D01*
Y510047D01*
X574078D01*
G37*
G36*
Y512409D02*Y510235D01*
X576252D01*
Y512409D01*
X574078D01*
G37*
G36*
X569488Y513393D02*Y510825D01*
X572842D01*
Y513393D01*
X569488D01*
G37*
G36*
X615016Y528677D02*X612386D01*
Y524866D01*
X615016D01*
Y528677D01*
G37*
G36*
X613638D02*X611008D01*
Y524866D01*
X613638D01*
Y528677D01*
G37*
G36*
X612260D02*X609630D01*
Y524866D01*
X612260D01*
Y528677D01*
G37*
G36*
X610882D02*X608252D01*
Y524866D01*
X610882D01*
Y528677D01*
G37*
G36*
X609504D02*X606874D01*
Y524866D01*
X609504D01*
Y528677D01*
G37*
G36*
X608126D02*X605496D01*
Y524866D01*
X608126D01*
Y528677D01*
G37*
G36*
X606748D02*X604118D01*
Y524866D01*
X606748D01*
Y528677D01*
G37*
G36*
X605370D02*X602740D01*
Y524866D01*
X605370D01*
Y528677D01*
G37*
G36*
X603992D02*X601362D01*
Y524866D01*
X603992D01*
Y528677D01*
G37*
G36*
X602614D02*X599984D01*
Y524866D01*
X602614D01*
Y528677D01*
G37*
G36*
X601236D02*X598606D01*
Y524866D01*
X601236D01*
Y528677D01*
G37*
G36*
X599858D02*X597228D01*
Y524866D01*
X599858D01*
Y528677D01*
G37*
G36*
X598480D02*X595850D01*
Y524866D01*
X598480D01*
Y528677D01*
G37*
G36*
X597102D02*X594472D01*
Y524866D01*
X597102D01*
Y528677D01*
G37*
G36*
X595724D02*X593094D01*
Y524866D01*
X595724D01*
Y528677D01*
G37*
G36*
X594346D02*X591717D01*
Y524866D01*
X594346D01*
Y528677D01*
G37*
G36*
X592969D02*X590339D01*
Y524866D01*
X592969D01*
Y528677D01*
G37*
G36*
X591591D02*X588961D01*
Y524866D01*
X591591D01*
Y528677D01*
G37*
G36*
X612260Y535764D02*X609630D01*
Y531953D01*
X612260D01*
Y535764D01*
G37*
G36*
X610882D02*X608252D01*
Y531953D01*
X610882D01*
Y535764D01*
G37*
G36*
X609504D02*X606874D01*
Y531953D01*
X609504D01*
Y535764D01*
G37*
G36*
X608126D02*X605496D01*
Y531953D01*
X608126D01*
Y535764D01*
G37*
G36*
X606748D02*X604118D01*
Y531953D01*
X606748D01*
Y535764D01*
G37*
G36*
X605370D02*X602740D01*
Y531953D01*
X605370D01*
Y535764D01*
G37*
G36*
X603992D02*X601362D01*
Y531953D01*
X603992D01*
Y535764D01*
G37*
G36*
X602614D02*X599984D01*
Y531953D01*
X602614D01*
Y535764D01*
G37*
G36*
X601236D02*X598606D01*
Y531953D01*
X601236D01*
Y535764D01*
G37*
G36*
X599858D02*X597228D01*
Y531953D01*
X599858D01*
Y535764D01*
G37*
G36*
X598480D02*X595850D01*
Y531953D01*
X598480D01*
Y535764D01*
G37*
G36*
X597102D02*X594472D01*
Y531953D01*
X597102D01*
Y535764D01*
G37*
G36*
X595724D02*X593094D01*
Y531953D01*
X595724D01*
Y535764D01*
G37*
G36*
X594346D02*X591717D01*
Y531953D01*
X594346D01*
Y535764D01*
G37*
G36*
X592969D02*X590339D01*
Y531953D01*
X592969D01*
Y535764D01*
G37*
G36*
X591591D02*X588961D01*
Y531953D01*
X591591D01*
Y535764D01*
G37*
G36*
X569488Y510245D02*Y507677D01*
X572842D01*
Y510245D01*
X569488D01*
G37*
G36*
X568960Y506669D02*Y500951D01*
X577040D01*
Y506669D01*
X568960D01*
G37*
G36*
Y494859D02*Y489141D01*
X577040D01*
Y494859D01*
X568960D01*
G37*
G36*
X574078Y483496D02*Y481322D01*
X576252D01*
Y483496D01*
X574078D01*
G37*
G36*
Y485858D02*Y483684D01*
X576252D01*
Y485858D01*
X574078D01*
G37*
G36*
X569488Y486841D02*Y484273D01*
X572842D01*
Y486841D01*
X569488D01*
G37*
G36*
Y483693D02*Y481125D01*
X572842D01*
Y483693D01*
X569488D01*
G37*
G36*
X568960Y467859D02*Y462141D01*
X577040D01*
Y467859D01*
X568960D01*
G37*
G36*
Y479669D02*Y473951D01*
X577040D01*
Y479669D01*
X568960D01*
G37*
G36*
X577313Y338087D02*Y335913D01*
X579487D01*
Y338087D01*
X577313D01*
G37*
G36*
X583613D02*Y335913D01*
X585787D01*
Y338087D01*
X583613D01*
G37*
G36*
X581413D02*Y335913D01*
X583587D01*
Y338087D01*
X581413D01*
G37*
G36*
X588013D02*Y335913D01*
X590187D01*
Y338087D01*
X588013D01*
G37*
G36*
X585813D02*Y335913D01*
X587987D01*
Y338087D01*
X585813D01*
G37*
G36*
X577313Y340449D02*Y338275D01*
X579487D01*
Y340449D01*
X577313D01*
G37*
G36*
X575013D02*Y338275D01*
X577187D01*
Y340449D01*
X575013D01*
G37*
G36*
X572713D02*Y338275D01*
X574887D01*
Y340449D01*
X572713D01*
G37*
G36*
X570413D02*Y338275D01*
X572587D01*
Y340449D01*
X570413D01*
G37*
G36*
X575013Y338087D02*Y335913D01*
X577187D01*
Y338087D01*
X575013D01*
G37*
G36*
X572713D02*Y335913D01*
X574887D01*
Y338087D01*
X572713D01*
G37*
G36*
X570413D02*Y335913D01*
X572587D01*
Y338087D01*
X570413D01*
G37*
G36*
X583613Y340449D02*Y338275D01*
X585787D01*
Y340449D01*
X583613D01*
G37*
G36*
X581413D02*Y338275D01*
X583587D01*
Y340449D01*
X581413D01*
G37*
G36*
X588013D02*Y338275D01*
X590187D01*
Y340449D01*
X588013D01*
G37*
G36*
X585813D02*Y338275D01*
X587987D01*
Y340449D01*
X585813D01*
G37*
G36*
X633106Y529681D02*X630280D01*
Y524925D01*
X633106D01*
Y529681D01*
G37*
G36*
Y535705D02*X630280D01*
Y530949D01*
X633106D01*
Y535705D01*
G37*
G36*
X631551Y528677D02*X628921D01*
Y524866D01*
X631551D01*
Y528677D01*
G37*
G36*
X630173D02*X627543D01*
Y524866D01*
X630173D01*
Y528677D01*
G37*
G36*
X628795D02*X626165D01*
Y524866D01*
X628795D01*
Y528677D01*
G37*
G36*
X627417D02*X624787D01*
Y524866D01*
X627417D01*
Y528677D01*
G37*
G36*
X626039D02*X623409D01*
Y524866D01*
X626039D01*
Y528677D01*
G37*
G36*
X631551Y535764D02*X628921D01*
Y531953D01*
X631551D01*
Y535764D01*
G37*
G36*
X624661Y528677D02*X622031D01*
Y524866D01*
X624661D01*
Y528677D01*
G37*
G36*
X623283D02*X620654D01*
Y524866D01*
X623283D01*
Y528677D01*
G37*
G36*
X621906D02*X619276D01*
Y524866D01*
X621906D01*
Y528677D01*
G37*
G36*
X620528D02*X617898D01*
Y524866D01*
X620528D01*
Y528677D01*
G37*
G36*
X619150D02*X616520D01*
Y524866D01*
X619150D01*
Y528677D01*
G37*
G36*
X617772D02*X615142D01*
Y524866D01*
X617772D01*
Y528677D01*
G37*
G36*
X616394D02*X613764D01*
Y524866D01*
X616394D01*
Y528677D01*
G37*
G36*
X630173Y535764D02*X627543D01*
Y531953D01*
X630173D01*
Y535764D01*
G37*
G36*
X628795D02*X626165D01*
Y531953D01*
X628795D01*
Y535764D01*
G37*
G36*
X627417D02*X624787D01*
Y531953D01*
X627417D01*
Y535764D01*
G37*
G36*
X626039D02*X623409D01*
Y531953D01*
X626039D01*
Y535764D01*
G37*
G36*
X624661D02*X622031D01*
Y531953D01*
X624661D01*
Y535764D01*
G37*
G36*
X623283D02*X620654D01*
Y531953D01*
X623283D01*
Y535764D01*
G37*
G36*
X621906D02*X619276D01*
Y531953D01*
X621906D01*
Y535764D01*
G37*
G36*
X620528D02*X617898D01*
Y531953D01*
X620528D01*
Y535764D01*
G37*
G36*
X619150D02*X616520D01*
Y531953D01*
X619150D01*
Y535764D01*
G37*
G36*
X617772D02*X615142D01*
Y531953D01*
X617772D01*
Y535764D01*
G37*
G36*
X616394D02*X613764D01*
Y531953D01*
X616394D01*
Y535764D01*
G37*
G36*
X615016D02*X612386D01*
Y531953D01*
X615016D01*
Y535764D01*
G37*
G36*
X613638D02*X611008D01*
Y531953D01*
X613638D01*
Y535764D01*
G37*
G36*
X640823Y404784D02*Y402216D01*
X644177D01*
Y404784D01*
X640823D01*
G37*
G36*
Y401636D02*Y399068D01*
X644177D01*
Y401636D01*
X640823D01*
G37*
G36*
Y411432D02*Y408864D01*
X644177D01*
Y411432D01*
X640823D01*
G37*
G36*
Y408284D02*Y405716D01*
X644177D01*
Y408284D01*
X640823D01*
G37*
G36*
X646200Y403300D02*Y399700D01*
X650800D01*
Y403300D01*
X646200D01*
G37*
G36*
Y397300D02*Y393700D01*
X650800D01*
Y397300D01*
X646200D01*
G37*
G36*
Y416300D02*Y412700D01*
X650800D01*
Y416300D01*
X646200D01*
G37*
G36*
Y410300D02*Y406700D01*
X650800D01*
Y410300D01*
X646200D01*
G37*
G36*
X616460Y354169D02*Y348451D01*
X624540D01*
Y354169D01*
X616460D01*
G37*
G36*
X607460D02*Y348451D01*
X615540D01*
Y354169D01*
X607460D01*
G37*
G36*
X648413Y352587D02*Y350413D01*
X650587D01*
Y352587D01*
X648413D01*
G37*
G36*
X625413Y359587D02*Y357413D01*
X627587D01*
Y359587D01*
X625413D01*
G37*
G36*
Y357225D02*Y355051D01*
X627587D01*
Y357225D01*
X625413D01*
G37*
G36*
X648413Y350225D02*Y348051D01*
X650587D01*
Y350225D01*
X648413D01*
G37*
G36*
X641913Y336863D02*Y334689D01*
X644087D01*
Y336863D01*
X641913D01*
G37*
G36*
Y339225D02*Y337051D01*
X644087D01*
Y339225D01*
X641913D01*
G37*
G36*
X644413Y336863D02*Y334689D01*
X646587D01*
Y336863D01*
X644413D01*
G37*
G36*
Y339225D02*Y337051D01*
X646587D01*
Y339225D01*
X644413D01*
G37*
G36*
X616460Y342359D02*Y336641D01*
X624540D01*
Y342359D01*
X616460D01*
G37*
G36*
X607460D02*Y336641D01*
X615540D01*
Y342359D01*
X607460D01*
G37*
M02*
