M48
INCH
T222C0.035
T221C0.012
T220C0.010
T219C0.039
T218C0.187
T217C0.035
T216C0.094
T215C0.051
T214C0.063
T213C0.038
T212C0.089
T211C0.030
T210C0.049
T209C0.020
T208C0.079
%
T220
X036350Y049050
X036350Y041400
X036350Y030500
X036700Y054550
X036700Y046350
X036700Y041000
X036700Y030800
X037000Y060250
X037000Y049950
X037000Y034600
X037300Y059550
X037300Y053400
X037300Y050200
X037300Y044800
X037600Y060250
X037600Y050450
X037600Y035400
X037850Y050650
X037900Y060250
X037900Y036150
X038200Y042700
X038200Y037500
X038550Y043200
X038550Y038000
X038900Y040700
X038900Y037000
X039250Y041900
X039250Y036650
X039550Y047250
X039600Y060250
X039850Y054000
X039850Y048150
X039900Y060250
X040200Y053050
X040200Y049450
X040550Y054650
X040550Y052650
X040950Y049050
X040950Y046350
X040950Y044800
X042300Y049350
X042600Y036200
X042600Y035400
X042600Y034600
X042950Y048150
X042950Y047250
X043050Y043200
X043050Y042700
X043050Y041900
X043050Y040700
X043850Y048950
X044050Y049900
X044150Y034800
X044250Y039750
X044900Y039950
X045800Y048100
X045800Y045550
X045800Y043100
X045800Y040300
X045800Y036600
X045800Y033800
X045900Y051000
X045941Y039109
X046150Y049600
X046150Y045550
X046150Y043100
X046150Y040300
X046150Y036600
X046150Y033800
X046200Y050050
X046450Y036150
X046450Y033800
X046500Y049400
X046500Y048050
X046500Y046650
X046500Y042650
X046500Y040300
X046750Y035650
X046750Y033800
X046800Y046800
X046850Y041600
X046850Y040200
X046950Y049350
X047050Y035300
X047050Y034350
X047150Y048750
X047150Y047800
X047200Y042000
X047200Y040450
X047250Y049150
X047400Y035150
X047400Y034350
X047550Y041600
X047550Y040450
X047700Y048950
X047700Y048100
X047900Y043300
X047900Y042650
X047900Y041250
X048050Y048200
X048150Y048550
X049100Y051250
X049450Y050800
X049500Y050050
X049550Y057650
X049550Y057100
X049750Y050450
X049800Y051150
X050000Y054000
X050150Y041200
X050197Y056850
X050354Y054528
X050550Y052250
X050850Y056750
X050850Y054250
X051100Y052250
X051150Y043550
X051535Y053937
X051535Y052244
X051750Y051250
X051800Y043100
X051800Y036600
X051811Y053819
X051850Y052350
X051850Y049400
X052087Y052992
X052150Y048100
X052150Y043100
X052150Y036600
X052240Y052240
X052500Y050150
X052500Y047250
X052500Y043100
X052500Y040300
X052500Y036600
X052520Y053780
X052650Y037250
X052750Y051250
X052780Y053030
X052800Y050450
X052800Y050150
X052800Y047650
X052800Y046150
X052800Y036600
X052850Y045800
X052850Y043100
X052850Y040300
X052992Y053976
X053040Y052950
X053100Y050150
X053100Y047400
X053100Y036600
X053150Y045450
X053200Y043100
X053200Y040300
X053300Y050850
X053307Y053976
X053340Y053110
X053350Y039150
X053350Y038800
X053350Y038500
X053400Y046800
X053400Y036600
X053450Y045150
X053450Y039450
X053550Y043100
X053550Y040400
X053600Y060150
X053622Y053031
X053700Y051300
X053750Y046450
X054055Y057362
X054200Y049700
X054350Y049450
X054370Y057047
X054550Y047750
X054685Y056260
X054750Y052550
X054850Y053600
X054900Y047500
X055236Y056496
X055250Y045750
X055500Y045300
X055650Y044850
X055900Y045050
X056000Y051300
X056000Y043600
X056100Y044600
X057060Y034010
X057200Y036650
X057250Y051250
X057350Y048700
X057350Y047050
X057370Y034100
X057450Y038450
X057500Y054600
X057550Y046300
X057650Y034180
X057800Y038600
X057950Y049750
X058000Y046650
X058150Y044450
X058200Y049400
X058240Y034170
X058250Y057250
X058250Y051600
X058346Y053780
X058360Y033590
X058450Y051250
X058450Y049300
X058480Y045780
X058480Y034280
X058500Y059400
X058500Y052750
X058500Y042450
X058550Y050950
X058550Y049750
X058700Y047750
X058800Y045500
X058800Y033590
X058819Y054291
X058850Y047450
X058850Y046100
X058858Y056850
X059016Y054528
X059150Y033800
X059500Y051250
X059650Y047100
X059700Y035700
X060050Y044900
X060100Y051600
X060150Y058250
X060197Y053937
X060450Y047450
X060450Y046750
X060450Y043850
X060472Y053819
X060748Y052992
X060850Y047050
X060900Y032200
X061181Y053780
X061200Y049150
X061580Y051890
X061654Y053976
X061800Y032350
X061969Y053976
X062050Y046750
X062050Y036300
X062100Y047760
X062100Y044900
X062150Y045350
X062150Y043500
X062250Y044250
X062250Y035650
X062283Y053031
X062300Y060150
X062400Y050980
X062500Y052350
X062600Y053100
X062700Y049750
X062700Y049400
X062717Y057362
X062800Y051250
X062800Y050950
X062850Y051900
X062950Y052300
X063000Y043100
X063031Y057047
X063150Y053750
X063250Y051600
X063346Y056260
X063366Y053050
X063550Y049750
X063600Y049400
X063700Y045050
X063898Y056496
X064000Y052750
X064150Y045050
X064350Y049400
X064700Y045050
X064850Y049300
X065050Y046500
X065250Y043150
X065250Y040550
X065400Y034650
X065600Y043850
X065600Y040550
X065950Y043500
X066100Y060400
X066100Y051600
X066100Y041050
X066100Y037600
X066142Y061299
X066350Y050700
X066476Y061299
X066500Y051250
X066800Y057450
X066900Y054550
X066950Y052600
X067100Y057350
X067150Y054900
X067150Y054200
X067200Y057100
X067250Y029650
X067300Y049750
X067400Y049350
X067500Y045800
X067650Y052000
X067950Y044150
X068000Y047450
X068050Y044400
X068150Y040550
X068200Y032000
X068300Y050700
X068350Y045300
X068524Y061299
X068524Y060326
X068799Y061299
X068799Y060351
X068950Y055400
X068950Y051600
X068950Y042100
X068950Y035950
X068950Y033700
X069050Y057750
X069094Y061299
X069200Y060450
X069200Y058000
X069300Y055800
X069300Y051250
X069300Y049300
X069300Y046850
X069300Y035550
X069300Y032050
X069500Y058300
X069600Y055800
X069600Y052450
X069600Y050950
X069600Y033050
X069900Y050100
X069900Y039200
X069900Y031000
X070200Y055800
X070200Y052550
X070250Y048750
X070500Y055800
X070500Y048350
X070800Y047750
X070800Y036300
X070800Y029700
X071150Y044450
X071150Y039550
X071150Y030550
X071750Y041050
X071800Y044650
X071850Y034750
X071900Y032050
X072100Y044450
X072350Y042150
X072350Y040200
X072350Y038850
X072400Y043850
X072800Y050600
X072800Y047000
X073400Y034350
X073450Y041050
X074150Y054250
X074150Y047760
X074150Y030100
X074500Y053500
X074500Y047450
X074500Y031100
X074850Y053750
X074850Y044800
X074850Y030300
X075200Y054000
X075200Y044450
X075200Y029800
X075550Y051600
X075550Y046550
X075550Y040250
X075550Y035500
X075550Y031900
X075900Y051250
X075900Y048200
X075900Y041800
X075900Y037200
X075900Y032350
X075900Y031550
X076200Y060250
X076200Y057800
X076200Y050950
X076200Y049750
X076200Y045150
X076500Y058300
X076500Y057200
X076500Y052850
X076500Y050100
X076700Y030500
X076700Y030150
X076700Y029800
X076700Y029475
X076800Y060250
X076800Y059200
X076800Y056900
X076800Y048750
X077050Y056650
X077050Y048350
X077100Y060250
X077100Y043200
X077400Y060250
X077400Y058000
X077400Y056000
X077400Y044100
X077550Y043800
X077650Y057550
X077650Y054400
X077700Y060250
X078000Y059650
X078000Y043600
X078000Y038650
T221
X053090Y052260
X057840Y034520
X058970Y034200
X063740Y053819
X066900Y053850
X067800Y054900
X067800Y054550
X067800Y054200
X067800Y053850
T209
X078543Y060315
X078543Y058740
X078543Y057165
X078543Y055591
X078543Y054016
X078543Y052441
X078543Y050866
X078543Y049291
X078543Y047717
X078543Y046142
X078543Y044567
X078543Y042992
X078543Y041417
X078543Y039843
X078543Y038268
X078543Y036693
X078543Y035118
X078543Y033543
X078543Y031969
X078543Y030394
X078543Y028819
X078543Y027244
X078543Y025669
X078543Y024094
X078543Y022520
T211
X078898Y060000
X078898Y058425
X078898Y056850
X078898Y055276
X078898Y053701
X078898Y052126
X078898Y050551
X078898Y048976
X078898Y047402
X078898Y045827
X078898Y044252
X078898Y042677
X078898Y041102
X078898Y039528
X078898Y037953
X078898Y036378
X078898Y034803
X078898Y033228
X078898Y031654
X078898Y030079
X078898Y028504
X078898Y026929
X078898Y025354
X078898Y023780
X078898Y022205
T222
X061000Y034700
T217
X044646Y049202
X044646Y048399
X044646Y047596
X044646Y046793
X044646Y042702
X044646Y041899
X044646Y041096
X044646Y040293
X044646Y036202
X044646Y035399
X044646Y034596
X044646Y033793
X045354Y049604
X045354Y048801
X045354Y047998
X045354Y047194
X045354Y043104
X045354Y042301
X045354Y041498
X045354Y040694
X045354Y036604
X045354Y035801
X045354Y034998
X045354Y034194
X047248Y050954
X047248Y049950
X047248Y046446
X047248Y045443
X047248Y044454
X047248Y043450
X047248Y039946
X047248Y038943
X047248Y037954
X047248Y036950
X047248Y033446
X047248Y032443
X048752Y050954
X048752Y049950
X048752Y046446
X048752Y045443
X048752Y044454
X048752Y043450
X048752Y039946
X048752Y038943
X048752Y037954
X048752Y036950
X048752Y033446
X048752Y032443
X050646Y049202
X050646Y048399
X050646Y047596
X050646Y046793
X050646Y042702
X050646Y041899
X050646Y041096
X050646Y040293
X050646Y036202
X050646Y035399
X050646Y034596
X050646Y033793
X051354Y049604
X051354Y048801
X051354Y047998
X051354Y047194
X051354Y043104
X051354Y042301
X051354Y041498
X051354Y040694
X051354Y036604
X051354Y035801
X051354Y034998
X051354Y034194
T213
X001550Y061500
X001550Y049500
X001550Y037500
X002550Y061500
X002550Y049500
X002550Y037500
X003550Y061500
X003550Y049500
X003550Y037500
X004550Y061500
X004550Y049500
X004550Y037500
X005550Y061500
X005550Y049500
X005550Y037500
X006550Y061500
X006550Y049500
X006550Y037500
X008050Y061500
X008050Y060500
X008050Y049500
X008050Y048500
X008050Y037500
X008050Y036500
X009050Y061500
X009050Y060500
X009050Y049500
X009050Y048500
X009050Y037500
X009050Y036500
X011950Y061500
X011950Y060500
X011950Y049500
X011950Y048500
X011950Y037500
X011950Y036500
X012950Y061500
X012950Y060500
X012950Y049500
X012950Y048500
X012950Y037500
X012950Y036500
X013950Y061500
X013950Y060500
X013950Y049500
X013950Y048500
X013950Y037500
X013950Y036500
X014950Y061500
X014950Y060500
X014950Y049500
X014950Y048500
X014950Y037500
X014950Y036500
X015950Y061500
X015950Y060500
X015950Y049500
X015950Y048500
X015950Y037500
X015950Y036500
X017900Y059000
X017900Y058000
X017900Y057000
X017900Y056000
X017900Y055000
X017900Y054000
X017900Y047000
X017900Y046000
X017900Y045000
X017900Y044000
X017900Y043000
X017900Y042000
X017900Y035000
X017900Y034000
X017900Y033000
X017900Y032000
X017900Y031000
X017900Y030000
X018900Y061500
X018900Y060500
X018900Y049500
X018900Y048500
X018900Y037500
X018900Y036500
X019800Y059000
X019800Y054000
X019800Y047000
X019800Y042000
X019800Y035000
X019800Y030000
X019900Y061500
X019900Y060500
X019900Y049500
X019900Y048500
X019900Y037500
X019900Y036500
X020800Y059000
X020800Y054000
X020800Y047000
X020800Y042000
X020800Y035000
X020800Y030000
X020900Y061500
X020900Y060500
X020900Y049500
X020900Y048500
X020900Y037500
X020900Y036500
X021800Y059000
X021800Y054000
X021800Y047000
X021800Y042000
X021800Y035000
X021800Y030000
X021900Y061500
X021900Y060500
X021900Y049500
X021900Y048500
X021900Y037500
X021900Y036500
X022800Y059000
X022800Y054000
X022800Y047000
X022800Y042000
X022800Y035000
X022800Y030000
X022900Y061500
X022900Y060500
X022900Y049500
X022900Y048500
X022900Y037500
X022900Y036500
X023800Y059000
X023800Y054000
X023800Y047000
X023800Y042000
X023800Y035000
X023800Y030000
X024800Y059000
X024800Y054000
X024800Y047000
X024800Y042000
X024800Y035000
X024800Y030000
X025800Y061500
X025800Y060500
X025800Y059000
X025800Y054000
X025800Y049500
X025800Y048500
X025800Y047000
X025800Y042000
X025800Y037500
X025800Y036500
X025800Y035000
X025800Y030000
X026800Y061500
X026800Y060500
X026800Y059000
X026800Y054000
X026800Y049500
X026800Y048500
X026800Y047000
X026800Y042000
X026800Y037500
X026800Y036500
X026800Y035000
X026800Y030000
X028800Y061500
X028800Y054000
X028800Y049500
X028800Y042000
X028800Y037500
X028800Y030000
X029800Y061500
X029800Y054000
X029800Y049500
X029800Y042000
X029800Y037500
X029800Y030000
X030800Y061500
X030800Y054000
X030800Y049500
X030800Y042000
X030800Y037500
X030800Y030000
X031800Y061500
X031800Y054000
X031800Y049500
X031800Y042000
X031800Y037500
X031800Y030000
X032800Y061500
X032800Y054000
X032800Y049500
X032800Y042000
X032800Y037500
X032800Y030000
X033800Y061500
X033800Y054000
X033800Y049500
X033800Y042000
X033800Y037500
X033800Y030000
X034800Y061500
X034800Y054000
X034800Y049500
X034800Y042000
X034800Y037500
X034800Y030000
X035800Y061500
X035800Y054000
X035800Y049500
X035800Y042000
X035800Y037500
X035800Y030000
X049861Y055943
X049861Y054793
X050861Y055793
X050861Y054943
X051861Y055943
X051861Y054793
X052861Y055793
X052861Y054943
X053861Y055943
X053861Y054793
X054861Y055793
X054861Y054943
X057500Y032950
X057500Y031950
X057500Y030600
X057500Y029600
X058300Y065000
X058300Y064000
X058500Y032950
X058500Y031950
X058500Y030600
X058500Y029600
X058523Y055943
X058523Y054793
X059300Y065000
X059300Y064000
X059500Y032950
X059500Y031950
X059500Y030600
X059500Y029600
X059523Y055793
X059523Y054943
X060500Y032950
X060500Y031950
X060500Y030600
X060500Y029600
X060523Y055943
X060523Y054793
X061500Y032950
X061500Y031950
X061500Y030600
X061500Y029600
X061523Y055793
X061523Y054943
X062500Y032950
X062500Y031950
X062500Y030600
X062500Y029600
X062523Y055943
X062523Y054793
X063500Y032950
X063500Y031950
X063500Y030600
X063500Y029600
X063523Y055793
X063523Y054943
X064500Y032950
X064500Y031950
X064500Y030600
X064500Y029600
X065500Y032950
X065500Y031950
X065500Y030600
X065500Y029600
X066150Y069000
X066150Y068000
X066150Y067000
X066150Y066000
X066150Y065000
X066150Y064000
X066150Y063000
X066150Y062000
X066500Y032950
X066500Y031950
X066500Y030600
X066500Y029600
X069100Y069000
X069100Y068000
X069100Y067000
X069100Y066000
X069100Y065000
X069100Y064000
X069100Y063000
X069100Y062000
X076000Y065000
X076000Y064000
X077000Y065000
X077000Y064000
T219
X050787Y058543
X050984Y059311
X050984Y057776
X051575Y059902
X051575Y057185
X052362Y060118
X052362Y056969
X053150Y059902
X053150Y057185
X053740Y059311
X053740Y057776
X053937Y058543
X059449Y058543
X059646Y059311
X059646Y057776
X060236Y059902
X060236Y057185
X061024Y060118
X061024Y056969
X061811Y059902
X061811Y057185
X062402Y059311
X062402Y057776
X062598Y058543
T210
X079488Y059961
X079488Y058386
X079488Y056811
X079488Y055236
X079488Y053661
X079488Y052087
X079488Y050512
X079488Y048937
X079488Y047362
X079488Y045787
X079488Y044213
X079488Y042638
X079488Y041063
X079488Y039488
X079488Y037913
X079488Y036339
X079488Y034764
X079488Y033189
X079488Y031614
X079488Y030039
X079488Y028465
X079488Y026890
X079488Y025315
X079488Y023740
X079488Y022165
T215
X043650Y050718
X043650Y045679
X043650Y044218
X043650Y039179
X043650Y037718
X043650Y032679
X052350Y050718
X052350Y045679
X052350Y044218
X052350Y039179
X052350Y037718
X052350Y032679
T214
X059449Y050374
X059449Y048406
X059449Y046437
X059449Y044469
X059449Y042500
X059449Y040531
X059449Y038563
X059449Y036594
X059449Y034626
X063386Y050374
X063386Y048406
X063386Y046437
X063386Y044469
X063386Y042500
X063386Y040531
X063386Y038563
X063386Y036594
X063386Y034626
X067126Y050374
X067126Y048406
X067126Y046437
X067126Y044469
X067126Y042500
X067126Y040531
X067126Y038563
X067126Y036594
X067126Y034626
T208
X048819Y053819
X048819Y052244
X052362Y058543
X055906Y053819
X055906Y052244
X057480Y053819
X057480Y052244
X061024Y058543
X064567Y053819
X064567Y052244
X079134Y060709
X079134Y059134
X079134Y057559
X079134Y055984
X079134Y054409
X079134Y052835
X079134Y051260
X079134Y049685
X079134Y048110
X079134Y046535
X079134Y044961
X079134Y043386
X079134Y041811
X079134Y040236
X079134Y038661
X079134Y037087
X079134Y035512
X079134Y033937
X079134Y032362
X079134Y030787
X079134Y029213
X079134Y027638
X079134Y026063
X079134Y024488
X079134Y022913
T212
X068209Y059053
X068209Y055803
X068209Y052553
X068209Y049303
X068209Y046053
X068209Y042803
X068209Y039553
X068209Y036303
X068209Y033053
X068209Y029803
X068209Y026553
X071949Y059045
X071949Y055795
X071949Y052545
X071949Y049295
X071949Y046045
X071949Y042795
X071949Y039545
X071949Y036295
X071949Y033045
X071949Y029795
X071949Y026545
X073425Y059045
X073425Y055795
X073425Y052545
X073425Y049295
X073425Y046045
X073425Y042795
X073425Y039545
X073425Y036295
X073425Y033045
X073425Y029795
X073425Y026545
T216
X045000Y050797
X045000Y045600
X045000Y044297
X045000Y039100
X045000Y037797
X045000Y032600
X051000Y050797
X051000Y045600
X051000Y044297
X051000Y039100
X051000Y037797
X051000Y032600
T218
X002465Y073600
X002465Y070400
X002465Y067200
X002465Y064000
X005300Y073600
X005300Y070400
X005300Y067200
X005300Y064000
X043425Y053228
X046260Y053228
M30
