G04 start of page 8 for group 6 idx 6 *
G04 Title: (unknown), outline *
G04 Creator: pcb 4.2.0 *
G04 CreationDate: Thu Sep 17 08:18:29 2020 UTC *
G04 For: commonadmin *
G04 Format: Gerber/RS-274X *
G04 PCB-Dimensions (mil): 24000.00 18000.00 *
G04 PCB-Coordinate-Origin: lower left *
%MOIN*%
%FSLAX25Y25*%
%LNOUTLINE*%
%ADD181C,0.0140*%
G54D181*X656496Y694685D02*X657480Y695669D01*
X694882D01*
X695866Y694685D01*
X656496Y612008D02*Y694685D01*
X577756Y608071D02*Y655315D01*
X598425D01*
Y618898D01*
X605315Y612008D01*
X775591Y615945D02*X800197D01*
X605315Y612008D02*X656496D01*
X695866D02*X748031D01*
X754921Y655315D02*X775591D01*
Y615945D01*
X695866Y694685D02*Y612008D01*
X748031D02*X754921Y618898D01*
Y655315D01*
X800197Y615945D02*Y214370D01*
X48425Y289173D02*X762827D01*
X762173D02*X772327D01*
X48500D02*X6425D01*
X777130Y214370D02*X775591D01*
X800197D02*X772630D01*
X772500Y214500D01*
Y289000D01*
X772327Y289173D02*X772500Y289000D01*
Y288000D01*
X6425Y289425D02*Y289173D01*
Y622047D01*
X364693Y608661D02*X365283Y608071D01*
X364693Y622441D02*Y608661D01*
X278472Y622441D02*X364693D01*
X278079Y622047D02*X278472Y622441D01*
X6425Y622047D02*X278079D01*
X577756Y608071D02*X365283D01*
M02*
