G04 start of page 2 for group 0 idx 0 *
G04 Title: (unknown), P1_W1 *
G04 Creator: pcb 4.2.0 *
G04 CreationDate: Thu Sep 17 08:17:11 2020 UTC *
G04 For: commonadmin *
G04 Format: Gerber/RS-274X *
G04 PCB-Dimensions (mil): 6000.00 7000.00 *
G04 PCB-Coordinate-Origin: lower left *
%MOIN*%
%FSLAX25Y25*%
%LNTOP*%
%ADD23C,0.0300*%
%ADD22C,0.0500*%
%ADD21C,0.0130*%
%ADD20C,0.0380*%
%ADD19C,0.0270*%
%ADD18C,0.0800*%
%ADD17C,0.0550*%
%ADD16C,0.0001*%
%ADD15C,0.0200*%
%ADD14C,0.0600*%
%ADD13C,0.0250*%
%ADD12C,0.0140*%
%ADD11C,0.0100*%
G54D11*X169000Y60000D02*Y64000D01*
X180000Y75000D01*
Y93500D01*
X182000Y95500D01*
X153500Y85500D02*X152000Y84000D01*
Y73500D01*
X153500Y72000D01*
Y65500D01*
X159000Y60000D01*
X153500Y85500D02*Y113000D01*
X159000Y118500D01*
X182000Y95500D02*X261000D01*
X265000Y91500D01*
X280000D01*
X284000Y95500D01*
X325000D01*
X327500Y98000D01*
X159000Y118500D02*X381500D01*
X382500Y119500D01*
X327500Y98000D02*Y110000D01*
X382500Y119500D02*Y230500D01*
X386750Y234750D01*
X413750D01*
X423500Y225000D01*
Y208000D01*
X415300Y148600D02*X419300D01*
X430000Y153500D02*X425500D01*
G54D12*X461500Y208500D02*X462500D01*
X463000Y209000D01*
G54D13*Y362000D02*Y209000D01*
X334500Y278000D02*X337500Y275000D01*
X333500Y333000D02*X334500Y332000D01*
Y278000D02*Y332000D01*
X90000Y370000D02*Y360000D01*
X179500Y334500D02*X259000D01*
X169000Y310000D02*Y290000D01*
Y310000D02*X174000D01*
X177500Y313500D01*
Y332500D01*
X179500Y334500D01*
X174500Y364500D02*X170000Y360000D01*
Y336000D01*
X169000Y335000D02*X161000D01*
X158500Y332500D01*
Y327500D01*
X153500Y322500D01*
Y318000D01*
X158500Y313000D01*
X159000Y310000D02*Y300000D01*
X259000Y334500D02*X260500Y333000D01*
X265000Y376000D02*X253500Y364500D01*
X260500Y333000D02*X333500D01*
X463000Y362000D02*X454500Y370500D01*
X287500D01*
X282000Y376000D01*
X265000D01*
X253500Y364500D02*X174500D01*
X170000Y336000D02*X169000Y335000D01*
X158500Y313000D02*Y310500D01*
X159000Y310000D01*
X459500Y360500D02*X453000Y367000D01*
X291500D01*
X289000Y374500D02*X284000Y379500D01*
X263500D01*
X252000Y368000D01*
X173500D01*
X166500Y361000D01*
X103000D01*
X94000Y370000D01*
X90000D01*
X459500Y360500D02*Y210600D01*
G54D11*X169000Y50000D02*X178000D01*
X182500Y54500D01*
Y92500D01*
X183500Y93500D01*
X260000D01*
X264000Y89500D01*
X280500D01*
X284500Y93500D01*
X297000D01*
X297500Y93000D01*
X415300Y150600D02*X419300D01*
G54D13*X458499Y208500D02*Y209599D01*
X459500Y210600D01*
X305500Y282000D02*X307500Y280000D01*
Y275000D01*
X305500Y328000D02*Y282000D01*
X471000Y363500D02*X457250Y377250D01*
X296750D01*
X181750Y329750D02*X183000Y331000D01*
X258000D01*
X259500Y329500D01*
X249000Y375000D02*X171500D01*
X164500Y368000D01*
X166500Y356000D02*Y340500D01*
X164500Y338500D01*
G54D12*X165500Y357000D02*X164500Y358000D01*
G54D13*X166500Y356000D02*X165000Y357500D01*
X304000Y329500D02*X305500Y328000D01*
X259500Y329500D02*X304000D01*
X296750Y377250D02*X287750Y386250D01*
X260250D01*
X249000Y375000D01*
X176500Y308000D02*X180750Y312250D01*
Y328750D01*
X181500Y329500D01*
X164500Y338500D02*X159500D01*
X155000Y334000D01*
Y329000D01*
X150000Y324000D01*
Y315000D01*
X176500Y282000D02*Y308000D01*
X181500Y307500D02*Y280000D01*
X169000D02*X174500D01*
X176500Y282000D01*
X181500Y280000D02*X176500Y275000D01*
X164000D01*
X159000Y280000D01*
G54D11*X169000Y70000D02*X177000Y78000D01*
Y94000D01*
X156000Y84000D02*X154500Y82500D01*
Y74500D01*
X159000Y70000D01*
X177000Y94000D02*X180500Y97500D01*
X156000Y84000D02*Y113000D01*
X159500Y116500D01*
X180500Y97500D02*X261500D01*
X283500D02*X314500D01*
X316000Y99000D01*
X261500Y97500D02*X265500Y93500D01*
X279500D01*
X283500Y97500D01*
X316000Y99000D02*Y108500D01*
X317500Y110000D01*
X159500Y116500D02*X383000D01*
X384500Y118000D01*
G54D13*X476000Y208000D02*Y209500D01*
X474250Y211250D01*
X472750D01*
G54D11*X384500Y230000D02*X387500Y233000D01*
X413000D01*
X420500Y225500D01*
Y208000D01*
G54D13*X472750Y211250D02*X471000Y213000D01*
Y363500D02*Y213000D01*
G54D11*X384500Y118000D02*Y230000D01*
X415300Y152600D02*X419300D01*
X169000Y80000D02*X171000D01*
X158000Y81000D02*X159000Y80000D01*
X160000Y114500D02*X158000Y112500D01*
Y81000D01*
X171000Y80000D02*X175000Y84000D01*
Y94500D01*
X180000Y99500D01*
X262000D01*
X385000Y114500D02*X160000D01*
X262000Y99500D02*X266000Y95500D01*
X279000D01*
X283000Y99500D01*
X306000D01*
X307500Y101000D01*
Y110000D01*
G54D13*X467500Y212000D02*X471500Y208000D01*
X472500D01*
G54D11*X386500Y229500D02*Y116000D01*
X385000Y114500D01*
X415300Y154600D02*X419300D01*
G54D13*X467500Y362000D02*X455500Y374000D01*
X295000D01*
X467500Y212000D02*Y362000D01*
G54D11*X417500Y208000D02*Y226000D01*
X412500Y231000D01*
X388000D01*
X386500Y229500D01*
G54D13*X295000Y374000D02*X286000Y383000D01*
X262000D01*
X250500Y371500D01*
X172500D01*
X165500Y364500D01*
X105500D01*
X90000Y380000D01*
G54D11*X413500Y218000D02*Y227500D01*
G54D13*X337500Y206000D02*Y230000D01*
G54D12*X435500Y208000D02*Y212000D01*
G54D13*Y237500D01*
G54D11*X413500Y227500D02*X412000Y229000D01*
X391000Y227500D02*X392500Y229000D01*
X412000D01*
X391000Y227500D02*Y132500D01*
X415300Y156600D02*X419300D01*
G54D13*X335000Y203500D02*X337500Y206000D01*
X322000Y203500D02*X335000D01*
X321500Y204000D02*X322000Y203500D01*
G54D11*X446500Y220000D02*Y339000D01*
X300000Y382000D02*X296500Y385500D01*
X292500D01*
X289000Y389000D01*
X259500D01*
X248000Y377500D01*
X102500D01*
X458500Y382000D02*X300000D01*
X102500Y377500D02*X100000Y380000D01*
X458500Y382000D02*X477000Y363500D01*
Y357000D01*
X476000Y356000D01*
X100000Y130000D02*X100500D01*
X273000Y132500D02*X271000Y134500D01*
X104500D01*
X100000Y130000D01*
X273000Y132500D02*X376000D01*
G54D13*X188500Y196500D02*X321000D01*
X321500Y196000D01*
G54D11*X445500Y218500D02*Y219000D01*
X446500Y220000D01*
G54D13*X185500Y193500D02*X188500Y196500D01*
X185500Y182000D02*Y193500D01*
X173500Y170000D02*X169000D01*
X185500Y182000D02*X173500Y170000D01*
X159000D02*X143500Y185500D01*
Y242000D01*
X153000Y251500D01*
X439000D01*
G54D11*X410500Y218000D02*Y225500D01*
X409000Y227000D01*
X394000Y225500D02*X395500Y227000D01*
X409000D01*
G54D12*X432500Y212000D02*Y208000D01*
G54D13*X432000Y212500D02*Y237500D01*
G54D11*X373500Y129000D02*X374000Y129500D01*
X376000D01*
X415300Y158600D02*X419300D01*
X444000Y221000D02*Y337000D01*
X458000Y380000D02*X298000D01*
X297500Y381000D02*Y380500D01*
X298000Y380000D01*
X474500Y359000D02*Y363500D01*
X458000Y380000D02*X474500Y363500D01*
X270000Y130000D02*X271000Y129000D01*
X373500D01*
X268000Y130500D02*X267500Y130000D01*
X270000D01*
X394000Y225500D02*Y132500D01*
G54D13*X367500Y201000D02*Y230000D01*
X366500Y200000D02*X367500Y201000D01*
X169000Y200000D02*X366500D01*
X156500Y241000D02*X439000D01*
G54D11*X442500Y218500D02*Y219500D01*
X444000Y221000D01*
G54D13*X159000Y200000D02*X156500D01*
X154000Y202500D01*
Y238500D01*
X156500Y241000D01*
G54D11*X456500Y212000D02*Y215000D01*
X455500Y216000D01*
X415300Y160600D02*X419300D01*
G54D12*X430000Y210000D02*X429000D01*
X428500Y210500D01*
G54D13*Y221000D02*Y210500D01*
G54D11*X455500Y360500D02*X452500Y363500D01*
X284000D01*
X277500Y370000D01*
X455500Y360500D02*Y216000D01*
G54D13*X428500Y220500D02*Y237500D01*
X357500Y204000D02*Y230000D01*
X155500Y244500D02*X439000D01*
X357500Y190000D02*Y196500D01*
X189500Y190000D02*X357500D01*
X169000D02*X181000D01*
X159000D02*X150500Y198500D01*
Y239500D01*
X155500Y244500D01*
G54D11*X366500Y335500D02*X367500Y334500D01*
Y275000D02*Y334500D01*
X261500Y335500D02*X366500D01*
G54D13*X192500Y315000D02*X195000Y312500D01*
Y296000D01*
X194000Y295000D01*
X188500D01*
X154000Y248000D02*X439000D01*
G54D11*X452000Y361500D02*X453500Y360000D01*
X452000Y361500D02*X175500D01*
X159000Y320000D02*X161000Y322000D01*
Y331000D01*
X162500Y332500D01*
X169000Y320000D02*X171000D01*
X173250Y359250D02*X175500Y361500D01*
X173250Y359250D02*Y333750D01*
X172000Y332500D01*
X162500D01*
X177000Y337000D02*X260000D01*
X261500Y335500D01*
X171000Y320000D02*X175000Y324000D01*
Y335000D01*
X177000Y337000D01*
X151000Y131500D02*X146500Y127000D01*
Y54500D02*X148500Y52500D01*
X166500D01*
X169000Y50000D01*
G54D13*X194500Y56500D02*X193000Y55000D01*
X188500D01*
G54D11*X266500Y125000D02*X260000Y131500D01*
X266500Y125000D02*X271500D01*
X273000Y126500D01*
G54D13*X351500Y185500D02*X352000Y186000D01*
X189500Y185500D02*X351500D01*
G54D11*X260000Y131500D02*X151000D01*
X146500Y127000D02*Y54500D01*
G54D13*X147000Y192000D02*Y241000D01*
X188500Y315000D02*X192500D01*
X188500Y75000D02*X193000D01*
X194500Y73500D01*
Y56500D01*
X174500Y185500D02*X181000D01*
X169000Y180000D02*X174500Y185500D01*
X159000Y180000D02*X147000Y192000D01*
Y241000D02*X154000Y248000D01*
G54D11*X453500Y212000D02*Y360000D01*
X273000Y126500D02*X376000D01*
X397000Y223500D02*Y132500D01*
G54D13*X352000Y225500D02*X347500Y230000D01*
X352000Y204000D02*Y225500D01*
G54D11*X415300Y162600D02*X419300D01*
X430000Y160500D02*X425500D01*
X407500Y218000D02*Y223500D01*
X406000Y225000D01*
X397000Y223500D02*X398500Y225000D01*
X406000D01*
G54D12*X438000Y210000D02*X438500D01*
X439000Y210500D01*
G54D13*Y221000D02*Y210500D01*
Y220500D02*Y237500D01*
G54D14*X367500Y155000D03*
X307500Y230000D03*
X317500D03*
X327500D03*
X337500D03*
X347500D03*
X357500D03*
X367500D03*
G54D15*X458499Y208500D03*
X438000Y210000D03*
X461500Y208500D03*
X473000Y208000D03*
X476000D03*
X453500Y212000D03*
X456500D03*
X442500Y218500D03*
X445500D03*
X430000Y210000D03*
X432500Y208000D03*
X435500D03*
X417500D03*
X420500D03*
X423500D03*
X407500Y218000D03*
X410500D03*
X413500D03*
G54D14*X327500Y155000D03*
X337500D03*
X347500D03*
X357500D03*
X297500D03*
X307500D03*
X317500D03*
X267500Y110000D03*
X277500D03*
X267500Y100000D03*
X277500D03*
X337500Y110000D03*
X327500D03*
X317500D03*
X307500D03*
X297500D03*
X367500D03*
X357500D03*
X347500D03*
X367500Y35000D03*
X357500D03*
X347500D03*
X337500D03*
X327500D03*
X317500D03*
X307500D03*
X297500D03*
X100000Y230000D03*
Y220000D03*
X90000D03*
Y230000D03*
Y110000D03*
Y100000D03*
X100000D03*
Y110000D03*
G54D16*G36*
X166000Y83000D02*Y77000D01*
X172000D01*
Y83000D01*
X166000D01*
G37*
G54D14*X169000Y70000D03*
Y60000D03*
Y50000D03*
Y40000D03*
Y30000D03*
X188500Y75000D03*
Y55000D03*
G54D16*G36*
X166000Y203000D02*Y197000D01*
X172000D01*
Y203000D01*
X166000D01*
G37*
G54D14*X169000Y190000D03*
Y180000D03*
Y170000D03*
Y160000D03*
Y150000D03*
G54D16*G36*
X166000Y323000D02*Y317000D01*
X172000D01*
Y323000D01*
X166000D01*
G37*
G54D14*X188500Y315000D03*
X169000Y310000D03*
Y300000D03*
X188500Y295000D03*
X169000Y290000D03*
G54D16*G36*
X156000Y294000D02*Y286000D01*
X164000D01*
Y294000D01*
X156000D01*
G37*
G54D14*X169000Y280000D03*
Y270000D03*
X90000Y350000D03*
Y340000D03*
X100000D03*
Y350000D03*
G54D16*G36*
X87250Y302750D02*Y297250D01*
X92750D01*
Y302750D01*
X87250D01*
G37*
G54D17*X130000Y300000D03*
G54D18*X100000Y290000D03*
G54D17*Y300000D03*
G54D16*G36*
X86000Y294000D02*Y286000D01*
X94000D01*
Y294000D01*
X86000D01*
G37*
G54D18*X150000Y290000D03*
G54D16*G36*
X137250Y302750D02*Y297250D01*
X142750D01*
Y302750D01*
X137250D01*
G37*
G54D14*X297500Y230000D03*
X277500D03*
Y220000D03*
X267500D03*
Y230000D03*
Y350000D03*
Y340000D03*
X277500D03*
Y350000D03*
X297500D03*
Y275000D03*
X367500D03*
Y350000D03*
X357500Y275000D03*
X347500D03*
X337500D03*
X327500D03*
X317500D03*
X307500D03*
X357500Y350000D03*
X347500D03*
X337500D03*
X327500D03*
X317500D03*
X307500D03*
X159000Y280000D03*
Y200000D03*
Y190000D03*
Y180000D03*
Y170000D03*
Y80000D03*
Y70000D03*
Y60000D03*
X100000Y130000D03*
X159000Y300000D03*
G54D15*X189500Y185500D03*
X181000D03*
X189500Y190000D03*
X181000D03*
G54D14*X159000Y320000D03*
Y310000D03*
G54D15*X164500Y368000D03*
Y358000D03*
G54D14*X277500Y370000D03*
G54D15*X291500Y367000D03*
X289000Y374500D03*
G54D14*X267500Y370000D03*
X100000Y380000D03*
X90000Y370000D03*
Y380000D03*
Y360000D03*
G54D15*X150000Y315000D03*
X181500Y307500D03*
X297500Y381000D03*
X321500Y196000D03*
X297500Y93000D03*
X321500Y204000D03*
X352000D03*
Y186000D03*
X357500Y204000D03*
Y196500D03*
G54D14*X267500Y130000D03*
G54D15*X376000Y132500D03*
X391000D03*
X394000D03*
X397000D03*
X376000Y126500D03*
Y129500D03*
G54D19*X425500Y153500D03*
Y150000D03*
X430000Y157000D03*
Y160500D03*
Y150000D03*
Y153500D03*
X425500Y157000D03*
Y160500D03*
G54D15*X439000Y237500D03*
X435500D03*
X444000Y337000D03*
X474500Y359000D03*
X446500Y339000D03*
X476000Y356000D03*
X432000Y237500D03*
X428500D03*
X439000Y248000D03*
X435500Y251500D03*
X432000Y241000D03*
X428500Y244500D03*
G54D20*G54D11*G54D20*G54D11*G54D20*G54D11*G54D20*G54D11*G54D20*G54D11*G54D21*G54D11*G54D20*G54D11*G54D20*G54D22*G54D20*G54D23*G54D22*G54D23*G54D22*G54D23*G54D20*M02*
