G04 start of page 12 for group -4062 idx -4062 *
G04 Title: (unknown), soldermask *
G04 Creator: pcb 4.2.0 *
G04 CreationDate: Mon Sep 28 02:32:54 2020 UTC *
G04 For: commonadmin *
G04 Format: Gerber/RS-274X *
G04 PCB-Dimensions (mil): 24000.00 18000.00 *
G04 PCB-Coordinate-Origin: lower left *
%MOIN*%
%FSLAX25Y25*%
%LNBOTTOMMASK*%
%ADD249C,0.0200*%
%ADD248C,0.0611*%
%ADD247C,0.0960*%
%ADD246C,0.2422*%
%ADD245C,0.0572*%
%ADD244C,0.1162*%
%ADD243C,0.0966*%
%ADD242C,0.0660*%
%ADD241C,0.0001*%
%ADD240C,0.1103*%
%ADD239C,0.0532*%
%ADD238C,0.0729*%
%ADD237C,0.0454*%
%ADD236C,0.1005*%
G54D236*X791339Y229134D03*
G54D237*X785433Y225197D03*
G54D238*X794882Y221654D03*
G54D239*X788976Y222047D03*
G54D236*X791339Y370866D03*
G54D238*X794882Y363386D03*
G54D239*X788976Y363780D03*
G54D237*X785433Y366929D03*
G54D236*X791339Y355118D03*
G54D238*X794882Y347638D03*
G54D239*X788976Y348031D03*
G54D236*X791339Y339370D03*
G54D238*X794882Y331890D03*
G54D239*X788976Y332283D03*
G54D237*X785433Y335433D03*
Y351181D03*
G54D236*X791339Y323622D03*
G54D237*X785433Y319685D03*
G54D238*X794882Y316142D03*
G54D239*X788976Y316535D03*
G54D236*X791339Y307874D03*
G54D238*X794882Y300394D03*
G54D239*X788976Y300787D03*
G54D237*X785433Y303937D03*
G54D236*X791339Y292126D03*
G54D240*X734252Y330453D03*
X719488D03*
X734252Y297953D03*
X719488D03*
Y265453D03*
G54D238*X794882Y284646D03*
G54D239*X788976Y285039D03*
G54D236*X791339Y276378D03*
G54D237*X785433Y272441D03*
Y288189D03*
G54D238*X794882Y268898D03*
G54D239*X788976Y269291D03*
G54D236*X791339Y260630D03*
G54D238*X794882Y253150D03*
G54D239*X788976Y253543D03*
G54D237*X785433Y256693D03*
G54D236*X791339Y244882D03*
G54D238*X794882Y237402D03*
G54D239*X788976Y237795D03*
G54D237*X785433Y240945D03*
G54D236*X791339Y607087D03*
G54D238*X794882Y599606D03*
G54D239*X788976Y600000D03*
G54D237*X785433Y603150D03*
G54D236*X791339Y591339D03*
G54D238*X794882Y583858D03*
G54D239*X788976Y584252D03*
G54D237*X785433Y587402D03*
G54D236*X791339Y465354D03*
G54D238*X794882Y457874D03*
G54D239*X788976Y458268D03*
G54D237*X785433Y461417D03*
G54D236*X791339Y449606D03*
G54D238*X794882Y442126D03*
G54D239*X788976Y442520D03*
G54D237*X785433Y445669D03*
G54D236*X791339Y481102D03*
G54D238*X794882Y473622D03*
G54D239*X788976Y474016D03*
G54D237*X785433Y477165D03*
G54D236*X791339Y496850D03*
G54D238*X794882Y489370D03*
G54D239*X788976Y489764D03*
G54D237*X785433Y492913D03*
G54D236*X791339Y512598D03*
Y528346D03*
G54D238*X794882Y520866D03*
G54D239*X788976Y521260D03*
G54D237*X785433Y524409D03*
G54D238*X794882Y505118D03*
G54D239*X788976Y505512D03*
G54D237*X785433Y508661D03*
G54D236*X791339Y575591D03*
G54D238*X794882Y568110D03*
G54D236*X791339Y559843D03*
G54D237*X785433Y555906D03*
G54D239*X788976Y568504D03*
G54D237*X785433Y571654D03*
G54D238*X794882Y552362D03*
G54D239*X788976Y552756D03*
G54D236*X791339Y544094D03*
G54D238*X794882Y536614D03*
G54D239*X788976Y537008D03*
G54D237*X785433Y540157D03*
G54D236*X791339Y433858D03*
G54D238*X794882Y426378D03*
G54D239*X788976Y426772D03*
G54D237*X785433Y429921D03*
Y414173D03*
G54D236*X791339Y418110D03*
G54D238*X794882Y410630D03*
G54D239*X788976Y411024D03*
G54D236*X791339Y402362D03*
G54D238*X794882Y394882D03*
G54D239*X788976Y395276D03*
G54D236*X791339Y386614D03*
G54D238*X794882Y379134D03*
G54D239*X788976Y379528D03*
G54D237*X785433Y382677D03*
Y398425D03*
G54D240*X734252Y395453D03*
Y427953D03*
Y460453D03*
Y492953D03*
Y525453D03*
Y557953D03*
Y590453D03*
Y265453D03*
Y362953D03*
X719488D03*
Y395453D03*
Y427953D03*
Y460453D03*
Y492953D03*
Y525453D03*
Y557953D03*
Y590453D03*
G54D241*G36*
X756700Y653300D02*Y646700D01*
X763300D01*
Y653300D01*
X756700D01*
G37*
G54D242*X770000Y650000D03*
X760000Y640000D03*
X770000D03*
G54D243*X633858Y484055D03*
Y464370D03*
Y444685D03*
Y425000D03*
Y405315D03*
Y385630D03*
Y365945D03*
G54D240*X682087Y363031D03*
G54D243*X671260Y365945D03*
Y346260D03*
G54D240*X682087Y395531D03*
Y428031D03*
Y460531D03*
G54D243*X671260Y503740D03*
Y484055D03*
Y464370D03*
Y444685D03*
Y425000D03*
Y405315D03*
Y385630D03*
X633858Y346260D03*
X594488Y444685D03*
Y425000D03*
Y405315D03*
Y385630D03*
Y365945D03*
Y346260D03*
G54D240*X682087Y330531D03*
Y298031D03*
Y265531D03*
G54D242*X615000Y296000D03*
X625000D03*
X635000D03*
X645000D03*
X655000D03*
X665000D03*
X635000Y306000D03*
X645000D03*
X655000D03*
X665000D03*
X615000Y319500D03*
Y329500D03*
X625000D03*
X635000D03*
X645000D03*
X655000D03*
X665000D03*
X625000Y319500D03*
X635000D03*
X645000D03*
X655000D03*
X665000D03*
G54D241*G36*
X687700Y693300D02*Y686700D01*
X694300D01*
Y693300D01*
X687700D01*
G37*
G54D242*X691000Y680000D03*
Y670000D03*
Y660000D03*
Y650000D03*
Y640000D03*
Y630000D03*
Y620000D03*
G54D241*G36*
X658200Y693300D02*Y686700D01*
X664800D01*
Y693300D01*
X658200D01*
G37*
G54D242*X661500Y680000D03*
Y670000D03*
Y660000D03*
Y650000D03*
Y640000D03*
Y630000D03*
Y620000D03*
G54D241*G36*
X579700Y653300D02*Y646700D01*
X586300D01*
Y653300D01*
X579700D01*
G37*
G54D242*X583000Y640000D03*
X593000D03*
Y650000D03*
G54D243*X594488Y503740D03*
Y484055D03*
Y464370D03*
G54D241*G36*
X571700Y299300D02*Y292700D01*
X578300D01*
Y299300D01*
X571700D01*
G37*
G54D242*X585000Y296000D03*
X595000D03*
X605000D03*
Y319500D03*
Y329500D03*
Y306000D03*
X615000D03*
X625000D03*
X575000D03*
X585000D03*
X595000D03*
G54D241*G36*
X571700Y322800D02*Y316200D01*
X578300D01*
Y322800D01*
X571700D01*
G37*
G54D242*X585000Y319500D03*
X595000D03*
X575000Y329500D03*
X585000D03*
X595000D03*
G54D238*X523504Y456787D03*
Y507181D03*
Y442181D03*
G54D244*X510000Y507969D03*
G54D245*X487520Y509543D03*
Y499504D03*
G54D244*X510000Y456000D03*
Y442969D03*
G54D245*X513543Y479976D03*
Y488008D03*
Y496039D03*
X506457Y483992D03*
Y492024D03*
Y475961D03*
X513543Y471945D03*
X487520Y464465D03*
Y454425D03*
X506457Y467929D03*
X487520Y444543D03*
X472480Y454425D03*
Y464465D03*
Y434504D03*
Y444543D03*
Y499504D03*
Y509543D03*
G54D238*X436496Y507181D03*
G54D244*X450000Y507969D03*
G54D245*X446457Y483992D03*
X453543Y479976D03*
Y488008D03*
X446457Y492024D03*
X453543Y496039D03*
G54D246*X434252Y532283D03*
X462598D03*
G54D245*X446457Y475961D03*
X453543Y471945D03*
G54D238*X436496Y456787D03*
G54D244*X450000Y456000D03*
G54D245*X446457Y467929D03*
G54D238*X436496Y442181D03*
G54D244*X450000Y442969D03*
G54D247*X488189Y522441D03*
Y538189D03*
G54D242*X498610Y547930D03*
Y559430D03*
X508610Y557930D03*
Y549430D03*
X518610Y547930D03*
G54D245*X506457Y362024D03*
X487520Y379543D03*
Y369504D03*
Y399465D03*
Y389425D03*
X513543Y414976D03*
Y406945D03*
Y423008D03*
Y431039D03*
X487520Y434504D03*
X506457Y418992D03*
Y427024D03*
Y410961D03*
Y402929D03*
G54D238*X523504Y377181D03*
G54D244*X510000Y377969D03*
G54D245*X513543Y349976D03*
Y358008D03*
Y366039D03*
Y341945D03*
X506457Y353992D03*
Y345961D03*
Y337929D03*
G54D238*X523504Y391787D03*
G54D244*X510000Y391000D03*
G54D245*X487520Y334465D03*
Y324425D03*
G54D238*X523504Y326787D03*
G54D244*X510000Y326000D03*
G54D245*X453543Y341945D03*
G54D238*X436496Y326787D03*
G54D244*X450000Y326000D03*
G54D245*X472480Y324425D03*
Y334465D03*
Y369504D03*
Y379543D03*
Y389425D03*
Y399465D03*
X446457Y345961D03*
Y418992D03*
Y427024D03*
Y410961D03*
Y402929D03*
Y337929D03*
X453543Y349976D03*
Y414976D03*
Y406945D03*
Y423008D03*
Y431039D03*
G54D238*X436496Y377181D03*
G54D244*X450000Y377969D03*
G54D245*X446457Y353992D03*
Y362024D03*
X453543Y358008D03*
Y366039D03*
G54D238*X436496Y391787D03*
G54D244*X450000Y391000D03*
G54D236*X523622Y585433D03*
G54D248*Y601181D03*
X507874Y585433D03*
X515748Y599016D03*
X509843Y593110D03*
X523622Y569685D03*
X539370Y585433D03*
X531496Y571850D03*
X537402Y577756D03*
X531496Y599016D03*
X515748Y571850D03*
G54D242*X518610Y559430D03*
G54D248*X509843Y577756D03*
X537402Y593110D03*
G54D247*X559055Y538189D03*
Y522441D03*
G54D242*X538610Y547930D03*
X548610Y549430D03*
Y557930D03*
X528610Y549430D03*
Y557930D03*
X538610Y559430D03*
G54D247*X574803Y522441D03*
Y538189D03*
G54D242*X585232Y547933D03*
Y559433D03*
G54D247*X645669Y538189D03*
Y522441D03*
G54D242*X635232Y549433D03*
Y557933D03*
G54D243*X633858Y503740D03*
G54D236*X610236Y585433D03*
G54D248*Y601181D03*
X594488Y585433D03*
X602362Y599016D03*
X596457Y593110D03*
X610236Y569685D03*
X625984Y585433D03*
X618110Y571850D03*
X624016Y577756D03*
G54D242*X625232Y559433D03*
G54D248*X618110Y599016D03*
X624016Y593110D03*
X602362Y571850D03*
X596457Y577756D03*
G54D242*X595232Y557933D03*
X605232Y559433D03*
X615232Y557933D03*
X595232Y549433D03*
X605232Y547933D03*
X615232Y549433D03*
X625232Y547933D03*
G54D240*X682087Y493031D03*
Y525531D03*
Y558031D03*
Y590531D03*
G54D246*X24654Y736000D03*
X53000D03*
X24654Y704000D03*
Y672000D03*
Y640000D03*
G54D242*X15500Y615000D03*
X25500D03*
X35500D03*
G54D246*X53000Y704000D03*
Y672000D03*
Y640000D03*
G54D242*X45500Y615000D03*
X55500D03*
X65500D03*
X80500D03*
Y605000D03*
X90500D03*
Y615000D03*
X119500Y605000D03*
Y615000D03*
X129500Y605000D03*
Y615000D03*
X139500Y605000D03*
Y615000D03*
X149500D03*
X159500D03*
X149500Y605000D03*
X159500D03*
X189000D03*
X199000D03*
X209000D03*
X219000D03*
X189000Y615000D03*
X199000D03*
X209000D03*
X219000D03*
X228000Y590000D03*
X218000D03*
X208000D03*
X198000D03*
X179000D03*
X229000Y605000D03*
X258000D03*
X268000D03*
X229000Y615000D03*
X258000D03*
X268000D03*
Y590000D03*
X258000D03*
X248000D03*
X238000D03*
X268000Y540000D03*
X258000D03*
X248000D03*
X238000D03*
X179000Y580000D03*
Y570000D03*
Y560000D03*
Y550000D03*
Y540000D03*
X228000D03*
X218000D03*
X208000D03*
X198000D03*
X288000Y300000D03*
X298000D03*
X308000D03*
X318000D03*
X328000D03*
X338000D03*
X348000D03*
X358000D03*
X198000D03*
X208000D03*
X218000D03*
X228000D03*
X238000D03*
X248000D03*
X258000D03*
X268000D03*
X288000Y375000D03*
X268000D03*
Y365000D03*
X298000Y375000D03*
X308000D03*
X318000D03*
X328000D03*
X338000D03*
X348000D03*
X358000D03*
X258000Y365000D03*
Y375000D03*
X229000D03*
Y365000D03*
X358000Y540000D03*
Y615000D03*
X348000Y540000D03*
Y615000D03*
X338000D03*
X328000D03*
X318000D03*
X308000D03*
X298000D03*
X288000D03*
Y420000D03*
X298000D03*
X308000D03*
X318000D03*
X328000D03*
X338000D03*
X348000D03*
X358000D03*
X338000Y540000D03*
X328000D03*
X318000D03*
X308000D03*
X298000D03*
X288000D03*
X318000Y495000D03*
X328000D03*
X338000D03*
X348000D03*
X358000D03*
X288000D03*
X298000D03*
X308000D03*
X229000D03*
X219000D03*
X209000D03*
X268000D03*
Y485000D03*
X258000D03*
Y495000D03*
X229000Y485000D03*
X219000D03*
X209000D03*
X199000Y495000D03*
Y485000D03*
X189000D03*
Y495000D03*
X159500D03*
X149500D03*
X139500D03*
X129500D03*
X119500D03*
X159500Y485000D03*
X149500D03*
X139500D03*
X129500D03*
X119500D03*
X90500Y495000D03*
X80500D03*
X65500D03*
X90500Y485000D03*
X80500D03*
X55500Y495000D03*
X45500D03*
X35500D03*
X25500D03*
X15500D03*
X179000Y300000D03*
Y310000D03*
Y320000D03*
Y330000D03*
Y340000D03*
Y350000D03*
X198000D03*
X208000D03*
X218000D03*
X228000D03*
X238000D03*
X248000D03*
X258000D03*
X268000D03*
X219000Y375000D03*
X209000D03*
X199000D03*
X189000D03*
X219000Y365000D03*
X209000D03*
X199000D03*
X189000D03*
X159500D03*
X149500D03*
X159500Y375000D03*
X149500D03*
X139500D03*
Y365000D03*
X129500Y375000D03*
X119500D03*
X129500Y365000D03*
X119500D03*
X90500D03*
X80500D03*
X90500Y375000D03*
X80500D03*
X65500D03*
X55500D03*
X45500D03*
X35500D03*
X25500D03*
X15500D03*
X198000Y420000D03*
X179000D03*
Y430000D03*
X208000Y420000D03*
X179000Y440000D03*
Y450000D03*
Y460000D03*
Y470000D03*
X198000D03*
X218000Y420000D03*
X228000D03*
X238000D03*
X248000D03*
X258000D03*
X268000D03*
X208000Y470000D03*
X218000D03*
X228000D03*
X238000D03*
X248000D03*
X258000D03*
X268000D03*
G54D241*G36*
X462273Y393752D02*X456555D01*
Y387248D01*
X462273D01*
Y393752D01*
G37*
G36*
X469359D02*X463641D01*
Y387248D01*
X469359D01*
Y393752D01*
G37*
G36*
X462273Y378752D02*X456555D01*
Y372248D01*
X462273D01*
Y378752D01*
G37*
G36*
X469359D02*X463641D01*
Y372248D01*
X469359D01*
Y378752D01*
G37*
G54D249*X439550Y432500D02*X442550D01*
X443250Y431800D01*
G54D241*G36*
X442250Y432800D02*Y430800D01*
X444750D01*
Y432800D01*
X442250D01*
G37*
G54D249*X441650Y431900D02*X442250Y432500D01*
X441050D02*X441650Y431900D01*
X438850Y431800D02*X439550Y432500D01*
G54D241*G36*
X436350Y432800D02*Y430800D01*
X439850D01*
Y432800D01*
X436350D01*
G37*
G54D249*X439850Y432500D02*X440450Y431900D01*
X441050Y432500D01*
X438950Y430500D02*X439550Y429900D01*
G54D241*G36*
X436350Y431500D02*Y429500D01*
X439950D01*
Y431500D01*
X436350D01*
G37*
G54D249*X439750Y429900D02*X440450Y430600D01*
X439550Y429900D02*X439750D01*
X442650D02*X443250Y430500D01*
G54D241*G36*
X442250Y431500D02*Y429500D01*
X444750D01*
Y431500D01*
X442250D01*
G37*
G54D249*X439550Y429900D02*X442650D01*
X440450Y430600D02*X441150Y429900D01*
X440950D02*X441650Y430600D01*
X442350Y429900D01*
X439450Y416700D02*X442450D01*
X443150Y416000D01*
G54D241*G36*
X442150Y417000D02*Y415000D01*
X444650D01*
Y417000D01*
X442150D01*
G37*
G54D249*X441550Y416100D02*X442150Y416700D01*
X440950D02*X441550Y416100D01*
X438750Y416000D02*X439450Y416700D01*
G54D241*G36*
X436250Y417000D02*Y415000D01*
X439750D01*
Y417000D01*
X436250D01*
G37*
G54D249*X439750Y416700D02*X440350Y416100D01*
X440950Y416700D01*
X439450Y414100D02*X442550D01*
X439450D02*X439650D01*
X442550D02*X443150Y414700D01*
G54D241*G36*
X442150Y415700D02*Y413700D01*
X444650D01*
Y415700D01*
X442150D01*
G37*
G54D249*X438850Y414700D02*X439450Y414100D01*
X439650D02*X440350Y414800D01*
X441050Y414100D01*
X440850D02*X441550Y414800D01*
X442250Y414100D01*
G54D241*G36*
X436250Y415700D02*Y413700D01*
X439850D01*
Y415700D01*
X436250D01*
G37*
G54D249*X435550Y359800D02*X438550D01*
X434850Y360500D02*X435550Y359800D01*
G54D241*G36*
X433350Y361500D02*Y359500D01*
X435850D01*
Y361500D01*
X433350D01*
G37*
G54D249*X435850Y359800D02*X436450Y360400D01*
X437050Y359800D01*
X438550D02*X439250Y360500D01*
G54D241*G36*
X438250Y361500D02*Y359500D01*
X441750D01*
Y361500D01*
X438250D01*
G37*
G54D249*X437650Y360400D02*X438250Y359800D01*
X437050D02*X437650Y360400D01*
X435450Y362400D02*X438550D01*
X438350D02*X438550D01*
X434850Y361800D02*X435450Y362400D01*
G54D241*G36*
X433350Y362800D02*Y360800D01*
X435850D01*
Y362800D01*
X433350D01*
G37*
G54D249*X438550Y362400D02*X439150Y361800D01*
X437650Y361700D02*X438350Y362400D01*
X436950D02*X437650Y361700D01*
X436450D02*X437150Y362400D01*
X435750D02*X436450Y361700D01*
G54D241*G36*
X438150Y362800D02*Y360800D01*
X441750D01*
Y362800D01*
X438150D01*
G37*
G54D249*X435600Y351500D02*X438600D01*
X434900Y352200D02*X435600Y351500D01*
X437700Y352100D02*X438300Y351500D01*
X437100D02*X437700Y352100D01*
X435900Y351500D02*X436500Y352100D01*
X437100Y351500D01*
G54D241*G36*
X433400Y353200D02*Y351200D01*
X435900D01*
Y353200D01*
X433400D01*
G37*
G54D249*X434900Y353500D02*X435500Y354100D01*
G54D241*G36*
X433400Y354500D02*Y352500D01*
X435900D01*
Y354500D01*
X433400D01*
G37*
G54D249*X435800Y354100D02*X436500Y353400D01*
X438600Y351500D02*X439300Y352200D01*
G54D241*G36*
X438300Y353200D02*Y351200D01*
X441800D01*
Y353200D01*
X438300D01*
G37*
G54D249*X438600Y354100D02*X439200Y353500D01*
G54D241*G36*
X438200Y354500D02*Y352500D01*
X441800D01*
Y354500D01*
X438200D01*
G37*
G54D249*X437700Y353400D02*X438400Y354100D01*
X438600D01*
X435500D02*X438600D01*
X437000D02*X437700Y353400D01*
X436500D02*X437200Y354100D01*
G54D241*G36*
X462273Y333752D02*X456555D01*
Y327248D01*
X462273D01*
Y333752D01*
G37*
G36*
X469359D02*X463641D01*
Y327248D01*
X469359D01*
Y333752D01*
G37*
G36*
X461859Y513252D02*X456141D01*
Y506748D01*
X461859D01*
Y513252D01*
G37*
G36*
X468945D02*X463227D01*
Y506748D01*
X468945D01*
Y513252D01*
G37*
G36*
X468316Y476209D02*X462598D01*
Y469705D01*
X468316D01*
Y476209D01*
G37*
G36*
X475402D02*X469684D01*
Y469705D01*
X475402D01*
Y476209D01*
G37*
G36*
X433413Y500087D02*Y497913D01*
X435587D01*
Y500087D01*
X433413D01*
G37*
G36*
X431051D02*Y497913D01*
X433225D01*
Y500087D01*
X431051D01*
G37*
G36*
X433413Y496587D02*Y494413D01*
X435587D01*
Y496587D01*
X433413D01*
G37*
G36*
X431051D02*Y494413D01*
X433225D01*
Y496587D01*
X431051D01*
G37*
G54D249*X434600Y489500D02*X437600D01*
X433900Y491500D02*X434500Y492100D01*
G54D241*G36*
X432400Y492500D02*Y490500D01*
X434900D01*
Y492500D01*
X432400D01*
G37*
G54D249*X436000Y492100D02*X436700Y491400D01*
X435500D02*X436200Y492100D01*
X434800D02*X435500Y491400D01*
X433900Y490200D02*X434600Y489500D01*
X434900D02*X435500Y490100D01*
X436100Y489500D01*
X437600D02*X438300Y490200D01*
X436700Y490100D02*X437300Y489500D01*
X436100D02*X436700Y490100D01*
G54D241*G36*
X437300Y491200D02*Y489200D01*
X440800D01*
Y491200D01*
X437300D01*
G37*
G36*
X437200Y492500D02*Y490500D01*
X440800D01*
Y492500D01*
X437200D01*
G37*
G36*
X432400Y491200D02*Y489200D01*
X434900D01*
Y491200D01*
X432400D01*
G37*
G54D249*X434500Y492100D02*X437600D01*
X438200Y491500D01*
X436700Y491400D02*X437400Y492100D01*
X437600D01*
X438050Y468500D02*X441050D01*
X437350Y467800D02*X438050Y468500D01*
X438350D02*X438950Y467900D01*
X439550Y468500D01*
G54D241*G36*
X434850Y468800D02*Y466800D01*
X438350D01*
Y468800D01*
X434850D01*
G37*
G36*
X440750D02*Y466800D01*
X443250D01*
Y468800D01*
X440750D01*
G37*
G54D249*X441050Y468500D02*X441750Y467800D01*
X440150Y467900D02*X440750Y468500D01*
X439550D02*X440150Y467900D01*
X438050Y465900D02*X441150D01*
X441750Y466500D01*
G54D241*G36*
X440750Y467500D02*Y465500D01*
X443250D01*
Y467500D01*
X440750D01*
G37*
G54D249*X438950Y466600D02*X439650Y465900D01*
X439450D02*X440150Y466600D01*
X440850Y465900D01*
X437450Y466500D02*X438050Y465900D01*
G54D241*G36*
X434850Y467500D02*Y465500D01*
X438450D01*
Y467500D01*
X434850D01*
G37*
G54D249*X438250Y465900D02*X438950Y466600D01*
X438050Y465900D02*X438250D01*
X437550Y470800D02*X440550D01*
X441250Y471500D01*
X439650Y471400D02*X440250Y470800D01*
X439050D02*X439650Y471400D01*
G54D241*G36*
X440250Y472500D02*Y470500D01*
X443750D01*
Y472500D01*
X440250D01*
G37*
G54D249*X436850Y471500D02*X437550Y470800D01*
X437850D02*X438450Y471400D01*
X439050Y470800D01*
G54D241*G36*
X435350Y472500D02*Y470500D01*
X437850D01*
Y472500D01*
X435350D01*
G37*
G54D249*X440550Y473400D02*X441150Y472800D01*
G54D241*G36*
X440150Y473800D02*Y471800D01*
X443750D01*
Y473800D01*
X440150D01*
G37*
G54D249*X439650Y472700D02*X440350Y473400D01*
X440550D01*
X436850Y472800D02*X437450Y473400D01*
G54D241*G36*
X435350Y473800D02*Y471800D01*
X437850D01*
Y473800D01*
X435350D01*
G37*
G54D249*X437450Y473400D02*X440550D01*
X438950D02*X439650Y472700D01*
X438450D02*X439150Y473400D01*
X437750D02*X438450Y472700D01*
X431100Y475500D02*X431800Y476200D01*
G54D241*G36*
X430800Y477200D02*Y475200D01*
X434300D01*
Y477200D01*
X430800D01*
G37*
G54D249*X427400Y476200D02*X428100Y475500D01*
G54D241*G36*
X425900Y477200D02*Y475200D01*
X428400D01*
Y477200D01*
X425900D01*
G37*
G54D249*X428100Y475500D02*X431100D01*
X430200Y476100D02*X430800Y475500D01*
X429600D02*X430200Y476100D01*
X428400Y475500D02*X429000Y476100D01*
X429600Y475500D01*
X428000Y478100D02*X431100D01*
X430900D02*X431100D01*
X427400Y477500D02*X428000Y478100D01*
G54D241*G36*
X425900Y478500D02*Y476500D01*
X428400D01*
Y478500D01*
X425900D01*
G37*
G54D249*X431100Y478100D02*X431700Y477500D01*
G54D241*G36*
X430700Y478500D02*Y476500D01*
X434300D01*
Y478500D01*
X430700D01*
G37*
G54D249*X430200Y477400D02*X430900Y478100D01*
X429500D02*X430200Y477400D01*
X429000D02*X429700Y478100D01*
X428300D02*X429000Y477400D01*
X436550Y479300D02*X439550D01*
X435850Y481300D02*X436450Y481900D01*
G54D241*G36*
X434350Y482300D02*Y480300D01*
X436850D01*
Y482300D01*
X434350D01*
G37*
G54D249*X437950Y481900D02*X438650Y481200D01*
X437450D02*X438150Y481900D01*
X436750D02*X437450Y481200D01*
X435850Y480000D02*X436550Y479300D01*
X436850D02*X437450Y479900D01*
G54D241*G36*
X434350Y481000D02*Y479000D01*
X436850D01*
Y481000D01*
X434350D01*
G37*
G54D249*X438650Y479900D02*X439250Y479300D01*
X438050D02*X438650Y479900D01*
X437450D02*X438050Y479300D01*
X439550D02*X440250Y480000D01*
G54D241*G36*
X439250Y481000D02*Y479000D01*
X442750D01*
Y481000D01*
X439250D01*
G37*
G36*
X439150Y482300D02*Y480300D01*
X442750D01*
Y482300D01*
X439150D01*
G37*
G54D249*X436450Y481900D02*X439550D01*
X440150Y481300D01*
X438650Y481200D02*X439350Y481900D01*
X439550D01*
G54D241*G36*
X544898Y535961D02*X542268D01*
Y532150D01*
X544898D01*
Y535961D01*
G37*
G36*
X543520D02*X540890D01*
Y532150D01*
X543520D01*
Y535961D01*
G37*
G36*
X542142D02*X539512D01*
Y532150D01*
X542142D01*
Y535961D01*
G37*
G36*
X540764D02*X538134D01*
Y532150D01*
X540764D01*
Y535961D01*
G37*
G36*
X539386D02*X536756D01*
Y532150D01*
X539386D01*
Y535961D01*
G37*
G36*
X550409Y534583D02*X546992D01*
Y529787D01*
X550409D01*
Y534583D01*
G37*
G36*
Y530843D02*X546992D01*
Y526047D01*
X550409D01*
Y530843D01*
G37*
G36*
X538008Y535961D02*X535378D01*
Y532150D01*
X538008D01*
Y535961D01*
G37*
G36*
X536630D02*X534000D01*
Y532150D01*
X536630D01*
Y535961D01*
G37*
G36*
X535252D02*X532622D01*
Y532150D01*
X535252D01*
Y535961D01*
G37*
G36*
X533874D02*X531244D01*
Y532150D01*
X533874D01*
Y535961D01*
G37*
G36*
X532496D02*X529866D01*
Y532150D01*
X532496D01*
Y535961D01*
G37*
G36*
X531118D02*X528488D01*
Y532150D01*
X531118D01*
Y535961D01*
G37*
G36*
X529740D02*X527110D01*
Y532150D01*
X529740D01*
Y535961D01*
G37*
G36*
X528362D02*X525732D01*
Y532150D01*
X528362D01*
Y535961D01*
G37*
G36*
X526984D02*X524354D01*
Y532150D01*
X526984D01*
Y535961D01*
G37*
G36*
X525606D02*X522976D01*
Y532150D01*
X525606D01*
Y535961D01*
G37*
G36*
X524228D02*X521598D01*
Y532150D01*
X524228D01*
Y535961D01*
G37*
G36*
X522850D02*X520220D01*
Y532150D01*
X522850D01*
Y535961D01*
G37*
G36*
X521472D02*X518843D01*
Y532150D01*
X521472D01*
Y535961D01*
G37*
G36*
X520094D02*X517465D01*
Y532150D01*
X520094D01*
Y535961D01*
G37*
G36*
X518717D02*X516087D01*
Y532150D01*
X518717D01*
Y535961D01*
G37*
G36*
X517339D02*X514709D01*
Y532150D01*
X517339D01*
Y535961D01*
G37*
G36*
X515961D02*X513331D01*
Y532150D01*
X515961D01*
Y535961D01*
G37*
G36*
X514583D02*X511953D01*
Y532150D01*
X514583D01*
Y535961D01*
G37*
G36*
X513205D02*X510575D01*
Y532150D01*
X513205D01*
Y535961D01*
G37*
G36*
X511827D02*X509197D01*
Y532150D01*
X511827D01*
Y535961D01*
G37*
G36*
X510449D02*X507819D01*
Y532150D01*
X510449D01*
Y535961D01*
G37*
G36*
X509071D02*X506441D01*
Y532150D01*
X509071D01*
Y535961D01*
G37*
G36*
X507693D02*X505063D01*
Y532150D01*
X507693D01*
Y535961D01*
G37*
G36*
X506315D02*X503685D01*
Y532150D01*
X506315D01*
Y535961D01*
G37*
G36*
X504937D02*X502307D01*
Y532150D01*
X504937D01*
Y535961D01*
G37*
G36*
X500213Y534583D02*X496795D01*
Y529787D01*
X500213D01*
Y534583D01*
G37*
G36*
X544898Y528283D02*X542268D01*
Y524472D01*
X544898D01*
Y528283D01*
G37*
G36*
X543520D02*X540890D01*
Y524472D01*
X543520D01*
Y528283D01*
G37*
G36*
X542142D02*X539512D01*
Y524472D01*
X542142D01*
Y528283D01*
G37*
G36*
X540764D02*X538134D01*
Y524472D01*
X540764D01*
Y528283D01*
G37*
G36*
X539386D02*X536756D01*
Y524472D01*
X539386D01*
Y528283D01*
G37*
G36*
X538008D02*X535378D01*
Y524472D01*
X538008D01*
Y528283D01*
G37*
G36*
X536630D02*X534000D01*
Y524472D01*
X536630D01*
Y528283D01*
G37*
G36*
X535252D02*X532622D01*
Y524472D01*
X535252D01*
Y528283D01*
G37*
G36*
X533874D02*X531244D01*
Y524472D01*
X533874D01*
Y528283D01*
G37*
G36*
X532496D02*X529866D01*
Y524472D01*
X532496D01*
Y528283D01*
G37*
G36*
X531118D02*X528488D01*
Y524472D01*
X531118D01*
Y528283D01*
G37*
G36*
X529740D02*X527110D01*
Y524472D01*
X529740D01*
Y528283D01*
G37*
G36*
X528362D02*X525732D01*
Y524472D01*
X528362D01*
Y528283D01*
G37*
G36*
X526984D02*X524354D01*
Y524472D01*
X526984D01*
Y528283D01*
G37*
G36*
X525606D02*X522976D01*
Y524472D01*
X525606D01*
Y528283D01*
G37*
G36*
X524228D02*X521598D01*
Y524472D01*
X524228D01*
Y528283D01*
G37*
G36*
X522850D02*X520220D01*
Y524472D01*
X522850D01*
Y528283D01*
G37*
G36*
X521472D02*X518843D01*
Y524472D01*
X521472D01*
Y528283D01*
G37*
G36*
X520094D02*X517465D01*
Y524472D01*
X520094D01*
Y528283D01*
G37*
G36*
X518717D02*X516087D01*
Y524472D01*
X518717D01*
Y528283D01*
G37*
G36*
X517339D02*X514709D01*
Y524472D01*
X517339D01*
Y528283D01*
G37*
G36*
X515961D02*X513331D01*
Y524472D01*
X515961D01*
Y528283D01*
G37*
G36*
X514583D02*X511953D01*
Y524472D01*
X514583D01*
Y528283D01*
G37*
G36*
X513205D02*X510575D01*
Y524472D01*
X513205D01*
Y528283D01*
G37*
G36*
X511827D02*X509197D01*
Y524472D01*
X511827D01*
Y528283D01*
G37*
G36*
X510449D02*X507819D01*
Y524472D01*
X510449D01*
Y528283D01*
G37*
G36*
X509071D02*X506441D01*
Y524472D01*
X509071D01*
Y528283D01*
G37*
G36*
X507693D02*X505063D01*
Y524472D01*
X507693D01*
Y528283D01*
G37*
G36*
X506315D02*X503685D01*
Y524472D01*
X506315D01*
Y528283D01*
G37*
G36*
X504937D02*X502307D01*
Y524472D01*
X504937D01*
Y528283D01*
G37*
G36*
X500213Y530843D02*X496795D01*
Y526047D01*
X500213D01*
Y530843D01*
G37*
M02*
