G04 start of page 10 for group -4079 idx -4079 *
G04 Title: (unknown), topsilk *
G04 Creator: pcb 4.2.0 *
G04 CreationDate: Wed Jul 29 19:42:11 2020 UTC *
G04 For: commonadmin *
G04 Format: Gerber/RS-274X *
G04 PCB-Dimensions (mil): 6000.00 7000.00 *
G04 PCB-Coordinate-Origin: lower left *
%MOIN*%
%FSLAX25Y25*%
%LNTOPSILK*%
%ADD95C,0.1060*%
%ADD94C,0.0660*%
%ADD93C,0.0050*%
%ADD92C,0.0030*%
%ADD91C,0.0038*%
%ADD90C,0.0040*%
%ADD89C,0.0729*%
%ADD88C,0.1162*%
%ADD87C,0.0572*%
%ADD86C,0.0400*%
%ADD85C,0.0350*%
%ADD84C,0.0510*%
%ADD83C,0.0940*%
%ADD82C,0.0027*%
%ADD81C,0.0021*%
%ADD80C,0.0022*%
%ADD79C,0.0060*%
%ADD78C,0.0100*%
G54D78*X164000Y85000D02*Y25000D01*
X174000D01*
Y85000D01*
X164000D01*
Y75000D02*X174000D01*
Y85000D01*
G54D79*X404000Y213000D02*Y182500D01*
X416500Y183500D02*X419500Y186500D01*
X407000Y182500D02*X415500D01*
X419500Y190500D02*Y186500D01*
X420500Y206000D02*Y203000D01*
X417500Y206000D02*Y203000D01*
X406000D02*Y177500D01*
X401000Y220500D02*Y172500D01*
X406000Y177500D02*X416500D01*
Y178000D02*X422000D01*
X416500D02*Y176500D01*
X420500D02*X422000D01*
X418500D02*X419500Y175500D01*
X416500Y176500D02*X418500D01*
X404000Y182500D02*X404500D01*
X419500D02*X420500Y183500D01*
X419500Y184500D02*X420500Y183500D01*
X418500D02*X419500Y184500D01*
X418500Y183500D02*X419500Y182500D01*
X416500Y183500D02*X419500Y180500D01*
X406000Y203000D02*X421000D01*
X410500Y216000D02*Y213000D01*
X413500Y216000D02*Y213000D01*
X404000D01*
X407500Y216000D02*Y213000D01*
X442500Y216500D02*Y215000D01*
X445500Y216500D02*Y215000D01*
X442500D02*X444000D01*
X445500Y216500D02*Y216000D01*
X442500Y216500D02*Y216000D01*
X443500Y215000D02*X451500D01*
X430000Y205000D02*X449500D01*
X438000Y207500D02*Y205000D01*
X430000Y207500D02*Y205000D01*
X435500Y205500D02*Y205000D01*
X432500Y205500D02*Y205000D01*
X453500Y208500D02*Y178500D01*
X451500Y215000D02*Y182500D01*
X449500Y205000D02*Y191000D01*
X456500Y210000D02*Y209500D01*
X455500Y208500D02*X456500Y209500D01*
X455500Y205000D02*Y202500D01*
Y203000D02*Y175500D01*
Y205000D02*X460500D01*
X461500Y206500D02*Y206000D01*
X460500Y205000D02*X461500Y206000D01*
X458499D02*X459500Y205000D01*
X458499Y206500D02*Y206000D01*
X453500Y208500D02*X455500D01*
X453500Y209500D02*X454500Y208500D01*
X453500Y210000D02*Y209500D01*
X476000Y206000D02*Y203000D01*
X461500D02*X476000D01*
X473000Y206000D02*Y203000D01*
X461500D02*Y184000D01*
X473000D01*
Y188000D02*Y178500D01*
X475500Y188000D02*Y176000D01*
X473000Y188000D02*X475500D01*
X457999Y176500D02*X473000Y178500D01*
X457999Y176500D02*Y175500D01*
X475500Y176000D01*
X436000Y191000D02*X449500D01*
X428000Y175500D02*X455500D01*
X427500Y178500D02*X453500D01*
X435500Y182500D02*X451500D01*
X430000Y182000D02*X435000D01*
X427500Y180000D02*Y177000D01*
X427000Y176500D02*X428000Y175500D01*
X424500Y180000D02*X427500D01*
X424500D02*Y177000D01*
X426000Y175500D02*X427500Y177000D01*
X424500D02*X426000Y175500D01*
Y197000D02*Y193000D01*
Y189500D02*Y189000D01*
Y191000D02*Y190500D01*
X424500Y187500D02*X427500D01*
X428500Y191000D02*X428999Y190500D01*
X430500D01*
X428500Y193000D02*X428999Y193500D01*
X430500D01*
X427500Y193000D02*Y191000D01*
X426500Y192000D02*X428500D01*
X424500Y186000D02*X427500D01*
X424500Y184500D02*X427500D01*
X424500Y183000D02*X427500D01*
X426000Y188000D02*Y180000D01*
X430000Y195000D02*Y189000D01*
X436000D01*
X428999Y188000D02*X435000D01*
X436500Y186500D01*
X428999Y185000D02*X430000D01*
Y182000D01*
Y195000D02*X436000D01*
Y189000D01*
X431500Y192000D02*X433000Y190500D01*
X434500Y192000D01*
X433000Y193500D02*X434500Y192000D01*
X431500D02*X433000Y193500D01*
X435000Y182000D02*X436500Y183500D01*
Y186500D02*Y183500D01*
X433000Y186500D02*X434500Y185000D01*
X431500D02*X433000Y186500D01*
X431500Y185000D02*X433000Y183500D01*
X434500Y185000D01*
X419500Y182500D02*Y178000D01*
X422000D02*Y176500D01*
X401000Y220500D02*X479000D01*
Y172500D01*
X401000D02*X479000D01*
X419500Y180500D02*X422500Y183500D01*
X419500Y186500D02*X422500Y183500D01*
X423500Y206000D02*Y203000D01*
X417000D02*X423500D01*
G54D80*X430700Y199580D02*Y198500D01*
X430430Y199849D02*X430700Y199580D01*
X429782Y199849D02*X430430D01*
X429512Y199580D02*X429782Y199849D01*
X429512Y199580D02*Y198770D01*
X428540D02*X430700D01*
X428540Y199580D02*Y198500D01*
Y199580D02*X428810Y199849D01*
X429242D01*
X429512Y199580D01*
X428540Y200498D02*X430430D01*
X430700Y200768D01*
X429620Y201308D02*X430430D01*
X430700Y201578D01*
Y202118D02*Y201578D01*
X430430Y202388D02*X430700Y202118D01*
X429620Y202388D02*X430430D01*
X430700Y204116D02*Y203306D01*
X430430Y203035D02*X430700Y203306D01*
X429890Y203035D02*X430430D01*
X429620Y203306D02*X429890Y203035D01*
X429620Y203845D02*Y203306D01*
Y203845D02*X429890Y204116D01*
X430159D02*Y203035D01*
X429890Y204116D02*X430159D01*
X422540Y199000D02*X424700D01*
X422540D02*X424700Y200350D01*
X422540D02*X424700D01*
Y202078D02*Y201375D01*
X424322Y200998D02*X424700Y201375D01*
X422918Y200998D02*X424322D01*
X422540Y201375D02*X422918Y200998D01*
X422540Y202078D02*Y201375D01*
G54D81*X418150Y201560D02*Y200870D01*
X417779Y200500D02*X418150Y200870D01*
X416401Y200500D02*X417779D01*
X416030Y200870D02*X416401Y200500D01*
X416030Y201560D02*Y200870D01*
X419530Y199000D02*X421650D01*
X419530D02*X421650Y200325D01*
X419530D02*X421650D01*
X419795Y200961D02*X421385D01*
X419530Y201225D02*X419795Y200961D01*
X419530Y201756D02*Y201225D01*
Y201756D02*X419795Y202021D01*
X421385D01*
X421650Y201756D01*
Y201225D01*
X421385Y200961D02*X421650Y201225D01*
G54D80*X408080Y185460D02*X408350Y185190D01*
X407270Y185460D02*X408080D01*
X407000Y185190D02*X407270Y185460D01*
X407000Y185190D02*Y184650D01*
X407270Y184380D01*
X408080D01*
X408350Y184110D01*
Y183570D01*
X408080Y183300D02*X408350Y183570D01*
X407270Y183300D02*X408080D01*
X407000Y183570D02*X407270Y183300D01*
X409268D02*X410078D01*
X408998Y183570D02*X409268Y183300D01*
X408998Y184110D02*Y183570D01*
Y184110D02*X409268Y184380D01*
X409808D01*
X410078Y184110D01*
X408998Y183839D02*X410078D01*
Y184110D02*Y183839D01*
X410996Y184110D02*Y183300D01*
Y184110D02*X411266Y184380D01*
X411806D01*
X410726D02*X410996Y184110D01*
X412454Y184380D02*X412994Y183300D01*
X413534Y184380D01*
X414182Y184110D02*Y183570D01*
Y184110D02*X414452Y184380D01*
X414992D01*
X415262Y184110D01*
Y183570D01*
X414992Y183300D02*X415262Y183570D01*
X414452Y183300D02*X414992D01*
X414182Y183570D02*X414452Y183300D01*
X437500Y184960D02*Y182800D01*
X438850Y184960D02*Y182800D01*
X437500Y183880D02*X438850D01*
X439768Y182800D02*X440578D01*
X439498Y183070D02*X439768Y182800D01*
X439498Y183609D02*Y183070D01*
Y183609D02*X439768Y183880D01*
X440308D01*
X440578Y183609D01*
X439498Y183340D02*X440578D01*
Y183609D02*Y183340D01*
X442036Y183880D02*X442306Y183609D01*
X441496Y183880D02*X442036D01*
X441226Y183609D02*X441496Y183880D01*
X441226Y183609D02*Y183070D01*
X441496Y182800D01*
X442306Y183880D02*Y183070D01*
X442576Y182800D01*
X441496D02*X442036D01*
X442306Y183070D01*
X443494Y184960D02*Y183070D01*
X443764Y182800D01*
X443224Y184150D02*X443764D01*
X444574Y182800D02*X445384D01*
X445654Y183070D01*
X445384Y183340D02*X445654Y183070D01*
X444574Y183340D02*X445384D01*
X444304Y183609D02*X444574Y183340D01*
X444304Y183609D02*X444574Y183880D01*
X445384D01*
X445654Y183609D01*
X444304Y183070D02*X444574Y182800D01*
G54D82*X446302Y184420D02*Y184366D01*
G54D80*Y183609D02*Y182800D01*
X447112Y183609D02*Y182800D01*
Y183609D02*X447382Y183880D01*
X447652D01*
X447922Y183609D01*
Y182800D01*
X446842Y183880D02*X447112Y183609D01*
X448570Y184960D02*Y182800D01*
Y183609D02*X449380Y182800D01*
X448570Y183609D02*X449110Y184150D01*
X407270Y180460D02*Y178300D01*
X407000Y180460D02*X408080D01*
X408350Y180190D01*
Y179650D01*
X408080Y179380D02*X408350Y179650D01*
X407270Y179380D02*X408080D01*
X409268Y179110D02*Y178300D01*
Y179110D02*X409538Y179380D01*
X410078D01*
X408998D02*X409268Y179110D01*
X410726D02*Y178570D01*
Y179110D02*X410996Y179380D01*
X411536D01*
X411806Y179110D01*
Y178570D01*
X411536Y178300D02*X411806Y178570D01*
X410996Y178300D02*X411536D01*
X410726Y178570D02*X410996Y178300D01*
X412454Y180460D02*Y178300D01*
Y178570D02*X412724Y178300D01*
X413264D01*
X413534Y178570D01*
Y179110D02*Y178570D01*
X413264Y179380D02*X413534Y179110D01*
X412724Y179380D02*X413264D01*
X412454Y179110D02*X412724Y179380D01*
X414452Y178300D02*X415262D01*
X414182Y178570D02*X414452Y178300D01*
X414182Y179110D02*Y178570D01*
Y179110D02*X414452Y179380D01*
X414992D01*
X415262Y179110D01*
X414182Y178840D02*X415262D01*
Y179110D02*Y178840D01*
X428500Y180960D02*X429580D01*
X429040D02*Y178800D01*
X430228Y180960D02*Y178800D01*
Y179610D02*X430498Y179880D01*
X431038D01*
X431308Y179610D01*
Y178800D01*
X432226D02*X433036D01*
X431956Y179069D02*X432226Y178800D01*
X431956Y179610D02*Y179069D01*
Y179610D02*X432226Y179880D01*
X432766D01*
X433036Y179610D01*
X431956Y179340D02*X433036D01*
Y179610D02*Y179340D01*
X433954Y179610D02*Y178800D01*
Y179610D02*X434224Y179880D01*
X434764D01*
X433684D02*X433954Y179610D01*
X435682D02*Y178800D01*
Y179610D02*X435952Y179880D01*
X436222D01*
X436492Y179610D01*
Y178800D01*
Y179610D02*X436762Y179880D01*
X437032D01*
X437302Y179610D01*
Y178800D01*
X435412Y179880D02*X435682Y179610D01*
G54D82*X437950Y180420D02*Y180366D01*
G54D80*Y179610D02*Y178800D01*
X438760D02*X439570D01*
X439840Y179069D01*
X439570Y179340D02*X439840Y179069D01*
X438760Y179340D02*X439570D01*
X438490Y179610D02*X438760Y179340D01*
X438490Y179610D02*X438760Y179880D01*
X439570D01*
X439840Y179610D01*
X438490Y179069D02*X438760Y178800D01*
X440758Y180960D02*Y179069D01*
X441028Y178800D01*
X440488Y180150D02*X441028D01*
X441568Y179610D02*Y179069D01*
Y179610D02*X441838Y179880D01*
X442378D01*
X442648Y179610D01*
Y179069D01*
X442378Y178800D02*X442648Y179069D01*
X441838Y178800D02*X442378D01*
X441568Y179069D02*X441838Y178800D01*
X443566Y179610D02*Y178800D01*
Y179610D02*X443836Y179880D01*
X444376D01*
X443296D02*X443566Y179610D01*
X428999Y177959D02*Y175800D01*
X430350Y177959D02*Y175800D01*
X428999Y176880D02*X430350D01*
X431268Y175800D02*X432078D01*
X430997Y176070D02*X431268Y175800D01*
X430997Y176610D02*Y176070D01*
Y176610D02*X431268Y176880D01*
X431808D01*
X432078Y176610D01*
X430997Y176340D02*X432078D01*
Y176610D02*Y176340D01*
X433536Y176880D02*X433806Y176610D01*
X432996Y176880D02*X433536D01*
X432726Y176610D02*X432996Y176880D01*
X432726Y176610D02*Y176070D01*
X432996Y175800D01*
X433806Y176880D02*Y176070D01*
X434076Y175800D01*
X432996D02*X433536D01*
X433806Y176070D01*
X434994Y177959D02*Y176070D01*
X435264Y175800D01*
X434724Y177150D02*X435264D01*
X436074Y175800D02*X436884D01*
X435804Y176070D02*X436074Y175800D01*
X435804Y176610D02*Y176070D01*
Y176610D02*X436074Y176880D01*
X436614D01*
X436884Y176610D01*
X435804Y176340D02*X436884D01*
Y176610D02*Y176340D01*
X437802Y176610D02*Y175800D01*
Y176610D02*X438072Y176880D01*
X438612D01*
X437532D02*X437802Y176610D01*
X409040Y207080D02*Y206000D01*
Y207080D02*X409310Y207350D01*
X409850D01*
X410120Y207080D01*
Y206270D01*
X409040D02*X411200D01*
X410120Y206702D02*X411200Y207350D01*
Y209078D02*Y208268D01*
X410930Y207998D02*X411200Y208268D01*
X410390Y207998D02*X410930D01*
X410120Y208268D02*X410390Y207998D01*
X410120Y208808D02*Y208268D01*
Y208808D02*X410390Y209078D01*
X410660D02*Y207998D01*
X410390Y209078D02*X410660D01*
X409040Y210806D02*X411200D01*
X410930D02*X411200Y210536D01*
Y209996D01*
X410930Y209726D02*X411200Y209996D01*
X410390Y209726D02*X410930D01*
X410120Y209996D02*X410390Y209726D01*
X410120Y210536D02*Y209996D01*
Y210536D02*X410390Y210806D01*
X410120Y212534D02*Y211454D01*
X409580Y211994D02*X410660D01*
G54D81*X414150Y204560D02*Y203500D01*
X413885Y204825D02*X414150Y204560D01*
X413249Y204825D02*X413885D01*
X412984Y204560D02*X413249Y204825D01*
X412984Y204560D02*Y203765D01*
X412030D02*X414150D01*
X412030Y204560D02*Y203500D01*
Y204560D02*X412295Y204825D01*
X412719D01*
X412984Y204560D01*
X412030Y205461D02*X413885D01*
X414150Y205726D01*
X413090Y207051D02*X413355Y207316D01*
X413090Y207051D02*Y206521D01*
X413355Y206256D01*
X413885D01*
X414150Y206521D01*
X413090Y207316D02*X413885D01*
X414150Y207581D01*
Y207051D02*Y206521D01*
X413885Y207316D02*X414150Y207051D01*
X413090Y209277D02*Y208482D01*
X413355Y208217D01*
X413885D01*
X414150Y208482D01*
Y209277D02*Y208482D01*
X412030Y209913D02*X414150D01*
X413355D02*X414150Y210708D01*
X412825Y210443D02*X413355Y209913D01*
X413090Y212404D02*Y211344D01*
X407885Y204500D02*X408150Y204765D01*
X406030D02*X406295Y204500D01*
X407885D01*
X406030Y205666D02*X408150D01*
X406030Y206461D02*Y205401D01*
Y206461D02*X406295Y206726D01*
X406825D01*
X407090Y206461D01*
Y205666D01*
X406030Y207362D02*X407090D01*
X408150Y207627D01*
X407090Y208157D02*X408150Y207627D01*
X407090Y208157D02*X408150Y208687D01*
X407090Y208952D02*X408150Y208687D01*
X406030Y208952D02*X407090D01*
X406030Y209588D02*X408150D01*
X406030D02*X407090Y210383D01*
X406030Y211178D02*X407090Y210383D01*
X406030Y211178D02*X408150D01*
X406030Y211814D02*X406295Y212079D01*
X407885D01*
X408150Y211814D01*
X446650Y206560D02*Y205500D01*
X446385Y206825D02*X446650Y206560D01*
X445749Y206825D02*X446385D01*
X445484Y206560D02*X445749Y206825D01*
X445484Y206560D02*Y205765D01*
X444530D02*X446650D01*
X444530Y206560D02*Y205500D01*
Y206560D02*X444795Y206825D01*
X445219D01*
X445484Y206560D01*
X444530Y207461D02*X446385D01*
X446650Y207726D01*
X445590Y209051D02*X445855Y209316D01*
X445590Y209051D02*Y208521D01*
X445855Y208256D01*
X446385D01*
X446650Y208521D01*
X445590Y209316D02*X446385D01*
X446650Y209581D01*
Y209051D02*Y208521D01*
X446385Y209316D02*X446650Y209051D01*
X445590Y211277D02*Y210482D01*
X445855Y210217D01*
X446385D01*
X446650Y210482D01*
Y211277D02*Y210482D01*
X444530Y211913D02*X446650D01*
X445855D02*X446650Y212708D01*
X445325Y212443D02*X445855Y211913D01*
X445590Y214404D02*Y213344D01*
G54D80*X441540Y209080D02*Y208000D01*
Y209080D02*X441810Y209350D01*
X442350D01*
X442620Y209080D01*
Y208270D01*
X441540D02*X443700D01*
X442620Y208702D02*X443700Y209350D01*
Y211078D02*Y210268D01*
X443430Y209998D02*X443700Y210268D01*
X442890Y209998D02*X443430D01*
X442620Y210268D02*X442890Y209998D01*
X442620Y210808D02*Y210268D01*
Y210808D02*X442890Y211078D01*
X443160D02*Y209998D01*
X442890Y211078D02*X443160D01*
X441540Y212806D02*X443700D01*
X443430D02*X443700Y212536D01*
Y211996D01*
X443430Y211726D02*X443700Y211996D01*
X442890Y211726D02*X443430D01*
X442620Y211996D02*X442890Y211726D01*
X442620Y212536D02*Y211996D01*
Y212536D02*X442890Y212806D01*
X442620Y214534D02*Y213454D01*
X442080Y213994D02*X443160D01*
X431040Y197079D02*X431310Y197350D01*
X431040Y197079D02*Y196269D01*
X431310Y196000D01*
X432929D01*
X433200Y196269D01*
Y197079D02*Y196269D01*
X432929Y197350D02*X433200Y197079D01*
X432390Y197350D02*X432929D01*
X432119Y197079D02*X432390Y197350D01*
X432119Y197079D02*Y196540D01*
X432390Y198267D02*X433200D01*
X432119Y198538D02*X432390Y198267D01*
X432119Y199077D02*Y198538D01*
Y197998D02*X432390Y198267D01*
X433200Y200806D02*Y199996D01*
X432929Y199726D02*X433200Y199996D01*
X432390Y199726D02*X432929D01*
X432119Y199996D02*X432390Y199726D01*
X432119Y200536D02*Y199996D01*
Y200536D02*X432390Y200806D01*
X432660D02*Y199726D01*
X432390Y200806D02*X432660D01*
X433200Y202534D02*Y201724D01*
X432929Y201453D02*X433200Y201724D01*
X432390Y201453D02*X432929D01*
X432119Y201724D02*X432390Y201453D01*
X432119Y202263D02*Y201724D01*
Y202263D02*X432390Y202534D01*
X432660D02*Y201453D01*
X432390Y202534D02*X432660D01*
X432390Y203451D02*X433200D01*
X432119Y203722D02*X432390Y203451D01*
X432119Y203992D02*Y203722D01*
Y203992D02*X432390Y204262D01*
X433200D01*
X432119Y203182D02*X432390Y203451D01*
X437040Y200080D02*Y199000D01*
Y200080D02*X437310Y200350D01*
X437850D01*
X438120Y200080D01*
Y199270D01*
X437040D02*X439200D01*
X438120Y199702D02*X439200Y200350D01*
Y202078D02*Y201268D01*
X438930Y200998D02*X439200Y201268D01*
X438390Y200998D02*X438930D01*
X438120Y201268D02*X438390Y200998D01*
X438120Y201808D02*Y201268D01*
Y201808D02*X438390Y202078D01*
X438660D02*Y200998D01*
X438390Y202078D02*X438660D01*
X437040Y203806D02*X439200D01*
X438930D02*X439200Y203536D01*
Y202996D01*
X438930Y202726D02*X439200Y202996D01*
X438390Y202726D02*X438930D01*
X438120Y202996D02*X438390Y202726D01*
X438120Y203536D02*Y202996D01*
Y203536D02*X438390Y203806D01*
X436200Y198080D02*Y197000D01*
X435930Y198350D02*X436200Y198080D01*
X435282Y198350D02*X435930D01*
X435012Y198080D02*X435282Y198350D01*
X435012Y198080D02*Y197270D01*
X434040D02*X436200D01*
X434040Y198080D02*Y197000D01*
Y198080D02*X434310Y198350D01*
X434742D01*
X435012Y198080D01*
X434040Y198998D02*X435930D01*
X436200Y199268D01*
X435120Y200618D02*X435390Y200887D01*
X435120Y200618D02*Y200078D01*
X435390Y199808D01*
X435930D01*
X436200Y200078D01*
X435120Y200887D02*X435930D01*
X436200Y201158D01*
Y200618D02*Y200078D01*
X435930Y200887D02*X436200Y200618D01*
X435120Y202885D02*Y202075D01*
X435390Y201806D01*
X435930D01*
X436200Y202075D01*
Y202885D02*Y202075D01*
X434040Y203534D02*X436200D01*
X435390D02*X436200Y204344D01*
X434850Y204074D02*X435390Y203534D01*
X438080Y193960D02*X438350Y193690D01*
X437270Y193960D02*X438080D01*
X437000Y193690D02*X437270Y193960D01*
X437000Y193690D02*Y193150D01*
X437270Y192880D01*
X438080D01*
X438350Y192610D01*
Y192070D01*
X438080Y191800D02*X438350Y192070D01*
X437270Y191800D02*X438080D01*
X437000Y192070D02*X437270Y191800D01*
X439268Y193960D02*Y192070D01*
X439538Y191800D01*
X438998Y193150D02*X439538D01*
X440348Y191800D02*X441158D01*
X440078Y192070D02*X440348Y191800D01*
X440078Y192610D02*Y192070D01*
Y192610D02*X440348Y192880D01*
X440888D01*
X441158Y192610D01*
X440078Y192340D02*X441158D01*
Y192610D02*Y192340D01*
X442076Y192610D02*Y190990D01*
X441806Y192880D02*X442076Y192610D01*
X442346Y192880D01*
X442886D01*
X443156Y192610D01*
Y192070D01*
X442886Y191800D02*X443156Y192070D01*
X442346Y191800D02*X442886D01*
X442076Y192070D02*X442346Y191800D01*
X444074Y192610D02*Y190990D01*
X443804Y192880D02*X444074Y192610D01*
X444344Y192880D01*
X444884D01*
X445154Y192610D01*
Y192070D01*
X444884Y191800D02*X445154Y192070D01*
X444344Y191800D02*X444884D01*
X444074Y192070D02*X444344Y191800D01*
X446072D02*X446882D01*
X445802Y192070D02*X446072Y191800D01*
X445802Y192610D02*Y192070D01*
Y192610D02*X446072Y192880D01*
X446612D01*
X446882Y192610D01*
X445802Y192340D02*X446882D01*
Y192610D02*Y192340D01*
X447800Y192610D02*Y191800D01*
Y192610D02*X448070Y192880D01*
X448610D01*
X447530D02*X447800Y192610D01*
G54D81*X476650Y194560D02*Y193500D01*
X476385Y194825D02*X476650Y194560D01*
X475749Y194825D02*X476385D01*
X475484Y194560D02*X475749Y194825D01*
X475484Y194560D02*Y193765D01*
X474530D02*X476650D01*
X474530Y194560D02*Y193500D01*
Y194560D02*X474795Y194825D01*
X475219D01*
X475484Y194560D01*
X474530Y195461D02*X476385D01*
X476650Y195726D01*
X475590Y197051D02*X475855Y197316D01*
X475590Y197051D02*Y196521D01*
X475855Y196256D01*
X476385D01*
X476650Y196521D01*
X475590Y197316D02*X476385D01*
X476650Y197581D01*
Y197051D02*Y196521D01*
X476385Y197316D02*X476650Y197051D01*
X475590Y199277D02*Y198482D01*
X475855Y198217D01*
X476385D01*
X476650Y198482D01*
Y199277D02*Y198482D01*
X474530Y199913D02*X476650D01*
X475855D02*X476650Y200708D01*
X475325Y200443D02*X475855Y199913D01*
X475590Y202404D02*Y201344D01*
G54D80*X471540Y197079D02*Y196000D01*
Y197079D02*X471810Y197350D01*
X472350D01*
X472620Y197079D01*
Y196269D01*
X471540D02*X473700D01*
X472620Y196702D02*X473700Y197350D01*
Y199077D02*Y198267D01*
X473430Y197998D02*X473700Y198267D01*
X472890Y197998D02*X473430D01*
X472620Y198267D02*X472890Y197998D01*
X472620Y198808D02*Y198267D01*
Y198808D02*X472890Y199077D01*
X473160D02*Y197998D01*
X472890Y199077D02*X473160D01*
X471540Y200806D02*X473700D01*
X473430D02*X473700Y200536D01*
Y199996D01*
X473430Y199726D02*X473700Y199996D01*
X472890Y199726D02*X473430D01*
X472620Y199996D02*X472890Y199726D01*
X472620Y200536D02*Y199996D01*
Y200536D02*X472890Y200806D01*
X472620Y202534D02*Y201453D01*
X472080Y201994D02*X473160D01*
X462878Y185800D02*X463580D01*
X462500Y186178D02*X462878Y185800D01*
X462500Y187582D02*Y186178D01*
Y187582D02*X462878Y187960D01*
X463580D01*
X464227Y186609D02*Y186070D01*
Y186609D02*X464498Y186880D01*
X465037D01*
X465308Y186609D01*
Y186070D01*
X465037Y185800D02*X465308Y186070D01*
X464498Y185800D02*X465037D01*
X464227Y186070D02*X464498Y185800D01*
X465956Y186609D02*Y186070D01*
Y186609D02*X466225Y186880D01*
X466766D01*
X467036Y186609D01*
Y186070D01*
X466766Y185800D02*X467036Y186070D01*
X466225Y185800D02*X466766D01*
X465956Y186070D02*X466225Y185800D01*
X467684Y187960D02*Y186070D01*
X467954Y185800D01*
G54D82*X468494Y187420D02*Y187366D01*
G54D80*Y186609D02*Y185800D01*
X469304Y186609D02*Y185800D01*
Y186609D02*X469574Y186880D01*
X469844D01*
X470114Y186609D01*
Y185800D01*
X469034Y186880D02*X469304Y186609D01*
X471572Y186880D02*X471842Y186609D01*
X471032Y186880D02*X471572D01*
X470762Y186609D02*X471032Y186880D01*
X470762Y186609D02*Y186070D01*
X471032Y185800D01*
X471572D01*
X471842Y186070D01*
X470762Y185260D02*X471032Y184990D01*
X471572D01*
X471842Y185260D01*
Y186880D02*Y185260D01*
G54D83*X342503Y166517D03*
Y218477D03*
X47543Y153037D03*
Y205007D03*
G54D84*X356003Y167297D03*
Y217697D03*
X34043Y153827D03*
Y204217D03*
G54D85*X346043Y182456D03*
Y190487D03*
Y198517D03*
Y206557D03*
X338963Y178437D03*
Y186477D03*
Y194507D03*
Y202537D03*
X320023Y164937D03*
Y220057D03*
X70023Y151457D03*
Y161497D03*
Y196537D03*
Y206577D03*
X51093Y168977D03*
Y177017D03*
Y185047D03*
Y193077D03*
X44003Y164967D03*
Y181027D03*
Y189057D03*
G54D86*X115002Y222997D03*
Y219497D03*
Y215997D03*
X110503Y222997D03*
Y219497D03*
Y215997D03*
G54D87*X320023Y210017D03*
Y220056D03*
X338960Y202536D03*
Y178442D03*
Y186473D03*
X346046Y182458D03*
G54D88*X342503Y166513D03*
G54D89*X356007Y167300D03*
G54D87*X320023Y164938D03*
Y174977D03*
X346046Y206552D03*
Y198521D03*
Y190489D03*
G54D88*X342503Y218481D03*
G54D89*X356007Y217694D03*
G54D87*X338960Y194505D03*
G54D88*X47546Y205005D03*
G54D89*X34042Y204217D03*
G54D87*X70027Y206580D03*
Y196540D03*
X51090Y193075D03*
Y185044D03*
X44003Y189060D03*
X70027Y161501D03*
Y151462D03*
X51090Y168981D03*
Y177013D03*
X44003Y164966D03*
Y172997D03*
Y181028D03*
G54D88*X47546Y153036D03*
G54D89*X34042Y153824D03*
G54D78*X16003Y236997D02*X374003D01*
X16003D02*Y144997D01*
X84503D01*
Y209997D02*Y144997D01*
Y209997D02*X178503D01*
Y144997D01*
X374003Y236997D02*Y144997D01*
X178503D02*X374003D01*
G54D90*X19546Y158921D02*X23546D01*
X19546D02*X23546Y161421D01*
X19546D02*X23546D01*
Y164621D02*Y162620D01*
X19546Y164621D02*X23546D01*
X19546D02*Y162620D01*
X21746Y164621D02*Y163121D01*
X21546Y167321D02*Y166321D01*
X21046Y165821D02*X21546Y166321D01*
X20046Y165821D02*X21046D01*
X19546Y166321D02*X20046Y165821D01*
X19546Y167821D02*Y166321D01*
Y167821D02*X20046Y168321D01*
X23046D01*
X23546Y167821D01*
Y166321D01*
X23046Y165821D02*X23546Y166321D01*
X20046Y172521D02*X23046Y169521D01*
X19546Y175221D02*Y173721D01*
Y174421D02*X23546D01*
X22746Y175221D02*X23546Y174421D01*
X19546Y176421D02*X23546Y178921D01*
X19546D02*X23546Y176421D01*
X20046Y183121D02*X23046Y180121D01*
X19546Y185820D02*Y184320D01*
Y185020D02*X23546D01*
X22746Y185820D02*X23546Y185020D01*
X19546Y187021D02*X23546Y189521D01*
X19546D02*X23546Y187021D01*
X294203Y165497D02*X296703Y161497D01*
X294203D02*X296703Y165497D01*
X297903Y161497D02*X299903D01*
Y165497D02*Y161497D01*
X297903Y165497D02*X299903D01*
X298403Y163297D02*X299903D01*
X301103Y161997D02*X304103Y164997D01*
X305303Y165497D02*X307803D01*
X305303Y162997D02*X307803Y165497D01*
X305303Y162997D02*Y161997D01*
X305803Y161497D01*
X307303D01*
X307803Y161997D01*
X309003Y165497D02*X311503Y161497D01*
X309003D02*X311503Y165497D01*
X243803D02*X246303D01*
X243803Y162997D02*X246303Y165497D01*
X243803Y162997D02*Y161997D01*
X244303Y161497D01*
X245803D01*
X246303Y161997D01*
X247503Y165497D02*X249503D01*
Y161497D01*
X252202Y165497D02*X252703Y164997D01*
X251203Y165497D02*X252202D01*
X250703Y164997D02*X251203Y165497D01*
X250703Y164997D02*Y161997D01*
X251203Y161497D01*
X252202D01*
X252703Y161997D01*
Y164997D02*Y161997D01*
X254403Y163497D02*X255903D01*
X253903Y162997D02*X254403Y163497D01*
X253903Y162997D02*Y161997D01*
X254403Y161497D01*
X256403D01*
X255903Y165497D02*Y161497D01*
X257603Y161997D02*X260603Y164997D01*
X261803Y165497D02*X264303D01*
X261803Y162997D02*X264303Y165497D01*
X261803Y162997D02*Y161997D01*
X262303Y161497D01*
X263803D01*
X264303Y161997D01*
X265503Y165497D02*X268003Y161497D01*
X265503D02*X268003Y165497D01*
X295503Y213497D02*X296503Y217497D01*
X297503Y213497D01*
X300203Y217497D02*X300703Y216997D01*
X299203Y217497D02*X300203D01*
X298703Y216997D02*X299203Y217497D01*
X298703Y216997D02*Y213997D01*
X299203Y213497D01*
X300203D01*
X300703Y213997D01*
Y216997D02*Y213997D01*
X301903Y217497D02*Y213497D01*
X303403Y215497D01*
X304903Y213497D01*
Y217497D02*Y213497D01*
X306103Y213997D02*X309103Y216997D01*
X310303Y217497D02*X312803D01*
X310303Y214997D02*X312803Y217497D01*
X310303Y214997D02*Y213997D01*
X310803Y213497D01*
X312303D01*
X312803Y213997D01*
X314003Y217497D02*X316503Y213497D01*
X314003D02*X316503Y217497D01*
X244803Y197997D02*X246303D01*
X245503D02*Y193997D01*
X246303Y194797D01*
X247503Y197997D02*X249503D01*
Y193997D01*
X252202Y197997D02*X252703Y197497D01*
X251203Y197997D02*X252202D01*
X250703Y197497D02*X251203Y197997D01*
X250703Y197497D02*Y194497D01*
X251203Y193997D01*
X252202D01*
X252703Y194497D01*
Y197497D02*Y194497D01*
X254403Y195997D02*X255903D01*
X253903Y195497D02*X254403Y195997D01*
X253903Y195497D02*Y194497D01*
X254403Y193997D01*
X256403D01*
X255903Y197997D02*Y193997D01*
X257603Y194497D02*X260603Y197497D01*
X261803Y197997D02*X264303D01*
X261803Y195497D02*X264303Y197997D01*
X261803Y195497D02*Y194497D01*
X262303Y193997D01*
X263803D01*
X264303Y194497D01*
X265503Y197997D02*X268003Y193997D01*
X265503D02*X268003Y197997D01*
X296003Y205197D02*Y203697D01*
X295503Y205697D02*X296003Y205197D01*
X294503Y205697D02*X295503D01*
X294003Y205197D02*X294503Y205697D01*
X294003Y205197D02*Y203197D01*
Y203697D02*X298003D01*
X294003Y201997D02*Y199997D01*
X298003D01*
Y201997D02*Y199997D01*
X295803Y201497D02*Y199997D01*
X294003Y197797D02*X298003D01*
X294003Y198797D02*Y196797D01*
X297503Y193097D02*X298003Y193597D01*
Y195097D02*Y193597D01*
X297503Y195597D02*X298003Y195097D01*
X296503Y195597D02*X297503D01*
X296003Y195097D02*X296503Y195597D01*
X296003Y195097D02*Y193597D01*
X295503Y193097D02*X296003Y193597D01*
X294503Y193097D02*X295503D01*
X294003Y193597D02*X294503Y193097D01*
X294003Y195097D02*Y193597D01*
Y195097D02*X294503Y195597D01*
Y191897D02*X297503Y188897D01*
X298003Y187696D02*Y185197D01*
X295503Y187696D02*X298003Y185197D01*
X294503Y187696D02*X295503D01*
X294003Y187196D02*X294503Y187696D01*
X294003Y187196D02*Y185697D01*
X294503Y185197D01*
X294003Y181497D02*X298003Y183997D01*
X294003D02*X298003Y181497D01*
G54D78*X95003Y234997D02*Y224997D01*
X85003D02*X95003D01*
X85003Y234997D02*X105003D01*
Y214997D01*
X85003D02*X105003D01*
X85003Y234997D02*Y214997D01*
X20003Y234997D02*X30003D01*
Y224997D01*
X20003Y234997D02*Y224997D01*
Y234997D02*X80003D01*
Y224997D01*
X20003D02*X80003D01*
G54D79*X41444Y161895D02*X42428Y160910D01*
X41444D02*X42428Y161895D01*
X77074Y149099D02*Y147131D01*
X75105D02*X77074D01*
Y210910D02*Y208942D01*
X75105Y210910D02*X77074D01*
X18019Y149099D02*Y147131D01*
X19987D01*
X18019Y210910D02*Y208942D01*
Y210910D02*X19987D01*
X46759Y179021D02*X48334D01*
X47546Y179808D02*Y178233D01*
X51090Y200674D02*Y157564D01*
X44003Y200674D02*Y157564D01*
G54D78*Y192997D02*X51090D01*
X44003Y165044D02*X51090D01*
G54D79*X70101Y157741D02*Y156953D01*
Y155576D02*Y154788D01*
X68920Y155576D02*X71283D01*
X69117Y156953D02*X71086D01*
X69117D02*X70101Y155969D01*
X71086Y156953D01*
X70027Y201265D02*X71011Y202249D01*
X69042D02*X70027Y201265D01*
X69042Y202249D02*X71011D01*
X68846Y200871D02*X71208D01*
X70027D02*Y200084D01*
Y203036D02*Y202249D01*
G54D78*X124003Y224997D02*X134003D01*
Y214997D01*
X124003Y234997D02*Y214997D01*
Y234997D02*X174003D01*
Y214997D01*
X124003D02*X174003D01*
X193503Y209997D02*Y199997D01*
X183503D02*X193503D01*
X183503Y209997D02*X193503D01*
Y149997D01*
X183503D02*X193503D01*
X183503Y209997D02*Y149997D01*
X362503Y224997D02*X372503D01*
X362503Y234997D02*Y224997D01*
X372503Y234997D02*Y224997D01*
X292503D02*X372503D01*
X292503Y234997D02*Y224997D01*
Y234997D02*X372503D01*
X362503Y149997D02*X372503D01*
X362503Y159997D02*Y149997D01*
X372503Y159997D02*Y149997D01*
X292503D02*X372503D01*
X292503Y159997D02*Y149997D01*
Y159997D02*X372503D01*
X272503Y149997D02*X282503D01*
X272503Y159997D02*Y149997D01*
X282503Y159997D02*Y149997D01*
X202503D02*X282503D01*
X202503Y159997D02*Y149997D01*
Y159997D02*X282503D01*
X272503Y234997D02*Y224997D01*
X262503D02*X272503D01*
X262503Y234997D02*X282503D01*
Y214997D01*
X262503D02*X282503D01*
X262503Y234997D02*Y214997D01*
X193503Y224997D02*X203503D01*
Y214997D01*
X193503Y234997D02*Y214997D01*
Y234997D02*X243503D01*
Y214997D01*
X193503D02*X243503D01*
X272503Y199997D02*X282503D01*
X272503Y209997D02*Y199997D01*
X282503Y209997D02*Y199997D01*
X202503D02*X282503D01*
X202503Y209997D02*Y199997D01*
Y209997D02*X282503D01*
G54D79*X347621Y210607D02*X348605Y209623D01*
X347621D02*X348605Y210607D01*
X312975Y224387D02*Y222418D01*
Y224387D02*X314944D01*
X312975Y162576D02*Y160607D01*
X314944D01*
X372031Y224387D02*Y222418D01*
X370062Y224387D02*X372031D01*
Y162576D02*Y160607D01*
X370062D02*X372031D01*
X341716Y192497D02*X343290D01*
X342503Y193284D02*Y191709D01*
X338960Y213954D02*Y170843D01*
X346046Y213954D02*Y170843D01*
G54D78*X338960Y178521D02*X346046D01*
X338960Y206473D02*X346046D01*
G54D79*X319948Y214564D02*Y213777D01*
Y216729D02*Y215942D01*
X318767D02*X321129D01*
X318964Y214564D02*X320932D01*
X319948Y215548D02*X320932Y214564D01*
X318964D02*X319948Y215548D01*
X319038Y169269D02*X320023Y170253D01*
X321007Y169269D01*
X319038D02*X321007D01*
X318842Y170647D02*X321204D01*
X320023Y171434D02*Y170647D01*
Y169269D02*Y168481D01*
G54D91*X121555Y224677D02*X122035Y224197D01*
X121555Y228037D02*Y224677D01*
X118003Y224197D02*X120403D01*
X118003D02*X120403Y226597D01*
Y227557D02*Y226597D01*
X119923Y228037D02*X120403Y227557D01*
X118483Y228037D02*X119923D01*
X118003Y227557D02*X118483Y228037D01*
X121092Y219132D02*X121577Y218647D01*
X121092Y222527D02*Y219132D01*
X119442Y222527D02*Y218647D01*
X117503Y220102D02*X119928D01*
X117503D02*X119442Y222527D01*
X121075Y213677D02*X121555Y213197D01*
X121075Y217037D02*Y213677D01*
X119923Y214829D02*Y213677D01*
X119442Y213197D02*X119923Y213677D01*
X118483Y213197D02*X119442D01*
X118003Y215309D02*X119442D01*
X119923Y214829D01*
X118003Y213677D02*X118483Y213197D01*
X118003Y216557D02*Y213677D01*
Y216557D02*X118483Y217037D01*
X119442D01*
X119923Y216557D01*
G54D92*X55630Y193453D02*X56004Y193078D01*
X54504D02*X55255D01*
X55630Y193453D01*
Y194578D02*Y193453D01*
X56905Y192553D02*X57280Y192928D01*
X56905Y192553D02*Y191953D01*
X57280Y191578D01*
X58780D01*
X58405Y194578D02*Y191578D01*
X57280Y192928D02*X58405D01*
X56905Y193302D02*X57280Y192928D01*
X56905Y194203D02*Y193302D01*
Y194203D02*X57280Y194578D01*
X58780D01*
X59680Y191953D02*X61930Y194203D01*
X62830Y192553D02*X63355Y193078D01*
X62830Y192553D02*Y191953D01*
X63205Y191578D01*
X63955D01*
X64330Y191953D01*
Y192553D02*Y191953D01*
X63805Y193078D02*X64330Y192553D01*
X63205Y194578D02*X63955D01*
X62830Y194203D02*X63205Y194578D01*
X62830Y194203D02*Y193602D01*
X63355Y193078D01*
X63805D01*
X64330Y193602D01*
Y194203D02*Y193602D01*
X63955Y194578D02*X64330Y194203D01*
X27262Y188571D02*X27636Y188196D01*
X26137D02*X26887D01*
X27262Y188571D01*
Y189696D02*Y188571D01*
X28537Y187671D02*X28912Y188045D01*
X28537Y187671D02*Y187071D01*
X28912Y186696D01*
X30412D01*
X30037Y189696D02*Y186696D01*
X28912Y188045D02*X30037D01*
X28537Y188421D02*X28912Y188045D01*
X28537Y189321D02*Y188421D01*
Y189321D02*X28912Y189696D01*
X30412D01*
X31311Y188196D02*Y186696D01*
Y188196D02*X31687Y189696D01*
X32437Y188196D01*
X33187Y189696D01*
X33562Y188196D01*
Y186696D01*
X34462Y187071D02*X36712Y189321D01*
X37612Y186696D02*X39487D01*
X37612D02*X39112Y189696D01*
X58405Y187313D02*X58780Y186939D01*
X57655Y187313D02*X58405D01*
X57280Y186939D02*X57655Y187313D01*
X57280Y186939D02*Y184688D01*
X57655Y184314D01*
X58405D01*
X58780Y184688D01*
Y186939D02*Y184688D01*
X59680D02*X61930Y186939D01*
X62830D02*Y186039D01*
Y186939D02*X63205Y187313D01*
X63955D01*
X63205Y185664D02*X64330D01*
X62830Y186039D02*X63205Y185664D01*
X63955Y187313D02*X64330Y186939D01*
Y184688D01*
X63955Y184314D02*X64330Y184688D01*
X63205Y184314D02*X63955D01*
X62830Y184688D02*X63205Y184314D01*
X55648Y177156D02*X56023Y176781D01*
Y174156D01*
X56923Y175131D02*X57297Y175506D01*
X56923Y175131D02*Y174531D01*
X57297Y174156D01*
X58798D01*
X58423Y177156D02*Y174156D01*
X57297Y175506D02*X58423D01*
X56923Y175881D02*X57297Y175506D01*
X56923Y176781D02*Y175881D01*
Y176781D02*X57297Y177156D01*
X58798D01*
X59698Y174531D02*X61947Y176781D01*
X63223Y177156D02*Y174156D01*
X62847Y176031D02*X64723D01*
X63223Y174156D02*X64723Y176031D01*
X57297Y167999D02*X58048D01*
X56923Y168374D02*X57297Y167999D01*
X56923Y169124D02*Y168374D01*
Y169124D02*X57297Y169499D01*
X58423D01*
X58798Y169124D01*
Y166874D01*
X58423Y166499D02*X58798Y166874D01*
X57297Y166499D02*X58423D01*
X56923Y166874D02*X57297Y166499D01*
X59698Y166874D02*X61947Y169124D01*
X62847Y169499D02*X64723D01*
X62847Y167624D02*X64723Y169499D01*
X62847Y167624D02*Y166874D01*
X63223Y166499D01*
X64348D01*
X64723Y166874D01*
X62729Y149909D02*Y148034D01*
X61229D02*X63479D01*
X64229Y148559D01*
Y149384D02*Y148559D01*
X63479Y149909D02*X64229Y149384D01*
X61229Y149909D02*X63479D01*
X62729Y151334D02*X63254Y150809D01*
X63854D01*
X64229Y151184D01*
Y151934D02*Y151184D01*
X63854Y152309D02*X64229Y151934D01*
X63254Y152309D02*X63854D01*
X62729Y151784D02*X63254Y152309D01*
X61229Y151934D02*Y151184D01*
X61603Y150809D01*
X62203D01*
X62729Y151334D01*
Y151784D02*Y151334D01*
X62203Y152309D02*X62729Y151784D01*
X61603Y152309D02*X62203D01*
X61229Y151934D02*X61603Y152309D01*
Y153209D02*X62503D01*
X61229Y153584D02*X61603Y153209D01*
X61229Y154334D02*Y153584D01*
X62879Y154709D02*Y153584D01*
X62503Y153209D02*X62879Y153584D01*
X61229Y154334D02*X61603Y154709D01*
X63854D01*
X64229Y154334D01*
Y153584D01*
X63854Y153209D02*X64229Y153584D01*
X61229Y156734D02*X61603Y157109D01*
X61229Y156734D02*Y155984D01*
X61603Y155609D01*
X62729D01*
X63103Y155984D01*
Y156734D02*Y155984D01*
X62729Y157109D02*X63103Y156734D01*
X62729Y157109D02*X64229D01*
Y155609D01*
X61229Y158759D02*X64229D01*
Y159509D02*Y158008D01*
X27636Y181645D02*X28012Y181270D01*
Y178645D01*
X28912Y179620D02*X29287Y179995D01*
X28912Y179620D02*Y179020D01*
X29287Y178645D01*
X30787D01*
X30412Y181645D02*Y178645D01*
X29287Y179995D02*X30412D01*
X28912Y180370D02*X29287Y179995D01*
X28912Y181270D02*Y180370D01*
Y181270D02*X29287Y181645D01*
X30787D01*
X31687Y180145D02*Y178645D01*
Y180145D02*X32062Y181645D01*
X32812Y180145D01*
X33562Y181645D01*
X33937Y180145D01*
Y178645D01*
X34837Y179020D02*X37087Y181270D01*
X39112Y181645D02*X39487Y181270D01*
X38362Y181645D02*X39112D01*
X37987Y181270D02*X38362Y181645D01*
X37987Y181270D02*Y180145D01*
X38362Y179770D01*
X39112D01*
X39487Y180145D01*
Y178645D01*
X37987D02*X39487D01*
X30412Y174381D02*X30787Y174006D01*
X29662Y174381D02*X30412D01*
X29287Y174006D02*X29662Y174381D01*
X29287Y174006D02*Y171756D01*
X29662Y171381D01*
X30412D01*
X30787Y171756D01*
Y174006D02*Y171756D01*
X31687Y172881D02*Y171381D01*
Y172881D02*X32062Y174381D01*
X32812Y172881D01*
X33562Y174381D01*
X33937Y172881D01*
Y171381D01*
X34837Y171756D02*X37087Y174006D01*
X37987Y172356D02*X38362Y172731D01*
X37987Y173106D02*X38362Y172731D01*
X37987Y174006D02*Y173106D01*
Y172356D02*Y171756D01*
X38362Y172731D02*X39112D01*
Y174381D02*X39487Y174006D01*
X38362Y174381D02*X39112D01*
X37987Y174006D02*X38362Y174381D01*
X37987Y171756D02*X38362Y171381D01*
X39112D01*
X39487Y171756D01*
X29721Y164928D02*X30471D01*
X29346Y165303D02*X29721Y164928D01*
X29346Y166053D02*Y165303D01*
Y166053D02*X29721Y166428D01*
X30846D01*
X31221Y166053D01*
Y163803D01*
X30846Y163428D02*X31221Y163803D01*
X29721Y163428D02*X30846D01*
X29346Y163803D02*X29721Y163428D01*
X32121Y164928D02*Y163428D01*
Y164928D02*X32496Y166428D01*
X33246Y164928D01*
X33996Y166428D01*
X34371Y164928D01*
Y163428D01*
X35271Y163803D02*X37521Y166053D01*
X38421Y166428D02*X39546D01*
X38946D02*Y163428D01*
X39546Y164028D01*
G54D90*X260103Y217466D02*X261103D01*
X260603Y215466D02*X261103Y214966D01*
X260603Y218966D02*Y215466D01*
X258603D02*X259103Y214966D01*
X258603Y218966D02*Y215466D01*
X254903Y216966D02*X257402D01*
Y217966D02*Y214966D01*
X256703Y218966D02*X257402Y217966D01*
X255603Y218966D02*X256703D01*
X254903Y217966D02*X255603Y218966D01*
X254903Y217966D02*Y214966D01*
X253703Y216966D02*Y213966D01*
X253203Y213466D02*X253703Y213966D01*
X252202Y213466D02*X253203D01*
X251703Y213966D02*X252202Y213466D01*
X253203Y214966D02*X253703Y215466D01*
X252202Y214966D02*X253203D01*
X251703Y215466D02*X252202Y214966D01*
X251703Y216466D02*Y215466D01*
Y216466D02*X252202Y216966D01*
X253203D01*
X253703Y216466D01*
X250703D02*Y214966D01*
G54D93*Y217966D02*Y217866D01*
G54D90*X247003Y215466D02*X247503Y214966D01*
X249003D01*
X249503Y215466D01*
Y216466D02*Y215466D01*
X249003Y216966D02*X249503Y216466D01*
X247503Y216966D02*X249003D01*
X247003Y217466D02*X247503Y216966D01*
X247003Y218466D02*Y217466D01*
Y218466D02*X247503Y218966D01*
X249003D01*
X249503Y218466D01*
X249003Y221966D02*X250202Y219966D01*
X248203Y223966D02*Y219966D01*
Y221966D02*X249703D01*
X250202Y222466D01*
Y223466D02*Y222466D01*
X249703Y223966D02*X250202Y223466D01*
X247703Y223966D02*X249703D01*
X244502Y220466D02*X245003Y219966D01*
X246003D01*
X246503Y220466D01*
Y223466D02*Y220466D01*
X246003Y223966D02*X246503Y223466D01*
X245003Y223966D02*X246003D01*
X244502Y223466D02*X245003Y223966D01*
X244502Y223466D02*Y220466D01*
X259603Y225966D02*X260603D01*
X260103Y223966D02*X260603Y223466D01*
X260103Y227466D02*Y223966D01*
X256403Y223466D02*X258403Y225466D01*
X256403D02*X258403Y223466D01*
X255203Y224966D02*Y224466D01*
X253203D02*X255203D01*
X254703Y225466D02*X255203Y224966D01*
X253703Y225466D02*X254703D01*
X253203Y224966D02*X253703Y225466D01*
X253203Y224966D02*Y223966D01*
X253703Y223466D01*
X255203D01*
X251002D02*X252003Y227466D01*
X250003D02*X251002Y223466D01*
G54D92*X362369Y183314D02*X362744Y182939D01*
X363119Y183314D02*X363869D01*
X362744Y182939D02*X363119Y183314D01*
X362744Y182939D02*Y181814D01*
X361094Y183464D02*X361469Y183839D01*
Y184439D02*Y183839D01*
X361094Y184814D02*X361469Y184439D01*
X359594Y184814D02*X361094D01*
X359969D02*Y181814D01*
Y183464D02*X361094D01*
X361469Y183088D01*
Y182189D01*
X361094Y181814D02*X361469Y182189D01*
X359594Y181814D02*X361094D01*
X358694Y184814D02*Y183314D01*
X358319Y181814D02*X358694Y183314D01*
X357569D02*X358319Y181814D01*
X356819D02*X357569Y183314D01*
X356444D02*X356819Y181814D01*
X356444Y184814D02*Y183314D01*
X353294Y182189D02*X355544Y184439D01*
X350519Y184814D02*X352394D01*
X350894Y181814D02*X352394Y184814D01*
X361994Y190240D02*X362369Y189865D01*
X361994Y192865D02*Y190240D01*
X360719Y191514D02*X361094Y191890D01*
Y192490D02*Y191890D01*
X360719Y192865D02*X361094Y192490D01*
X359219Y192865D02*X360719D01*
X359594D02*Y189865D01*
Y191514D02*X360719D01*
X361094Y191140D01*
Y190240D01*
X360719Y189865D02*X361094Y190240D01*
X359219Y189865D02*X360719D01*
X358319Y192865D02*Y191365D01*
X357944Y189865D02*X358319Y191365D01*
X357194D02*X357944Y189865D01*
X356444D02*X357194Y191365D01*
X356069D02*X356444Y189865D01*
X356069Y192865D02*Y191365D01*
X352919Y190240D02*X355169Y192490D01*
X350519Y190240D02*X350894Y189865D01*
X351644D01*
X352019Y190240D01*
Y191365D02*Y190240D01*
X351644Y191740D02*X352019Y191365D01*
X350894Y191740D02*X351644D01*
X350519Y191365D02*X350894Y191740D01*
X350519Y192865D02*Y191365D01*
Y192865D02*X352019D01*
X359219Y197504D02*X359594Y197129D01*
X360344D01*
X360719Y197504D01*
Y199754D02*Y197504D01*
X360344Y200129D02*X360719Y199754D01*
X359594Y200129D02*X360344D01*
X359219Y199754D02*X359594Y200129D01*
X359219Y199754D02*Y197504D01*
X358319Y200129D02*Y198629D01*
X357944Y197129D02*X358319Y198629D01*
X357194D02*X357944Y197129D01*
X356444D02*X357194Y198629D01*
X356069D02*X356444Y197129D01*
X356069Y200129D02*Y198629D01*
X352919Y197504D02*X355169Y199754D01*
X351644Y198779D02*X352019Y199154D01*
X351644Y198779D02*X352019Y198404D01*
Y197504D01*
Y199754D02*Y199154D01*
X350894Y198779D02*X351644D01*
X350519Y197504D02*X350894Y197129D01*
X351644D01*
X352019Y197504D01*
X351644Y200129D02*X352019Y199754D01*
X350894Y200129D02*X351644D01*
X350519Y199754D02*X350894Y200129D01*
X359535Y206582D02*X360285D01*
X360660Y206207D01*
Y205457D01*
X360285Y205082D02*X360660Y205457D01*
X359160Y205082D02*X360285D01*
X358785Y205457D02*X359160Y205082D01*
X358785Y207707D02*Y205457D01*
Y207707D02*X359160Y208082D01*
X360285D01*
X360660Y207707D01*
X357885Y208082D02*Y206582D01*
X357510Y205082D02*X357885Y206582D01*
X356760D02*X357510Y205082D01*
X356010D02*X356760Y206582D01*
X355635D02*X356010Y205082D01*
X355635Y208082D02*Y206582D01*
X352485Y205457D02*X354735Y207707D01*
X350460Y205082D02*X351585D01*
X351060Y208082D02*Y205082D01*
X350460Y207482D02*X351060Y208082D01*
X334001Y178432D02*X334376Y178057D01*
X334751Y178432D02*X335501D01*
X334376Y178057D02*X334751Y178432D01*
X334376Y178057D02*Y176932D01*
X332726Y178582D02*X333101Y178957D01*
Y179557D02*Y178957D01*
X332726Y179932D02*X333101Y179557D01*
X331226Y179932D02*X332726D01*
X331601D02*Y176932D01*
Y178582D02*X332726D01*
X333101Y178207D01*
Y177307D01*
X332726Y176932D02*X333101Y177307D01*
X331226Y176932D02*X332726D01*
X328076Y177307D02*X330326Y179557D01*
X326651Y178432D02*X327176Y178957D01*
Y179557D02*Y178957D01*
X326801Y179932D02*X327176Y179557D01*
X326051Y179932D02*X326801D01*
X325676Y179557D02*X326051Y179932D01*
X325676Y179557D02*Y178957D01*
X326201Y178432D01*
X326051Y176932D02*X326801D01*
X327176Y177307D01*
Y177907D02*Y177307D01*
X326651Y178432D02*X327176Y177907D01*
X326201Y178432D02*X326651D01*
X325676Y177907D02*X326201Y178432D01*
X325676Y177907D02*Y177307D01*
X326051Y176932D01*
X331226Y184571D02*X331601Y184196D01*
X332351D01*
X332726Y184571D01*
Y186821D02*Y184571D01*
X332351Y187196D02*X332726Y186821D01*
X331601Y187196D02*X332351D01*
X331226Y186821D02*X331601Y187196D01*
X331226Y186821D02*Y184571D01*
X328076D02*X330326Y186821D01*
X327176Y185471D02*Y184571D01*
X326801Y184196D02*X327176Y184571D01*
X326051Y184196D02*X326801D01*
X325676Y185846D02*X326801D01*
X327176Y185471D01*
X325676Y184571D02*X326051Y184196D01*
X325676Y186821D02*Y184571D01*
Y186821D02*X326051Y187196D01*
X326801D01*
X327176Y186821D01*
X333983Y194728D02*X334358Y194353D01*
X333983Y197353D02*Y194728D01*
X332708Y196003D02*X333083Y196378D01*
Y196978D02*Y196378D01*
X332708Y197353D02*X333083Y196978D01*
X331208Y197353D02*X332708D01*
X331583D02*Y194353D01*
Y196003D02*X332708D01*
X333083Y195627D01*
Y194728D01*
X332708Y194353D02*X333083Y194728D01*
X331208Y194353D02*X332708D01*
X328058Y194728D02*X330308Y196978D01*
X326783Y197353D02*Y194353D01*
X325283Y195478D02*X327158D01*
X325283D02*X326783Y197353D01*
X331958Y203511D02*X332708D01*
X333083Y203136D01*
Y202386D01*
X332708Y202011D02*X333083Y202386D01*
X331583Y202011D02*X332708D01*
X331208Y202386D02*X331583Y202011D01*
X331208Y204636D02*Y202386D01*
Y204636D02*X331583Y205011D01*
X332708D01*
X333083Y204636D01*
X328058Y202386D02*X330308Y204636D01*
X325283Y202011D02*X327158D01*
X325283D02*X327158Y203886D01*
Y204636D02*Y203886D01*
X326783Y205011D02*X327158Y204636D01*
X325658Y205011D02*X326783D01*
X325283Y204636D02*X325658Y205011D01*
X327277Y223476D02*Y221601D01*
X326527Y223476D02*X328777D01*
X325777Y222951D02*X326527Y223476D01*
X325777Y222951D02*Y222126D01*
X326527Y221601D01*
X328777D01*
X326752Y220701D02*X327277Y220176D01*
X326152Y220701D02*X326752D01*
X325777Y220326D02*X326152Y220701D01*
X325777Y220326D02*Y219576D01*
X326152Y219201D01*
X326752D01*
X327277Y219726D01*
X328777Y220326D02*Y219576D01*
X328402Y220701D02*X328777Y220326D01*
X327802Y220701D02*X328402D01*
X327277Y220176D02*X327802Y220701D01*
X327277Y220176D02*Y219726D01*
X327802Y219201D01*
X328402D01*
X328777Y219576D01*
X327502Y218301D02*X328402D01*
X328777Y217926D01*
Y217176D01*
X327127Y217926D02*Y216801D01*
Y217926D02*X327502Y218301D01*
X328402Y216801D02*X328777Y217176D01*
X326152Y216801D02*X328402D01*
X325777Y217176D02*X326152Y216801D01*
X325777Y217926D02*Y217176D01*
Y217926D02*X326152Y218301D01*
X328402Y214401D02*X328777Y214776D01*
Y215526D02*Y214776D01*
X328402Y215901D02*X328777Y215526D01*
X327277Y215901D02*X328402D01*
X326902Y215526D02*X327277Y215901D01*
X326902Y215526D02*Y214776D01*
X327277Y214401D01*
X325777D02*X327277D01*
X325777Y215901D02*Y214401D01*
Y212751D02*X328777D01*
X325777Y213501D02*Y212001D01*
G54D78*X17003Y236997D02*X82503D01*
G54D79*X345145Y207414D02*X346720Y205840D01*
X345145D02*X346720Y207414D01*
G54D78*X178503Y209966D02*X181034Y212497D01*
X260003Y234465D02*Y228466D01*
X181034Y212497D02*X287503D01*
Y237497D02*Y147497D01*
X280003Y229997D02*Y219997D01*
X270003Y229997D02*Y219997D01*
G54D79*X43286Y165670D02*X44861Y164095D01*
X43286D02*X44861Y165670D01*
G54D78*X17503Y212497D02*X82503D01*
Y236997D02*Y147497D01*
X90003Y229997D02*Y219997D01*
X164000Y205000D02*Y145000D01*
X174000D01*
Y205000D01*
X164000D01*
Y195000D02*X174000D01*
Y205000D01*
X90003Y109997D02*Y99997D01*
X82503Y116997D02*Y27497D01*
X17503Y92497D02*X82503D01*
G54D79*X43286Y44095D02*X44861Y45670D01*
X43286D02*X44861Y44095D01*
G54D78*X270003Y109997D02*Y99997D01*
X280003Y109997D02*Y99997D01*
X287503Y117497D02*Y27497D01*
X181034Y92497D02*X287503D01*
X260003Y114465D02*Y108466D01*
X178503Y89966D02*X181034Y92497D01*
G54D79*X345145Y85840D02*X346720Y87414D01*
X345145D02*X346720Y85840D01*
G54D78*X17003Y116997D02*X82503D01*
G54D92*X325777Y93501D02*Y92001D01*
Y92751D02*X328777D01*
X325777Y95901D02*Y94401D01*
X327277D01*
X326902Y94776D02*X327277Y94401D01*
X326902Y95526D02*Y94776D01*
Y95526D02*X327277Y95901D01*
X328402D01*
X328777Y95526D01*
Y94776D01*
X328402Y94401D02*X328777Y94776D01*
X325777Y97926D02*X326152Y98301D01*
X325777Y97926D02*Y97176D01*
X326152Y96801D01*
X328402D01*
X328777Y97176D01*
X327127Y97926D02*X327502Y98301D01*
X327127Y97926D02*Y96801D01*
X328777Y97926D02*Y97176D01*
X328402Y98301D02*X328777Y97926D01*
X327502Y98301D02*X328402D01*
Y99201D02*X328777Y99576D01*
X327802Y99201D02*X328402D01*
X327277Y99726D02*X327802Y99201D01*
X327277Y100176D02*Y99726D01*
Y100176D02*X327802Y100701D01*
X328402D01*
X328777Y100326D01*
Y99576D01*
X326752Y99201D02*X327277Y99726D01*
X326152Y99201D02*X326752D01*
X325777Y99576D02*X326152Y99201D01*
X325777Y100326D02*Y99576D01*
Y100326D02*X326152Y100701D01*
X326752D01*
X327277Y100176D01*
X326527Y101601D02*X328777D01*
X325777Y102126D02*X326527Y101601D01*
X325777Y102951D02*Y102126D01*
Y102951D02*X326527Y103476D01*
X328777D01*
X327277D02*Y101601D01*
X325283Y84636D02*X325658Y85011D01*
X326783D01*
X327158Y84636D01*
Y83886D01*
X325283Y82011D02*X327158Y83886D01*
X325283Y82011D02*X327158D01*
X328058Y82386D02*X330308Y84636D01*
X332708Y85011D02*X333083Y84636D01*
X331583Y85011D02*X332708D01*
X331208Y84636D02*X331583Y85011D01*
X331208Y84636D02*Y82386D01*
X331583Y82011D01*
X332708D01*
X333083Y82386D01*
Y83136D02*Y82386D01*
X332708Y83511D02*X333083Y83136D01*
X331958Y83511D02*X332708D01*
X325283Y75478D02*X326783Y77353D01*
X325283Y75478D02*X327158D01*
X326783Y77353D02*Y74353D01*
X328058Y74728D02*X330308Y76978D01*
X331208Y74353D02*X332708D01*
X333083Y74728D01*
Y75627D02*Y74728D01*
X332708Y76003D02*X333083Y75627D01*
X331583Y76003D02*X332708D01*
X331583Y77353D02*Y74353D01*
X331208Y77353D02*X332708D01*
X333083Y76978D01*
Y76378D01*
X332708Y76003D02*X333083Y76378D01*
X333983Y77353D02*Y74728D01*
X334358Y74353D01*
X326801Y67196D02*X327176Y66821D01*
X326051Y67196D02*X326801D01*
X325676Y66821D02*X326051Y67196D01*
X325676Y66821D02*Y64571D01*
X326051Y64196D01*
X326801Y65846D02*X327176Y65471D01*
X325676Y65846D02*X326801D01*
X326051Y64196D02*X326801D01*
X327176Y64571D01*
Y65471D02*Y64571D01*
X328076D02*X330326Y66821D01*
X331226D02*Y64571D01*
Y66821D02*X331601Y67196D01*
X332351D01*
X332726Y66821D01*
Y64571D01*
X332351Y64196D02*X332726Y64571D01*
X331601Y64196D02*X332351D01*
X331226Y64571D02*X331601Y64196D01*
X325676Y57307D02*X326051Y56932D01*
X325676Y57907D02*Y57307D01*
Y57907D02*X326201Y58432D01*
X326651D01*
X327176Y57907D01*
Y57307D01*
X326801Y56932D02*X327176Y57307D01*
X326051Y56932D02*X326801D01*
X325676Y58957D02*X326201Y58432D01*
X325676Y59557D02*Y58957D01*
Y59557D02*X326051Y59932D01*
X326801D01*
X327176Y59557D01*
Y58957D01*
X326651Y58432D02*X327176Y58957D01*
X328076Y57307D02*X330326Y59557D01*
X331226Y56932D02*X332726D01*
X333101Y57307D01*
Y58207D02*Y57307D01*
X332726Y58582D02*X333101Y58207D01*
X331601Y58582D02*X332726D01*
X331601Y59932D02*Y56932D01*
X331226Y59932D02*X332726D01*
X333101Y59557D01*
Y58957D01*
X332726Y58582D02*X333101Y58957D01*
X334376Y58057D02*Y56932D01*
Y58057D02*X334751Y58432D01*
X335501D01*
X334001D02*X334376Y58057D01*
X350460Y87482D02*X351060Y88082D01*
Y85082D01*
X350460D02*X351585D01*
X352485Y85457D02*X354735Y87707D01*
X355635Y88082D02*Y86582D01*
X356010Y85082D01*
X356760Y86582D01*
X357510Y85082D01*
X357885Y86582D01*
Y88082D02*Y86582D01*
X360285Y88082D02*X360660Y87707D01*
X359160Y88082D02*X360285D01*
X358785Y87707D02*X359160Y88082D01*
X358785Y87707D02*Y85457D01*
X359160Y85082D01*
X360285D01*
X360660Y85457D01*
Y86207D02*Y85457D01*
X360285Y86582D02*X360660Y86207D01*
X359535Y86582D02*X360285D01*
X350519Y79754D02*X350894Y80129D01*
X351644D01*
X352019Y79754D01*
X351644Y77129D02*X352019Y77504D01*
X350894Y77129D02*X351644D01*
X350519Y77504D02*X350894Y77129D01*
Y78779D02*X351644D01*
X352019Y79754D02*Y79154D01*
Y78404D02*Y77504D01*
X351644Y78779D02*X352019Y78404D01*
X351644Y78779D02*X352019Y79154D01*
X352919Y77504D02*X355169Y79754D01*
X356069Y80129D02*Y78629D01*
X356444Y77129D01*
X357194Y78629D01*
X357944Y77129D01*
X358319Y78629D01*
Y80129D02*Y78629D01*
X359219Y79754D02*Y77504D01*
Y79754D02*X359594Y80129D01*
X360344D01*
X360719Y79754D01*
Y77504D01*
X360344Y77129D02*X360719Y77504D01*
X359594Y77129D02*X360344D01*
X359219Y77504D02*X359594Y77129D01*
X350519Y72865D02*X352019D01*
X350519D02*Y71365D01*
X350894Y71740D01*
X351644D01*
X352019Y71365D01*
Y70240D01*
X351644Y69865D02*X352019Y70240D01*
X350894Y69865D02*X351644D01*
X350519Y70240D02*X350894Y69865D01*
X352919Y70240D02*X355169Y72490D01*
X356069Y72865D02*Y71365D01*
X356444Y69865D01*
X357194Y71365D01*
X357944Y69865D01*
X358319Y71365D01*
Y72865D02*Y71365D01*
X359219Y69865D02*X360719D01*
X361094Y70240D01*
Y71140D02*Y70240D01*
X360719Y71514D02*X361094Y71140D01*
X359594Y71514D02*X360719D01*
X359594Y72865D02*Y69865D01*
X359219Y72865D02*X360719D01*
X361094Y72490D01*
Y71890D01*
X360719Y71514D02*X361094Y71890D01*
X361994Y72865D02*Y70240D01*
X362369Y69865D01*
X350894Y61814D02*X352394Y64814D01*
X350519D02*X352394D01*
X353294Y62189D02*X355544Y64439D01*
X356444Y64814D02*Y63314D01*
X356819Y61814D01*
X357569Y63314D01*
X358319Y61814D01*
X358694Y63314D01*
Y64814D02*Y63314D01*
X359594Y61814D02*X361094D01*
X361469Y62189D01*
Y63088D02*Y62189D01*
X361094Y63464D02*X361469Y63088D01*
X359969Y63464D02*X361094D01*
X359969Y64814D02*Y61814D01*
X359594Y64814D02*X361094D01*
X361469Y64439D01*
Y63839D01*
X361094Y63464D02*X361469Y63839D01*
X362744Y62939D02*Y61814D01*
Y62939D02*X363119Y63314D01*
X363869D01*
X362369D02*X362744Y62939D01*
G54D90*X250003Y107466D02*X251002Y103466D01*
X252003Y107466D01*
X253703Y103466D02*X255203D01*
X253203Y103966D02*X253703Y103466D01*
X253203Y104966D02*Y103966D01*
Y104966D02*X253703Y105466D01*
X254703D01*
X255203Y104966D01*
X253203Y104466D02*X255203D01*
Y104966D02*Y104466D01*
X256403Y105466D02*X258403Y103466D01*
X256403D02*X258403Y105466D01*
X260103Y107466D02*Y103966D01*
X260603Y103466D01*
X259603Y105966D02*X260603D01*
X244502Y103466D02*Y100466D01*
Y103466D02*X245003Y103966D01*
X246003D01*
X246503Y103466D01*
Y100466D01*
X246003Y99966D02*X246503Y100466D01*
X245003Y99966D02*X246003D01*
X244502Y100466D02*X245003Y99966D01*
X247703Y103966D02*X249703D01*
X250202Y103466D01*
Y102466D01*
X249703Y101966D02*X250202Y102466D01*
X248203Y101966D02*X249703D01*
X248203Y103966D02*Y99966D01*
X249003Y101966D02*X250202Y99966D01*
X249003Y98966D02*X249503Y98466D01*
X247503Y98966D02*X249003D01*
X247003Y98466D02*X247503Y98966D01*
X247003Y98466D02*Y97466D01*
X247503Y96966D01*
X249003D01*
X249503Y96466D01*
Y95466D01*
X249003Y94966D02*X249503Y95466D01*
X247503Y94966D02*X249003D01*
X247003Y95466D02*X247503Y94966D01*
G54D93*X250703Y97966D02*Y97866D01*
G54D90*Y96466D02*Y94966D01*
X253203Y96966D02*X253703Y96466D01*
X252202Y96966D02*X253203D01*
X251703Y96466D02*X252202Y96966D01*
X251703Y96466D02*Y95466D01*
X252202Y94966D01*
X253203D01*
X253703Y95466D01*
X251703Y93966D02*X252202Y93466D01*
X253203D01*
X253703Y93966D01*
Y96966D02*Y93966D01*
X254903Y97966D02*Y94966D01*
Y97966D02*X255603Y98966D01*
X256703D01*
X257402Y97966D01*
Y94966D01*
X254903Y96966D02*X257402D01*
X258603Y98966D02*Y95466D01*
X259103Y94966D01*
X260603Y98966D02*Y95466D01*
X261103Y94966D01*
X260103Y97466D02*X261103D01*
G54D92*X38946Y43428D02*X39546Y44028D01*
X38946Y46428D02*Y43428D01*
X38421Y46428D02*X39546D01*
X35271Y43803D02*X37521Y46053D01*
X34371Y44928D02*Y43428D01*
X33996Y46428D02*X34371Y44928D01*
X33246D02*X33996Y46428D01*
X32496D02*X33246Y44928D01*
X32121D02*X32496Y46428D01*
X32121Y44928D02*Y43428D01*
X29346Y43803D02*X29721Y43428D01*
X30846D01*
X31221Y43803D01*
Y46053D02*Y43803D01*
X30846Y46428D02*X31221Y46053D01*
X29721Y46428D02*X30846D01*
X29346Y46053D02*X29721Y46428D01*
X29346Y46053D02*Y45303D01*
X29721Y44928D01*
X30471D01*
X39112Y51381D02*X39487Y51756D01*
X38362Y51381D02*X39112D01*
X37987Y51756D02*X38362Y51381D01*
X37987Y54006D02*X38362Y54381D01*
X39112D01*
X39487Y54006D01*
X38362Y52731D02*X39112D01*
X37987Y52356D02*Y51756D01*
Y54006D02*Y53106D01*
X38362Y52731D01*
X37987Y52356D02*X38362Y52731D01*
X34837Y51756D02*X37087Y54006D01*
X33937Y52881D02*Y51381D01*
X33562Y54381D02*X33937Y52881D01*
X32812D02*X33562Y54381D01*
X32062D02*X32812Y52881D01*
X31687D02*X32062Y54381D01*
X31687Y52881D02*Y51381D01*
X30787Y54006D02*Y51756D01*
X30412Y51381D02*X30787Y51756D01*
X29662Y51381D02*X30412D01*
X29287Y51756D02*X29662Y51381D01*
X29287Y54006D02*Y51756D01*
Y54006D02*X29662Y54381D01*
X30412D01*
X30787Y54006D01*
X37987Y58645D02*X39487D01*
Y60145D02*Y58645D01*
X39112Y59770D02*X39487Y60145D01*
X38362Y59770D02*X39112D01*
X37987Y60145D02*X38362Y59770D01*
X37987Y61270D02*Y60145D01*
Y61270D02*X38362Y61645D01*
X39112D01*
X39487Y61270D01*
X34837Y59020D02*X37087Y61270D01*
X33937Y60145D02*Y58645D01*
X33562Y61645D02*X33937Y60145D01*
X32812D02*X33562Y61645D01*
X32062D02*X32812Y60145D01*
X31687D02*X32062Y61645D01*
X31687Y60145D02*Y58645D01*
X29287Y61645D02*X30787D01*
X28912Y61270D02*X29287Y61645D01*
X28912Y61270D02*Y60370D01*
X29287Y59995D01*
X30412D01*
Y61645D02*Y58645D01*
X29287D02*X30787D01*
X28912Y59020D02*X29287Y58645D01*
X28912Y59620D02*Y59020D01*
Y59620D02*X29287Y59995D01*
X28012Y61270D02*Y58645D01*
X27636Y61645D02*X28012Y61270D01*
X64229Y39509D02*Y38008D01*
X61229Y38759D02*X64229D01*
Y37109D02*Y35609D01*
X62729Y37109D02*X64229D01*
X62729D02*X63103Y36734D01*
Y35984D01*
X62729Y35609D02*X63103Y35984D01*
X61603Y35609D02*X62729D01*
X61229Y35984D02*X61603Y35609D01*
X61229Y36734D02*Y35984D01*
Y36734D02*X61603Y37109D01*
X63854Y33209D02*X64229Y33584D01*
Y34334D02*Y33584D01*
X63854Y34709D02*X64229Y34334D01*
X61603Y34709D02*X63854D01*
X61229Y34334D02*X61603Y34709D01*
X62503Y33209D02*X62879Y33584D01*
Y34709D02*Y33584D01*
X61229Y34334D02*Y33584D01*
X61603Y33209D01*
X62503D01*
X61229Y31934D02*X61603Y32309D01*
X62203D01*
X62729Y31784D01*
Y31334D01*
X62203Y30809D02*X62729Y31334D01*
X61603Y30809D02*X62203D01*
X61229Y31184D02*X61603Y30809D01*
X61229Y31934D02*Y31184D01*
X62729Y31784D02*X63254Y32309D01*
X63854D01*
X64229Y31934D01*
Y31184D01*
X63854Y30809D02*X64229Y31184D01*
X63254Y30809D02*X63854D01*
X62729Y31334D02*X63254Y30809D01*
X61229Y29909D02*X63479D01*
X64229Y29384D01*
Y28559D01*
X63479Y28034D02*X64229Y28559D01*
X61229Y28034D02*X63479D01*
X62729Y29909D02*Y28034D01*
X64348Y46499D02*X64723Y46874D01*
X63223Y46499D02*X64348D01*
X62847Y46874D02*X63223Y46499D01*
X62847Y47624D02*Y46874D01*
Y47624D02*X64723Y49499D01*
X62847D02*X64723D01*
X59698Y46874D02*X61947Y49124D01*
X56923Y46874D02*X57297Y46499D01*
X58423D01*
X58798Y46874D01*
Y49124D02*Y46874D01*
X58423Y49499D02*X58798Y49124D01*
X57297Y49499D02*X58423D01*
X56923Y49124D02*X57297Y49499D01*
X56923Y49124D02*Y48374D01*
X57297Y47999D01*
X58048D01*
X63223Y54156D02*X64723Y56031D01*
X62847D02*X64723D01*
X63223Y57156D02*Y54156D01*
X59698Y54531D02*X61947Y56781D01*
X57297Y57156D02*X58798D01*
X56923Y56781D02*X57297Y57156D01*
X56923Y56781D02*Y55881D01*
X57297Y55506D01*
X58423D01*
Y57156D02*Y54156D01*
X57297D02*X58798D01*
X56923Y54531D02*X57297Y54156D01*
X56923Y55131D02*Y54531D01*
Y55131D02*X57297Y55506D01*
X56023Y56781D02*Y54156D01*
X55648Y57156D02*X56023Y56781D01*
X62830Y64688D02*X63205Y64314D01*
X63955D01*
X64330Y64688D01*
Y66939D02*Y64688D01*
X63955Y67313D02*X64330Y66939D01*
X62830Y66039D02*X63205Y65664D01*
X64330D01*
X63205Y67313D02*X63955D01*
X62830Y66939D02*X63205Y67313D01*
X62830Y66939D02*Y66039D01*
X59680Y64688D02*X61930Y66939D01*
X58780D02*Y64688D01*
X58405Y64314D02*X58780Y64688D01*
X57655Y64314D02*X58405D01*
X57280Y64688D02*X57655Y64314D01*
X57280Y66939D02*Y64688D01*
Y66939D02*X57655Y67313D01*
X58405D01*
X58780Y66939D01*
X37612Y66696D02*X39112Y69696D01*
X37612Y66696D02*X39487D01*
X34462Y67071D02*X36712Y69321D01*
X33562Y68196D02*Y66696D01*
X33187Y69696D02*X33562Y68196D01*
X32437D02*X33187Y69696D01*
X31687D02*X32437Y68196D01*
X31311D02*X31687Y69696D01*
X31311Y68196D02*Y66696D01*
X28912Y69696D02*X30412D01*
X28537Y69321D02*X28912Y69696D01*
X28537Y69321D02*Y68421D01*
X28912Y68045D01*
X30037D01*
Y69696D02*Y66696D01*
X28912D02*X30412D01*
X28537Y67071D02*X28912Y66696D01*
X28537Y67671D02*Y67071D01*
Y67671D02*X28912Y68045D01*
X27262Y69696D02*Y68571D01*
X26887Y68196D02*X27262Y68571D01*
X26137Y68196D02*X26887D01*
X27262Y68571D02*X27636Y68196D01*
X63955Y74578D02*X64330Y74203D01*
Y73602D01*
X63805Y73078D02*X64330Y73602D01*
X63355Y73078D02*X63805D01*
X62830Y73602D02*X63355Y73078D01*
X62830Y74203D02*Y73602D01*
Y74203D02*X63205Y74578D01*
X63955D01*
X63805Y73078D02*X64330Y72553D01*
Y71953D01*
X63955Y71578D02*X64330Y71953D01*
X63205Y71578D02*X63955D01*
X62830Y71953D02*X63205Y71578D01*
X62830Y72553D02*Y71953D01*
Y72553D02*X63355Y73078D01*
X59680Y71953D02*X61930Y74203D01*
X57280Y74578D02*X58780D01*
X56905Y74203D02*X57280Y74578D01*
X56905Y74203D02*Y73302D01*
X57280Y72928D01*
X58405D01*
Y74578D02*Y71578D01*
X57280D02*X58780D01*
X56905Y71953D02*X57280Y71578D01*
X56905Y72553D02*Y71953D01*
Y72553D02*X57280Y72928D01*
X55630Y74578D02*Y73453D01*
X55255Y73078D02*X55630Y73453D01*
X54504Y73078D02*X55255D01*
X55630Y73453D02*X56004Y73078D01*
G54D91*X119442Y97037D02*X119923Y96557D01*
X118483Y97037D02*X119442D01*
X118003Y96557D02*X118483Y97037D01*
X118003Y96557D02*Y93677D01*
X118483Y93197D01*
X119442Y95309D02*X119923Y94829D01*
X118003Y95309D02*X119442D01*
X118483Y93197D02*X119442D01*
X119923Y93677D01*
Y94829D02*Y93677D01*
X121075Y97037D02*Y93677D01*
X121555Y93197D01*
X117503Y100102D02*X119442Y102527D01*
X117503Y100102D02*X119928D01*
X119442Y102527D02*Y98647D01*
X121092Y102527D02*Y99132D01*
X121577Y98647D01*
X118003Y107557D02*X118483Y108037D01*
X119923D01*
X120403Y107557D01*
Y106597D01*
X118003Y104197D02*X120403Y106597D01*
X118003Y104197D02*X120403D01*
X121555Y108037D02*Y104677D01*
X122035Y104197D01*
G54D79*X320023Y49269D02*Y48481D01*
Y51434D02*Y50647D01*
X318842D02*X321204D01*
X319038Y49269D02*X321007D01*
X320023Y50253D02*X321007Y49269D01*
X319038D02*X320023Y50253D01*
X318964Y94564D02*X319948Y95548D01*
X320932Y94564D01*
X318964D02*X320932D01*
X318767Y95942D02*X321129D01*
X319948Y96729D02*Y95942D01*
Y94564D02*Y93777D01*
G54D78*X338960Y86473D02*X346046D01*
X338960Y58521D02*X346046D01*
G54D79*Y93954D02*Y50843D01*
X338960Y93954D02*Y50843D01*
X342503Y73284D02*Y71709D01*
X341716Y72497D02*X343290D01*
X370062Y40607D02*X372031D01*
Y42576D02*Y40607D01*
X370062Y104387D02*X372031D01*
Y102418D01*
X312975Y40607D02*X314944D01*
X312975Y42576D02*Y40607D01*
Y104387D02*X314944D01*
X312975D02*Y102418D01*
X347621Y89623D02*X348605Y90607D01*
X347621D02*X348605Y89623D01*
G54D78*X202503Y89997D02*X282503D01*
X202503D02*Y79997D01*
X282503D01*
Y89997D02*Y79997D01*
X272503Y89997D02*Y79997D01*
X282503D01*
X193503Y94997D02*X243503D01*
Y114997D02*Y94997D01*
X193503Y114997D02*X243503D01*
X193503D02*Y94997D01*
X203503Y104997D02*Y94997D01*
X193503Y104997D02*X203503D01*
X262503Y114997D02*Y94997D01*
X282503D01*
Y114997D02*Y94997D01*
X262503Y114997D02*X282503D01*
X262503Y104997D02*X272503D01*
Y114997D02*Y104997D01*
X202503Y39997D02*X282503D01*
X202503D02*Y29997D01*
X282503D01*
Y39997D02*Y29997D01*
X272503Y39997D02*Y29997D01*
X282503D01*
X292503Y39997D02*X372503D01*
X292503D02*Y29997D01*
X372503D01*
Y39997D02*Y29997D01*
X362503Y39997D02*Y29997D01*
X372503D01*
X292503Y114997D02*X372503D01*
X292503D02*Y104997D01*
X372503D01*
Y114997D02*Y104997D01*
X362503Y114997D02*Y104997D01*
X372503D01*
X183503Y89997D02*Y29997D01*
X193503D01*
Y89997D02*Y29997D01*
X183503Y89997D02*X193503D01*
X183503Y79997D02*X193503D01*
Y89997D02*Y79997D01*
X124003Y94997D02*X174003D01*
Y114997D02*Y94997D01*
X124003Y114997D02*X174003D01*
X124003D02*Y94997D01*
X134003Y104997D02*Y94997D01*
X124003Y104997D02*X134003D01*
G54D79*X70027Y83036D02*Y82249D01*
Y80871D02*Y80084D01*
X68846Y80871D02*X71208D01*
X69042Y82249D02*X71011D01*
X69042D02*X70027Y81265D01*
X71011Y82249D01*
X70101Y35969D02*X71086Y36953D01*
X69117D02*X70101Y35969D01*
X69117Y36953D02*X71086D01*
X68920Y35576D02*X71283D01*
X70101D02*Y34788D01*
Y37741D02*Y36953D01*
G54D78*X44003Y45044D02*X51090D01*
X44003Y72997D02*X51090D01*
G54D79*X44003Y80674D02*Y37564D01*
X51090Y80674D02*Y37564D01*
X47546Y59808D02*Y58233D01*
X46759Y59021D02*X48334D01*
X18019Y90910D02*X19987D01*
X18019D02*Y88942D01*
Y27131D02*X19987D01*
X18019Y29099D02*Y27131D01*
X75105Y90910D02*X77074D01*
Y88942D01*
X75105Y27131D02*X77074D01*
Y29099D02*Y27131D01*
X41444Y40910D02*X42428Y41895D01*
X41444D02*X42428Y40910D01*
G54D78*X20003Y104997D02*X80003D01*
Y114997D02*Y104997D01*
X20003Y114997D02*X80003D01*
X20003D02*Y104997D01*
X30003Y114997D02*Y104997D01*
X20003Y114997D02*X30003D01*
X85003D02*Y94997D01*
X105003D01*
Y114997D02*Y94997D01*
X85003Y114997D02*X105003D01*
X85003Y104997D02*X95003D01*
Y114997D02*Y104997D01*
G54D90*X294003Y63997D02*X298003Y61497D01*
X294003D02*X298003Y63997D01*
X294003Y65697D02*X294503Y65197D01*
X294003Y67196D02*Y65697D01*
Y67196D02*X294503Y67696D01*
X295503D01*
X298003Y65197D01*
Y67696D02*Y65197D01*
X294503Y71897D02*X297503Y68897D01*
X294003Y75097D02*X294503Y75597D01*
X294003Y75097D02*Y73597D01*
X294503Y73097D01*
X295503D01*
X296003Y73597D01*
Y75097D02*Y73597D01*
Y75097D02*X296503Y75597D01*
X297503D01*
X298003Y75097D01*
Y73597D01*
X297503Y73097D02*X298003Y73597D01*
X294003Y78797D02*Y76797D01*
Y77797D02*X298003D01*
X295803Y81497D02*Y79997D01*
X298003Y81997D02*Y79997D01*
X294003D02*X298003D01*
X294003Y81997D02*Y79997D01*
Y83697D02*X298003D01*
X294003Y85197D02*Y83197D01*
Y85197D02*X294503Y85697D01*
X295503D01*
X296003Y85197D01*
Y83697D01*
X265503Y73997D02*X268003Y77997D01*
X265503D02*X268003Y73997D01*
X263803D02*X264303Y74497D01*
X262303Y73997D02*X263803D01*
X261803Y74497D02*X262303Y73997D01*
X261803Y75497D02*Y74497D01*
Y75497D02*X264303Y77997D01*
X261803D02*X264303D01*
X257603Y74497D02*X260603Y77497D01*
X255903Y77997D02*Y73997D01*
X254403D02*X256403D01*
X253903Y74497D02*X254403Y73997D01*
X253903Y75497D02*Y74497D01*
Y75497D02*X254403Y75997D01*
X255903D01*
X252703Y77497D02*Y74497D01*
X252202Y73997D02*X252703Y74497D01*
X251203Y73997D02*X252202D01*
X250703Y74497D02*X251203Y73997D01*
X250703Y77497D02*Y74497D01*
Y77497D02*X251203Y77997D01*
X252202D01*
X252703Y77497D01*
X249503Y77997D02*Y73997D01*
X247503Y77997D02*X249503D01*
X245503Y73997D02*X246303Y74797D01*
X245503Y77997D02*Y73997D01*
X244803Y77997D02*X246303D01*
X314003Y93497D02*X316503Y97497D01*
X314003D02*X316503Y93497D01*
X312303D02*X312803Y93997D01*
X310803Y93497D02*X312303D01*
X310303Y93997D02*X310803Y93497D01*
X310303Y94997D02*Y93997D01*
Y94997D02*X312803Y97497D01*
X310303D02*X312803D01*
X306103Y93997D02*X309103Y96997D01*
X304903Y97497D02*Y93497D01*
X303403Y95497D02*X304903Y93497D01*
X301903D02*X303403Y95497D01*
X301903Y97497D02*Y93497D01*
X300703Y96997D02*Y93997D01*
X300203Y93497D02*X300703Y93997D01*
X299203Y93497D02*X300203D01*
X298703Y93997D02*X299203Y93497D01*
X298703Y96997D02*Y93997D01*
Y96997D02*X299203Y97497D01*
X300203D01*
X300703Y96997D01*
X296503Y97497D02*X297503Y93497D01*
X295503D02*X296503Y97497D01*
X265503Y41497D02*X268003Y45497D01*
X265503D02*X268003Y41497D01*
X263803D02*X264303Y41997D01*
X262303Y41497D02*X263803D01*
X261803Y41997D02*X262303Y41497D01*
X261803Y42997D02*Y41997D01*
Y42997D02*X264303Y45497D01*
X261803D02*X264303D01*
X257603Y41997D02*X260603Y44997D01*
X255903Y45497D02*Y41497D01*
X254403D02*X256403D01*
X253903Y41997D02*X254403Y41497D01*
X253903Y42997D02*Y41997D01*
Y42997D02*X254403Y43497D01*
X255903D01*
X252703Y44997D02*Y41997D01*
X252202Y41497D02*X252703Y41997D01*
X251203Y41497D02*X252202D01*
X250703Y41997D02*X251203Y41497D01*
X250703Y44997D02*Y41997D01*
Y44997D02*X251203Y45497D01*
X252202D01*
X252703Y44997D01*
X249503Y45497D02*Y41497D01*
X247503Y45497D02*X249503D01*
X245803Y41497D02*X246303Y41997D01*
X244303Y41497D02*X245803D01*
X243803Y41997D02*X244303Y41497D01*
X243803Y42997D02*Y41997D01*
Y42997D02*X246303Y45497D01*
X243803D02*X246303D01*
X309003Y41497D02*X311503Y45497D01*
X309003D02*X311503Y41497D01*
X307303D02*X307803Y41997D01*
X305803Y41497D02*X307303D01*
X305303Y41997D02*X305803Y41497D01*
X305303Y42997D02*Y41997D01*
Y42997D02*X307803Y45497D01*
X305303D02*X307803D01*
X301103Y41997D02*X304103Y44997D01*
X298403Y43297D02*X299903D01*
X297903Y45497D02*X299903D01*
Y41497D01*
X297903D02*X299903D01*
X294203D02*X296703Y45497D01*
X294203D02*X296703Y41497D01*
X19546Y69521D02*X23546Y67021D01*
X19546D02*X23546Y69521D01*
X22746Y65820D02*X23546Y65020D01*
X19546D02*X23546D01*
X19546Y65820D02*Y64320D01*
X20046Y63121D02*X23046Y60121D01*
X19546Y58921D02*X23546Y56421D01*
X19546D02*X23546Y58921D01*
X22746Y55221D02*X23546Y54421D01*
X19546D02*X23546D01*
X19546Y55221D02*Y53721D01*
X20046Y52521D02*X23046Y49521D01*
Y45821D02*X23546Y46321D01*
Y47821D02*Y46321D01*
X23046Y48321D02*X23546Y47821D01*
X20046Y48321D02*X23046D01*
X19546Y47821D02*X20046Y48321D01*
X19546Y47821D02*Y46321D01*
X20046Y45821D01*
X21046D01*
X21546Y46321D01*
Y47321D02*Y46321D01*
X21746Y44621D02*Y43121D01*
X19546Y44621D02*Y42620D01*
Y44621D02*X23546D01*
Y42620D01*
X19546Y41421D02*X23546D01*
X19546Y38921D02*X23546Y41421D01*
X19546Y38921D02*X23546D01*
G54D78*X178503Y24997D02*X374003D01*
Y116997D02*Y24997D01*
X178503Y89997D02*Y24997D01*
X84503Y89997D02*X178503D01*
X84503D02*Y24997D01*
X16003D02*X84503D01*
X16003Y116997D02*Y24997D01*
Y116997D02*X374003D01*
G54D89*X34042Y33824D03*
G54D88*X47546Y33036D03*
G54D87*X44003Y61028D03*
Y52997D03*
Y44966D03*
X51090Y57013D03*
Y48981D03*
X70027Y31462D03*
Y41501D03*
X44003Y69060D03*
X51090Y65044D03*
Y73075D03*
X70027Y76540D03*
Y86580D03*
G54D89*X34042Y84217D03*
G54D88*X47546Y85005D03*
G54D87*X338960Y74505D03*
G54D89*X356007Y97694D03*
G54D88*X342503Y98481D03*
G54D87*X346046Y70489D03*
Y78521D03*
Y86552D03*
X320023Y54977D03*
Y44938D03*
G54D89*X356007Y47300D03*
G54D88*X342503Y46513D03*
G54D87*X346046Y62458D03*
X338960Y66473D03*
Y58442D03*
Y82536D03*
X320023Y100056D03*
Y90017D03*
G54D86*X110503Y95997D03*
Y99497D03*
Y102997D03*
X115002Y95997D03*
Y99497D03*
Y102997D03*
G54D85*X44003Y69057D03*
Y61027D03*
Y44967D03*
X51093Y73077D03*
Y65047D03*
Y57017D03*
Y48977D03*
X70023Y86577D03*
Y76537D03*
Y41497D03*
Y31457D03*
X320023Y100057D03*
Y44937D03*
X338963Y82537D03*
Y74507D03*
Y66477D03*
Y58437D03*
X346043Y86557D03*
Y78517D03*
Y70487D03*
Y62456D03*
G54D84*X34043Y84217D03*
Y33827D03*
X356003Y97697D03*
Y47297D03*
G54D83*X47543Y85007D03*
Y33037D03*
X342503Y98477D03*
Y46517D03*
G54D78*X238500Y22000D02*Y18000D01*
X228500Y22000D02*Y18000D01*
X218500Y22000D02*Y18000D01*
X208500Y22000D02*Y18000D01*
X198500Y22000D02*Y18000D01*
X169000Y22000D02*Y18000D01*
X159000Y22000D02*Y18000D01*
X149000Y22000D02*Y18000D01*
X139000Y22000D02*Y18000D01*
X129000Y22000D02*Y18000D01*
X198500Y20000D02*X238500D01*
X129000D02*X169000D01*
X238500Y32000D02*Y28000D01*
X228500Y32000D02*Y28000D01*
X218500Y32000D02*Y28000D01*
X208500Y32000D02*Y28000D01*
X198500Y32000D02*Y28000D01*
X169000Y32000D02*Y28000D01*
X159000Y32000D02*Y28000D01*
X149000Y32000D02*Y28000D01*
X139000Y32000D02*Y28000D01*
X129000Y32000D02*Y28000D01*
X198500Y30000D02*X238500D01*
X129000D02*X169000D01*
X238500Y72000D02*Y68000D01*
X228500Y72000D02*Y68000D01*
X218500Y72000D02*Y68000D01*
X208500Y72000D02*Y68000D01*
X198500Y72000D02*Y68000D01*
X169000Y72000D02*Y68000D01*
X159000Y72000D02*Y68000D01*
X149000Y72000D02*Y68000D01*
X139000Y72000D02*Y68000D01*
X129000Y72000D02*Y68000D01*
X198500Y70000D02*X238500D01*
X129000D02*X169000D01*
X102000Y50000D02*X105000D01*
X102000Y100000D02*X105000D01*
X102000Y150000D02*X105000D01*
X102000Y200000D02*X105000D01*
X102000Y250000D02*X105000D01*
X102000Y300000D02*X105000D01*
X102000Y350000D02*X105000D01*
X102000Y400000D02*X105000D01*
X102000Y450000D02*X105000D01*
X102000Y500000D02*X105000D01*
X102000Y550000D02*X105000D01*
X102000Y600000D02*X105000D01*
X102000Y640000D02*X105000D01*
X238500Y42000D02*Y38000D01*
X228500Y42000D02*Y38000D01*
X218500Y42000D02*Y38000D01*
X208500Y42000D02*Y38000D01*
X198500Y42000D02*Y38000D01*
X169000Y42000D02*Y38000D01*
X159000Y42000D02*Y38000D01*
X149000Y42000D02*Y38000D01*
X139000Y42000D02*Y38000D01*
X129000Y42000D02*Y38000D01*
X198500Y40000D02*X238500D01*
X129000D02*X169000D01*
X238500Y52000D02*Y48000D01*
X228500Y52000D02*Y48000D01*
X218500Y52000D02*Y48000D01*
X208500Y52000D02*Y48000D01*
X198500Y52000D02*Y48000D01*
X169000Y52000D02*Y48000D01*
X159000Y52000D02*Y48000D01*
X149000Y52000D02*Y48000D01*
X139000Y52000D02*Y48000D01*
X129000Y52000D02*Y48000D01*
X198500Y50000D02*X238500D01*
X129000D02*X169000D01*
X238500Y62000D02*Y58000D01*
X228500Y62000D02*Y58000D01*
X218500Y62000D02*Y58000D01*
X208500Y62000D02*Y58000D01*
X198500Y62000D02*Y58000D01*
X169000Y62000D02*Y58000D01*
X159000Y62000D02*Y58000D01*
X149000Y62000D02*Y58000D01*
X139000Y62000D02*Y58000D01*
X129000Y62000D02*Y58000D01*
X198500Y60000D02*X238500D01*
X129000D02*X169000D01*
X238500Y82000D02*Y78000D01*
X228500Y82000D02*Y78000D01*
X218500Y82000D02*Y78000D01*
X208500Y82000D02*Y78000D01*
X198500Y82000D02*Y78000D01*
X169000Y82000D02*Y78000D01*
X159000Y82000D02*Y78000D01*
X149000Y82000D02*Y78000D01*
X139000Y82000D02*Y78000D01*
X129000Y82000D02*Y78000D01*
X198500Y80000D02*X238500D01*
X129000D02*X169000D01*
X238500Y92000D02*Y88000D01*
X228500Y92000D02*Y88000D01*
X218500Y92000D02*Y88000D01*
X208500Y92000D02*Y88000D01*
X198500Y92000D02*Y88000D01*
X169000Y92000D02*Y88000D01*
X159000Y92000D02*Y88000D01*
X149000Y92000D02*Y88000D01*
X139000Y92000D02*Y88000D01*
X129000Y92000D02*Y88000D01*
X198500Y90000D02*X238500D01*
X129000D02*X169000D01*
X238500Y102000D02*Y98000D01*
X228500Y102000D02*Y98000D01*
X218500Y102000D02*Y98000D01*
X208500Y102000D02*Y98000D01*
X198500Y102000D02*Y98000D01*
X169000Y102000D02*Y98000D01*
X159000Y102000D02*Y98000D01*
X149000Y102000D02*Y98000D01*
X139000Y102000D02*Y98000D01*
X129000Y102000D02*Y98000D01*
X198500Y100000D02*X238500D01*
X129000D02*X169000D01*
X238500Y112000D02*Y108000D01*
X228500Y112000D02*Y108000D01*
X218500Y112000D02*Y108000D01*
X208500Y112000D02*Y108000D01*
X198500Y112000D02*Y108000D01*
X169000Y112000D02*Y108000D01*
X159000Y112000D02*Y108000D01*
X149000Y112000D02*Y108000D01*
X139000Y112000D02*Y108000D01*
X129000Y112000D02*Y108000D01*
X198500Y110000D02*X238500D01*
X129000D02*X169000D01*
X238500Y122000D02*Y118000D01*
X228500Y122000D02*Y118000D01*
X218500Y122000D02*Y118000D01*
X208500Y122000D02*Y118000D01*
X198500Y122000D02*Y118000D01*
X169000Y122000D02*Y118000D01*
X159000Y122000D02*Y118000D01*
X149000Y122000D02*Y118000D01*
X139000Y122000D02*Y118000D01*
X129000Y122000D02*Y118000D01*
X198500Y120000D02*X238500D01*
X129000D02*X169000D01*
X238500Y132000D02*Y128000D01*
X228500Y132000D02*Y128000D01*
X218500Y132000D02*Y128000D01*
X208500Y132000D02*Y128000D01*
X198500Y132000D02*Y128000D01*
X169000Y132000D02*Y128000D01*
X159000Y132000D02*Y128000D01*
X149000Y132000D02*Y128000D01*
X139000Y132000D02*Y128000D01*
X129000Y132000D02*Y128000D01*
X198500Y130000D02*X238500D01*
X129000D02*X169000D01*
X238500Y142000D02*Y138000D01*
X228500Y142000D02*Y138000D01*
X218500Y142000D02*Y138000D01*
X208500Y142000D02*Y138000D01*
X198500Y142000D02*Y138000D01*
X169000Y142000D02*Y138000D01*
X159000Y142000D02*Y138000D01*
X149000Y142000D02*Y138000D01*
X139000Y142000D02*Y138000D01*
X129000Y142000D02*Y138000D01*
X198500Y140000D02*X238500D01*
X129000D02*X169000D01*
X238500Y152000D02*Y148000D01*
X228500Y152000D02*Y148000D01*
X218500Y152000D02*Y148000D01*
X208500Y152000D02*Y148000D01*
X198500Y152000D02*Y148000D01*
X169000Y152000D02*Y148000D01*
X159000Y152000D02*Y148000D01*
X149000Y152000D02*Y148000D01*
X139000Y152000D02*Y148000D01*
X129000Y152000D02*Y148000D01*
X198500Y150000D02*X238500D01*
X129000D02*X169000D01*
X238500Y162000D02*Y158000D01*
X228500Y162000D02*Y158000D01*
X218500Y162000D02*Y158000D01*
X208500Y162000D02*Y158000D01*
X198500Y162000D02*Y158000D01*
X169000Y162000D02*Y158000D01*
X159000Y162000D02*Y158000D01*
X149000Y162000D02*Y158000D01*
X139000Y162000D02*Y158000D01*
X129000Y162000D02*Y158000D01*
X198500Y160000D02*X238500D01*
X129000D02*X169000D01*
X238500Y172000D02*Y168000D01*
X228500Y172000D02*Y168000D01*
X218500Y172000D02*Y168000D01*
X208500Y172000D02*Y168000D01*
X198500Y172000D02*Y168000D01*
X169000Y172000D02*Y168000D01*
X159000Y172000D02*Y168000D01*
X149000Y172000D02*Y168000D01*
X139000Y172000D02*Y168000D01*
X129000Y172000D02*Y168000D01*
X198500Y170000D02*X238500D01*
X129000D02*X169000D01*
X238500Y182000D02*Y178000D01*
X228500Y182000D02*Y178000D01*
X218500Y182000D02*Y178000D01*
X208500Y182000D02*Y178000D01*
X198500Y182000D02*Y178000D01*
X169000Y182000D02*Y178000D01*
X159000Y182000D02*Y178000D01*
X149000Y182000D02*Y178000D01*
X139000Y182000D02*Y178000D01*
X129000Y182000D02*Y178000D01*
X198500Y180000D02*X238500D01*
X129000D02*X169000D01*
X238500Y192000D02*Y188000D01*
X228500Y192000D02*Y188000D01*
X218500Y192000D02*Y188000D01*
X208500Y192000D02*Y188000D01*
X198500Y192000D02*Y188000D01*
X169000Y192000D02*Y188000D01*
X159000Y192000D02*Y188000D01*
X149000Y192000D02*Y188000D01*
X139000Y192000D02*Y188000D01*
X129000Y192000D02*Y188000D01*
X198500Y190000D02*X238500D01*
X129000D02*X169000D01*
X238500Y202000D02*Y198000D01*
X228500Y202000D02*Y198000D01*
X218500Y202000D02*Y198000D01*
X208500Y202000D02*Y198000D01*
X198500Y202000D02*Y198000D01*
X169000Y202000D02*Y198000D01*
X159000Y202000D02*Y198000D01*
X149000Y202000D02*Y198000D01*
X139000Y202000D02*Y198000D01*
X129000Y202000D02*Y198000D01*
X198500Y200000D02*X238500D01*
X129000D02*X169000D01*
X238500Y212000D02*Y208000D01*
X228500Y212000D02*Y208000D01*
X218500Y212000D02*Y208000D01*
X208500Y212000D02*Y208000D01*
X198500Y212000D02*Y208000D01*
X169000Y212000D02*Y208000D01*
X159000Y212000D02*Y208000D01*
X149000Y212000D02*Y208000D01*
X139000Y212000D02*Y208000D01*
X129000Y212000D02*Y208000D01*
X198500Y210000D02*X238500D01*
X129000D02*X169000D01*
X238500Y222000D02*Y218000D01*
X228500Y222000D02*Y218000D01*
X218500Y222000D02*Y218000D01*
X208500Y222000D02*Y218000D01*
X198500Y222000D02*Y218000D01*
X169000Y222000D02*Y218000D01*
X159000Y222000D02*Y218000D01*
X149000Y222000D02*Y218000D01*
X139000Y222000D02*Y218000D01*
X129000Y222000D02*Y218000D01*
X198500Y220000D02*X238500D01*
X129000D02*X169000D01*
X238500Y232000D02*Y228000D01*
X228500Y232000D02*Y228000D01*
X218500Y232000D02*Y228000D01*
X208500Y232000D02*Y228000D01*
X198500Y232000D02*Y228000D01*
X169000Y232000D02*Y228000D01*
X159000Y232000D02*Y228000D01*
X149000Y232000D02*Y228000D01*
X139000Y232000D02*Y228000D01*
X129000Y232000D02*Y228000D01*
X198500Y230000D02*X238500D01*
X129000D02*X169000D01*
X238500Y242000D02*Y238000D01*
X228500Y242000D02*Y238000D01*
X218500Y242000D02*Y238000D01*
X208500Y242000D02*Y238000D01*
X198500Y242000D02*Y238000D01*
X169000Y242000D02*Y238000D01*
X159000Y242000D02*Y238000D01*
X149000Y242000D02*Y238000D01*
X139000Y242000D02*Y238000D01*
X129000Y242000D02*Y238000D01*
X198500Y240000D02*X238500D01*
X129000D02*X169000D01*
X238500Y252000D02*Y248000D01*
X228500Y252000D02*Y248000D01*
X218500Y252000D02*Y248000D01*
X208500Y252000D02*Y248000D01*
X198500Y252000D02*Y248000D01*
X169000Y252000D02*Y248000D01*
X159000Y252000D02*Y248000D01*
X149000Y252000D02*Y248000D01*
X139000Y252000D02*Y248000D01*
X129000Y252000D02*Y248000D01*
X198500Y250000D02*X238500D01*
X129000D02*X169000D01*
X238500Y262000D02*Y258000D01*
X228500Y262000D02*Y258000D01*
X218500Y262000D02*Y258000D01*
X208500Y262000D02*Y258000D01*
X198500Y262000D02*Y258000D01*
X169000Y262000D02*Y258000D01*
X159000Y262000D02*Y258000D01*
X149000Y262000D02*Y258000D01*
X139000Y262000D02*Y258000D01*
X129000Y262000D02*Y258000D01*
X198500Y260000D02*X238500D01*
X129000D02*X169000D01*
X238500Y272000D02*Y268000D01*
X228500Y272000D02*Y268000D01*
X218500Y272000D02*Y268000D01*
X208500Y272000D02*Y268000D01*
X198500Y272000D02*Y268000D01*
X169000Y272000D02*Y268000D01*
X159000Y272000D02*Y268000D01*
X149000Y272000D02*Y268000D01*
X139000Y272000D02*Y268000D01*
X129000Y272000D02*Y268000D01*
X198500Y270000D02*X238500D01*
X129000D02*X169000D01*
X238500Y282000D02*Y278000D01*
X228500Y282000D02*Y278000D01*
X218500Y282000D02*Y278000D01*
X208500Y282000D02*Y278000D01*
X198500Y282000D02*Y278000D01*
X169000Y282000D02*Y278000D01*
X159000Y282000D02*Y278000D01*
X149000Y282000D02*Y278000D01*
X139000Y282000D02*Y278000D01*
X129000Y282000D02*Y278000D01*
X198500Y280000D02*X238500D01*
X129000D02*X169000D01*
X238500Y292000D02*Y288000D01*
X228500Y292000D02*Y288000D01*
X218500Y292000D02*Y288000D01*
X208500Y292000D02*Y288000D01*
X198500Y292000D02*Y288000D01*
X169000Y292000D02*Y288000D01*
X159000Y292000D02*Y288000D01*
X149000Y292000D02*Y288000D01*
X139000Y292000D02*Y288000D01*
X129000Y292000D02*Y288000D01*
X198500Y290000D02*X238500D01*
X129000D02*X169000D01*
X238500Y302000D02*Y298000D01*
X228500Y302000D02*Y298000D01*
X218500Y302000D02*Y298000D01*
X208500Y302000D02*Y298000D01*
X198500Y302000D02*Y298000D01*
X169000Y302000D02*Y298000D01*
X159000Y302000D02*Y298000D01*
X149000Y302000D02*Y298000D01*
X139000Y302000D02*Y298000D01*
X129000Y302000D02*Y298000D01*
X198500Y300000D02*X238500D01*
X129000D02*X169000D01*
X238500Y312000D02*Y308000D01*
X228500Y312000D02*Y308000D01*
X218500Y312000D02*Y308000D01*
X208500Y312000D02*Y308000D01*
X198500Y312000D02*Y308000D01*
X169000Y312000D02*Y308000D01*
X159000Y312000D02*Y308000D01*
X149000Y312000D02*Y308000D01*
X139000Y312000D02*Y308000D01*
X129000Y312000D02*Y308000D01*
X198500Y310000D02*X238500D01*
X129000D02*X169000D01*
X238500Y322000D02*Y318000D01*
X228500Y322000D02*Y318000D01*
X218500Y322000D02*Y318000D01*
X208500Y322000D02*Y318000D01*
X198500Y322000D02*Y318000D01*
X169000Y322000D02*Y318000D01*
X159000Y322000D02*Y318000D01*
X149000Y322000D02*Y318000D01*
X139000Y322000D02*Y318000D01*
X129000Y322000D02*Y318000D01*
X198500Y320000D02*X238500D01*
X129000D02*X169000D01*
X238500Y332000D02*Y328000D01*
X228500Y332000D02*Y328000D01*
X218500Y332000D02*Y328000D01*
X208500Y332000D02*Y328000D01*
X198500Y332000D02*Y328000D01*
X169000Y332000D02*Y328000D01*
X159000Y332000D02*Y328000D01*
X149000Y332000D02*Y328000D01*
X139000Y332000D02*Y328000D01*
X129000Y332000D02*Y328000D01*
X198500Y330000D02*X238500D01*
X129000D02*X169000D01*
X238500Y342000D02*Y338000D01*
X228500Y342000D02*Y338000D01*
X218500Y342000D02*Y338000D01*
X208500Y342000D02*Y338000D01*
X198500Y342000D02*Y338000D01*
X169000Y342000D02*Y338000D01*
X159000Y342000D02*Y338000D01*
X149000Y342000D02*Y338000D01*
X139000Y342000D02*Y338000D01*
X129000Y342000D02*Y338000D01*
X198500Y340000D02*X238500D01*
X129000D02*X169000D01*
X238500Y352000D02*Y348000D01*
X228500Y352000D02*Y348000D01*
X218500Y352000D02*Y348000D01*
X208500Y352000D02*Y348000D01*
X198500Y352000D02*Y348000D01*
X169000Y352000D02*Y348000D01*
X159000Y352000D02*Y348000D01*
X149000Y352000D02*Y348000D01*
X139000Y352000D02*Y348000D01*
X129000Y352000D02*Y348000D01*
X198500Y350000D02*X238500D01*
X129000D02*X169000D01*
X238500Y362000D02*Y358000D01*
X228500Y362000D02*Y358000D01*
X218500Y362000D02*Y358000D01*
X208500Y362000D02*Y358000D01*
X198500Y362000D02*Y358000D01*
X169000Y362000D02*Y358000D01*
X159000Y362000D02*Y358000D01*
X149000Y362000D02*Y358000D01*
X139000Y362000D02*Y358000D01*
X129000Y362000D02*Y358000D01*
X198500Y360000D02*X238500D01*
X129000D02*X169000D01*
X238500Y372000D02*Y368000D01*
X228500Y372000D02*Y368000D01*
X218500Y372000D02*Y368000D01*
X208500Y372000D02*Y368000D01*
X198500Y372000D02*Y368000D01*
X169000Y372000D02*Y368000D01*
X159000Y372000D02*Y368000D01*
X149000Y372000D02*Y368000D01*
X139000Y372000D02*Y368000D01*
X129000Y372000D02*Y368000D01*
X198500Y370000D02*X238500D01*
X129000D02*X169000D01*
X238500Y382000D02*Y378000D01*
X228500Y382000D02*Y378000D01*
X218500Y382000D02*Y378000D01*
X208500Y382000D02*Y378000D01*
X198500Y382000D02*Y378000D01*
X169000Y382000D02*Y378000D01*
X159000Y382000D02*Y378000D01*
X149000Y382000D02*Y378000D01*
X139000Y382000D02*Y378000D01*
X129000Y382000D02*Y378000D01*
X198500Y380000D02*X238500D01*
X129000D02*X169000D01*
X238500Y392000D02*Y388000D01*
X228500Y392000D02*Y388000D01*
X218500Y392000D02*Y388000D01*
X208500Y392000D02*Y388000D01*
X198500Y392000D02*Y388000D01*
X169000Y392000D02*Y388000D01*
X159000Y392000D02*Y388000D01*
X149000Y392000D02*Y388000D01*
X139000Y392000D02*Y388000D01*
X129000Y392000D02*Y388000D01*
X198500Y390000D02*X238500D01*
X129000D02*X169000D01*
X238500Y402000D02*Y398000D01*
X228500Y402000D02*Y398000D01*
X218500Y402000D02*Y398000D01*
X208500Y402000D02*Y398000D01*
X198500Y402000D02*Y398000D01*
X169000Y402000D02*Y398000D01*
X159000Y402000D02*Y398000D01*
X149000Y402000D02*Y398000D01*
X139000Y402000D02*Y398000D01*
X129000Y402000D02*Y398000D01*
X198500Y400000D02*X238500D01*
X129000D02*X169000D01*
X238500Y412000D02*Y408000D01*
X228500Y412000D02*Y408000D01*
X218500Y412000D02*Y408000D01*
X208500Y412000D02*Y408000D01*
X198500Y412000D02*Y408000D01*
X169000Y412000D02*Y408000D01*
X159000Y412000D02*Y408000D01*
X149000Y412000D02*Y408000D01*
X139000Y412000D02*Y408000D01*
X129000Y412000D02*Y408000D01*
X198500Y410000D02*X238500D01*
X129000D02*X169000D01*
X238500Y422000D02*Y418000D01*
X228500Y422000D02*Y418000D01*
X218500Y422000D02*Y418000D01*
X208500Y422000D02*Y418000D01*
X198500Y422000D02*Y418000D01*
X169000Y422000D02*Y418000D01*
X159000Y422000D02*Y418000D01*
X149000Y422000D02*Y418000D01*
X139000Y422000D02*Y418000D01*
X129000Y422000D02*Y418000D01*
X198500Y420000D02*X238500D01*
X129000D02*X169000D01*
X238500Y432000D02*Y428000D01*
X228500Y432000D02*Y428000D01*
X218500Y432000D02*Y428000D01*
X208500Y432000D02*Y428000D01*
X198500Y432000D02*Y428000D01*
X169000Y432000D02*Y428000D01*
X159000Y432000D02*Y428000D01*
X149000Y432000D02*Y428000D01*
X139000Y432000D02*Y428000D01*
X129000Y432000D02*Y428000D01*
X198500Y430000D02*X238500D01*
X129000D02*X169000D01*
X238500Y442000D02*Y438000D01*
X228500Y442000D02*Y438000D01*
X218500Y442000D02*Y438000D01*
X208500Y442000D02*Y438000D01*
X198500Y442000D02*Y438000D01*
X169000Y442000D02*Y438000D01*
X159000Y442000D02*Y438000D01*
X149000Y442000D02*Y438000D01*
X139000Y442000D02*Y438000D01*
X129000Y442000D02*Y438000D01*
X198500Y440000D02*X238500D01*
X129000D02*X169000D01*
X238500Y452000D02*Y448000D01*
X228500Y452000D02*Y448000D01*
X218500Y452000D02*Y448000D01*
X208500Y452000D02*Y448000D01*
X198500Y452000D02*Y448000D01*
X169000Y452000D02*Y448000D01*
X159000Y452000D02*Y448000D01*
X149000Y452000D02*Y448000D01*
X139000Y452000D02*Y448000D01*
X129000Y452000D02*Y448000D01*
X198500Y450000D02*X238500D01*
X129000D02*X169000D01*
X238500Y462000D02*Y458000D01*
X228500Y462000D02*Y458000D01*
X218500Y462000D02*Y458000D01*
X208500Y462000D02*Y458000D01*
X198500Y462000D02*Y458000D01*
X169000Y462000D02*Y458000D01*
X159000Y462000D02*Y458000D01*
X149000Y462000D02*Y458000D01*
X139000Y462000D02*Y458000D01*
X129000Y462000D02*Y458000D01*
X198500Y460000D02*X238500D01*
X129000D02*X169000D01*
X238500Y472000D02*Y468000D01*
X228500Y472000D02*Y468000D01*
X218500Y472000D02*Y468000D01*
X208500Y472000D02*Y468000D01*
X198500Y472000D02*Y468000D01*
X169000Y472000D02*Y468000D01*
X159000Y472000D02*Y468000D01*
X149000Y472000D02*Y468000D01*
X139000Y472000D02*Y468000D01*
X129000Y472000D02*Y468000D01*
X198500Y470000D02*X238500D01*
X129000D02*X169000D01*
X238500Y482000D02*Y478000D01*
X228500Y482000D02*Y478000D01*
X218500Y482000D02*Y478000D01*
X208500Y482000D02*Y478000D01*
X198500Y482000D02*Y478000D01*
X169000Y482000D02*Y478000D01*
X159000Y482000D02*Y478000D01*
X149000Y482000D02*Y478000D01*
X139000Y482000D02*Y478000D01*
X129000Y482000D02*Y478000D01*
X198500Y480000D02*X238500D01*
X129000D02*X169000D01*
X238500Y492000D02*Y488000D01*
X228500Y492000D02*Y488000D01*
X218500Y492000D02*Y488000D01*
X208500Y492000D02*Y488000D01*
X198500Y492000D02*Y488000D01*
X169000Y492000D02*Y488000D01*
X159000Y492000D02*Y488000D01*
X149000Y492000D02*Y488000D01*
X139000Y492000D02*Y488000D01*
X129000Y492000D02*Y488000D01*
X198500Y490000D02*X238500D01*
X129000D02*X169000D01*
X238500Y502000D02*Y498000D01*
X228500Y502000D02*Y498000D01*
X218500Y502000D02*Y498000D01*
X208500Y502000D02*Y498000D01*
X198500Y502000D02*Y498000D01*
X169000Y502000D02*Y498000D01*
X159000Y502000D02*Y498000D01*
X149000Y502000D02*Y498000D01*
X139000Y502000D02*Y498000D01*
X129000Y502000D02*Y498000D01*
X198500Y500000D02*X238500D01*
X129000D02*X169000D01*
X238500Y512000D02*Y508000D01*
X228500Y512000D02*Y508000D01*
X218500Y512000D02*Y508000D01*
X208500Y512000D02*Y508000D01*
X198500Y512000D02*Y508000D01*
X169000Y512000D02*Y508000D01*
X159000Y512000D02*Y508000D01*
X149000Y512000D02*Y508000D01*
X139000Y512000D02*Y508000D01*
X129000Y512000D02*Y508000D01*
X198500Y510000D02*X238500D01*
X129000D02*X169000D01*
X238500Y522000D02*Y518000D01*
X228500Y522000D02*Y518000D01*
X218500Y522000D02*Y518000D01*
X208500Y522000D02*Y518000D01*
X198500Y522000D02*Y518000D01*
X169000Y522000D02*Y518000D01*
X159000Y522000D02*Y518000D01*
X149000Y522000D02*Y518000D01*
X139000Y522000D02*Y518000D01*
X129000Y522000D02*Y518000D01*
X198500Y520000D02*X238500D01*
X129000D02*X169000D01*
X238500Y532000D02*Y528000D01*
X228500Y532000D02*Y528000D01*
X218500Y532000D02*Y528000D01*
X208500Y532000D02*Y528000D01*
X198500Y532000D02*Y528000D01*
X169000Y532000D02*Y528000D01*
X159000Y532000D02*Y528000D01*
X149000Y532000D02*Y528000D01*
X139000Y532000D02*Y528000D01*
X129000Y532000D02*Y528000D01*
X198500Y530000D02*X238500D01*
X129000D02*X169000D01*
X238500Y542000D02*Y538000D01*
X228500Y542000D02*Y538000D01*
X218500Y542000D02*Y538000D01*
X208500Y542000D02*Y538000D01*
X198500Y542000D02*Y538000D01*
X169000Y542000D02*Y538000D01*
X159000Y542000D02*Y538000D01*
X149000Y542000D02*Y538000D01*
X139000Y542000D02*Y538000D01*
X129000Y542000D02*Y538000D01*
X198500Y540000D02*X238500D01*
X129000D02*X169000D01*
X238500Y552000D02*Y548000D01*
X228500Y552000D02*Y548000D01*
X218500Y552000D02*Y548000D01*
X208500Y552000D02*Y548000D01*
X198500Y552000D02*Y548000D01*
X169000Y552000D02*Y548000D01*
X159000Y552000D02*Y548000D01*
X149000Y552000D02*Y548000D01*
X139000Y552000D02*Y548000D01*
X129000Y552000D02*Y548000D01*
X198500Y550000D02*X238500D01*
X129000D02*X169000D01*
X238500Y562000D02*Y558000D01*
X228500Y562000D02*Y558000D01*
X218500Y562000D02*Y558000D01*
X208500Y562000D02*Y558000D01*
X198500Y562000D02*Y558000D01*
X169000Y562000D02*Y558000D01*
X159000Y562000D02*Y558000D01*
X149000Y562000D02*Y558000D01*
X139000Y562000D02*Y558000D01*
X129000Y562000D02*Y558000D01*
X198500Y560000D02*X238500D01*
X129000D02*X169000D01*
X238500Y572000D02*Y568000D01*
X228500Y572000D02*Y568000D01*
X218500Y572000D02*Y568000D01*
X208500Y572000D02*Y568000D01*
X198500Y572000D02*Y568000D01*
X169000Y572000D02*Y568000D01*
X159000Y572000D02*Y568000D01*
X149000Y572000D02*Y568000D01*
X139000Y572000D02*Y568000D01*
X129000Y572000D02*Y568000D01*
X198500Y570000D02*X238500D01*
X129000D02*X169000D01*
X238500Y582000D02*Y578000D01*
X228500Y582000D02*Y578000D01*
X218500Y582000D02*Y578000D01*
X208500Y582000D02*Y578000D01*
X198500Y582000D02*Y578000D01*
X169000Y582000D02*Y578000D01*
X159000Y582000D02*Y578000D01*
X149000Y582000D02*Y578000D01*
X139000Y582000D02*Y578000D01*
X129000Y582000D02*Y578000D01*
X198500Y580000D02*X238500D01*
X129000D02*X169000D01*
X238500Y592000D02*Y588000D01*
X228500Y592000D02*Y588000D01*
X218500Y592000D02*Y588000D01*
X208500Y592000D02*Y588000D01*
X198500Y592000D02*Y588000D01*
X169000Y592000D02*Y588000D01*
X159000Y592000D02*Y588000D01*
X149000Y592000D02*Y588000D01*
X139000Y592000D02*Y588000D01*
X129000Y592000D02*Y588000D01*
X198500Y590000D02*X238500D01*
X129000D02*X169000D01*
X238500Y602000D02*Y598000D01*
X228500Y602000D02*Y598000D01*
X218500Y602000D02*Y598000D01*
X208500Y602000D02*Y598000D01*
X198500Y602000D02*Y598000D01*
X169000Y602000D02*Y598000D01*
X159000Y602000D02*Y598000D01*
X149000Y602000D02*Y598000D01*
X139000Y602000D02*Y598000D01*
X129000Y602000D02*Y598000D01*
X198500Y600000D02*X238500D01*
X129000D02*X169000D01*
X238500Y612000D02*Y608000D01*
X228500Y612000D02*Y608000D01*
X218500Y612000D02*Y608000D01*
X208500Y612000D02*Y608000D01*
X198500Y612000D02*Y608000D01*
X169000Y612000D02*Y608000D01*
X159000Y612000D02*Y608000D01*
X149000Y612000D02*Y608000D01*
X139000Y612000D02*Y608000D01*
X129000Y612000D02*Y608000D01*
X198500Y610000D02*X238500D01*
X129000D02*X169000D01*
X238500Y622000D02*Y618000D01*
X228500Y622000D02*Y618000D01*
X218500Y622000D02*Y618000D01*
X208500Y622000D02*Y618000D01*
X198500Y622000D02*Y618000D01*
X169000Y622000D02*Y618000D01*
X159000Y622000D02*Y618000D01*
X149000Y622000D02*Y618000D01*
X139000Y622000D02*Y618000D01*
X129000Y622000D02*Y618000D01*
X198500Y620000D02*X238500D01*
X129000D02*X169000D01*
X238500Y632000D02*Y628000D01*
X228500Y632000D02*Y628000D01*
X218500Y632000D02*Y628000D01*
X208500Y632000D02*Y628000D01*
X198500Y632000D02*Y628000D01*
X169000Y632000D02*Y628000D01*
X159000Y632000D02*Y628000D01*
X149000Y632000D02*Y628000D01*
X139000Y632000D02*Y628000D01*
X129000Y632000D02*Y628000D01*
X198500Y630000D02*X238500D01*
X129000D02*X169000D01*
X238500Y642000D02*Y638000D01*
X228500Y642000D02*Y638000D01*
X218500Y642000D02*Y638000D01*
X208500Y642000D02*Y638000D01*
X198500Y642000D02*Y638000D01*
X169000Y642000D02*Y638000D01*
X159000Y642000D02*Y638000D01*
X149000Y642000D02*Y638000D01*
X139000Y642000D02*Y638000D01*
X129000Y642000D02*Y638000D01*
X198500Y640000D02*X238500D01*
X129000D02*X169000D01*
X277500Y20000D02*Y640000D01*
X267500D02*Y20000D01*
Y70000D02*X277500D01*
X267500Y80000D02*X277500D01*
X267500Y60000D02*X277500D01*
X267500Y50000D02*X277500D01*
X267500Y40000D02*X277500D01*
X267500Y130000D02*X277500D01*
X267500Y140000D02*X277500D01*
X267500Y120000D02*X277500D01*
X267500Y110000D02*X277500D01*
X267500Y100000D02*X277500D01*
X267500Y190000D02*X277500D01*
X267500Y200000D02*X277500D01*
X267500Y180000D02*X277500D01*
X267500Y170000D02*X277500D01*
X267500Y160000D02*X277500D01*
X267500Y250000D02*X277500D01*
X267500Y260000D02*X277500D01*
X267500Y240000D02*X277500D01*
X267500Y230000D02*X277500D01*
X267500Y220000D02*X277500D01*
X267500Y310000D02*X277500D01*
X267500Y320000D02*X277500D01*
X267500Y300000D02*X277500D01*
X267500Y290000D02*X277500D01*
X267500Y280000D02*X277500D01*
X267500Y370000D02*X277500D01*
X267500Y380000D02*X277500D01*
X267500Y360000D02*X277500D01*
X267500Y350000D02*X277500D01*
X267500Y340000D02*X277500D01*
X267500Y430000D02*X277500D01*
X267500Y440000D02*X277500D01*
X267500Y420000D02*X277500D01*
X267500Y410000D02*X277500D01*
X267500Y400000D02*X277500D01*
X267500Y490000D02*X277500D01*
X267500Y500000D02*X277500D01*
X267500Y480000D02*X277500D01*
X267500Y470000D02*X277500D01*
X267500Y460000D02*X277500D01*
X267500Y550000D02*X277500D01*
X267500Y560000D02*X277500D01*
X267500Y540000D02*X277500D01*
X267500Y530000D02*X277500D01*
X267500Y520000D02*X277500D01*
X267500Y610000D02*X277500D01*
X267500Y620000D02*X277500D01*
X267500Y600000D02*X277500D01*
X267500Y590000D02*X277500D01*
X267500Y580000D02*X277500D01*
X100000Y20000D02*Y640000D01*
X90000D02*Y20000D01*
Y70000D02*X100000D01*
X90000Y80000D02*X100000D01*
X90000Y60000D02*X100000D01*
X90000Y50000D02*X100000D01*
X90000Y40000D02*X100000D01*
X90000Y130000D02*X100000D01*
X90000Y140000D02*X100000D01*
X90000Y120000D02*X100000D01*
X90000Y110000D02*X100000D01*
X90000Y100000D02*X100000D01*
X90000Y190000D02*X100000D01*
X90000Y200000D02*X100000D01*
X90000Y180000D02*X100000D01*
X90000Y170000D02*X100000D01*
X90000Y160000D02*X100000D01*
X90000Y250000D02*X100000D01*
X90000Y260000D02*X100000D01*
X90000Y240000D02*X100000D01*
X90000Y230000D02*X100000D01*
X90000Y220000D02*X100000D01*
X90000Y310000D02*X100000D01*
X90000Y320000D02*X100000D01*
X90000Y300000D02*X100000D01*
X90000Y290000D02*X100000D01*
X90000Y280000D02*X100000D01*
X90000Y370000D02*X100000D01*
X90000Y380000D02*X100000D01*
X90000Y360000D02*X100000D01*
X90000Y350000D02*X100000D01*
X90000Y340000D02*X100000D01*
X90000Y430000D02*X100000D01*
X90000Y440000D02*X100000D01*
X90000Y420000D02*X100000D01*
X90000Y410000D02*X100000D01*
X90000Y400000D02*X100000D01*
X90000Y490000D02*X100000D01*
X90000Y500000D02*X100000D01*
X90000Y480000D02*X100000D01*
X90000Y470000D02*X100000D01*
X90000Y460000D02*X100000D01*
X90000Y550000D02*X100000D01*
X90000Y560000D02*X100000D01*
X90000Y540000D02*X100000D01*
X90000Y530000D02*X100000D01*
X90000Y520000D02*X100000D01*
X90000Y610000D02*X100000D01*
X90000Y620000D02*X100000D01*
X90000Y600000D02*X100000D01*
X90000Y590000D02*X100000D01*
X90000Y580000D02*X100000D01*
X96000Y631000D02*X98500D01*
X93000Y634000D02*Y631000D01*
X91500Y632500D02*X94500D01*
X273500Y631000D02*X276000D01*
X270500Y634000D02*Y631000D01*
X269000Y632500D02*X272000D01*
X96000Y31000D02*X98500D01*
X93000Y34000D02*Y31000D01*
X91500Y32500D02*X94500D01*
X273500Y31000D02*X276000D01*
X270500Y34000D02*Y31000D01*
X269000Y32500D02*X272000D01*
X90003Y349997D02*Y339997D01*
X17003Y356997D02*X82503D01*
Y267497D01*
X17503Y332497D02*X82503D01*
G54D79*X43286Y284095D02*X44861Y285670D01*
X43286D02*X44861Y284095D01*
G54D78*X270003Y349997D02*Y339997D01*
X280003Y349997D02*Y339997D01*
X287503Y357497D02*Y267497D01*
X260003Y354465D02*Y348466D01*
X181034Y332497D02*X287503D01*
X178503Y329966D02*X181034Y332497D01*
G54D79*X43286Y506064D02*X44861Y507639D01*
X43286D02*X44861Y506064D01*
X345145Y325840D02*X346720Y327414D01*
X345145D02*X346720Y325840D01*
G54D92*X64229Y279509D02*Y278008D01*
X61229Y278759D02*X64229D01*
Y277109D02*Y275609D01*
X62729Y277109D02*X64229D01*
X62729D02*X63103Y276734D01*
Y275984D01*
X62729Y275609D02*X63103Y275984D01*
X61603Y275609D02*X62729D01*
X61229Y275984D02*X61603Y275609D01*
X61229Y276734D02*Y275984D01*
Y276734D02*X61603Y277109D01*
X63854Y273209D02*X64229Y273584D01*
Y274334D02*Y273584D01*
X63854Y274709D02*X64229Y274334D01*
X61603Y274709D02*X63854D01*
X61229Y274334D02*X61603Y274709D01*
X62503Y273209D02*X62879Y273584D01*
Y274709D02*Y273584D01*
X61229Y274334D02*Y273584D01*
X61603Y273209D01*
X62503D01*
X61229Y271934D02*X61603Y272309D01*
X62203D01*
X62729Y271784D01*
Y271334D01*
X62203Y270809D02*X62729Y271334D01*
X61603Y270809D02*X62203D01*
X61229Y271184D02*X61603Y270809D01*
X61229Y271934D02*Y271184D01*
X62729Y271784D02*X63254Y272309D01*
X63854D01*
X64229Y271934D01*
Y271184D01*
X63854Y270809D02*X64229Y271184D01*
X63254Y270809D02*X63854D01*
X62729Y271334D02*X63254Y270809D01*
X61229Y269909D02*X63479D01*
X64229Y269384D01*
Y268559D01*
X63479Y268034D02*X64229Y268559D01*
X61229Y268034D02*X63479D01*
X62729Y269909D02*Y268034D01*
X64348Y286499D02*X64723Y286874D01*
X63223Y286499D02*X64348D01*
X62847Y286874D02*X63223Y286499D01*
X62847Y287624D02*Y286874D01*
Y287624D02*X64723Y289499D01*
X62847D02*X64723D01*
X59698Y286874D02*X61947Y289124D01*
X56923Y286874D02*X57297Y286499D01*
X58423D01*
X58798Y286874D01*
Y289124D02*Y286874D01*
X58423Y289499D02*X58798Y289124D01*
X57297Y289499D02*X58423D01*
X56923Y289124D02*X57297Y289499D01*
X56923Y289124D02*Y288374D01*
X57297Y287999D01*
X58048D01*
X63223Y294156D02*X64723Y296031D01*
X62847D02*X64723D01*
X63223Y297156D02*Y294156D01*
X59698Y294531D02*X61947Y296781D01*
X57297Y297156D02*X58798D01*
X56923Y296781D02*X57297Y297156D01*
X56923Y296781D02*Y295881D01*
X57297Y295506D01*
X58423D01*
Y297156D02*Y294156D01*
X57297D02*X58798D01*
X56923Y294531D02*X57297Y294156D01*
X56923Y295131D02*Y294531D01*
Y295131D02*X57297Y295506D01*
X56023Y296781D02*Y294156D01*
X55648Y297156D02*X56023Y296781D01*
X62830Y304688D02*X63205Y304314D01*
X63955D01*
X64330Y304688D01*
Y306939D02*Y304688D01*
X63955Y307313D02*X64330Y306939D01*
X62830Y306039D02*X63205Y305664D01*
X64330D01*
X63205Y307313D02*X63955D01*
X62830Y306939D02*X63205Y307313D01*
X62830Y306939D02*Y306039D01*
X59680Y304688D02*X61930Y306939D01*
X58780D02*Y304688D01*
X58405Y304314D02*X58780Y304688D01*
X57655Y304314D02*X58405D01*
X57280Y304688D02*X57655Y304314D01*
X57280Y306939D02*Y304688D01*
Y306939D02*X57655Y307313D01*
X58405D01*
X58780Y306939D01*
X63955Y314578D02*X64330Y314203D01*
Y313602D01*
X63805Y313078D02*X64330Y313602D01*
X63355Y313078D02*X63805D01*
X62830Y313602D02*X63355Y313078D01*
X62830Y314203D02*Y313602D01*
Y314203D02*X63205Y314578D01*
X63955D01*
X63805Y313078D02*X64330Y312553D01*
Y311953D01*
X63955Y311578D02*X64330Y311953D01*
X63205Y311578D02*X63955D01*
X62830Y311953D02*X63205Y311578D01*
X62830Y312553D02*Y311953D01*
Y312553D02*X63355Y313078D01*
X59680Y311953D02*X61930Y314203D01*
X57280Y314578D02*X58780D01*
X56905Y314203D02*X57280Y314578D01*
X56905Y314203D02*Y313302D01*
X57280Y312928D01*
X58405D01*
Y314578D02*Y311578D01*
X57280D02*X58780D01*
X56905Y311953D02*X57280Y311578D01*
X56905Y312553D02*Y311953D01*
Y312553D02*X57280Y312928D01*
X55630Y314578D02*Y313453D01*
X55255Y313078D02*X55630Y313453D01*
X54504Y313078D02*X55255D01*
X55630Y313453D02*X56004Y313078D01*
G54D91*X119442Y337037D02*X119923Y336557D01*
X118483Y337037D02*X119442D01*
X118003Y336557D02*X118483Y337037D01*
X118003Y336557D02*Y333677D01*
X118483Y333197D01*
X119442Y335309D02*X119923Y334829D01*
X118003Y335309D02*X119442D01*
X118483Y333197D02*X119442D01*
X119923Y333677D01*
Y334829D02*Y333677D01*
X121075Y337037D02*Y333677D01*
X121555Y333197D01*
X117503Y340102D02*X119442Y342527D01*
X117503Y340102D02*X119928D01*
X119442Y342527D02*Y338647D01*
X121092Y342527D02*Y339132D01*
X121577Y338647D01*
X118003Y347557D02*X118483Y348037D01*
X119923D01*
X120403Y347557D01*
Y346597D01*
X118003Y344197D02*X120403Y346597D01*
X118003Y344197D02*X120403D01*
X121555Y348037D02*Y344677D01*
X122035Y344197D01*
G54D92*X38946Y505396D02*X39546Y505997D01*
X38946Y508397D02*Y505396D01*
X38421Y508397D02*X39546D01*
X35271Y505772D02*X37521Y508022D01*
X34371Y506897D02*Y505396D01*
X33996Y508397D02*X34371Y506897D01*
X33246D02*X33996Y508397D01*
X32496D02*X33246Y506897D01*
X32121D02*X32496Y508397D01*
X32121Y506897D02*Y505396D01*
X29346Y505772D02*X29721Y505396D01*
X30846D01*
X31221Y505772D01*
Y508022D02*Y505772D01*
X30846Y508397D02*X31221Y508022D01*
X29721Y508397D02*X30846D01*
X29346Y508022D02*X29721Y508397D01*
X29346Y508022D02*Y507272D01*
X29721Y506897D01*
X30471D01*
X39112Y513349D02*X39487Y513724D01*
X38362Y513349D02*X39112D01*
X37987Y513724D02*X38362Y513349D01*
X37987Y515974D02*X38362Y516349D01*
X39112D01*
X39487Y515974D01*
X38362Y514699D02*X39112D01*
X37987Y514324D02*Y513724D01*
Y515974D02*Y515074D01*
X38362Y514699D01*
X37987Y514324D02*X38362Y514699D01*
X34837Y513724D02*X37087Y515974D01*
X33937Y514849D02*Y513349D01*
X33562Y516349D02*X33937Y514849D01*
X32812D02*X33562Y516349D01*
X32062D02*X32812Y514849D01*
X31687D02*X32062Y516349D01*
X31687Y514849D02*Y513349D01*
X30787Y515974D02*Y513724D01*
X30412Y513349D02*X30787Y513724D01*
X29662Y513349D02*X30412D01*
X29287Y513724D02*X29662Y513349D01*
X29287Y515974D02*Y513724D01*
Y515974D02*X29662Y516349D01*
X30412D01*
X30787Y515974D01*
X37987Y520613D02*X39487D01*
Y522113D02*Y520613D01*
X39112Y521738D02*X39487Y522113D01*
X38362Y521738D02*X39112D01*
X37987Y522113D02*X38362Y521738D01*
X37987Y523238D02*Y522113D01*
Y523238D02*X38362Y523613D01*
X39112D01*
X39487Y523238D01*
X34837Y520988D02*X37087Y523238D01*
X33937Y522113D02*Y520613D01*
X33562Y523613D02*X33937Y522113D01*
X32812D02*X33562Y523613D01*
X32062D02*X32812Y522113D01*
X31687D02*X32062Y523613D01*
X31687Y522113D02*Y520613D01*
X29287Y523613D02*X30787D01*
X28912Y523238D02*X29287Y523613D01*
X28912Y523238D02*Y522338D01*
X29287Y521963D01*
X30412D01*
Y523613D02*Y520613D01*
X29287D02*X30787D01*
X28912Y520988D02*X29287Y520613D01*
X28912Y521588D02*Y520988D01*
Y521588D02*X29287Y521963D01*
X28012Y523238D02*Y520613D01*
X27636Y523613D02*X28012Y523238D01*
X64229Y501477D02*Y499977D01*
X61229Y500727D02*X64229D01*
Y499077D02*Y497577D01*
X62729Y499077D02*X64229D01*
X62729D02*X63103Y498702D01*
Y497952D01*
X62729Y497577D02*X63103Y497952D01*
X61603Y497577D02*X62729D01*
X61229Y497952D02*X61603Y497577D01*
X61229Y498702D02*Y497952D01*
Y498702D02*X61603Y499077D01*
X63854Y495177D02*X64229Y495552D01*
Y496302D02*Y495552D01*
X63854Y496677D02*X64229Y496302D01*
X61603Y496677D02*X63854D01*
X61229Y496302D02*X61603Y496677D01*
X62503Y495177D02*X62879Y495552D01*
Y496677D02*Y495552D01*
X61229Y496302D02*Y495552D01*
X61603Y495177D01*
X62503D01*
X61229Y493902D02*X61603Y494277D01*
X62203D01*
X62729Y493752D01*
Y493302D01*
X62203Y492777D02*X62729Y493302D01*
X61603Y492777D02*X62203D01*
X61229Y493152D02*X61603Y492777D01*
X61229Y493902D02*Y493152D01*
X62729Y493752D02*X63254Y494277D01*
X63854D01*
X64229Y493902D01*
Y493152D01*
X63854Y492777D02*X64229Y493152D01*
X63254Y492777D02*X63854D01*
X62729Y493302D02*X63254Y492777D01*
X61229Y491877D02*X63479D01*
X64229Y491352D01*
Y490527D01*
X63479Y490001D02*X64229Y490527D01*
X61229Y490001D02*X63479D01*
X62729Y491877D02*Y490001D01*
X64348Y508467D02*X64723Y508842D01*
X63223Y508467D02*X64348D01*
X62847Y508842D02*X63223Y508467D01*
X62847Y509592D02*Y508842D01*
Y509592D02*X64723Y511467D01*
X62847D02*X64723D01*
X59698Y508842D02*X61947Y511092D01*
X56923Y508842D02*X57297Y508467D01*
X58423D01*
X58798Y508842D01*
Y511092D02*Y508842D01*
X58423Y511467D02*X58798Y511092D01*
X57297Y511467D02*X58423D01*
X56923Y511092D02*X57297Y511467D01*
X56923Y511092D02*Y510342D01*
X57297Y509967D01*
X58048D01*
X63223Y516125D02*X64723Y518000D01*
X62847D02*X64723D01*
X63223Y519125D02*Y516125D01*
X59698Y516500D02*X61947Y518750D01*
X57297Y519125D02*X58798D01*
X56923Y518750D02*X57297Y519125D01*
X56923Y518750D02*Y517850D01*
X57297Y517475D01*
X58423D01*
Y519125D02*Y516125D01*
X57297D02*X58798D01*
X56923Y516500D02*X57297Y516125D01*
X56923Y517100D02*Y516500D01*
Y517100D02*X57297Y517475D01*
X56023Y518750D02*Y516125D01*
X55648Y519125D02*X56023Y518750D01*
X62830Y526657D02*X63205Y526282D01*
X63955D01*
X64330Y526657D01*
Y528907D02*Y526657D01*
X63955Y529282D02*X64330Y528907D01*
X62830Y528007D02*X63205Y527632D01*
X64330D01*
X63205Y529282D02*X63955D01*
X62830Y528907D02*X63205Y529282D01*
X62830Y528907D02*Y528007D01*
X59680Y526657D02*X61930Y528907D01*
X58780D02*Y526657D01*
X58405Y526282D02*X58780Y526657D01*
X57655Y526282D02*X58405D01*
X57280Y526657D02*X57655Y526282D01*
X57280Y528907D02*Y526657D01*
Y528907D02*X57655Y529282D01*
X58405D01*
X58780Y528907D01*
X37612Y528664D02*X39112Y531664D01*
X37612Y528664D02*X39487D01*
X34462Y529039D02*X36712Y531289D01*
X33562Y530164D02*Y528664D01*
X33187Y531664D02*X33562Y530164D01*
X32437D02*X33187Y531664D01*
X31687D02*X32437Y530164D01*
X31311D02*X31687Y531664D01*
X31311Y530164D02*Y528664D01*
X28912Y531664D02*X30412D01*
X28537Y531289D02*X28912Y531664D01*
X28537Y531289D02*Y530389D01*
X28912Y530014D01*
X30037D01*
Y531664D02*Y528664D01*
X28912D02*X30412D01*
X28537Y529039D02*X28912Y528664D01*
X28537Y529639D02*Y529039D01*
Y529639D02*X28912Y530014D01*
X27262Y531664D02*Y530539D01*
X26887Y530164D02*X27262Y530539D01*
X26137Y530164D02*X26887D01*
X27262Y530539D02*X27636Y530164D01*
X63955Y536546D02*X64330Y536171D01*
Y535571D01*
X63805Y535046D02*X64330Y535571D01*
X63355Y535046D02*X63805D01*
X62830Y535571D02*X63355Y535046D01*
X62830Y536171D02*Y535571D01*
Y536171D02*X63205Y536546D01*
X63955D01*
X63805Y535046D02*X64330Y534521D01*
Y533921D01*
X63955Y533546D02*X64330Y533921D01*
X63205Y533546D02*X63955D01*
X62830Y533921D02*X63205Y533546D01*
X62830Y534521D02*Y533921D01*
Y534521D02*X63355Y535046D01*
X59680Y533921D02*X61930Y536171D01*
X57280Y536546D02*X58780D01*
X56905Y536171D02*X57280Y536546D01*
X56905Y536171D02*Y535271D01*
X57280Y534896D01*
X58405D01*
Y536546D02*Y533546D01*
X57280D02*X58780D01*
X56905Y533921D02*X57280Y533546D01*
X56905Y534521D02*Y533921D01*
Y534521D02*X57280Y534896D01*
X55630Y536546D02*Y535421D01*
X55255Y535046D02*X55630Y535421D01*
X54504Y535046D02*X55255D01*
X55630Y535421D02*X56004Y535046D01*
X38946Y283428D02*X39546Y284028D01*
X38946Y286428D02*Y283428D01*
X38421Y286428D02*X39546D01*
X35271Y283803D02*X37521Y286053D01*
X34371Y284928D02*Y283428D01*
X33996Y286428D02*X34371Y284928D01*
X33246D02*X33996Y286428D01*
X32496D02*X33246Y284928D01*
X32121D02*X32496Y286428D01*
X32121Y284928D02*Y283428D01*
X29346Y283803D02*X29721Y283428D01*
X30846D01*
X31221Y283803D01*
Y286053D02*Y283803D01*
X30846Y286428D02*X31221Y286053D01*
X29721Y286428D02*X30846D01*
X29346Y286053D02*X29721Y286428D01*
X29346Y286053D02*Y285303D01*
X29721Y284928D01*
X30471D01*
X39112Y291381D02*X39487Y291756D01*
X38362Y291381D02*X39112D01*
X37987Y291756D02*X38362Y291381D01*
X37987Y294006D02*X38362Y294381D01*
X39112D01*
X39487Y294006D01*
X38362Y292731D02*X39112D01*
X37987Y292356D02*Y291756D01*
Y294006D02*Y293106D01*
X38362Y292731D01*
X37987Y292356D02*X38362Y292731D01*
X34837Y291756D02*X37087Y294006D01*
X33937Y292881D02*Y291381D01*
X33562Y294381D02*X33937Y292881D01*
X32812D02*X33562Y294381D01*
X32062D02*X32812Y292881D01*
X31687D02*X32062Y294381D01*
X31687Y292881D02*Y291381D01*
X30787Y294006D02*Y291756D01*
X30412Y291381D02*X30787Y291756D01*
X29662Y291381D02*X30412D01*
X29287Y291756D02*X29662Y291381D01*
X29287Y294006D02*Y291756D01*
Y294006D02*X29662Y294381D01*
X30412D01*
X30787Y294006D01*
X37987Y298645D02*X39487D01*
Y300145D02*Y298645D01*
X39112Y299770D02*X39487Y300145D01*
X38362Y299770D02*X39112D01*
X37987Y300145D02*X38362Y299770D01*
X37987Y301270D02*Y300145D01*
Y301270D02*X38362Y301645D01*
X39112D01*
X39487Y301270D01*
X34837Y299020D02*X37087Y301270D01*
X33937Y300145D02*Y298645D01*
X33562Y301645D02*X33937Y300145D01*
X32812D02*X33562Y301645D01*
X32062D02*X32812Y300145D01*
X31687D02*X32062Y301645D01*
X31687Y300145D02*Y298645D01*
X29287Y301645D02*X30787D01*
X28912Y301270D02*X29287Y301645D01*
X28912Y301270D02*Y300370D01*
X29287Y299995D01*
X30412D01*
Y301645D02*Y298645D01*
X29287D02*X30787D01*
X28912Y299020D02*X29287Y298645D01*
X28912Y299620D02*Y299020D01*
Y299620D02*X29287Y299995D01*
X28012Y301270D02*Y298645D01*
X27636Y301645D02*X28012Y301270D01*
X37612Y306696D02*X39112Y309696D01*
X37612Y306696D02*X39487D01*
X34462Y307071D02*X36712Y309321D01*
X33562Y308196D02*Y306696D01*
X33187Y309696D02*X33562Y308196D01*
X32437D02*X33187Y309696D01*
X31687D02*X32437Y308196D01*
X31311D02*X31687Y309696D01*
X31311Y308196D02*Y306696D01*
X28912Y309696D02*X30412D01*
X28537Y309321D02*X28912Y309696D01*
X28537Y309321D02*Y308421D01*
X28912Y308045D01*
X30037D01*
Y309696D02*Y306696D01*
X28912D02*X30412D01*
X28537Y307071D02*X28912Y306696D01*
X28537Y307671D02*Y307071D01*
Y307671D02*X28912Y308045D01*
X27262Y309696D02*Y308571D01*
X26887Y308196D02*X27262Y308571D01*
X26137Y308196D02*X26887D01*
X27262Y308571D02*X27636Y308196D01*
X325777Y333501D02*Y332001D01*
Y332751D02*X328777D01*
X325777Y335901D02*Y334401D01*
X327277D01*
X326902Y334776D02*X327277Y334401D01*
X326902Y335526D02*Y334776D01*
Y335526D02*X327277Y335901D01*
X328402D01*
X328777Y335526D01*
Y334776D01*
X328402Y334401D02*X328777Y334776D01*
X325777Y337926D02*X326152Y338301D01*
X325777Y337926D02*Y337176D01*
X326152Y336801D01*
X328402D01*
X328777Y337176D01*
X327127Y337926D02*X327502Y338301D01*
X327127Y337926D02*Y336801D01*
X328777Y337926D02*Y337176D01*
X328402Y338301D02*X328777Y337926D01*
X327502Y338301D02*X328402D01*
Y339201D02*X328777Y339576D01*
X327802Y339201D02*X328402D01*
X327277Y339726D02*X327802Y339201D01*
X327277Y340176D02*Y339726D01*
Y340176D02*X327802Y340701D01*
X328402D01*
X328777Y340326D01*
Y339576D01*
X326752Y339201D02*X327277Y339726D01*
X326152Y339201D02*X326752D01*
X325777Y339576D02*X326152Y339201D01*
X325777Y340326D02*Y339576D01*
Y340326D02*X326152Y340701D01*
X326752D01*
X327277Y340176D01*
X326527Y341601D02*X328777D01*
X325777Y342126D02*X326527Y341601D01*
X325777Y342951D02*Y342126D01*
Y342951D02*X326527Y343476D01*
X328777D01*
X327277D02*Y341601D01*
X350460Y327482D02*X351060Y328082D01*
Y325082D01*
X350460D02*X351585D01*
X352485Y325457D02*X354735Y327707D01*
X355635Y328082D02*Y326582D01*
X356010Y325082D01*
X356760Y326582D01*
X357510Y325082D01*
X357885Y326582D01*
Y328082D02*Y326582D01*
X360285Y328082D02*X360660Y327707D01*
X359160Y328082D02*X360285D01*
X358785Y327707D02*X359160Y328082D01*
X358785Y327707D02*Y325457D01*
X359160Y325082D01*
X360285D01*
X360660Y325457D01*
Y326207D02*Y325457D01*
X360285Y326582D02*X360660Y326207D01*
X359535Y326582D02*X360285D01*
X325283Y324636D02*X325658Y325011D01*
X326783D01*
X327158Y324636D01*
Y323886D01*
X325283Y322011D02*X327158Y323886D01*
X325283Y322011D02*X327158D01*
X328058Y322386D02*X330308Y324636D01*
X332708Y325011D02*X333083Y324636D01*
X331583Y325011D02*X332708D01*
X331208Y324636D02*X331583Y325011D01*
X331208Y324636D02*Y322386D01*
X331583Y322011D01*
X332708D01*
X333083Y322386D01*
Y323136D02*Y322386D01*
X332708Y323511D02*X333083Y323136D01*
X331958Y323511D02*X332708D01*
G54D90*X250003Y347466D02*X251002Y343466D01*
X252003Y347466D01*
X253703Y343466D02*X255203D01*
X253203Y343966D02*X253703Y343466D01*
X253203Y344966D02*Y343966D01*
Y344966D02*X253703Y345466D01*
X254703D01*
X255203Y344966D01*
X253203Y344466D02*X255203D01*
Y344966D02*Y344466D01*
X256403Y345466D02*X258403Y343466D01*
X256403D02*X258403Y345466D01*
X260103Y347466D02*Y343966D01*
X260603Y343466D01*
X259603Y345966D02*X260603D01*
X244502Y343466D02*Y340466D01*
Y343466D02*X245003Y343966D01*
X246003D01*
X246503Y343466D01*
Y340466D01*
X246003Y339966D02*X246503Y340466D01*
X245003Y339966D02*X246003D01*
X244502Y340466D02*X245003Y339966D01*
X247703Y343966D02*X249703D01*
X250202Y343466D01*
Y342466D01*
X249703Y341966D02*X250202Y342466D01*
X248203Y341966D02*X249703D01*
X248203Y343966D02*Y339966D01*
X249003Y341966D02*X250202Y339966D01*
X249003Y338966D02*X249503Y338466D01*
X247503Y338966D02*X249003D01*
X247003Y338466D02*X247503Y338966D01*
X247003Y338466D02*Y337466D01*
X247503Y336966D01*
X249003D01*
X249503Y336466D01*
Y335466D01*
X249003Y334966D02*X249503Y335466D01*
X247503Y334966D02*X249003D01*
X247003Y335466D02*X247503Y334966D01*
G54D93*X250703Y337966D02*Y337866D01*
G54D90*Y336466D02*Y334966D01*
X253203Y336966D02*X253703Y336466D01*
X252202Y336966D02*X253203D01*
X251703Y336466D02*X252202Y336966D01*
X251703Y336466D02*Y335466D01*
X252202Y334966D01*
X253203D01*
X253703Y335466D01*
X251703Y333966D02*X252202Y333466D01*
X253203D01*
X253703Y333966D01*
Y336966D02*Y333966D01*
X254903Y337966D02*Y334966D01*
Y337966D02*X255603Y338966D01*
X256703D01*
X257402Y337966D01*
Y334966D01*
X254903Y336966D02*X257402D01*
X258603Y338966D02*Y335466D01*
X259103Y334966D01*
X260603Y338966D02*Y335466D01*
X261103Y334966D01*
X260103Y337466D02*X261103D01*
G54D92*X350519Y319754D02*X350894Y320129D01*
X351644D01*
X352019Y319754D01*
X351644Y317129D02*X352019Y317504D01*
X350894Y317129D02*X351644D01*
X350519Y317504D02*X350894Y317129D01*
Y318779D02*X351644D01*
X352019Y319754D02*Y319154D01*
Y318404D02*Y317504D01*
X351644Y318779D02*X352019Y318404D01*
X351644Y318779D02*X352019Y319154D01*
X352919Y317504D02*X355169Y319754D01*
X356069Y320129D02*Y318629D01*
X356444Y317129D01*
X357194Y318629D01*
X357944Y317129D01*
X358319Y318629D01*
Y320129D02*Y318629D01*
X359219Y319754D02*Y317504D01*
Y319754D02*X359594Y320129D01*
X360344D01*
X360719Y319754D01*
Y317504D01*
X360344Y317129D02*X360719Y317504D01*
X359594Y317129D02*X360344D01*
X359219Y317504D02*X359594Y317129D01*
X325283Y315478D02*X326783Y317353D01*
X325283Y315478D02*X327158D01*
X326783Y317353D02*Y314353D01*
X328058Y314728D02*X330308Y316978D01*
X331208Y314353D02*X332708D01*
X333083Y314728D01*
Y315627D02*Y314728D01*
X332708Y316003D02*X333083Y315627D01*
X331583Y316003D02*X332708D01*
X331583Y317353D02*Y314353D01*
X331208Y317353D02*X332708D01*
X333083Y316978D01*
Y316378D01*
X332708Y316003D02*X333083Y316378D01*
X333983Y317353D02*Y314728D01*
X334358Y314353D01*
X350519Y312865D02*X352019D01*
X350519D02*Y311365D01*
X350894Y311740D01*
X351644D01*
X352019Y311365D01*
Y310240D01*
X351644Y309865D02*X352019Y310240D01*
X350894Y309865D02*X351644D01*
X350519Y310240D02*X350894Y309865D01*
X352919Y310240D02*X355169Y312490D01*
X356069Y312865D02*Y311365D01*
X356444Y309865D01*
X357194Y311365D01*
X357944Y309865D01*
X358319Y311365D01*
Y312865D02*Y311365D01*
X359219Y309865D02*X360719D01*
X361094Y310240D01*
Y311140D02*Y310240D01*
X360719Y311514D02*X361094Y311140D01*
X359594Y311514D02*X360719D01*
X359594Y312865D02*Y309865D01*
X359219Y312865D02*X360719D01*
X361094Y312490D01*
Y311890D01*
X360719Y311514D02*X361094Y311890D01*
X361994Y312865D02*Y310240D01*
X362369Y309865D01*
X350894Y301814D02*X352394Y304814D01*
X350519D02*X352394D01*
X353294Y302189D02*X355544Y304439D01*
X356444Y304814D02*Y303314D01*
X356819Y301814D01*
X357569Y303314D01*
X358319Y301814D01*
X358694Y303314D01*
Y304814D02*Y303314D01*
X359594Y301814D02*X361094D01*
X361469Y302189D01*
Y303088D02*Y302189D01*
X361094Y303464D02*X361469Y303088D01*
X359969Y303464D02*X361094D01*
X359969Y304814D02*Y301814D01*
X359594Y304814D02*X361094D01*
X361469Y304439D01*
Y303839D01*
X361094Y303464D02*X361469Y303839D01*
X362744Y302939D02*Y301814D01*
Y302939D02*X363119Y303314D01*
X363869D01*
X362369D02*X362744Y302939D01*
X326801Y307196D02*X327176Y306821D01*
X326051Y307196D02*X326801D01*
X325676Y306821D02*X326051Y307196D01*
X325676Y306821D02*Y304571D01*
X326051Y304196D01*
X326801Y305846D02*X327176Y305471D01*
X325676Y305846D02*X326801D01*
X326051Y304196D02*X326801D01*
X327176Y304571D01*
Y305471D02*Y304571D01*
X328076D02*X330326Y306821D01*
X331226D02*Y304571D01*
Y306821D02*X331601Y307196D01*
X332351D01*
X332726Y306821D01*
Y304571D01*
X332351Y304196D02*X332726Y304571D01*
X331601Y304196D02*X332351D01*
X331226Y304571D02*X331601Y304196D01*
X325676Y297307D02*X326051Y296932D01*
X325676Y297907D02*Y297307D01*
Y297907D02*X326201Y298432D01*
X326651D01*
X327176Y297907D01*
Y297307D01*
X326801Y296932D02*X327176Y297307D01*
X326051Y296932D02*X326801D01*
X325676Y298957D02*X326201Y298432D01*
X325676Y299557D02*Y298957D01*
Y299557D02*X326051Y299932D01*
X326801D01*
X327176Y299557D01*
Y298957D01*
X326651Y298432D02*X327176Y298957D01*
X328076Y297307D02*X330326Y299557D01*
X331226Y296932D02*X332726D01*
X333101Y297307D01*
Y298207D02*Y297307D01*
X332726Y298582D02*X333101Y298207D01*
X331601Y298582D02*X332726D01*
X331601Y299932D02*Y296932D01*
X331226Y299932D02*X332726D01*
X333101Y299557D01*
Y298957D01*
X332726Y298582D02*X333101Y298957D01*
X334376Y298057D02*Y296932D01*
Y298057D02*X334751Y298432D01*
X335501D01*
X334001D02*X334376Y298057D01*
G54D79*X320023Y289269D02*Y288481D01*
Y291434D02*Y290647D01*
X318842D02*X321204D01*
X319038Y289269D02*X321007D01*
X320023Y290253D02*X321007Y289269D01*
X319038D02*X320023Y290253D01*
X318964Y334564D02*X319948Y335548D01*
X320932Y334564D01*
X318964D02*X320932D01*
X318767Y335942D02*X321129D01*
X319948Y336729D02*Y335942D01*
Y334564D02*Y333777D01*
G54D78*X338960Y326473D02*X346046D01*
X338960Y298521D02*X346046D01*
G54D79*Y333954D02*Y290843D01*
X338960Y333954D02*Y290843D01*
X342503Y313284D02*Y311709D01*
X341716Y312497D02*X343290D01*
X370062Y280607D02*X372031D01*
Y282576D02*Y280607D01*
X370062Y344387D02*X372031D01*
Y342418D01*
X312975Y280607D02*X314944D01*
X312975Y282576D02*Y280607D01*
Y344387D02*X314944D01*
X312975D02*Y342418D01*
X347621Y329623D02*X348605Y330607D01*
X347621D02*X348605Y329623D01*
G54D78*X292503Y354997D02*X372503D01*
X292503D02*Y344997D01*
X372503D01*
Y354997D02*Y344997D01*
X362503Y354997D02*Y344997D01*
X372503D01*
X292503Y279997D02*X372503D01*
X292503D02*Y269997D01*
X372503D01*
Y279997D02*Y269997D01*
X362503Y279997D02*Y269997D01*
X372503D01*
X316503Y416497D02*X371503D01*
Y358497D01*
X316503D02*X371503D01*
X316503Y416497D02*Y358497D01*
X202503Y279997D02*X282503D01*
X202503D02*Y269997D01*
X282503D01*
Y279997D02*Y269997D01*
X272503Y279997D02*Y269997D01*
X282503D01*
G54D79*X69983Y544997D02*Y544210D01*
Y542832D02*Y542044D01*
X68802Y542832D02*X71164D01*
X68999Y544210D02*X70968D01*
X68999D02*X69983Y543225D01*
X70968Y544210D01*
X70058Y497930D02*X71042Y498914D01*
X69074D02*X70058Y497930D01*
X69074Y498914D02*X71042D01*
X68877Y497536D02*X71239D01*
X70058D02*Y496749D01*
Y499702D02*Y498914D01*
G54D78*X43960Y507005D02*X51046D01*
X43960Y534958D02*X51046D01*
G54D79*X43960Y542635D02*Y499525D01*
X51046Y542635D02*Y499525D01*
X47503Y521769D02*Y520194D01*
X46716Y520981D02*X48290D01*
X17975Y552871D02*X19944D01*
X17975D02*Y550903D01*
Y489091D02*X19944D01*
X17975Y491059D02*Y489091D01*
X75062Y552871D02*X77031D01*
Y550903D01*
X75062Y489091D02*X77031D01*
Y491059D02*Y489091D01*
X41401Y502871D02*X42385Y503855D01*
X41401D02*X42385Y502871D01*
G54D78*X17227Y486745D02*Y454854D01*
X79038D01*
Y486745D02*Y454854D01*
X17227Y486745D02*X79038D01*
X72346D02*X79038Y480052D01*
X72346Y454854D02*X79038Y461548D01*
X34157Y486745D02*Y454854D01*
X62503Y486745D02*Y454854D01*
X17227Y470997D02*X79038D01*
X17227Y454745D02*Y422855D01*
X79038D01*
Y454745D02*Y422855D01*
X17227Y454745D02*X79038D01*
X72346D02*X79038Y448052D01*
X72346Y422855D02*X79038Y429548D01*
X34157Y454745D02*Y422855D01*
X62503Y454745D02*Y422855D01*
X17227Y438997D02*X79038D01*
X85003Y354997D02*Y334997D01*
X105003D01*
Y354997D02*Y334997D01*
X85003Y354997D02*X105003D01*
X85003Y344997D02*X95003D01*
Y354997D02*Y344997D01*
X17227Y390745D02*Y358855D01*
X79038D01*
Y390745D02*Y358855D01*
X17227Y390745D02*X79038D01*
X72346D02*X79038Y384052D01*
X72346Y358855D02*X79038Y365548D01*
X34157Y390745D02*Y358855D01*
X62503Y390745D02*Y358855D01*
X17227Y374997D02*X79038D01*
X17227Y422745D02*Y390855D01*
X79038D01*
Y422745D02*Y390855D01*
X17227Y422745D02*X79038D01*
X72346D02*X79038Y416052D01*
X72346Y390855D02*X79038Y397548D01*
X34157Y422745D02*Y390855D01*
X62503Y422745D02*Y390855D01*
X17227Y406997D02*X79038D01*
X20003Y344997D02*X80003D01*
Y354997D02*Y344997D01*
X20003Y354997D02*X80003D01*
X20003D02*Y344997D01*
X30003Y354997D02*Y344997D01*
X20003Y354997D02*X30003D01*
G54D79*X70027Y323036D02*Y322249D01*
Y320871D02*Y320084D01*
X68846Y320871D02*X71208D01*
X69042Y322249D02*X71011D01*
X69042D02*X70027Y321265D01*
X71011Y322249D01*
X70101Y275969D02*X71086Y276953D01*
X69117D02*X70101Y275969D01*
X69117Y276953D02*X71086D01*
X68920Y275576D02*X71283D01*
X70101D02*Y274788D01*
Y277741D02*Y276953D01*
G54D78*X44003Y285044D02*X51090D01*
X44003Y312997D02*X51090D01*
G54D79*X44003Y320674D02*Y277564D01*
X51090Y320674D02*Y277564D01*
X47546Y299808D02*Y298233D01*
X46759Y299021D02*X48334D01*
X18019Y330910D02*X19987D01*
X18019D02*Y328942D01*
Y267131D02*X19987D01*
X18019Y269099D02*Y267131D01*
X75105Y330910D02*X77074D01*
Y328942D01*
X75105Y267131D02*X77074D01*
Y269099D02*Y267131D01*
X41444Y280910D02*X42428Y281895D01*
X41444D02*X42428Y280910D01*
G54D78*X183503Y329997D02*Y269997D01*
X193503D01*
Y329997D02*Y269997D01*
X183503Y329997D02*X193503D01*
X183503Y319997D02*X193503D01*
Y329997D02*Y319997D01*
X316503Y476497D02*X371503D01*
Y418497D01*
X316503D02*X371503D01*
X316503Y476497D02*Y418497D01*
Y536497D02*X371503D01*
Y478497D01*
X316503D02*X371503D01*
X316503Y536497D02*Y478497D01*
X124003Y334997D02*X174003D01*
Y354997D02*Y334997D01*
X124003Y354997D02*X174003D01*
X124003D02*Y334997D01*
X134003Y344997D02*Y334997D01*
X124003Y344997D02*X134003D01*
X193503Y334997D02*X243503D01*
Y354997D02*Y334997D01*
X193503Y354997D02*X243503D01*
X193503D02*Y334997D01*
X203503Y344997D02*Y334997D01*
X193503Y344997D02*X203503D01*
X202503Y329997D02*X282503D01*
X202503D02*Y319997D01*
X282503D01*
Y329997D02*Y319997D01*
X272503Y329997D02*Y319997D01*
X282503D01*
X262503Y354997D02*Y334997D01*
X282503D01*
Y354997D02*Y334997D01*
X262503Y354997D02*X282503D01*
X262503Y344997D02*X272503D01*
Y354997D02*Y344997D01*
G54D90*X294003Y303997D02*X298003Y301497D01*
X294003D02*X298003Y303997D01*
X294003Y305697D02*X294503Y305197D01*
X294003Y307196D02*Y305697D01*
Y307196D02*X294503Y307696D01*
X295503D01*
X298003Y305197D01*
Y307696D02*Y305197D01*
X294503Y311897D02*X297503Y308897D01*
X294003Y315097D02*X294503Y315597D01*
X294003Y315097D02*Y313597D01*
X294503Y313097D01*
X295503D01*
X296003Y313597D01*
Y315097D02*Y313597D01*
Y315097D02*X296503Y315597D01*
X297503D01*
X298003Y315097D01*
Y313597D01*
X297503Y313097D02*X298003Y313597D01*
X294003Y318797D02*Y316797D01*
Y317797D02*X298003D01*
X295803Y321497D02*Y319997D01*
X298003Y321997D02*Y319997D01*
X294003D02*X298003D01*
X294003Y321997D02*Y319997D01*
Y323697D02*X298003D01*
X294003Y325197D02*Y323197D01*
Y325197D02*X294503Y325697D01*
X295503D01*
X296003Y325197D01*
Y323697D01*
X265503Y313997D02*X268003Y317997D01*
X265503D02*X268003Y313997D01*
X263803D02*X264303Y314497D01*
X262303Y313997D02*X263803D01*
X261803Y314497D02*X262303Y313997D01*
X261803Y315497D02*Y314497D01*
Y315497D02*X264303Y317997D01*
X261803D02*X264303D01*
X257603Y314497D02*X260603Y317497D01*
X255903Y317997D02*Y313997D01*
X254403D02*X256403D01*
X253903Y314497D02*X254403Y313997D01*
X253903Y315497D02*Y314497D01*
Y315497D02*X254403Y315997D01*
X255903D01*
X252703Y317497D02*Y314497D01*
X252202Y313997D02*X252703Y314497D01*
X251203Y313997D02*X252202D01*
X250703Y314497D02*X251203Y313997D01*
X250703Y317497D02*Y314497D01*
Y317497D02*X251203Y317997D01*
X252202D01*
X252703Y317497D01*
X249503Y317997D02*Y313997D01*
X247503Y317997D02*X249503D01*
X245503Y313997D02*X246303Y314797D01*
X245503Y317997D02*Y313997D01*
X244803Y317997D02*X246303D01*
X311003Y415497D02*X315003Y412997D01*
X311003D02*X315003Y415497D01*
X314503Y411797D02*X315003Y411297D01*
Y410297D01*
X314503Y409797D02*X315003Y410297D01*
X311003D02*X311503Y409797D01*
X311003Y411297D02*Y410297D01*
Y411297D02*X311503Y411797D01*
X313203Y411297D02*Y410297D01*
X313703Y409797D02*X314503D01*
X311503D02*X312703D01*
X313203Y410297D01*
X313703Y409797D01*
X311503Y408597D02*X314503Y405597D01*
X311003Y404397D02*X314003D01*
X315003Y403697D01*
Y402597D01*
X314003Y401897D02*X315003Y402597D01*
X311003Y401897D02*X314003D01*
X313003Y404397D02*Y401897D01*
X315003Y400697D02*Y399697D01*
X311003Y400197D02*X315003D01*
X311003Y400697D02*Y399697D01*
X311503Y398497D02*X314503D01*
X315003Y397997D01*
Y396997D01*
X314503Y396497D02*X315003Y396997D01*
X311503Y396497D02*X314503D01*
X311003Y396997D02*X311503Y396497D01*
X311003Y397997D02*Y396997D01*
Y397997D02*X311503Y398497D01*
X314203Y395297D02*X315003Y394497D01*
X311003D02*X315003D01*
X311003Y395297D02*Y393797D01*
X310503Y474497D02*X314503Y471997D01*
X310503D02*X314503Y474497D01*
X314003Y470797D02*X314503Y470296D01*
Y469297D01*
X314003Y468797D02*X314503Y469297D01*
X310503D02*X311003Y468797D01*
X310503Y470296D02*Y469297D01*
Y470296D02*X311003Y470797D01*
X312703Y470296D02*Y469297D01*
X313203Y468797D02*X314003D01*
X311003D02*X312203D01*
X312703Y469297D01*
X313203Y468797D01*
X311003Y467597D02*X314003Y464597D01*
X310503Y463397D02*X313503D01*
X314503Y462696D01*
Y461597D01*
X313503Y460897D02*X314503Y461597D01*
X310503Y460897D02*X313503D01*
X312503Y463397D02*Y460897D01*
X314503Y459697D02*Y458697D01*
X310503Y459197D02*X314503D01*
X310503Y459697D02*Y458697D01*
X311003Y457497D02*X314003D01*
X314503Y456996D01*
Y455997D01*
X314003Y455497D02*X314503Y455997D01*
X311003Y455497D02*X314003D01*
X310503Y455997D02*X311003Y455497D01*
X310503Y456996D02*Y455997D01*
Y456996D02*X311003Y457497D01*
X314003Y454297D02*X314503Y453796D01*
Y452297D01*
X314003Y451796D02*X314503Y452297D01*
X313003Y451796D02*X314003D01*
X310503Y454297D02*X313003Y451796D01*
X310503Y454297D02*Y451796D01*
Y534497D02*X314503Y531997D01*
X310503D02*X314503Y534497D01*
X314003Y530797D02*X314503Y530297D01*
Y529297D01*
X314003Y528797D02*X314503Y529297D01*
X310503D02*X311003Y528797D01*
X310503Y530297D02*Y529297D01*
Y530297D02*X311003Y530797D01*
X312703Y530297D02*Y529297D01*
X313203Y528797D02*X314003D01*
X311003D02*X312203D01*
X312703Y529297D01*
X313203Y528797D01*
X311003Y527597D02*X314003Y524597D01*
X310503Y523397D02*X313503D01*
X314503Y522697D01*
Y521597D01*
X313503Y520897D02*X314503Y521597D01*
X310503Y520897D02*X313503D01*
X312503Y523397D02*Y520897D01*
X314503Y519697D02*Y518697D01*
X310503Y519197D02*X314503D01*
X310503Y519697D02*Y518697D01*
X311003Y517497D02*X314003D01*
X314503Y516997D01*
Y515997D01*
X314003Y515497D02*X314503Y515997D01*
X311003Y515497D02*X314003D01*
X310503Y515997D02*X311003Y515497D01*
X310503Y516997D02*Y515997D01*
Y516997D02*X311003Y517497D01*
X314003Y514297D02*X314503Y513797D01*
Y512797D01*
X314003Y512297D02*X314503Y512797D01*
X310503D02*X311003Y512297D01*
X310503Y513797D02*Y512797D01*
Y513797D02*X311003Y514297D01*
X312703Y513797D02*Y512797D01*
X313203Y512297D02*X314003D01*
X311003D02*X312203D01*
X312703Y512797D01*
X313203Y512297D01*
X314003Y333497D02*X316503Y337497D01*
X314003D02*X316503Y333497D01*
X312303D02*X312803Y333997D01*
X310803Y333497D02*X312303D01*
X310303Y333997D02*X310803Y333497D01*
X310303Y334997D02*Y333997D01*
Y334997D02*X312803Y337497D01*
X310303D02*X312803D01*
X306103Y333997D02*X309103Y336997D01*
X304903Y337497D02*Y333497D01*
X303403Y335497D02*X304903Y333497D01*
X301903D02*X303403Y335497D01*
X301903Y337497D02*Y333497D01*
X300703Y336997D02*Y333997D01*
X300203Y333497D02*X300703Y333997D01*
X299203Y333497D02*X300203D01*
X298703Y333997D02*X299203Y333497D01*
X298703Y336997D02*Y333997D01*
Y336997D02*X299203Y337497D01*
X300203D01*
X300703Y336997D01*
X296503Y337497D02*X297503Y333497D01*
X295503D02*X296503Y337497D01*
X265503Y281497D02*X268003Y285497D01*
X265503D02*X268003Y281497D01*
X263803D02*X264303Y281997D01*
X262303Y281497D02*X263803D01*
X261803Y281997D02*X262303Y281497D01*
X261803Y282997D02*Y281997D01*
Y282997D02*X264303Y285497D01*
X261803D02*X264303D01*
X257603Y281997D02*X260603Y284997D01*
X255903Y285497D02*Y281497D01*
X254403D02*X256403D01*
X253903Y281997D02*X254403Y281497D01*
X253903Y282997D02*Y281997D01*
Y282997D02*X254403Y283497D01*
X255903D01*
X252703Y284997D02*Y281997D01*
X252202Y281497D02*X252703Y281997D01*
X251203Y281497D02*X252202D01*
X250703Y281997D02*X251203Y281497D01*
X250703Y284997D02*Y281997D01*
Y284997D02*X251203Y285497D01*
X252202D01*
X252703Y284997D01*
X249503Y285497D02*Y281497D01*
X247503Y285497D02*X249503D01*
X245803Y281497D02*X246303Y281997D01*
X244303Y281497D02*X245803D01*
X243803Y281997D02*X244303Y281497D01*
X243803Y282997D02*Y281997D01*
Y282997D02*X246303Y285497D01*
X243803D02*X246303D01*
X309003Y281997D02*X311503Y285997D01*
X309003D02*X311503Y281997D01*
X307303D02*X307803Y282497D01*
X305803Y281997D02*X307303D01*
X305303Y282497D02*X305803Y281997D01*
X305303Y283497D02*Y282497D01*
Y283497D02*X307803Y285997D01*
X305303D02*X307803D01*
X301103Y282497D02*X304103Y285497D01*
X298403Y283797D02*X299903D01*
X297903Y285997D02*X299903D01*
Y281997D01*
X297903D02*X299903D01*
X294203D02*X296703Y285997D01*
X294203D02*X296703Y281997D01*
X78503Y529481D02*X82503Y526981D01*
X78503D02*X82503Y529481D01*
X81703Y525781D02*X82503Y524981D01*
X78503D02*X82503D01*
X78503Y525781D02*Y524281D01*
X79003Y523081D02*X82003Y520081D01*
X78503Y518381D02*X82503D01*
Y518881D02*Y516881D01*
X82003Y516381D02*X82503Y516881D01*
X81003Y516381D02*X82003D01*
X80503Y516881D02*X81003Y516381D01*
X80503Y518381D02*Y516881D01*
X82003Y512681D02*X82503Y513181D01*
Y514681D02*Y513181D01*
X82003Y515181D02*X82503Y514681D01*
X81003Y515181D02*X82003D01*
X80503Y514681D02*X81003Y515181D01*
X80503Y514681D02*Y513181D01*
X80003Y512681D02*X80503Y513181D01*
X79003Y512681D02*X80003D01*
X78503Y513181D02*X79003Y512681D01*
X78503Y514681D02*Y513181D01*
Y514681D02*X79003Y515181D01*
Y511481D02*X82503D01*
X78503Y510981D02*X79003Y511481D01*
X78503Y510981D02*Y509981D01*
X79003Y509481D01*
X82503D01*
X40003Y455497D02*X42503Y459497D01*
X40003D02*X42503Y455497D01*
X43703Y458697D02*X44503Y459497D01*
Y455497D01*
X43703D02*X45203D01*
X46403Y455997D02*X49403Y458997D01*
X50603Y459497D02*X51603Y455497D01*
X52603Y459497D01*
X54303Y455497D02*X55803D01*
X56302Y455997D01*
X55803Y456497D02*X56302Y455997D01*
X54303Y456497D02*X55803D01*
X53803Y456996D02*X54303Y456497D01*
X53803Y456996D02*X54303Y457497D01*
X55803D01*
X56302Y456996D01*
X53803Y455997D02*X54303Y455497D01*
X57502Y457497D02*Y455997D01*
X58002Y455497D01*
X59503Y457497D02*Y454497D01*
X59003Y453997D02*X59503Y454497D01*
X58002Y453997D02*X59003D01*
X57502Y454497D02*X58002Y453997D01*
Y455497D02*X59003D01*
X59503Y455997D01*
X61203Y455497D02*X62703D01*
X63203Y455997D01*
X62703Y456497D02*X63203Y455997D01*
X61203Y456497D02*X62703D01*
X60703Y456996D02*X61203Y456497D01*
X60703Y456996D02*X61203Y457497D01*
X62703D01*
X63203Y456996D01*
X60703Y455997D02*X61203Y455497D01*
X64403Y456996D02*X66403Y459497D01*
X64403Y456996D02*X66903D01*
X66403Y459497D02*Y455497D01*
X40003Y423497D02*X42503Y427497D01*
X40003D02*X42503Y423497D01*
X43703Y426697D02*X44503Y427497D01*
Y423497D01*
X43703D02*X45203D01*
X46403Y423997D02*X49403Y426997D01*
X50603Y427497D02*X51603Y423497D01*
X52603Y427497D01*
X54303Y423497D02*X55803D01*
X56302Y423997D01*
X55803Y424497D02*X56302Y423997D01*
X54303Y424497D02*X55803D01*
X53803Y424997D02*X54303Y424497D01*
X53803Y424997D02*X54303Y425497D01*
X55803D01*
X56302Y424997D01*
X53803Y423997D02*X54303Y423497D01*
X57502Y425497D02*Y423997D01*
X58002Y423497D01*
X59503Y425497D02*Y422497D01*
X59003Y421997D02*X59503Y422497D01*
X58002Y421997D02*X59003D01*
X57502Y422497D02*X58002Y421997D01*
Y423497D02*X59003D01*
X59503Y423997D01*
X61203Y423497D02*X62703D01*
X63203Y423997D01*
X62703Y424497D02*X63203Y423997D01*
X61203Y424497D02*X62703D01*
X60703Y424997D02*X61203Y424497D01*
X60703Y424997D02*X61203Y425497D01*
X62703D01*
X63203Y424997D01*
X60703Y423997D02*X61203Y423497D01*
X64403Y426997D02*X64903Y427497D01*
X65903D01*
X66403Y426997D01*
X65903Y423497D02*X66403Y423997D01*
X64903Y423497D02*X65903D01*
X64403Y423997D02*X64903Y423497D01*
Y425697D02*X65903D01*
X66403Y426997D02*Y426197D01*
Y425197D02*Y423997D01*
X65903Y425697D02*X66403Y425197D01*
X65903Y425697D02*X66403Y426197D01*
X40503Y391497D02*X43003Y395497D01*
X40503D02*X43003Y391497D01*
X44203Y394697D02*X45003Y395497D01*
Y391497D01*
X44203D02*X45703D01*
X46903Y391997D02*X49903Y394997D01*
X51103Y395497D02*X52103Y391497D01*
X53103Y395497D01*
X54803Y391497D02*X56302D01*
X56802Y391997D01*
X56302Y392497D02*X56802Y391997D01*
X54803Y392497D02*X56302D01*
X54303Y392997D02*X54803Y392497D01*
X54303Y392997D02*X54803Y393497D01*
X56302D01*
X56802Y392997D01*
X54303Y391997D02*X54803Y391497D01*
X58002Y393497D02*Y391997D01*
X58503Y391497D01*
X60003Y393497D02*Y390497D01*
X59503Y389997D02*X60003Y390497D01*
X58503Y389997D02*X59503D01*
X58002Y390497D02*X58503Y389997D01*
Y391497D02*X59503D01*
X60003Y391997D01*
X61703Y391497D02*X63203D01*
X63703Y391997D01*
X63203Y392497D02*X63703Y391997D01*
X61703Y392497D02*X63203D01*
X61203Y392997D02*X61703Y392497D01*
X61203Y392997D02*X61703Y393497D01*
X63203D01*
X63703Y392997D01*
X61203Y391997D02*X61703Y391497D01*
X64903Y394997D02*X65403Y395497D01*
X66903D01*
X67403Y394997D01*
Y393997D01*
X64903Y391497D02*X67403Y393997D01*
X64903Y391497D02*X67403D01*
X19546Y309521D02*X23546Y307021D01*
X19546D02*X23546Y309521D01*
X22746Y305820D02*X23546Y305020D01*
X19546D02*X23546D01*
X19546Y305820D02*Y304320D01*
X20046Y303121D02*X23046Y300121D01*
X19546Y298921D02*X23546Y296421D01*
X19546D02*X23546Y298921D01*
X22746Y295221D02*X23546Y294421D01*
X19546D02*X23546D01*
X19546Y295221D02*Y293721D01*
X20046Y292521D02*X23046Y289521D01*
Y285821D02*X23546Y286321D01*
Y287821D02*Y286321D01*
X23046Y288321D02*X23546Y287821D01*
X20046Y288321D02*X23046D01*
X19546Y287821D02*X20046Y288321D01*
X19546Y287821D02*Y286321D01*
X20046Y285821D01*
X21046D01*
X21546Y286321D01*
Y287321D02*Y286321D01*
X21746Y284621D02*Y283121D01*
X19546Y284621D02*Y282620D01*
Y284621D02*X23546D01*
Y282620D01*
X19546Y281421D02*X23546D01*
X19546Y278921D02*X23546Y281421D01*
X19546Y278921D02*X23546D01*
X40003Y359497D02*X42503Y363497D01*
X40003D02*X42503Y359497D01*
X43703Y362697D02*X44503Y363497D01*
Y359497D01*
X43703D02*X45203D01*
X46403Y359997D02*X49403Y362996D01*
X50603Y363497D02*X51603Y359497D01*
X52603Y363497D01*
X54303Y359497D02*X55803D01*
X56302Y359997D01*
X55803Y360497D02*X56302Y359997D01*
X54303Y360497D02*X55803D01*
X53803Y360997D02*X54303Y360497D01*
X53803Y360997D02*X54303Y361497D01*
X55803D01*
X56302Y360997D01*
X53803Y359997D02*X54303Y359497D01*
X57502Y361497D02*Y359997D01*
X58002Y359497D01*
X59503Y361497D02*Y358497D01*
X59003Y357997D02*X59503Y358497D01*
X58002Y357997D02*X59003D01*
X57502Y358497D02*X58002Y357997D01*
Y359497D02*X59003D01*
X59503Y359997D01*
X61203Y359497D02*X62703D01*
X63203Y359997D01*
X62703Y360497D02*X63203Y359997D01*
X61203Y360497D02*X62703D01*
X60703Y360997D02*X61203Y360497D01*
X60703Y360997D02*X61203Y361497D01*
X62703D01*
X63203Y360997D01*
X60703Y359997D02*X61203Y359497D01*
X64403Y362697D02*X65203Y363497D01*
Y359497D01*
X64403D02*X65903D01*
G54D78*X287503Y553997D02*Y356997D01*
Y553997D02*X374003D01*
Y264997D01*
X178503Y329997D02*Y264997D01*
X84503Y329997D02*X178503D01*
X84503D02*Y264997D01*
X178503D02*X374003D01*
X84503Y356997D02*X287503D01*
X16003Y553997D02*X84503D01*
Y356997D01*
X16003Y553997D02*Y264997D01*
X84503D01*
G54D94*X322503Y387497D03*
Y397497D03*
G54D95*X342503Y407497D03*
Y367497D03*
G54D94*X322503Y447497D03*
Y457497D03*
G54D95*X342503Y467496D03*
Y527497D03*
Y487497D03*
Y427497D03*
G54D94*X322503Y507496D03*
Y517497D03*
G54D87*X69983Y538501D03*
Y548540D03*
X70027Y316540D03*
Y326580D03*
G54D89*X34042Y324217D03*
G54D88*X47546Y273036D03*
G54D87*X70027Y271462D03*
Y281501D03*
X44003Y301028D03*
X51090Y297013D03*
Y305044D03*
X44003Y309060D03*
X51090Y313075D03*
X44003Y292997D03*
Y284966D03*
X51090Y288981D03*
G54D89*X34042Y273824D03*
G54D88*X47546Y325005D03*
X47503Y494997D03*
G54D87*X69983Y493422D03*
Y503462D03*
G54D88*X47503Y546966D03*
G54D89*X33999Y546178D03*
Y495784D03*
G54D87*X43960Y522989D03*
Y531021D03*
Y514958D03*
Y506926D03*
X51046Y518973D03*
Y527005D03*
Y535036D03*
Y510941D03*
G54D89*X356007Y337694D03*
G54D88*X342503Y338481D03*
G54D87*X346046Y310489D03*
Y318521D03*
Y326552D03*
X320023Y294977D03*
Y284938D03*
G54D89*X356007Y287300D03*
G54D88*X342503Y286513D03*
G54D87*X346046Y302458D03*
X338960Y314505D03*
Y322536D03*
X320023Y340056D03*
Y330017D03*
X338960Y306473D03*
Y298442D03*
G54D86*X110503Y335997D03*
X115002D03*
Y339497D03*
X110503D03*
Y342997D03*
X115002D03*
G54D85*X322503Y507497D03*
X43963Y531017D03*
Y522987D03*
Y514957D03*
Y506927D03*
X44003Y309057D03*
Y301027D03*
Y284967D03*
X51043Y535037D03*
Y527007D03*
Y518977D03*
Y510937D03*
X51093Y313077D03*
Y305047D03*
Y297017D03*
Y288977D03*
X69983Y548537D03*
Y538497D03*
Y503457D03*
Y493427D03*
X70023Y326577D03*
Y316537D03*
Y281497D03*
Y271457D03*
X320023Y340057D03*
Y284937D03*
X338963Y322537D03*
Y314507D03*
Y306477D03*
Y298437D03*
X346043Y326557D03*
Y318517D03*
Y310487D03*
Y302456D03*
G54D84*X34003Y546177D03*
Y495787D03*
X34043Y324217D03*
Y273827D03*
X356003Y337697D03*
Y287297D03*
G54D83*X47503Y546967D03*
X47543Y325007D03*
Y273037D03*
X342503Y338477D03*
Y286517D03*
G54D78*X90000Y300000D02*X100000D01*
X120000D02*X130000D01*
X100000Y303300D02*X120000D01*
Y296700D01*
X100000D02*X120000D01*
X100000Y303300D02*Y296700D01*
X90000Y307700D02*Y303700D01*
X88000Y305700D02*X92000D01*
X128000D02*X132000D01*
X164000Y325000D02*Y265000D01*
X174000D01*
Y325000D01*
X164000D01*
Y315000D02*X174000D01*
Y325000D01*
X140000Y290000D02*X160000D01*
X100000D02*X120000D01*
X140000D02*X120000Y280000D01*
Y300000D02*Y280000D01*
Y300000D02*X140000Y290000D01*
Y300000D02*Y280000D01*
X90000Y290000D02*X110000D01*
X130000D02*X150000D01*
X110000D02*X130000Y300000D01*
Y280000D01*
X110000Y290000D01*
Y300000D02*Y280000D01*
X130000Y300000D02*X140000D01*
X100000D02*X110000D01*
Y296700D02*X130000D01*
X110000Y303300D02*Y296700D01*
Y303300D02*X130000D01*
Y296700D01*
X140000Y296300D02*Y292300D01*
X138000Y294300D02*X142000D01*
X98000D02*X102000D01*
G54D90*X21503Y220997D02*Y216997D01*
Y220997D02*X23003Y218997D01*
X24503Y220997D01*
Y216997D01*
X25703Y220497D02*X26203Y220997D01*
X27703D01*
X28203Y220497D01*
Y219497D01*
X25703Y216997D02*X28203Y219497D01*
X25703Y216997D02*X28203D01*
X22503Y101497D02*Y97497D01*
Y101497D02*X24003Y99497D01*
X25503Y101497D01*
Y97497D01*
X26703Y100997D02*X27203Y101497D01*
X28203D01*
X28703Y100997D01*
X28203Y97497D02*X28703Y97997D01*
X27203Y97497D02*X28203D01*
X26703Y97997D02*X27203Y97497D01*
Y99697D02*X28203D01*
X28703Y100997D02*Y100197D01*
Y99197D02*Y97997D01*
Y99197D02*X28203Y99697D01*
X28703Y100197D02*X28203Y99697D01*
X20503Y341997D02*Y337997D01*
Y341997D02*X22003Y339997D01*
X23503Y341997D01*
Y337997D01*
X24703Y341197D02*X25503Y341997D01*
Y337997D01*
X24703D02*X26203D01*
X90000Y639000D02*X91000D01*
X90500D02*Y635000D01*
X90000D02*X91000D01*
X92200Y638200D02*X93000Y639000D01*
Y635000D01*
X92200D02*X93700D01*
X108700Y274500D02*X110000D01*
X108000Y275200D02*X108700Y274500D01*
X108000Y277800D02*Y275200D01*
Y277800D02*X108700Y278500D01*
X110000D01*
X111200Y277700D02*X112000Y278500D01*
Y274500D01*
X111200D02*X112700D01*
X116000Y273500D02*Y269500D01*
X117300Y273500D02*X118000Y272800D01*
Y270200D01*
X117300Y269500D02*X118000Y270200D01*
X115500Y269500D02*X117300D01*
X115500Y273500D02*X117300D01*
X119200Y273000D02*X119700Y273500D01*
X121200D01*
X121700Y273000D01*
Y272000D01*
X119200Y269500D02*X121700Y272000D01*
X119200Y269500D02*X121700D01*
X112000Y273500D02*Y269500D01*
X110700D02*X110000Y270200D01*
Y272800D02*Y270200D01*
X110700Y273500D02*X110000Y272800D01*
X110700Y273500D02*X112500D01*
X110700Y269500D02*X112500D01*
X108800Y270300D02*X108000Y269500D01*
Y273500D02*Y269500D01*
X107300Y273500D02*X108800D01*
X119000Y278500D02*X120300D01*
X121000Y277800D02*X120300Y278500D01*
X121000Y277800D02*Y275200D01*
X120300Y274500D01*
X119000D02*X120300D01*
X117800Y275000D02*X117300Y274500D01*
X115800D02*X117300D01*
X115800D02*X115300Y275000D01*
Y276000D02*Y275000D01*
X117800Y278500D02*X115300Y276000D01*
Y278500D02*X117800D01*
M02*
