G04 start of page 4 for group 2 idx 13 *
G04 Title: (unknown), jump *
G04 Creator: pcb 4.2.0 *
G04 CreationDate: Mon Sep 28 02:31:23 2020 UTC *
G04 For: commonadmin *
G04 Format: Gerber/RS-274X *
G04 PCB-Dimensions (mil): 6000.00 7000.00 *
G04 PCB-Coordinate-Origin: lower left *
%MOIN*%
%FSLAX25Y25*%
%LNBOTTOM*%
%ADD36C,0.0300*%
%ADD35C,0.0500*%
%ADD34C,0.0130*%
%ADD33C,0.0380*%
%ADD32C,0.0270*%
%ADD31C,0.0800*%
%ADD30C,0.0550*%
%ADD29C,0.0001*%
%ADD28C,0.0200*%
%ADD27C,0.0600*%
%ADD26C,0.0250*%
%ADD25C,0.0100*%
G54D25*X297500Y93000D02*Y110000D01*
X376000Y132500D02*X391000D01*
G54D26*X352000Y186000D02*Y204000D01*
X357500Y196500D02*Y204000D01*
X321500D02*Y196000D01*
G54D25*X376000Y129500D02*X392500D01*
X376000Y126500D02*X393500D01*
X397000Y130000D01*
X392500Y129500D02*X394000Y131000D01*
Y132500D01*
X397000Y130000D02*Y132500D01*
X430000Y157000D02*X425500D01*
X430000Y150000D02*X425500D01*
G54D26*X164500Y368000D02*Y358000D01*
X150000Y315000D02*X174000D01*
X181500Y307500D01*
X189500Y185500D02*X181000D01*
Y190000D02*X189500D01*
X289000Y374500D02*Y369500D01*
X291500Y367000D01*
G54D25*X267500Y370000D02*Y370500D01*
X280500Y383500D01*
X295000D01*
X297500Y381000D01*
X474500Y359000D02*X472500Y357000D01*
X476000Y356000D02*X475000Y355000D01*
X472500Y357000D02*X452000D01*
X444000Y349000D01*
X475000Y355000D02*X453000D01*
X446500Y348500D01*
X444000Y337000D02*Y349000D01*
X446500Y339000D02*Y348500D01*
G54D26*X439000Y237500D02*Y251500D01*
X435500Y248000D02*Y237500D01*
X432000Y244500D02*Y237500D01*
X428500Y241000D02*Y237500D01*
G54D27*X367500Y155000D03*
X307500Y230000D03*
X317500D03*
X327500D03*
X337500D03*
X347500D03*
X357500D03*
X367500D03*
G54D28*X458499Y208500D03*
X438000Y210000D03*
X461500Y208500D03*
X473000Y208000D03*
X476000D03*
X453500Y212000D03*
X456500D03*
X442500Y218500D03*
X445500D03*
X430000Y210000D03*
X432500Y208000D03*
X435500D03*
X417500D03*
X420500D03*
X423500D03*
X407500Y218000D03*
X410500D03*
X413500D03*
G54D27*X327500Y155000D03*
X337500D03*
X347500D03*
X357500D03*
X297500D03*
X307500D03*
X317500D03*
X267500Y110000D03*
X277500D03*
X267500Y100000D03*
X277500D03*
X337500Y110000D03*
X327500D03*
X317500D03*
X307500D03*
X297500D03*
X367500D03*
X357500D03*
X347500D03*
X367500Y35000D03*
X357500D03*
X347500D03*
X337500D03*
X327500D03*
X317500D03*
X307500D03*
X297500D03*
X100000Y230000D03*
Y220000D03*
X90000D03*
Y230000D03*
Y110000D03*
Y100000D03*
X100000D03*
Y110000D03*
G54D29*G36*
X166000Y83000D02*Y77000D01*
X172000D01*
Y83000D01*
X166000D01*
G37*
G54D27*X169000Y70000D03*
Y60000D03*
Y50000D03*
Y40000D03*
Y30000D03*
X188500Y75000D03*
Y55000D03*
G54D29*G36*
X166000Y203000D02*Y197000D01*
X172000D01*
Y203000D01*
X166000D01*
G37*
G54D27*X169000Y190000D03*
Y180000D03*
Y170000D03*
Y160000D03*
Y150000D03*
G54D29*G36*
X166000Y323000D02*Y317000D01*
X172000D01*
Y323000D01*
X166000D01*
G37*
G54D27*X188500Y315000D03*
X169000Y310000D03*
Y300000D03*
X188500Y295000D03*
X169000Y290000D03*
G54D29*G36*
X156000Y294000D02*Y286000D01*
X164000D01*
Y294000D01*
X156000D01*
G37*
G54D27*X169000Y280000D03*
Y270000D03*
X90000Y350000D03*
Y340000D03*
X100000D03*
Y350000D03*
G54D29*G36*
X87250Y302750D02*Y297250D01*
X92750D01*
Y302750D01*
X87250D01*
G37*
G54D30*X130000Y300000D03*
G54D31*X100000Y290000D03*
G54D30*Y300000D03*
G54D29*G36*
X86000Y294000D02*Y286000D01*
X94000D01*
Y294000D01*
X86000D01*
G37*
G54D31*X150000Y290000D03*
G54D29*G36*
X137250Y302750D02*Y297250D01*
X142750D01*
Y302750D01*
X137250D01*
G37*
G54D27*X297500Y230000D03*
X277500D03*
Y220000D03*
X267500D03*
Y230000D03*
Y350000D03*
Y340000D03*
X277500D03*
Y350000D03*
X297500D03*
Y275000D03*
X367500D03*
Y350000D03*
X357500Y275000D03*
X347500D03*
X337500D03*
X327500D03*
X317500D03*
X307500D03*
X357500Y350000D03*
X347500D03*
X337500D03*
X327500D03*
X317500D03*
X307500D03*
X159000Y280000D03*
Y200000D03*
Y190000D03*
Y180000D03*
Y170000D03*
Y80000D03*
Y70000D03*
Y60000D03*
X100000Y130000D03*
X159000Y300000D03*
G54D28*X189500Y185500D03*
X181000D03*
X189500Y190000D03*
X181000D03*
G54D27*X159000Y320000D03*
Y310000D03*
G54D28*X164500Y368000D03*
Y358000D03*
G54D27*X277500Y370000D03*
G54D28*X291500Y367000D03*
X289000Y374500D03*
G54D27*X267500Y370000D03*
X100000Y380000D03*
X90000Y370000D03*
Y380000D03*
Y360000D03*
G54D28*X150000Y315000D03*
X181500Y307500D03*
X297500Y381000D03*
X321500Y196000D03*
X297500Y93000D03*
X321500Y204000D03*
X352000D03*
Y186000D03*
X357500Y204000D03*
Y196500D03*
G54D27*X267500Y130000D03*
G54D28*X444000Y337000D03*
X474500Y359000D03*
X446500Y339000D03*
X476000Y356000D03*
X376000Y132500D03*
X391000D03*
X394000D03*
X397000D03*
X376000Y126500D03*
Y129500D03*
G54D32*X425500Y153500D03*
Y150000D03*
X430000Y157000D03*
Y160500D03*
Y150000D03*
Y153500D03*
X425500Y157000D03*
Y160500D03*
G54D28*X439000Y237500D03*
X435500D03*
X432000D03*
X428500D03*
Y241000D03*
X432000Y244500D03*
X435500Y248000D03*
X439000Y251500D03*
G54D33*G54D25*G54D33*G54D25*G54D33*G54D25*G54D33*G54D25*G54D33*G54D25*G54D34*G54D25*G54D33*G54D25*G54D33*G54D35*G54D33*G54D36*G54D35*G54D36*G54D35*G54D36*G54D33*M02*
