G04 start of page 14 for group -4078 idx -4078 *
G04 Title: (unknown), bottomsilk *
G04 Creator: pcb 4.2.0 *
G04 CreationDate: Mon Jul 20 21:59:32 2020 UTC *
G04 For: commonadmin *
G04 Format: Gerber/RS-274X *
G04 PCB-Dimensions (mil): 24000.00 18000.00 *
G04 PCB-Coordinate-Origin: lower left *
%MOIN*%
%FSLAX25Y25*%
%LNBOTTOMSILK*%
%ADD72C,0.0040*%
G54D72*X504098Y265646D02*Y269646D01*
Y265646D02*X505598Y267646D01*
X507098Y265646D01*
Y269646D01*
X508298Y267446D02*X509798D01*
X508298Y269646D02*X510298D01*
X508298Y265646D02*Y269646D01*
Y265646D02*X510298D01*
X511498D02*X513998D01*
X511498Y269646D02*X513998Y265646D01*
X511498Y269646D02*X513998D01*
X515198Y266146D02*X515698Y265646D01*
X516698D01*
X517198Y266146D01*
X516698Y269646D02*X517198Y269146D01*
X515698Y269646D02*X516698D01*
X515198Y269146D02*X515698Y269646D01*
Y267446D02*X516698D01*
X517198Y266146D02*Y266946D01*
Y267946D02*Y269146D01*
Y267946D02*X516698Y267446D01*
X517198Y266946D02*X516698Y267446D01*
M02*
